<?xml version="1.0" standalone="no"?>
<!DOCTYPE svg PUBLIC "-//W3C//DTD SVG 20010904//EN"
 "http://www.w3.org/TR/2001/REC-SVG-20010904/DTD/svg10.dtd">
<svg version="1.0" xmlns="http://www.w3.org/2000/svg"
 width="1883.000000pt" height="1942.000000pt" viewBox="0 0 1883.000000 1942.000000"
 preserveAspectRatio="xMidYMid meet">
<metadata>
Created by potrace 1.16, written by Peter Selinger 2001-2019
</metadata>
<g transform="translate(0.000000,1942.000000) scale(0.100000,-0.100000)"
fill="#a7262a" stroke="none">
<path d="M10475 19005 c-89 -23 -228 -82 -264 -111 -9 -7 -35 -26 -59 -42 -47
-31 -218 -196 -260 -252 -15 -19 -49 -59 -77 -89 -27 -30 -43 -50 -35 -46 8 5
4 -5 -10 -22 -14 -17 -28 -28 -33 -26 -4 2 -6 1 -5 -4 5 -15 -134 -213 -149
-213 -8 0 -12 -5 -8 -12 3 -7 -2 -2 -12 12 -65 90 -240 275 -304 321 -16 11
-26 25 -23 31 4 6 2 8 -3 5 -6 -4 -33 11 -61 33 -71 57 -184 114 -287 145 -75
23 -102 27 -174 23 -173 -9 -293 -103 -371 -290 -13 -31 -28 -54 -33 -51 -6 3
-7 1 -4 -4 4 -6 -7 -53 -24 -104 -18 -52 -39 -128 -49 -169 -10 -41 -36 -154
-59 -250 -22 -96 -56 -270 -76 -385 -30 -177 -44 -273 -79 -517 -5 -34 -14
-48 -29 -48 -7 0 -48 -12 -92 -26 -44 -14 -93 -30 -110 -34 -97 -27 -428 -170
-440 -191 -4 -5 -17 -9 -31 -9 -14 0 -23 -4 -20 -9 3 -5 -9 -15 -27 -22 -17
-7 -40 -20 -49 -29 -9 -8 -38 -26 -65 -40 -26 -14 -51 -29 -55 -35 -5 -6 -8
-6 -8 -1 0 6 -6 3 -12 -5 -7 -8 -40 -35 -73 -59 -108 -80 -229 -186 -310 -272
-151 -161 -175 -187 -175 -192 0 -14 -63 -91 -72 -88 -5 1 -7 -2 -4 -7 4 -5
-2 -14 -11 -20 -10 -6 -15 -11 -11 -11 4 0 -17 -39 -48 -86 -75 -116 -143
-246 -202 -384 -43 -101 -66 -168 -153 -448 -24 -77 -95 -188 -155 -241 -61
-53 -344 -189 -406 -194 -10 -1 -18 -5 -18 -9 0 -4 -11 -8 -24 -8 -14 0 -28
-4 -31 -10 -3 -5 -14 -10 -23 -10 -35 0 -219 -99 -263 -142 -25 -24 -46 -46
-48 -50 -1 -4 -12 -29 -23 -55 -30 -66 -35 -185 -14 -290 14 -67 15 -90 5
-125 -6 -24 -12 -52 -14 -64 -4 -41 -12 -43 -83 -23 -142 43 -286 42 -421 -3
l-64 -20 -41 48 c-22 26 -40 51 -39 54 1 4 -4 7 -10 7 -7 0 -31 11 -53 26 -23
14 -68 33 -100 43 -70 20 -212 23 -267 5 -35 -12 -41 -11 -75 11 -92 61 -207
110 -297 128 -70 13 -251 9 -313 -9 -67 -18 -162 -64 -214 -104 -25 -19 -49
-34 -52 -31 -3 2 -4 1 -1 -2 2 -4 -8 -23 -24 -43 -35 -45 -71 -107 -71 -125 0
-19 -30 -41 -75 -54 -22 -6 -58 -23 -81 -38 -41 -27 -104 -110 -104 -138 0
-15 -15 -29 -35 -32 -39 -7 -133 -52 -173 -81 -57 -44 -78 -68 -99 -113 -21
-46 -21 -44 -34 -130 -10 -62 -18 -81 -44 -110 -18 -19 -38 -45 -45 -58 -20
-40 -29 -124 -18 -173 11 -49 10 -53 -121 -297 -6 -9 -42 -84 -82 -167 -39
-82 -75 -151 -80 -153 -5 -2 -9 -10 -9 -17 0 -17 -100 -218 -112 -226 -5 -3
-9 -9 -8 -13 4 -13 -22 -66 -32 -66 -5 0 -7 -4 -4 -9 3 -4 -68 -156 -158 -337
-89 -181 -178 -362 -196 -401 -18 -40 -36 -73 -40 -73 -4 0 -11 -12 -15 -27
-10 -42 -317 -663 -325 -658 -4 2 -7 -1 -7 -8 0 -18 -63 -156 -173 -377 -53
-107 -105 -214 -115 -237 -10 -23 -23 -39 -28 -36 -6 3 -7 1 -3 -5 5 -9 -144
-328 -201 -427 -9 -16 -17 -32 -18 -35 0 -3 -11 -31 -23 -63 -30 -79 -30 -200
-1 -277 11 -30 21 -61 22 -67 0 -7 4 -13 9 -13 5 0 6 -4 3 -10 -3 -5 -2 -10 3
-10 5 0 25 -24 44 -52 104 -155 434 -436 721 -616 33 -21 85 -54 117 -74 31
-20 81 -50 111 -66 30 -16 72 -40 94 -52 22 -13 65 -37 95 -54 30 -16 58 -33
61 -38 3 -5 14 -10 25 -12 10 -2 83 -36 161 -75 79 -39 145 -71 149 -71 3 0
30 -11 60 -25 30 -14 57 -25 60 -25 3 0 33 -13 67 -29 34 -15 82 -34 107 -41
25 -8 50 -16 55 -20 6 -4 57 -21 115 -39 58 -18 112 -36 121 -41 9 -5 45 -14
79 -20 34 -6 73 -16 87 -21 14 -5 59 -16 101 -24 43 -8 100 -20 129 -26 54
-11 303 -15 338 -5 11 3 36 9 55 14 41 10 117 48 142 69 9 8 21 12 27 8 7 -3
8 0 5 9 -3 9 4 21 19 31 14 9 30 30 36 46 5 16 15 29 21 29 7 0 10 5 8 12 -3
7 14 46 36 88 23 41 57 105 76 142 19 36 39 64 44 61 5 -4 7 1 4 9 -6 15 25
78 38 78 4 0 0 -7 -7 -17 -12 -14 -12 -16 1 -11 8 2 48 -25 95 -65 44 -38 98
-81 120 -96 22 -14 42 -28 45 -31 14 -14 166 -78 205 -85 181 -36 372 -30 488
14 18 7 26 7 22 1 -3 -6 0 -10 9 -10 8 0 16 -4 18 -9 4 -12 66 -87 108 -131
19 -20 82 -86 140 -145 58 -60 103 -114 102 -119 -2 -6 -1 -8 3 -4 4 4 30 -17
59 -45 196 -197 462 -419 687 -572 69 -47 135 -95 148 -106 l22 -21 -26 -20
c-14 -11 -39 -40 -56 -64 -18 -27 -35 -42 -42 -38 -7 4 -9 4 -5 -1 9 -9 -19
-65 -32 -65 -6 0 -10 -5 -10 -10 0 -9 -47 -88 -60 -100 -13 -12 -101 -172
-139 -255 -170 -357 -259 -733 -277 -1169 -10 -233 31 -609 98 -886 50 -210
144 -487 218 -645 99 -212 92 -189 67 -197 -12 -3 -46 -6 -75 -7 -63 -1 -253
-38 -266 -52 -6 -5 -18 -9 -28 -9 -17 0 -104 -35 -161 -65 -16 -8 -35 -15 -42
-15 -7 0 -15 -4 -17 -8 -1 -4 -21 -19 -43 -32 -22 -13 -61 -42 -87 -63 -26
-21 -52 -36 -58 -32 -6 3 -9 2 -8 -3 2 -5 -19 -33 -47 -64 -45 -49 -106 -131
-168 -228 -35 -54 -86 -193 -109 -294 -29 -132 -22 -337 17 -451 29 -89 81
-191 127 -248 16 -21 27 -44 25 -52 -9 -21 14 -41 61 -54 44 -12 52 -31 16
-41 -10 -3 -21 -12 -23 -20 -2 -8 -5 -22 -8 -31 -3 -9 2 -23 10 -31 21 -21 6
-41 -25 -33 -37 9 -73 -23 -64 -59 7 -29 45 -52 70 -43 23 9 50 67 37 80 -17
17 5 46 34 43 13 -2 22 0 20 5 -3 4 0 11 6 14 6 4 14 16 18 27 7 19 9 19 41
-11 19 -17 39 -32 45 -32 82 -9 81 -9 55 -39 -34 -39 -24 -70 27 -82 24 -6 70
33 59 50 -3 6 2 13 11 16 12 5 28 -6 54 -34 l38 -41 30 21 c16 13 34 19 40 16
6 -4 32 -9 58 -12 48 -6 88 -12 88 -13 0 -1 35 -3 79 -6 43 -2 81 -7 84 -10 3
-3 -2 -13 -11 -23 -10 -10 -17 -31 -17 -45 0 -24 4 -27 33 -28 17 0 40 -2 49
-4 10 -2 15 2 12 10 -23 59 112 -35 142 -100 19 -39 20 -40 66 -37 35 2 60 -4
98 -23 28 -14 53 -31 55 -38 2 -7 6 -24 9 -39 9 -39 59 -48 92 -17 21 20 27
21 51 10 16 -7 57 -17 93 -22 115 -16 105 -9 94 -64 -7 -40 5 -61 41 -67 39
-8 68 18 63 58 -4 38 12 50 43 34 14 -8 18 -17 13 -36 -9 -33 11 -54 53 -54
33 0 42 8 47 47 5 33 41 27 57 -9 18 -42 60 -50 95 -17 13 12 21 26 18 30 -12
21 15 7 41 -21 34 -36 68 -38 99 -7 26 26 37 24 82 -10 l31 -23 36 24 36 25
37 -20 c47 -23 67 -24 100 -3 23 16 27 15 65 -1 35 -16 45 -17 75 -6 37 13
109 7 99 -9 -3 -4 17 -2 45 5 32 8 63 10 87 5 44 -9 3173 -8 3188 1 6 4 37 1
70 -5 50 -11 62 -10 74 2 9 9 25 12 45 8 17 -4 44 -9 59 -13 18 -3 34 0 45 9
21 19 51 19 77 2 28 -20 62 -17 86 7 29 29 50 30 71 4 10 -13 29 -25 43 -27
27 -6 42 7 62 51 6 14 12 21 12 14 1 -7 7 -10 15 -7 17 7 28 -30 12 -46 -8 -8
-6 -9 8 -4 11 4 17 4 13 -2 -8 -14 59 -9 77 6 9 7 16 25 16 41 0 33 12 43 41
34 14 -5 18 -12 14 -25 -16 -50 61 -83 98 -42 21 23 21 41 2 62 -14 15 -13 18
7 27 37 18 134 32 172 26 25 -4 44 0 63 13 36 24 44 24 64 0 19 -23 76 -26 90
-5 5 8 9 24 9 37 0 13 4 20 10 17 6 -3 10 -2 10 3 0 6 9 8 21 5 16 -4 20 -12
16 -30 -3 -16 2 -28 17 -38 30 -22 53 -18 73 11 16 25 16 28 1 55 -19 32 -17
34 32 44 19 4 47 14 63 22 24 12 30 12 49 -2 42 -29 75 -17 103 37 12 25 25
28 35 8 22 -47 30 -55 54 -58 52 -6 70 32 41 88 -14 27 -14 29 8 35 12 3 39
13 60 22 35 15 39 15 72 -2 33 -19 35 -19 54 0 12 10 21 26 21 35 0 22 28 53
64 72 23 12 37 13 62 5 28 -9 37 -7 54 8 11 10 20 26 20 37 0 20 58 61 77 53
7 -2 12 0 10 6 -3 16 32 36 41 24 4 -6 21 -12 38 -13 28 -3 33 1 43 29 6 17 8
35 6 40 -6 9 15 24 79 58 35 18 42 19 56 6 23 -20 63 -19 83 3 19 21 22 48 7
57 -6 4 -3 14 8 25 12 13 48 24 112 35 223 39 492 116 761 219 208 79 586 275
694 359 6 4 33 22 60 39 28 18 53 37 57 43 4 5 8 6 8 1 0 -5 8 1 19 12 10 12
23 22 28 22 6 0 16 7 23 15 7 8 17 12 23 8 5 -3 7 -2 4 3 -3 6 19 28 50 49 30
22 61 45 68 52 7 7 16 9 20 5 5 -4 5 -2 2 4 -4 7 0 17 8 24 8 7 15 9 15 6 0
-4 10 2 22 13 11 11 26 18 31 14 6 -3 7 -2 4 4 -8 13 58 77 72 69 6 -4 9 -2 6
6 -3 7 7 22 21 33 15 11 54 46 88 77 33 31 64 54 70 51 5 -3 6 -2 3 4 -10 15
108 127 125 117 10 -6 11 -5 1 7 -10 12 0 28 56 87 38 40 67 72 64 72 -2 0 5
10 17 22 11 13 34 40 51 60 17 21 35 35 40 32 5 -3 8 -1 7 5 -2 6 5 21 15 33
10 13 50 66 90 118 39 52 75 97 79 98 4 2 8 9 8 15 0 7 10 23 21 37 11 14 17
18 13 10 -4 -8 -3 -11 1 -7 5 4 10 13 11 20 1 7 37 66 81 132 89 135 113 172
144 230 12 22 25 42 29 45 3 3 13 19 21 35 9 17 30 57 48 90 19 33 45 83 60
110 14 28 31 53 36 57 6 4 6 8 2 8 -4 0 5 24 20 52 16 29 46 92 67 140 21 49
43 88 48 88 5 0 7 4 4 9 -3 5 7 36 23 68 52 105 178 432 244 638 118 362 182
602 258 967 45 216 46 223 83 473 44 303 52 380 75 695 23 311 8 1139 -29
1660 -24 343 -32 572 -27 800 3 135 10 263 16 285 5 22 19 92 31 155 32 164
107 385 177 520 87 167 100 191 117 209 8 9 14 18 13 21 0 3 19 39 43 80 128
219 209 428 240 622 12 73 9 342 -3 393 -3 11 -13 50 -21 86 -33 138 -114 309
-205 433 -69 93 -133 155 -266 259 -28 22 -135 87 -143 87 -5 0 -20 8 -33 18
-13 11 -36 22 -51 26 -16 3 -28 11 -28 17 0 6 -4 8 -9 5 -4 -3 -32 3 -62 14
-29 11 -62 20 -71 20 -10 0 -18 5 -18 10 0 6 -16 10 -35 10 -19 0 -44 4 -57
10 -68 29 -361 27 -496 -4 -150 -34 -322 -110 -419 -183 -18 -14 -33 -23 -33
-20 0 3 -17 -10 -37 -28 -21 -19 -42 -35 -48 -35 -19 -1 -310 -310 -310 -330
0 -7 -47 -73 -56 -80 -4 -3 -13 -17 -19 -30 -17 -40 -62 -114 -74 -122 -6 -4
-8 -8 -4 -8 4 0 -19 -53 -51 -117 -121 -243 -192 -455 -256 -763 -81 -392 -96
-709 -71 -1491 27 -841 21 -1325 -20 -1679 -37 -324 -87 -559 -181 -860 -58
-187 -93 -272 -107 -267 -6 2 -10 12 -10 21 1 9 -2 16 -6 16 -4 0 -10 12 -13
27 -11 61 -110 398 -129 438 -5 12 -10 27 -12 35 -2 13 -25 80 -44 130 -3 8
-6 20 -7 25 -2 10 -9 27 -49 119 -11 27 -21 52 -22 55 0 3 -8 23 -17 45 -9 21
-17 44 -17 52 0 7 -4 16 -10 19 -5 3 -10 12 -10 20 0 13 -15 47 -90 210 -53
114 -82 180 -98 220 -8 22 -20 46 -25 53 -5 7 -28 52 -51 100 -23 48 -51 103
-62 123 -12 20 -25 47 -29 60 -4 13 -11 26 -15 29 -4 3 -23 39 -44 80 -20 41
-41 82 -46 90 -42 70 -130 232 -132 242 -2 7 -9 19 -16 26 -7 8 -34 50 -61 95
-26 45 -64 108 -85 140 -20 31 -33 57 -29 57 4 0 3 4 -2 8 -19 13 -55 69 -48
76 3 3 2 6 -4 6 -11 0 -41 40 -45 61 -2 7 -9 19 -16 28 -8 9 -61 88 -119 176
-131 198 -305 449 -315 453 -5 2 -8 10 -8 18 0 8 -4 14 -8 14 -4 0 -16 14 -26
30 -9 17 -28 42 -42 57 -13 14 -21 30 -17 36 3 6 1 7 -5 3 -7 -4 -12 -3 -12 1
0 8 -22 38 -147 200 -34 44 -60 83 -58 87 3 3 2 4 -1 2 -4 -3 -25 18 -47 47
-22 29 -55 69 -73 89 l-33 37 68 103 c56 84 75 125 107 223 38 119 38 122 39
285 0 125 -4 183 -18 238 -59 243 -162 441 -299 574 -52 50 -58 60 -52 85 10
46 53 181 63 200 21 40 97 405 127 608 14 94 18 186 18 420 0 319 -5 374 -64
695 -19 103 -55 220 -133 430 -56 153 -150 354 -198 425 -16 24 -29 45 -29 48
0 7 -114 179 -134 204 -8 10 -43 56 -78 103 -34 47 -97 121 -140 166 -43 44
-75 84 -71 87 3 4 1 7 -5 7 -8 0 -12 21 -12 60 0 32 -4 92 -9 132 -6 40 -15
118 -21 173 -11 89 -18 135 -50 320 -5 28 -20 104 -34 170 -13 66 -30 145 -36
175 -6 30 -20 87 -31 125 -11 39 -25 88 -31 110 -6 22 -18 65 -28 95 -10 30
-24 78 -33 105 -8 28 -27 82 -42 120 -15 39 -41 111 -58 160 -18 50 -35 92
-39 93 -5 2 -8 10 -8 18 0 8 -4 22 -10 32 -12 22 -90 193 -90 198 0 6 -53 109
-99 194 -23 41 -48 90 -57 109 -8 19 -22 40 -30 48 -8 8 -14 20 -14 28 0 7 -4
15 -8 17 -7 2 -46 59 -157 226 -41 61 -325 347 -354 357 -13 4 -19 11 -15 18
4 7 4 9 0 5 -5 -4 -36 10 -69 31 -55 33 -98 54 -162 81 -75 30 -231 38 -320
15z m246 -154 c61 -17 128 -46 139 -60 3 -3 19 -14 35 -23 17 -10 29 -22 28
-27 -2 -6 3 -8 10 -5 15 5 94 -62 190 -161 101 -104 276 -343 269 -367 -1 -5
1 -7 6 -4 5 3 20 -14 33 -37 56 -98 82 -147 122 -227 24 -47 49 -94 55 -105
71 -123 249 -590 312 -820 4 -16 18 -64 29 -105 115 -413 183 -889 199 -1402
8 -225 11 -237 67 -243 42 -5 62 39 70 154 8 121 12 133 31 106 8 -11 21 -27
28 -36 97 -115 227 -299 220 -310 -3 -5 -1 -9 4 -9 17 0 146 -235 192 -350 12
-30 30 -73 40 -95 81 -187 154 -487 185 -760 27 -238 17 -577 -25 -865 -26
-178 -91 -421 -184 -685 -57 -161 -65 -177 -85 -170 -8 3 -12 3 -8 -1 9 -10
-13 -35 -24 -28 -5 3 -8 2 -7 -3 4 -11 -65 -73 -81 -73 -6 0 -11 -4 -11 -8 0
-4 -15 -16 -32 -27 -18 -10 -35 -22 -38 -26 -14 -19 -154 -108 -163 -102 -6 3
-7 2 -4 -4 4 -6 -17 -23 -46 -38 -29 -16 -66 -39 -83 -52 -17 -13 -34 -23 -37
-23 -3 0 -30 -14 -59 -32 -108 -65 -380 -198 -391 -191 -7 3 -9 3 -5 -2 10
-11 -230 -117 -245 -109 -7 4 -8 3 -4 -1 10 -11 -132 -67 -146 -58 -6 3 -7 2
-4 -4 3 -5 -33 -22 -81 -38 -48 -16 -91 -32 -97 -35 -10 -7 -130 -50 -149 -55
-6 -1 -18 -5 -26 -8 -85 -33 -334 -113 -490 -158 -19 -6 -44 -14 -55 -19 -21
-9 -70 -22 -385 -101 -169 -42 -410 -98 -490 -114 -14 -2 -79 -15 -145 -29
-135 -27 -287 -50 -420 -65 -49 -5 -133 -18 -185 -29 -191 -41 -411 -55 -804
-49 -360 5 -449 12 -701 57 -33 6 -89 15 -125 21 -95 14 -378 86 -467 118
-140 51 -167 62 -273 114 -106 51 -154 80 -178 107 -9 10 -11 11 -6 1 14 -27
-147 113 -191 167 -44 53 -102 161 -124 230 -11 35 -1 72 19 72 22 0 70 42 70
60 0 6 4 10 9 10 9 0 61 110 61 130 0 12 46 74 97 130 56 61 138 265 148 369
2 20 7 68 10 106 4 39 11 87 16 109 19 73 -29 126 -118 126 -48 0 -162 24
-222 47 -124 46 -219 114 -283 202 -23 31 -47 61 -52 67 -6 6 -22 26 -36 44
-14 19 -67 75 -118 125 -79 76 -100 103 -133 172 -61 129 -90 212 -99 288 -7
63 -6 72 12 87 11 10 25 15 31 11 6 -3 7 -1 3 5 -4 7 -1 12 8 12 9 0 16 5 16
11 0 5 5 7 12 3 7 -4 8 -3 4 4 -4 6 2 17 14 24 11 7 20 17 20 23 0 5 17 29 39
53 21 23 36 42 32 42 -13 1 85 49 101 50 22 0 89 45 81 54 -4 3 -1 6 6 6 7 0
10 4 6 9 -3 5 -1 12 4 15 19 12 23 82 7 121 -9 20 -13 42 -9 48 4 6 1 7 -6 3
-7 -5 -20 -2 -29 6 -25 22 -92 58 -110 61 -10 1 -21 5 -27 9 -5 3 -31 9 -57
12 -26 4 -55 14 -64 23 -15 15 -11 18 47 40 35 13 70 25 79 26 8 2 20 5 25 8
6 4 75 32 155 64 80 32 154 64 164 71 15 10 23 11 33 2 10 -8 12 -7 7 5 -4 11
4 20 23 30 35 19 122 102 148 142 36 55 45 70 51 88 3 9 11 17 16 17 5 0 7 4
3 9 -3 5 0 15 7 23 7 7 14 20 15 28 1 8 9 35 18 60 9 25 19 54 21 66 4 21 63
196 104 308 40 109 184 380 216 407 8 6 14 15 14 20 0 12 60 94 60 83 1 -5 7
5 14 21 7 17 20 38 27 46 8 8 39 44 69 79 84 100 309 318 363 352 6 4 15 4 21
1 5 -3 6 -1 3 4 -4 6 12 23 36 39 23 16 44 32 45 37 2 4 10 7 18 7 8 0 14 4
14 8 0 7 56 45 70 48 17 3 60 29 60 36 0 5 5 6 10 3 6 -3 10 -1 10 5 0 10 48
35 63 32 4 -1 7 3 7 9 0 5 5 7 10 4 6 -3 10 -2 10 4 0 9 43 28 46 20 1 -2 10
3 20 12 32 27 242 121 254 114 5 -3 11 -1 15 4 11 19 383 121 530 146 44 8 91
16 105 19 129 23 464 48 607 45 78 -1 87 0 108 22 12 13 34 53 48 89 43 111
90 210 99 210 5 0 7 4 3 10 -3 5 -1 17 4 27 6 10 47 92 92 183 44 91 85 168
90 171 5 3 11 15 13 26 5 26 28 63 39 63 4 0 6 3 3 8 -2 4 11 34 29 67 19 33
41 75 51 92 9 18 20 30 25 27 5 -3 6 3 2 12 -4 12 -3 15 5 10 8 -5 10 -2 6 8
-3 9 -1 16 5 16 6 0 11 7 11 15 0 8 5 15 10 15 6 0 10 5 10 12 0 18 82 149 97
155 7 3 11 8 8 13 -2 4 4 16 14 27 11 11 26 34 35 52 10 18 26 41 36 51 11 11
31 38 45 60 14 22 30 38 34 35 5 -2 8 2 7 10 -3 31 268 308 296 303 7 -2 12 2
11 9 -2 7 11 21 27 33 17 12 30 18 30 13 0 -4 7 1 15 11 8 11 15 16 15 10 0
-5 3 -5 8 1 13 18 88 54 143 69 75 20 162 19 240 -3z m-1800 -290 c113 -56
162 -86 206 -127 20 -19 38 -34 41 -34 9 0 232 -232 232 -241 0 -4 10 -19 23
-33 42 -46 55 -64 61 -83 4 -12 -18 -60 -68 -145 -40 -70 -80 -140 -87 -157
-8 -17 -17 -31 -21 -31 -5 0 -8 -6 -8 -14 0 -18 -125 -267 -131 -261 -3 2 -6
-6 -6 -18 -1 -12 -7 -23 -13 -25 -5 -2 -10 -9 -10 -15 0 -7 -27 -77 -60 -157
l-61 -145 -102 0 -102 0 -7 135 c-14 300 -49 565 -109 820 -33 144 -82 262
-124 299 -18 16 -44 32 -56 36 -37 12 -58 39 -29 37 3 0 6 10 6 23 2 26 62
125 76 125 4 0 17 9 28 20 11 11 20 18 20 16 0 -3 12 2 28 10 19 10 50 13 108
10 70 -3 91 -9 165 -45z m-5385 -4645 c39 -7 95 -24 125 -38 52 -25 162 -98
146 -98 -4 0 -2 -6 5 -14 16 -17 67 -13 115 9 28 14 56 16 135 13 55 -2 102
-8 106 -13 4 -6 14 -11 22 -13 31 -7 80 -44 73 -55 -3 -7 -2 -9 2 -4 12 10 75
-53 75 -74 0 -10 6 -19 13 -22 6 -3 -7 -2 -30 0 -35 5 -43 2 -53 -17 -10 -18
-9 -25 3 -37 12 -12 18 -11 44 11 27 23 32 24 43 11 7 -8 18 -15 24 -15 6 0
17 -9 24 -20 7 -11 22 -20 33 -20 19 0 21 4 16 30 -6 27 -3 32 34 51 23 11 47
18 55 15 8 -3 13 -2 10 3 -6 10 100 31 152 31 40 0 164 -29 177 -41 5 -5 16
-9 25 -9 10 0 32 -8 51 -17 34 -17 164 -106 185 -127 14 -14 7 -36 -12 -36 -8
0 -14 -7 -14 -16 0 -12 8 -15 33 -12 30 3 34 0 60 -55 15 -32 31 -80 34 -108
5 -45 10 -54 44 -76 30 -20 48 -24 81 -21 48 5 69 -4 129 -53 69 -56 100 -88
104 -111 3 -12 8 -24 12 -27 15 -11 33 -62 33 -94 0 -49 -19 -107 -35 -107 -9
0 -15 -10 -15 -25 0 -14 4 -25 9 -25 19 0 41 12 36 20 -5 9 43 5 100 -6 17 -4
55 -24 85 -45 99 -70 138 -151 139 -286 1 -91 0 -92 -82 -130 -68 -32 -111
-72 -96 -90 14 -16 41 -17 56 -2 13 13 33 4 33 -15 0 -7 13 -25 30 -41 16 -15
27 -32 24 -36 -2 -4 1 -11 7 -15 8 -4 9 -3 5 4 -4 7 -3 12 3 12 17 0 23 -38
12 -77 -6 -21 -11 -54 -11 -73 0 -41 -28 -105 -60 -139 -19 -19 -29 -22 -62
-17 -29 5 -40 3 -44 -9 -7 -16 -31 -19 -52 -6 -12 7 -12 12 -1 29 12 19 11 24
-3 38 -19 20 -36 12 -49 -24 -6 -16 -13 -22 -17 -16 -9 14 -67 44 -84 44 -25
0 -115 89 -136 133 -32 68 -42 72 -93 37 -49 -33 -74 -37 -103 -15 -17 13 -23
13 -44 -1 -20 -13 -26 -14 -33 -3 -5 8 -9 22 -9 32 0 13 -6 17 -22 15 -13 -2
-22 -9 -20 -16 3 -16 -28 -15 -72 3 -22 9 -46 30 -58 50 -11 21 -28 35 -39 35
-10 0 -29 10 -40 21 -13 13 -24 17 -28 11 -4 -7 -16 -6 -36 3 -62 29 -86 66
-60 95 12 13 12 20 2 33 -11 15 -16 14 -57 -13 -25 -16 -57 -38 -71 -49 -15
-12 -36 -22 -48 -24 -12 -2 -27 -11 -34 -20 -6 -10 -29 -20 -49 -23 -33 -6
-37 -4 -40 17 -2 18 -9 24 -28 24 -21 0 -25 -5 -25 -30 0 -29 -1 -30 -40 -27
-50 5 -66 18 -59 47 4 17 0 26 -14 34 -22 12 -52 5 -52 -11 0 -5 -4 -6 -10 -3
-6 3 -7 -1 -4 -9 11 -28 -22 -17 -75 25 -46 37 -68 61 -39 43 7 -4 8 -3 4 5
-4 6 -11 9 -16 6 -4 -3 -13 2 -20 10 -8 9 -26 15 -46 13 -18 -1 -31 -4 -29 -7
7 -7 -56 -47 -121 -77 -78 -36 -243 -46 -323 -19 -46 15 -51 20 -51 46 0 22
-5 29 -19 29 -10 0 -24 -7 -31 -15 -11 -13 -16 -13 -41 2 -16 10 -29 20 -29
24 0 4 -9 9 -19 12 -14 3 -21 15 -23 38 -3 32 -5 34 -36 31 -24 -3 -37 2 -51
20 -19 23 -19 23 0 41 11 11 19 26 17 34 -4 21 -39 25 -59 7 -14 -13 -18 -10
-34 26 -14 31 -16 43 -7 52 20 20 14 48 -13 58 -23 9 -25 15 -25 69 0 76 -19
94 -83 79 -48 -11 -170 -1 -162 13 4 5 -1 6 -9 3 -11 -4 -16 0 -16 14 0 11 5
22 12 24 17 6 2 38 -18 38 -9 0 -23 -8 -29 -17 -12 -16 -15 -15 -32 15 -22 39
-56 51 -82 28 -10 -9 -20 -14 -22 -11 -3 2 -5 -4 -6 -15 -2 -24 -56 -84 -99
-111 -36 -22 -59 -17 -71 16 -11 32 -53 17 -53 -20 0 -14 -5 -25 -11 -25 -5 0
-7 5 -4 10 3 6 2 10 -4 10 -5 0 -11 12 -13 27 -4 33 -44 58 -65 41 -7 -6 -13
-7 -13 -2 0 5 -5 2 -11 -6 -8 -11 -9 -7 -4 17 7 35 -11 74 -31 66 -6 -2 -15 0
-19 6 -3 6 0 9 7 6 19 -7 38 8 43 35 5 25 -12 53 -26 44 -18 -11 -29 7 -17 26
8 13 21 18 39 16 39 -4 50 6 54 48 2 20 6 40 10 45 3 5 -1 11 -7 13 -19 7 -15
106 6 149 42 88 138 147 218 136 53 -8 103 9 119 40 10 19 10 25 -3 36 -49 37
42 141 127 146 22 1 50 8 62 16 28 19 33 19 33 -1 0 -21 44 -15 48 7 2 11 -7
18 -27 22 -29 6 -30 7 -19 39 20 57 48 102 88 138 56 51 70 62 70 53 0 -4 7 2
15 13 8 10 15 15 15 11 0 -5 7 -1 15 7 18 18 70 33 152 45 86 13 111 12 189
-3z m13769 -1096 c110 -15 295 -60 350 -85 28 -12 82 -45 120 -73 39 -28 87
-64 109 -79 48 -35 199 -194 238 -251 38 -56 115 -239 134 -320 27 -116 46
-237 45 -289 -1 -69 -26 -212 -52 -299 -12 -38 -23 -79 -26 -91 -3 -13 -9 -23
-14 -23 -5 0 -9 -8 -9 -17 -1 -26 -65 -155 -73 -147 -4 4 -7 -1 -7 -12 -1 -26
-45 -96 -55 -86 -4 4 -5 1 -1 -6 7 -12 -105 -208 -128 -224 -6 -4 -8 -8 -3 -8
4 0 -13 -40 -38 -90 -172 -343 -255 -720 -255 -1160 0 -165 7 -309 40 -835 33
-532 38 -1336 10 -1630 -56 -586 -129 -1011 -260 -1505 -57 -212 -167 -553
-254 -783 -52 -137 -63 -166 -102 -252 -7 -16 -25 -57 -39 -90 -65 -146 -179
-375 -187 -375 -5 0 -7 -4 -3 -9 3 -5 -1 -15 -8 -23 -14 -13 -17 -21 -17 -37
0 -5 -11 -23 -26 -40 -14 -16 -25 -34 -26 -38 -2 -19 -22 -53 -31 -53 -6 0 -8
-3 -5 -6 12 -11 -187 -328 -305 -486 -27 -37 -54 -65 -60 -61 -5 3 -7 1 -3 -5
6 -10 -75 -108 -121 -145 -13 -10 -23 -28 -23 -41 0 -29 -18 -46 -50 -46 -49
0 -93 -55 -60 -75 5 -3 6 -13 3 -21 -5 -13 -7 -13 -14 -2 -7 10 -9 10 -9 0 0
-8 -9 -11 -25 -8 -15 3 -34 -3 -47 -14 -21 -16 -22 -21 -11 -50 10 -28 9 -33
-9 -48 -11 -9 -32 -30 -47 -47 -83 -95 -109 -117 -130 -106 -51 28 -90 -3 -71
-55 9 -23 7 -31 -11 -50 -12 -13 -25 -21 -28 -18 -3 3 1 9 8 13 11 7 9 13 -8
30 -33 33 -91 19 -91 -22 0 -37 11 -48 59 -56 15 -3 -39 -30 -59 -31 -54 -1
-69 -11 -76 -49 -7 -40 -30 -71 -51 -71 -8 0 -12 -4 -9 -9 8 -12 -25 -19 -49
-10 -59 23 -104 -4 -91 -55 7 -28 -2 -39 -44 -61 -19 -10 -39 -24 -43 -31 -12
-20 -35 -17 -42 6 -15 48 -105 30 -105 -21 0 -15 5 -31 10 -34 25 -15 9 -35
-28 -35 -41 0 -62 -14 -62 -40 0 -20 -34 -53 -43 -43 -4 3 -7 21 -7 40 0 20
-5 33 -12 33 -7 0 -22 3 -34 6 -41 11 -74 -62 -43 -93 19 -19 4 -41 -24 -36
-33 6 -65 -12 -69 -39 -4 -26 -26 -36 -33 -14 -3 9 -8 24 -12 34 -3 9 -6 20
-5 23 2 10 -71 -2 -85 -13 -18 -15 -16 -54 4 -73 14 -14 14 -18 2 -26 -8 -5
-24 -9 -36 -9 -12 0 -35 -11 -52 -25 -29 -25 -30 -25 -40 -6 -13 24 -44 35
-77 27 -20 -5 -24 -12 -24 -45 0 -35 -3 -39 -42 -57 -45 -20 -57 -21 -105 -10
-29 7 -36 4 -59 -23 -31 -37 -44 -38 -72 -8 -25 27 -59 28 -77 4 -7 -9 -16
-13 -20 -9 -4 4 -3 -3 4 -15 15 -29 15 -30 -13 -35 -20 -4 -23 -1 -21 18 3 28
62 99 89 109 13 5 24 2 32 -10 19 -26 66 -16 82 18 8 16 10 36 6 45 -4 9 -6
20 -6 25 1 4 -1 6 -5 6 -19 -3 -33 2 -33 12 0 7 13 9 38 4 48 -8 72 15 74 70
1 34 5 39 40 53 34 14 38 18 38 52 0 29 6 41 31 59 17 13 38 39 46 59 8 21 28
53 45 72 44 53 45 55 41 65 -4 14 57 86 68 80 5 -4 6 1 3 9 -4 10 -1 16 7 16
7 0 10 3 6 6 -8 8 18 60 43 87 19 19 19 19 46 -2 34 -26 56 -27 79 -1 28 31
10 71 -35 85 -26 7 -35 15 -32 28 2 9 7 17 12 17 4 0 10 10 14 23 5 21 7 20
23 -13 15 -30 23 -35 53 -35 29 0 36 5 45 29 8 24 6 31 -14 47 -13 10 -34 19
-47 19 -13 0 -24 5 -24 10 0 14 50 114 61 120 5 3 15 26 24 50 9 25 29 59 46
76 19 19 31 44 33 63 1 22 12 40 32 56 24 19 29 30 29 67 0 37 3 43 23 46 30
4 52 40 49 79 -1 17 -5 29 -9 27 -4 -2 -10 1 -14 7 -4 8 -3 9 4 5 7 -4 12 -3
12 3 0 5 9 8 20 6 24 -5 60 27 60 53 0 10 -13 29 -29 43 -22 19 -28 32 -24 48
7 26 23 28 30 3 2 -10 13 -23 24 -30 16 -10 24 -9 44 4 26 17 29 24 25 59 -3
31 -21 46 -49 43 -34 -4 -36 5 -16 75 12 43 23 61 40 69 30 13 40 40 26 67
-15 28 -4 49 27 53 19 2 30 11 37 31 8 26 6 31 -18 49 -27 19 -36 51 -18 63 5
3 18 -5 28 -17 19 -24 61 -26 75 -4 14 21 8 64 -9 72 -21 8 -20 8 -55 0 l-26
-6 14 47 c8 25 14 57 14 69 0 16 10 29 30 39 36 18 39 49 10 80 l-20 22 32 -3
c42 -3 74 18 80 50 6 31 -8 46 -44 46 -36 0 -43 18 -32 83 8 43 13 52 34 57
28 6 53 49 44 73 -3 9 -15 17 -27 19 -19 3 -22 10 -25 61 -3 50 0 60 23 81 28
26 33 69 10 92 -8 8 -12 21 -8 30 5 13 8 13 25 -3 18 -16 22 -16 46 -2 21 12
27 22 27 49 l0 35 -48 -1 c-43 0 -48 2 -45 20 2 12 9 20 15 19 8 -2 11 14 8
52 -4 54 -4 55 24 55 34 0 51 17 51 51 0 21 -7 29 -32 40 -43 17 -47 24 -38
64 4 18 4 39 -1 46 -14 22 -10 31 10 24 38 -12 85 59 62 95 -6 9 -24 14 -50
13 l-40 -2 17 44 c15 41 15 45 -2 64 -21 23 -6 37 36 32 18 -1 30 4 37 18 14
25 14 58 1 66 -15 9 -74 26 -67 19 3 -4 -1 -13 -9 -21 -8 -9 -17 -13 -20 -11
-7 7 13 55 25 63 17 10 13 40 -11 70 -14 18 -22 46 -25 86 -4 52 -2 63 21 90
14 17 26 34 26 39 0 4 -16 17 -35 29 -19 11 -35 27 -35 35 0 19 27 28 34 10 8
-21 50 -17 71 6 28 31 10 74 -32 78 -29 3 -33 0 -41 -29 -10 -40 -27 -48 -36
-17 -11 44 -6 65 19 76 25 12 42 52 30 72 -3 5 -21 17 -39 24 -31 13 -34 19
-42 72 -4 33 -8 63 -9 68 0 6 14 13 32 18 67 17 44 95 -24 82 -31 -6 -33 -5
-33 22 0 16 -3 52 -6 80 -5 39 -3 54 10 66 9 9 16 21 16 27 0 5 13 38 29 73
54 114 153 401 185 533 10 39 22 88 28 110 50 195 99 503 114 710 3 39 9 119
15 178 12 131 11 952 -2 1162 -13 214 -19 999 -9 1130 11 151 29 320 40 380 4
28 13 81 19 120 20 122 88 386 111 427 6 10 10 23 10 30 0 47 224 537 253 555
6 4 7 1 2 -8 -5 -8 -4 -11 1 -6 5 5 9 15 9 22 0 22 115 176 126 170 5 -4 9 1
9 10 0 33 211 242 231 229 7 -4 9 -3 6 3 -4 6 0 16 8 23 8 7 15 10 15 6 0 -3
9 3 20 14 11 11 27 20 36 20 8 0 12 5 9 10 -3 6 1 10 9 10 9 0 16 4 16 10 0
16 202 109 285 130 44 12 109 24 145 27 36 3 67 7 69 9 8 7 106 4 176 -6z
m-14470 -170 c50 -34 144 -62 184 -54 35 7 47 -8 55 -71 17 -132 102 -263 243
-371 53 -40 157 -86 252 -111 168 -43 299 -31 429 42 24 14 49 22 55 18 6 -3
7 -1 3 5 -10 17 5 14 37 -6 15 -10 25 -22 22 -25 -3 -4 -2 -5 2 -2 3 3 21 -7
40 -21 18 -14 33 -22 33 -18 0 3 6 1 14 -5 8 -7 29 -16 48 -22 123 -37 259
-28 380 27 l78 35 39 -30 c22 -17 63 -43 93 -57 29 -14 71 -38 93 -54 120 -86
241 -112 397 -84 33 6 39 3 70 -32 58 -68 85 -90 160 -129 40 -21 75 -39 77
-41 2 -2 -6 -15 -16 -31 -21 -29 -109 -195 -232 -438 -40 -76 -75 -142 -79
-145 -4 -3 -18 -26 -30 -52 -13 -25 -31 -54 -41 -65 -9 -10 -32 -45 -50 -78
-19 -33 -36 -62 -40 -65 -3 -3 -7 -11 -9 -19 -2 -8 -11 -26 -21 -40 -10 -14
-28 -52 -40 -83 -27 -68 -29 -70 -106 -96 -86 -29 -136 -52 -166 -73 -39 -28
-44 -3 -9 52 15 24 30 54 34 67 4 12 12 22 18 22 6 0 9 3 5 6 -6 7 86 188 109
215 8 8 14 21 14 27 0 7 5 12 10 12 6 0 10 6 10 14 0 8 39 90 87 182 48 93 92
184 99 203 11 32 10 37 -10 54 -43 38 -69 43 -224 45 -85 1 -159 5 -165 9 -13
8 -18 9 -55 11 -15 1 -21 6 -16 14 4 7 3 8 -4 4 -12 -7 -72 20 -84 38 -4 6 -8
8 -8 4 0 -4 -28 9 -63 30 -172 102 -248 118 -537 109 -176 -6 -253 -2 -345 17
-50 11 -158 49 -195 70 -19 11 -51 27 -71 37 -19 10 -41 25 -49 33 -7 9 -16
16 -21 16 -7 0 -33 17 -114 78 -5 4 -39 22 -75 39 -78 39 -197 56 -297 42 -67
-9 -101 -3 -283 54 -101 31 -187 102 -234 194 -20 41 -59 53 -87 27 -11 -9
-39 -56 -62 -103 -23 -47 -47 -93 -52 -101 -5 -8 -10 -22 -12 -30 -1 -8 -7
-16 -12 -18 -6 -2 -11 -12 -11 -23 0 -10 -4 -19 -10 -19 -5 0 -10 -7 -10 -15
0 -9 -8 -30 -17 -48 -9 -18 -18 -34 -18 -37 -3 -19 -51 -108 -56 -104 -4 2 -6
-2 -6 -9 1 -20 -24 -77 -35 -77 -5 0 -7 -4 -3 -9 3 -5 -2 -17 -11 -25 -8 -9
-13 -16 -9 -16 3 0 -5 -21 -19 -47 -14 -27 -30 -59 -36 -73 -5 -14 -14 -32
-19 -40 -5 -8 -16 -30 -23 -47 -7 -18 -16 -33 -20 -33 -5 0 -8 -9 -8 -21 0
-13 -4 -18 -12 -13 -6 4 -8 3 -5 -3 9 -15 -84 -214 -96 -206 -6 3 -7 2 -4 -4
3 -5 -17 -57 -45 -114 -28 -57 -52 -109 -54 -115 -1 -6 -20 -43 -42 -82 -23
-40 -39 -72 -36 -72 7 0 -57 -122 -74 -142 -8 -10 -12 -18 -8 -18 9 0 -24 -63
-38 -72 -6 -4 -8 -8 -4 -8 7 0 -60 -151 -71 -160 -3 -3 -7 -9 -8 -15 -1 -5
-40 -89 -87 -186 -47 -97 -86 -181 -86 -187 0 -6 -8 -15 -17 -21 -10 -5 -15
-13 -11 -17 9 -9 -19 -64 -33 -64 -6 0 -8 -4 -5 -9 8 -13 -38 -103 -48 -94 -4
4 -4 -1 0 -11 6 -15 4 -17 -6 -11 -10 6 -12 4 -7 -8 3 -9 0 -23 -8 -31 -8 -7
-12 -16 -9 -18 2 -3 -11 -36 -30 -74 -71 -141 -87 -267 -46 -347 32 -62 85
-122 156 -179 35 -28 61 -55 58 -59 -3 -5 1 -6 8 -4 8 3 25 -6 38 -20 13 -14
27 -25 31 -25 11 0 163 -110 167 -121 2 -5 9 -9 16 -9 6 0 29 -12 50 -26 101
-69 603 -348 716 -398 36 -16 101 -47 145 -68 255 -126 635 -272 787 -302 114
-23 175 -21 303 11 11 2 26 5 33 5 7 1 11 6 9 12 -2 6 7 21 19 33 13 13 32 42
44 65 11 24 38 72 60 108 21 36 65 115 96 175 31 61 60 112 64 115 7 5 34 51
35 60 2 21 61 118 68 113 6 -3 7 -1 3 5 -7 12 29 92 48 104 6 4 8 8 4 8 -3 0
41 95 98 211 58 116 107 209 109 207 2 -2 11 -55 20 -118 8 -63 22 -142 30
-175 17 -67 15 -86 -13 -141 -79 -159 -103 -194 -133 -194 -20 0 -119 -108
-119 -130 0 -12 -42 -84 -52 -88 -4 -2 -8 -12 -8 -23 0 -10 -4 -19 -9 -19 -4
0 -18 -32 -31 -71 -16 -52 -20 -83 -15 -114 5 -39 1 -54 -35 -125 -23 -44 -46
-80 -51 -80 -5 0 -9 -3 -8 -7 2 -16 -14 -53 -22 -53 -5 0 -9 -9 -9 -20 0 -11
-4 -20 -10 -20 -5 0 -10 -7 -10 -15 0 -8 -10 -31 -22 -52 -12 -21 -30 -56 -41
-78 -47 -95 -97 -136 -197 -159 -64 -15 -261 -12 -292 5 -9 5 -32 9 -51 9 -19
0 -47 4 -63 9 -16 5 -54 14 -84 21 -166 37 -504 150 -598 199 -20 10 -71 31
-112 47 -88 33 -513 242 -518 255 -2 5 -8 9 -14 9 -11 0 -212 119 -316 187
-246 161 -538 406 -634 531 -23 31 -47 60 -51 63 -5 3 -7 8 -6 10 2 2 -5 16
-15 31 -25 38 -39 94 -39 150 0 38 15 77 83 215 45 92 89 183 97 202 8 18 25
50 37 70 13 20 24 41 26 46 6 23 24 55 30 55 4 0 7 6 7 13 0 15 55 133 253
532 186 378 373 760 459 938 34 70 66 127 72 127 6 0 8 4 4 9 -5 10 262 560
278 572 5 3 9 10 9 15 1 18 42 99 58 112 8 8 9 11 3 7 -9 -4 -11 -1 -7 9 3 9
10 16 15 16 5 0 9 4 9 10 0 16 52 125 61 128 5 2 7 8 3 13 -3 5 -1 9 4 9 5 0
9 6 9 13 0 20 209 442 228 460 16 17 19 16 51 -8 55 -42 115 -65 171 -65 76 0
177 40 227 89 22 23 44 41 49 41 5 0 28 -13 52 -30z m2950 -1152 c8 -27 13
-54 9 -60 -4 -6 -3 -8 3 -5 5 3 24 -27 42 -66 36 -83 96 -161 144 -188 17 -9
31 -22 29 -29 -1 -6 2 -9 7 -6 7 5 96 -57 121 -84 15 -16 101 -64 220 -123 74
-37 140 -71 145 -75 6 -4 17 -8 25 -9 20 -2 251 -86 268 -96 9 -6 0 -23 -32
-65 -24 -31 -54 -67 -65 -79 -12 -13 -20 -23 -17 -23 3 0 -6 -25 -19 -55 -62
-139 -85 -308 -66 -490 9 -90 17 -123 45 -180 49 -103 87 -159 143 -209 28
-25 50 -53 49 -63 -2 -28 -40 -112 -52 -117 -14 -5 -271 254 -309 312 l-28 43
16 77 c20 90 22 223 6 360 -7 53 -12 105 -13 114 0 9 -2 15 -5 12 -3 -2 -10 8
-17 23 -15 31 -33 60 -115 184 -60 91 -171 201 -259 257 -30 19 -57 38 -60 41
-8 10 -100 51 -144 66 -87 28 -154 38 -262 39 -94 1 -111 3 -109 16 5 22 51
117 88 180 18 30 41 75 52 100 11 25 23 48 28 51 5 3 8 9 7 13 -4 16 54 125
63 119 6 -3 7 -1 3 5 -9 15 13 59 29 59 8 0 21 -22 30 -49z m-80 -637 c104
-20 262 -92 248 -113 -3 -7 -1 -8 5 -4 23 14 222 -157 237 -204 4 -11 10 -20
14 -20 4 0 16 -17 27 -37 10 -21 22 -40 25 -43 15 -13 78 -161 88 -208 16 -76
14 -242 -4 -265 -13 -18 -14 -18 -24 1 -6 11 -7 23 -3 27 4 3 2 5 -3 3 -6 -1
-59 46 -120 107 -189 188 -434 353 -600 404 -22 7 -47 15 -55 18 -8 3 -23 8
-33 10 -10 1 -35 11 -55 21 -20 9 -63 19 -96 20 -32 2 -69 7 -81 12 -28 11
-26 24 25 140 56 129 56 129 175 141 78 8 155 4 230 -10z m7289 -98 c8 -16 15
-23 16 -18 0 6 8 -1 18 -15 9 -14 60 -80 112 -145 52 -66 102 -129 110 -141 8
-12 30 -40 47 -64 18 -23 30 -47 26 -53 -3 -6 -1 -7 5 -3 7 4 25 -12 44 -40
18 -26 58 -81 88 -123 133 -181 180 -250 180 -259 0 -6 4 -12 8 -14 13 -5 154
-218 145 -218 -5 0 -2 -4 5 -8 13 -9 113 -164 208 -322 31 -52 70 -114 85
-137 16 -23 29 -44 29 -48 0 -4 8 -19 19 -33 75 -108 451 -840 540 -1052 24
-58 49 -118 56 -135 7 -16 27 -64 45 -105 51 -117 174 -460 214 -595 10 -33
29 -98 43 -145 31 -108 60 -217 78 -300 100 -451 148 -797 167 -1200 25 -533
-41 -1109 -186 -1630 -2 -8 -11 -43 -20 -77 -60 -231 -270 -775 -291 -755 -5
4 -5 2 -2 -5 11 -18 -209 -441 -234 -451 -5 -2 -9 -10 -9 -18 0 -8 -4 -14 -8
-14 -5 0 -9 -6 -9 -13 0 -15 -62 -110 -75 -115 -4 -2 -8 -8 -8 -14 0 -16 -191
-283 -225 -313 -6 -5 -23 -26 -37 -45 -67 -91 -527 -532 -532 -510 -1 3 -18
-10 -38 -29 -51 -46 -84 -69 -73 -50 5 8 -6 -1 -24 -19 -18 -17 -37 -30 -42
-26 -5 3 -9 1 -9 -4 0 -12 -50 -45 -67 -45 -7 0 -11 -3 -8 -5 9 -9 -56 -43
-67 -36 -6 4 -8 3 -5 -3 3 -5 -11 -19 -31 -30 -71 -38 -117 -65 -129 -75 -7
-6 -13 -8 -13 -5 0 4 -16 -5 -36 -18 -20 -14 -41 -25 -46 -25 -4 0 -55 -23
-112 -50 -57 -28 -113 -50 -124 -50 -11 0 -22 -4 -24 -9 -9 -23 -528 -187
-683 -215 -16 -3 -73 -14 -125 -26 -52 -11 -124 -25 -160 -29 -36 -5 -112 -16
-170 -24 -107 -15 -252 -27 -575 -47 -237 -15 -2281 -22 -3005 -10 -535 8
-994 29 -1150 51 -41 6 -84 12 -95 13 -26 3 -81 138 -102 251 -36 188 15 422
127 586 43 63 50 93 24 103 -31 12 -53 6 -81 -21 -15 -16 -31 -27 -36 -25 -5
1 -6 -1 -3 -6 3 -5 -10 -32 -29 -60 -19 -29 -32 -52 -30 -52 2 0 -6 -24 -19
-52 -40 -90 -58 -178 -63 -303 -6 -129 11 -243 48 -338 22 -54 23 -60 10 -53
-5 4 -11 2 -13 -4 -7 -21 -340 70 -439 120 -30 16 -58 52 -51 67 1 2 -6 20
-15 40 -42 99 -53 234 -33 378 12 83 49 205 62 205 5 0 6 5 3 10 -3 6 -1 10 4
10 6 0 10 3 9 8 -2 4 13 32 32 62 50 79 54 92 34 107 -32 23 -67 15 -94 -21
-14 -19 -29 -32 -34 -28 -5 3 -6 0 -3 -5 4 -6 -13 -51 -36 -99 -72 -148 -104
-322 -85 -473 5 -42 10 -93 12 -113 3 -37 3 -37 -18 -20 -36 28 -86 89 -79 96
3 3 1 6 -5 6 -18 0 -80 141 -97 221 -8 41 -15 109 -14 150 1 72 22 220 34 239
3 6 8 20 10 32 7 34 115 248 126 248 5 0 9 6 9 14 0 24 176 200 190 191 8 -5
11 -4 6 3 -12 20 230 162 248 145 3 -4 6 0 6 7 0 7 3 10 7 7 3 -4 11 -3 17 2
19 15 198 59 291 72 83 11 154 9 310 -6 58 -6 62 -8 128 -75 38 -38 94 -86
125 -106 32 -21 75 -54 97 -74 23 -20 97 -65 166 -100 137 -70 173 -74 185
-24 8 31 -9 50 -79 88 -26 14 -53 31 -60 36 -7 5 -47 33 -91 62 -43 29 -97 70
-120 93 -183 178 -333 370 -400 512 -9 17 -21 35 -27 38 -5 4 -8 14 -5 22 3 8
2 12 -3 9 -6 -4 -93 169 -97 194 0 3 -6 19 -13 35 -23 56 -40 110 -69 225 -87
338 -94 663 -23 1030 23 116 106 383 125 403 7 7 16 25 20 41 21 83 189 386
214 386 7 0 10 5 7 10 -3 6 -2 10 2 10 5 0 17 16 28 36 11 20 36 54 56 75 20
21 35 39 34 39 -4 0 60 71 128 142 74 77 187 169 200 161 7 -3 9 -3 5 1 -8 10
45 57 90 80 17 9 32 20 32 25 0 4 10 13 23 19 12 6 45 25 72 41 62 37 232 121
317 157 382 161 822 237 1248 214 164 -9 323 -30 375 -50 15 -6 30 -9 32 -6 3
2 19 0 36 -5 18 -6 39 -12 47 -14 54 -12 273 -85 365 -122 133 -54 396 -184
390 -193 -2 -4 1 -7 8 -7 33 0 311 -198 301 -214 -3 -5 -2 -9 3 -8 4 1 21 -1
36 -6 57 -15 96 59 45 86 -10 5 -16 14 -13 20 4 5 3 8 -2 7 -13 -4 -73 49 -65
57 4 5 2 5 -4 2 -14 -8 -79 51 -88 79 -3 10 -28 30 -55 43 -72 35 -107 68
-103 96 4 31 -22 46 -58 32 -23 -9 -35 -5 -83 24 -37 22 -53 37 -47 43 14 14
12 52 -3 64 -6 6 -24 13 -39 17 -21 5 -30 2 -43 -18 -19 -29 -31 -29 -69 1
-16 12 -39 22 -52 22 -12 0 -26 5 -29 10 -3 6 -1 10 4 10 6 0 10 3 9 8 -1 4 2
19 6 35 11 36 -7 57 -50 57 -41 0 -69 -33 -53 -62 9 -17 7 -19 -12 -16 -14 2
-23 11 -26 27 -8 54 -50 71 -91 36 -27 -23 -61 -21 -77 4 -3 6 -24 11 -46 11
-44 0 -49 11 -19 42 11 12 20 28 20 35 0 7 -9 18 -20 25 -28 18 -25 25 13 32
19 3 46 20 62 36 32 34 55 39 55 13 1 -46 57 -63 85 -27 17 23 19 60 4 69 -6
4 -8 13 -5 21 3 9 -1 11 -12 8 -15 -5 -15 -5 0 6 10 6 30 10 45 8 23 -3 31 3
45 32 19 38 93 110 114 110 7 0 16 -4 19 -10 11 -17 51 -11 71 11 17 19 17 23
3 48 -19 33 -14 51 11 44 32 -8 70 23 70 57 0 54 -63 77 -110 40 -14 -11 -31
-20 -37 -20 -14 0 -82 -41 -224 -137 -53 -35 -106 -65 -117 -66 -11 0 -19 -4
-16 -9 5 -7 -64 -58 -79 -58 -5 0 -15 -7 -23 -15 -9 -8 -25 -15 -36 -15 -12 0
-18 -3 -15 -6 8 -8 -42 -37 -218 -124 l-140 -69 -235 1 c-218 0 -314 -7 -480
-33 -67 -10 -81 -13 -235 -49 -105 -25 -355 -107 -459 -151 -39 -17 -72 -30
-74 -29 -4 1 -242 -119 -262 -133 -13 -9 -37 -12 -67 -10 -97 8 -350 56 -388
73 -11 5 -38 11 -60 15 -82 13 -355 113 -495 181 -196 94 -306 149 -310 154
-3 3 -27 16 -55 30 -27 14 -85 49 -128 78 -43 28 -82 52 -88 52 -5 0 -9 5 -9
10 0 6 -5 10 -11 10 -10 0 -99 57 -109 70 -3 3 -27 21 -55 40 -27 19 -52 36
-55 40 -3 3 -19 15 -36 25 -31 20 -51 36 -203 165 -42 36 -89 76 -106 90 -16
13 -128 122 -248 242 -143 141 -216 221 -211 229 4 7 3 10 -4 5 -10 -6 -196
206 -237 269 -10 17 -24 35 -31 40 -7 6 -25 28 -41 51 -15 22 -46 65 -69 95
-99 131 -234 344 -299 474 -93 183 -181 453 -155 479 7 7 10 6 10 -3 0 -7 4
-9 10 -6 5 3 10 1 10 -4 0 -6 3 -10 8 -10 22 5 181 -74 237 -117 38 -29 46
-29 73 -5 49 42 19 76 -137 155 -63 32 -121 61 -130 65 -118 55 -121 62 -99
258 19 169 52 272 92 291 21 11 30 11 42 2 7 -7 14 -9 14 -5 0 9 138 -67 215
-118 68 -45 125 -93 120 -99 -2 -2 9 -5 24 -6 29 -2 61 30 61 62 0 15 -96 106
-112 106 -5 0 -6 5 -3 10 4 6 3 9 -2 8 -11 -4 -73 34 -73 45 0 4 -4 5 -10 2
-5 -3 -10 -3 -10 2 0 4 -15 14 -33 21 -52 21 -122 56 -128 65 -3 5 -9 8 -13 8
-24 -3 -37 1 -43 15 -6 17 35 114 49 114 5 0 6 5 3 10 -3 6 -2 10 3 10 6 0 12
10 16 23 15 61 194 253 234 251 34 -1 92 -16 98 -25 3 -5 10 -7 15 -4 5 4 9 1
9 -6 0 -7 3 -10 6 -6 17 17 143 -68 242 -161 79 -75 99 -81 128 -36 20 30 12
44 -68 119 -93 87 -115 102 -241 165 l-78 39 21 21 c26 26 148 84 173 82 9 0
15 3 12 7 -7 12 168 53 250 59 78 5 214 -23 294 -60 25 -11 49 -20 54 -20 4 1
7 -2 7 -8 0 -5 7 -10 16 -10 34 0 207 -117 309 -209 122 -111 369 -382 360
-395 -3 -3 -2 -4 2 -1 3 2 17 -8 31 -23 13 -15 42 -46 64 -69 21 -24 37 -43
34 -43 -2 0 79 -85 181 -189 103 -105 189 -189 193 -188 9 3 70 -50 64 -57 -2
-3 -1 -4 2 -2 7 5 164 -101 176 -119 4 -5 8 -7 8 -3 0 5 28 -7 63 -25 181 -96
414 -147 606 -132 91 6 255 38 353 68 26 8 49 12 52 9 4 -3 6 -1 6 5 0 5 37
25 83 43 87 36 150 71 163 91 10 16 12 79 3 73 -4 -2 -10 0 -14 6 -11 17 -47
11 -130 -21 -347 -135 -637 -161 -883 -80 -103 35 -252 106 -252 121 0 6 -4 9
-8 7 -16 -4 -117 67 -164 117 -29 30 -48 60 -48 73 0 49 26 116 57 148 l32 33
88 -18 c187 -39 287 -45 688 -44 216 0 452 6 530 13 77 6 196 16 265 22 69 5
143 12 165 14 234 27 414 50 585 75 113 17 232 35 265 40 33 5 87 14 120 20
33 6 87 16 120 21 33 6 69 12 80 14 17 3 90 19 365 76 30 7 84 20 120 29 36 9
71 15 78 13 6 -3 12 1 12 7 0 6 6 10 13 7 6 -2 23 0 37 5 14 6 81 23 150 38
150 34 387 96 424 110 34 13 39 13 30 -1 -3 -6 4 -4 17 4 13 9 114 43 224 76
179 54 340 108 605 202 47 17 94 34 105 39 11 5 77 34 147 64 135 59 293 132
318 146 8 5 40 21 70 36 45 23 148 81 220 125 8 5 26 15 40 21 14 7 40 23 59
35 44 30 57 29 75 -4z m-10520 -879 c8 -22 -12 -56 -31 -52 -26 5 -39 34 -24
52 17 20 47 21 55 0z m473 -426 c-3 -8 -6 -5 -6 6 -1 11 2 17 5 13 3 -3 4 -12
1 -19z m-946 -317 c21 -16 22 -22 11 -45 -12 -28 -31 -33 -50 -14 -15 15 -16
58 -1 58 5 0 7 5 4 10 -10 17 11 11 36 -9z m685 -343 c-4 6 -5 12 -2 12 3 0
10 -9 16 -21 9 -15 8 -24 -1 -35 -13 -16 -48 -19 -50 -4 -1 6 -2 16 -3 23 -3
22 17 36 33 23 12 -8 13 -8 7 2z m1544 -200 c7 -18 17 -43 23 -55 6 -13 7 -26
4 -29 -4 -4 1 -13 11 -21 14 -11 15 -12 1 -7 -9 3 -31 23 -48 44 -27 33 -28
39 -13 43 12 3 11 5 -6 6 -13 0 -20 5 -17 11 4 6 11 7 17 4 6 -4 8 1 3 15 -11
34 11 24 25 -11z m-89 -182 c37 -38 65 -75 62 -80 -3 -6 -3 -8 1 -4 5 4 13 3
20 -3 33 -27 120 -79 132 -79 22 0 104 -41 104 -52 0 -6 23 -41 50 -79 28 -38
50 -73 50 -79 0 -5 3 -10 8 -10 4 0 18 -17 32 -38 13 -20 40 -56 58 -79 19
-24 32 -43 29 -43 -4 0 6 -12 20 -26 18 -18 22 -29 15 -36 -25 -25 -184 -35
-274 -18 -74 15 -158 43 -158 53 0 4 -5 5 -10 2 -20 -13 -175 90 -258 170 -45
44 -96 90 -112 103 -25 20 -29 29 -26 62 5 53 85 217 128 262 19 21 33 39 32
41 -2 2 3 4 12 4 9 0 47 -32 85 -71z m5696 -1935 c-1 -16 -6 -17 -49 -12 -3 1
-5 9 -3 19 1 10 9 16 20 14 12 -2 15 1 9 10 -6 11 -5 11 8 0 9 -7 16 -21 15
-31z m-3481 -87 c55 -52 66 -58 109 -55 11 1 36 -9 55 -21 19 -12 41 -23 49
-24 19 -3 31 -24 31 -52 0 -30 44 -48 74 -29 25 15 30 15 78 -6 21 -10 42 -17
47 -17 10 0 9 -14 -3 -42 -14 -31 -2 -62 26 -72 34 -12 58 6 58 45 0 52 41 46
55 -8 9 -38 33 -53 62 -40 13 6 23 14 23 19 0 13 43 9 64 -7 11 -8 39 -15 63
-15 45 0 53 -9 28 -30 -21 -18 -19 -56 5 -73 11 -8 17 -17 13 -21 -11 -11 49
13 64 26 7 6 13 18 13 27 0 9 5 22 12 29 15 15 38 -3 38 -29 0 -49 66 -65 98
-24 24 30 30 31 48 8 19 -25 18 -57 -1 -49 -27 10 -64 -12 -79 -48 -8 -19 -27
-43 -43 -53 -15 -10 -35 -26 -44 -37 -13 -16 -18 -17 -37 -5 -12 8 -22 17 -22
21 0 16 -53 8 -66 -9 -23 -31 -17 -61 16 -78 28 -14 29 -17 15 -31 -13 -14
-21 -14 -45 -4 -54 22 -90 -14 -64 -65 21 -41 12 -55 -29 -48 -30 4 -38 1 -53
-21 -16 -26 -16 -28 4 -56 20 -26 20 -30 6 -38 -9 -5 -25 -7 -34 -5 -10 3 -29
-1 -41 -8 -13 -7 -27 -13 -30 -12 -13 4 4 -47 22 -63 34 -31 24 -46 -24 -39
-57 9 -77 -11 -59 -58 14 -38 2 -57 -38 -57 -39 0 -56 -54 -26 -79 16 -13 15
-43 -1 -48 -6 -2 -14 1 -18 6 -10 17 -40 13 -59 -8 -26 -28 -17 -63 21 -81
l31 -15 -18 -49 c-11 -26 -27 -57 -37 -68 -9 -10 -20 -40 -23 -66 -4 -41 -8
-47 -30 -50 -55 -8 -66 -46 -24 -85 23 -22 25 -27 14 -48 -11 -19 -14 -20 -24
-8 -16 21 -37 28 -62 18 -24 -8 -37 -54 -20 -68 17 -14 75 -19 81 -7 3 6 2 -2
-2 -19 -3 -16 -9 -50 -12 -75 -5 -37 -10 -45 -31 -50 -29 -7 -56 -49 -47 -74
4 -9 17 -20 31 -26 29 -11 38 -47 28 -105 -6 -31 -12 -39 -26 -37 -35 6 -64
-7 -68 -33 -6 -30 11 -46 50 -47 28 -1 37 -17 19 -34 -10 -11 -9 -84 2 -84 12
0 22 -27 27 -77 4 -36 1 -45 -25 -72 -34 -35 -32 -66 6 -84 24 -11 28 -21 37
-99 5 -47 5 -47 -25 -46 -39 1 -51 -12 -47 -53 3 -31 6 -34 37 -37 18 -2 38 1
44 7 16 16 24 13 22 -9 -1 -11 -9 -26 -17 -33 -19 -14 -26 -55 -15 -74 5 -7
18 -13 31 -13 33 0 46 -19 46 -66 0 -25 6 -47 15 -54 8 -7 15 -22 14 -34 0
-20 -1 -21 -9 -1 -8 19 -9 19 -9 1 -1 -16 -4 -17 -13 -8 -32 32 -107 -2 -100
-46 4 -29 47 -51 64 -34 15 15 50 15 82 1 16 -8 30 -27 40 -55 8 -24 28 -63
44 -86 29 -42 48 -86 44 -100 -1 -5 3 -7 9 -5 10 2 25 -21 84 -125 15 -27 15
-28 -10 -18 -27 10 -51 5 -78 -18 -16 -14 -21 -13 -56 6 -51 29 -68 28 -101
-8 l-28 -30 -31 31 c-24 23 -36 29 -53 23 -35 -10 -46 -23 -50 -52 -2 -21 -9
-28 -31 -30 -26 -3 -28 -2 -17 18 23 44 -16 78 -69 59 -31 -12 -37 -37 -17
-70 9 -16 15 -30 12 -30 -18 -4 -23 -6 -43 -12 -11 -4 -24 -14 -27 -22 -3 -8
-12 -15 -20 -15 -13 0 -13 4 -1 26 26 51 -15 75 -54 33 -21 -22 -19 -44 5 -53
23 -9 16 -21 -21 -39 -90 -43 -220 -142 -318 -242 -43 -44 -98 -128 -150 -230
-56 -111 -63 -126 -95 -245 -22 -83 -26 -115 -26 -255 -1 -139 2 -169 22 -231
28 -90 28 -93 -5 -90 -68 7 -194 33 -270 57 -58 19 -62 23 -86 73 -43 91 -58
156 -64 281 -8 182 26 303 129 457 53 80 49 118 -12 118 -10 0 -33 -19 -51
-42 -18 -24 -39 -49 -48 -56 -8 -6 -11 -12 -6 -12 4 0 1 -8 -7 -17 -25 -30
-75 -163 -92 -246 -21 -102 -22 -219 -1 -337 9 -52 18 -97 21 -101 10 -16 -20
-21 -31 -6 -7 9 -14 15 -17 12 -9 -9 -115 101 -157 163 -91 135 -106 191 -106
387 1 103 5 146 23 207 25 89 81 218 93 218 5 0 8 4 6 9 -3 11 62 101 74 101
5 0 9 6 9 13 0 13 141 147 152 144 4 -1 13 6 20 15 18 23 129 89 139 82 5 -3
9 -1 9 4 0 20 182 78 315 101 33 6 104 13 157 17 94 5 97 5 109 -18 39 -73
117 -77 134 -7 5 21 1 31 -22 48 -18 15 -30 36 -34 59 -8 48 -12 64 -21 77 -7
9 -30 52 -98 185 -40 78 -81 173 -83 194 -1 11 -5 23 -8 26 -8 7 -44 103 -69
185 -57 180 -84 300 -121 535 -62 389 -50 827 32 1170 21 87 63 229 78 265 5
11 23 61 41 110 18 50 41 103 52 118 11 15 21 33 22 41 3 21 97 200 116 221
10 11 25 33 33 48 15 29 56 82 90 118 9 11 17 22 17 27 0 4 11 20 25 36 14 16
25 32 25 36 0 3 9 16 19 27 32 34 64 26 127 -33z"/>
<path d="M10365 18427 c-22 -6 -46 -17 -53 -24 -8 -7 -17 -11 -22 -8 -5 3 -10
1 -12 -4 -1 -5 -34 -34 -72 -65 -38 -31 -66 -56 -62 -56 8 0 -110 -139 -133
-157 -9 -7 -12 -13 -7 -13 4 0 -3 -15 -18 -34 -14 -19 -26 -37 -26 -40 0 -11
-74 -121 -89 -134 -9 -8 -10 -10 -3 -7 8 4 -1 -15 -20 -43 -18 -28 -36 -48
-40 -46 -4 2 -10 -1 -14 -7 -4 -8 -3 -9 4 -5 7 4 12 1 12 -8 0 -8 -4 -17 -9
-20 -4 -3 -23 -35 -42 -71 -18 -36 -37 -65 -41 -65 -4 0 -7 -3 -6 -7 2 -5 -20
-53 -47 -108 -27 -55 -50 -102 -50 -105 -3 -20 -43 -89 -48 -84 -4 4 -7 -1 -7
-12 0 -19 -55 -158 -84 -213 -8 -14 -33 -73 -56 -131 -24 -58 -46 -114 -50
-125 -50 -124 -91 -241 -101 -291 -12 -57 -11 -67 10 -130 26 -79 69 -136 143
-190 29 -21 59 -44 66 -51 7 -7 19 -13 26 -13 6 0 18 -6 25 -12 6 -7 15 -13
19 -14 59 -7 301 -181 422 -303 59 -60 86 -90 207 -231 21 -25 59 -64 83 -85
25 -22 48 -45 52 -52 15 -22 113 -87 175 -115 112 -50 226 -34 305 44 34 35
83 125 99 183 4 17 17 61 28 98 32 108 60 325 71 548 6 112 12 236 14 274 7
152 -18 637 -45 840 -6 44 -12 91 -14 105 -9 73 -38 237 -56 320 -58 265 -75
320 -143 458 -31 64 -120 176 -142 181 -10 2 -21 7 -24 11 -9 12 -97 30 -142
29 -24 -1 -61 -6 -83 -12z"/>
<path d="M7617 15210 c-126 -16 -336 -95 -429 -162 -15 -10 -33 -16 -39 -12
-8 4 -9 3 -5 -4 4 -7 1 -12 -8 -12 -8 0 -16 -3 -18 -7 -1 -5 -40 -36 -85 -70
-45 -34 -98 -78 -119 -97 -21 -19 -42 -33 -46 -30 -4 3 -8 0 -8 -6 0 -6 -5 -8
-12 -4 -6 4 -8 3 -5 -3 4 -6 -2 -18 -13 -28 -11 -10 -20 -15 -20 -12 0 4 -9
-2 -21 -14 -12 -12 -50 -35 -86 -52 -56 -25 -81 -31 -162 -35 -103 -4 -120
-12 -147 -64 -18 -34 -18 -109 0 -151 15 -37 49 -70 74 -72 9 -1 42 -7 72 -13
30 -7 66 -13 79 -14 16 -2 25 -10 26 -23 12 -97 17 -123 35 -163 47 -105 120
-146 219 -122 44 10 51 16 77 63 26 49 28 60 30 187 l3 135 27 14 c15 7 80 66
145 130 140 138 169 162 182 154 6 -3 7 -1 4 4 -9 14 29 47 44 37 8 -5 10 -3
4 6 -6 10 -4 12 9 7 10 -4 15 -3 11 3 -7 12 32 33 47 24 6 -4 8 -3 5 3 -8 13
96 56 186 78 91 22 297 9 280 -18 -3 -6 -1 -7 5 -3 7 4 29 -1 49 -11 21 -10
40 -18 43 -18 3 -1 27 -11 54 -23 27 -12 53 -22 58 -22 5 0 6 -4 3 -10 -4 -6
1 -7 11 -3 13 5 15 3 9 -7 -5 -8 -4 -11 3 -6 6 3 26 -3 44 -14 18 -11 40 -23
48 -26 8 -4 34 -15 57 -25 23 -11 47 -19 52 -19 6 0 11 -5 11 -11 0 -5 3 -8 8
-5 4 2 22 -2 40 -9 18 -8 33 -14 35 -14 1 0 35 -12 76 -26 89 -30 92 -30 120
-6 28 24 25 57 -9 92 -34 35 -179 160 -210 181 -14 10 -45 32 -70 49 -116 82
-191 129 -255 162 -81 41 -161 77 -170 77 -4 0 -21 6 -38 14 -33 14 -182 37
-227 35 -14 -1 -51 -5 -83 -9z"/>
<path d="M8950 13724 c-112 -7 -314 -35 -339 -47 -29 -14 -38 -58 -16 -77 11
-9 49 -9 182 5 254 26 577 30 780 10 92 -9 175 -21 184 -26 9 -4 19 -6 22 -3
8 9 246 -40 392 -81 116 -32 139 -32 153 0 32 71 26 74 -338 155 -47 11 -119
24 -160 30 -41 7 -97 16 -125 22 -50 10 -612 19 -735 12z"/>
<path d="M8540 13013 c-20 -8 -30 -24 -30 -48 0 -32 15 -47 56 -55 218 -43
298 -62 484 -117 184 -53 361 -112 376 -124 6 -5 14 -6 17 -2 4 3 7 1 7 -5 0
-7 8 -12 19 -12 33 0 345 -131 495 -208 96 -49 108 -49 136 2 14 26 14 28 -14
51 -16 13 -39 28 -50 33 -70 34 -183 85 -261 118 -49 21 -92 42 -93 46 -2 5
-7 6 -12 3 -4 -2 -48 13 -97 34 -82 36 -352 131 -433 153 -19 5 -48 13 -65 18
-108 31 -520 126 -520 119 0 0 -7 -3 -15 -6z"/>
<path d="M8342 12380 c-29 -27 -28 -54 3 -77 13 -10 96 -58 184 -108 88 -49
158 -92 156 -96 -2 -3 1 -6 8 -6 7 0 41 -20 76 -44 35 -24 71 -48 80 -54 33
-21 157 -106 181 -124 55 -41 146 -108 196 -142 28 -20 58 -41 65 -48 8 -6 50
-37 94 -70 44 -32 90 -68 102 -80 12 -11 27 -21 33 -21 24 0 60 33 60 55 0 25
-26 49 -199 181 -98 75 -125 95 -182 136 -130 94 -165 118 -172 118 -4 0 -6 4
-3 8 3 5 0 9 -7 9 -16 0 -67 33 -67 43 0 5 -8 11 -18 14 -9 3 -62 35 -117 70
-55 35 -118 75 -140 89 -76 46 -294 167 -303 167 -4 0 -18 -9 -30 -20z"/>
<path d="M3772 13751 c-20 -12 -10 -46 12 -46 27 0 46 33 26 45 -18 12 -21 12
-38 1z"/>
<path d="M4104 13565 c-9 -23 3 -45 26 -45 25 0 37 25 20 45 -16 19 -39 19
-46 0z"/>
<path d="M2800 13369 c0 -5 -4 -7 -10 -4 -6 4 -7 -2 -1 -17 10 -27 48 -36 57
-14 3 9 11 13 16 10 6 -4 5 3 -1 15 -12 22 -61 30 -61 10z"/>
<path d="M4266 13369 c-56 -15 -52 -59 6 -59 32 0 43 16 31 47 -7 16 -13 18
-37 12z"/>
<path d="M4363 13318 c-18 -23 -21 -57 -8 -68 8 -6 26 -10 42 -8 36 4 43 38
14 67 -24 24 -35 26 -48 9z"/>
<path d="M2773 13283 c-16 -6 -17 -29 -3 -38 13 -8 40 13 40 31 0 14 -14 17
-37 7z"/>
<path d="M3093 13265 c-53 -23 -74 -73 -39 -97 24 -16 46 -6 75 34 36 49 36
50 13 64 -14 9 -26 9 -49 -1z"/>
<path d="M3537 13242 c-28 -29 -35 -56 -16 -67 6 -4 35 -9 65 -11 50 -3 56 -2
66 20 9 20 7 30 -11 55 -29 40 -67 41 -104 3z"/>
<path d="M5182 13224 c4 -21 22 -23 26 -1 2 10 -3 17 -13 17 -10 0 -15 -6 -13
-16z"/>
<path d="M4413 13195 c-18 -19 -16 -52 2 -59 23 -9 43 40 24 59 -12 11 -16 11
-26 0z"/>
<path d="M3634 13075 c-4 -9 -2 -21 4 -27 16 -16 47 -5 47 17 0 26 -42 34 -51
10z"/>
<path d="M4925 13031 c-8 -15 3 -31 21 -31 9 0 14 7 12 17 -4 20 -24 28 -33
14z"/>
<path d="M4730 12805 c-17 -21 -8 -50 17 -53 25 -4 59 36 43 52 -16 16 -47 17
-60 1z"/>
<path d="M4907 12803 c-14 -13 -6 -42 13 -48 25 -8 40 1 40 25 0 23 -37 40
-53 23z"/>
<path d="M2445 12791 c-7 -12 12 -24 25 -16 11 7 4 25 -10 25 -5 0 -11 -4 -15
-9z"/>
<path d="M4112 12771 c-8 -4 -12 -19 -10 -32 6 -44 78 -33 78 11 0 26 -41 39
-68 21z"/>
<path d="M4317 12762 c-25 -30 -29 -43 -17 -57 28 -34 77 -5 66 39 -8 31 -30
39 -49 18z"/>
<path d="M2602 12748 c5 -15 37 -18 41 -3 1 6 -9 12 -22 13 -16 3 -22 -1 -19
-10z"/>
<path d="M4992 12700 c-17 -7 -22 -16 -20 -39 1 -16 5 -28 9 -25 4 2 12 -3 19
-11 21 -25 80 4 80 38 0 18 -32 47 -51 46 -8 0 -24 -4 -37 -9z"/>
<path d="M5447 12543 c-4 -3 -7 -15 -7 -25 0 -23 35 -24 44 -1 9 22 -21 43
-37 26z"/>
<path d="M5480 12404 c-9 -10 -10 -18 -2 -26 12 -12 32 -2 32 17 0 21 -16 26
-30 9z"/>
<path d="M4160 12236 c0 -21 20 -30 33 -17 9 9 8 14 -3 21 -21 14 -30 12 -30
-4z"/>
<path d="M3610 12220 c-9 -16 -8 -21 4 -26 26 -10 51 0 51 21 0 28 -40 32 -55
5z"/>
<path d="M3761 12212 c-13 -25 2 -44 30 -40 31 4 32 38 2 49 -17 6 -25 4 -32
-9z"/>
<path d="M3875 12209 c-4 -6 -4 -13 -1 -16 8 -8 36 5 36 17 0 13 -27 13 -35
-1z"/>
<path d="M5530 11866 c0 -10 9 -16 21 -16 24 0 21 23 -4 28 -10 2 -17 -3 -17
-12z"/>
<path d="M5872 11848 c-21 -21 -14 -48 11 -46 19 2 23 7 19 25 -5 29 -15 36
-30 21z"/>
<path d="M15373 6624 c-7 -18 14 -35 34 -27 7 3 13 14 13 24 0 24 -38 26 -47
3z"/>
<path d="M15422 6414 c-29 -20 -29 -62 1 -73 30 -11 46 -4 53 26 5 17 1 31
-12 44 -18 17 -21 18 -42 3z"/>
<path d="M15504 6015 c-8 -34 1 -55 25 -55 25 0 44 34 36 60 -10 30 -53 27
-61 -5z"/>
<path d="M15434 5904 c-9 -34 6 -58 38 -62 31 -4 50 19 46 55 -3 24 -8 28 -40
31 -33 3 -38 0 -44 -24z"/>
<path d="M15510 5791 c-17 -32 2 -65 38 -66 40 -1 58 30 40 68 -12 24 -64 23
-78 -2z"/>
<path d="M15578 5664 c-11 -23 -10 -29 11 -45 28 -22 51 -11 51 25 0 47 -44
61 -62 20z"/>
<path d="M15520 5562 c-18 -14 -22 -25 -16 -45 5 -22 12 -27 39 -27 39 0 57
15 57 47 0 16 -8 27 -26 33 -32 13 -28 13 -54 -8z"/>
<path d="M15582 5433 c-17 -24 -18 -30 -6 -41 8 -7 12 -17 10 -21 -7 -11 46
-1 62 12 15 12 16 49 0 65 -20 20 -45 14 -66 -15z"/>
<path d="M15509 5329 c-10 -10 -19 -27 -19 -37 0 -22 30 -52 51 -52 26 0 59
31 59 54 0 44 -59 67 -91 35z"/>
<path d="M15647 5304 c-14 -15 -6 -34 14 -34 14 0 19 5 17 17 -3 18 -20 27
-31 17z"/>
<path d="M15602 5223 c-41 -15 -32 -93 12 -93 26 0 45 17 51 48 5 31 -30 56
-63 45z"/>
<path d="M15518 5099 c-21 -12 -24 -59 -6 -77 22 -22 57 -14 73 18 14 28 14
31 -5 50 -22 22 -36 24 -62 9z"/>
<path d="M15652 5088 c-18 -18 -15 -42 7 -62 19 -17 20 -17 31 4 23 44 -6 90
-38 58z"/>
<path d="M15588 4978 c-9 -7 -18 -28 -20 -45 -3 -18 -2 -31 0 -28 3 3 11 0 18
-6 36 -30 96 32 72 74 -11 20 -48 22 -70 5z"/>
<path d="M15505 4860 c-37 -41 17 -106 63 -75 29 21 34 62 8 80 -28 20 -50 19
-71 -5z"/>
<path d="M15652 4858 c-16 -16 -15 -53 1 -67 29 -23 68 37 44 67 -12 15 -30
15 -45 0z"/>
<path d="M15436 4754 c-17 -17 -19 -27 -10 -61 5 -18 14 -23 40 -23 35 0 54
20 54 58 0 33 -60 51 -84 26z"/>
<path d="M15583 4758 c-32 -40 -17 -88 26 -88 60 0 79 70 24 91 -32 12 -39 11
-50 -3z"/>
<path d="M15503 4624 c-19 -19 -22 -28 -13 -44 12 -22 12 -22 53 -25 20 -1 33
5 43 21 34 51 -38 93 -83 48z"/>
<path d="M15657 4632 c-23 -25 -21 -59 3 -72 28 -15 55 26 41 64 -12 31 -22
33 -44 8z"/>
<path d="M15433 4518 c-33 -43 -19 -88 27 -88 20 0 35 8 46 25 15 23 15 27 0
50 -18 27 -57 34 -73 13z"/>
<path d="M15580 4510 c-11 -11 -20 -23 -20 -28 0 -18 33 -52 51 -52 30 0 59
34 52 62 -11 42 -50 51 -83 18z"/>
<path d="M15506 4404 c-39 -38 6 -110 53 -84 30 15 38 56 16 80 -22 24 -48 26
-69 4z"/>
<path d="M15650 4384 c-8 -21 -8 -31 4 -42 24 -24 48 -7 44 30 -4 43 -34 50
-48 12z"/>
<path d="M15424 4286 c-3 -8 -4 -27 -2 -43 3 -24 8 -28 36 -31 39 -4 62 12 62
43 0 36 -84 63 -96 31z"/>
<path d="M15585 4280 c-18 -20 -29 -64 -14 -54 4 2 10 0 14 -6 7 -12 45 -13
63 -1 20 12 22 44 4 64 -20 23 -45 22 -67 -3z"/>
<path d="M15373 4180 c-31 -12 -31 -63 -2 -84 19 -13 26 -13 49 -1 65 34 21
112 -47 85z"/>
<path d="M15516 4175 c-9 -9 -16 -27 -16 -39 0 -52 63 -61 90 -14 13 24 13 29
0 42 -25 24 -56 28 -74 11z"/>
<path d="M15642 4143 c5 -26 38 -29 38 -4 0 15 -6 21 -21 21 -14 0 -19 -5 -17
-17z"/>
<path d="M15442 4058 c-30 -30 0 -92 41 -86 30 4 56 52 41 75 -13 22 -64 29
-82 11z"/>
<path d="M15585 4046 c-13 -19 -14 -29 -5 -45 6 -12 15 -22 20 -22 6 -1 16 -2
23 -3 6 -1 20 14 29 34 16 32 16 36 1 48 -26 19 -51 14 -68 -12z"/>
<path d="M15377 3942 c-34 -37 -18 -82 29 -82 35 0 54 20 54 59 0 38 -56 53
-83 23z"/>
<path d="M15522 3944 c-27 -19 -28 -48 -2 -74 17 -17 24 -19 43 -9 29 16 37
28 37 60 0 19 -6 28 -22 33 -31 8 -31 8 -56 -10z"/>
<path d="M15302 3828 c-7 -7 -12 -24 -12 -38 0 -49 51 -68 83 -32 34 37 15 82
-33 82 -14 0 -31 -5 -38 -12z"/>
<path d="M15442 3828 c-19 -19 -15 -66 7 -78 50 -26 91 8 77 64 -5 21 -12 26
-39 26 -18 0 -38 -5 -45 -12z"/>
<path d="M15596 3825 c-21 -22 -17 -50 8 -50 29 0 44 31 25 51 -15 14 -18 14
-33 -1z"/>
<path d="M15238 3718 c-28 -22 -31 -55 -9 -77 12 -12 28 -21 36 -21 18 0 55
35 55 53 0 36 -55 66 -82 45z"/>
<path d="M15374 3713 c-36 -36 7 -104 56 -88 27 8 43 50 30 74 -12 24 -67 32
-86 14z"/>
<path d="M15521 3701 c-17 -31 -13 -59 10 -71 29 -16 55 9 54 52 0 28 -4 33
-27 36 -18 2 -30 -3 -37 -17z"/>
<path d="M15302 3586 c-26 -28 -15 -67 20 -77 52 -14 92 48 52 82 -24 20 -52
18 -72 -5z"/>
<path d="M15456 3591 c-33 -37 -16 -81 30 -81 27 0 37 5 46 26 15 32 2 55 -35
65 -18 5 -30 2 -41 -10z"/>
<path d="M15221 3461 c-16 -29 -13 -56 7 -73 35 -32 86 0 87 55 1 33 0 34 -41
36 -34 1 -45 -2 -53 -18z"/>
<path d="M15370 3467 c-20 -16 -14 -53 12 -71 15 -11 27 -12 49 -4 56 19 45
88 -14 88 -18 0 -39 -6 -47 -13z"/>
<path d="M15346 3361 c-21 -3 -43 -13 -49 -22 -15 -24 -1 -64 28 -77 23 -11
29 -9 50 13 26 25 33 59 15 70 -6 4 -8 11 -5 16 4 5 5 8 3 8 -2 -1 -21 -5 -42
-8z"/>
<path d="M15151 3346 c-21 -26 -9 -69 22 -80 41 -15 62 2 62 50 0 38 -1 39
-36 42 -23 2 -40 -2 -48 -12z"/>
<path d="M15452 3339 c-17 -26 -6 -59 19 -59 22 0 42 40 33 65 -9 22 -37 19
-52 -6z"/>
<path d="M15082 3221 c-32 -29 -8 -81 37 -81 35 0 47 10 53 41 8 45 -53 73
-90 40z"/>
<path d="M15236 3224 c-9 -8 -16 -28 -16 -44 0 -22 6 -30 30 -39 26 -9 34 -7
50 9 26 26 26 66 1 80 -27 14 -47 13 -65 -6z"/>
<path d="M15382 3228 c-23 -29 -18 -66 11 -77 41 -16 86 46 55 77 -16 16 -53
15 -66 0z"/>
<path d="M15017 3102 c-22 -24 -21 -55 1 -75 26 -24 47 -21 71 9 42 54 -26
117 -72 66z"/>
<path d="M15174 3112 c-45 -30 -30 -99 22 -94 33 3 54 26 54 59 0 32 -47 54
-76 35z"/>
<path d="M15309 3099 c-5 -11 -9 -32 -7 -47 2 -22 9 -28 36 -30 28 -3 34 1 47
30 16 38 7 54 -38 62 -20 3 -30 0 -38 -15z"/>
<path d="M14935 2985 c-3 -8 -7 -22 -10 -30 -6 -20 29 -55 54 -55 41 0 68 59
39 88 -17 17 -78 15 -83 -3z"/>
<path d="M15093 2993 c-19 -7 -17 -80 3 -87 36 -14 64 -6 79 24 14 27 14 30
-7 50 -21 19 -49 24 -75 13z"/>
<path d="M15261 2991 c-13 -4 -30 -16 -38 -28 -13 -19 -12 -24 6 -42 26 -26
67 -27 81 -2 25 48 0 84 -49 72z"/>
<path d="M14870 2870 c-10 -10 -21 -16 -24 -12 -4 3 -1 -9 5 -27 6 -18 24 -38
39 -46 26 -13 30 -13 44 1 22 21 30 62 17 78 -19 23 -61 26 -81 6z"/>
<path d="M15011 2866 c-8 -9 -11 -26 -7 -41 16 -63 100 -47 94 18 -3 29 -7 32
-39 35 -23 2 -40 -2 -48 -12z"/>
<path d="M15163 2868 c-29 -37 -8 -77 43 -81 24 -2 30 3 40 33 10 29 9 37 -5
47 -21 16 -66 16 -78 1z"/>
<path d="M15317 2859 c-22 -13 -22 -45 0 -53 16 -7 43 16 43 35 0 16 -26 27
-43 18z"/>
<path d="M15831 2826 c-19 -23 -9 -49 22 -57 20 -5 27 -4 27 7 0 8 5 14 11 14
6 0 9 10 7 23 -4 27 -48 36 -67 13z"/>
<path d="M15096 2749 c-27 -21 -25 -54 3 -76 38 -29 80 -3 81 49 0 43 -44 58
-84 27z"/>
<path d="M14940 2739 c-9 -15 -9 -28 0 -49 9 -23 17 -28 42 -26 31 2 58 28 58
54 0 42 -80 59 -100 21z"/>
<path d="M15240 2746 c-18 -22 -8 -61 16 -64 28 -4 56 54 33 69 -20 13 -35 11
-49 -5z"/>
<path d="M14879 2631 c-23 -19 -23 -21 -9 -47 17 -31 58 -46 76 -29 19 19 26
53 14 75 -14 25 -51 26 -81 1z"/>
<path d="M15029 2629 c-14 -14 -18 -27 -13 -42 4 -12 7 -27 7 -32 0 -16 50
-12 68 5 36 34 28 72 -19 83 -16 4 -30 -1 -43 -14z"/>
<path d="M15179 2622 c-24 -21 -21 -48 7 -59 35 -13 67 35 42 64 -14 17 -22
16 -49 -5z"/>
<path d="M15493 2621 c-24 -20 -30 -41 -12 -41 5 0 8 -4 5 -8 -3 -5 9 -9 27
-8 23 1 35 8 44 26 11 21 10 27 -4 38 -22 16 -34 15 -60 -7z"/>
<path d="M14664 2532 c2 -2 -2 -15 -9 -29 -11 -20 -11 -30 -2 -44 25 -40 76
-36 96 7 15 34 -6 60 -54 66 -19 2 -33 2 -31 0z"/>
<path d="M15411 2522 c-16 -30 -14 -47 9 -67 18 -16 23 -17 45 -5 49 26 41 71
-17 85 -20 5 -29 2 -37 -13z"/>
<path d="M14805 2510 c-39 -44 32 -104 75 -65 22 20 26 55 8 73 -19 19 -63 14
-83 -8z"/>
<path d="M14957 2512 c-23 -25 -21 -48 5 -66 30 -21 44 -20 68 4 24 24 25 43
4 64 -21 21 -57 20 -77 -2z"/>
<path d="M15113 2523 c-7 -2 -13 -17 -13 -33 0 -60 67 -69 84 -12 7 26 6 36
-5 43 -15 9 -46 11 -66 2z"/>
<path d="M15298 2496 c-10 -7 -18 -23 -18 -35 0 -17 6 -21 29 -21 31 0 45 20
36 51 -7 22 -23 24 -47 5z"/>
<path d="M14585 2411 c2 -2 -2 -16 -10 -31 -8 -15 -11 -31 -7 -35 4 -3 7 -11
7 -16 0 -5 5 -10 10 -10 6 -1 20 -5 32 -10 15 -5 25 -3 33 6 7 8 15 13 19 11
15 -9 11 62 -4 74 -13 10 -90 22 -80 11z"/>
<path d="M14732 2398 c-30 -30 -2 -88 43 -88 34 0 57 27 53 64 -3 28 -6 31
-43 34 -23 2 -46 -3 -53 -10z"/>
<path d="M14880 2391 c-13 -26 3 -67 30 -76 32 -10 70 19 70 54 0 31 -14 41
-60 41 -19 0 -33 -7 -40 -19z"/>
<path d="M15038 2394 c-34 -34 12 -95 60 -79 27 8 44 49 29 69 -18 24 -69 30
-89 10z"/>
<path d="M15198 2393 c-9 -12 -13 -27 -8 -43 5 -22 11 -25 50 -25 42 0 45 2
48 28 2 16 -2 35 -9 43 -16 19 -63 18 -81 -3z"/>
<path d="M14665 2276 c-29 -40 -9 -96 33 -96 48 0 81 63 49 94 -24 24 -66 25
-82 2z"/>
<path d="M14514 2265 c-20 -30 -12 -71 15 -80 19 -6 71 13 71 26 0 4 3 14 6
22 7 19 -30 57 -56 57 -11 0 -27 -11 -36 -25z"/>
<path d="M14817 2272 c-24 -26 -21 -55 8 -80 14 -12 25 -18 25 -13 0 5 11 12
24 15 43 11 45 79 3 90 -34 9 -43 7 -60 -12z"/>
<path d="M14971 2276 c-7 -8 -11 -29 -9 -47 6 -66 101 -52 101 15 0 16 -7 32
-14 37 -22 14 -65 11 -78 -5z"/>
<path d="M14447 2152 c-35 -39 -14 -92 37 -92 34 0 45 11 53 56 7 41 -61 68
-90 36z"/>
<path d="M14598 2159 c-21 -12 -25 -83 -5 -96 15 -9 58 -4 75 9 20 17 15 76
-7 88 -24 12 -41 12 -63 -1z"/>
<path d="M14740 2150 c-11 -11 -20 -29 -20 -40 0 -22 33 -60 53 -60 22 0 54
29 59 53 10 53 -53 86 -92 47z"/>
<path d="M14529 2036 c-49 -24 -10 -114 43 -101 26 7 38 29 38 72 0 29 -48 46
-81 29z"/>
<path d="M14373 2033 c-19 -7 -16 -70 3 -77 8 -3 13 -10 9 -15 -3 -5 0 -13 6
-17 8 -5 9 -3 4 5 -5 9 -1 12 12 9 32 -5 53 20 53 63 0 39 0 39 -37 38 -21 0
-44 -3 -50 -6z"/>
<path d="M14292 1908 c-19 -19 -14 -36 16 -68 27 -27 30 -28 50 -14 57 40 48
94 -16 94 -21 0 -43 -5 -50 -12z"/>
<path d="M6563 9415 c0 -8 4 -12 9 -9 5 3 6 10 3 15 -9 13 -12 11 -12 -6z"/>
<path d="M10680 7298 c0 -5 -3 -7 -7 -5 -15 9 -12 -51 3 -64 23 -19 64 7 64
42 0 22 -5 27 -30 31 -16 3 -30 1 -30 -4z"/>
<path d="M10607 7183 c-13 -12 -7 -71 8 -83 16 -14 65 -6 65 11 0 6 4 7 10 4
7 -4 7 3 0 19 -5 14 -7 26 -4 26 4 0 1 7 -6 15 -13 15 -61 21 -73 8z"/>
<path d="M10502 7143 c-32 -27 -33 -66 -2 -83 38 -20 80 56 48 88 -16 16 -22
15 -46 -5z"/>
<path d="M10572 7035 c-26 -19 -29 -57 -6 -79 16 -17 26 -14 57 12 18 16 24
72 8 72 -5 0 -15 2 -23 5 -7 3 -23 -2 -36 -10z"/>
<path d="M10500 6908 c-12 -14 -20 -33 -18 -48 3 -22 8 -25 42 -25 37 0 40 3
49 35 7 28 5 36 -9 47 -25 18 -40 16 -64 -9z"/>
<path d="M10267 6785 c-11 -10 -13 -23 -8 -42 10 -37 33 -50 68 -37 31 11 44
54 22 80 -15 18 -63 18 -82 -1z"/>
<path d="M10413 6788 c-30 -40 23 -108 64 -82 27 16 39 59 23 78 -15 19 -74
21 -87 4z"/>
<path d="M10225 6680 c-25 -4 -31 -10 -33 -38 -6 -58 36 -81 81 -44 47 38 14
94 -48 82z"/>
<path d="M10380 6682 c-39 -6 -48 -19 -41 -55 8 -39 52 -61 75 -36 40 42 19
99 -34 91z"/>
<path d="M10506 6664 c-9 -8 -16 -19 -16 -24 0 -22 14 -40 30 -40 30 0 48 43
28 67 -14 17 -23 16 -42 -3z"/>
<path d="M10025 6562 c-16 -2 -36 -8 -42 -14 -16 -13 -17 -60 -1 -76 16 -16
63 -15 75 1 34 42 15 94 -32 89z"/>
<path d="M10280 6553 c-29 -21 -27 -70 4 -84 35 -16 74 -4 82 25 13 52 -42 89
-86 59z"/>
<path d="M10132 6548 c-30 -30 1 -88 46 -88 37 0 60 81 26 94 -25 10 -59 7
-72 -6z"/>
<path d="M10419 6536 c-15 -32 -6 -54 26 -66 48 -18 83 17 61 61 -17 36 -72
39 -87 5z"/>
<path d="M10346 6418 c-11 -15 -12 -26 -5 -40 5 -10 8 -22 5 -26 -2 -4 13 -8
33 -10 42 -3 75 23 69 55 -7 44 -76 59 -102 21z"/>
<path d="M10504 6396 c-8 -35 2 -46 42 -46 27 0 34 4 34 19 0 37 -12 51 -41
51 -22 0 -30 -6 -35 -24z"/>
<path d="M10575 6270 c-9 -27 11 -50 41 -50 20 0 24 5 24 29 0 42 -53 59 -65
21z"/>
<path d="M2440 9870 c-9 -6 -10 -10 -3 -10 6 0 15 5 18 10 8 12 4 12 -15 0z"/>
<path d="M6244 6403 c-5 -25 -3 -38 5 -41 6 -2 9 -7 7 -11 -3 -4 11 -8 30 -9
23 -2 36 2 40 13 10 24 -4 63 -27 76 -16 8 -20 8 -14 -1 6 -9 3 -9 -13 -1 -19
10 -22 8 -28 -26z"/>
<path d="M6350 6293 c-25 -10 -29 -25 -14 -55 12 -22 18 -26 37 -19 25 9 34
45 17 67 -13 15 -17 16 -40 7z"/>
<path d="M6458 6274 c-21 -46 23 -80 71 -54 23 12 28 49 9 68 -22 22 -67 14
-80 -14z"/>
<path d="M6413 6179 c-28 -10 -30 -47 -5 -77 l18 -20 21 23 c13 16 19 32 16
49 -6 29 -20 36 -50 25z"/>
<path d="M6525 6169 c-10 -10 -15 -30 -13 -46 3 -24 8 -28 38 -31 48 -5 76 37
51 76 -13 21 -58 21 -76 1z"/>
<path d="M6658 6145 c-8 -19 -8 -31 0 -50 11 -24 13 -25 44 -12 25 10 34 21
36 42 6 49 -59 65 -80 20z"/>
<path d="M6732 6049 c-42 -38 -26 -89 27 -89 44 0 61 14 61 50 0 24 -11 35
-61 57 -3 1 -16 -7 -27 -18z"/>
<path d="M6436 6031 c-13 -25 -13 -31 0 -50 19 -26 48 -27 73 -2 13 13 18 27
14 43 -12 47 -65 53 -87 9z"/>
<path d="M6592 6052 c-23 -7 -34 -40 -21 -64 16 -31 26 -36 55 -30 53 10 56
95 3 97 -13 1 -30 0 -37 -3z"/>
<path d="M6878 6049 c-22 -12 -24 -71 -4 -92 24 -24 65 -9 84 30 16 34 16 36
-7 54 -26 21 -47 23 -73 8z"/>
<path d="M7019 6036 c-7 -14 -9 -36 -5 -50 5 -21 12 -26 40 -26 58 0 87 54 44
84 -33 24 -67 20 -79 -8z"/>
<path d="M7102 5941 c1 -3 -4 -19 -11 -35 -15 -38 8 -66 55 -66 29 0 35 4 42
33 7 22 6 36 -3 45 -13 14 -85 34 -83 23z"/>
<path d="M6400 5922 c-19 -16 -21 -22 -11 -40 6 -12 20 -22 31 -22 26 0 38 46
18 66 -13 13 -17 13 -38 -4z"/>
<path d="M6814 5930 c-28 -11 -36 -35 -22 -65 11 -24 25 -30 58 -25 21 2 28
11 35 41 4 18 1 31 -10 43 -18 18 -30 19 -61 6z"/>
<path d="M6960 5931 c-8 -6 -17 -8 -20 -6 -11 7 -10 -57 1 -71 16 -20 69 -17
85 4 37 48 -14 105 -66 73z"/>
<path d="M7254 5915 c-22 -22 -23 -28 -12 -47 7 -13 11 -26 10 -29 -1 -7 4 -6
59 5 35 8 47 50 23 77 -23 26 -50 24 -80 -6z"/>
<path d="M6502 5918 c-7 -7 -12 -20 -12 -29 0 -36 12 -49 44 -49 25 0 36 7 50
30 14 25 15 34 6 45 -15 18 -71 20 -88 3z"/>
<path d="M6644 5913 c-26 -43 26 -87 73 -62 19 10 23 20 21 43 -3 28 -6 31
-43 34 -30 2 -43 -2 -51 -15z"/>
<path d="M6588 5813 c-20 -5 -34 -44 -25 -68 8 -19 56 -31 76 -18 9 6 17 25
19 43 5 44 -17 57 -70 43z"/>
<path d="M6722 5808 c-19 -19 -15 -66 7 -78 35 -18 67 -12 79 15 7 14 12 32
12 40 0 30 -74 47 -98 23z"/>
<path d="M6864 5796 c-12 -48 -2 -71 33 -74 43 -4 73 13 73 43 0 33 -26 55
-66 55 -27 0 -35 -5 -40 -24z"/>
<path d="M7025 5804 c-25 -26 -16 -77 17 -88 62 -22 112 65 53 92 -35 16 -51
15 -70 -4z"/>
<path d="M6424 5796 c-18 -48 -6 -76 32 -76 29 0 58 41 49 70 -5 15 -15 20
-41 20 -21 0 -37 -6 -40 -14z"/>
<path d="M6517 5698 c-35 -12 -46 -51 -21 -79 21 -24 55 -21 71 6 30 49 2 90
-50 73z"/>
<path d="M6366 5681 c-37 -40 -2 -96 41 -66 27 19 35 51 16 67 -22 18 -40 18
-57 -1z"/>
<path d="M6636 5685 c-17 -17 -6 -72 16 -87 29 -18 88 24 88 63 0 36 -74 53
-104 24z"/>
<path d="M6792 5688 c-31 -31 -2 -91 44 -93 48 -3 69 38 44 86 -12 22 -68 27
-88 7z"/>
<path d="M6940 5675 c-15 -39 3 -75 38 -75 31 0 62 26 62 52 0 23 -33 48 -64
48 -19 0 -29 -7 -36 -25z"/>
<path d="M6443 5579 c-52 -19 -51 -91 1 -101 33 -7 56 18 56 60 0 36 -24 54
-57 41z"/>
<path d="M6566 5564 c-9 -8 -16 -26 -16 -39 0 -48 77 -58 100 -14 26 47 -46
92 -84 53z"/>
<path d="M6716 5558 c-9 -12 -16 -30 -16 -39 0 -46 75 -52 99 -7 14 24 14 28
-3 47 -25 27 -61 27 -80 -1z"/>
<path d="M6878 5569 c-21 -12 -24 -69 -6 -87 33 -33 88 2 88 55 0 41 -41 57
-82 32z"/>
<path d="M6301 5547 c-17 -21 -3 -49 23 -45 15 2 21 10 21 28 0 28 -26 38 -44
17z"/>
<path d="M6356 5449 c-42 -33 -32 -69 22 -82 17 -4 27 1 38 18 18 28 12 55
-15 72 -16 10 -24 9 -45 -8z"/>
<path d="M6492 5448 c-13 -13 -16 -57 -4 -73 11 -15 48 -18 72 -5 23 12 28 58
8 78 -7 7 -24 12 -38 12 -14 0 -31 -5 -38 -12z"/>
<path d="M6642 5448 c-20 -20 -14 -66 9 -79 45 -24 101 38 69 76 -15 18 -61
20 -78 3z"/>
<path d="M6791 5451 c-7 -5 -13 -20 -13 -35 0 -75 83 -74 106 1 5 16 2 25 -13
32 -24 13 -61 14 -80 2z"/>
<path d="M6439 5343 c-20 -5 -42 -45 -37 -69 4 -24 53 -42 76 -28 20 13 32 53
21 75 -9 18 -35 27 -60 22z"/>
<path d="M6579 5336 c-31 -15 -38 -64 -13 -83 39 -28 94 -2 94 44 0 36 -44 58
-81 39z"/>
<path d="M6712 5328 c-27 -27 2 -98 41 -98 26 0 49 37 45 72 -3 30 -6 33 -38
36 -19 2 -41 -3 -48 -10z"/>
<path d="M6278 5306 c-15 -35 -4 -56 31 -56 33 0 47 25 36 60 -9 29 -52 26
-67 -4z"/>
<path d="M6498 5219 c-12 -6 -18 -22 -18 -43 0 -25 6 -35 26 -44 40 -19 74 8
74 58 0 10 -3 21 -7 23 -21 12 -60 15 -75 6z"/>
<path d="M6658 5218 c-34 -12 -40 -28 -21 -66 27 -56 97 -35 91 27 -4 39 -29
53 -70 39z"/>
<path d="M6334 5198 c-14 -44 -11 -57 17 -67 33 -12 64 7 71 43 6 32 -8 46
-48 46 -25 0 -34 -5 -40 -22z"/>
<path d="M6283 5099 c-32 -12 -33 -74 -1 -82 29 -8 55 8 60 37 9 44 -15 62
-59 45z"/>
<path d="M6423 5103 c-47 -9 -21 -92 29 -93 48 -1 66 74 22 90 -14 6 -26 9
-27 9 -1 -1 -12 -4 -24 -6z"/>
<path d="M6566 5094 c-33 -33 -9 -83 41 -84 20 0 53 33 53 52 0 15 -40 48 -59
48 -11 0 -27 -7 -35 -16z"/>
<path d="M6359 4987 c-27 -14 -37 -51 -19 -73 18 -21 57 -17 73 7 30 42 -8 88
-54 66z"/>
<path d="M6654 4988 c-54 -25 -43 -88 16 -88 32 0 50 23 50 63 0 28 -32 40
-66 25z"/>
<path d="M6480 4971 c-15 -29 -12 -48 11 -64 39 -28 97 11 85 58 -5 21 -12 25
-46 25 -29 0 -42 -5 -50 -19z"/>
<path d="M6223 4964 c-3 -8 1 -22 9 -30 12 -12 17 -12 33 -1 23 17 14 47 -15
47 -11 0 -23 -7 -27 -16z"/>
<path d="M6405 4867 c-21 -30 -19 -64 4 -77 43 -23 82 -3 88 44 4 31 -9 45
-45 50 -25 3 -36 -2 -47 -17z"/>
<path d="M6584 4883 c-11 -2 -28 -17 -38 -33 -21 -36 -9 -65 29 -72 37 -8 65
17 65 57 0 37 -19 54 -56 48z"/>
<path d="M6273 4865 c-44 -31 -21 -90 33 -83 36 4 51 29 38 65 -11 33 -40 40
-71 18z"/>
<path d="M6336 4759 c2 -4 0 -10 -6 -14 -5 -3 -10 -19 -10 -35 0 -23 5 -31 25
-36 14 -3 32 -4 40 0 22 8 38 55 25 71 -11 13 -82 26 -74 14z"/>
<path d="M6474 4748 c-5 -7 -9 -20 -8 -28 1 -8 2 -21 3 -28 0 -7 12 -18 26
-24 21 -9 28 -8 45 7 24 22 27 70 4 79 -26 10 -61 7 -70 -6z"/>
<path d="M6203 4734 c-10 -25 11 -49 43 -50 24 -1 29 3 29 21 -1 11 -5 26 -9
33 -11 18 -56 15 -63 -4z"/>
<path d="M6285 4642 c-46 -10 -59 -46 -27 -75 24 -22 48 -21 71 2 12 12 17 28
14 44 -5 26 -24 36 -58 29z"/>
<path d="M6435 4640 c-38 -5 -40 -7 -40 -39 0 -40 21 -57 58 -47 30 7 45 46
31 74 -7 13 -18 16 -49 12z"/>
<path d="M6182 4604 c4 -21 22 -23 26 -1 2 10 -3 17 -13 17 -10 0 -15 -6 -13
-16z"/>
<path d="M6505 4532 c-32 -7 -45 -22 -45 -53 0 -41 38 -59 75 -35 44 29 21 99
-30 88z"/>
<path d="M6323 4504 c-21 -32 -8 -58 31 -62 34 -4 56 13 56 44 0 46 -60 58
-87 18z"/>
<path d="M6204 4506 c-10 -26 1 -51 23 -54 17 -3 24 3 29 23 4 18 2 30 -7 36
-21 13 -39 11 -45 -5z"/>
<path d="M6435 4422 c-49 -10 -72 -64 -40 -96 29 -29 95 8 95 54 0 23 -31 47
-55 42z"/>
<path d="M6244 4411 c4 -5 2 -11 -4 -13 -6 -2 -12 -13 -15 -26 -3 -16 3 -27
21 -39 48 -31 103 11 83 65 -7 18 -16 22 -49 22 -23 0 -39 -4 -36 -9z"/>
<path d="M6314 4278 c-25 -28 -20 -56 9 -63 26 -6 67 -3 67 5 0 3 4 21 9 41 8
35 8 35 -28 37 -28 2 -42 -3 -57 -20z"/>
<path d="M6462 4288 c-17 -17 -15 -63 3 -78 38 -32 100 24 76 69 -13 23 -59
29 -79 9z"/>
<path d="M6202 4258 c5 -34 38 -37 38 -4 0 20 -5 26 -21 26 -15 0 -20 -5 -17
-22z"/>
<path d="M6246 4177 c-26 -19 -18 -61 13 -65 15 -3 30 3 38 14 17 23 16 29 -3
48 -19 19 -25 20 -48 3z"/>
<path d="M6364 4165 c-8 -20 11 -64 31 -71 8 -4 26 -4 39 0 19 5 23 12 22 43
-1 37 -2 38 -44 41 -32 2 -44 -1 -48 -13z"/>
<path d="M6292 4068 c-7 -7 -12 -25 -12 -40 0 -21 7 -32 26 -40 24 -11 29 -9
51 16 l24 28 -22 24 c-25 26 -48 31 -67 12z"/>
<path d="M6424 4064 c-10 -4 -4 -68 8 -79 9 -9 46 -8 66 3 26 15 31 66 6 76
-18 7 -63 7 -80 0z"/>
<path d="M6347 3943 c-22 -25 -11 -72 18 -79 48 -12 94 46 65 81 -17 20 -63
19 -83 -2z"/>
<path d="M6491 3947 c-15 -15 -14 -60 1 -75 19 -19 55 -14 72 10 8 12 13 25
10 30 -3 4 0 8 6 8 7 0 5 6 -4 15 -19 20 -70 27 -85 12z"/>
<path d="M6254 3929 c-8 -14 11 -33 25 -25 6 4 11 14 11 22 0 16 -26 19 -36 3z"/>
<path d="M6287 3838 c-23 -12 -21 -44 3 -68 30 -30 70 -10 70 36 0 30 -43 49
-73 32z"/>
<path d="M6442 3842 c-29 -4 -50 -47 -36 -70 6 -9 23 -19 37 -23 22 -6 31 -2
46 17 11 13 18 32 16 42 -2 9 -4 20 -4 23 -1 10 -32 15 -59 11z"/>
<path d="M6346 3715 c-12 -12 -13 -22 -5 -43 18 -47 50 -55 74 -18 34 51 -26
104 -69 61z"/>
<path d="M6510 3722 c-62 -19 -44 -110 18 -96 35 8 50 28 44 59 -6 34 -29 48
-62 37z"/>
<path d="M6407 3596 c-10 -11 -17 -30 -17 -41 0 -24 28 -52 48 -49 6 1 18 2
26 3 8 0 19 15 25 33 9 25 8 35 -5 49 -24 26 -58 29 -77 5z"/>
<path d="M6315 3580 c-4 -6 -1 -18 6 -26 11 -14 13 -14 21 0 15 26 -12 51 -27
26z"/>
<path d="M6463 3466 c-1 -31 17 -74 34 -80 21 -8 52 11 63 40 17 45 -6 67 -67
62 -21 -1 -29 -7 -30 -22z"/>
<path d="M6346 3464 c-8 -21 19 -64 39 -64 19 0 40 43 32 64 -9 22 -63 21 -71
0z"/>
<path d="M6417 3355 c-11 -10 -13 -23 -8 -42 16 -59 73 -55 79 6 3 26 -1 33
-23 41 -33 13 -31 13 -48 -5z"/>
<path d="M6557 3356 c-22 -17 -30 -55 -16 -73 14 -16 71 -17 87 -1 18 18 15
53 -6 71 -22 20 -41 21 -65 3z"/>
<path d="M6488 3243 c-22 -5 -35 -50 -21 -72 6 -9 25 -16 45 -17 32 -1 34 1
36 33 4 52 -14 68 -60 56z"/>
<path d="M6404 3205 c-7 -17 4 -37 17 -30 12 8 12 45 -1 45 -6 0 -13 -7 -16
-15z"/>
<path d="M6535 3116 c-20 -14 -24 -71 -6 -89 19 -19 62 2 77 39 14 33 14 37
-3 50 -23 17 -44 17 -68 0z"/>
<path d="M6651 3106 c-7 -8 -11 -27 -9 -43 4 -35 50 -56 73 -32 18 18 25 60
13 77 -14 17 -63 15 -77 -2z"/>
<path d="M6428 3104 c-10 -9 3 -42 18 -48 17 -6 29 17 20 39 -5 15 -27 20 -38
9z"/>
<path d="M6463 3003 c-35 -7 -41 -84 -6 -97 17 -7 63 39 63 63 0 17 -19 42
-29 40 -4 -1 -16 -4 -28 -6z"/>
<path d="M6736 2997 c-9 -7 -19 -26 -22 -44 -5 -25 -2 -33 15 -43 53 -28 103
18 76 70 -14 28 -44 35 -69 17z"/>
<path d="M6575 2976 c-28 -43 11 -86 59 -65 25 12 44 59 31 79 -3 5 -22 10
-40 10 -25 0 -39 -6 -50 -24z"/>
<path d="M6813 2880 c-27 -11 -40 -54 -22 -76 23 -28 46 -35 74 -22 39 18 44
56 11 85 -30 25 -31 26 -63 13z"/>
<path d="M6496 2872 c-3 -4 -7 -21 -10 -35 -7 -38 33 -65 70 -48 21 9 25 17
22 49 -3 35 -5 37 -40 40 -20 2 -39 -1 -42 -6z"/>
<path d="M6639 2863 c-29 -35 1 -83 52 -83 43 0 71 57 42 85 -20 20 -77 19
-94 -2z"/>
<path d="M6380 2840 c-13 -24 -5 -40 19 -40 24 0 45 25 37 45 -8 22 -43 18
-56 -5z"/>
<path d="M13810 1470 c-6 -4 -12 -22 -13 -41 -2 -30 1 -34 28 -39 53 -11 86
38 47 70 -20 17 -44 21 -62 10z"/>
<path d="M13967 1453 c-11 -10 -8 -51 3 -58 6 -4 24 -4 40 0 32 7 40 31 18 53
-13 13 -50 16 -61 5z"/>
<path d="M14127 1434 c-9 -10 2 -24 19 -24 8 0 14 7 14 15 0 15 -21 21 -33 9z"/>
<path d="M4838 1340 c-19 -15 -21 -22 -13 -46 22 -60 101 -42 93 22 -4 37 -48
50 -80 24z"/>
<path d="M13748 1353 c-20 -3 -30 -12 -34 -30 -9 -35 6 -56 44 -64 26 -5 34
-2 47 17 20 31 19 54 -2 70 -10 7 -20 13 -23 12 -3 0 -17 -3 -32 -5z"/>
<path d="M13883 1348 c-20 -25 -21 -57 -3 -73 19 -17 86 -18 88 -1 0 6 3 21 5
33 3 12 -1 27 -8 33 -21 18 -71 22 -82 8z"/>
<path d="M14202 1345 c-10 -8 -22 -12 -24 -9 -11 10 1 -48 12 -61 16 -19 64
-19 80 0 32 38 -27 98 -68 70z"/>
<path d="M14352 1340 c-25 -40 -8 -80 33 -80 56 0 60 69 5 82 -8 2 -17 6 -20
10 -3 4 -11 -2 -18 -12z"/>
<path d="M4683 1324 c-20 -20 -22 -27 -11 -43 29 -46 98 -25 90 27 -6 41 -46
49 -79 16z"/>
<path d="M13562 1325 c-4 -39 8 -63 33 -67 32 -6 61 14 67 47 6 31 -16 46 -64
43 -26 -2 -35 -8 -36 -23z"/>
<path d="M14030 1335 c-30 -36 30 -98 72 -74 21 12 32 57 17 75 -15 18 -73 18
-89 -1z"/>
<path d="M14518 1333 c-18 -4 -19 -7 -22 -39 -2 -27 28 -40 58 -26 31 14 34
47 7 62 -11 5 -21 9 -23 9 -2 -1 -11 -3 -20 -6z"/>
<path d="M4533 1304 c-3 -8 1 -22 8 -29 19 -18 59 -2 59 25 0 16 -7 20 -30 20
-19 0 -33 -6 -37 -16z"/>
<path d="M14681 1306 c-14 -17 -7 -36 14 -36 22 0 29 20 13 36 -13 13 -16 13
-27 0z"/>
<path d="M4761 1221 c-37 -37 -1 -97 50 -84 25 7 41 57 25 79 -19 25 -53 27
-75 5z"/>
<path d="M5066 1227 c-41 -30 -8 -103 42 -90 15 3 28 1 34 -8 8 -11 9 -10 4 4
-3 9 -1 28 4 42 18 46 -42 83 -84 52z"/>
<path d="M13808 1229 c-22 -12 -24 -62 -3 -83 14 -13 55 -14 77 0 4 3 8 21 8
40 0 28 -5 36 -26 44 -31 12 -34 12 -56 -1z"/>
<path d="M4450 1211 c-25 -49 5 -83 58 -67 24 8 37 53 21 72 -17 21 -66 18
-79 -5z"/>
<path d="M4604 1216 c-18 -47 19 -102 54 -80 28 18 46 62 32 80 -16 18 -79 19
-86 0z"/>
<path d="M13352 1218 c-16 -16 -15 -53 2 -67 8 -7 27 -11 43 -9 25 3 28 7 28
43 0 37 -2 40 -30 43 -17 2 -36 -3 -43 -10z"/>
<path d="M13490 1209 c-28 -51 44 -105 81 -60 12 15 15 29 10 49 -6 22 -14 28
-44 30 -28 3 -38 -1 -47 -19z"/>
<path d="M13653 1223 c-16 -6 -17 -47 -3 -74 11 -19 64 -27 74 -11 12 19 15
67 4 79 -10 13 -51 16 -75 6z"/>
<path d="M13955 1215 c-3 -8 -7 -22 -9 -30 -3 -7 3 -24 13 -36 14 -17 23 -20
48 -15 40 9 57 61 27 83 -24 18 -73 17 -79 -2z"/>
<path d="M14111 1213 c-17 -33 -4 -67 28 -76 42 -11 84 49 54 78 -20 21 -70
19 -82 -2z"/>
<path d="M14267 1223 c-4 -3 -7 -21 -7 -39 0 -41 30 -62 66 -45 28 12 41 55
24 76 -12 15 -71 21 -83 8z"/>
<path d="M14425 1220 c-39 -62 26 -121 75 -68 37 40 20 78 -36 78 -18 0 -36
-5 -39 -10z"/>
<path d="M14576 1209 c-13 -19 -13 -25 0 -50 16 -32 39 -37 72 -13 24 17 29
53 10 72 -20 20 -65 14 -82 -9z"/>
<path d="M14730 1211 c-15 -28 -12 -46 8 -63 18 -15 25 -16 60 -4 44 15 15 86
-36 86 -12 0 -26 -9 -32 -19z"/>
<path d="M4320 1200 c-17 -17 -19 -24 -9 -36 7 -8 24 -14 38 -12 22 2 26 8 26
33 0 37 -26 44 -55 15z"/>
<path d="M14890 1200 c-13 -25 -5 -56 17 -64 22 -9 63 20 63 44 0 21 -4 25
-42 34 -21 5 -30 2 -38 -14z"/>
<path d="M15063 1183 c-18 -6 -16 -23 1 -23 17 0 30 16 19 23 -5 2 -14 2 -20
0z"/>
<path d="M4572 1110 c-19 -4 -38 -12 -44 -18 -15 -15 -13 -63 3 -73 16 -10 57
-3 76 13 16 13 17 68 2 68 -5 0 -7 5 -4 10 3 6 5 10 3 9 -2 -1 -18 -5 -36 -9z"/>
<path d="M5456 1098 c-31 -44 -14 -78 40 -78 17 0 37 7 44 15 18 22 4 64 -26
75 -36 14 -41 13 -58 -12z"/>
<path d="M5620 1105 c-7 -8 -16 -13 -20 -10 -10 6 0 -47 13 -62 5 -7 24 -13
42 -13 28 0 35 5 44 33 11 28 9 34 -10 50 -26 21 -52 22 -69 2z"/>
<path d="M13159 1106 c-27 -13 -37 -50 -19 -72 19 -21 67 -18 80 6 23 43 -18
88 -61 66z"/>
<path d="M13453 1108 c-26 -7 -33 -14 -33 -32 0 -43 10 -56 45 -56 37 0 53 15
51 48 -3 36 -26 51 -63 40z"/>
<path d="M13748 1105 c-51 -28 -46 -77 10 -88 56 -11 87 56 43 90 -20 15 -20
15 -53 -2z"/>
<path d="M13886 1109 c2 -4 0 -10 -6 -14 -15 -9 -12 -51 4 -64 12 -10 92 -13
82 -3 -2 2 0 16 4 32 6 19 4 32 -3 38 -14 12 -87 21 -81 11z"/>
<path d="M14060 1110 c-15 -3 -29 -17 -34 -32 -14 -39 7 -59 59 -57 39 2 41 4
43 34 3 39 -29 65 -68 55z"/>
<path d="M4375 1093 c-23 -22 -18 -52 9 -64 32 -15 76 -4 77 19 0 9 2 25 4 35
2 11 1 17 -1 14 -3 -3 -21 -1 -40 3 -25 6 -38 4 -49 -7z"/>
<path d="M4693 1103 c-50 -10 -15 -93 39 -93 22 0 40 33 36 68 -3 28 -25 35
-75 25z"/>
<path d="M4830 1091 c-21 -40 -7 -66 41 -74 36 -7 52 6 51 42 -1 43 -8 51 -47
51 -24 0 -38 -6 -45 -19z"/>
<path d="M4991 1101 c-7 -5 -15 -21 -16 -35 -7 -58 87 -75 101 -19 4 14 2 33
-3 42 -11 18 -61 26 -82 12z"/>
<path d="M5148 1099 c-19 -11 -23 -45 -9 -67 11 -18 69 -22 82 -6 6 7 9 28 7
46 -3 29 -7 33 -33 35 -16 2 -38 -2 -47 -8z"/>
<path d="M5302 1098 c-14 -17 -18 -50 -9 -65 10 -17 83 -17 93 -1 15 24 11 49
-10 64 -25 17 -60 18 -74 2z"/>
<path d="M13284 1096 c-3 -9 -10 -13 -15 -10 -11 7 -11 4 2 -35 9 -25 17 -31
39 -31 37 0 62 25 58 59 -3 22 -8 26 -41 29 -26 2 -39 -1 -43 -12z"/>
<path d="M13577 1092 c-27 -29 -13 -66 29 -76 33 -9 62 15 58 47 -1 12 -3 28
-3 35 -1 19 -65 15 -84 -6z"/>
<path d="M14193 1098 c-20 -26 -21 -46 -5 -61 27 -23 51 -28 72 -14 25 15 28
72 4 81 -26 10 -61 7 -71 -6z"/>
<path d="M14345 1086 c-23 -35 -5 -66 38 -66 40 0 57 15 57 51 0 19 -6 28 -22
33 -41 10 -57 6 -73 -18z"/>
<path d="M14506 1094 c-32 -32 -13 -74 34 -74 49 0 71 39 40 70 -24 24 -53 26
-74 4z"/>
<path d="M4252 1091 c-8 -4 -12 -19 -10 -32 2 -18 9 -24 28 -24 21 0 25 5 25
30 0 31 -19 42 -43 26z"/>
<path d="M14657 1082 c-23 -25 -21 -39 8 -58 47 -31 101 9 81 61 -8 22 -69 19
-89 -3z"/>
<path d="M14807 1093 c-12 -11 -8 -60 6 -70 18 -14 66 -10 77 7 15 23 12 57
-6 64 -21 8 -69 8 -77 -1z"/>
<path d="M14964 1085 c-17 -44 27 -86 68 -64 23 12 25 64 2 73 -28 11 -65 6
-70 -9z"/>
<path d="M15119 1074 c-11 -14 -10 -19 10 -35 17 -14 27 -16 42 -9 22 12 23
15 9 41 -13 23 -43 25 -61 3z"/>
<path d="M5093 988 c-18 -4 -34 -17 -38 -28 -8 -24 2 -60 16 -60 6 0 8 -4 5
-8 -7 -11 56 -2 72 10 18 15 15 63 -5 80 -14 11 -26 13 -50 6z"/>
<path d="M5872 993 c-59 -11 -43 -103 18 -103 33 0 50 17 50 50 0 23 -28 63
-41 59 -2 -1 -14 -4 -27 -6z"/>
<path d="M4485 982 c-33 -7 -44 -21 -36 -49 10 -38 46 -48 71 -21 11 12 20 27
20 33 0 19 -34 42 -55 37z"/>
<path d="M4605 970 c-8 -9 -15 -23 -15 -32 0 -21 32 -48 57 -48 23 0 53 29 53
52 0 35 -70 56 -95 28z"/>
<path d="M4760 970 c-26 -26 -25 -45 2 -64 45 -32 88 -14 88 36 0 46 -54 64
-90 28z"/>
<path d="M4918 979 c-25 -14 -24 -65 1 -79 42 -22 74 -10 84 32 12 46 -39 74
-85 47z"/>
<path d="M5221 973 c-19 -16 -20 -22 -11 -48 9 -26 17 -31 45 -33 45 -3 68 27
53 69 -8 23 -16 29 -38 29 -15 0 -37 -8 -49 -17z"/>
<path d="M5371 976 c-12 -14 -6 -62 8 -71 25 -15 64 -12 82 6 24 24 24 34 -1
59 -23 23 -72 26 -89 6z"/>
<path d="M5532 978 c-30 -30 3 -88 49 -88 38 0 58 37 41 75 -9 19 -19 25 -45
25 -18 0 -38 -5 -45 -12z"/>
<path d="M5693 983 c-7 -2 -13 -20 -13 -39 0 -27 5 -37 24 -45 55 -25 103 20
76 70 -10 20 -55 28 -87 14z"/>
<path d="M12958 979 c-11 -6 -18 -22 -18 -38 0 -22 7 -31 30 -41 16 -7 36 -10
45 -7 19 8 31 56 18 76 -12 19 -51 25 -75 10z"/>
<path d="M13123 983 c-33 -6 -45 -26 -34 -55 9 -25 49 -41 70 -29 25 16 18 95
-8 90 -3 -1 -16 -4 -28 -6z"/>
<path d="M13370 981 c-21 -6 -25 -13 -25 -46 0 -34 3 -40 23 -43 13 -2 34 4
48 13 20 13 25 23 22 48 -3 35 -21 42 -68 28z"/>
<path d="M13512 979 c-19 -7 -23 -15 -20 -46 3 -34 6 -38 34 -41 37 -4 64 19
64 52 0 41 -30 55 -78 35z"/>
<path d="M13653 975 c-43 -30 9 -102 60 -82 21 8 32 64 17 82 -16 19 -50 19
-77 0z"/>
<path d="M13813 980 c-16 -7 -23 -18 -23 -38 0 -35 16 -52 50 -52 34 0 50 17
50 52 0 21 -6 31 -26 38 -14 6 -26 10 -27 9 -1 0 -12 -4 -24 -9z"/>
<path d="M13959 974 c-16 -19 -13 -65 5 -76 17 -12 61 -9 74 4 7 7 12 24 12
38 0 14 -5 31 -12 38 -17 17 -63 15 -79 -4z"/>
<path d="M14112 978 c-7 -7 -12 -25 -12 -40 0 -36 38 -57 74 -40 31 14 41 69
15 83 -24 13 -63 11 -77 -3z"/>
<path d="M14273 983 c-7 -2 -13 -22 -13 -43 0 -46 24 -59 71 -40 22 10 29 19
29 41 0 39 -43 60 -87 42z"/>
<path d="M14438 983 c-10 -2 -18 -10 -19 -16 0 -7 -2 -20 -4 -30 -8 -40 57
-63 89 -31 40 39 -7 92 -66 77z"/>
<path d="M14598 983 c-22 -5 -35 -50 -21 -72 23 -37 103 -19 103 23 0 41 -35
62 -82 49z"/>
<path d="M14742 974 c-26 -18 -28 -46 -6 -68 22 -23 60 -20 78 6 20 28 20 43
0 62 -20 20 -43 20 -72 0z"/>
<path d="M13214 966 c-3 -8 -4 -27 -2 -43 2 -23 8 -28 33 -31 41 -3 54 8 57
48 3 34 2 35 -40 38 -30 2 -44 -1 -48 -12z"/>
<path d="M14887 973 c-13 -13 -7 -50 12 -67 34 -31 97 3 83 44 -3 8 -10 18
-16 22 -14 10 -70 10 -79 1z"/>
<path d="M15056 959 c-19 -27 -10 -49 19 -49 38 0 55 11 55 35 0 38 -50 48
-74 14z"/>
<path d="M4287 964 c-14 -15 14 -44 44 -44 26 0 30 3 27 23 -2 16 -11 23 -33
25 -17 2 -34 0 -38 -4z"/>
<path d="M12595 890 c-3 -5 3 -10 14 -10 11 0 23 5 26 10 3 6 -3 10 -14 10
-11 0 -23 -4 -26 -10z"/>
<path d="M12784 879 c-3 -6 -17 -9 -31 -6 -19 3 -27 -1 -34 -20 -13 -36 -11
-51 10 -72 27 -27 72 -15 86 23 8 24 6 31 -12 46 -16 13 -19 20 -10 29 6 6 8
11 5 11 -4 0 -10 -5 -14 -11z"/>
<path d="M5483 869 c-57 -21 -51 -99 7 -99 35 0 60 23 60 55 0 30 -38 55 -67
44z"/>
<path d="M5002 859 c-12 -5 -22 -12 -23 -16 0 -4 -2 -18 -3 -30 -2 -13 1 -23
6 -23 5 0 7 -3 5 -7 -9 -14 70 -14 80 -1 10 12 26 68 21 68 -2 0 -17 4 -33 9
-17 4 -40 4 -53 0z"/>
<path d="M5148 859 c-37 -22 -14 -89 31 -89 43 0 80 52 57 81 -14 18 -65 23
-88 8z"/>
<path d="M5300 855 c-31 -37 -8 -85 40 -85 46 0 69 46 39 79 -23 24 -61 28
-79 6z"/>
<path d="M5615 854 c-23 -24 -15 -66 16 -83 24 -13 29 -13 53 2 18 12 26 26
26 47 0 46 -61 68 -95 34z"/>
<path d="M5773 863 c-16 -6 -17 -65 -1 -81 7 -7 24 -12 38 -12 35 0 50 17 50
56 0 39 -40 57 -87 37z"/>
<path d="M5930 861 c-8 -6 -17 -8 -21 -5 -8 4 5 -58 15 -75 10 -15 71 -14 83
2 6 6 13 25 15 40 5 23 1 30 -19 38 -31 11 -54 11 -73 0z"/>
<path d="M12573 850 c-26 -41 -9 -80 33 -80 41 0 54 11 54 45 0 38 -2 40 -45
49 -24 5 -33 2 -42 -14z"/>
<path d="M12876 854 c-34 -34 -11 -84 39 -84 35 0 55 20 55 54 0 22 -28 46
-55 46 -13 0 -31 -7 -39 -16z"/>
<path d="M13036 855 c-19 -19 -21 -56 -4 -73 17 -17 63 -15 78 3 13 15 17 61
7 71 -14 15 -66 14 -81 -1z"/>
<path d="M13181 860 c-54 -13 -39 -90 18 -90 36 0 51 17 51 56 0 35 -22 46
-69 34z"/>
<path d="M13275 844 c-10 -15 -12 -23 -4 -19 9 6 11 3 6 -8 -7 -19 27 -47 58
-47 30 0 45 19 45 56 0 24 -5 33 -22 38 -44 11 -66 6 -83 -20z"/>
<path d="M13435 856 c-38 -28 -21 -86 25 -86 33 0 53 27 48 62 -4 26 -50 41
-73 24z"/>
<path d="M13572 838 c-12 -43 0 -65 38 -70 38 -6 55 13 52 55 -3 36 -16 47
-54 47 -22 0 -29 -6 -36 -32z"/>
<path d="M13734 855 c-16 -11 -20 -21 -16 -42 6 -33 18 -43 51 -43 28 0 50 25
51 57 0 37 -50 54 -86 28z"/>
<path d="M13886 854 c-9 -9 -15 -29 -13 -48 2 -30 5 -33 38 -34 47 -3 74 24
60 60 -15 39 -58 50 -85 22z"/>
<path d="M14040 859 c0 -4 -7 -15 -16 -23 -10 -11 -11 -16 -3 -16 7 0 9 -3 6
-6 -3 -4 -2 -15 4 -26 8 -14 19 -18 49 -16 37 2 40 5 46 36 4 19 2 38 -4 44
-12 12 -82 18 -82 7z"/>
<path d="M14201 861 c-18 -11 -17 -71 1 -82 21 -14 55 -10 72 6 15 15 14 52
-1 65 -14 13 -58 19 -72 11z"/>
<path d="M14363 859 c-17 -6 -23 -16 -23 -37 0 -35 16 -52 50 -52 35 0 50 17
50 59 0 19 -3 32 -6 28 -3 -3 -16 -2 -28 2 -11 5 -31 5 -43 0z"/>
<path d="M4685 842 c3 -7 5 -18 5 -22 0 -5 9 -14 21 -20 27 -15 59 11 52 41
-5 16 -13 19 -45 17 -28 -1 -37 -6 -33 -16z"/>
<path d="M4830 840 c-8 -15 -6 -24 10 -40 25 -25 41 -25 68 0 26 25 26 24 6
44 -22 23 -71 20 -84 -4z"/>
<path d="M6075 845 c-3 -8 -7 -21 -9 -28 -5 -16 14 -41 38 -50 43 -17 87 48
54 81 -17 17 -78 15 -83 -3z"/>
<path d="M14498 829 c2 -15 13 -36 23 -45 17 -15 23 -15 44 -4 57 31 38 82
-30 79 -39 -2 -41 -4 -37 -30z"/>
<path d="M14665 851 c-3 -6 -4 -23 -3 -39 2 -26 5 -28 32 -23 57 12 63 71 7
71 -16 0 -32 -4 -36 -9z"/>
<path d="M14838 838 c-8 -21 2 -38 22 -38 26 0 43 23 28 38 -16 16 -45 15 -50
0z"/>
<path d="M6411 728 c-16 -26 -13 -53 7 -71 47 -43 107 6 80 64 -11 25 -73 29
-87 7z"/>
<path d="M12501 734 c-23 -17 -28 -54 -10 -82 21 -33 101 -2 94 36 -2 9 -4 20
-4 24 -1 4 -14 14 -30 22 -25 13 -31 13 -50 0z"/>
<path d="M13122 732 c-24 -16 -30 -60 -10 -80 7 -7 24 -12 39 -12 20 0 30 7
39 29 6 16 10 37 8 47 -4 25 -49 34 -76 16z"/>
<path d="M5235 732 c-10 -10 -5 -40 8 -45 22 -7 47 5 47 23 0 17 -43 34 -55
22z"/>
<path d="M5402 733 c-18 -4 -23 -10 -20 -31 2 -21 9 -28 29 -30 32 -4 57 23
43 46 -12 18 -20 21 -52 15z"/>
<path d="M5540 722 l-21 -17 21 -28 c31 -39 80 -25 80 22 0 37 -46 50 -80 23z"/>
<path d="M5691 726 c-7 -8 -11 -27 -9 -43 2 -22 9 -29 31 -31 16 -2 39 4 52
12 21 14 23 19 14 46 -9 25 -16 30 -44 30 -18 0 -38 -6 -44 -14z"/>
<path d="M5842 724 c-14 -25 -2 -65 24 -76 51 -24 104 55 55 82 -29 15 -69 12
-79 -6z"/>
<path d="M6002 728 c-27 -27 2 -88 42 -88 41 0 61 40 42 83 -9 20 -65 24 -84
5z"/>
<path d="M6154 733 c-35 -25 -15 -87 31 -96 22 -4 29 1 43 30 12 25 13 38 6
51 -12 18 -62 27 -80 15z"/>
<path d="M6288 729 c-22 -12 -23 -38 -2 -67 18 -26 50 -29 75 -6 14 13 16 21
8 42 -16 41 -45 52 -81 31z"/>
<path d="M12018 726 c-10 -7 -18 -23 -18 -35 0 -23 33 -61 53 -61 23 0 54 29
59 54 9 47 -53 74 -94 42z"/>
<path d="M12170 721 c-22 -43 -5 -81 36 -81 33 0 53 10 65 32 9 16 6 25 -12
44 -28 30 -74 32 -89 5z"/>
<path d="M12336 724 c-33 -32 -10 -94 35 -94 23 0 59 34 59 56 0 49 -59 73
-94 38z"/>
<path d="M12645 716 c-14 -20 -14 -29 -4 -48 7 -13 16 -26 22 -29 17 -12 62 7
74 32 28 55 -58 97 -92 45z"/>
<path d="M12800 721 c-24 -46 -5 -81 43 -81 47 0 76 57 45 88 -20 20 -76 15
-88 -7z"/>
<path d="M12956 724 c-9 -8 -16 -19 -16 -24 0 -23 25 -59 43 -64 22 -5 67 17
67 33 0 5 3 16 6 24 14 38 -68 64 -100 31z"/>
<path d="M13362 728 c-12 -16 -6 -59 12 -77 19 -18 62 -7 76 20 25 45 -55 97
-88 57z"/>
<path d="M13495 717 c-13 -19 -10 -53 8 -64 39 -24 98 19 80 60 -13 28 -69 31
-88 4z"/>
<path d="M13680 732 c-47 -7 -59 -50 -21 -79 23 -18 38 -16 61 7 39 39 16 81
-40 72z"/>
<path d="M13803 722 c-33 -33 17 -94 59 -71 30 16 42 49 24 67 -20 20 -65 22
-83 4z"/>
<path d="M5098 723 c7 -3 16 -2 19 1 4 3 -2 6 -13 5 -11 0 -14 -3 -6 -6z"/>
<path d="M13247 723 c-12 -12 -7 -60 7 -73 23 -19 59 -8 74 23 11 23 11 29 -2
42 -15 15 -67 21 -79 8z"/>
<path d="M13962 718 c-28 -28 -5 -69 36 -65 60 4 67 77 8 77 -17 0 -37 -5 -44
-12z"/>
<path d="M14121 708 c-12 -30 -1 -40 40 -36 29 2 34 7 34 28 0 21 -5 26 -33
28 -26 3 -34 -1 -41 -20z"/>
<path d="M14281 711 c-13 -23 -5 -31 29 -31 34 0 55 21 38 38 -18 18 -56 14
-67 -7z"/>
<path d="M14455 710 c-3 -5 1 -10 10 -10 9 0 13 5 10 10 -3 6 -8 10 -10 10 -2
0 -7 -4 -10 -10z"/>
<path d="M12266 628 c3 -4 9 -8 15 -8 5 0 9 4 9 8 0 5 -7 9 -15 9 -8 0 -12 -4
-9 -9z"/>
<path d="M6823 612 c-31 -5 -46 -28 -39 -57 13 -50 72 -56 102 -9 14 20 14 27
4 40 -19 21 -41 31 -67 26z"/>
<path d="M7111 593 c-19 -23 -20 -29 -8 -47 23 -34 43 -42 72 -26 37 20 44 58
14 81 -33 26 -54 24 -78 -8z"/>
<path d="M7271 594 c-12 -15 -21 -30 -21 -35 0 -14 43 -49 60 -49 27 0 60 30
60 55 0 25 -33 55 -61 55 -10 0 -27 -12 -38 -26z"/>
<path d="M7430 600 c-26 -26 -25 -45 1 -71 24 -24 64 -19 86 9 21 29 14 50
-24 71 -30 15 -40 14 -63 -9z"/>
<path d="M7592 604 c-28 -19 -28 -48 -1 -75 24 -24 64 -19 86 9 18 24 16 39
-7 62 -24 24 -48 25 -78 4z"/>
<path d="M7740 599 c-17 -30 -8 -62 21 -78 24 -13 29 -13 53 2 32 22 36 71 7
87 -32 17 -69 12 -81 -11z"/>
<path d="M7918 613 c-10 -2 -18 -8 -18 -11 0 -4 -3 -17 -6 -29 -7 -27 27 -63
59 -63 28 0 57 29 57 57 0 39 -41 60 -92 46z"/>
<path d="M8073 613 c-24 -16 -26 -60 -4 -82 28 -28 52 -26 82 5 22 23 23 27 8
52 -15 28 -61 41 -86 25z"/>
<path d="M8237 602 c-20 -22 -22 -55 -4 -70 35 -29 94 -9 101 34 8 47 -64 73
-97 36z"/>
<path d="M8393 612 c-7 -4 -14 -23 -15 -42 -3 -29 1 -35 25 -44 61 -22 112 30
71 75 -17 19 -59 25 -81 11z"/>
<path d="M8560 613 c-39 -15 -41 -67 -2 -87 51 -26 121 23 90 63 -25 31 -50
38 -88 24z"/>
<path d="M8706 604 c-19 -18 -21 -55 -4 -72 19 -19 73 -14 92 7 19 20 14 59
-8 73 -19 13 -64 9 -80 -8z"/>
<path d="M8877 602 c-34 -37 -12 -85 39 -88 24 -1 54 32 54 60 0 41 -64 60
-93 28z"/>
<path d="M9033 613 c-21 -8 -16 -71 6 -83 29 -15 56 -12 74 8 44 48 -15 102
-80 75z"/>
<path d="M9198 613 c-10 -2 -21 -16 -24 -29 -8 -33 28 -73 62 -70 48 5 82 59
52 84 -16 12 -68 21 -90 15z"/>
<path d="M9358 613 c-20 -5 -34 -44 -25 -68 8 -20 68 -34 90 -21 30 18 33 57
7 78 -22 18 -38 20 -72 11z"/>
<path d="M9518 613 c-10 -2 -21 -16 -24 -29 -13 -52 62 -87 99 -46 44 48 -3
94 -75 75z"/>
<path d="M9678 613 c-13 -3 -18 -15 -18 -44 0 -33 4 -40 24 -45 56 -14 95 21
73 66 -12 25 -42 34 -79 23z"/>
<path d="M9838 613 c-13 -3 -18 -14 -18 -37 0 -39 15 -56 50 -56 35 1 60 23
60 53 0 38 -37 54 -92 40z"/>
<path d="M9995 600 c-29 -32 -10 -74 33 -78 18 -2 40 2 48 9 17 14 18 61 2 77
-19 19 -63 14 -83 -8z"/>
<path d="M10163 608 c-31 -40 -12 -84 39 -93 31 -6 69 34 61 64 -9 34 -80 54
-100 29z"/>
<path d="M10333 609 c-14 -14 -17 -57 -5 -75 15 -23 48 -25 75 -3 27 21 33 43
19 67 -12 19 -74 26 -89 11z"/>
<path d="M10496 601 c-41 -46 14 -106 72 -79 52 25 31 98 -28 98 -15 0 -35 -9
-44 -19z"/>
<path d="M10672 613 c-23 -9 -34 -41 -21 -65 22 -42 64 -51 92 -20 45 49 -7
111 -71 85z"/>
<path d="M10832 613 c-23 -9 -34 -41 -21 -65 15 -29 28 -38 56 -38 29 0 53 26
53 57 0 40 -45 64 -88 46z"/>
<path d="M10986 607 c-37 -27 -14 -97 32 -97 57 0 86 76 37 98 -33 15 -47 15
-69 -1z"/>
<path d="M11143 605 c-29 -20 -29 -52 -1 -76 40 -35 98 -12 98 38 0 40 -61 64
-97 38z"/>
<path d="M11301 603 c-26 -18 -27 -54 -3 -76 23 -21 41 -21 70 -1 14 10 22 25
22 45 0 16 -1 29 -3 29 -1 0 -16 4 -34 9 -23 7 -37 5 -52 -6z"/>
<path d="M11639 606 c-40 -13 -50 -47 -23 -77 29 -33 70 -24 94 20 11 21 9 26
-12 46 -21 20 -28 21 -59 11z"/>
<path d="M6500 597 c-45 -23 -30 -87 21 -87 20 0 59 33 59 50 0 12 -37 50 -47
50 -5 0 -19 -6 -33 -13z"/>
<path d="M6640 590 c-19 -19 -19 -22 -5 -50 18 -35 62 -41 88 -12 50 55 -30
115 -83 62z"/>
<path d="M6952 598 c-27 -27 0 -88 39 -88 26 0 59 30 59 54 0 31 -18 46 -55
46 -17 0 -36 -5 -43 -12z"/>
<path d="M11456 594 c-22 -22 -20 -50 6 -68 30 -21 61 -20 81 2 23 25 21 48
-5 66 -29 20 -62 20 -82 0z"/>
<path d="M11788 603 c-46 -12 -23 -93 26 -93 49 0 84 52 53 78 -16 13 -57 21
-79 15z"/>
<path d="M11937 595 c-23 -22 -21 -44 5 -66 36 -32 69 -23 87 23 12 31 0 45
-46 54 -21 4 -35 1 -46 -11z"/>
<path d="M12102 594 c-45 -31 -10 -92 46 -79 35 7 57 45 39 68 -19 23 -60 28
-85 11z"/>
<path d="M12268 603 c-28 -7 -34 -51 -10 -75 26 -26 68 -18 84 17 19 41 -20
71 -74 58z"/>
<path d="M12422 599 c-42 -16 -19 -89 29 -89 22 0 59 34 59 54 0 28 -51 49
-88 35z"/>
<path d="M12582 599 c-28 -11 -29 -49 -1 -75 19 -17 23 -17 47 -3 17 9 28 25
30 41 2 20 -3 28 -25 35 -16 6 -38 7 -51 2z"/>
<path d="M6083 584 c-8 -22 18 -37 36 -20 7 8 10 19 7 25 -10 16 -36 13 -43
-5z"/>
<path d="M6223 593 c-7 -2 -13 -13 -13 -23 0 -26 21 -39 48 -29 25 10 30 44 6
53 -18 7 -23 7 -41 -1z"/>
<path d="M6340 570 c0 -35 17 -45 56 -36 20 5 25 12 22 34 -3 23 -8 27 -40 30
-36 3 -38 2 -38 -28z"/>
<path d="M12726 584 c-9 -8 -16 -19 -16 -24 0 -17 32 -40 55 -40 31 0 58 36
44 62 -12 22 -61 24 -83 2z"/>
<path d="M12893 593 c-16 -6 -17 -49 -2 -58 16 -11 56 3 63 21 12 31 -24 53
-61 37z"/>
<path d="M13063 592 c-16 -2 -23 -10 -23 -27 0 -12 6 -25 13 -28 15 -6 57 9
57 21 0 19 -26 38 -47 34z"/>
<path d="M8492 488 c-38 -10 -48 -28 -32 -58 16 -29 86 -25 107 6 13 20 12 24
-14 41 -22 16 -35 18 -61 11z"/>
<path d="M9145 492 c-30 -6 -45 -22 -45 -47 0 -24 17 -35 55 -35 44 0 74 54
38 67 -10 4 -20 9 -23 13 -3 3 -14 4 -25 2z"/>
<path d="M7515 471 c-8 -10 -13 -25 -9 -35 15 -38 94 -26 94 14 0 11 -1 20 -3
20 -1 0 -16 4 -34 9 -25 7 -35 6 -48 -8z"/>
<path d="M7850 483 c-8 -3 -21 -12 -27 -21 -10 -13 -10 -19 4 -34 20 -23 55
-23 82 0 19 14 20 20 9 33 -15 20 -46 30 -68 22z"/>
<path d="M8012 480 c-51 -21 -34 -70 24 -70 27 0 37 5 46 25 17 38 -23 63 -70
45z"/>
<path d="M8158 480 c-21 -13 -23 -41 -6 -58 34 -34 123 4 95 41 -15 21 -67 31
-89 17z"/>
<path d="M8309 469 c-20 -20 -20 -22 -3 -40 23 -25 69 -24 96 3 l21 21 -23 19
c-29 24 -65 23 -91 -3z"/>
<path d="M8626 468 c-20 -28 -6 -54 34 -60 36 -5 70 15 70 42 0 41 -79 55
-104 18z"/>
<path d="M8792 478 c-30 -30 -5 -68 43 -68 35 0 55 15 55 42 0 33 -72 52 -98
26z"/>
<path d="M8950 476 c-6 -8 -10 -25 -8 -38 6 -45 108 -32 108 13 0 33 -77 52
-100 25z"/>
<path d="M9271 473 c-20 -17 -22 -22 -12 -42 10 -18 19 -22 53 -19 43 3 74 32
59 56 -14 23 -74 26 -100 5z"/>
<path d="M9429 473 c-32 -38 7 -74 65 -59 26 6 44 42 29 57 -6 6 -25 12 -44
15 -26 4 -38 1 -50 -13z"/>
<path d="M9591 471 c-11 -11 -18 -27 -15 -36 9 -22 65 -35 89 -20 39 24 28 61
-22 71 -24 5 -36 1 -52 -15z"/>
<path d="M9752 478 c-28 -28 -6 -68 39 -68 27 0 59 22 59 40 0 33 -73 53 -98
28z"/>
<path d="M9920 472 c-19 -16 -21 -22 -11 -40 14 -27 71 -30 95 -6 20 20 20 27
-2 47 -24 22 -54 21 -82 -1z"/>
<path d="M10080 472 c-26 -21 -18 -50 18 -59 56 -14 107 34 66 64 -25 18 -58
16 -84 -5z"/>
<path d="M10250 472 c-19 -16 -21 -22 -11 -40 9 -17 21 -22 49 -22 58 0 82 37
45 66 -25 19 -57 17 -83 -4z"/>
<path d="M10419 471 c-32 -27 -16 -55 34 -59 27 -2 39 2 51 20 16 22 15 24 -5
41 -28 22 -51 22 -80 -2z"/>
<path d="M10583 468 c-19 -21 -19 -24 -1 -45 14 -17 60 -16 84 1 26 20 9 48
-34 57 -24 5 -36 2 -49 -13z"/>
<path d="M10762 479 c-24 -9 -30 -47 -11 -66 12 -12 61 -2 85 18 33 27 -26 65
-74 48z"/>
<path d="M6905 470 c-4 -6 -3 -14 0 -20 9 -15 35 -12 35 4 0 17 -27 29 -35 16z"/>
<path d="M7223 472 c-29 -4 -31 -37 -4 -52 15 -7 23 -6 35 6 9 8 16 19 16 23
0 15 -25 27 -47 23z"/>
<path d="M7373 470 c-25 -10 -26 -11 -17 -34 8 -21 72 -22 80 -1 7 17 -12 45
-30 44 -6 0 -21 -4 -33 -9z"/>
<path d="M7675 466 c-24 -17 -14 -43 21 -52 31 -8 57 5 62 31 7 33 -48 47 -83
21z"/>
<path d="M10914 472 c-39 -27 -5 -68 48 -57 34 8 46 29 28 50 -13 16 -57 20
-76 7z"/>
<path d="M11066 465 c-14 -14 -12 -43 3 -47 32 -8 63 -2 78 14 17 19 17 20 -2
34 -25 18 -60 18 -79 -1z"/>
<path d="M11241 469 c-32 -12 -24 -43 12 -47 41 -5 56 4 50 26 -6 24 -30 32
-62 21z"/>
<path d="M7061 461 c-17 -11 -5 -31 19 -31 24 0 36 20 19 31 -8 5 -16 9 -19 9
-3 0 -11 -4 -19 -9z"/>
<path d="M11380 446 c0 -38 60 -45 74 -9 9 23 -2 33 -40 33 -29 0 -34 -3 -34
-24z"/>
<path d="M11547 454 c-12 -12 6 -34 28 -34 22 0 40 22 28 34 -4 3 -16 6 -28 6
-12 0 -24 -3 -28 -6z"/>
</g>
</svg>
