<?xml version="1.0" standalone="no"?>
<!DOCTYPE svg PUBLIC "-//W3C//DTD SVG 20010904//EN"
 "http://www.w3.org/TR/2001/REC-SVG-20010904/DTD/svg10.dtd">
<svg version="1.0" xmlns="http://www.w3.org/2000/svg"
 width="1418.000000pt" height="1903.000000pt" viewBox="0 0 1418.000000 1903.000000"
 preserveAspectRatio="xMidYMid meet">
<metadata>
Created by potrace 1.16, written by Peter Selinger 2001-2019
</metadata>
<g transform="translate(0.000000,1903.000000) scale(0.100000,-0.100000)"
fill="#a7262a" stroke="none">
<path d="M3320 18623 c-98 -16 -279 -97 -360 -161 -300 -237 -531 -710 -695
-1419 -104 -450 -186 -971 -235 -1498 -37 -394 -47 -508 -60 -670 -11 -133
-22 -271 -40 -475 -20 -237 -50 -732 -51 -862 -1 -112 10 -101 -134 -129 -183
-35 -325 -80 -357 -112 -19 -20 -13 -54 12 -62 9 -3 82 12 161 34 179 49 286
74 300 69 8 -3 13 -60 15 -178 2 -157 25 -473 40 -541 6 -32 -7 -43 -66 -57
-102 -25 -336 -106 -365 -126 -30 -21 -36 -40 -22 -63 12 -19 52 -16 126 11
36 13 68 24 71 24 3 0 17 5 33 11 35 13 217 61 233 61 7 0 21 -39 34 -97 37
-172 93 -355 149 -486 23 -53 39 -102 35 -109 -4 -7 -3 -8 4 -4 7 4 12 3 12
-3 0 -5 -17 -15 -38 -21 -69 -23 -367 -141 -390 -156 -25 -17 -29 -55 -7 -74
17 -14 37 -8 200 57 174 71 277 105 285 96 5 -4 22 -33 39 -64 44 -80 116
-186 181 -265 14 -17 39 -48 55 -69 17 -22 38 -47 48 -57 9 -10 17 -25 17 -34
0 -15 -23 -45 -31 -41 -2 1 -3 0 -2 -1 1 -2 -20 -34 -46 -70 -61 -86 -113
-210 -146 -342 -32 -136 -35 -362 -5 -475 10 -38 15 -73 12 -77 -6 -5 -37 -23
-98 -56 -235 -128 -501 -327 -805 -604 -53 -48 -100 -84 -104 -80 -5 4 -5 2
-2 -4 8 -14 -17 -37 -28 -26 -5 4 -5 2 -2 -4 7 -12 -71 -91 -86 -86 -4 1 -6
-2 -3 -7 9 -13 -44 -72 -56 -64 -6 3 -8 2 -5 -4 9 -14 -102 -145 -115 -137 -6
4 -8 3 -5 -3 3 -5 -2 -21 -13 -34 -10 -13 -55 -73 -99 -134 -44 -60 -87 -118
-95 -127 -9 -10 -13 -18 -9 -18 3 0 0 -8 -8 -17 -21 -27 -37 -55 -114 -208
-131 -260 -181 -410 -221 -665 -19 -127 -22 -394 -5 -500 18 -108 65 -275 107
-380 36 -89 182 -329 219 -360 8 -7 15 -16 15 -21 0 -10 69 -86 157 -174 l63
-62 -21 -19 c-29 -26 -154 -201 -186 -261 -42 -79 -80 -156 -87 -180 -4 -13
-12 -23 -17 -23 -5 0 -9 -9 -9 -20 0 -12 -7 -34 -15 -49 -8 -16 -26 -64 -40
-107 -15 -44 -29 -86 -32 -94 -4 -8 -8 -26 -10 -40 -2 -14 -8 -36 -13 -50 -15
-40 -58 -276 -71 -390 -18 -158 -15 -500 6 -660 32 -259 125 -651 190 -805 7
-16 16 -41 20 -55 15 -56 123 -321 170 -418 14 -29 22 -58 19 -64 -4 -6 -3 -8
3 -5 13 8 36 -41 27 -55 -4 -6 -3 -8 2 -5 5 3 34 -43 64 -101 29 -59 64 -124
77 -144 12 -20 24 -43 25 -50 2 -7 9 -19 16 -26 7 -8 9 -19 5 -25 -3 -7 -3 -9
2 -5 8 8 102 -141 97 -154 -1 -5 2 -8 6 -8 11 0 57 -82 54 -96 -1 -7 -21 -32
-43 -55 -81 -88 -239 -347 -239 -392 0 -7 -4 -17 -9 -22 -5 -6 -19 -50 -32
-100 -17 -69 -23 -128 -27 -257 -2 -93 -8 -168 -13 -168 -15 0 -10 -30 11 -58
27 -37 51 -120 37 -129 -6 -4 -7 -1 -2 7 6 9 2 10 -16 5 -36 -11 -50 -26 -47
-49 2 -15 12 -22 31 -24 31 -4 60 14 51 32 -3 6 3 0 15 -14 29 -37 33 -60 10
-60 -11 0 -22 -7 -26 -16 -9 -25 11 -49 43 -51 16 0 34 -2 40 -2 22 -2 24 -33
5 -58 -11 -13 -17 -31 -14 -39 6 -17 54 -19 71 -2 10 10 17 7 34 -10 l22 -22
-23 -21 c-32 -30 -25 -63 16 -67 23 -2 35 3 46 18 l14 21 29 -24 c16 -13 48
-36 71 -51 25 -15 45 -36 49 -51 7 -27 9 -28 64 -27 67 2 162 -37 178 -73 12
-27 58 -35 78 -15 7 7 29 6 69 -5 33 -8 74 -15 91 -15 38 0 55 -27 21 -32 -34
-5 -30 -49 5 -59 36 -9 83 24 58 41 -8 5 -11 10 -6 10 6 0 1 7 -10 15 -18 14
-17 14 16 9 55 -9 60 -12 60 -37 0 -39 23 -51 60 -32 17 9 34 23 37 31 7 19
43 8 61 -17 17 -25 50 -24 77 1 21 20 21 20 58 0 40 -22 82 -26 92 -10 7 12
58 13 69 2 4 -4 76 -8 159 -9 84 0 163 -3 177 -5 14 -2 38 2 54 10 22 11 34
11 53 3 34 -16 78 -14 93 4 17 20 32 19 60 -5 30 -26 34 -25 71 9 34 33 50 32
74 -5 22 -35 52 -30 76 11 23 38 46 45 55 18 12 -40 22 -48 50 -45 36 5 35 4
37 43 2 37 10 40 142 59 64 9 80 13 108 25 20 9 50 -12 40 -29 -3 -6 -3 -8 2
-4 4 4 13 3 20 -2 17 -14 53 15 57 47 3 24 14 32 56 35 6 1 12 5 12 10 0 5 4
7 9 4 5 -4 11 0 13 6 3 9 23 12 60 11 53 -3 55 -2 71 32 10 21 29 40 44 46 16
6 40 22 54 35 17 16 29 22 33 15 10 -15 71 -14 83 2 10 12 10 22 -3 65 -5 18
-2 22 15 22 11 0 22 -1 24 -2 8 -6 34 30 40 55 9 35 27 31 52 -12 28 -48 60
-57 87 -26 21 24 21 24 45 5 13 -10 50 -24 81 -30 85 -17 86 -17 67 -36 -26
-26 -15 -58 20 -62 24 -2 37 4 59 29 22 24 30 28 37 18 5 -8 9 -10 9 -4 0 5
13 -5 29 -23 27 -29 33 -31 58 -21 20 8 47 7 99 -2 l72 -13 -2 -45 c-1 -43 1
-46 25 -49 28 -3 63 23 53 39 -9 16 15 37 36 32 11 -3 24 -20 30 -39 10 -28
17 -34 40 -34 18 0 35 9 47 23 23 29 49 27 80 -8 25 -26 59 -27 75 -2 4 7 19
7 46 -1 22 -7 60 -12 86 -12 25 0 46 -4 46 -10 0 -5 -6 -10 -14 -10 -8 0 -22
-10 -30 -21 -18 -26 -2 -59 27 -59 12 0 16 -4 11 -12 -4 -7 5 -2 19 11 28 25
35 59 17 77 -7 7 1 11 27 11 55 2 68 -4 53 -22 -6 -7 -10 -24 -8 -37 2 -19 10
-24 41 -26 l39 -3 -4 38 c-3 37 -2 38 32 38 33 0 35 -2 32 -32 -3 -35 22 -57
61 -51 17 2 23 11 27 38 4 31 8 35 35 35 26 0 29 -4 30 -29 0 -38 25 -54 60
-38 24 11 27 17 21 43 -6 29 -5 30 27 27 27 -3 32 -7 35 -33 4 -32 16 -45 44
-45 23 0 50 29 44 47 -8 19 42 42 53 24 5 -7 7 -21 4 -30 -6 -24 20 -43 54
-39 23 2 29 8 31 35 5 52 62 59 62 7 0 -50 77 -52 87 -2 7 34 16 41 42 33 12
-3 21 -17 23 -33 3 -24 8 -27 44 -30 40 -3 42 -1 46 27 3 18 0 31 -6 31 -6 0
-6 4 1 11 6 6 23 9 39 7 26 -3 29 -6 26 -35 -4 -35 1 -40 43 -44 24 -3 30 0
35 21 4 14 3 33 -2 42 -5 10 -4 19 3 24 20 12 143 14 157 1 11 -9 26 -5 67 18
l53 28 26 -20 c30 -24 59 -20 84 11 19 24 50 23 68 -2 11 -15 64 -20 84 -7 5
3 10 17 10 30 0 18 7 25 30 30 39 9 45 5 41 -27 -4 -42 51 -64 83 -33 18 18
11 43 -18 67 -12 10 -16 18 -11 18 52 2 141 22 154 34 16 15 19 14 36 -4 28
-31 60 -25 84 15 24 41 66 50 68 13 3 -31 27 -51 52 -43 28 9 39 54 17 70 -24
18 -20 22 31 30 26 4 61 16 77 28 l29 21 15 -22 c29 -44 117 -19 93 26 -8 15
-6 23 8 36 25 23 29 21 43 -25 9 -31 20 -45 44 -57 29 -14 32 -19 31 -56 -2
-38 0 -41 26 -44 16 -2 34 1 40 6 8 6 22 3 41 -9 l29 -18 -27 -7 c-35 -8 -58
-41 -46 -64 23 -42 86 -23 92 28 l3 27 38 -39 c25 -25 49 -40 70 -42 76 -9 94
-19 53 -30 -45 -11 -31 -84 16 -84 26 0 45 46 30 71 -12 18 -10 19 15 13 38
-9 51 -21 58 -54 5 -22 11 -28 30 -25 14 1 32 8 40 15 13 11 26 11 73 0 77
-18 87 -24 87 -56 0 -33 23 -49 59 -40 24 6 27 11 22 31 -6 23 -4 25 29 23 28
-2 35 -7 35 -23 0 -33 18 -44 53 -34 17 5 35 15 39 23 10 17 43 13 67 -7 24
-21 59 -27 65 -11 7 19 51 18 80 -1 18 -12 29 -13 51 -5 16 6 44 8 64 4 20 -3
128 -6 241 -5 113 1 222 -3 242 -8 31 -7 42 -5 62 10 30 24 31 24 57 -2 16
-16 27 -19 52 -13 17 3 37 13 45 20 19 19 36 17 57 -6 25 -28 46 -25 79 9 31
33 53 31 67 -5 5 -14 17 -24 27 -24 20 0 52 29 52 47 0 12 23 23 49 23 14 0
17 -6 13 -29 -4 -32 11 -41 56 -33 35 7 39 32 10 57 l-26 22 89 18 c75 14 95
15 121 4 29 -12 32 -11 57 19 14 18 36 34 49 37 19 3 22 -1 22 -25 0 -30 19
-43 48 -33 39 14 43 24 22 58 -23 37 -21 39 53 50 34 5 50 14 67 37 12 16 24
27 27 24 4 -3 13 0 21 7 13 10 14 9 3 -11 -18 -34 -7 -52 33 -52 26 0 36 5 41
20 8 25 -10 50 -36 50 -11 0 -19 4 -19 8 0 14 43 31 85 34 39 3 40 4 43 43 4
41 14 55 45 55 12 0 16 -5 11 -12 -4 -7 3 -4 15 7 14 14 22 34 23 61 1 37 3
40 32 42 17 2 37 9 45 17 13 13 13 19 -1 47 -15 33 -7 78 14 78 5 0 7 -4 4 -9
-9 -14 42 -19 60 -6 25 18 14 49 -19 53 -15 2 -27 7 -27 11 0 18 33 101 40
101 12 0 21 30 14 42 -4 6 -8 90 -8 187 -2 180 -12 246 -60 381 -33 92 -104
222 -170 309 -14 19 -23 38 -20 43 3 5 1 7 -5 6 -13 -4 -100 92 -101 110 0 8
15 37 34 65 53 81 193 331 253 452 84 168 133 273 133 285 0 6 4 9 9 6 5 -3 8
0 7 7 0 6 22 71 50 142 160 403 251 783 283 1180 23 276 -17 762 -79 945 -4
14 -15 52 -25 85 -41 148 -123 339 -216 505 -79 140 -230 306 -386 425 -51 38
-89 73 -85 77 4 4 37 12 74 18 210 33 494 126 697 229 105 53 277 154 308 181
7 5 16 10 21 10 5 0 16 7 23 16 8 9 32 28 54 42 22 14 45 32 52 41 7 9 13 12
13 7 0 -5 10 3 21 18 12 15 23 25 25 23 2 -2 26 17 52 42 26 25 66 62 87 81
22 20 68 66 103 103 35 37 68 67 72 67 5 0 12 5 16 12 5 7 3 8 -7 3 -8 -5 -6
1 5 13 10 12 23 19 29 15 5 -3 7 -2 4 4 -6 10 48 90 86 127 9 10 17 22 17 27
0 6 5 7 10 4 6 -4 9 -3 8 2 -3 11 34 73 44 73 4 0 8 5 8 12 0 6 10 25 23 42
13 17 43 65 67 106 24 41 62 107 85 145 150 256 326 745 418 1170 37 167 70
366 96 570 16 121 30 325 41 582 13 291 -5 801 -40 1173 -22 230 -61 562 -80
680 -49 305 -64 409 -85 580 -12 108 -17 455 -7 587 13 163 35 279 92 483 58
209 118 446 131 515 112 650 15 1101 -305 1420 -45 44 -115 103 -156 130 -41
28 -77 52 -80 55 -3 3 -48 26 -100 51 -242 119 -529 162 -830 124 -135 -17
-174 -25 -296 -66 -210 -69 -386 -186 -535 -355 -26 -29 -50 -50 -55 -46 -4 4
-4 2 -1 -4 3 -6 -16 -44 -44 -85 -240 -361 -285 -977 -120 -1644 73 -297 84
-368 84 -555 0 -157 -15 -337 -42 -515 -5 -33 -19 -123 -30 -200 -43 -296
-128 -749 -200 -1075 -27 -123 -74 -290 -116 -410 -40 -116 -173 -394 -209
-437 -13 -16 -24 -32 -25 -38 -2 -22 -83 -125 -93 -119 -6 4 -8 3 -4 -4 16
-27 -262 -305 -288 -287 -3 3 -4 2 -1 -1 7 -11 -65 -58 -148 -98 -91 -43 -112
-46 -102 -13 17 54 17 243 0 337 -18 102 -19 107 -28 130 -3 8 -15 41 -26 73
-24 65 -75 169 -102 208 -10 14 -16 29 -12 33 3 3 1 6 -5 6 -6 0 -30 23 -52
51 l-40 51 38 37 c20 20 51 55 67 76 17 21 38 47 47 57 10 10 18 20 18 23 0 3
22 36 49 73 27 37 58 86 70 109 21 41 21 41 58 31 20 -5 53 -19 72 -29 20 -10
39 -19 44 -19 4 0 76 -34 159 -76 143 -71 151 -74 169 -58 11 9 19 27 19 40 0
36 -21 48 -317 183 -61 28 -116 51 -122 51 -5 0 6 35 26 78 80 176 152 377
189 531 10 40 23 75 30 78 23 9 201 -51 416 -140 22 -9 30 -8 47 8 40 36 28
53 -71 100 -51 23 -113 50 -138 58 -25 8 -58 21 -75 28 -16 7 -32 13 -35 14
-24 6 -89 28 -106 36 -20 10 -20 11 -3 112 31 174 69 501 69 591 l0 49 42 -7
c61 -10 237 -65 352 -112 64 -25 67 -26 86 -9 27 24 25 51 -3 70 -13 8 -73 33
-133 55 -60 23 -118 45 -129 49 -11 5 -45 14 -75 21 -30 6 -71 16 -90 21 l-35
9 3 302 c4 321 -10 707 -58 1538 -17 302 -52 710 -91 1045 -44 382 -144 925
-210 1131 -10 34 -19 70 -19 81 0 11 -3 22 -6 26 -3 3 -23 56 -44 119 -87 261
-199 501 -286 615 -13 17 -24 36 -24 42 0 6 -4 11 -8 11 -4 0 -33 32 -65 70
-104 128 -250 227 -413 282 -60 20 -89 23 -219 23 -159 0 -204 -7 -340 -56
-162 -57 -234 -90 -344 -157 -19 -12 -39 -18 -45 -15 -6 3 -8 3 -4 -2 8 -8
-82 -75 -101 -75 -5 0 -11 -4 -13 -8 -1 -4 -25 -23 -52 -42 -27 -19 -65 -49
-85 -67 -19 -17 -39 -29 -43 -27 -5 3 -7 1 -6 -4 2 -5 -14 -23 -34 -40 -44
-35 -324 -298 -347 -326 -9 -11 -27 -31 -41 -46 -14 -14 -54 -59 -90 -100 -36
-41 -70 -81 -77 -88 -7 -7 -49 -60 -93 -117 -47 -61 -86 -102 -92 -99 -7 5 -8
2 -3 -5 4 -7 -1 -22 -12 -34 -11 -12 -66 -87 -123 -167 -56 -80 -108 -150
-114 -155 -6 -6 -12 -17 -14 -25 -2 -8 -11 -24 -21 -35 -20 -23 -242 -398
-290 -490 l-31 -60 -398 2 -397 1 -48 84 c-27 46 -59 102 -73 126 -87 155
-304 493 -345 538 -11 11 -19 25 -19 31 0 6 -4 13 -8 15 -5 2 -23 26 -42 53
-18 28 -36 52 -40 55 -3 3 -17 21 -30 40 -26 37 -28 40 -82 106 -18 22 -49 60
-68 84 -62 78 -266 304 -367 407 -88 89 -124 122 -257 235 -66 56 -189 148
-199 148 -4 0 -6 4 -3 8 3 5 0 9 -7 9 -7 0 -57 29 -112 65 -247 159 -493 240
-724 237 -53 -1 -107 -4 -121 -6z m340 -167 c30 -9 64 -20 75 -25 11 -4 38
-14 60 -21 64 -20 261 -119 289 -145 14 -13 26 -22 26 -19 0 3 6 0 13 -6 6 -6
48 -34 91 -62 44 -29 97 -69 119 -89 21 -21 42 -38 45 -39 4 -1 52 -42 108
-91 107 -94 260 -249 359 -364 33 -38 73 -83 88 -100 26 -28 302 -391 375
-494 18 -25 32 -50 32 -57 0 -7 3 -14 8 -16 10 -5 64 -78 57 -78 -4 0 0 -7 9
-15 8 -8 38 -55 67 -103 29 -48 55 -89 59 -92 15 -12 68 -109 63 -114 -4 -3
-1 -6 6 -6 7 0 9 -4 6 -10 -3 -5 -1 -10 5 -10 6 0 19 -17 28 -37 10 -21 28
-53 39 -72 12 -19 20 -38 17 -43 -3 -4 0 -8 7 -8 7 0 10 -3 7 -6 -4 -3 13 -26
37 -52 l44 -47 442 -3 c424 -2 444 -2 482 17 22 11 43 18 47 16 3 -2 6 5 7 15
2 20 92 183 105 188 4 2 8 8 8 13 0 8 46 90 103 184 101 166 250 388 295 439
12 15 22 29 22 31 0 15 45 63 53 58 6 -3 7 -1 3 6 -5 7 25 52 76 114 102 126
113 138 165 193 23 24 39 44 36 44 -8 0 65 78 232 245 172 172 231 226 238
219 3 -3 10 4 16 15 16 29 141 122 154 114 5 -3 7 -1 4 4 -8 13 40 46 54 38 5
-4 8 -1 7 5 -3 13 0 16 133 96 107 64 191 104 301 142 113 40 158 47 308 47
137 -1 184 -14 308 -86 96 -57 305 -279 305 -325 0 -7 4 -11 8 -9 3 3 13 -10
20 -28 7 -17 16 -34 20 -37 12 -9 88 -165 114 -235 15 -38 35 -87 45 -110 9
-22 30 -80 45 -130 15 -49 31 -97 35 -106 9 -17 82 -307 99 -389 6 -30 17 -87
26 -127 95 -449 164 -1111 215 -2058 6 -110 15 -263 19 -340 12 -220 16 -403
16 -775 l0 -345 -225 3 c-288 5 -479 -16 -725 -80 -94 -25 -107 -33 -103 -67
3 -24 7 -26 54 -27 29 -1 83 7 120 16 222 56 529 81 744 61 69 -7 126 -14 128
-15 10 -10 -31 -389 -60 -556 -11 -63 -20 -124 -19 -135 1 -41 -14 -44 -107
-23 -99 22 -167 35 -267 49 -38 6 -97 15 -130 20 -89 13 -376 30 -408 23 -18
-4 -29 -14 -33 -31 -11 -42 12 -53 122 -59 126 -6 282 -21 359 -35 33 -5 98
-17 145 -25 47 -8 99 -17 115 -19 86 -14 147 -31 157 -42 8 -10 6 -32 -6 -81
-29 -120 -69 -241 -78 -236 -4 3 -5 -2 -2 -10 10 -25 -118 -321 -143 -330 -14
-6 -80 14 -148 44 -22 10 -49 20 -60 23 -11 3 -72 24 -135 47 -63 22 -137 47
-165 55 -27 7 -70 21 -95 30 -25 10 -67 23 -93 30 -45 13 -50 12 -68 -6 -42
-42 -19 -64 111 -104 133 -41 353 -117 375 -129 11 -5 28 -11 38 -13 10 -2 42
-14 70 -26 29 -13 67 -29 85 -36 17 -8 32 -18 32 -23 0 -5 -5 -6 -12 -2 -6 4
-8 3 -4 -4 7 -11 -36 -82 -113 -187 -24 -33 -101 -117 -171 -186 -175 -175
-310 -260 -580 -366 -108 -43 -396 -140 -434 -146 -11 -2 -28 -7 -36 -10 -8
-3 -60 -17 -115 -31 -55 -14 -125 -32 -155 -40 -137 -36 -475 -106 -635 -130
-55 -8 -145 -22 -200 -30 -397 -60 -727 -81 -1290 -81 -449 0 -614 6 -890 35
-49 5 -142 14 -205 20 -63 7 -160 19 -215 27 -55 8 -116 17 -135 19 -123 16
-549 95 -615 114 -26 7 -125 33 -220 56 -16 4 -37 9 -45 10 -16 2 -87 20 -135
34 -217 67 -357 113 -475 158 -148 57 -232 97 -223 107 4 4 0 5 -10 2 -11 -4
-20 -1 -23 7 -3 7 -10 13 -17 13 -36 0 -221 146 -340 268 -63 64 -137 150
-137 159 0 3 -11 19 -25 34 -14 15 -52 70 -85 122 l-61 95 31 13 c17 7 36 9
43 6 7 -4 9 -4 5 1 -9 9 73 37 422 146 140 44 260 85 267 91 17 14 16 43 -2
58 -21 17 -55 10 -265 -55 -494 -153 -542 -167 -550 -158 -16 16 -98 220 -129
319 -29 94 -75 285 -83 343 -3 24 1 26 96 43 169 30 453 60 645 66 200 8 211
11 197 65 l-6 27 -153 0 c-189 0 -431 -21 -627 -55 -82 -14 -156 -25 -163 -25
-33 0 -77 716 -45 736 6 4 76 9 155 11 251 6 544 -33 763 -103 89 -28 98 -29
121 -8 31 28 2 70 -61 88 -322 91 -485 115 -788 116 l-202 0 4 38 c3 20 8 109
11 197 6 175 19 384 35 570 6 66 17 210 25 320 34 457 98 1144 129 1380 88
666 219 1268 352 1613 13 34 36 92 50 130 33 85 128 275 164 327 15 22 39 58
53 80 36 55 165 191 178 187 6 -1 8 2 4 7 -7 13 123 100 193 130 30 12 73 26
95 31 60 13 283 4 347 -14z m8859 -2388 c33 -161 40 -450 19 -689 -7 -73 -13
-170 -13 -214 l0 -80 31 -3 c53 -5 57 4 90 243 22 154 23 549 2 677 -8 48 -11
93 -7 100 23 37 418 -86 468 -145 26 -32 62 -213 68 -342 7 -157 -11 -277 -63
-433 -26 -79 -32 -108 -24 -123 6 -10 14 -19 18 -20 43 -5 50 -4 46 3 -3 4 -1
8 4 8 20 0 88 184 113 305 14 65 18 310 7 417 -8 82 -2 81 82 -9 156 -167 249
-392 271 -658 20 -246 -20 -567 -115 -915 -18 -69 -50 -183 -69 -255 -59 -216
-78 -345 -84 -581 -7 -253 7 -466 48 -734 87 -571 121 -865 151 -1285 16 -229
16 -1009 0 -1195 -27 -304 -62 -547 -118 -800 -49 -222 -132 -504 -182 -620
-9 -19 -16 -37 -16 -40 -3 -23 -31 -90 -38 -90 -4 0 -8 -10 -8 -23 0 -13 -4
-27 -9 -33 -5 -5 -14 -26 -21 -46 -6 -21 -15 -38 -19 -38 -4 0 -8 -6 -8 -12 0
-16 -62 -151 -72 -158 -4 -3 -13 -20 -20 -37 -7 -18 -16 -31 -20 -29 -4 3 -7
-3 -8 -13 -2 -21 -114 -207 -144 -239 -10 -12 -19 -25 -19 -29 0 -9 -76 -114
-89 -123 -4 -3 -18 -21 -31 -40 -13 -19 -40 -53 -61 -75 -20 -22 -60 -64 -88
-94 -28 -30 -51 -58 -51 -63 0 -4 -4 -7 -10 -6 -5 2 -20 -10 -32 -25 -13 -15
-36 -30 -52 -33 -41 -7 -46 -12 -46 -39 0 -25 -22 -39 -38 -23 -5 5 -20 8 -33
6 -21 -3 -24 -8 -24 -46 0 -37 -4 -44 -35 -63 -19 -12 -53 -36 -75 -53 -21
-17 -35 -24 -30 -16 17 27 13 38 -14 50 -49 20 -111 -10 -97 -46 3 -9 15 -18
26 -21 11 -3 20 -10 20 -15 0 -5 6 -6 13 -3 6 4 3 0 -7 -9 -13 -11 -34 -14
-68 -11 -51 4 -51 4 -62 -45 -4 -17 -22 -35 -60 -57 l-54 -31 -21 24 c-11 13
-26 24 -32 24 -5 0 -7 6 -3 13 4 7 3 9 -2 4 -5 -5 -9 -12 -9 -16 0 -4 -8 -15
-17 -25 -10 -10 -18 -28 -18 -40 0 -28 -10 -36 -77 -63 -45 -18 -54 -19 -70
-7 -10 7 -30 14 -45 14 -22 0 -31 -7 -42 -35 -8 -19 -19 -35 -25 -35 -5 0 -17
-3 -26 -6 -14 -6 -14 -3 -4 20 16 34 -2 56 -47 56 -39 0 -51 -24 -33 -64 10
-20 17 -25 38 -21 22 5 23 4 6 -4 -11 -5 -32 -10 -46 -10 -15 -1 -44 -7 -66
-15 -31 -11 -49 -12 -81 -3 -34 9 -44 8 -59 -5 -32 -27 -53 -29 -80 -8 -35 27
-47 25 -82 -12 -25 -27 -32 -30 -45 -19 -9 8 -16 18 -16 24 0 14 -32 36 -53
37 -15 0 -18 7 -16 38 3 44 -9 68 -36 74 -15 2 -21 14 -26 48 -3 24 -11 46
-17 48 -23 7 -52 37 -55 57 -2 11 -15 46 -30 78 -14 32 -29 72 -32 90 -5 27
-3 34 17 42 13 6 24 20 26 33 3 17 -4 25 -30 36 -29 13 -34 20 -43 74 -6 34
-9 61 -6 60 60 -6 103 32 81 71 -13 25 -56 28 -79 7 -14 -13 -16 -11 -18 19
-2 19 3 38 12 45 22 19 19 61 -5 67 -11 3 -20 8 -21 12 0 3 -2 14 -4 24 -2 10
-5 37 -7 60 -2 36 0 42 15 39 14 -2 37 30 37 53 0 14 -35 35 -50 30 -17 -5
-18 -1 -14 43 3 31 -1 59 -10 77 -19 36 -10 52 15 29 17 -15 23 -15 44 -4 25
14 34 53 15 65 -6 3 -28 7 -50 7 -49 0 -55 9 -29 39 26 30 21 60 -12 76 -23
11 -27 21 -33 78 -4 36 -9 72 -12 80 -4 8 -1 15 6 15 6 0 9 -4 6 -8 -3 -5 6
-15 19 -22 22 -12 27 -11 45 5 40 36 18 80 -31 63 -16 -5 -29 -14 -29 -19 0
-22 -18 -6 -23 21 -9 41 1 60 29 60 18 0 24 5 24 23 0 35 -14 49 -46 45 -24
-2 -29 1 -30 20 -1 12 3 25 7 28 16 10 9 58 -12 80 -14 15 -37 87 -74 235 -57
229 -110 400 -181 595 -24 67 -44 125 -44 131 0 5 -11 33 -25 61 -14 29 -25
54 -25 58 0 3 -25 59 -56 126 -31 66 -52 124 -47 128 4 3 31 15 58 25 83 30
202 93 277 146 82 59 77 55 142 111 27 24 53 42 58 41 4 -2 7 1 5 6 -1 4 18
31 43 59 25 27 56 65 70 83 14 18 31 38 38 45 6 7 12 16 13 21 0 4 20 35 44
68 44 60 161 285 209 401 30 73 117 336 139 419 27 99 54 222 86 385 31 152
38 191 61 320 6 36 15 85 20 110 9 47 13 72 55 330 80 503 105 777 86 946 -17
155 -38 265 -75 404 -23 86 -64 298 -83 422 -21 144 -24 523 -4 653 36 247
108 427 238 597 74 97 235 228 329 268 l42 18 -3 -21 c-1 -12 -10 -60 -19
-107 -23 -115 -31 -334 -17 -445 14 -109 51 -266 75 -317 14 -29 24 -38 44
-38 14 0 33 7 43 16 16 14 15 20 -7 102 -70 253 -71 555 -3 787 25 83 35 98
66 92 12 -2 20 -1 18 3 -3 4 35 15 83 24 48 8 96 17 107 20 11 2 66 4 122 5
l102 1 10 -52z m-10028 -6007 c13 -10 64 -40 112 -66 48 -26 93 -52 100 -59 7
-6 17 -12 22 -13 25 -4 165 -80 159 -86 -3 -3 2 -6 12 -5 11 0 82 -25 159 -57
219 -89 544 -195 830 -270 77 -20 147 -39 155 -42 8 -3 22 -7 30 -8 47 -8 150
-28 255 -50 147 -31 331 -64 394 -71 25 -2 57 -7 71 -9 61 -11 376 -45 420
-45 55 0 66 -13 39 -48 -10 -13 -21 -47 -24 -76 -8 -62 8 -106 55 -151 17 -16
30 -38 30 -50 0 -66 90 -303 139 -365 11 -14 38 -49 60 -77 96 -123 314 -261
461 -293 155 -33 378 -21 494 25 33 13 63 22 68 19 4 -3 8 -1 8 3 0 5 17 17
38 28 167 88 305 231 387 404 36 75 75 198 75 236 0 12 18 41 40 65 53 59 65
96 50 162 -6 29 -17 63 -25 75 -8 12 -11 24 -7 27 5 3 83 12 173 21 516 51
1025 151 1494 294 220 67 239 73 272 87 17 8 33 14 36 14 8 0 272 104 342 135
78 34 280 136 325 164 19 11 49 28 67 36 17 8 34 19 38 25 14 22 52 10 65 -20
7 -16 11 -32 10 -36 -1 -4 4 -10 10 -14 16 -10 111 -220 104 -231 -3 -5 0 -9
7 -9 7 0 9 -3 6 -7 -4 -3 -3 -11 2 -17 14 -18 96 -242 131 -356 60 -196 148
-554 183 -745 46 -244 69 -409 112 -785 37 -330 52 -424 91 -570 41 -153 113
-308 196 -424 37 -51 26 -64 -56 -65 -78 -1 -247 -34 -343 -67 -100 -35 -243
-102 -270 -127 -24 -22 -30 -51 -12 -62 16 -10 59 -13 59 -5 0 8 1 9 152 64
154 56 394 87 518 67 36 -6 78 -13 95 -16 45 -7 124 -37 143 -55 10 -8 24 -16
31 -18 59 -12 263 -193 351 -312 189 -253 317 -591 376 -990 21 -141 24 -563
5 -715 -41 -331 -141 -704 -281 -1045 -128 -312 -445 -908 -478 -895 -7 2 -10
0 -7 -5 3 -6 2 -10 -4 -10 -11 0 -41 -51 -41 -69 0 -5 11 -23 25 -39 13 -16
21 -33 17 -37 -4 -5 -2 -5 4 -2 15 9 127 -111 118 -125 -4 -6 -2 -8 4 -5 5 4
24 -12 41 -35 17 -24 34 -48 39 -54 20 -23 33 -55 26 -66 -4 -6 -3 -8 3 -5 12
8 46 -61 37 -75 -4 -6 -2 -8 3 -5 21 13 77 -167 94 -300 13 -107 2 -228 -31
-335 -26 -85 -104 -217 -165 -279 -52 -53 -134 -116 -147 -111 -5 1 -8 -2 -8
-8 0 -12 -176 -96 -215 -102 -23 -4 -23 -4 10 87 70 187 69 493 -1 703 -21 62
-92 198 -122 233 -28 34 -66 38 -82 9 -9 -17 -4 -35 24 -98 104 -230 133 -471
86 -703 -28 -136 -98 -293 -134 -297 -6 -1 -58 -10 -116 -21 -58 -11 -148 -24
-201 -30 -134 -15 -389 -24 -389 -14 0 5 6 17 13 28 8 11 17 31 21 45 34 125
59 230 71 307 29 180 12 477 -36 638 -12 39 -23 80 -26 93 -3 13 -12 26 -19
29 -8 3 -12 8 -9 12 2 4 -9 5 -26 3 -34 -5 -54 -34 -45 -66 16 -55 37 -199 46
-312 15 -176 -5 -406 -47 -554 -23 -80 -64 -180 -74 -180 -5 0 -9 -9 -9 -19 0
-10 -7 -22 -16 -25 -64 -25 -705 28 -730 60 -38 48 -55 446 -25 599 26 137 79
313 102 341 6 8 9 14 5 14 -3 0 7 27 24 60 34 67 38 95 14 104 -35 13 -55 5
-85 -36 -42 -59 -130 -236 -144 -293 -2 -5 -10 -37 -18 -70 -51 -196 -65 -447
-34 -605 11 -54 12 -77 4 -82 -6 -4 -14 -5 -17 -4 -3 2 -45 16 -93 31 -82 25
-252 104 -293 136 -81 64 -212 213 -218 251 -1 7 -7 22 -13 33 -85 153 -94
473 -22 740 6 22 13 50 16 62 3 13 10 20 16 16 6 -3 7 -1 3 6 -9 14 33 141 46
141 5 0 6 5 3 10 -3 5 -1 10 5 10 7 0 10 6 7 13 -8 22 145 299 177 319 6 4 7
8 2 8 -5 0 -2 8 6 18 8 9 31 49 51 89 33 67 35 79 41 200 20 410 43 737 67
918 56 425 142 773 288 1170 62 166 172 393 272 558 44 72 78 137 77 145 -2 8
-11 20 -20 26 -25 15 -45 1 -91 -65 -21 -30 -44 -62 -52 -72 -8 -9 -15 -20
-15 -23 0 -10 -102 -186 -127 -220 -13 -17 -23 -41 -23 -52 0 -12 -9 -31 -20
-42 -11 -11 -20 -27 -20 -36 0 -27 -33 -74 -53 -74 -14 0 -16 -4 -7 -19 18
-35 12 -51 -18 -51 -15 0 -33 -5 -39 -11 -14 -14 -6 -39 13 -39 9 0 14 -11 14
-27 0 -22 -2 -25 -10 -13 -8 12 -10 12 -10 1 0 -11 -3 -11 -15 -1 -13 10 -19
10 -35 -5 -11 -10 -20 -27 -20 -38 0 -15 5 -18 25 -15 14 3 26 0 26 -6 2 -21
-3 -41 -14 -54 -6 -8 -12 -23 -14 -34 -5 -34 -22 -56 -45 -60 -28 -4 -36 -41
-14 -64 18 -17 21 -50 7 -59 -6 -3 -15 4 -21 15 -16 30 -58 27 -66 -5 -8 -31
10 -55 41 -55 21 0 23 -4 20 -34 -4 -48 -22 -76 -49 -76 -32 0 -50 -24 -42
-55 4 -14 10 -24 14 -21 4 3 14 1 21 -4 10 -6 12 -20 7 -54 -6 -36 -11 -46
-26 -46 -14 0 -20 9 -22 36 -4 48 -29 65 -57 40 -28 -25 -27 -54 2 -67 18 -8
22 -17 19 -39 -3 -22 1 -31 19 -41 13 -7 26 -13 29 -13 3 -1 4 -19 2 -41 -3
-42 -27 -89 -41 -80 -5 3 -14 -9 -20 -27 -10 -27 -8 -35 10 -54 14 -15 19 -29
14 -43 l-6 -21 -18 21 c-13 17 -24 20 -43 16 -30 -8 -40 -29 -32 -63 8 -31 40
-32 71 -2 22 20 23 21 23 2 0 -10 -5 -36 -11 -57 -6 -21 -11 -50 -12 -65 -2
-21 -8 -28 -27 -30 -36 -5 -52 -29 -37 -56 6 -11 10 -25 9 -29 -1 -5 2 -6 7
-3 32 20 39 -96 8 -133 -23 -27 -26 -48 -11 -70 20 -28 10 -42 -25 -35 -24 5
-30 2 -41 -26 -17 -40 -3 -53 63 -59 7 -1 3 -52 -9 -108 -2 -12 -16 -25 -35
-32 -39 -13 -37 -50 4 -69 24 -12 27 -18 27 -67 0 -45 -4 -57 -25 -73 -31 -25
-31 -32 0 -78 27 -40 26 -69 -7 -116 -12 -17 -16 -36 -13 -51 5 -17 -1 -33
-17 -53 -14 -16 -35 -49 -47 -74 -13 -24 -34 -57 -47 -73 -13 -16 -24 -35 -24
-43 0 -9 -5 -12 -12 -8 -6 4 -8 3 -4 -4 7 -12 -83 -172 -120 -212 -14 -15 -24
-41 -26 -65 -3 -34 -7 -41 -28 -43 -14 -2 -31 -9 -38 -14 -15 -13 -6 -49 14
-61 8 -4 14 -15 14 -23 0 -11 -9 -13 -38 -8 -49 8 -71 -13 -53 -52 9 -21 17
-25 39 -22 l28 4 -10 -54 c-10 -50 -14 -55 -46 -66 -45 -14 -54 -51 -17 -65
32 -12 36 -20 30 -53 -5 -24 -8 -26 -39 -21 -30 5 -34 3 -34 -16 0 -26 25 -38
45 -21 13 11 15 3 15 -64 0 -73 -1 -76 -24 -76 -30 0 -49 -22 -44 -52 3 -20 9
-23 43 -23 37 0 40 -2 37 -25 -2 -14 -8 -29 -13 -34 -15 -17 -10 -43 11 -57
20 -14 55 -115 42 -123 -4 -2 -19 -6 -33 -9 -22 -6 -25 -11 -21 -32 2 -14 8
-28 13 -31 18 -11 8 -23 -23 -29 -18 -4 -49 -16 -69 -26 l-36 -18 -20 26 c-24
33 -51 26 -59 -17 -4 -17 -11 -33 -16 -36 -10 -7 -192 -54 -328 -86 -212 -49
-490 -92 -775 -120 -196 -19 -751 -16 -950 6 -181 19 -423 51 -505 66 -152 27
-487 104 -497 113 -2 3 -6 17 -9 33 -6 35 -9 38 -29 31 -8 -4 -15 -16 -15 -27
0 -35 -38 -25 -57 15 -19 40 -37 44 -68 15 -21 -20 -21 -20 -55 4 -19 13 -52
29 -72 35 -45 15 -52 36 -9 26 16 -3 31 -2 34 2 6 10 -7 35 -17 34 -21 -3 -26
1 -26 22 0 36 14 51 30 32 15 -18 59 -20 62 -2 8 60 0 77 -39 77 -20 0 -21 3
-16 58 6 64 18 85 43 77 24 -8 44 19 36 50 -5 18 -13 25 -32 25 -25 0 -25 1
-22 74 2 66 4 73 19 66 23 -13 51 11 51 44 1 32 0 33 -33 41 -18 4 -31 1 -43
-11 -17 -16 -17 -16 -14 12 2 16 8 28 13 27 6 -1 11 11 12 27 1 20 -5 33 -22
44 -23 15 -45 69 -45 112 0 16 8 23 29 27 34 7 49 40 30 63 -12 14 -35 15 -78
3 -24 -7 -24 52 -1 74 11 10 20 21 21 25 0 4 2 16 4 27 6 30 -16 36 -51 15
l-31 -20 -11 25 c-10 22 -8 26 16 37 15 7 28 20 30 29 4 22 -27 52 -47 46 -9
-3 -23 -7 -31 -9 -8 -3 -11 -3 -6 0 4 2 2 8 -5 13 -11 6 -10 11 4 27 35 39 11
72 -53 72 -27 0 -31 3 -25 18 4 9 9 32 12 49 5 32 4 33 -28 33 -51 0 -60 10
-49 50 9 31 7 37 -12 51 -12 9 -27 15 -34 12 -18 -7 -32 27 -27 64 4 26 1 34
-13 39 -45 14 -49 20 -51 83 l-2 61 29 0 c32 0 39 7 44 47 4 26 2 28 -33 28
-36 0 -36 0 -42 50 -3 28 -11 63 -17 78 -21 49 -14 82 23 123 19 22 35 45 35
52 0 16 15 32 53 56 19 13 27 27 27 47 0 16 -5 29 -11 29 -5 0 -8 4 -4 10 3 5
-7 5 -25 -1 -35 -13 -60 -44 -60 -76 0 -21 -51 -68 -63 -57 -3 3 2 29 10 57 9
29 16 58 16 66 0 8 8 16 18 18 19 5 62 81 53 95 -9 15 -61 8 -77 -10 -10 -10
-18 -30 -19 -45 -2 -22 -6 -33 -6 -17 -1 3 -6 18 -12 35 -15 40 -5 71 25 79
32 8 60 50 50 73 -5 10 -7 21 -7 25 1 5 -3 7 -10 5 -6 -1 -17 8 -23 20 -7 13
-20 31 -29 42 -17 18 -17 19 1 23 15 3 15 5 -5 10 -12 3 -20 2 -17 -2 3 -5 1
-11 -4 -15 -16 -9 -31 30 -31 77 0 36 6 50 30 73 28 27 29 29 11 42 -11 7 -31
14 -45 15 -24 2 -26 6 -26 53 0 42 -4 55 -25 73 -19 17 -25 32 -25 62 0 37 3
42 30 51 32 12 36 20 20 50 -12 21 -40 25 -57 8 -22 -22 -31 0 -17 41 14 40
14 42 -15 70 -22 22 -29 39 -29 70 -1 26 4 40 12 40 7 0 21 9 32 21 19 21 18
21 -5 40 -31 25 -46 24 -74 -7 l-24 -26 -7 28 c-6 22 -2 32 17 48 13 12 27 30
31 40 6 18 10 17 40 -15 19 -19 45 -42 59 -51 14 -10 27 -28 29 -40 3 -20 10
-24 63 -29 46 -4 55 -8 37 -14 -27 -9 -39 -49 -22 -70 7 -8 25 -15 41 -15 22
0 30 6 35 24 3 14 3 29 0 35 -16 25 56 -13 75 -40 20 -29 52 -38 64 -19 4 6
14 9 23 6 84 -22 112 -32 112 -39 0 -4 5 -5 11 -1 8 4 8 1 1 -12 -12 -24 -6
-41 18 -54 22 -12 70 6 70 26 0 22 24 22 48 0 20 -18 37 -21 105 -22 107 0
127 -7 127 -44 0 -35 24 -61 48 -53 31 11 43 26 38 48 -9 35 30 29 60 -11 31
-40 57 -43 80 -9 15 23 54 35 54 18 1 -5 10 -19 20 -32 l20 -24 39 27 c33 23
41 25 67 15 17 -7 105 -12 217 -14 103 -1 190 -5 194 -8 3 -4 1 -12 -5 -19 -6
-7 -12 -27 -14 -43 -3 -29 -2 -30 42 -30 41 0 45 2 48 27 2 18 -4 31 -18 41
-12 8 -17 17 -13 20 5 3 117 6 248 6 131 0 305 5 388 12 115 8 156 8 179 -2
26 -11 32 -9 58 16 31 30 34 29 78 -12 21 -20 44 -15 77 17 36 34 62 32 71 -6
7 -29 33 -38 68 -24 23 8 27 15 24 43 l-3 32 69 14 c62 11 73 11 103 -3 30
-14 37 -14 61 -1 15 8 23 14 18 15 -11 0 14 30 26 30 5 0 20 -12 33 -26 33
-36 67 -29 81 16 10 30 18 36 60 47 27 7 72 14 99 14 36 0 56 7 72 21 12 12
27 17 34 13 8 -5 10 -4 5 3 -15 24 12 11 28 -13 20 -31 56 -33 82 -4 15 17 16
23 6 40 -15 23 -8 39 17 39 10 0 33 10 52 23 55 37 71 41 68 14 -4 -31 8 -47
35 -47 48 0 62 56 18 75 -28 12 -28 21 -1 36 17 8 27 8 46 -2 18 -9 29 -10 41
-3 19 12 29 54 13 54 -6 0 -11 7 -11 15 0 14 14 20 64 27 12 2 23 15 28 33 4
17 15 39 25 50 10 11 29 37 43 57 13 20 29 34 34 31 5 -3 6 -1 3 4 -4 6 9 44
28 85 62 134 79 215 79 371 0 75 3 137 7 137 4 0 21 28 38 62 28 55 31 71 31
150 0 60 4 93 13 101 29 27 79 59 72 46 -4 -8 5 0 19 16 37 42 68 114 67 155
0 83 -55 178 -162 281 -38 37 -66 62 -62 55 4 -7 1 -6 -9 1 -11 10 -16 43 -21
140 -3 71 -13 154 -22 186 -8 32 -15 65 -15 74 0 25 -67 189 -116 283 -213
412 -713 754 -1314 899 -275 66 -450 85 -770 85 -257 0 -332 -5 -560 -41 -269
-41 -562 -125 -765 -219 -33 -15 -63 -27 -67 -26 -5 1 -8 -2 -8 -7 0 -9 -56
-36 -63 -30 -2 2 -12 -4 -22 -14 -10 -10 -26 -16 -36 -14 -13 3 -16 0 -12 -12
3 -9 -13 16 -36 56 -55 99 -105 177 -138 214 -16 17 -27 35 -25 40 1 5 -2 8
-6 7 -5 -2 -41 27 -80 64 -40 36 -92 80 -117 96 -24 16 -42 31 -40 34 3 3 -1
5 -8 5 -6 0 -37 16 -67 35 -46 29 -243 128 -256 128 -2 0 -23 9 -47 19 -91 42
-431 144 -539 162 -26 4 -73 15 -105 23 -103 28 -234 56 -258 56 -36 0 -46 46
-52 240 -3 143 -1 196 15 290 21 124 17 150 -22 150 -27 0 -39 -22 -59 -110
-31 -131 -41 -228 -41 -376 0 -171 11 -154 -91 -134 -27 5 -75 13 -106 16 -52
6 -57 5 -77 -21 -26 -33 -27 -48 -6 -80 15 -24 81 -51 144 -61 14 -2 68 -13
120 -25 52 -11 142 -31 200 -44 58 -13 141 -33 185 -45 44 -11 108 -27 142
-35 137 -31 303 -78 303 -87 0 -5 4 -7 9 -3 9 5 225 -69 246 -85 6 -4 27 -13
48 -19 20 -7 37 -17 37 -22 0 -6 4 -8 9 -5 4 3 34 -10 66 -29 31 -19 59 -35
61 -35 2 0 32 -19 67 -42 84 -57 271 -243 261 -260 -4 -7 -4 -10 1 -6 9 9 40
-34 84 -114 40 -73 88 -218 102 -308 13 -84 7 -316 -9 -332 -6 -6 -33 9 -78
46 -139 111 -357 216 -568 270 -53 14 -62 14 -83 1 -24 -16 -29 -40 -14 -64 5
-7 62 -31 127 -53 115 -38 160 -58 289 -128 83 -45 166 -106 157 -115 -4 -5
-2 -5 4 -2 5 3 26 -8 45 -24 19 -16 46 -40 61 -52 15 -12 28 -31 28 -42 0 -37
-73 -235 -125 -338 l-51 -102 -75 2 c-41 1 -99 8 -129 17 -107 29 -185 54
-224 70 -21 9 -45 16 -52 16 -8 0 -36 9 -62 21 -26 12 -56 25 -67 29 -11 4
-55 22 -98 39 -73 30 -81 31 -102 17 -42 -28 -21 -64 62 -105 86 -43 216 -104
228 -106 6 -2 35 -13 65 -25 53 -21 212 -71 295 -92 72 -18 72 -18 50 -34 -11
-8 -20 -19 -20 -24 0 -15 -166 -191 -175 -185 -4 3 -10 -1 -13 -9 -7 -18 -187
-137 -247 -164 -190 -85 -317 -107 -565 -99 -198 6 -403 44 -635 117 -153 48
-339 117 -357 132 -7 6 -13 8 -13 5 0 -13 -265 114 -405 193 -97 56 -208 129
-213 142 -2 4 -10 8 -18 8 -7 0 -19 9 -26 20 -7 11 -17 20 -23 20 -18 0 -135
111 -129 122 5 7 2 8 -5 4 -22 -14 -214 211 -285 334 -68 115 -145 303 -160
385 -3 17 -11 46 -17 65 -17 54 -24 399 -9 500 18 130 55 279 96 387 41 110
142 316 185 380 16 23 29 44 29 46 0 14 74 112 82 109 5 -1 6 2 3 9 -7 10 47
86 72 102 7 4 13 13 13 19 0 36 301 367 508 558 44 41 89 78 99 81 10 4 14 8
10 8 -13 1 132 121 145 121 5 0 24 15 43 34 66 66 421 293 439 281 3 -3 4 -2
1 2 -5 6 108 71 126 73 4 0 17 -8 30 -19z m3914 -255 c72 -25 175 -79 208
-109 7 -7 35 -32 62 -57 94 -84 161 -186 203 -308 29 -82 28 -89 -12 -106 -41
-17 -234 -61 -341 -78 -120 -18 -524 -15 -660 5 -197 30 -393 80 -401 102 -7
17 40 138 83 214 43 76 205 246 228 237 8 -3 14 0 12 7 -1 7 4 11 11 10 6 -2
12 1 12 6 0 16 151 82 219 97 106 22 278 13 376 -20z m-520 -850 c51 -5 64
-11 88 -38 22 -26 27 -42 27 -85 0 -51 26 -127 41 -118 3 3 12 -2 19 -10 21
-26 109 -39 174 -25 83 17 114 48 126 126 15 90 36 137 61 131 10 -3 19 -2 19
3 0 15 160 31 299 29 97 -1 139 -4 134 -12 -4 -6 0 -8 10 -4 14 5 13 -2 -4
-63 -21 -78 -39 -122 -54 -132 -5 -4 -7 -8 -2 -8 11 0 -44 -80 -55 -80 -5 0
-7 -4 -4 -9 7 -10 -18 -33 -27 -26 -4 3 -5 2 -2 -2 3 -3 -3 -12 -13 -20 -10
-9 -11 -12 -2 -7 8 4 -12 -20 -44 -54 -33 -33 -63 -59 -67 -57 -4 3 -9 -2 -12
-9 -10 -24 -187 -105 -267 -122 -55 -12 -105 -15 -190 -10 -100 4 -199 24
-186 37 2 2 -5 5 -17 5 -38 3 -145 61 -212 115 -128 103 -233 274 -259 422
l-7 37 183 -4 c101 -2 210 -6 243 -10z m332 -1061 c153 -17 351 -54 458 -85
39 -12 92 -27 119 -35 27 -8 54 -19 59 -24 6 -6 19 -11 29 -11 49 0 406 -178
390 -195 -4 -5 -2 -5 4 -2 23 13 236 -155 341 -269 110 -120 213 -279 261
-404 75 -192 97 -434 45 -492 -66 -75 -285 -175 -533 -242 -179 -49 -519 -118
-645 -131 -33 -4 -109 -13 -170 -21 -522 -70 -1353 -77 -1855 -14 -41 5 -122
14 -180 20 -58 6 -125 16 -150 20 -25 5 -63 12 -84 15 -21 3 -48 7 -60 10 -12
2 -71 14 -132 26 -60 12 -118 27 -128 35 -17 12 -16 16 24 66 23 29 47 52 52
50 5 -1 7 2 3 7 -3 6 3 19 15 31 11 11 20 23 20 26 0 3 13 25 29 48 44 63 113
199 153 298 19 48 39 84 43 80 5 -4 5 -2 2 4 -3 6 7 58 23 115 70 256 78 410
34 699 l-6 35 99 52 c282 148 636 249 998 284 66 6 122 13 124 15 12 11 494 2
618 -11z m-4962 -1657 c377 -244 864 -441 1304 -527 23 -4 35 -13 37 -25 1
-10 7 -23 12 -28 12 -12 62 1 69 18 8 21 37 17 61 -9 12 -13 20 -26 17 -28 -2
-3 11 -3 30 -1 19 2 40 10 46 18 15 19 63 18 79 -1 7 -8 25 -15 40 -15 15 0
33 7 40 15 17 20 47 19 76 -4 23 -18 74 -18 74 -1 0 14 30 40 46 40 8 0 14 -7
14 -15 0 -19 35 -37 63 -33 17 2 23 11 27 38 4 31 9 35 37 38 31 3 32 2 24
-20 -10 -29 -5 -46 24 -78 13 -14 26 -40 30 -58 4 -18 29 -60 56 -92 57 -69
61 -85 20 -77 -35 7 -64 -20 -59 -55 2 -17 9 -23 28 -23 23 0 25 -5 31 -60 8
-68 6 -75 -21 -75 -39 0 -54 -81 -17 -88 10 -2 27 4 37 13 36 32 57 -19 24
-56 -26 -29 -11 -69 25 -69 38 0 59 -25 43 -51 -19 -30 -14 -44 20 -54 37 -12
44 -37 16 -62 -19 -17 -21 -17 -42 10 -27 34 -62 36 -68 3 -6 -28 7 -45 48
-67 29 -15 33 -15 82 7 49 21 57 22 53 1 -1 -5 3 -6 8 -3 5 3 14 0 20 -8 9
-10 8 -16 -4 -26 -18 -15 -65 -16 -74 -2 -4 6 -12 7 -20 3 -16 -10 -7 -64 15
-82 25 -20 15 -37 -25 -44 -56 -9 -84 -51 -54 -80 23 -23 56 -14 73 20 28 55
30 57 46 41 26 -27 17 -71 -21 -100 -38 -29 -43 -47 -20 -66 12 -10 20 -9 40
4 39 26 47 21 44 -31 -3 -36 -8 -50 -24 -58 -35 -18 -24 -39 20 -39 39 -1 40
-2 39 -36 -1 -34 -25 -79 -76 -142 -15 -20 -22 -42 -22 -75 -1 -46 0 -48 27
-46 21 1 27 -3 28 -20 1 -12 2 -29 3 -37 1 -8 -5 -23 -13 -32 -15 -20 -20 -17
61 -39 30 -8 43 -16 35 -21 -9 -6 -9 -8 1 -8 7 0 10 -4 7 -10 -3 -5 -20 -10
-37 -10 -53 0 -87 -47 -56 -78 25 -25 57 -14 78 28 25 49 47 52 55 6 10 -52 3
-71 -28 -74 -35 -4 -51 -33 -32 -58 12 -16 17 -17 44 -7 38 14 43 6 35 -47 -5
-30 -3 -45 9 -58 19 -21 19 -143 0 -150 -18 -5 -16 -39 2 -46 10 -4 14 -18 13
-45 -1 -46 -12 -46 -21 -1 -9 40 -37 41 -37 1 0 -43 17 -82 51 -115 35 -34 39
-84 9 -111 -24 -22 -26 -52 -4 -76 9 -10 24 -58 34 -107 20 -101 36 -134 129
-282 145 -227 231 -436 277 -665 25 -128 25 -374 0 -470 -31 -118 -111 -275
-131 -257 -5 4 -5 2 -1 -5 8 -14 -81 -109 -129 -139 -16 -11 -38 -26 -48 -34
-10 -8 -21 -15 -25 -15 -4 -1 -25 -12 -47 -26 -53 -33 -95 -50 -105 -44 -5 3
-10 1 -12 -4 -2 -7 -163 -61 -181 -61 -3 0 2 26 11 58 22 81 22 376 -1 492 -9
47 -19 101 -23 120 -19 105 -95 290 -156 378 -34 49 -47 57 -83 48 -34 -9 -33
-41 4 -114 63 -125 99 -245 131 -437 18 -108 21 -154 17 -270 -6 -154 -18
-238 -39 -281 -12 -26 -20 -30 -113 -45 -117 -19 -186 -26 -428 -39 -164 -9
-179 -9 -195 7 -19 19 -77 144 -87 185 -2 13 -9 43 -15 68 -5 25 -15 63 -21
85 -6 22 -13 137 -16 255 -5 207 5 323 41 499 14 67 -55 84 -86 20 -25 -50
-65 -240 -78 -366 -21 -202 10 -494 70 -658 40 -110 58 -99 -141 -92 -96 4
-226 14 -289 22 -254 34 -287 43 -275 73 3 9 3 13 -1 9 -9 -9 -58 93 -78 164
-27 91 -46 219 -46 304 1 168 58 416 121 521 32 53 20 94 -28 94 -47 0 -140
-184 -184 -363 -26 -103 -30 -138 -30 -260 -1 -151 14 -245 56 -369 27 -82 18
-87 -80 -47 -168 68 -289 160 -371 284 -59 89 -92 164 -100 228 -3 21 -9 49
-14 63 -15 38 -12 254 4 331 27 126 91 281 114 276 6 -2 9 4 6 12 -6 14 36 99
44 90 2 -2 14 14 26 35 11 22 57 78 101 126 44 47 83 91 87 97 15 24 7 50 -23
78 -24 22 -229 348 -229 364 0 2 -16 31 -36 65 -19 33 -32 65 -28 72 4 6 3 8
-3 5 -5 -3 -21 17 -34 46 -13 29 -30 63 -39 77 -34 52 -215 478 -224 525 -1 6
-4 15 -8 20 -5 10 -66 195 -74 225 -5 20 -19 73 -38 140 -28 97 -65 291 -80
420 -63 531 12 1023 221 1445 63 129 194 322 214 317 8 -2 11 0 7 4 -12 11 13
36 26 26 6 -5 56 -38 111 -74z m6839 -11 c-1 -9 1 -15 5 -14 11 4 59 -47 80
-86 30 -55 27 -93 -10 -128 -46 -42 -95 -52 -218 -42 -197 15 -217 7 -315
-116 -93 -116 -158 -132 -325 -81 -83 26 -180 26 -229 1 -20 -11 -66 -49 -102
-86 -123 -126 -178 -135 -362 -62 -102 41 -164 45 -232 14 -31 -14 -71 -37
-89 -51 -19 -14 -37 -24 -40 -21 -4 3 -5 2 -2 -1 7 -10 -53 -60 -107 -89 -97
-53 -173 -43 -308 38 -142 86 -176 99 -245 95 -62 -5 -100 -19 -170 -62 -169
-106 -254 -106 -391 -2 -24 18 -40 37 -36 41 4 5 1 5 -6 1 -8 -5 -21 -1 -33
10 -11 10 -28 20 -37 22 -56 12 -123 12 -162 1 -25 -7 -48 -12 -52 -11 -5 1
-8 -2 -8 -7 0 -4 -28 -21 -62 -37 -79 -36 -174 -42 -233 -14 -42 19 -132 97
-128 110 1 5 -4 11 -13 14 -9 4 -12 2 -8 -5 3 -6 -12 2 -35 17 -57 37 -121 42
-209 15 -39 -11 -77 -21 -86 -21 -9 0 -16 -4 -16 -10 0 -5 -3 -9 -7 -8 -5 1
-24 -5 -43 -13 -100 -44 -172 -45 -226 -4 -49 38 -68 71 -68 124 -1 43 1 47
39 66 21 11 46 26 53 33 8 7 28 20 45 29 18 9 35 21 39 27 4 6 8 7 8 2 0 -5 8
0 18 11 9 11 29 27 43 36 24 16 32 15 160 -18 236 -61 401 -88 739 -124 335
-36 500 -44 900 -44 587 0 977 35 1480 134 234 47 546 139 687 204 39 18 74
30 77 27 3 -3 6 -1 6 4 0 6 19 21 43 34 23 13 56 34 73 47 17 12 35 20 40 15
5 -4 6 -3 2 2 -4 5 -3 15 3 23 10 11 17 10 43 -5 17 -10 30 -26 30 -35z m-138
-884 c-14 -317 -218 -546 -613 -689 -369 -133 -1003 -215 -1663 -213 -298 0
-668 24 -875 55 -55 8 -129 19 -165 25 -278 42 -530 126 -695 231 -63 39 -156
130 -150 146 2 7 0 10 -5 7 -12 -7 -70 82 -105 162 -48 108 -72 265 -42 276 6
2 28 -4 47 -13 66 -33 277 -97 385 -116 17 -3 46 -9 65 -14 31 -8 253 -40 480
-70 41 -5 134 -14 205 -20 72 -6 155 -13 185 -15 198 -17 622 -24 917 -15 414
12 536 22 918 74 333 46 787 145 922 201 19 8 39 13 43 10 5 -3 10 -1 12 4 3
8 111 58 130 60 4 1 6 -38 4 -86z m-4171 -1264 c8 -41 -4 -54 -52 -61 -31 -4
-39 2 -33 27 1 6 3 18 4 28 0 10 6 21 13 25 6 4 17 21 23 37 l12 30 13 -25 c7
-14 16 -41 20 -61z m19 -95 c9 -3 16 -13 16 -21 0 -8 -4 -12 -8 -9 -4 3 -7 -8
-6 -25 2 -27 -1 -29 -32 -29 -31 0 -33 2 -24 24 8 23 33 66 37 66 1 0 8 -3 17
-6z m159 -230 c3 -4 2 -16 -4 -26 -13 -24 -35 -9 -26 16 7 17 19 21 30 10z"/>
<path d="M9010 18103 c-117 -13 -284 -101 -400 -209 -25 -23 -65 -58 -88 -78
-24 -20 -41 -36 -37 -36 3 0 -14 -21 -38 -47 -119 -127 -267 -329 -383 -523
-12 -19 -26 -34 -31 -33 -5 1 -10 -8 -10 -20 -1 -12 -7 -23 -13 -25 -5 -2 -10
-11 -10 -20 0 -9 -10 -33 -21 -52 -35 -57 -134 -258 -179 -365 -122 -286 -153
-452 -100 -543 33 -57 108 -93 270 -128 69 -14 168 -38 220 -51 52 -14 100
-26 105 -27 67 -17 147 -46 223 -82 51 -24 94 -44 97 -44 16 0 388 -247 405
-269 17 -23 165 -119 229 -149 71 -34 82 -36 176 -36 89 0 105 3 140 24 67 41
80 53 117 105 102 147 138 328 138 699 0 360 -38 666 -128 1031 -9 39 -17 75
-18 80 0 6 -4 17 -7 25 -16 37 -67 201 -67 215 0 8 -4 15 -8 15 -4 0 -14 17
-21 38 -19 53 -100 214 -118 234 -8 9 -12 22 -7 29 4 7 3 10 -3 6 -6 -4 -22
10 -37 31 -14 20 -45 55 -68 77 -24 21 -42 43 -40 48 1 5 -2 6 -8 2 -5 -3 -10
-1 -10 6 0 7 -3 10 -6 6 -4 -3 -25 7 -48 22 -22 16 -45 29 -51 30 -5 0 -26 4
-45 7 -62 10 -84 11 -120 7z"/>
<path d="M3340 18077 c-30 -13 -74 -37 -97 -53 -41 -31 -143 -142 -143 -157 0
-5 -4 -6 -8 -3 -5 3 -9 0 -9 -7 0 -7 -15 -37 -34 -67 -47 -75 -130 -263 -168
-385 -64 -200 -127 -493 -156 -725 -23 -178 -32 -687 -15 -802 36 -254 124
-426 248 -486 49 -24 68 -28 137 -26 57 2 95 9 130 24 28 12 58 22 68 23 9 1
17 4 17 8 0 3 17 14 37 25 21 10 46 27 57 37 11 9 23 17 26 17 4 0 20 11 36
25 16 14 44 35 63 47 18 11 45 32 60 46 33 31 195 137 283 185 54 30 222 107
231 106 1 0 9 2 17 5 81 26 161 48 240 65 52 12 149 36 215 52 66 17 130 31
142 32 11 1 19 5 17 8 -4 6 19 19 32 18 3 0 18 16 33 35 57 72 64 175 21 306
-77 235 -133 367 -232 549 -38 69 -68 126 -68 128 0 1 -18 32 -40 68 -22 36
-40 70 -40 75 0 6 -4 10 -8 10 -4 0 -16 15 -26 33 -101 173 -293 410 -460 566
-28 25 -63 58 -79 73 -16 15 -38 30 -48 33 -11 4 -17 11 -13 16 3 5 2 8 -3 7
-4 -1 -35 14 -69 33 -100 59 -164 79 -257 79 -62 0 -95 -6 -137 -23z"/>
<path d="M3915 14485 c-155 -28 -337 -91 -515 -179 -105 -52 -281 -160 -309
-190 -21 -22 -23 -29 -13 -51 15 -32 34 -32 175 1 62 15 128 30 147 34 19 5
60 15 90 23 50 13 293 71 347 83 69 14 134 14 195 0 77 -18 116 -38 213 -111
85 -64 119 -100 111 -114 -4 -6 -1 -9 7 -6 8 4 46 -26 93 -70 43 -42 130 -122
192 -177 61 -55 112 -101 112 -102 0 0 -42 -1 -93 -1 -82 0 -97 -3 -144 -29
-120 -66 -166 -143 -167 -276 0 -69 4 -93 22 -128 72 -136 227 -201 375 -156
34 10 67 23 73 29 7 6 25 22 40 36 80 68 116 221 77 324 -22 56 -20 83 3 64 8
-6 11 -15 8 -20 -3 -5 1 -6 9 -3 8 3 21 -2 30 -10 9 -9 18 -16 20 -16 3 0 35
-18 72 -40 183 -112 457 -176 549 -130 41 21 68 70 68 125 0 96 -38 129 -166
147 -76 10 -216 55 -262 84 -86 52 -167 109 -248 174 -46 36 -126 108 -181
161 -33 32 -73 70 -90 85 -16 15 -75 68 -130 119 -206 189 -241 217 -337 270
-115 63 -224 78 -373 50z"/>
<path d="M8265 14481 c-81 -14 -233 -101 -315 -178 -19 -18 -37 -33 -40 -33
-3 0 -37 -30 -75 -66 -39 -36 -99 -91 -135 -122 -35 -31 -87 -78 -114 -104
-42 -38 -53 -44 -66 -35 -13 10 -13 10 -2 -4 10 -14 7 -20 -22 -43 -19 -14
-41 -32 -49 -40 -8 -8 -63 -51 -123 -96 -180 -134 -280 -181 -467 -220 -109
-22 -139 -38 -158 -81 -29 -72 -1 -160 61 -192 75 -38 296 1 454 81 101 49
237 130 249 146 12 15 2 -30 -18 -84 -22 -59 -13 -166 20 -232 13 -25 23 -48
22 -50 -1 -1 0 -2 2 -1 2 1 25 -17 51 -40 82 -74 208 -89 315 -38 110 52 166
134 173 253 10 172 -94 292 -278 321 -72 12 -85 23 -50 45 11 7 56 44 100 83
44 38 80 66 80 62 0 -4 6 3 13 17 7 14 21 24 30 24 9 -1 15 2 12 6 -7 12 144
152 157 144 6 -4 8 -3 5 3 -4 5 7 23 23 38 17 16 30 25 30 20 0 -4 8 2 19 13
10 12 23 22 29 22 5 0 12 6 15 14 3 7 41 31 84 52 73 37 83 39 168 39 94 -1
158 -13 365 -71 69 -19 141 -39 160 -44 19 -5 89 -25 156 -45 141 -41 158 -42
178 -14 22 31 1 57 -98 123 -217 144 -434 247 -658 310 -64 18 -243 29 -303
17z"/>
<path d="M5980 12869 c-80 -11 -150 -40 -173 -71 -11 -14 -22 -49 -24 -75 -6
-58 15 -107 84 -195 24 -32 46 -66 48 -77 2 -10 13 -37 25 -60 19 -39 58 -66
121 -84 13 -4 17 -33 23 -180 3 -96 4 -182 0 -191 -7 -18 -102 -83 -116 -79
-4 2 -8 -2 -8 -7 0 -14 -103 -59 -177 -76 -76 -17 -285 -20 -363 -4 -132 28
-330 100 -330 121 0 5 -8 9 -17 9 -10 0 -36 14 -57 30 -52 39 -87 39 -120 -1
-57 -67 -24 -105 172 -199 190 -91 320 -122 530 -122 163 -1 258 17 377 71 67
31 176 97 187 115 5 7 8 6 8 -4 0 -11 3 -12 8 -3 6 9 18 7 49 -7 118 -53 310
-77 477 -59 143 14 148 15 166 22 8 4 42 14 75 22 33 9 65 18 70 19 42 12 147
58 188 83 20 13 37 21 37 18 0 -3 9 3 20 13 12 9 23 15 27 14 3 -2 9 0 12 5
15 22 64 52 75 46 6 -3 8 -3 4 2 -4 4 18 27 48 52 29 24 54 48 54 53 0 5 7 7
16 3 8 -3 13 -12 10 -19 -3 -8 -1 -14 4 -14 5 0 10 -21 12 -46 2 -37 9 -51 29
-66 32 -24 73 -16 97 20 23 35 22 150 -3 230 -41 132 -172 207 -327 188 -73
-9 -112 -41 -112 -90 0 -52 18 -64 97 -68 38 -1 71 -6 73 -9 7 -12 -179 -169
-200 -169 -3 0 -24 -11 -46 -25 -153 -97 -445 -154 -650 -127 -124 16 -221 43
-238 65 -5 7 -7 86 -4 180 l4 168 29 14 c15 8 36 15 45 15 10 0 14 3 11 7 -4
3 2 12 12 19 10 7 29 39 41 71 13 32 36 70 53 86 16 15 27 27 24 27 -3 0 9 22
27 48 48 71 62 130 45 184 -12 36 -22 47 -59 65 -72 36 -178 53 -313 52 -67
-1 -147 -5 -177 -10z"/>
<path d="M7349 12183 c-13 -16 -12 -17 4 -4 16 13 21 21 13 21 -2 0 -10 -8
-17 -17z"/>
<path d="M10613 8423 c-15 -6 -17 -42 -3 -63 14 -22 64 -1 68 29 5 33 -27 50
-65 34z"/>
<path d="M10680 8305 c-7 -8 -10 -25 -6 -40 8 -32 49 -34 70 -3 14 20 14 24
-1 40 -20 22 -46 23 -63 3z"/>
<path d="M10745 8186 c-3 -9 -7 -23 -10 -31 -3 -9 5 -17 20 -21 39 -10 57 2
53 33 -2 22 -9 29 -31 31 -18 2 -29 -2 -32 -12z"/>
<path d="M10673 8094 c-18 -8 -16 -49 3 -65 36 -30 68 -11 62 38 -2 22 -9 28
-28 30 -14 1 -31 -1 -37 -3z"/>
<path d="M10807 8083 c-12 -11 -8 -50 6 -61 19 -16 63 9 59 34 -6 29 -46 46
-65 27z"/>
<path d="M10745 7980 c-31 -34 -16 -75 30 -82 28 -4 30 -2 33 33 1 21 -2 40
-8 44 -6 4 -8 10 -6 14 9 14 -35 6 -49 -9z"/>
<path d="M10884 7993 c3 -3 -1 -12 -9 -19 -14 -14 -10 -50 7 -60 20 -13 58 6
58 29 0 30 -10 43 -38 50 -13 3 -21 3 -18 0z"/>
<path d="M10682 7869 c-36 -14 -26 -79 12 -79 29 0 46 18 46 51 0 30 -22 41
-58 28z"/>
<path d="M10798 7864 c-13 -13 -14 -22 -6 -40 22 -47 88 -43 88 5 0 49 -48 69
-82 35z"/>
<path d="M10947 7863 c-13 -12 -7 -54 9 -60 8 -3 26 -1 40 5 21 10 23 14 12
37 -11 24 -45 34 -61 18z"/>
<path d="M10763 7770 c-50 -20 -48 -90 3 -90 46 0 74 62 34 75 -11 4 -18 11
-15 16 7 11 7 11 -22 -1z"/>
<path d="M10874 7745 c-10 -40 1 -55 41 -55 19 0 35 4 35 9 0 5 3 16 6 24 7
20 -22 47 -52 47 -17 0 -25 -7 -30 -25z"/>
<path d="M11027 7753 c-18 -17 -6 -54 20 -64 34 -13 47 0 38 40 -5 23 -12 31
-29 31 -13 0 -26 -3 -29 -7z"/>
<path d="M10817 7632 c-10 -10 -16 -30 -15 -43 2 -23 5 -24 43 -19 37 5 40 8
38 34 -3 46 -37 60 -66 28z"/>
<path d="M10955 7634 c-23 -23 -15 -57 15 -65 34 -8 60 7 60 34 0 44 -44 62
-75 31z"/>
<path d="M11092 7634 c-5 -9 -7 -27 -4 -40 3 -20 10 -24 38 -24 39 0 56 23 43
58 -10 27 -63 31 -77 6z"/>
<path d="M10741 7533 c-26 -18 -28 -64 -3 -79 38 -24 101 36 73 70 -18 21 -47
25 -70 9z"/>
<path d="M11200 7542 c-35 -12 -40 -56 -9 -72 29 -16 70 11 62 40 -6 24 -32
39 -53 32z"/>
<path d="M10880 7516 c-12 -33 -4 -55 26 -62 31 -8 56 18 52 53 -2 23 -8 29
-36 31 -27 3 -34 -1 -42 -22z"/>
<path d="M11021 7518 c-10 -28 -4 -45 19 -58 38 -20 80 22 60 60 -16 29 -68
27 -79 -2z"/>
<path d="M10818 7429 c-23 -13 -24 -65 -2 -77 43 -24 107 30 73 62 -21 20 -52
27 -71 15z"/>
<path d="M10962 7428 c-20 -20 -15 -66 9 -79 17 -9 25 -7 45 12 31 29 30 53
-1 67 -32 15 -38 15 -53 0z"/>
<path d="M11108 7429 c-10 -5 -18 -18 -18 -29 0 -37 12 -50 46 -50 44 0 63 30
39 66 -16 25 -39 30 -67 13z"/>
<path d="M11260 7422 c-28 -23 -22 -47 15 -64 37 -17 63 10 49 49 -12 34 -34
40 -64 15z"/>
<path d="M11400 7425 c-7 -8 -10 -25 -6 -40 5 -20 13 -25 36 -25 16 0 32 5 35
10 4 6 10 8 15 5 9 -5 4 41 -6 57 -9 14 -61 9 -74 -7z"/>
<path d="M11566 7391 c-4 -7 -5 -15 -2 -18 9 -9 19 4 14 18 -4 11 -6 11 -12 0z"/>
<path d="M11712 7378 c-32 -16 -26 -53 8 -53 18 0 26 6 28 23 2 12 -2 22 -8
22 -6 0 -8 5 -5 10 7 12 7 12 -23 -2z"/>
<path d="M12166 7367 c-17 -13 -17 -14 -1 -30 20 -21 39 -22 55 -2 28 34 -16
60 -54 32z"/>
<path d="M12031 7351 c-7 -5 -11 -14 -7 -19 9 -15 36 -4 36 14 0 16 -9 18 -29
5z"/>
<path d="M11860 7329 c0 -14 5 -19 17 -17 26 5 29 38 4 38 -15 0 -21 -6 -21
-21z"/>
<path d="M10748 7308 c-56 -45 0 -104 59 -63 27 19 20 53 -14 66 -30 11 -26
11 -45 -3z"/>
<path d="M10884 7295 c-27 -42 -1 -74 50 -61 29 7 41 37 26 66 -15 28 -56 26
-76 -5z"/>
<path d="M11028 7295 c-15 -33 -1 -59 34 -63 31 -4 50 19 46 55 -2 23 -8 29
-35 31 -27 3 -35 -1 -45 -23z"/>
<path d="M11183 7308 c-32 -41 -18 -68 34 -68 27 0 34 5 39 25 4 15 1 32 -6
40 -15 18 -54 20 -67 3z"/>
<path d="M11332 7308 c-18 -18 -15 -56 6 -66 29 -16 62 3 62 37 0 38 -41 56
-68 29z"/>
<path d="M11478 7299 c-10 -5 -18 -19 -18 -29 0 -11 8 -24 18 -29 9 -5 19 -10
22 -12 12 -6 50 23 50 39 0 37 -36 52 -72 31z"/>
<path d="M11627 7282 c-10 -10 -17 -24 -17 -30 0 -17 34 -24 64 -13 33 13 35
46 4 55 -32 8 -33 8 -51 -12z"/>
<path d="M11792 7289 c-47 -18 -34 -73 17 -67 20 2 27 9 29 29 4 33 -16 49
-46 38z"/>
<path d="M11910 7275 c-30 -36 34 -73 70 -40 15 13 17 22 9 36 -12 23 -61 25
-79 4z"/>
<path d="M10961 7207 c-6 -6 -11 -26 -11 -44 0 -26 5 -36 23 -42 12 -5 30 -5
39 0 23 12 34 55 19 73 -15 18 -57 26 -70 13z"/>
<path d="M10828 7198 c-22 -19 -28 -44 -15 -61 28 -36 87 -17 87 27 0 41 -39
59 -72 34z"/>
<path d="M11101 7196 c-30 -36 17 -90 64 -73 18 7 31 55 18 68 -18 18 -69 21
-82 5z"/>
<path d="M11263 7200 c-49 -20 -17 -85 37 -77 29 5 39 24 31 56 -8 28 -32 36
-68 21z"/>
<path d="M11397 7192 c-32 -35 -14 -72 33 -72 31 0 50 17 50 43 0 41 -55 60
-83 29z"/>
<path d="M11543 7193 c-7 -2 -13 -15 -13 -28 0 -40 52 -62 83 -36 44 36 -13
88 -70 64z"/>
<path d="M11696 7181 c-29 -32 -17 -56 28 -56 50 0 69 24 42 54 -24 26 -48 27
-70 2z"/>
<path d="M11840 7170 c-14 -25 3 -60 29 -60 21 0 51 30 51 52 0 32 -64 38 -80
8z"/>
<path d="M10888 7089 c-28 -16 -23 -63 7 -77 43 -20 87 26 69 72 -7 18 -50 21
-76 5z"/>
<path d="M11026 7085 c-16 -16 -10 -59 10 -76 23 -19 61 -2 73 33 8 21 8 35 1
42 -15 15 -69 16 -84 1z"/>
<path d="M11175 7084 c-37 -37 8 -94 55 -71 28 14 40 64 18 78 -21 14 -55 10
-73 -7z"/>
<path d="M11320 7085 c-19 -23 -4 -64 27 -71 30 -8 53 15 53 52 0 34 -56 48
-80 19z"/>
<path d="M11463 7073 c-3 -10 -8 -21 -10 -25 -6 -12 28 -38 52 -38 31 0 58 36
44 62 -13 25 -77 25 -86 1z"/>
<path d="M11604 7065 c-8 -32 11 -55 45 -55 33 0 51 17 51 46 0 24 -17 34 -61
34 -22 0 -30 -6 -35 -25z"/>
<path d="M11252 6978 c-7 -7 -12 -26 -12 -44 0 -26 5 -33 25 -38 37 -10 65 9
65 44 0 42 -50 66 -78 38z"/>
<path d="M10953 6968 c-15 -25 -12 -46 8 -64 29 -26 73 -9 77 30 2 16 -2 32
-10 37 -20 13 -66 11 -75 -3z"/>
<path d="M11107 6959 c-19 -27 -11 -56 18 -63 33 -8 54 2 61 30 12 49 -50 75
-79 33z"/>
<path d="M8712 4928 c-7 -7 -12 -20 -12 -30 0 -25 32 -23 49 3 11 18 11 23 -1
30 -17 12 -22 11 -36 -3z"/>
<path d="M3780 4650 c8 -5 20 -10 25 -10 6 0 3 5 -5 10 -8 5 -19 10 -25 10 -5
0 -3 -5 5 -10z"/>
<path d="M8591 4616 c-16 -19 -7 -46 14 -46 22 0 30 29 13 46 -13 13 -16 13
-27 0z"/>
<path d="M3804 4535 c-4 -8 -3 -26 0 -40 5 -19 13 -25 35 -25 39 0 64 25 51
50 -17 31 -76 42 -86 15z"/>
<path d="M7597 4532 c-22 -24 -21 -38 4 -55 25 -18 51 -12 67 14 10 16 9 22
-8 39 -25 25 -42 25 -63 2z"/>
<path d="M7218 4439 c-24 -14 -23 -45 3 -63 24 -17 57 -9 74 18 8 14 5 21 -14
37 -26 21 -38 23 -63 8z"/>
<path d="M3882 4428 c-15 -15 -16 -44 -2 -53 6 -4 8 -10 6 -14 -8 -13 53 1 64
15 7 7 10 23 8 36 -2 17 -10 24 -33 26 -17 2 -36 -3 -43 -10z"/>
<path d="M4022 4427 c-17 -20 -3 -56 24 -63 15 -4 34 0 49 10 19 13 23 21 16
39 -10 26 -71 37 -89 14z"/>
<path d="M4167 4434 c-17 -17 -6 -55 19 -64 37 -14 66 4 62 38 -3 23 -8 27
-38 30 -20 2 -39 0 -43 -4z"/>
<path d="M7362 4428 c-26 -26 -6 -68 33 -68 27 0 58 33 53 57 -4 22 -67 30
-86 11z"/>
<path d="M7510 4425 c-29 -35 12 -78 54 -55 31 16 44 49 25 61 -22 14 -65 10
-79 -6z"/>
<path d="M4541 4346 c-12 -14 -10 -50 2 -63 12 -11 39 -12 59 -2 20 11 24 49
6 67 -16 16 -53 15 -67 -2z"/>
<path d="M6822 4348 c-28 -28 -6 -68 38 -68 32 1 58 21 52 40 -11 36 -65 53
-90 28z"/>
<path d="M3968 4339 c-10 -5 -18 -21 -18 -34 0 -17 6 -25 18 -26 30 -2 47 2
61 16 11 11 10 16 -8 34 -24 24 -29 25 -53 10z"/>
<path d="M4270 4342 c-26 -8 -40 -33 -29 -53 13 -25 74 -26 83 -3 14 37 -16
68 -54 56z"/>
<path d="M4392 4338 c-17 -17 -15 -55 4 -62 43 -17 84 1 84 36 0 32 -63 51
-88 26z"/>
<path d="M6980 4330 c-19 -19 -19 -22 -4 -37 20 -20 73 -21 85 -2 15 24 10 39
-17 49 -35 14 -41 13 -64 -10z"/>
<path d="M7138 4342 c-12 -2 -18 -13 -18 -32 0 -24 5 -30 31 -35 22 -5 36 -2
50 11 19 17 26 53 12 55 -34 3 -61 4 -75 1z"/>
<path d="M7286 4343 c-3 -3 -6 -19 -6 -35 0 -34 21 -45 59 -32 20 7 26 17 27
39 1 28 -2 30 -36 32 -21 1 -40 -1 -44 -4z"/>
<path d="M4104 4326 c-12 -31 1 -51 31 -49 30 2 47 19 42 43 -3 21 -65 26 -73
6z"/>
<path d="M7440 4314 c0 -21 4 -25 23 -22 14 2 23 11 25 26 3 18 -1 22 -22 22
-21 0 -26 -5 -26 -26z"/>
<path d="M5080 4289 c0 -5 5 -7 10 -4 6 3 10 8 10 11 0 2 -4 4 -10 4 -5 0 -10
-5 -10 -11z"/>
<path d="M5360 4260 c-23 -23 -24 -33 -10 -61 12 -22 47 -24 73 -5 23 17 22
37 -3 64 -26 27 -35 27 -60 2z"/>
<path d="M5662 4271 c1 -3 -1 -13 -5 -21 -3 -8 -7 -27 -10 -41 -3 -24 -1 -26
33 -24 21 1 42 5 47 8 15 9 22 42 13 57 -7 12 -80 32 -78 21z"/>
<path d="M5821 4263 c-12 -8 -21 -25 -21 -38 0 -48 72 -57 89 -12 17 45 -29
78 -68 50z"/>
<path d="M5990 4271 c-34 -9 -50 -55 -27 -78 24 -24 68 -7 78 29 9 34 -15 58
-51 49z"/>
<path d="M5052 4258 c-13 -13 -15 -37 -6 -62 13 -33 94 -12 94 24 0 40 -60 66
-88 38z"/>
<path d="M5200 4249 c-14 -26 3 -57 35 -65 31 -8 55 11 55 42 0 27 -9 34 -50
39 -22 3 -33 -2 -40 -16z"/>
<path d="M6110 4256 c-15 -19 -9 -56 11 -69 25 -16 68 0 75 28 3 14 4 32 0 40
-7 19 -69 20 -86 1z"/>
<path d="M6268 4259 c-38 -22 -7 -90 36 -82 34 7 48 26 44 60 -2 23 -8 28 -33
30 -16 2 -38 -2 -47 -8z"/>
<path d="M8504 4254 c-15 -10 -20 -22 -16 -39 10 -56 65 -57 80 -2 15 53 -18
73 -64 41z"/>
<path d="M3886 4247 c-37 -27 2 -96 41 -71 29 18 39 42 27 62 -14 22 -44 26
-68 9z"/>
<path d="M4609 4244 c-9 -11 -10 -23 -3 -41 19 -53 94 -48 94 7 0 16 -5 30
-11 30 -5 0 -8 3 -6 8 10 15 -61 12 -74 -4z"/>
<path d="M4758 4241 c-8 -12 -19 -18 -24 -13 -5 4 4 -8 20 -26 46 -49 91 -36
84 25 -2 23 -8 29 -35 31 -22 2 -35 -3 -45 -17z"/>
<path d="M4905 4247 c-16 -13 -17 -19 -8 -40 24 -51 99 -31 91 25 -4 28 -52
37 -83 15z"/>
<path d="M6410 4236 c0 -40 11 -56 38 -56 36 0 60 25 54 55 -4 22 -9 25 -48
25 -40 0 -44 -2 -44 -24z"/>
<path d="M6565 4241 c-7 -24 12 -58 38 -65 24 -6 70 37 65 62 -2 13 -15 18
-50 20 -39 3 -47 0 -53 -17z"/>
<path d="M6744 4253 c-21 -16 -22 -41 -3 -62 37 -39 93 -15 87 38 -3 22 -8 26
-38 29 -19 1 -40 -1 -46 -5z"/>
<path d="M6898 4243 c-15 -14 -15 -19 -2 -45 23 -44 73 -37 93 13 8 23 6 28
-15 38 -35 15 -57 14 -76 -6z"/>
<path d="M7233 4247 c-25 -8 -33 -16 -33 -33 0 -20 5 -24 29 -24 28 0 61 22
61 39 0 20 -26 27 -57 18z"/>
<path d="M4350 4240 c-32 -5 -36 -9 -31 -41 0 -6 19 -9 44 -7 34 2 43 7 45 24
4 26 -11 32 -58 24z"/>
<path d="M4473 4240 c-41 -17 -23 -70 23 -70 39 0 54 11 54 40 0 36 -32 48
-77 30z"/>
<path d="M7052 4238 c-26 -26 -6 -68 33 -68 46 0 74 50 41 72 -17 12 -61 9
-74 -4z"/>
<path d="M5150 4162 c-16 -5 -34 -30 -35 -47 -1 -15 36 -45 55 -45 25 0 42 25
38 56 -3 28 -31 45 -58 36z"/>
<path d="M5308 4162 c-39 -5 -50 -23 -37 -61 12 -34 42 -42 71 -18 40 32 18
86 -34 79z"/>
<path d="M5448 4162 c-22 -4 -35 -49 -21 -71 17 -27 60 -26 78 3 27 40 -6 79
-57 68z"/>
<path d="M5748 4159 c-21 -12 -24 -59 -6 -77 7 -7 21 -12 33 -12 29 0 45 19
45 52 0 21 -6 31 -26 38 -30 12 -25 12 -46 -1z"/>
<path d="M5900 4157 c-31 -16 -37 -43 -14 -68 33 -36 84 -15 84 35 0 15 -26
46 -38 46 -4 0 -18 -6 -32 -13z"/>
<path d="M6075 4162 c-65 -14 -60 -81 7 -86 34 -3 34 -2 37 39 2 45 -7 55 -44
47z"/>
<path d="M3962 4144 c-17 -11 -22 -24 -20 -49 1 -18 7 -31 12 -30 6 2 24 6 39
10 25 5 28 9 25 43 -3 42 -21 51 -56 26z"/>
<path d="M4698 4141 c-22 -19 -23 -19 -4 -40 23 -25 61 -28 70 -5 10 25 7 31
-18 48 -23 14 -26 14 -48 -3z"/>
<path d="M5577 4153 c-14 -13 -7 -71 9 -77 46 -18 89 17 77 62 -4 18 -12 22
-42 22 -21 0 -41 -3 -44 -7z"/>
<path d="M6182 4130 c-10 -27 -8 -32 14 -47 20 -13 30 -14 50 -4 21 9 25 17
22 44 -3 29 -6 32 -39 35 -33 3 -38 0 -47 -28z"/>
<path d="M6345 4147 c-23 -18 -14 -63 15 -72 44 -14 83 27 66 70 -7 19 -56 20
-81 2z"/>
<path d="M6505 4147 c-8 -4 -15 -21 -15 -37 0 -23 5 -31 25 -36 34 -9 54 1 65
32 17 45 -26 69 -75 41z"/>
<path d="M6825 4144 c-19 -20 -19 -53 0 -60 35 -14 103 32 80 55 -18 18 -64
20 -80 5z"/>
<path d="M6990 4140 c-9 -17 -8 -20 10 -20 13 0 20 7 20 20 0 11 -4 20 -10 20
-5 0 -14 -9 -20 -20z"/>
<path d="M4557 4136 c-8 -19 1 -26 35 -26 21 0 28 5 28 20 0 15 -7 20 -29 20
-16 0 -31 -6 -34 -14z"/>
<path d="M4831 4136 c-8 -9 -11 -26 -7 -41 6 -23 11 -26 44 -23 35 3 37 5 37
38 0 32 -3 35 -31 38 -19 2 -36 -3 -43 -12z"/>
<path d="M4971 4128 c-12 -33 4 -58 38 -58 34 0 54 21 49 52 -2 19 -10 24 -41
26 -31 3 -39 0 -46 -20z"/>
<path d="M6661 4136 c-19 -22 -9 -59 18 -73 22 -11 28 -9 52 17 15 15 30 25
34 22 3 -3 2 5 -3 18 -7 20 -17 26 -49 28 -26 2 -44 -2 -52 -12z"/>
<path d="M8458 4142 c-10 -2 -18 -10 -18 -18 0 -9 -5 -12 -11 -8 -8 4 -7 0 1
-15 16 -31 40 -38 56 -16 28 37 13 67 -28 57z"/>
<path d="M5071 4051 c-8 -5 -11 -16 -8 -25 7 -16 33 -21 62 -10 14 6 14 8 -1
25 -19 21 -32 23 -53 10z"/>
<path d="M5213 4053 c-17 -6 -16 -38 1 -52 16 -13 60 -5 76 14 19 22 -39 51
-77 38z"/>
<path d="M5358 4049 c-21 -12 -23 -42 -5 -57 11 -9 33 -10 80 -3 4 0 7 12 7
24 0 16 -9 28 -25 35 -31 14 -35 14 -57 1z"/>
<path d="M5667 4049 c-18 -11 -22 -45 -8 -67 12 -19 61 -11 77 14 11 16 12 24
1 37 -15 21 -47 28 -70 16z"/>
<path d="M5502 4038 c-14 -14 -16 -44 -3 -53 25 -15 71 -11 88 7 17 19 17 21
-6 39 -26 22 -61 25 -79 7z"/>
<path d="M5812 4038 c-28 -28 -6 -68 38 -68 30 0 50 17 50 42 0 32 -63 51 -88
26z"/>
<path d="M5968 4040 c-41 -25 -9 -77 39 -66 16 4 33 7 39 8 10 1 11 44 2 54
-11 10 -65 13 -80 4z"/>
<path d="M6112 4035 c-17 -13 -20 -20 -12 -34 14 -27 57 -32 83 -10 45 37 -22
78 -71 44z"/>
<path d="M6272 4040 c-31 -13 -25 -41 10 -51 33 -9 62 10 56 37 -4 22 -32 28
-66 14z"/>
<path d="M6422 4037 c-6 -7 -7 -18 -2 -27 11 -18 74 -1 78 23 3 13 -4 17 -31
17 -19 0 -39 -6 -45 -13z"/>
<path d="M4026 4027 c-23 -17 -14 -53 15 -60 23 -6 32 10 27 44 -4 28 -18 33
-42 16z"/>
<path d="M3935 3940 c-3 -5 -1 -10 4 -10 6 0 11 5 11 10 0 6 -2 10 -4 10 -3 0
-8 -4 -11 -10z"/>
<path d="M3954 3926 c-7 -31 3 -66 19 -61 7 2 25 6 40 10 25 5 28 10 25 38 -3
29 -6 32 -40 35 -33 3 -38 0 -44 -22z"/>
<path d="M8418 3938 c-26 -22 -29 -47 -8 -68 25 -25 61 -14 75 25 8 22 6 29
-10 41 -23 17 -37 18 -57 2z"/>
<path d="M4063 3858 c-16 -24 -32 -51 -36 -60 -9 -26 16 -40 54 -30 33 8 33 9
32 61 -1 73 -13 80 -50 29z"/>
<path d="M8377 3823 c-9 -9 -9 -63 1 -64 4 0 15 -2 25 -4 13 -3 17 4 17 30 0
21 -6 35 -16 39 -19 7 -19 7 -27 -1z"/>
<path d="M4075 3691 c-13 -27 -13 -31 1 -45 18 -19 17 -19 48 -5 33 15 40 38
20 60 -25 27 -51 23 -69 -10z"/>
<path d="M8428 3709 c-10 -5 -18 -18 -18 -27 1 -23 24 -52 42 -52 23 0 48 33
48 63 0 23 -4 27 -27 27 -16 0 -36 -5 -45 -11z"/>
<path d="M8347 3683 c-9 -9 -9 -43 1 -43 18 1 34 19 29 34 -7 17 -19 21 -30 9z"/>
<path d="M8385 3620 c-23 -4 -31 -12 -36 -38 -5 -26 -3 -35 14 -47 18 -12 24
-13 42 -1 52 35 39 97 -20 86z"/>
<path d="M4127 3593 c-4 -3 -7 -19 -7 -35 0 -22 5 -28 22 -28 33 0 60 28 47
51 -9 18 -49 26 -62 12z"/>
<path d="M8302 3470 c-13 -37 -6 -60 19 -60 46 0 57 81 12 88 -15 2 -23 -5
-31 -28z"/>
<path d="M4192 3447 c4 -23 -1 -33 -30 -57 -19 -16 -39 -27 -44 -24 -5 3 -8 2
-7 -3 1 -4 -1 -16 -6 -26 -8 -20 10 -47 32 -47 8 0 30 15 48 33 31 31 33 37
28 83 -2 27 -9 54 -15 59 -7 7 -9 1 -6 -18z"/>
<path d="M8373 3388 c-32 -15 -31 -60 2 -78 22 -12 27 -11 45 5 27 25 24 77
-5 81 -11 1 -30 -3 -42 -8z"/>
<path d="M8292 3278 c-7 -7 -12 -24 -12 -39 0 -22 6 -29 31 -34 23 -5 34 -3
44 12 27 35 12 73 -30 73 -12 0 -26 -5 -33 -12z"/>
<path d="M4169 3259 c-14 -27 3 -69 29 -69 26 0 62 28 62 49 0 43 -70 58 -91
20z"/>
<path d="M4032 3258 c-18 -18 -15 -56 6 -67 30 -16 67 9 67 44 0 26 -4 30 -30
33 -17 2 -36 -3 -43 -10z"/>
<path d="M8370 3170 c-24 -24 -25 -43 -4 -64 34 -34 78 -9 72 40 -4 37 -42 50
-68 24z"/>
<path d="M8244 3156 c-7 -30 -2 -58 11 -63 20 -6 37 15 38 48 2 28 -2 35 -20
37 -17 3 -24 -3 -29 -22z"/>
<path d="M4090 3156 c-31 -38 9 -89 54 -68 45 20 30 82 -20 82 -12 0 -27 -7
-34 -14z"/>
<path d="M4231 3152 c-13 -24 4 -52 33 -52 17 0 25 7 28 24 8 43 -41 65 -61
28z"/>
<path d="M4154 3056 c-9 -24 0 -58 18 -70 25 -15 72 4 76 31 6 39 -80 75 -94
39z"/>
<path d="M8308 3059 c-24 -13 -23 -42 1 -63 25 -23 52 -17 68 13 23 47 -21 78
-69 50z"/>
<path d="M4287 3053 c-4 -3 -7 -17 -7 -30 0 -16 6 -23 20 -23 20 0 25 15 14
44 -7 17 -16 20 -27 9z"/>
<path d="M8225 3040 c-7 -12 2 -30 16 -30 12 0 12 27 0 35 -5 3 -12 1 -16 -5z"/>
<path d="M4235 2950 c-15 -16 -17 -26 -9 -47 10 -30 43 -37 75 -15 22 15 18
48 -9 70 -22 17 -36 15 -57 -8z"/>
<path d="M8376 2951 c-31 -34 3 -82 45 -66 22 8 39 61 26 74 -17 17 -52 13
-71 -8z"/>
<path d="M4072 2948 c-14 -19 3 -56 33 -70 20 -9 28 -8 44 6 28 25 33 54 11
66 -26 14 -76 12 -88 -2z"/>
<path d="M8225 2940 c-15 -49 21 -81 61 -55 42 28 25 75 -27 75 -19 0 -30 -6
-34 -20z"/>
<path d="M4312 2848 c-20 -20 -15 -76 8 -83 27 -8 60 11 60 36 0 49 -39 76
-68 47z"/>
<path d="M8324 2852 c-6 -4 -17 -17 -23 -30 -11 -20 -10 -27 5 -43 23 -25 49
-24 68 3 20 28 20 43 0 62 -17 17 -33 20 -50 8z"/>
<path d="M4161 2836 c-24 -28 2 -75 41 -76 33 0 53 72 22 84 -26 10 -51 7 -63
-8z"/>
<path d="M8183 2835 c-25 -28 -12 -85 18 -85 23 0 39 29 39 69 0 26 -4 31 -22
31 -13 -1 -29 -7 -35 -15z"/>
<path d="M4238 2739 c-32 -18 -13 -89 23 -89 51 0 69 73 23 90 -30 12 -25 12
-46 -1z"/>
<path d="M8275 2741 c-34 -7 -45 -39 -25 -77 13 -24 31 -23 62 3 42 36 18 84
-37 74z"/>
<path d="M8135 2711 c-7 -24 3 -51 21 -51 21 0 45 41 32 57 -15 19 -46 16 -53
-6z"/>
<path d="M4365 2709 c-4 -5 1 -19 11 -30 13 -14 20 -16 31 -8 18 15 17 35 -3
43 -22 9 -32 7 -39 -5z"/>
<path d="M8222 2639 c-13 -5 -29 -6 -34 -2 -6 3 -8 1 -4 -5 3 -6 1 -14 -5 -18
-6 -3 -9 -19 -5 -34 4 -25 1 -30 -24 -39 -23 -7 -30 -16 -30 -35 0 -15 -6 -26
-12 -26 -10 0 -9 -3 1 -9 11 -7 9 -10 -8 -16 -32 -10 -45 -40 -25 -60 25 -24
57 -15 69 20 6 17 20 42 33 55 12 14 21 34 20 45 -2 14 5 23 27 31 39 14 58
60 32 78 -9 7 -14 16 -10 19 8 9 4 8 -25 -4z"/>
<path d="M4310 2626 c-5 -5 -10 -22 -10 -37 0 -30 26 -45 60 -34 24 8 37 52
21 68 -15 15 -57 17 -71 3z"/>
<path d="M4410 2527 c-29 -15 -36 -44 -17 -70 20 -28 67 -4 67 33 0 38 -19 52
-50 37z"/>
<path d="M4450 2405 c-6 -7 -9 -26 -8 -43 2 -28 4 -29 29 -20 29 10 42 30 33
52 -8 20 -41 27 -54 11z"/>
<path d="M8038 2336 c-13 -29 -5 -56 17 -56 19 0 40 43 32 64 -9 24 -36 19
-49 -8z"/>
<path d="M4469 2266 c-15 -32 0 -54 33 -50 13 1 27 3 31 3 5 1 7 16 5 34 -2
27 -8 33 -30 35 -22 3 -30 -2 -39 -22z"/>
<path d="M4540 2136 c0 -21 16 -36 40 -36 14 0 20 44 7 52 -25 16 -47 9 -47
-16z"/>
<path d="M4478 2055 c-9 -21 -8 -28 7 -45 32 -35 65 -23 78 28 10 44 -65 59
-85 17z"/>
<path d="M7961 2046 c-7 -8 -13 -27 -14 -43 -2 -22 3 -29 20 -31 29 -4 61 42
46 67 -14 22 -37 25 -52 7z"/>
<path d="M4572 1964 c-33 -23 -27 -68 9 -72 35 -4 55 21 43 55 -11 33 -24 37
-52 17z"/>
<path d="M7907 1873 c-4 -3 -7 -21 -7 -40 0 -26 4 -33 20 -33 21 0 37 38 26
65 -6 15 -28 20 -39 8z"/>
<path d="M4616 1803 c-4 -9 1 -23 12 -33 17 -16 19 -16 28 -1 14 23 6 51 -16
51 -10 0 -21 -7 -24 -17z"/>
<path d="M7913 1750 c-23 -9 -40 -51 -28 -69 7 -12 44 -14 69 -5 18 7 21 36 6
65 -12 21 -15 22 -47 9z"/>
<path d="M4544 1725 c-9 -36 2 -55 30 -55 41 0 56 11 56 40 0 29 -15 40 -56
40 -17 0 -25 -7 -30 -25z"/>
<path d="M4617 1622 c-24 -26 -21 -49 6 -54 44 -8 58 1 55 35 -4 38 -35 48
-61 19z"/>
<path d="M7847 1633 c-14 -14 -7 -61 10 -67 19 -8 43 17 43 45 0 22 -38 38
-53 22z"/>
<path d="M4522 1518 c-30 -30 -5 -68 45 -68 33 0 37 6 33 45 -4 34 -53 48 -78
23z"/>
<path d="M7882 1513 c-16 -31 3 -63 38 -63 37 0 62 39 40 65 -17 21 -67 19
-78 -2z"/>
<path d="M4658 1502 c-7 -27 9 -52 33 -52 30 0 23 64 -7 68 -14 2 -23 -3 -26
-16z"/>
<path d="M7992 1433 c-26 -5 -48 -43 -39 -67 4 -10 18 -16 36 -16 23 0 31 6
40 30 8 25 7 32 -4 37 -8 3 -12 9 -9 14 3 5 4 8 2 8 -2 -1 -13 -4 -26 -6z"/>
<path d="M4586 1411 c-14 -16 -15 -23 -6 -41 10 -18 18 -21 43 -16 35 7 48 22
39 45 -13 35 -50 41 -76 12z"/>
<path d="M7832 1421 c-8 -5 -12 -21 -10 -37 3 -25 7 -29 33 -29 23 0 32 6 39
28 8 22 7 30 -4 37 -19 12 -41 12 -58 1z"/>
<path d="M4512 1318 c-29 -29 -6 -68 40 -68 36 0 53 29 32 58 -17 24 -53 29
-72 10z"/>
<path d="M4656 1314 c-18 -18 -21 -50 -5 -59 19 -12 59 4 59 24 0 49 -25 65
-54 35z"/>
<path d="M7892 1318 c-6 -6 -12 -26 -12 -44 0 -25 4 -31 18 -29 75 15 73 14
69 48 -3 27 -8 32 -33 35 -16 2 -35 -3 -42 -10z"/>
<path d="M7800 1290 c0 -16 5 -30 10 -30 6 0 10 14 10 30 0 17 -4 30 -10 30
-5 0 -10 -13 -10 -30z"/>
<path d="M5166 7595 c-30 -27 -33 -53 -11 -95 22 -43 46 -52 92 -36 66 22 81
82 33 134 -29 30 -79 29 -114 -3z"/>
<path d="M6606 7589 c-44 -52 -29 -113 31 -125 54 -11 102 28 103 82 0 73 -86
101 -134 43z"/>
<path d="M5963 7592 c-30 -4 -63 -52 -63 -90 0 -42 42 -84 78 -79 45 8 72 19
67 27 -3 5 -1 11 5 15 13 8 13 61 0 86 -14 24 -59 46 -87 41z"/>
<path d="M7027 7252 c-31 -32 -34 -62 -10 -102 41 -71 143 -39 143 45 0 80
-79 114 -133 57z"/>
<path d="M4872 7120 c-99 -60 -45 -181 62 -140 28 10 56 56 49 80 -19 66 -62
89 -111 60z"/>
<path d="M6413 7100 c-26 -11 -46 -45 -48 -83 -2 -33 53 -88 82 -82 10 2 23 4
29 4 5 1 20 10 32 21 62 58 -15 173 -95 140z"/>
<path d="M5634 7090 c-52 -21 -71 -98 -34 -138 30 -32 64 -37 102 -15 30 17
33 24 36 70 3 47 0 53 -27 72 -31 23 -44 24 -77 11z"/>
<path d="M2692 5608 c-6 -8 -6 -22 -1 -36 7 -19 15 -23 41 -20 26 2 34 8 36
27 2 13 -2 28 -10 32 -19 13 -54 11 -66 -3z"/>
<path d="M2832 5608 c-25 -25 -4 -73 33 -73 29 0 45 13 45 39 0 28 -18 46 -45
46 -12 0 -26 -5 -33 -12z"/>
<path d="M2987 5602 c-25 -27 -21 -51 9 -63 49 -18 80 10 67 61 -7 26 -54 27
-76 2z"/>
<path d="M3134 5595 c-20 -31 -13 -52 21 -61 35 -9 53 1 61 31 13 53 -51 77
-82 30z"/>
<path d="M3280 5600 c-17 -17 -18 -24 -8 -45 7 -17 19 -25 35 -25 63 0 85 48
33 75 -37 19 -36 19 -60 -5z"/>
<path d="M2906 5504 c-34 -33 -8 -67 46 -62 28 2 34 7 36 30 3 22 -2 30 -23
38 -35 13 -41 13 -59 -6z"/>
<path d="M3068 5509 c-11 -6 -18 -22 -18 -39 0 -32 25 -46 66 -36 35 9 34 63
-2 76 -30 12 -25 12 -46 -1z"/>
<path d="M2790 5495 c0 -21 28 -31 43 -16 9 9 8 14 -3 21 -22 14 -40 12 -40
-5z"/>
<path d="M3202 5498 c-30 -30 -5 -68 44 -68 36 0 51 23 39 60 -7 23 -63 28
-83 8z"/>
<path d="M3357 5492 c-30 -33 -15 -72 28 -72 29 0 45 19 45 51 0 40 -44 53
-73 21z"/>
<path d="M2974 5374 c-8 -30 7 -44 47 -44 33 0 53 22 44 50 -5 16 -15 20 -45
20 -34 0 -41 -4 -46 -26z"/>
<path d="M3133 5389 c-8 -8 -8 -20 -1 -40 8 -24 16 -29 43 -29 38 0 53 26 35
60 -12 22 -58 28 -77 9z"/>
<path d="M3272 5376 c-20 -45 41 -89 76 -54 7 7 12 27 12 45 0 32 -2 33 -38
33 -31 0 -41 -5 -50 -24z"/>
<path d="M3073 5282 c-26 -26 -7 -62 33 -62 33 0 49 25 36 55 -12 26 -46 30
-69 7z"/>
<path d="M3218 5281 c-33 -28 -19 -66 26 -69 30 -2 36 1 42 23 3 14 4 31 1 39
-9 22 -45 26 -69 7z"/>
<path d="M3361 5276 c-17 -21 -10 -60 12 -64 10 -2 30 -1 43 2 21 6 25 12 22
39 -3 28 -7 32 -34 35 -18 2 -36 -3 -43 -12z"/>
<path d="M3150 5175 c-10 -13 -10 -19 4 -34 20 -22 52 -17 59 10 3 12 -2 23
-13 29 -25 14 -35 13 -50 -5z"/>
<path d="M3286 5175 c-23 -23 -20 -42 9 -61 35 -23 76 -6 70 27 -8 41 -53 60
-79 34z"/>
<path d="M3220 5056 c-6 -8 -10 -25 -8 -38 2 -18 10 -24 36 -26 23 -2 32 1 33
12 1 9 2 22 3 29 5 33 -41 50 -64 23z"/>
<path d="M3352 5057 c-28 -37 -13 -77 29 -77 19 0 59 33 59 48 -1 28 -71 51
-88 29z"/>
<path d="M3281 4936 c-18 -33 1 -70 32 -60 49 15 59 40 29 67 -26 24 -46 21
-61 -7z"/>
<path d="M3443 4952 c-39 -6 -41 -65 -2 -77 41 -13 76 17 64 55 -6 20 -28 27
-62 22z"/>
<path d="M3357 4832 c-34 -37 -16 -62 44 -62 24 0 29 4 29 24 0 26 -23 56 -44
56 -7 0 -20 -8 -29 -18z"/>
<path d="M3435 4729 c-12 -19 4 -56 32 -74 16 -10 32 -24 36 -32 13 -22 47 3
47 35 0 35 -8 45 -49 65 -39 20 -57 21 -66 6z"/>
<path d="M3434 4575 c-7 -18 3 -35 21 -35 16 0 38 34 28 44 -12 11 -44 6 -49
-9z"/>
<path d="M3492 4473 c-17 -33 5 -64 38 -56 23 6 31 35 15 56 -16 22 -42 22
-53 0z"/>
<path d="M3550 4355 c-15 -19 -5 -64 17 -72 21 -8 43 22 43 59 0 23 -4 28 -24
28 -13 0 -29 -7 -36 -15z"/>
<path d="M3615 4270 c2 -4 -5 -14 -16 -24 -31 -26 -20 -50 22 -54 45 -4 68 17
62 52 -3 14 -8 27 -12 27 -22 5 -59 4 -56 -1z"/>
<path d="M3613 4173 c-18 -7 -16 -43 2 -43 10 0 14 9 13 25 -1 14 -3 25 -3 24
0 0 -6 -3 -12 -6z"/>
<path d="M3780 3725 c-7 -8 -9 -15 -6 -15 4 0 14 7 22 15 9 8 11 15 6 15 -5 0
-15 -7 -22 -15z"/>
<path d="M3746 3593 c-9 -23 -7 -51 4 -58 18 -11 41 16 38 43 -3 28 -33 39
-42 15z"/>
<path d="M3812 3501 c-6 -3 -15 -18 -21 -33 -8 -21 -6 -29 10 -44 19 -17 20
-17 41 3 32 33 7 97 -30 74z"/>
<path d="M3740 4050 c0 -5 5 -10 10 -10 6 0 10 5 10 10 0 6 -4 10 -10 10 -5 0
-10 -4 -10 -10z"/>
<path d="M742 1442 c-25 -4 -46 -36 -38 -58 4 -10 17 -14 38 -12 28 3 34 7 36
32 4 34 -5 43 -36 38z"/>
<path d="M862 1428 c-32 -32 2 -87 40 -67 31 17 17 79 -17 79 -6 0 -16 -5 -23
-12z"/>
<path d="M11598 1423 c-24 -6 -35 -52 -17 -64 35 -23 84 14 63 48 -12 19 -22
22 -46 16z"/>
<path d="M11721 1402 c-19 -35 26 -56 63 -29 17 13 17 14 1 30 -22 22 -52 22
-64 -1z"/>
<path d="M581 1396 c-9 -10 -8 -16 3 -25 22 -18 51 -9 54 17 3 18 -1 22 -21
22 -14 0 -30 -6 -36 -14z"/>
<path d="M935 1350 c-8 -13 5 -13 25 0 13 8 13 10 -2 10 -9 0 -20 -4 -23 -10z"/>
<path d="M11635 1330 c5 -8 9 -28 9 -45 1 -26 4 -30 26 -27 34 4 44 16 36 45
-4 19 -11 24 -26 20 -11 -3 -28 1 -37 8 -14 12 -16 12 -8 -1z"/>
<path d="M492 1314 c-47 -32 -14 -76 42 -55 28 11 32 22 16 52 -13 23 -28 24
-58 3z"/>
<path d="M642 1318 c-15 -15 -16 -58 -2 -59 6 -1 16 -2 23 -3 42 -7 64 44 28
64 -25 13 -34 13 -49 -2z"/>
<path d="M788 1319 c-40 -23 -9 -76 37 -65 22 6 46 49 34 61 -11 10 -56 14
-71 4z"/>
<path d="M11796 1304 c-20 -19 -20 -28 -1 -44 30 -25 79 16 54 46 -15 18 -34
18 -53 -2z"/>
<path d="M11926 1284 c-8 -20 10 -35 39 -32 12 2 20 11 20 23 0 27 -49 34 -59
9z"/>
<path d="M891 1220 c-49 -12 -63 -37 -35 -64 21 -21 40 -20 64 4 22 22 25 36
10 45 -6 4 -8 11 -5 16 4 5 5 9 3 8 -2 -1 -18 -5 -37 -9z"/>
<path d="M408 1195 c-14 -32 -4 -55 25 -55 52 0 63 58 14 71 -24 6 -30 4 -39
-16z"/>
<path d="M710 1200 c-14 -25 -4 -60 16 -60 32 0 54 21 54 50 0 27 -3 30 -30
30 -19 0 -33 -7 -40 -20z"/>
<path d="M11584 1212 c-23 -3 -37 -34 -27 -58 6 -17 45 -18 61 -2 28 28 6 67
-34 60z"/>
<path d="M11721 1204 c-14 -10 -21 -24 -19 -37 2 -18 10 -22 38 -22 31 0 35 3
38 27 4 36 -26 53 -57 32z"/>
<path d="M551 1188 c-17 -43 57 -67 82 -27 17 28 1 49 -38 49 -28 0 -38 -5
-44 -22z"/>
<path d="M11996 1181 c-11 -21 -12 -31 -3 -40 31 -31 92 7 64 41 -23 29 -46
29 -61 -1z"/>
<path d="M11862 1191 c-20 -12 -11 -56 11 -55 9 1 17 -3 17 -9 0 -5 9 -2 20 8
28 25 22 59 -10 63 -14 1 -31 -2 -38 -7z"/>
<path d="M792 1104 c-32 -22 -26 -58 11 -62 49 -6 68 26 38 62 -17 20 -21 20
-49 0z"/>
<path d="M934 1095 c-32 -48 30 -85 72 -43 12 12 12 17 -1 35 -22 32 -53 35
-71 8z"/>
<path d="M491 1097 c-16 -16 -14 -32 10 -53 12 -10 22 -19 24 -19 2 0 12 9 24
19 22 20 27 41 13 50 -19 12 -61 13 -71 3z"/>
<path d="M631 1092 c-14 -26 12 -62 41 -57 32 6 41 20 34 49 -5 21 -13 26 -36
26 -18 0 -33 -7 -39 -18z"/>
<path d="M11479 1083 c-21 -55 45 -71 70 -16 14 30 3 43 -37 43 -15 0 -26 -8
-33 -27z"/>
<path d="M11624 1086 c-13 -33 0 -51 36 -51 32 0 35 2 35 30 0 27 -4 30 -33
33 -22 2 -34 -2 -38 -12z"/>
<path d="M11792 1088 c-5 -7 -12 -22 -14 -33 -2 -16 3 -21 30 -23 27 -3 34 1
42 24 8 21 8 29 -2 36 -19 12 -44 10 -56 -4z"/>
<path d="M11940 1085 c-17 -21 -8 -50 18 -53 27 -4 52 45 30 60 -19 12 -34 10
-48 -7z"/>
<path d="M4320 999 c-28 -51 18 -92 61 -53 26 24 24 49 -6 62 -35 16 -43 15
-55 -9z"/>
<path d="M4488 1012 c-35 -4 -37 -30 -5 -60 37 -35 79 -27 89 15 9 34 -26 52
-84 45z"/>
<path d="M7987 1008 c-31 -17 -19 -60 19 -72 25 -8 54 16 54 44 0 23 -49 42
-73 28z"/>
<path d="M8126 1004 c-29 -28 -16 -55 32 -67 18 -4 26 0 34 18 21 48 -29 86
-66 49z"/>
<path d="M11530 1010 c-9 -6 -10 -10 -3 -10 6 0 15 5 18 10 8 12 4 12 -15 0z"/>
<path d="M578 1003 c-22 -5 -31 -32 -17 -50 19 -22 73 -13 77 13 3 22 -30 43
-60 37z"/>
<path d="M709 998 c-12 -41 -4 -55 39 -64 16 -3 35 33 28 52 -4 11 -64 22 -67
12z"/>
<path d="M854 986 c-17 -45 29 -73 71 -42 16 12 18 18 9 33 -14 23 -72 30 -80
9z"/>
<path d="M1004 986 c-11 -28 4 -44 43 -47 37 -4 39 -3 38 26 0 27 -3 30 -38
33 -26 2 -39 -1 -43 -12z"/>
<path d="M11397 994 c-4 -4 -7 -18 -7 -30 0 -29 42 -43 66 -23 25 21 13 54
-21 57 -17 2 -34 0 -38 -4z"/>
<path d="M11551 986 c-13 -16 -11 -37 4 -48 19 -14 54 -8 65 11 19 37 -42 70
-69 37z"/>
<path d="M11712 988 c-5 -7 -12 -22 -14 -33 -3 -17 3 -20 37 -20 30 0 41 4 43
18 7 37 -42 63 -66 35z"/>
<path d="M11876 981 c-14 -15 -15 -24 -6 -40 15 -30 56 -27 77 5 16 25 16 27
-2 40 -26 19 -49 17 -69 -5z"/>
<path d="M4258 899 c-22 -12 -23 -52 -3 -69 23 -19 64 -4 71 26 4 14 3 29 -2
34 -16 15 -49 19 -66 9z"/>
<path d="M4402 894 c-48 -34 -15 -83 46 -68 30 7 38 14 40 36 3 22 -2 30 -23
38 -34 13 -37 13 -63 -6z"/>
<path d="M4564 896 c-3 -8 -4 -27 -2 -43 3 -24 8 -28 36 -31 18 -2 40 2 48 9
20 17 17 57 -5 69 -28 15 -71 12 -77 -4z"/>
<path d="M4886 895 c-24 -24 -20 -54 9 -67 47 -21 93 19 67 59 -13 21 -58 26
-76 8z"/>
<path d="M7744 885 c-12 -49 17 -77 62 -56 36 16 42 41 15 63 -34 27 -69 24
-77 -7z"/>
<path d="M8070 902 c-8 -3 -18 -10 -22 -16 -10 -14 -10 -56 0 -57 4 0 16 -2
26 -4 33 -6 58 13 54 42 -3 27 -31 44 -58 35z"/>
<path d="M8197 892 c-29 -32 -20 -59 26 -75 12 -5 26 2 43 18 l24 24 -22 26
c-26 30 -49 32 -71 7z"/>
<path d="M690 890 c-11 -7 -12 -12 -3 -21 13 -13 33 -4 33 17 0 16 -9 18 -30
4z"/>
<path d="M782 879 c-15 -24 -5 -48 24 -55 30 -8 44 2 44 31 0 33 -51 51 -68
24z"/>
<path d="M946 884 c-19 -19 -20 -25 -3 -46 14 -19 46 -26 65 -15 18 12 15 64
-4 71 -25 10 -42 7 -58 -10z"/>
<path d="M1262 879 c-22 -19 -22 -22 -7 -39 24 -27 52 -30 70 -10 43 48 -16
94 -63 49z"/>
<path d="M4099 887 c-15 -11 -15 -16 -3 -39 19 -36 61 -42 80 -12 24 36 15 59
-26 61 -19 2 -42 -3 -51 -10z"/>
<path d="M4725 885 c-3 -8 -7 -22 -10 -30 -9 -29 57 -44 93 -22 17 12 15 54
-4 61 -30 11 -75 6 -79 -9z"/>
<path d="M7592 888 c-16 -16 -15 -43 1 -55 15 -12 75 -7 93 8 10 8 10 16 2 35
-9 19 -19 24 -48 24 -20 0 -41 -5 -48 -12z"/>
<path d="M7902 883 c-15 -29 4 -62 35 -63 20 0 43 30 43 56 0 21 -5 24 -35 24
-23 0 -37 -6 -43 -17z"/>
<path d="M11343 892 c-53 -9 -55 -72 -2 -72 22 0 32 7 41 25 14 31 -4 53 -39
47z"/>
<path d="M11798 886 c-15 -8 -29 -12 -32 -9 -2 3 -3 -3 -1 -14 2 -10 4 -24 4
-30 1 -17 31 -16 54 1 19 14 23 46 6 46 -5 0 -7 5 -4 10 8 13 5 13 -27 -4z"/>
<path d="M1097 883 c-12 -11 -8 -50 7 -62 19 -16 76 5 76 30 0 28 -63 53 -83
32z"/>
<path d="M11472 878 c-16 -16 -15 -55 1 -61 20 -7 67 14 77 34 8 14 6 20 -9
29 -26 13 -54 13 -69 -2z"/>
<path d="M11625 874 c-23 -24 -15 -48 18 -52 33 -4 57 13 57 38 0 31 -48 40
-75 14z"/>
<path d="M4490 784 c-18 -18 -20 -26 -11 -43 17 -31 78 -30 90 2 19 51 -41 82
-79 41z"/>
<path d="M4668 798 c-22 -7 -28 -16 -28 -38 0 -39 18 -50 60 -36 40 13 50 39
24 67 -19 21 -19 21 -56 7z"/>
<path d="M5264 789 c-9 -10 -14 -28 -12 -41 3 -20 9 -23 42 -23 35 0 41 4 53
33 8 19 9 31 3 27 -5 -3 -10 -2 -10 3 0 19 -59 19 -76 1z"/>
<path d="M7822 792 c-30 -19 -29 -50 2 -58 36 -9 64 10 59 40 -6 30 -32 38
-61 18z"/>
<path d="M7967 793 c-21 -11 -25 -17 -18 -36 11 -31 75 -37 90 -8 23 43 -22
71 -72 44z"/>
<path d="M8117 792 c-33 -36 -3 -81 46 -68 29 7 47 50 30 67 -19 19 -60 19
-76 1z"/>
<path d="M4050 790 c-47 -11 -34 -80 15 -80 24 0 55 29 55 52 0 20 -39 36 -70
28z"/>
<path d="M4180 785 c-21 -26 -2 -69 33 -70 34 -2 49 15 45 52 -2 23 -8 29 -34
31 -19 2 -36 -3 -44 -13z"/>
<path d="M4330 785 c-35 -43 28 -91 73 -55 19 15 20 21 9 44 -13 30 -61 36
-82 11z"/>
<path d="M4800 775 c-17 -31 0 -55 40 -55 35 0 54 22 46 55 -9 36 -67 36 -86
0z"/>
<path d="M4960 786 c-21 -26 -8 -61 23 -64 35 -4 57 13 57 43 0 35 -56 49 -80
21z"/>
<path d="M5112 788 c-24 -24 -11 -78 19 -78 10 0 31 11 46 24 23 20 26 28 17
43 -13 22 -64 29 -82 11z"/>
<path d="M5416 781 c-23 -26 -13 -59 21 -67 45 -12 74 54 34 76 -27 14 -35 13
-55 -9z"/>
<path d="M6901 786 c-24 -28 -21 -56 5 -66 39 -15 64 3 64 45 0 32 -3 35 -29
35 -16 0 -34 -6 -40 -14z"/>
<path d="M7058 788 c-22 -18 -29 -45 -15 -56 26 -19 47 -20 69 -3 20 16 21 22
10 45 -12 28 -39 34 -64 14z"/>
<path d="M7220 794 c-27 -8 -39 -38 -25 -58 17 -23 63 -18 82 10 12 19 12 24
-2 38 -16 16 -26 18 -55 10z"/>
<path d="M7350 775 c-15 -27 -4 -49 29 -58 36 -9 68 36 46 66 -18 26 -59 22
-75 -8z"/>
<path d="M7518 789 c-20 -11 -24 -54 -7 -64 17 -11 58 4 69 24 21 41 -18 66
-62 40z"/>
<path d="M7656 784 c-21 -21 -20 -30 6 -48 32 -23 57 -20 70 9 21 46 -39 77
-76 39z"/>
<path d="M8260 785 c-18 -22 2 -61 34 -67 42 -8 73 41 44 70 -17 17 -63 15
-78 -3z"/>
<path d="M8423 794 c-18 -8 -16 -49 1 -64 35 -28 93 11 70 48 -11 17 -48 25
-71 16z"/>
<path d="M1185 770 c-25 -28 -16 -54 21 -58 58 -6 71 49 17 69 -15 5 -26 2
-38 -11z"/>
<path d="M1344 782 c-31 -21 -15 -72 22 -72 52 0 73 53 28 70 -30 12 -36 12
-50 2z"/>
<path d="M1492 778 c-39 -39 16 -84 65 -52 20 12 21 17 11 39 -12 27 -54 35
-76 13z"/>
<path d="M3876 775 c-13 -14 -14 -20 -4 -38 7 -12 12 -25 11 -28 -1 -3 9 -4
22 -1 31 5 58 35 53 59 -4 24 -60 30 -82 8z"/>
<path d="M11071 773 c-14 -27 -14 -35 1 -44 22 -15 54 -10 73 11 15 16 15 22
5 35 -17 21 -67 19 -79 -2z"/>
<path d="M11238 779 c-35 -20 -15 -69 27 -69 15 0 51 27 60 46 0 0 -6 8 -14
17 -15 19 -47 22 -73 6z"/>
<path d="M11416 781 c-38 -8 -54 -46 -25 -62 28 -15 66 -4 74 22 10 29 -13 47
-49 40z"/>
<path d="M1032 753 c2 -11 14 -19 31 -21 23 -3 28 0 25 15 -2 11 -14 19 -31
21 -23 3 -28 0 -25 -15z"/>
<path d="M11540 755 c0 -10 7 -15 18 -13 21 4 19 22 -2 26 -10 2 -16 -3 -16
-13z"/>
<path d="M7287 690 c-23 -18 -25 -24 -15 -45 8 -18 19 -25 38 -25 51 0 66 49
24 76 -18 13 -24 12 -47 -6z"/>
<path d="M7730 690 c-24 -24 -17 -46 18 -53 36 -7 64 9 60 36 -4 31 -54 41
-78 17z"/>
<path d="M8042 694 c-31 -21 -29 -52 5 -60 44 -11 88 30 64 60 -17 20 -40 20
-69 0z"/>
<path d="M8212 702 c-44 -7 -51 -62 -9 -76 30 -11 50 2 61 41 8 25 -15 41 -52
35z"/>
<path d="M3805 680 c-20 -22 -12 -59 13 -61 9 -1 24 -2 32 -3 19 -1 43 31 37
48 -3 8 -19 18 -35 24 -25 9 -33 7 -47 -8z"/>
<path d="M4110 679 c-15 -27 -12 -47 8 -57 32 -17 72 1 72 33 0 37 -63 56 -80
24z"/>
<path d="M4263 688 c-31 -41 -15 -72 33 -66 39 4 53 31 30 57 -21 24 -49 27
-63 9z"/>
<path d="M4415 680 c-16 -18 -16 -22 -2 -43 19 -29 55 -29 74 -1 32 49 -32 88
-72 44z"/>
<path d="M4566 685 c-31 -32 -15 -59 41 -67 17 -2 31 -2 31 1 -1 3 3 14 7 25
18 42 -45 75 -79 41z"/>
<path d="M4728 689 c-46 -26 10 -89 59 -66 23 10 29 31 17 61 -7 18 -50 21
-76 5z"/>
<path d="M4880 686 c-19 -24 -8 -59 20 -67 47 -11 72 18 54 65 -8 20 -57 21
-74 2z"/>
<path d="M5026 678 c-33 -46 33 -89 73 -49 18 18 19 25 9 46 -15 33 -60 34
-82 3z"/>
<path d="M5182 688 c-26 -26 -11 -58 34 -72 24 -7 54 15 54 39 0 36 -62 59
-88 33z"/>
<path d="M5340 686 c-15 -19 -9 -56 12 -69 24 -16 68 7 68 34 0 40 -55 64 -80
35z"/>
<path d="M5481 679 c-18 -20 -19 -23 -4 -45 29 -45 86 -27 81 26 -2 28 -8 34
-30 37 -18 2 -33 -4 -47 -18z"/>
<path d="M5640 675 c-24 -26 -24 -29 -4 -49 24 -25 63 -20 74 9 12 33 4 52
-25 58 -16 3 -31 -3 -45 -18z"/>
<path d="M5959 692 c-15 -2 -30 -12 -36 -25 -17 -40 -10 -52 29 -55 39 -3 58
15 52 52 -4 26 -14 32 -45 28z"/>
<path d="M6102 693 c-30 -6 -50 -47 -32 -68 13 -16 37 -19 64 -9 20 8 21 53 1
60 -8 4 -12 10 -9 15 3 5 4 8 2 8 -2 -1 -13 -4 -26 -6z"/>
<path d="M6695 693 c-40 -10 -52 -38 -30 -73 17 -27 85 1 85 35 0 11 -27 48
-33 44 -1 -1 -11 -4 -22 -6z"/>
<path d="M6812 677 c-21 -22 -21 -24 -5 -39 49 -44 112 -12 83 42 -14 27 -51
25 -78 -3z"/>
<path d="M6970 680 c-27 -27 -12 -60 29 -60 34 0 54 21 49 52 -4 32 -49 37
-78 8z"/>
<path d="M7114 675 c-8 -33 11 -55 47 -55 22 0 30 6 35 25 10 40 -1 55 -40 55
-30 0 -37 -4 -42 -25z"/>
<path d="M7427 693 c-11 -11 -8 -48 5 -61 32 -32 87 4 73 48 -5 15 -15 20 -39
20 -18 0 -36 -3 -39 -7z"/>
<path d="M7582 688 c-19 -19 -14 -55 8 -61 47 -12 86 26 60 58 -15 18 -52 19
-68 3z"/>
<path d="M7880 680 c-19 -35 -6 -51 38 -48 36 3 39 5 38 33 -1 26 -5 30 -33
33 -24 2 -34 -2 -43 -18z"/>
<path d="M8336 679 c-18 -26 -11 -47 19 -55 36 -9 65 12 65 46 0 27 -3 30 -34
30 -24 0 -39 -7 -50 -21z"/>
<path d="M3504 666 c-8 -35 2 -46 42 -46 62 0 58 62 -4 68 -26 3 -32 -1 -38
-22z"/>
<path d="M3656 671 c-20 -22 -12 -47 18 -53 37 -7 66 8 66 36 0 38 -54 50 -84
17z"/>
<path d="M3950 675 c-11 -14 -6 -54 8 -56 4 0 15 -2 25 -4 21 -4 47 20 47 45
0 30 -58 42 -80 15z"/>
<path d="M5774 676 c-3 -8 -4 -25 -2 -38 3 -20 9 -23 43 -23 33 0 40 4 45 25
4 14 2 31 -3 38 -13 17 -76 16 -83 -2z"/>
<path d="M6220 676 c-21 -26 -8 -61 23 -64 35 -4 57 13 57 43 0 35 -56 49 -80
21z"/>
<path d="M6364 678 c-4 -6 -8 -22 -10 -35 -3 -28 35 -41 71 -25 18 8 22 16 18
34 -4 13 -11 26 -17 30 -17 12 -54 9 -62 -4z"/>
<path d="M6512 678 c-22 -22 -14 -55 14 -62 53 -14 84 15 58 53 -17 23 -53 28
-72 9z"/>
<path d="M8484 676 c-12 -33 1 -51 38 -54 30 -3 37 1 43 19 5 16 2 26 -11 36
-24 17 -63 17 -70 -1z"/>
<path d="M8635 671 c-13 -42 19 -66 63 -47 26 11 30 51 6 60 -31 12 -63 6 -69
-13z"/>
<path d="M8782 678 c-6 -8 -6 -22 -1 -36 7 -19 15 -23 40 -20 39 4 59 29 40
52 -16 19 -64 21 -79 4z"/>
<path d="M1420 660 c0 -16 7 -20 34 -20 38 0 57 17 35 31 -8 5 -26 9 -41 9
-21 0 -28 -5 -28 -20z"/>
<path d="M1577 673 c-14 -13 -6 -43 14 -54 16 -8 28 -8 45 0 27 12 32 46 8 55
-21 8 -59 8 -67 -1z"/>
<path d="M1730 665 c-6 -8 -9 -23 -5 -35 6 -17 13 -21 43 -18 42 4 62 29 43
52 -17 20 -65 21 -81 1z"/>
<path d="M10696 665 c-16 -16 -12 -44 8 -47 35 -4 43 -3 58 10 13 11 15 19 7
33 -12 23 -52 25 -73 4z"/>
<path d="M10852 668 c-27 -27 1 -64 42 -54 46 11 43 66 -3 66 -15 0 -32 -5
-39 -12z"/>
<path d="M11000 665 c-20 -25 -8 -50 27 -53 38 -4 63 28 42 54 -15 18 -53 18
-69 -1z"/>
<path d="M11153 673 c-7 -2 -13 -16 -13 -29 0 -18 5 -24 23 -24 31 1 61 26 54
45 -6 14 -38 19 -64 8z"/>
<path d="M7202 588 c-16 -16 -15 -40 1 -62 10 -14 21 -17 45 -11 35 7 52 40
31 60 -21 19 -64 26 -77 13z"/>
<path d="M7362 588 c-16 -16 -15 -53 3 -68 18 -15 52 -4 66 23 10 17 8 24 -11
39 -26 21 -41 23 -58 6z"/>
<path d="M7514 586 c-12 -9 -15 -20 -10 -39 5 -22 12 -27 36 -27 35 0 56 29
37 52 -18 23 -43 28 -63 14z"/>
<path d="M7656 581 c-21 -23 -12 -49 20 -57 42 -11 72 34 42 64 -17 17 -42 15
-62 -7z"/>
<path d="M7807 594 c-16 -17 -6 -55 18 -66 32 -14 57 5 53 41 -2 21 -9 27 -33
29 -17 2 -34 0 -38 -4z"/>
<path d="M7952 588 c-29 -29 -8 -58 43 -58 31 0 52 35 34 56 -14 17 -60 19
-77 2z"/>
<path d="M8104 586 c-12 -30 1 -51 32 -54 43 -4 63 21 39 48 -21 23 -63 26
-71 6z"/>
<path d="M8263 574 c-16 -25 -16 -27 3 -41 29 -21 68 -13 72 15 8 52 -46 70
-75 26z"/>
<path d="M8725 586 c-13 -9 -16 -20 -11 -39 5 -22 12 -27 36 -27 19 0 33 7 40
19 14 27 14 29 -19 45 -23 13 -31 13 -46 2z"/>
<path d="M9020 580 c-34 -25 -23 -54 22 -58 29 -2 39 1 48 18 22 40 -30 70
-70 40z"/>
<path d="M9632 589 c-28 -11 -38 -35 -22 -54 13 -16 47 -20 67 -7 38 24 -1 78
-45 61z"/>
<path d="M2002 582 c-34 -5 -26 -45 9 -46 19 -1 25 4 27 21 2 26 -5 30 -36 25z"/>
<path d="M2275 570 c-15 -16 -14 -19 0 -34 27 -27 65 -16 65 19 0 30 -43 40
-65 15z"/>
<path d="M3150 576 c-5 -5 -10 -16 -10 -23 0 -21 31 -63 46 -63 20 0 47 46 40
68 -7 22 -59 35 -76 18z"/>
<path d="M3747 579 c-10 -6 -17 -22 -17 -38 0 -16 -7 -34 -15 -41 -17 -14 -20
-30 -4 -30 19 0 89 63 89 81 0 24 -30 40 -53 28z"/>
<path d="M3905 580 c-11 -4 -22 -6 -25 -4 -12 6 -9 -55 2 -62 9 -6 5 -10 -12
-14 -30 -7 -41 -40 -13 -40 20 0 103 78 103 98 0 17 -32 30 -55 22z"/>
<path d="M4200 583 c-46 -16 -42 -73 5 -73 23 0 55 23 55 40 0 11 -29 40 -38
39 -4 0 -14 -3 -22 -6z"/>
<path d="M4326 568 c-14 -20 -14 -24 1 -40 30 -33 95 -16 88 24 -9 42 -64 52
-89 16z"/>
<path d="M4492 578 c-17 -17 -15 -55 4 -62 19 -7 64 3 65 15 1 5 2 15 3 22 5
32 -46 51 -72 25z"/>
<path d="M4645 576 c-17 -12 -18 -18 -7 -40 13 -30 51 -35 76 -10 43 43 -18
87 -69 50z"/>
<path d="M4798 565 c-22 -49 45 -78 76 -33 21 30 4 58 -35 58 -22 0 -32 -6
-41 -25z"/>
<path d="M4950 575 c-10 -12 -10 -21 -2 -40 20 -43 92 -29 92 17 0 34 -67 51
-90 23z"/>
<path d="M5110 570 c-6 -12 -8 -30 -5 -41 5 -16 14 -20 43 -17 30 2 38 7 40
26 7 48 -56 73 -78 32z"/>
<path d="M5261 572 c-16 -31 2 -72 32 -72 32 0 58 30 50 58 -3 12 -10 22 -17
22 -6 0 -21 3 -33 6 -15 4 -24 0 -32 -14z"/>
<path d="M5421 577 c-6 -6 -11 -24 -11 -39 0 -50 70 -49 83 2 8 32 -48 61 -72
37z"/>
<path d="M5714 569 c-21 -23 -15 -51 15 -65 29 -15 48 -9 56 17 16 49 -37 85
-71 48z"/>
<path d="M5887 582 c-31 -4 -51 -33 -42 -63 5 -16 14 -20 43 -17 29 2 39 8 46
30 12 33 -8 54 -47 50z"/>
<path d="M6171 581 c-41 -11 -49 -74 -10 -86 30 -10 59 12 59 44 0 35 -17 50
-49 42z"/>
<path d="M6746 577 c-23 -17 -18 -60 7 -65 10 -2 29 -1 43 2 33 9 35 61 2 70
-31 8 -32 8 -52 -7z"/>
<path d="M6887 583 c-14 -13 -7 -64 9 -70 22 -8 64 8 78 30 9 15 7 21 -8 33
-20 14 -68 19 -79 7z"/>
<path d="M7043 578 c-5 -7 -7 -24 -4 -38 11 -42 78 -37 85 6 5 27 -12 44 -44
44 -15 0 -32 -6 -37 -12z"/>
<path d="M8412 578 c-8 -10 -8 -20 1 -37 15 -31 41 -34 69 -11 19 15 21 22 12
37 -13 22 -67 29 -82 11z"/>
<path d="M8570 570 c-19 -35 -5 -57 34 -52 38 4 51 24 36 53 -14 25 -56 25
-70 -1z"/>
<path d="M8870 575 c-6 -8 -9 -23 -5 -35 10 -32 69 -25 73 9 6 38 -43 57 -68
26z"/>
<path d="M9161 581 c-9 -6 -11 -18 -7 -35 12 -48 93 -27 84 21 -4 20 -54 29
-77 14z"/>
<path d="M9308 578 c-12 -10 -14 -19 -7 -35 12 -32 54 -35 76 -6 28 37 -30 71
-69 41z"/>
<path d="M9443 574 c-14 -38 49 -71 83 -43 19 15 18 45 -2 53 -31 12 -75 6
-81 -10z"/>
<path d="M9773 583 c-7 -2 -13 -15 -13 -29 0 -36 47 -45 72 -13 19 22 19 24 2
36 -18 13 -39 15 -61 6z"/>
<path d="M9935 582 c-24 -5 -35 -20 -35 -46 0 -11 -7 -28 -17 -38 -9 -10 -13
-21 -10 -25 8 -8 87 46 94 65 9 22 -10 48 -32 44z"/>
<path d="M2135 570 c-10 -17 14 -40 42 -40 36 0 29 44 -9 48 -14 2 -29 -2 -33
-8z"/>
<path d="M2417 574 c-4 -4 -7 -18 -7 -31 0 -20 5 -23 34 -23 35 0 53 14 52 40
-1 16 -65 27 -79 14z"/>
<path d="M2567 573 c-4 -3 -7 -17 -7 -30 0 -20 5 -23 39 -23 42 0 54 13 39 43
-9 17 -58 24 -71 10z"/>
<path d="M2723 573 c-17 -6 -16 -38 1 -53 32 -26 87 7 73 44 -6 15 -46 21 -74
9z"/>
<path d="M2861 558 c-12 -33 -3 -48 28 -48 37 0 53 14 49 41 -2 19 -10 25 -36
27 -26 3 -34 -1 -41 -20z"/>
<path d="M3004 566 c-12 -31 0 -61 27 -64 32 -4 63 29 54 57 -5 16 -15 21 -41
21 -21 0 -37 -6 -40 -14z"/>
<path d="M3297 573 c-12 -11 -8 -68 6 -87 17 -23 43 -12 56 26 19 55 15 68
-22 68 -19 0 -37 -3 -40 -7z"/>
<path d="M3447 573 c-5 -8 -10 -58 -8 -80 2 -21 24 -14 54 16 37 37 33 65 -10
69 -17 2 -33 -1 -36 -5z"/>
<path d="M3587 574 c-9 -9 -9 -84 -1 -84 4 0 22 10 41 21 44 28 43 63 -2 67
-17 2 -34 0 -38 -4z"/>
<path d="M4027 559 c-8 -31 2 -49 28 -49 34 0 58 26 45 51 -15 27 -66 26 -73
-2z"/>
<path d="M5557 574 c-11 -11 -8 -49 5 -62 31 -31 82 -3 76 40 -2 18 -10 24
-38 26 -20 2 -39 0 -43 -4z"/>
<path d="M6013 568 c-27 -34 -17 -78 17 -78 46 0 70 72 28 84 -32 8 -34 8 -45
-6z"/>
<path d="M6302 568 c-15 -15 -16 -64 -1 -73 5 -4 21 -4 33 -1 24 6 35 34 28
69 -4 20 -42 23 -60 5z"/>
<path d="M6430 559 c-16 -28 11 -70 41 -64 67 13 65 85 -3 85 -17 0 -31 -7
-38 -21z"/>
<path d="M6581 563 c-20 -38 -3 -63 44 -63 39 0 61 35 40 63 -16 23 -71 22
-84 0z"/>
<path d="M10036 554 c-9 -34 3 -46 40 -42 25 3 29 7 29 33 0 26 -4 30 -31 33
-27 3 -33 -1 -38 -24z"/>
<path d="M10192 568 c-13 -13 -17 -58 -4 -59 4 0 15 -2 25 -4 26 -5 54 40 37
60 -15 18 -42 19 -58 3z"/>
<path d="M10332 568 c-17 -17 -15 -47 3 -54 8 -4 27 -3 41 0 20 5 25 12 22 34
-2 20 -9 28 -28 30 -14 2 -31 -3 -38 -10z"/>
<path d="M10474 565 c-11 -27 4 -47 33 -43 22 2 29 9 31 31 3 24 0 27 -28 27
-18 0 -33 -6 -36 -15z"/>
<path d="M10624 565 c-12 -29 4 -48 33 -40 33 8 46 25 31 42 -14 18 -57 16
-64 -2z"/>
<path d="M10763 564 c-10 -26 12 -38 43 -23 42 21 42 39 0 39 -24 0 -39 -5
-43 -16z"/>
<path d="M4271 488 c-20 -32 5 -50 39 -28 13 8 12 12 -6 28 -20 19 -21 19 -33
0z"/>
<path d="M3993 493 c-23 -9 -15 -35 10 -31 12 2 22 9 22 17 0 16 -14 22 -32
14z"/>
<path d="M4748 487 c-50 -20 -31 -74 20 -60 27 7 35 29 17 47 -8 7 -11 16 -8
20 8 7 5 7 -29 -7z"/>
<path d="M7741 483 c-27 -30 17 -69 46 -40 9 8 13 22 10 30 -8 20 -40 26 -56
10z"/>
<path d="M7886 479 c-23 -22 -13 -39 24 -39 30 0 48 26 30 44 -16 16 -34 15
-54 -5z"/>
<path d="M8053 489 c-13 -5 -23 -16 -23 -24 0 -23 64 -16 68 6 4 21 -16 29
-45 18z"/>
<path d="M8196 484 c-27 -27 4 -45 48 -28 30 11 12 44 -24 44 -5 0 -16 -7 -24
-16z"/>
<path d="M8350 485 c-18 -22 -1 -37 36 -33 21 2 29 8 29 23 0 26 -46 33 -65
10z"/>
<path d="M8521 487 c-32 -17 -32 -31 2 -35 33 -4 58 13 50 34 -6 17 -21 18
-52 1z"/>
<path d="M8802 475 c-1 -20 3 -25 23 -25 44 0 44 30 0 44 -17 5 -21 1 -23 -19z"/>
<path d="M8968 492 c-19 -4 -24 -27 -10 -36 14 -8 52 5 52 19 0 15 -18 23 -42
17z"/>
<path d="M9109 484 c-18 -22 3 -39 30 -25 12 7 21 16 21 20 0 16 -39 19 -51 5z"/>
<path d="M9252 488 c-20 -20 -14 -30 16 -26 16 2 27 9 27 18 0 19 -27 24 -43
8z"/>
<path d="M9391 486 c-8 -10 -8 -16 1 -24 16 -12 61 3 56 20 -6 17 -44 20 -57
4z"/>
<path d="M9535 490 c-9 -15 13 -40 35 -40 22 0 44 25 35 40 -3 5 -19 10 -35
10 -16 0 -32 -5 -35 -10z"/>
<path d="M4107 484 c-15 -15 -6 -24 24 -24 20 0 29 4 27 13 -5 14 -40 21 -51
11z"/>
<path d="M4417 483 c-23 -22 25 -46 61 -30 l23 11 -23 13 c-25 14 -51 17 -61
6z"/>
<path d="M4575 477 c-24 -18 -11 -37 26 -37 33 0 51 26 28 41 -19 12 -32 11
-54 -4z"/>
<path d="M5040 478 c0 -5 -4 -7 -8 -4 -5 3 -6 -8 -4 -25 5 -35 15 -43 46 -35
26 6 40 40 22 54 -17 14 -56 21 -56 10z"/>
<path d="M6985 470 c-24 -26 -15 -54 18 -58 21 -3 29 2 37 23 6 15 8 30 5 35
-11 17 -44 17 -60 0z"/>
<path d="M7281 476 c-17 -20 5 -65 32 -66 4 0 16 9 28 21 20 20 20 22 3 40
-20 22 -47 25 -63 5z"/>
<path d="M7455 482 c-41 -9 -41 -47 0 -54 27 -6 45 8 45 33 0 19 -16 27 -45
21z"/>
<path d="M7596 478 c-9 -5 -16 -18 -16 -28 0 -15 7 -20 29 -20 34 0 45 12 37
38 -7 20 -25 24 -50 10z"/>
<path d="M8657 483 c-26 -26 19 -45 53 -23 13 9 13 11 0 20 -17 11 -44 13 -53
3z"/>
<path d="M9710 476 c0 -21 11 -25 38 -15 32 12 27 29 -8 29 -19 0 -30 -5 -30
-14z"/>
<path d="M4875 469 c-4 -5 -4 -21 -1 -34 5 -19 11 -23 34 -19 37 7 56 32 37
50 -16 16 -61 19 -70 3z"/>
<path d="M5494 466 c-18 -19 -22 -40 -12 -59 7 -14 16 -17 36 -12 40 10 52 23
43 48 -9 25 -52 39 -67 23z"/>
<path d="M5665 471 c2 -5 -4 -11 -15 -14 -23 -6 -26 -25 -6 -52 20 -28 70 -10
74 27 3 21 -2 28 -28 36 -17 6 -28 7 -25 3z"/>
<path d="M6825 460 c-22 -24 -16 -54 13 -58 49 -7 71 52 25 69 -15 5 -26 2
-38 -11z"/>
<path d="M7122 448 c3 -29 7 -33 32 -33 32 0 53 23 43 49 -4 11 -18 16 -42 16
-35 0 -36 -1 -33 -32z"/>
<path d="M5187 463 c-12 -11 -8 -40 8 -53 23 -20 65 -4 65 24 0 13 -7 27 -16
30 -21 8 -49 8 -57 -1z"/>
<path d="M5340 449 c-20 -37 28 -70 68 -45 17 11 15 37 -5 52 -26 20 -51 17
-63 -7z"/>
<path d="M5924 430 c1 -31 4 -35 29 -38 35 -4 59 14 55 42 -2 16 -12 22 -44
26 l-41 6 1 -36z"/>
<path d="M6238 459 c-11 -6 -18 -22 -18 -39 0 -25 4 -30 24 -30 27 0 59 26 53
43 -7 21 -41 36 -59 26z"/>
<path d="M6376 448 c-17 -24 -11 -45 16 -54 28 -8 61 23 48 46 -15 27 -48 31
-64 8z"/>
<path d="M6674 456 c-15 -12 -17 -18 -8 -33 17 -29 58 -29 71 0 19 42 -22 63
-63 33z"/>
<path d="M5784 436 c-8 -31 1 -46 28 -46 30 0 57 27 51 51 -4 14 -14 19 -39
19 -27 0 -35 -5 -40 -24z"/>
<path d="M6074 446 c-12 -33 0 -51 35 -51 41 0 62 25 42 49 -17 20 -70 21 -77
2z"/>
<path d="M6505 440 c-14 -43 40 -67 76 -34 27 25 8 54 -36 54 -25 0 -35 -5
-40 -20z"/>
</g>
</svg>
