<?xml version="1.0" standalone="no"?>
<!DOCTYPE svg PUBLIC "-//W3C//DTD SVG 20010904//EN"
 "http://www.w3.org/TR/2001/REC-SVG-20010904/DTD/svg10.dtd">
<svg version="1.0" xmlns="http://www.w3.org/2000/svg"
 width="1084.000000pt" height="1830.000000pt" viewBox="0 0 1084.000000 1830.000000"
 preserveAspectRatio="xMidYMid meet">
<metadata>
Created by potrace 1.16, written by Peter Selinger 2001-2019
</metadata>
<g transform="translate(0.000000,1830.000000) scale(0.100000,-0.100000)"
fill="#a7262a" stroke="none">
<path d="M2655 17894 c-173 -28 -361 -137 -490 -283 -42 -48 -135 -168 -135
-175 0 -3 -19 -37 -43 -78 -42 -71 -88 -163 -129 -256 -24 -57 -109 -319 -137
-422 -11 -41 -38 -165 -60 -275 -23 -110 -50 -243 -61 -295 -52 -257 -163
-999 -200 -1345 -66 -605 -108 -1179 -126 -1700 -4 -110 -11 -206 -16 -212 -6
-7 -26 -15 -47 -19 -63 -11 -236 -63 -312 -94 -41 -16 -75 -30 -76 -30 -2 0
-3 -14 -3 -30 0 -40 21 -47 73 -26 146 60 327 116 373 116 2 0 4 -109 4 -242
0 -134 5 -299 10 -368 5 -69 5 -129 0 -133 -4 -5 -48 -17 -96 -27 -112 -23
-251 -57 -286 -72 -31 -11 -37 -38 -13 -58 12 -10 45 -5 169 24 86 20 175 39
200 42 49 7 48 9 61 -101 20 -174 92 -466 140 -570 9 -20 11 -33 4 -40 -6 -6
-81 -11 -170 -13 -157 -3 -160 -4 -171 -27 -6 -13 -8 -31 -4 -41 6 -16 21 -17
179 -10 95 3 180 7 191 9 19 2 23 -3 103 -143 33 -58 126 -197 152 -226 5 -7
7 -15 3 -20 -4 -4 -2 -4 4 -1 7 4 18 -3 27 -16 14 -21 11 -26 -38 -85 -111
-134 -164 -290 -172 -507 -6 -160 9 -274 52 -394 32 -87 40 -73 -89 -146 -300
-169 -578 -469 -743 -801 -134 -269 -185 -484 -184 -789 1 -227 26 -377 94
-557 26 -69 87 -199 98 -208 3 -3 14 -21 25 -40 10 -19 24 -40 29 -46 6 -6 28
-33 50 -60 83 -101 217 -210 342 -280 l65 -37 -81 -43 c-117 -62 -155 -91
-262 -195 -111 -109 -118 -118 -185 -224 -238 -377 -374 -924 -374 -1499 0
-239 37 -675 71 -845 6 -30 17 -91 24 -135 7 -45 20 -112 29 -151 134 -620
139 -935 26 -1565 -51 -282 -53 -303 -54 -520 -1 -220 1 -239 46 -395 46 -158
174 -352 300 -454 35 -29 72 -60 84 -69 31 -25 196 -106 299 -146 176 -68 456
-126 710 -147 274 -23 701 4 953 61 116 25 286 81 369 121 146 70 302 198 373
309 16 25 33 50 38 55 4 6 9 13 10 18 1 4 13 29 26 56 14 27 30 69 37 95 10
39 15 45 33 42 11 -3 76 -16 144 -30 493 -103 908 -151 1397 -162 500 -12
1116 45 1620 151 66 14 129 25 140 25 16 0 24 -15 42 -69 48 -151 178 -314
332 -415 76 -50 207 -114 276 -135 22 -7 49 -16 60 -21 22 -9 70 -21 189 -45
291 -60 709 -81 987 -50 305 33 487 75 709 162 114 45 131 54 202 101 21 13
42 21 49 16 7 -4 10 -3 6 3 -5 8 53 62 108 101 6 4 33 34 60 67 28 33 52 62
55 65 3 3 20 28 37 55 78 124 141 304 162 464 21 163 12 299 -40 616 -80 483
-98 697 -81 935 12 148 40 373 61 480 5 25 14 72 20 105 6 33 20 107 30 165
39 207 75 462 93 645 16 166 15 679 -1 805 -45 354 -96 568 -197 824 -45 114
-107 236 -155 308 -22 31 -39 61 -39 67 0 5 -4 11 -8 13 -5 2 -22 23 -39 48
-17 25 -57 70 -89 100 -31 30 -99 97 -151 149 -80 82 -93 99 -93 128 0 37 34
113 50 113 16 0 254 236 286 283 16 23 32 44 35 47 20 15 122 227 147 305 67
203 82 299 82 517 0 236 -15 340 -77 533 -48 148 -60 176 -148 340 -162 303
-475 612 -761 753 -30 14 -54 31 -54 37 0 5 14 57 31 115 91 321 15 677 -198
925 -31 36 -41 55 -37 70 7 21 136 242 154 262 7 9 45 11 143 6 115 -5 134 -4
146 10 8 10 11 27 7 42 -6 25 -7 25 -126 25 -65 0 -121 4 -124 9 -3 5 15 70
39 145 46 138 98 375 110 499 5 46 11 67 20 67 8 0 73 -13 147 -30 150 -34
180 -36 198 -15 27 32 -6 48 -210 100 -132 34 -136 36 -132 71 1 16 5 176 8
357 l6 327 26 0 c26 0 229 -66 247 -80 6 -4 26 -12 46 -18 30 -8 37 -7 47 9
20 31 14 48 -25 68 -50 25 -275 101 -300 101 -40 0 -43 15 -43 240 1 511 -56
1489 -125 2165 -132 1281 -265 1874 -498 2220 -91 134 -139 189 -231 258 -143
109 -267 149 -462 148 -208 -1 -401 -66 -643 -216 -71 -44 -221 -156 -267
-200 -6 -5 -44 -39 -84 -75 -116 -103 -406 -423 -485 -534 -11 -16 -31 -43
-45 -60 -37 -46 -36 -44 -102 -136 -183 -253 -388 -586 -563 -915 -26 -49 -52
-96 -58 -103 -9 -11 -93 -13 -434 -10 -407 3 -423 4 -441 23 -17 17 -73 121
-214 395 -18 36 -35 67 -38 70 -3 3 -14 22 -25 42 -83 155 -372 597 -515 788
-399 534 -791 850 -1177 951 -77 20 -272 33 -338 23z m385 -188 c88 -32 158
-66 273 -134 50 -29 112 -80 110 -91 -2 -5 3 -8 10 -5 30 11 407 -352 391
-378 -4 -6 -3 -8 4 -5 9 6 23 -8 75 -73 7 -8 43 -52 80 -98 66 -82 109 -141
135 -188 7 -13 18 -24 23 -24 6 0 7 -4 4 -10 -3 -5 -2 -10 3 -10 12 0 45 -50
45 -67 0 -7 3 -10 7 -8 7 5 106 -145 102 -157 -1 -4 2 -8 7 -8 5 0 24 -25 43
-56 18 -31 41 -68 50 -83 32 -49 39 -61 33 -61 -3 0 4 -9 15 -20 12 -12 18
-25 15 -30 -4 -6 -2 -10 4 -10 14 0 211 -349 211 -375 0 -7 4 -15 9 -17 5 -1
11 -10 13 -18 2 -8 11 -23 21 -34 9 -11 17 -28 17 -38 0 -10 5 -18 11 -18 5 0
8 -4 5 -9 -4 -5 -2 -11 3 -13 5 -1 23 -32 41 -67 41 -82 54 -95 118 -120 51
-20 70 -21 495 -21 505 0 501 0 554 82 15 24 32 46 38 50 5 4 6 8 2 8 -5 0 0
15 11 33 11 17 35 61 54 97 108 199 146 265 197 345 25 39 48 72 53 73 4 2 8
8 8 14 0 14 84 147 110 176 11 12 18 22 15 22 -9 0 146 220 182 258 7 7 13 17
13 20 0 4 10 19 23 32 12 14 38 46 57 70 52 67 64 81 80 99 8 9 41 48 72 86
31 39 81 93 111 122 30 28 53 53 51 56 -2 2 27 32 64 66 37 35 92 86 122 115
30 28 84 74 119 101 105 82 99 79 119 64 15 -13 16 -12 4 3 -12 14 -6 21 45
55 258 173 541 242 747 182 39 -11 77 -28 84 -37 6 -9 12 -12 12 -8 0 10 66
-30 118 -74 56 -46 154 -169 146 -182 -4 -7 -2 -8 4 -4 22 13 143 -222 201
-389 67 -197 137 -507 187 -835 8 -58 20 -132 25 -165 19 -120 84 -675 99
-840 64 -709 81 -1021 116 -2079 l7 -209 -34 7 c-19 3 -108 9 -199 12 -190 7
-356 -10 -535 -54 -80 -20 -112 -32 -122 -48 -12 -18 -11 -24 4 -42 l18 -20
140 28 c281 58 438 63 688 24 l38 -6 -2 -226 c-2 -219 -15 -471 -24 -480 -2
-2 -59 6 -127 18 -68 12 -152 25 -188 30 -36 5 -101 14 -145 20 -255 37 -390
47 -410 30 -18 -15 -20 -54 -2 -68 6 -5 62 -15 122 -21 61 -7 169 -21 240 -31
72 -10 168 -24 215 -30 93 -12 244 -38 274 -47 16 -5 18 -12 12 -67 -9 -89
-52 -309 -76 -394 -27 -91 -88 -245 -102 -253 -12 -7 -188 33 -273 63 -162 56
-273 102 -390 163 -131 67 -159 74 -179 43 -23 -37 10 -62 182 -145 92 -45
183 -88 202 -96 66 -28 325 -109 365 -114 22 -2 43 -8 48 -12 7 -7 -34 -74
-136 -226 -85 -127 -404 -410 -438 -389 -5 3 -9 1 -9 -4 0 -8 -95 -51 -245
-110 -65 -26 -199 -62 -229 -62 -12 0 -61 13 -107 29 -118 41 -225 54 -387 49
-141 -5 -135 -4 -297 -69 -56 -22 -156 -71 -167 -82 -23 -22 -89 -69 -92 -66
-1 2 -23 47 -49 99 -65 130 -60 122 -202 298 -5 7 -31 34 -57 61 l-47 48 50
99 c68 136 108 311 109 472 0 73 2 82 18 82 37 0 55 35 50 92 -14 144 -115
295 -224 333 -49 17 -91 -1 -100 -43 -3 -15 -7 -33 -9 -39 -3 -7 0 -12 5 -10
14 3 100 -56 100 -70 0 -6 6 -13 13 -16 14 -5 -57 -37 -82 -37 -9 0 -21 -4
-26 -9 -6 -5 -48 -19 -95 -31 -104 -26 -343 -37 -470 -21 -114 14 -243 40
-254 52 -6 5 -22 9 -37 9 -15 0 -31 5 -34 10 -3 6 -16 10 -28 10 -12 0 -55 12
-95 27 l-73 28 3 114 c3 102 5 115 23 125 78 41 96 59 126 119 17 34 56 99 87
145 48 72 56 91 60 141 10 139 -83 186 -368 185 -271 -1 -370 -46 -370 -169 0
-51 14 -84 72 -165 21 -30 36 -60 34 -67 -3 -7 -2 -13 2 -13 5 0 14 -17 21
-37 16 -45 103 -133 130 -133 11 0 23 -6 27 -12 10 -15 14 -222 5 -236 -9 -14
-246 -88 -360 -113 -140 -30 -377 -37 -512 -15 -140 23 -226 44 -273 68 l-40
20 57 53 c61 55 70 84 40 117 -23 26 -53 22 -106 -13 -76 -50 -135 -139 -163
-244 -23 -84 -19 -121 16 -147 28 -20 30 -26 30 -89 0 -119 32 -314 65 -393
17 -41 7 -69 -24 -64 -8 2 -16 -2 -16 -8 0 -6 -44 -50 -97 -98 -54 -48 -98
-90 -98 -94 0 -4 -15 -23 -33 -43 -17 -19 -48 -58 -66 -85 -19 -27 -37 -51
-40 -54 -4 -3 -18 -28 -32 -55 -19 -35 -32 -49 -45 -48 -46 5 -246 4 -305 -2
-35 -4 -94 -16 -130 -26 -83 -24 -101 -24 -197 1 -147 39 -297 82 -307 88 -5
4 -45 18 -88 32 -43 14 -74 30 -70 35 4 4 3 5 -3 2 -16 -9 -195 73 -187 86 3
6 1 7 -6 3 -12 -8 -110 48 -124 71 -4 7 -14 13 -22 13 -16 0 -151 130 -222
215 -75 89 -146 202 -137 216 4 8 3 10 -4 5 -7 -4 -18 7 -29 29 -15 31 -15 37
-3 45 8 6 24 10 35 10 27 0 254 72 343 109 39 16 72 27 72 24 0 -3 6 0 13 6
24 19 244 130 251 126 3 -3 4 -2 1 2 -3 3 4 12 15 20 33 23 23 83 -14 83 -11
0 -37 -10 -56 -22 -180 -110 -530 -247 -675 -264 l-51 -6 -32 79 c-33 86 -38
102 -77 263 -29 124 -70 358 -64 364 2 3 63 14 134 26 72 11 157 25 190 30 33
5 148 21 255 35 107 14 204 28 216 31 26 7 34 31 22 63 -9 26 -13 26 -208 1
-41 -5 -113 -14 -160 -20 -200 -25 -231 -30 -400 -59 -30 -5 -56 -8 -58 -6 -2
1 -8 90 -13 196 -13 230 -9 503 7 519 28 28 423 21 559 -10 22 -5 80 -19 129
-30 80 -19 90 -19 111 -6 31 21 22 54 -20 72 -49 20 -247 62 -355 74 -52 6
-168 10 -257 9 -90 -1 -166 0 -169 4 -9 8 -6 205 6 427 26 481 31 572 40 665
5 55 14 156 20 225 20 232 50 535 60 595 5 33 19 137 30 230 11 94 25 199 31
235 10 72 52 344 74 490 59 381 149 813 211 1015 131 421 319 729 535 876 120
81 192 100 369 95 126 -3 142 -5 240 -40z m1458 -6318 c23 -1 42 -3 42 -4 0
-7 -60 -144 -71 -162 -25 -39 -46 -25 -94 62 -31 56 -46 102 -37 111 4 4 32 4
62 1 30 -4 74 -7 98 -8z m1757 2 c9 -14 -70 -156 -84 -152 -7 1 -10 -2 -7 -7
3 -5 -1 -14 -8 -21 -12 -9 -18 -7 -30 12 -27 41 -57 141 -46 152 5 5 37 11 71
13 34 1 64 5 67 8 9 9 30 6 37 -5z m-910 -340 c135 -10 227 -21 310 -40 282
-63 468 -144 676 -296 77 -57 231 -212 223 -225 -3 -5 -1 -8 5 -7 14 4 62 -63
54 -76 -3 -6 -3 -8 2 -4 8 8 65 -74 109 -157 14 -28 31 -77 37 -109 10 -55 9
-60 -14 -85 -83 -91 -203 -338 -240 -496 -11 -43 -19 -54 -60 -82 -72 -48
-252 -102 -472 -141 -105 -19 -147 -26 -350 -54 -121 -17 -795 -17 -920 0
-189 26 -303 45 -312 51 -5 3 -14 31 -20 61 -38 188 -112 367 -214 516 -26 40
-45 75 -41 79 4 5 1 5 -5 1 -7 -4 -13 -3 -13 2 0 13 -106 120 -165 167 -27 22
-51 43 -53 48 -2 4 -8 7 -13 7 -5 0 -33 16 -62 35 -28 19 -56 35 -62 35 -5 0
-24 9 -42 20 l-32 19 61 92 c34 50 67 93 75 96 7 3 13 12 13 20 0 8 5 11 10 8
6 -3 10 -2 10 4 0 5 23 31 52 58 28 26 64 60 80 76 16 15 34 24 40 21 6 -4 8
-3 5 3 -3 5 9 18 27 29 18 10 61 38 96 62 35 23 71 42 81 42 9 0 19 4 21 8 4
10 131 71 156 75 9 2 26 8 37 14 43 23 254 77 380 98 93 15 256 30 350 34 22
0 103 -4 180 -9z m2355 -780 c159 -31 331 -102 510 -214 99 -62 262 -179 267
-193 3 -7 11 -13 18 -13 20 0 399 -379 515 -515 23 -27 69 -80 102 -117 33
-37 68 -77 76 -90 32 -46 148 -158 164 -158 8 0 27 9 42 21 43 33 36 83 -18
145 -160 180 -303 353 -298 360 4 4 2 4 -5 1 -6 -4 -21 5 -32 19 -21 27 -28
54 -13 54 5 0 29 14 55 31 34 22 53 29 69 23 58 -17 255 -146 299 -196 9 -10
21 -18 27 -18 33 0 338 -337 324 -358 -2 -3 1 -8 7 -11 15 -10 94 -134 94
-148 0 -7 3 -13 7 -13 22 0 121 -240 160 -387 77 -290 61 -639 -41 -903 -16
-44 -35 -82 -40 -85 -5 -4 -9 -13 -9 -21 0 -20 -86 -155 -94 -147 -3 3 -6 0
-6 -8 0 -21 -119 -148 -194 -208 -137 -109 -314 -186 -512 -222 -104 -19 -143
-21 -304 -16 -102 3 -201 10 -220 16 -19 5 -61 15 -92 22 -32 7 -58 16 -58 21
0 4 -13 8 -29 8 -17 0 -33 5 -36 10 -3 6 -15 10 -26 10 -10 0 -19 5 -19 11 0
5 -4 8 -8 5 -17 -10 -155 67 -267 150 -128 94 -292 270 -392 419 -78 117 -131
201 -165 265 -79 147 -95 177 -117 230 -13 30 -37 83 -52 118 -16 34 -29 65
-29 67 0 4 -44 102 -86 191 -17 35 -69 64 -115 64 -18 0 -92 30 -177 73 -183
90 -237 140 -305 279 -58 120 -69 179 -65 363 3 142 4 150 23 152 11 1 47 5
81 8 59 7 170 -5 244 -27 82 -24 200 -71 200 -81 0 -6 3 -8 6 -4 8 8 96 -36
155 -78 25 -18 55 -36 66 -39 28 -9 65 23 57 49 -7 25 -108 100 -196 145 -36
19 -64 39 -61 44 3 5 1 6 -5 2 -6 -4 -19 -2 -29 3 -10 6 -47 19 -83 30 -142
43 -207 55 -315 56 l-110 2 3 29 c9 74 114 327 145 346 7 4 8 8 3 8 -13 0 20
49 83 119 l39 44 108 0 c80 0 130 -6 189 -22 143 -38 382 -173 379 -213 -1
-10 4 -14 12 -11 8 3 26 -6 41 -21 29 -30 55 -33 77 -10 25 24 20 37 -31 87
-85 81 -146 126 -238 175 -104 54 -185 82 -310 106 -50 10 -94 22 -98 26 -11
10 63 61 76 53 6 -3 7 -2 4 4 -7 11 99 63 168 83 110 32 239 32 405 0z m-4135
-82 c94 -27 239 -104 260 -138 3 -5 -16 -11 -42 -15 -199 -24 -403 -110 -549
-232 -28 -23 -55 -39 -59 -35 -5 4 -5 2 -2 -4 8 -14 -17 -37 -27 -26 -4 4 -6
3 -5 -3 2 -5 -3 -21 -11 -35 -14 -26 -14 -28 2 -47 20 -25 51 -12 124 50 183
157 433 249 630 231 62 -6 74 -10 85 -30 7 -13 16 -24 20 -24 9 0 53 -72 51
-82 -1 -5 2 -8 7 -8 16 0 101 -177 136 -284 38 -114 40 -126 24 -126 -5 0 -7
5 -3 12 4 7 3 8 -4 4 -6 -4 -58 -9 -114 -11 -195 -7 -391 -74 -580 -198 -77
-50 -103 -82 -88 -107 5 -8 7 -17 4 -21 -10 -17 61 5 104 31 86 53 123 71 134
64 6 -4 8 -3 5 3 -9 14 140 77 248 105 97 26 311 31 325 8 26 -42 23 -256 -5
-373 -16 -69 -69 -185 -93 -204 -10 -9 -11 -12 -2 -7 20 10 -21 -38 -93 -108
-91 -89 -252 -168 -342 -168 -63 0 -102 -23 -127 -77 -12 -26 -24 -50 -27 -53
-3 -3 -7 -12 -9 -20 -1 -8 -7 -24 -12 -35 -5 -11 -37 -85 -71 -165 -97 -231
-282 -554 -381 -666 -19 -21 -42 -52 -51 -67 -10 -15 -23 -25 -29 -21 -6 4 -8
3 -5 -3 6 -9 -95 -120 -168 -183 -172 -150 -388 -258 -600 -300 -33 -7 -145
-14 -250 -16 -158 -3 -208 0 -298 17 -60 11 -125 26 -144 34 -20 8 -42 15 -49
15 -22 0 -173 75 -244 121 -137 89 -307 287 -377 439 -37 80 -81 221 -92 293
-6 34 -15 92 -21 128 -48 308 51 737 238 1024 26 38 51 73 57 77 5 4 6 8 2 8
-4 0 20 37 54 83 62 81 248 271 257 262 3 -2 13 6 23 19 25 32 178 146 195
146 8 0 14 5 14 12 0 6 3 9 6 5 3 -3 14 3 23 12 10 10 39 26 64 36 l46 17 44
-28 c25 -16 52 -33 61 -39 14 -8 4 -24 -65 -100 -44 -49 -135 -154 -201 -233
-147 -174 -161 -213 -90 -251 35 -19 68 0 126 69 27 33 53 57 59 53 6 -3 7 -1
3 5 -3 6 13 33 38 61 33 37 47 46 55 38 9 -9 11 -8 6 4 -7 17 59 102 165 214
111 117 347 351 389 385 23 19 60 51 82 70 79 68 323 230 348 230 6 0 11 4 11
8 0 10 79 46 98 45 7 -1 11 2 8 5 -18 18 270 105 399 121 96 12 217 3 300 -21z
m2915 -978 c0 -90 -2 -100 -18 -100 -10 0 -24 6 -30 13 -8 7 -42 12 -90 12
-69 0 -81 -3 -114 -28 -20 -16 -51 -51 -68 -78 -18 -27 -36 -46 -41 -43 -5 3
-9 2 -8 -3 8 -35 -83 -99 -129 -90 -60 11 -75 18 -132 56 -154 102 -239 91
-380 -50 -36 -36 -65 -57 -72 -53 -6 4 -8 3 -5 -3 8 -13 -36 -30 -81 -32 -44
-2 -84 21 -151 86 -136 133 -238 132 -402 -3 -98 -81 -161 -83 -236 -8 -26 27
-42 51 -39 59 3 8 2 14 -2 12 -4 -1 -24 16 -43 38 -35 39 -36 41 -30 102 4 34
10 65 13 68 4 4 31 2 62 -5 31 -6 60 -9 65 -6 5 4 40 0 78 -8 37 -8 156 -20
263 -27 271 -17 530 -7 920 36 144 16 516 104 615 145 52 22 55 17 55 -90z
m192 -610 c21 -15 34 -31 30 -35 -4 -5 -2 -5 4 -2 7 4 23 -2 37 -13 14 -11 42
-27 62 -36 20 -8 38 -21 41 -29 9 -22 -48 -134 -95 -187 -73 -82 -177 -142
-349 -202 -204 -71 -414 -119 -617 -140 -27 -3 -99 -11 -160 -18 -146 -16
-712 -17 -870 0 -165 17 -269 32 -340 49 -33 8 -73 16 -90 19 -64 10 -175 37
-175 43 0 3 7 15 15 25 21 27 19 43 -6 57 -33 17 -73 -4 -66 -37 7 -38 -9 -38
-32 1 -23 39 -30 41 -71 20 -27 -14 -32 -13 -79 10 -47 24 -50 27 -40 52 17
46 -20 67 -75 42 -20 -9 -29 -9 -41 1 -20 17 -19 30 4 30 10 0 31 7 47 15 26
13 30 13 49 -5 12 -11 26 -20 32 -20 14 0 37 28 39 49 2 9 10 21 20 26 60 36
114 73 143 98 l33 28 20 -20 c23 -25 41 -27 62 -5 20 20 20 30 -1 52 -35 36
-28 45 28 38 67 -9 75 -15 50 -33 -23 -16 -28 -61 -8 -69 8 -3 26 0 40 5 21 8
27 17 27 41 0 27 3 31 22 28 13 -2 24 -11 26 -23 2 -11 8 -24 12 -29 12 -12
60 2 57 17 -3 15 29 13 183 -8 179 -26 689 -32 905 -11 151 14 498 66 546 81
11 4 29 8 42 9 12 2 29 6 37 9 8 3 80 26 160 50 80 25 170 54 200 65 61 23 55
24 142 -38z m430 -244 c61 -35 133 -116 149 -164 6 -20 26 -67 45 -104 18 -36
30 -69 27 -72 -4 -3 -2 -6 4 -6 12 0 67 -117 123 -264 63 -166 80 -195 191
-314 29 -31 47 -58 43 -65 -4 -7 -4 -9 1 -5 4 4 21 -9 37 -30 16 -20 41 -52
56 -71 15 -19 26 -40 24 -45 -2 -6 -1 -8 3 -4 9 9 93 -69 211 -195 33 -34 98
-70 314 -170 25 -11 57 -28 71 -38 14 -10 29 -16 33 -12 3 3 6 1 6 -5 0 -6
-10 -18 -22 -25 -13 -8 -46 -29 -75 -47 -28 -18 -54 -32 -57 -32 -29 5 -366
-349 -366 -384 0 -3 -13 -24 -29 -47 -137 -200 -271 -558 -336 -902 -35 -184
-61 -284 -80 -305 -19 -21 -20 -56 -2 -63 19 -7 10 -106 -10 -129 -15 -16 -14
-43 1 -78 5 -12 -1 -16 -20 -18 -36 -3 -54 -19 -54 -48 0 -28 28 -46 52 -33
18 10 34 -4 24 -20 -3 -4 -6 -31 -7 -60 -2 -35 -6 -51 -16 -51 -7 0 -22 -9
-33 -20 -16 -16 -18 -24 -8 -44 6 -14 14 -25 17 -24 36 4 41 -3 41 -56 0 -50
-2 -56 -27 -68 -40 -19 -42 -53 -4 -73 29 -14 31 -19 31 -69 0 -40 -5 -57 -20
-71 -27 -24 -25 -57 5 -85 33 -31 37 -118 5 -138 -27 -17 -25 -48 5 -84 17
-20 25 -42 25 -69 0 -30 -5 -42 -25 -55 -34 -22 -33 -59 3 -76 24 -12 27 -20
30 -65 3 -51 2 -53 -30 -66 -28 -11 -32 -18 -33 -48 0 -34 1 -35 38 -35 l37 1
0 -57 c0 -54 -1 -58 -24 -58 -35 0 -52 -25 -38 -55 11 -24 16 -27 57 -29 16
-1 20 -8 20 -40 0 -38 -7 -48 -47 -60 -22 -7 -24 -49 -3 -66 8 -7 24 -10 35
-7 19 5 20 0 20 -65 0 -60 -2 -69 -16 -64 -31 12 -60 -4 -62 -35 -2 -22 2 -29
15 -30 52 -4 49 0 45 -61 -1 -13 -18 -40 -37 -61 -34 -37 -35 -39 -19 -69 12
-24 13 -33 3 -42 -9 -8 -10 -8 -4 4 7 12 6 13 -7 3 -8 -7 -18 -10 -21 -6 -12
12 -37 -20 -37 -47 0 -19 6 -29 20 -33 11 -3 20 -12 20 -21 0 -13 -10 -15 -47
-13 -45 2 -48 0 -49 -23 -1 -31 13 -50 37 -50 22 0 24 -9 7 -33 -11 -15 -17
-16 -45 -5 -25 9 -36 9 -44 1 -16 -16 -3 -60 21 -68 11 -3 20 -14 20 -23 0
-18 -19 -52 -21 -39 -1 4 -2 10 -3 15 -4 21 -19 30 -44 26 -35 -7 -44 -17 -40
-44 4 -33 33 -48 58 -32 20 12 20 12 5 -25 -9 -21 -27 -50 -41 -64 -15 -16
-27 -41 -28 -60 -4 -48 -3 -47 -31 -41 -49 9 -76 -45 -35 -70 11 -7 20 -23 20
-35 0 -27 -6 -29 -26 -8 -21 20 -40 19 -64 -5 -24 -24 -25 -34 -4 -54 19 -19
51 -21 57 -3 2 6 7 10 10 7 11 -11 -38 -125 -62 -146 -23 -19 -24 -24 -13 -48
19 -42 16 -59 -10 -53 -12 3 -29 2 -38 -3 -43 -23 -29 -80 20 -80 l29 0 -5
-53 c-8 -70 -10 -77 -33 -77 -21 0 -33 -30 -20 -52 5 -9 20 -19 34 -22 27 -7
30 -13 16 -35 -7 -11 -15 -10 -45 4 l-37 18 -34 -33 c-19 -19 -36 -32 -38 -29
-3 2 -10 14 -16 27 -10 18 -19 22 -44 20 -31 -3 -33 -6 -52 -64 0 -1 -11 -5
-24 -9 -22 -7 -23 -5 -18 33 6 57 -17 65 -65 25 -13 -12 -15 -20 -6 -39 6 -13
9 -26 7 -28 -9 -9 -308 -54 -474 -71 -517 -54 -1198 -44 -1705 25 -41 5 -113
15 -160 21 -47 6 -90 15 -96 20 -7 5 -15 25 -18 44 -4 19 -12 36 -19 37 -36 4
-43 2 -57 -17 -8 -11 -15 -23 -15 -27 0 -5 -3 -8 -7 -8 -5 0 -12 0 -18 0 -5 0
-10 9 -10 20 0 39 -71 55 -90 20 -14 -27 -34 -25 -65 6 -18 18 -31 23 -43 18
-22 -10 -99 -11 -108 -1 -14 14 -3 101 17 133 21 34 17 61 -11 81 -33 24 -32
148 1 128 13 -8 31 33 24 55 -5 16 -15 20 -47 20 -37 0 -40 2 -34 23 20 68 19
75 -5 79 -22 3 -24 7 -22 55 2 44 -2 57 -22 77 -14 14 -25 37 -25 51 0 14 -13
38 -30 57 -16 17 -30 40 -30 52 0 12 -9 36 -20 54 -11 17 -16 32 -12 32 4 0 2
4 -4 8 -7 4 -24 28 -38 55 l-27 47 34 0 c38 0 57 15 57 45 0 45 -47 60 -77 25
-21 -24 -39 -26 -47 -4 -11 27 -7 35 24 45 34 12 41 47 14 73 -21 22 -40 20
-58 -5 l-14 -21 -11 21 c-10 17 -8 24 14 43 43 37 23 87 -30 74 -22 -6 -25 -3
-25 19 0 15 5 35 11 47 9 17 6 24 -20 47 -38 33 -56 94 -34 116 8 8 18 15 23
15 5 0 14 9 20 21 9 17 8 23 -7 35 -10 7 -28 14 -40 14 -19 0 -22 6 -25 60 -4
74 -2 80 27 80 39 0 40 38 1 74 -31 29 -32 34 -27 84 5 43 10 55 31 65 36 18
38 59 5 81 -23 15 -25 22 -22 72 4 45 9 60 30 78 14 11 28 31 32 43 5 18 1 24
-20 29 -25 6 -26 9 -23 67 l3 61 38 9 c33 8 38 13 35 35 -2 18 -10 28 -28 32
-22 5 -25 11 -25 55 0 28 -4 60 -8 73 -5 12 -5 22 0 21 31 -5 64 4 73 20 15
29 2 51 -30 51 -33 0 -41 15 -27 48 8 16 8 32 0 52 -13 35 -9 40 33 40 24 0
33 5 37 22 10 36 -16 66 -52 60 -23 -3 -31 0 -31 11 0 9 5 19 11 22 5 4 15 18
20 32 8 21 6 30 -10 47 -16 17 -19 32 -16 76 3 69 3 68 15 50 5 -8 10 -10 10
-4 0 7 11 15 25 18 14 4 25 12 25 18 0 16 -31 48 -46 48 -17 0 -36 34 -24 46
4 5 10 20 12 34 2 19 -1 24 -14 22 -19 -3 -19 -1 -22 108 -1 43 0 44 29 45 26
0 30 4 33 33 4 38 -16 51 -53 34 -21 -10 -23 -9 -20 9 2 10 11 29 19 41 22 32
20 55 -8 73 -18 12 -25 28 -30 72 -4 31 -13 83 -21 117 -7 34 -23 106 -35 161
-37 174 -51 228 -82 320 -45 134 -95 259 -144 359 -24 49 -44 96 -44 103 0 8
-5 11 -10 8 -5 -3 -10 -1 -10 5 0 7 -14 31 -31 55 -17 24 -32 56 -33 72 -3 38
-15 55 -51 74 -27 14 -30 19 -27 59 3 52 -9 63 -60 54 -31 -5 -38 -3 -38 10 0
9 9 25 20 36 25 25 26 49 3 66 -25 19 -47 17 -68 -6 -17 -19 -18 -19 -62 17
-36 30 -43 41 -38 60 4 17 -1 30 -19 46 -25 23 -44 77 -26 77 5 0 10 -9 10
-21 0 -28 17 -58 32 -55 57 10 83 49 59 87 -16 26 -15 27 21 25 28 -1 35 4 50
37 22 45 46 50 40 7 -3 -25 0 -30 22 -36 45 -11 71 2 74 36 1 16 -1 30 -5 30
-5 0 -16 7 -27 15 -27 21 -11 36 21 20 30 -16 62 -5 64 23 1 9 2 24 3 32 1 21
71 90 91 90 8 0 14 -5 12 -11 -4 -18 28 -32 56 -25 23 5 36 25 43 63 1 7 -11
18 -27 25 -16 7 -29 19 -29 25 0 16 14 16 57 1 29 -11 36 -10 53 7 10 11 20
34 22 50 2 19 10 32 22 35 25 7 56 50 59 79 1 14 13 27 33 37 25 12 31 21 29
39 -1 14 -7 31 -14 38 -13 16 -5 28 14 21 7 -3 23 -1 34 6 26 13 27 51 4 87
-18 26 -17 27 2 18 32 -13 67 -11 75 5 4 8 12 26 19 39 8 14 8 21 2 16 -6 -3
-11 -1 -11 4 0 6 -7 11 -15 11 -8 0 -15 7 -15 15 0 13 4 14 21 5 29 -16 68 -4
78 23 7 18 3 27 -20 48 -31 27 -29 45 2 28 24 -12 55 3 64 32 5 16 -1 30 -26
55 -26 27 -30 37 -21 46 10 10 15 10 22 -2 5 -8 6 -18 4 -22 -3 -5 -2 -8 3 -7
22 4 31 -4 36 -31 9 -43 41 -70 81 -70 37 0 48 10 50 44 1 13 8 21 19 21 18 0
47 30 47 47 0 4 -11 18 -25 30 -14 12 -25 26 -25 31 0 5 -8 19 -17 31 -15 19
-23 21 -50 14 -42 -11 -44 -16 -26 -58 9 -19 15 -38 15 -42 -1 -4 5 -5 12 -2
21 8 61 -35 47 -49 -8 -8 -20 -4 -43 13 -17 13 -38 23 -46 23 -10 0 -13 11
-10 43 2 32 -1 45 -15 53 -10 7 -15 16 -12 20 3 5 -1 12 -7 15 -7 3 1 5 17 5
64 -2 75 1 75 19 0 9 -7 26 -15 36 -8 11 -15 32 -15 48 0 42 8 39 58 -24 10
-13 11 -20 1 -36 -14 -22 -5 -57 12 -46 8 4 9 3 5 -4 -4 -7 -2 -12 3 -12 6 0
11 6 11 13 0 6 8 -4 18 -23 21 -44 50 -49 88 -17 l28 25 11 -22 c8 -16 19 -20
45 -19 19 2 46 4 60 5 61 4 68 0 63 -35 -5 -40 14 -60 54 -55 25 3 28 7 26 36
-1 40 16 38 36 -4 8 -16 18 -31 23 -32 4 -2 6 -7 3 -12 -10 -16 34 2 51 21 22
24 32 24 60 -2 20 -19 26 -20 58 -8 27 10 41 10 61 1 14 -7 39 -12 55 -12 32
0 48 -15 25 -24 -20 -7 -19 -45 0 -52 21 -8 75 15 75 32 0 8 -5 14 -11 14 -5
0 -8 4 -5 9 4 5 0 12 -6 15 -7 3 1 3 17 -1 39 -8 45 -11 45 -29 0 -17 31 -19
47 -3 7 7 137 12 409 14 466 3 709 16 774 40 25 9 78 23 118 31 40 7 81 18 91
24 47 25 524 135 547 126 8 -3 13 -2 10 3 -3 5 32 28 78 51 46 23 87 48 90 56
3 9 11 12 17 8 8 -5 9 -3 5 5 -5 8 0 14 13 18 12 3 21 8 21 12 0 3 13 20 28
36 34 36 85 126 101 177 l12 37 37 -17 c20 -10 58 -30 84 -46z m-3847 -1025
c3 -5 0 -13 -6 -17 -7 -4 -9 -3 -5 4 3 5 0 13 -6 15 -9 4 -10 6 -1 6 6 1 14
-3 18 -8z m-75 -97 c0 -8 -19 -13 -24 -6 -3 5 1 9 9 9 8 0 15 -2 15 -3z m6184
-508 c293 -93 498 -287 670 -633 304 -613 346 -1410 131 -2513 -24 -122 -56
-338 -66 -440 -32 -351 -20 -569 61 -1065 63 -379 68 -551 24 -730 -8 -33 -17
-71 -20 -85 -12 -56 -104 -220 -150 -270 -8 -8 -26 -30 -41 -49 -46 -57 -170
-149 -265 -197 -49 -25 -93 -42 -97 -39 -5 3 -7 14 -4 25 3 11 8 18 12 16 7
-4 7 -4 17 203 9 193 -15 329 -83 464 -27 54 -44 64 -79 49 -31 -15 -31 -37 2
-113 82 -195 94 -408 34 -601 -29 -96 -40 -106 -145 -130 -50 -11 -100 -22
-112 -23 -11 -2 -29 -6 -40 -9 -85 -27 -468 -65 -484 -49 -6 6 -2 35 11 74 51
161 75 467 50 642 -24 167 -36 188 -96 173 -22 -6 -30 -23 -24 -51 48 -238 40
-516 -21 -721 -12 -38 -23 -79 -26 -92 -3 -13 -12 -26 -21 -29 -22 -9 -308 15
-452 38 -148 23 -218 39 -230 54 -19 23 -40 165 -40 276 0 145 21 272 70 419
41 124 40 140 -11 140 -34 0 -48 -18 -84 -115 -62 -165 -91 -425 -68 -596 7
-51 6 -71 -4 -85 -7 -10 -13 -13 -13 -8 0 5 -8 10 -18 11 -37 3 -198 88 -273
145 -123 93 -214 232 -256 390 -31 120 -17 354 32 521 28 97 104 295 140 367
13 25 33 69 45 98 13 28 27 52 32 52 5 0 7 4 4 9 -3 4 15 53 39 107 25 54 45
105 45 112 0 6 4 12 8 12 5 0 9 6 9 13 0 6 12 50 26 97 53 173 60 230 60 460
0 118 -8 303 -16 410 -32 395 -40 602 -34 960 3 195 10 393 16 440 6 47 16
128 22 180 6 52 18 127 26 165 8 39 18 95 23 125 12 67 76 311 97 365 8 22 28
74 43 115 57 157 210 434 263 479 10 7 17 19 17 25 0 10 166 175 225 224 86
71 255 155 346 172 29 6 131 14 227 20 96 5 177 12 180 15 3 3 47 5 97 5 70 0
111 -6 169 -24z m-6840 -31 c-4 -8 -14 -15 -23 -15 -14 1 -13 3 3 15 25 19 27
19 20 0z m-918 -15 c137 -30 369 -45 484 -32 92 11 97 11 162 -15 37 -14 75
-33 85 -42 10 -9 31 -22 46 -29 48 -21 131 -87 225 -179 97 -95 243 -298 288
-401 14 -31 32 -70 39 -87 7 -16 25 -56 39 -87 66 -149 149 -450 181 -658 69
-453 80 -987 35 -1615 -32 -452 -26 -690 24 -877 30 -114 98 -289 177 -456 27
-57 46 -108 43 -114 -4 -6 -3 -8 3 -5 12 7 19 -8 79 -157 105 -261 136 -431
114 -623 -19 -177 -61 -272 -175 -401 -43 -48 -155 -139 -167 -135 -5 2 -8 -1
-8 -5 0 -10 -181 -97 -222 -107 -26 -7 -26 -6 -22 37 2 23 9 63 14 88 9 48 6
144 -10 251 -24 163 -118 402 -172 433 -17 11 -28 13 -28 6 0 -6 -4 -8 -10 -5
-5 3 -15 -5 -21 -18 -9 -21 -4 -39 40 -128 73 -151 94 -248 94 -439 1 -111 -3
-170 -14 -210 l-16 -55 -69 -18 c-153 -38 -473 -72 -624 -65 l-75 3 5 85 c16
267 -11 699 -46 757 -15 24 -48 24 -73 -2 -13 -12 -13 -27 -3 -102 26 -194 35
-363 29 -536 -3 -98 -10 -184 -16 -190 -7 -9 -36 -10 -113 -4 -106 8 -330 42
-383 57 -16 5 -72 20 -124 34 -122 33 -136 43 -156 113 -51 176 -32 426 45
571 16 31 30 65 30 74 0 16 -38 45 -50 39 -3 -2 -13 -7 -22 -12 -23 -13 -82
-138 -104 -224 -15 -54 -19 -106 -19 -225 0 -85 3 -171 6 -191 6 -36 6 -37
-21 -29 -41 12 -68 28 -145 86 -71 52 -103 83 -104 97 -1 4 -3 6 -5 5 -16 -10
-111 123 -98 138 4 4 2 4 -4 1 -22 -12 -89 138 -121 273 -22 93 -25 415 -5
525 50 266 87 490 102 615 6 52 15 125 21 162 22 160 5 464 -41 728 -23 126
-51 278 -60 315 -18 79 -53 275 -74 415 -94 630 -66 1183 86 1665 36 114 146
370 166 385 4 3 17 27 30 53 14 30 26 45 34 41 6 -4 8 -3 5 3 -8 13 68 117
135 186 107 107 222 183 353 233 75 28 90 29 201 4z"/>
<path d="M2705 17417 c-105 -30 -240 -141 -307 -252 -134 -223 -216 -457 -291
-835 -83 -414 -113 -953 -66 -1197 44 -230 137 -351 293 -383 53 -11 85 -10
171 6 64 12 202 95 271 163 16 17 34 31 38 31 5 0 19 10 31 23 42 40 87 72 98
69 7 -2 9 0 5 4 -11 10 131 96 144 88 6 -4 8 -3 5 3 -10 17 232 111 252 99 5
-4 11 -2 13 2 1 5 73 23 158 41 216 46 307 74 365 115 100 72 136 167 117 316
-6 47 -18 107 -27 134 -9 26 -18 56 -20 65 -5 23 -129 330 -149 368 -9 18 -16
35 -17 38 0 2 -24 57 -54 121 -30 64 -55 118 -55 120 0 3 -18 35 -41 72 -23
37 -42 72 -43 77 -5 26 -230 360 -278 413 -22 24 -36 48 -32 54 4 6 3 8 -3 5
-13 -8 -86 67 -76 77 5 4 4 6 -2 4 -5 -1 -35 16 -65 38 -161 119 -303 158
-435 121z"/>
<path d="M7950 17376 c-63 -18 -109 -39 -159 -70 -23 -15 -46 -24 -52 -21 -5
4 -8 3 -7 -2 1 -4 -52 -62 -117 -129 -140 -142 -123 -121 -234 -282 -209 -301
-477 -847 -542 -1102 -68 -268 16 -399 301 -468 47 -12 142 -35 212 -52 180
-44 373 -127 432 -186 9 -8 16 -12 16 -9 0 14 130 -93 259 -215 34 -32 120
-81 176 -100 109 -37 261 -20 323 37 13 12 28 21 32 20 4 -1 8 2 8 6 0 5 11
21 24 35 48 54 100 184 129 322 18 82 17 630 0 770 -54 444 -80 598 -129 765
-19 66 -36 131 -39 145 -3 14 -9 30 -13 35 -4 6 -13 28 -20 50 -7 22 -40 93
-72 158 -70 139 -140 217 -240 268 -55 29 -74 33 -153 35 -54 2 -108 -2 -135
-10z"/>
<path d="M3090 13973 c-164 -25 -472 -144 -634 -244 -28 -18 -57 -32 -63 -32
-7 0 -13 -3 -13 -7 0 -3 -29 -26 -65 -50 -72 -47 -95 -73 -95 -107 0 -29 32
-38 113 -29 71 8 257 53 367 89 230 75 303 92 406 92 97 0 103 -1 177 -39 43
-21 77 -43 77 -47 0 -5 5 -9 11 -9 18 0 441 -372 438 -386 0 -4 5 -10 12 -15
9 -5 4 -10 -17 -15 -118 -28 -200 -126 -211 -253 -7 -74 24 -158 81 -216 88
-92 256 -99 366 -17 19 15 40 25 45 24 6 -2 7 -1 4 3 -4 3 6 32 22 63 16 31
29 73 29 92 1 83 -1 82 127 18 210 -105 430 -154 514 -114 72 34 103 151 59
224 -29 47 -70 68 -172 86 -150 28 -265 71 -365 138 -117 78 -317 253 -307
269 3 5 1 8 -4 7 -8 -2 -143 115 -210 182 -9 8 -28 25 -45 37 -16 12 -45 37
-65 55 -39 36 -174 130 -230 161 -73 39 -237 58 -352 40z"/>
<path d="M7350 13970 c-60 -13 -129 -39 -161 -61 -14 -10 -29 -16 -33 -14 -3
3 -4 2 -1 -1 2 -4 -17 -21 -43 -38 -26 -17 -58 -41 -72 -53 -14 -13 -28 -23
-31 -23 -7 0 -34 -23 -94 -79 -141 -131 -233 -209 -240 -203 -3 4 -5 2 -3 -3
2 -6 -34 -43 -79 -83 -46 -40 -83 -71 -83 -68 0 3 -17 -10 -37 -30 -41 -38
-204 -141 -265 -168 -21 -9 -53 -22 -70 -30 -33 -14 -108 -30 -200 -41 -100
-13 -152 -78 -145 -183 8 -108 53 -138 197 -129 121 7 256 51 441 142 26 13
51 20 56 16 6 -3 14 -26 18 -51 10 -64 48 -135 97 -182 48 -46 67 -52 188 -52
80 0 88 2 140 35 102 66 146 204 105 329 -24 71 -93 142 -157 161 -27 7 -48
16 -48 19 0 4 11 17 25 30 14 13 25 21 25 17 0 -4 16 10 36 31 20 20 32 31 28
23 -5 -9 -3 -12 4 -7 7 4 12 14 12 23 0 9 3 14 6 11 3 -3 15 4 28 16 70 65
102 90 115 88 7 -2 10 1 7 6 -5 9 11 26 101 104 17 14 35 23 39 20 4 -4 4 -2
1 4 -8 14 78 74 157 110 106 48 208 43 404 -22 313 -104 548 -157 590 -135 34
18 44 44 26 69 -26 37 -225 163 -359 227 -197 94 -335 146 -460 171 -48 10
-224 12 -265 4z"/>
<path d="M4949 10727 c-9 -7 -21 -22 -28 -35 -11 -20 -9 -26 18 -52 33 -34 61
-38 83 -12 28 31 30 57 7 85 -22 29 -54 34 -80 14z"/>
<path d="M5707 10639 c-29 -17 -48 -64 -37 -94 11 -28 51 -51 74 -42 23 9 56
67 56 98 0 38 -54 61 -93 38z"/>
<path d="M4285 10545 c-30 -29 -31 -40 -5 -82 23 -39 59 -44 90 -13 39 39 12
120 -40 120 -12 0 -32 -11 -45 -25z"/>
<path d="M4987 10542 c-18 -19 -22 -59 -9 -78 22 -33 85 -35 105 -3 12 19 3
62 -19 83 -21 21 -57 20 -77 -2z"/>
<path d="M5435 10103 c-33 -8 -65 -44 -65 -74 0 -61 67 -63 103 -2 18 31 18
32 -2 52 -10 10 -17 22 -13 25 3 3 3 5 1 5 -2 -1 -13 -3 -24 -6z"/>
<path d="M6060 10020 c-26 -26 -25 -54 1 -91 37 -53 109 -28 109 39 0 28 -42
72 -70 72 -11 0 -29 -9 -40 -20z"/>
<path d="M4654 9902 c-47 -38 -54 -89 -18 -123 20 -19 25 -20 50 -7 55 26 69
92 28 132 -20 20 -34 20 -60 -2z"/>
<path d="M5395 9860 c-39 -43 -14 -110 41 -110 46 0 66 69 31 108 -25 27 -48
28 -72 2z"/>
<path d="M4080 8365 c-10 -12 -10 -21 -2 -41 17 -36 40 -41 68 -13 22 23 23
26 8 47 -18 25 -56 29 -74 7z"/>
<path d="M4210 8355 c-20 -25 -8 -50 27 -53 35 -3 58 23 47 52 -8 20 -57 21
-74 1z"/>
<path d="M4335 8350 c-3 -5 -4 -14 -1 -19 9 -13 46 -1 46 15 0 16 -36 19 -45
4z"/>
<path d="M3983 8313 c-16 -6 -17 -53 -2 -53 5 0 8 -3 5 -8 -2 -4 12 -7 33 -7
31 0 37 4 39 22 3 33 -41 60 -75 46z"/>
<path d="M4180 8262 c-35 -5 -44 -16 -36 -47 7 -29 44 -48 64 -33 13 11 17 74
5 80 -5 2 -19 2 -33 0z"/>
<path d="M3916 8214 c-31 -30 -12 -64 36 -64 35 0 59 40 38 65 -16 20 -54 19
-74 -1z"/>
<path d="M4048 8219 c-44 -25 -8 -80 43 -64 16 5 19 14 17 38 -3 35 -28 46
-60 26z"/>
<path d="M4219 8109 c-14 -27 0 -42 37 -37 33 4 41 20 19 42 -22 22 -42 20
-56 -5z"/>
<path d="M3838 7894 c-19 -10 -28 -23 -28 -39 0 -28 27 -40 70 -30 41 9 40 40
0 72 -12 9 -21 8 -42 -3z"/>
<path d="M3954 7902 c-34 -23 -18 -82 23 -82 15 0 34 4 42 9 21 13 6 56 -24
69 -30 14 -27 14 -41 4z"/>
<path d="M4378 7806 c-24 -18 -31 -52 -13 -70 30 -30 75 -10 75 33 0 34 -36
56 -62 37z"/>
<path d="M3888 7785 c-14 -18 -15 -26 -5 -39 11 -15 86 -40 95 -31 2 1 -2 14
-9 27 -7 12 -15 29 -19 37 -12 27 -44 30 -62 6z"/>
<path d="M4012 7794 c-24 -17 -29 -48 -9 -61 54 -33 105 19 59 60 -23 21 -22
21 -50 1z"/>
<path d="M4126 7797 c-14 -10 -17 -22 -12 -50 5 -34 4 -37 -19 -37 -27 0 -34
-21 -12 -38 16 -13 55 2 64 25 4 10 17 26 30 36 30 24 30 63 1 71 -31 8 -32 8
-52 -7z"/>
<path d="M4242 7793 c-23 -47 7 -86 51 -66 30 14 40 48 20 68 -20 20 -60 19
-71 -2z"/>
<path d="M3776 7778 c-27 -39 9 -71 58 -52 20 8 21 38 0 58 -21 22 -40 20 -58
-6z"/>
<path d="M3563 7715 c-25 -18 -23 -49 5 -75 26 -25 50 -20 79 14 l25 30 -28
23 c-34 27 -52 29 -81 8z"/>
<path d="M3698 7693 c-11 -49 22 -73 62 -43 34 25 23 54 -21 58 -28 2 -37 -1
-41 -15z"/>
<path d="M4194 7695 c-8 -20 4 -35 26 -35 28 0 36 21 15 37 -24 17 -34 17 -41
-2z"/>
<path d="M4322 7699 c-33 -13 -38 -36 -11 -58 24 -19 24 -19 47 1 41 39 18 77
-36 57z"/>
<path d="M3508 7618 c-21 -25 -23 -69 -6 -86 19 -19 47 -14 73 13 35 34 32 59
-9 79 -42 20 -37 20 -58 -6z"/>
<path d="M3646 7601 c-21 -23 -18 -49 6 -65 22 -14 56 17 60 54 2 20 -2 26
-23 28 -15 2 -32 -5 -43 -17z"/>
<path d="M3436 7504 c-20 -20 -20 -33 1 -64 9 -14 13 -22 9 -18 -13 11 -66
-13 -77 -34 -8 -15 -8 -27 1 -43 14 -26 51 -26 81 1 21 19 26 54 7 54 -7 1 1
8 17 17 37 20 45 31 45 64 0 40 -53 54 -84 23z"/>
<path d="M3567 7503 c-4 -3 -7 -19 -7 -34 0 -29 24 -45 52 -34 20 8 42 50 34
64 -8 12 -68 15 -79 4z"/>
<path d="M3500 7380 c0 -15 5 -20 18 -18 9 2 17 10 17 18 0 8 -8 16 -17 18
-13 2 -18 -3 -18 -18z"/>
<path d="M3318 7314 c-32 -17 -46 -57 -28 -79 20 -24 66 -18 89 11 28 35 26
58 -4 72 -31 14 -24 15 -57 -4z"/>
<path d="M3434 7289 c-8 -14 11 -33 25 -25 16 10 13 36 -3 36 -8 0 -18 -5 -22
-11z"/>
<path d="M3236 7204 c-32 -32 -14 -84 29 -84 47 0 74 69 36 90 -27 14 -47 13
-65 -6z"/>
<path d="M3394 7200 c-32 -12 -36 -45 -8 -61 31 -16 74 2 74 30 0 31 -29 44
-66 31z"/>
<path d="M3155 7086 c-20 -20 -23 -30 -16 -48 12 -31 68 -29 94 3 15 19 16 25
4 43 -21 31 -52 31 -82 2z"/>
<path d="M3271 7071 c-9 -15 -7 -23 5 -36 14 -14 19 -14 38 -2 30 21 27 51 -6
55 -18 2 -30 -3 -37 -17z"/>
<path d="M2975 7010 c-3 -5 -3 -10 2 -10 4 0 -3 -7 -15 -16 -26 -18 -28 -46
-6 -68 36 -37 92 -6 86 47 -3 22 -10 29 -33 34 -16 3 -26 9 -23 14 3 5 3 9 0
9 -3 0 -8 -4 -11 -10z"/>
<path d="M3098 6994 c-18 -9 -28 -23 -28 -38 0 -52 63 -61 89 -14 14 24 14 28
-3 47 -22 25 -23 25 -58 5z"/>
<path d="M3217 6982 c-22 -25 -21 -44 3 -65 11 -9 20 -13 20 -8 0 5 9 11 20
14 34 9 21 77 -15 77 -7 0 -19 -8 -28 -18z"/>
<path d="M2907 6884 c-28 -15 -31 -24 -21 -61 5 -18 14 -23 38 -23 39 0 56 15
56 50 0 37 -36 53 -73 34z"/>
<path d="M3163 6890 c-34 -14 -28 -70 7 -70 27 0 56 38 44 57 -13 21 -24 24
-51 13z"/>
<path d="M3024 6865 c-22 -34 -15 -59 19 -63 30 -4 67 21 67 44 0 19 -29 44
-50 44 -11 0 -27 -11 -36 -25z"/>
<path d="M2710 6770 c-28 -28 -25 -58 5 -72 19 -8 31 -8 50 0 45 21 26 92 -24
92 -6 0 -20 -9 -31 -20z"/>
<path d="M2829 6767 c-18 -15 -11 -55 13 -71 12 -7 24 -6 42 2 26 11 32 34 20
66 -7 19 -52 21 -75 3z"/>
<path d="M2968 6768 c-8 -7 -18 -23 -21 -35 -4 -17 1 -24 23 -32 49 -17 92 33
58 67 -15 15 -40 15 -60 0z"/>
<path d="M2643 6676 c-30 -21 -31 -24 -18 -48 7 -15 11 -28 9 -30 -2 -2 11 -5
28 -6 61 -5 84 58 34 91 -19 13 -25 12 -53 -7z"/>
<path d="M2772 6674 c-41 -29 -23 -84 28 -84 31 0 50 17 50 45 0 44 -42 65
-78 39z"/>
<path d="M2905 6663 c-19 -19 -19 -62 0 -69 22 -9 62 4 69 22 15 38 -40 76
-69 47z"/>
<path d="M2833 6563 c-7 -2 -13 -20 -13 -38 0 -29 4 -33 31 -37 19 -3 36 1 45
9 37 37 -11 87 -63 66z"/>
<path d="M2885 6431 c-12 -40 22 -72 50 -45 18 19 19 36 3 52 -18 18 -46 14
-53 -7z"/>
<path d="M7428 4948 c-3 -7 -3 -19 -1 -25 5 -15 33 -18 33 -4 0 5 3 16 6 25 4
11 0 16 -14 16 -11 0 -22 -6 -24 -12z"/>
<path d="M3398 4763 c-13 -3 -18 -14 -18 -39 0 -28 4 -35 25 -40 31 -8 57 12
53 39 -4 24 -36 45 -60 40z"/>
<path d="M3433 4642 c-3 -9 -8 -20 -10 -24 -2 -3 4 -13 13 -22 19 -20 54 -5
54 24 0 32 -47 50 -57 22z"/>
<path d="M7370 4640 c-24 -24 -23 -48 2 -63 36 -23 67 45 34 72 -12 10 -19 8
-36 -9z"/>
<path d="M3414 4453 c-45 -9 -33 -68 17 -86 21 -7 62 30 53 46 -12 20 -37 47
-43 46 -3 -1 -16 -4 -27 -6z"/>
<path d="M7345 4430 c-40 -44 27 -97 69 -54 19 18 20 28 6 55 -14 25 -52 24
-75 -1z"/>
<path d="M3452 4338 c-19 -19 -14 -56 9 -68 16 -9 26 -8 45 5 39 26 26 75 -21
75 -12 0 -26 -5 -33 -12z"/>
<path d="M7312 4338 c-18 -18 -15 -68 4 -75 21 -8 43 16 47 53 3 25 0 30 -18
32 -12 1 -27 -4 -33 -10z"/>
<path d="M7352 4228 c-5 -7 -13 -23 -16 -35 -6 -18 -1 -25 24 -38 30 -15 33
-15 51 1 19 17 24 40 13 68 -7 19 -57 21 -72 4z"/>
<path d="M3502 4217 c-15 -18 8 -62 33 -62 16 0 21 8 23 38 3 33 1 37 -21 37
-14 0 -29 -6 -35 -13z"/>
<path d="M3445 4107 c-29 -22 -13 -67 23 -67 34 0 52 16 52 46 0 33 -41 45
-75 21z"/>
<path d="M7304 4094 c-8 -32 5 -58 33 -62 27 -4 45 21 41 55 -2 23 -8 29 -35
31 -28 3 -33 0 -39 -24z"/>
<path d="M3505 4007 c-23 -17 -15 -56 16 -75 18 -12 24 -11 45 9 22 20 22 23
8 50 -16 31 -40 37 -69 16z"/>
<path d="M7370 4006 c-19 -24 -8 -60 23 -71 24 -8 31 -6 42 8 7 10 12 26 10
35 -2 9 -4 23 -4 30 -1 17 -56 15 -71 -2z"/>
<path d="M7262 3998 c-16 -16 -15 -65 2 -71 23 -9 56 22 56 51 0 22 -5 28 -23
30 -13 1 -29 -4 -35 -10z"/>
<path d="M3564 3885 c-22 -34 -15 -59 19 -63 21 -3 29 2 37 23 13 33 13 31 -6
49 -21 22 -31 20 -50 -9z"/>
<path d="M7317 3892 c-31 -34 -14 -72 30 -72 31 0 50 39 34 69 -14 26 -42 27
-64 3z"/>
<path d="M3422 3888 c-19 -23 8 -63 42 -63 36 0 56 27 40 53 -14 21 -67 28
-82 10z"/>
<path d="M7237 3889 c-21 -12 -22 -48 -2 -55 22 -9 44 13 38 37 -7 25 -15 29
-36 18z"/>
<path d="M7377 3792 c-35 -38 -11 -86 37 -74 38 9 48 48 20 76 -20 21 -37 20
-57 -2z"/>
<path d="M3480 3782 c-27 -22 -21 -57 11 -65 31 -8 79 12 79 33 0 38 -57 59
-90 32z"/>
<path d="M7267 3793 c-12 -11 -8 -50 7 -62 27 -23 62 17 48 57 -4 13 -44 17
-55 5z"/>
<path d="M7311 3689 c-13 -12 -21 -30 -19 -42 2 -18 10 -22 42 -22 31 0 40 4
47 23 6 17 4 27 -11 42 -25 25 -31 25 -59 -1z"/>
<path d="M3392 3688 c-17 -17 -15 -65 4 -72 41 -16 79 11 68 48 -11 36 -48 48
-72 24z"/>
<path d="M3521 3687 c-22 -22 -4 -87 23 -87 24 0 49 37 42 63 -6 27 -48 41
-65 24z"/>
<path d="M3577 3582 c-23 -25 -21 -59 3 -72 15 -8 24 -6 40 10 25 25 25 42 2
63 -23 21 -25 21 -45 -1z"/>
<path d="M7245 3583 c-8 -8 -15 -22 -15 -32 0 -25 34 -53 54 -45 18 7 31 46
23 68 -8 20 -45 26 -62 9z"/>
<path d="M3445 3574 c-9 -9 -15 -28 -13 -43 3 -22 8 -26 37 -26 46 0 68 31 45
63 -18 26 -46 28 -69 6z"/>
<path d="M7368 3565 c-14 -32 4 -55 43 -55 22 0 30 6 35 25 9 38 -2 55 -36 55
-23 0 -33 -6 -42 -25z"/>
<path d="M7302 3478 c-18 -18 -15 -42 8 -63 17 -15 24 -16 46 -7 21 10 25 18
22 45 -3 27 -7 32 -33 35 -17 2 -36 -3 -43 -10z"/>
<path d="M3367 3473 c-4 -3 -7 -21 -7 -39 0 -28 5 -35 25 -40 44 -11 79 39 52
74 -10 13 -59 17 -70 5z"/>
<path d="M3502 3468 c-17 -17 -15 -54 4 -72 19 -20 24 -20 52 0 24 17 30 58
10 71 -22 13 -53 14 -66 1z"/>
<path d="M7368 3364 c-15 -33 -1 -58 35 -62 20 -3 29 3 41 27 14 27 14 31 0
45 -25 25 -63 20 -76 -10z"/>
<path d="M3567 3357 c-21 -26 -22 -51 -2 -67 23 -19 65 2 65 32 0 47 -37 67
-63 35z"/>
<path d="M7248 3368 c-20 -16 -30 -49 -20 -64 13 -21 54 -20 66 1 6 11 14 22
17 25 4 3 3 15 -2 28 -9 24 -37 29 -61 10z"/>
<path d="M3427 3355 c-18 -17 -11 -52 12 -63 48 -24 95 30 59 66 -17 17 -54
15 -71 -3z"/>
<path d="M7332 3283 c-16 -6 -55 -88 -58 -119 -1 -17 4 -21 29 -20 23 1 34 9
48 35 10 19 23 39 29 45 16 16 12 44 -9 56 -11 5 -21 10 -23 9 -2 0 -9 -3 -16
-6z"/>
<path d="M7211 3261 c-17 -11 -10 -45 11 -49 9 -2 22 6 27 17 9 16 8 22 -7 30
-10 5 -24 6 -31 2z"/>
<path d="M3370 3240 c-24 -24 -25 -43 -5 -63 8 -8 12 -17 9 -19 -3 -3 7 -3 20
-1 34 7 48 26 44 59 -4 37 -42 50 -68 24z"/>
<path d="M3493 3253 c-19 -7 -16 -58 5 -76 25 -23 59 -11 71 24 8 25 7 31 -12
44 -22 15 -41 18 -64 8z"/>
<path d="M3622 3238 c-15 -15 -15 -51 -1 -65 9 -9 5 -14 -17 -19 -43 -10 -50
-20 -46 -59 4 -32 7 -35 38 -35 50 0 66 46 26 76 -14 10 -13 12 6 18 32 10 47
43 33 72 -12 27 -21 30 -39 12z"/>
<path d="M7400 3183 c-22 -9 -30 -26 -18 -40 7 -9 5 -14 -8 -19 -38 -11 -49
-22 -52 -47 -7 -58 81 -58 94 0 10 47 13 54 23 49 4 -3 16 3 26 14 31 34 -13
63 -65 43z"/>
<path d="M3436 3128 c-17 -24 -21 -54 -8 -62 17 -10 59 -14 72 -6 11 7 12 18
4 47 -11 46 -43 57 -68 21z"/>
<path d="M7220 3119 c-17 -31 -9 -63 18 -67 46 -7 69 40 36 72 -21 22 -41 20
-54 -5z"/>
<path d="M3360 3015 c-14 -16 -6 -65 11 -65 6 0 8 -4 5 -9 -4 -5 5 -6 21 -2
16 4 35 20 43 35 14 25 13 28 -4 42 -25 18 -60 18 -76 -1z"/>
<path d="M3500 3015 c-17 -20 -5 -61 19 -68 27 -7 61 19 61 47 0 36 -56 50
-80 21z"/>
<path d="M3632 3018 c-19 -19 -14 -56 9 -68 11 -7 23 -9 27 -5 12 12 13 57 1
71 -14 17 -21 18 -37 2z"/>
<path d="M7253 3013 c-34 -13 6 -73 49 -73 35 0 59 40 38 65 -12 14 -61 19
-87 8z"/>
<path d="M7394 2995 c-32 -48 10 -91 56 -57 32 24 37 52 14 69 -27 20 -52 16
-70 -12z"/>
<path d="M7192 2930 c-30 -49 3 -104 48 -80 26 14 25 39 -5 73 -29 32 -27 32
-43 7z"/>
<path d="M3454 2910 c-32 -13 -36 -25 -13 -48 27 -30 66 -29 81 3 19 43 -16
66 -68 45z"/>
<path d="M3570 2901 c-13 -25 -13 -27 6 -45 24 -25 68 -20 84 9 11 20 11 27 0
40 -18 22 -77 20 -90 -4z"/>
<path d="M7325 2897 l-27 -23 20 -24 c20 -24 22 -24 49 -10 31 18 41 44 23 65
-17 21 -35 19 -65 -8z"/>
<path d="M3392 2808 c-17 -17 -15 -55 4 -62 41 -16 79 9 72 46 -6 28 -54 38
-76 16z"/>
<path d="M3521 2806 c-23 -28 -21 -56 4 -68 31 -14 75 3 75 29 -1 44 -54 70
-79 39z"/>
<path d="M3652 2808 c-7 -7 -12 -25 -12 -40 0 -23 4 -28 25 -28 18 0 26 7 31
25 11 46 -15 72 -44 43z"/>
<path d="M7258 2809 c-21 -12 -24 -52 -4 -68 10 -9 20 -9 40 0 14 7 26 15 27
18 0 3 2 14 4 24 2 9 -5 22 -15 27 -23 12 -30 12 -52 -1z"/>
<path d="M7382 2808 c-30 -30 -3 -83 39 -76 33 5 46 31 29 62 -14 28 -48 34
-68 14z"/>
<path d="M3461 2703 c-39 -27 -17 -78 31 -71 27 4 52 46 37 64 -16 19 -46 23
-68 7z"/>
<path d="M3590 2706 c-28 -35 11 -93 48 -70 29 18 43 55 27 71 -18 17 -59 17
-75 -1z"/>
<path d="M7313 2694 c-33 -51 23 -85 66 -40 20 21 21 27 9 45 -18 29 -54 27
-75 -5z"/>
<path d="M7184 2684 c-10 -39 13 -57 54 -43 27 9 31 15 26 33 -14 44 -70 51
-80 10z"/>
<path d="M3518 2593 c-21 -24 -7 -59 27 -67 34 -9 55 8 55 44 0 41 -53 56 -82
23z"/>
<path d="M3662 2594 c-40 -28 -22 -74 30 -74 24 0 28 4 28 29 0 16 -7 37 -16
45 -19 19 -15 19 -42 0z"/>
<path d="M7170 2597 c-18 -9 -26 -22 -28 -46 -2 -22 0 -31 7 -26 6 3 11 1 11
-5 0 -6 11 -3 25 6 20 13 25 24 23 50 -2 38 -3 39 -38 21z"/>
<path d="M7258 2588 c-24 -30 -23 -47 4 -57 31 -11 58 -2 70 25 22 48 -40 75
-74 32z"/>
<path d="M7210 2483 c-26 -33 -12 -63 29 -63 39 0 57 24 45 58 -12 35 -48 38
-74 5z"/>
<path d="M3592 2488 c-7 -7 -12 -22 -12 -35 0 -46 82 -49 88 -4 7 42 -46 69
-76 39z"/>
<path d="M3704 2485 c-8 -21 3 -45 20 -45 16 0 31 34 21 50 -9 15 -35 12 -41
-5z"/>
<path d="M3657 2382 c-22 -24 -21 -45 1 -65 35 -32 72 -14 72 35 0 17 -7 31
-19 38 -27 14 -35 13 -54 -8z"/>
<path d="M7150 2385 c-20 -24 3 -65 35 -65 18 0 26 7 31 25 3 14 4 32 0 40 -7
20 -50 19 -66 0z"/>
<path d="M7095 2287 c-8 -12 -15 -33 -15 -47 0 -14 -5 -31 -11 -37 -13 -13 -6
-43 9 -43 16 0 85 108 79 123 -9 25 -46 27 -62 4z"/>
<path d="M3723 2264 c-20 -31 -9 -57 26 -62 46 -7 72 56 32 78 -29 15 -39 13
-58 -16z"/>
<path d="M3580 2260 c-7 -14 -7 -26 -1 -39 6 -10 8 -20 6 -23 -2 -2 11 -2 30
0 42 5 59 24 51 57 -5 21 -12 25 -41 25 -24 0 -37 -6 -45 -20z"/>
<path d="M7153 2190 c-21 -19 -22 -67 -2 -54 5 3 9 1 9 -4 0 -17 -13 -22 -28
-10 -25 21 -42 17 -57 -12 -13 -25 -13 -30 3 -50 25 -31 59 -19 70 23 6 25 15
33 38 37 23 4 30 11 32 33 4 30 -12 57 -32 57 -7 0 -22 -9 -33 -20z"/>
<path d="M3656 2167 c-23 -17 -18 -55 9 -73 28 -18 69 2 73 37 2 19 -3 28 -23
37 -33 15 -37 15 -59 -1z"/>
<path d="M3770 2120 c0 -41 9 -47 44 -34 34 13 12 74 -26 74 -14 0 -18 -8 -18
-40z"/>
<path d="M3727 2059 c-12 -7 -15 -17 -11 -37 10 -43 27 -56 55 -42 20 11 25
10 40 -9 31 -38 65 -20 52 29 -5 17 -12 21 -34 18 -20 -3 -29 0 -29 9 0 32
-42 50 -73 32z"/>
<path d="M7010 2010 c-6 -11 -8 -24 -5 -29 8 -14 -5 -41 -20 -41 -18 0 -43
-62 -27 -68 7 -2 10 -7 7 -12 -8 -14 33 1 46 16 7 8 9 29 6 51 -4 25 -3 33 4
26 27 -27 76 18 64 57 -9 28 -60 27 -75 0z"/>
<path d="M3770 1920 c-17 -17 -18 -24 -8 -45 15 -32 54 -34 64 -2 14 39 12 45
-12 56 -20 9 -28 7 -44 -9z"/>
<path d="M3874 1915 c-10 -26 4 -63 23 -61 34 2 43 35 17 60 -19 20 -33 20
-40 1z"/>
<path d="M7008 1820 c-28 -26 -23 -68 7 -76 32 -8 55 11 55 46 0 36 -37 54
-62 30z"/>
<path d="M3822 1818 c-16 -16 -15 -40 1 -62 10 -14 18 -15 40 -7 31 12 48 58
26 72 -20 12 -53 11 -67 -3z"/>
<path d="M3879 1703 c-8 -22 -6 -30 10 -46 19 -19 21 -19 45 -3 31 20 34 51 7
66 -32 17 -51 12 -62 -17z"/>
<path d="M6926 1708 c-14 -20 -12 -41 6 -64 13 -17 47 -5 65 23 14 21 14 26 1
39 -24 24 -56 25 -72 2z"/>
<path d="M6870 1615 c-28 -34 -17 -68 25 -77 21 -4 55 25 55 47 0 28 -62 51
-80 30z"/>
<path d="M3823 1608 c-20 -26 -21 -46 -5 -62 24 -21 54 -14 72 16 12 22 12 29
1 42 -16 19 -55 21 -68 4z"/>
<path d="M3948 1596 c-14 -32 -5 -52 26 -58 37 -7 63 23 48 57 -16 34 -58 34
-74 1z"/>
<path d="M3888 1509 c-36 -21 -16 -79 27 -79 46 0 60 48 23 74 -26 19 -27 19
-50 5z"/>
<path d="M4012 1498 c-27 -27 -6 -68 34 -68 33 0 49 25 36 55 -13 27 -49 34
-70 13z"/>
<path d="M6799 1486 c-15 -33 4 -58 39 -54 55 7 54 70 -1 76 -21 3 -30 -3 -38
-22z"/>
<path d="M6928 1485 c-10 -21 -9 -29 5 -42 27 -27 72 -7 72 32 0 26 -4 30 -32
33 -27 3 -35 -1 -45 -23z"/>
<path d="M3817 1403 c-4 -3 -7 -19 -7 -35 0 -49 67 -57 84 -11 12 30 -54 69
-77 46z"/>
<path d="M3952 1398 c-20 -20 -15 -66 8 -73 47 -15 82 23 60 65 -12 22 -49 27
-68 8z"/>
<path d="M6745 1390 c-31 -35 -6 -77 40 -66 24 6 43 45 31 64 -11 18 -55 20
-71 2z"/>
<path d="M6872 1398 c-17 -17 -15 -65 4 -72 35 -13 74 7 74 39 0 35 -53 58
-78 33z"/>
<path d="M4071 1382 c-14 -26 13 -62 45 -62 33 0 48 37 26 63 -20 22 -59 22
-71 -1z"/>
</g>
</svg>
