<?xml version="1.0" standalone="no"?>
<!DOCTYPE svg PUBLIC "-//W3C//DTD SVG 20010904//EN"
 "http://www.w3.org/TR/2001/REC-SVG-20010904/DTD/svg10.dtd">
<svg version="1.0" xmlns="http://www.w3.org/2000/svg"
 width="1882.000000pt" height="1566.000000pt" viewBox="0 0 1882.000000 1566.000000"
 preserveAspectRatio="xMidYMid meet">
<metadata>
Created by potrace 1.16, written by Peter Selinger 2001-2019
</metadata>
<g transform="translate(0.000000,1566.000000) scale(0.100000,-0.100000)"
fill="#a7262a" stroke="none">
<path d="M8955 15249 c-343 -20 -872 -94 -1137 -157 -48 -12 -98 -24 -110 -26
-155 -34 -401 -113 -592 -190 -50 -20 -98 -36 -108 -36 -10 0 -18 -4 -18 -8 0
-4 -21 -18 -47 -31 -74 -36 -225 -126 -277 -165 -25 -20 -46 -34 -46 -32 0 3
-13 -8 -28 -22 -87 -83 -138 -127 -145 -124 -4 1 -6 -2 -5 -6 3 -8 -41 -69
-74 -104 -10 -10 -18 -22 -18 -27 0 -5 -8 -15 -17 -22 -25 -21 -109 -204 -135
-294 -19 -68 -23 -104 -23 -240 0 -171 11 -239 59 -365 29 -78 76 -179 76
-165 0 5 12 -8 26 -30 59 -88 169 -204 284 -300 25 -21 48 -42 52 -49 4 -6 8
-8 8 -4 0 4 35 -15 78 -43 188 -123 510 -256 812 -335 252 -66 685 -141 915
-160 127 -10 135 -14 135 -68 0 -24 7 -102 15 -173 8 -70 18 -177 23 -238 6
-65 14 -111 21 -113 6 -2 8 -9 5 -14 -4 -6 -2 -8 4 -4 6 3 13 2 17 -4 10 -17
81 -12 103 8 11 9 61 72 111 140 55 73 96 120 103 116 7 -4 8 -3 4 4 -4 6 2
20 14 32 11 11 20 24 20 29 0 5 4 11 9 13 4 2 35 39 69 83 81 107 111 142 112
130 0 -12 408 -12 685 -1 449 18 986 86 1276 161 33 9 79 20 102 24 73 15 218
61 342 108 66 26 126 46 133 46 6 0 12 4 12 9 0 4 5 8 11 8 7 0 47 18 90 40
43 22 85 40 93 40 8 0 19 6 23 14 4 8 32 26 61 41 29 14 64 37 79 51 14 13 28
22 31 19 3 -2 14 7 24 21 11 14 23 23 25 20 3 -3 14 6 25 19 11 14 26 25 33
25 8 0 16 8 19 18 4 11 18 25 31 32 14 7 25 18 25 23 0 5 17 26 39 47 21 20
47 51 57 69 10 17 24 31 32 31 7 0 11 4 8 9 -3 5 3 19 13 32 32 42 98 181 125
266 54 173 59 410 12 592 -29 111 -134 331 -170 353 -6 4 -8 8 -4 8 13 0 -206
215 -259 255 -29 22 -53 43 -53 49 0 5 -3 7 -6 3 -3 -3 -52 22 -108 56 -95 59
-255 138 -338 168 -21 7 -38 17 -38 21 0 4 -8 8 -19 8 -10 0 -40 9 -67 19
-367 144 -1006 256 -1659 291 -219 11 -775 11 -980 -1z m1055 -163 c19 -2 80
-7 135 -10 95 -6 325 -30 390 -41 17 -2 59 -9 95 -15 102 -15 243 -39 265 -43
11 -2 38 -8 60 -11 59 -11 323 -75 375 -91 25 -8 83 -26 130 -41 47 -14 99
-32 115 -40 17 -7 71 -28 120 -47 166 -63 280 -128 474 -271 44 -33 175 -172
209 -225 103 -154 150 -290 159 -456 11 -203 -50 -414 -165 -570 -62 -85 -132
-156 -144 -149 -6 4 -8 2 -4 -4 5 -8 -47 -57 -140 -131 -20 -16 -99 -65 -149
-92 -27 -14 -75 -41 -105 -58 -30 -17 -65 -31 -78 -31 -13 0 -21 -4 -18 -8 5
-8 -208 -85 -374 -135 -115 -34 -289 -74 -430 -98 -30 -5 -76 -13 -102 -19
-79 -16 -345 -48 -583 -69 -216 -20 -646 -33 -860 -26 -115 3 -215 2 -221 -2
-5 -4 -45 -51 -87 -103 -99 -124 -119 -148 -135 -166 -7 -8 -10 -14 -5 -14 4
0 -6 -13 -23 -28 -17 -16 -33 -32 -35 -38 -2 -5 -20 -31 -39 -57 l-35 -49 -7
64 c-45 434 -39 386 -59 416 -9 13 -20 22 -25 21 -5 -1 -34 0 -64 4 -30 4
-104 12 -165 18 -161 16 -420 56 -580 89 -77 16 -153 32 -170 35 -16 2 -41 9
-55 14 -14 5 -47 14 -75 21 -281 68 -677 239 -834 360 -85 65 -158 128 -191
164 -57 62 -140 176 -140 192 0 8 -4 14 -9 14 -9 0 -35 54 -31 66 1 4 -3 10
-8 13 -27 17 -72 220 -72 323 0 113 52 299 105 376 18 27 32 52 29 54 -2 3 7
17 21 32 14 15 25 31 25 35 0 14 144 156 215 212 111 87 288 194 305 184 6 -3
10 -2 10 3 0 9 148 74 255 112 176 63 231 80 241 76 6 -2 15 -1 20 4 25 24
473 124 745 165 233 35 527 65 799 79 80 4 872 -3 920 -8z"/>
<path d="M7686 14193 c-1 -1 -70 -3 -154 -4 -84 0 -160 -3 -170 -6 -53 -14
-74 -115 -33 -156 20 -21 31 -22 201 -23 99 0 183 -3 185 -6 5 -5 -20 -40 -95
-131 -19 -24 -47 -58 -62 -77 -15 -19 -40 -52 -56 -72 -16 -21 -33 -34 -37
-30 -5 4 -6 2 -2 -3 3 -6 -19 -42 -50 -80 -102 -129 -133 -184 -133 -231 0
-58 39 -103 95 -113 22 -3 158 -4 302 -1 l263 5 24 25 c37 37 41 96 9 126 -40
37 -80 45 -214 40 -123 -3 -188 1 -172 13 4 3 24 30 43 58 20 31 40 51 48 48
7 -3 10 0 7 6 -7 10 11 43 37 70 7 8 25 30 40 51 15 20 34 42 41 50 8 7 19 24
26 36 7 12 17 20 23 16 6 -4 8 -3 5 3 -4 6 2 21 13 33 11 13 20 26 20 29 0 3
10 18 23 31 40 46 65 86 75 123 19 68 -5 139 -54 157 -20 8 -241 19 -248 13z"/>
<path d="M9345 14184 c-11 -3 -30 -7 -41 -9 -43 -9 -66 -102 -35 -139 6 -7 9
-15 6 -17 -6 -7 18 -9 178 -15 115 -5 147 -9 147 -20 0 -7 -26 -51 -57 -96
-32 -46 -82 -120 -112 -165 -30 -45 -59 -79 -64 -76 -6 3 -7 1 -3 -5 4 -6 -11
-37 -33 -69 -74 -109 -103 -174 -98 -217 6 -41 46 -92 75 -94 9 0 119 -1 244
-2 233 -1 275 5 306 42 22 27 22 75 1 102 -28 36 -76 46 -216 46 -67 0 -124 4
-127 8 -5 9 77 141 95 152 6 4 11 11 11 16 0 5 4 8 10 6 5 -1 7 2 3 7 -6 10
81 153 97 159 5 2 8 8 8 14 0 6 13 29 29 53 107 158 124 228 72 287 l-29 33
-224 2 c-122 1 -232 -1 -243 -3z"/>
<path d="M11165 14182 c-48 -11 -66 -26 -74 -64 -11 -46 9 -95 44 -108 13 -5
86 -10 160 -11 74 0 137 -4 139 -7 4 -7 -76 -134 -110 -175 -8 -9 -14 -20 -14
-23 0 -3 -13 -24 -29 -47 -83 -122 -183 -280 -196 -311 -18 -42 -19 -99 -4
-128 22 -40 64 -47 296 -48 120 -1 227 2 238 5 55 19 74 28 70 35 -3 5 -1 11
5 15 5 3 10 23 10 44 0 27 -7 44 -26 62 -24 23 -33 24 -167 27 -78 2 -148 5
-155 7 -17 6 -8 24 88 160 42 61 89 132 104 159 16 26 37 57 47 67 10 10 17
19 14 19 -3 0 11 24 29 53 47 74 66 122 66 171 0 34 -6 48 -31 72 l-30 29
-222 2 c-122 0 -235 -2 -252 -5z"/>
<path d="M8176 13831 c-48 -10 -76 -42 -76 -87 0 -47 44 -74 122 -74 31 0 59
-3 62 -8 2 -4 -24 -38 -59 -75 -35 -37 -71 -79 -80 -93 -9 -14 -21 -22 -27
-18 -6 4 -8 3 -4 -4 3 -5 3 -12 -1 -14 -17 -7 -43 -68 -43 -100 0 -86 67 -108
302 -99 128 5 150 9 175 27 22 17 29 30 31 67 3 43 1 48 -30 67 -26 15 -50 20
-110 20 -43 0 -78 3 -78 6 0 13 106 133 118 133 7 1 10 6 7 11 -3 6 1 10 10
10 9 0 14 4 11 9 -3 5 3 19 13 32 31 40 43 97 26 130 -8 15 -19 31 -25 34 -6
4 -8 9 -6 13 5 8 -3 9 -169 16 -71 3 -148 1 -169 -3z"/>
<path d="M8730 13821 c-60 -28 -67 -107 -12 -135 23 -12 48 -17 139 -28 7 -1
2 -14 -12 -32 -34 -44 -83 -87 -88 -79 -2 5 -2 3 -1 -4 2 -7 -10 -26 -26 -42
-15 -17 -25 -31 -22 -31 4 0 2 -4 -4 -8 -19 -12 -44 -70 -44 -101 0 -45 19
-79 52 -90 30 -11 355 -17 365 -7 4 3 14 6 24 6 25 0 70 57 65 83 -3 12 -5 27
-5 32 -1 6 -16 20 -34 32 -25 17 -48 22 -109 24 l-77 2 30 39 c17 21 39 44 50
51 25 18 78 92 95 133 22 52 17 90 -13 124 -25 26 -38 32 -108 40 -114 15
-224 11 -265 -9z"/>
<path d="M10055 13836 c-5 -2 -23 -7 -38 -10 -34 -8 -58 -56 -48 -94 11 -40
49 -61 112 -63 65 -3 72 -17 27 -55 -16 -13 -26 -24 -22 -24 3 0 -11 -20 -32
-43 -36 -41 -63 -74 -99 -122 -22 -30 -19 -107 5 -132 27 -29 81 -36 264 -32
l155 4 30 29 c32 31 39 63 21 96 -17 33 -51 45 -138 50 l-83 5 38 41 c85 93
121 134 116 134 -2 0 5 13 16 29 13 18 21 45 21 71 0 91 -38 112 -210 117 -69
1 -129 1 -135 -1z"/>
<path d="M10600 13828 c-68 -19 -92 -87 -45 -133 13 -14 30 -25 37 -26 7 0 34
-2 61 -2 26 -1 47 -6 47 -10 0 -5 6 -5 13 -1 6 4 3 -3 -8 -17 -34 -41 -53 -58
-59 -53 -3 2 -4 1 -1 -2 2 -4 -13 -28 -34 -53 -79 -95 -101 -133 -101 -171 0
-46 30 -86 70 -95 40 -9 320 -9 345 0 53 18 63 25 72 52 6 16 6 41 1 59 -10
41 -65 64 -148 64 -33 0 -60 2 -60 5 0 3 15 23 34 43 66 72 96 107 96 115 0 5
5 5 12 1 7 -4 8 -3 4 4 -4 6 5 29 20 52 35 52 29 103 -16 141 -17 14 -36 26
-43 27 -64 8 -270 8 -297 0z"/>
<path d="M5525 12508 c-135 -16 -261 -79 -372 -186 -40 -39 -73 -74 -73 -79 0
-5 -12 -22 -27 -39 -16 -17 -34 -42 -42 -57 -8 -15 -23 -36 -33 -47 -10 -11
-16 -20 -12 -20 3 0 2 -6 -4 -13 -38 -45 -153 -311 -205 -472 -9 -27 -25 -77
-36 -110 -26 -79 -94 -358 -125 -515 -51 -255 -89 -558 -122 -983 l-6 -79 -56
-25 c-167 -74 -264 -119 -385 -178 -74 -36 -139 -65 -146 -65 -6 0 -11 -4 -11
-8 0 -9 -59 -36 -77 -35 -7 0 -10 -3 -7 -8 3 -5 1 -9 -4 -9 -5 0 -49 -22 -96
-48 l-87 -49 -342 172 c-188 94 -371 184 -407 200 -36 15 -88 39 -117 51 -28
13 -55 24 -58 24 -3 0 -30 11 -58 24 -58 26 -165 69 -242 96 -27 10 -63 24
-80 31 -16 7 -32 13 -35 14 -17 4 -88 28 -105 35 -19 8 -70 23 -192 56 -32 8
-72 19 -89 25 -17 5 -40 9 -52 9 -11 0 -23 4 -26 8 -2 4 -24 9 -47 11 -23 1
-45 4 -49 6 -4 2 -53 12 -111 22 -76 13 -161 17 -314 18 -190 0 -218 -2 -289
-23 -79 -23 -195 -76 -247 -113 -15 -10 -30 -19 -33 -19 -6 0 -70 -66 -97
-100 -211 -272 -262 -721 -149 -1307 31 -159 130 -547 164 -642 9 -24 16 -53
16 -65 0 -12 4 -26 9 -31 5 -6 30 -73 56 -150 26 -77 57 -167 70 -200 13 -33
46 -121 75 -195 28 -74 58 -149 66 -166 25 -56 95 -228 111 -274 9 -25 42 -97
73 -160 31 -63 63 -133 71 -155 8 -22 18 -44 22 -50 17 -21 232 -463 222 -457
-5 3 -4 -2 4 -12 8 -9 29 -59 46 -109 18 -51 55 -158 84 -239 28 -81 51 -149
51 -152 0 -3 -37 -29 -82 -59 -46 -30 -100 -68 -122 -85 -21 -18 -43 -29 -50
-25 -6 3 -8 3 -4 -1 3 -4 -21 -31 -55 -60 -48 -40 -63 -59 -65 -83 -4 -41 34
-71 67 -53 12 6 21 8 21 5 0 -3 14 10 31 30 17 19 35 35 40 35 5 0 17 8 27 18
31 29 93 76 121 91 14 8 40 24 56 37 52 39 63 35 91 -31 43 -100 124 -275 166
-357 21 -43 35 -78 31 -78 -4 0 -3 -4 3 -8 6 -4 22 -30 36 -59 l25 -52 -21
-18 c-33 -30 -96 -75 -96 -69 0 3 -14 -8 -32 -24 -17 -16 -35 -27 -40 -24 -4
3 -8 1 -8 -5 0 -5 -31 -33 -70 -62 -38 -28 -70 -56 -70 -61 0 -5 -4 -7 -9 -4
-14 9 -10 -47 6 -71 11 -16 24 -22 44 -21 15 1 25 6 22 12 -4 6 1 6 13 2 10
-4 15 -4 12 0 -11 10 40 46 53 38 7 -4 9 -3 6 3 -4 6 5 21 18 33 14 13 25 20
25 15 0 -4 8 1 17 11 21 23 98 84 106 84 3 0 21 14 39 30 40 37 56 35 80 -9
l19 -34 -29 -66 c-68 -152 -90 -292 -72 -468 18 -174 63 -320 160 -515 32 -64
56 -119 53 -122 -4 -3 -1 -6 6 -6 7 0 3 -15 -11 -39 -12 -22 -27 -37 -32 -34
-5 4 -6 1 -2 -6 5 -7 1 -20 -7 -29 -32 -36 -269 -534 -312 -654 -117 -328
-177 -669 -160 -902 16 -226 66 -440 132 -569 13 -26 12 -29 -17 -53 -33 -29
-37 -45 -15 -67 8 -8 11 -18 7 -22 -4 -4 13 2 37 15 23 12 40 16 35 9 -5 -9
-2 -10 12 -5 10 4 2 -8 -18 -26 -31 -28 -35 -36 -27 -56 7 -20 15 -23 46 -21
21 2 41 8 45 14 5 6 15 2 28 -11 l21 -21 -31 5 c-38 5 -60 -12 -60 -47 0 -57
57 -71 87 -21 9 17 21 30 25 30 4 0 20 -18 34 -40 15 -22 30 -40 35 -40 4 0
10 -14 14 -30 8 -35 31 -50 76 -50 30 0 31 -1 16 -17 -32 -37 -18 -93 23 -93
19 0 50 30 50 48 0 19 15 14 40 -13 13 -14 38 -29 54 -33 28 -8 31 -12 31 -47
0 -31 5 -42 24 -51 30 -16 50 -8 57 22 12 47 31 49 59 4 21 -34 30 -40 47 -34
12 4 28 13 36 20 7 8 17 13 20 11 47 -24 84 -37 92 -32 6 4 20 3 33 -1 l22 -8
-25 -6 c-20 -5 -25 -12 -25 -35 0 -29 1 -30 55 -33 36 -1 50 1 41 7 -8 5 -12
19 -9 34 4 20 1 24 -11 20 -12 -5 -13 -3 -5 6 18 19 43 2 46 -32 3 -28 7 -32
33 -32 24 0 31 5 34 25 6 47 45 49 39 2 -2 -21 2 -27 26 -33 34 -9 53 2 58 34
4 29 41 30 47 2 5 -28 19 -35 73 -35 41 0 47 3 50 22 4 33 34 35 42 4 8 -34
50 -45 76 -21 11 10 20 24 20 31 0 18 15 25 35 18 9 -4 14 -13 11 -20 -3 -8 6
-21 20 -31 38 -24 79 -8 79 32 1 25 5 30 27 31 24 1 25 -1 15 -24 -9 -20 -8
-26 8 -38 25 -19 60 -18 79 2 19 19 20 35 3 53 -10 11 -9 12 2 6 10 -6 13 -4
9 6 -6 16 -2 16 114 21 44 2 83 9 90 16 17 17 35 15 68 -9 27 -21 30 -21 54
-6 13 9 27 26 31 37 9 27 23 25 35 -5 11 -28 53 -43 74 -25 8 6 18 24 21 40 6
27 27 45 39 33 3 -3 3 -16 0 -28 -4 -17 2 -28 25 -44 l31 -22 25 25 c27 27 31
41 15 51 -24 15 -6 33 50 50 46 14 63 16 72 7 7 -7 24 -12 40 -12 20 0 31 8
43 30 19 36 45 40 45 6 0 -25 16 -36 55 -36 29 0 48 30 40 63 -5 20 0 25 50
41 42 15 58 17 67 8 7 -7 24 -12 38 -12 36 0 40 -7 25 -37 -25 -47 14 -84 63
-61 52 25 35 88 -24 88 -34 0 -38 16 -14 50 21 29 47 32 36 5 -8 -22 30 -48
60 -41 45 12 55 29 43 74 -3 8 12 19 35 27 22 8 44 21 49 30 7 13 12 14 23 4
7 -6 12 -15 9 -18 -2 -4 4 -9 13 -10 65 -8 82 2 82 50 0 21 9 29 49 46 45 19
52 19 71 6 31 -21 62 -9 85 33 24 44 61 59 42 17 -10 -22 -8 -28 11 -43 23
-19 30 -19 70 -6 16 5 22 15 22 36 0 24 -7 33 -37 49 -35 19 -36 20 -13 21 15
0 31 -5 37 -11 18 -18 57 -2 77 31 19 34 29 31 50 -12 19 -38 50 -35 76 7 l23
37 28 -31 c23 -25 36 -31 71 -31 36 -1 40 -3 27 -13 -26 -20 -30 -56 -8 -78
10 -10 27 -19 37 -19 29 0 60 28 64 57 4 34 28 43 28 11 0 -26 37 -68 60 -68
7 0 22 8 32 17 16 14 23 15 38 5 11 -7 27 -12 35 -12 9 0 14 -4 11 -9 -4 -5 3
-7 14 -4 11 3 26 3 35 -1 12 -4 13 -10 3 -32 -11 -23 -10 -28 9 -44 12 -10 19
-20 16 -23 -3 -4 9 -2 27 3 34 10 50 25 50 47 0 6 6 15 13 19 6 4 9 4 5 0 -4
-5 6 -21 22 -36 16 -15 26 -31 22 -35 -4 -3 6 -2 21 4 15 6 27 7 27 3 0 -4 4
0 10 8 8 12 16 12 67 -1 l58 -15 -3 -37 c-3 -31 0 -38 21 -48 38 -17 77 -4 77
26 0 35 18 40 31 8 5 -15 16 -31 22 -35 21 -14 58 -8 84 12 24 19 27 19 38 3
10 -13 28 -18 71 -18 33 -1 77 -5 100 -9 37 -7 40 -9 36 -35 -9 -62 70 -83 97
-27 l14 29 26 -31 c28 -35 77 -44 87 -18 10 25 34 27 64 5 21 -16 36 -20 57
-14 37 9 57 9 123 -2 41 -7 54 -13 51 -23 -19 -66 9 -106 57 -80 33 19 39 45
16 71 -16 18 -16 19 2 19 50 0 63 -11 61 -48 -2 -31 2 -37 26 -46 36 -13 59 1
69 42 8 28 11 31 29 22 11 -6 18 -14 15 -18 -6 -10 15 -37 39 -50 16 -8 26 -6
45 8 14 10 25 25 25 32 0 7 8 14 18 16 10 2 17 -3 17 -12 0 -20 28 -46 50 -46
10 0 32 11 48 25 29 24 30 24 47 5 27 -30 52 -33 88 -11 30 18 36 19 54 6 14
-10 43 -14 89 -13 177 5 296 -7 265 -26 -17 -11 -14 -73 5 -80 25 -10 59 -7
72 6 15 15 16 60 2 74 -7 7 -2 10 13 9 33 0 45 -12 39 -40 -5 -30 10 -51 43
-57 32 -7 57 21 53 58 -3 25 0 29 22 29 22 0 25 -4 22 -34 -2 -21 1 -37 10
-42 38 -25 91 7 86 52 -2 18 2 25 20 27 19 3 22 -1 22 -31 0 -41 19 -60 57
-55 22 2 30 10 38 36 11 38 38 40 43 4 2 -13 14 -28 27 -34 14 -6 21 -16 18
-22 -4 -6 6 -1 22 11 18 13 30 30 30 45 0 16 7 24 23 26 19 3 22 -1 22 -27 0
-24 5 -32 24 -37 37 -9 63 4 75 36 11 32 41 33 41 0 0 -9 8 -24 18 -32 22 -20
55 -9 78 26 21 33 25 32 46 -4 24 -42 68 -42 98 0 12 17 26 27 31 24 6 -3 8
-9 5 -12 -4 -3 3 -15 14 -27 24 -26 76 -23 85 5 9 29 33 32 50 6 23 -34 60
-39 88 -10 23 25 47 32 47 14 0 -6 14 -19 31 -29 33 -20 36 -20 79 23 18 18
19 18 46 -3 33 -26 66 -27 89 -1 17 19 18 19 43 0 30 -24 60 -25 90 -4 21 15
25 15 42 -1 19 -17 53 -16 114 2 10 3 16 1 13 -3 -3 -5 126 -9 286 -10 727 -3
760 -3 749 -16 -14 -17 -18 -50 -9 -65 10 -16 59 -17 75 -1 20 20 14 54 -10
66 -20 9 -14 11 35 11 57 1 57 1 43 -21 -22 -36 -5 -68 36 -68 18 0 38 4 44 8
21 13 20 46 -1 64 -19 17 -18 17 33 18 49 0 52 -1 42 -19 -16 -31 -12 -49 14
-66 33 -22 76 -5 76 29 0 35 -10 57 -23 49 -6 -3 -7 -1 -3 5 8 14 55 16 75 3
10 -7 11 -13 1 -30 -13 -25 -6 -57 15 -65 8 -3 28 0 45 5 23 9 30 17 30 38 0
15 -5 32 -12 39 -9 9 -2 12 34 12 l46 0 -11 -29 c-15 -40 -4 -61 32 -61 16 0
36 3 45 6 19 7 21 55 4 72 -9 9 -4 12 24 12 l36 0 -5 -40 c-5 -36 -3 -40 21
-50 18 -7 34 -6 52 2 23 11 25 17 21 50 l-5 38 41 0 c40 0 41 -1 20 -15 -36
-25 -10 -85 37 -85 43 0 71 61 39 84 -18 12 -15 14 27 14 36 1 45 -1 36 -10
-22 -22 -14 -67 12 -80 31 -13 50 -6 72 27 13 19 14 28 5 39 -16 19 2 30 36
21 19 -4 23 -9 14 -18 -6 -6 -11 -21 -11 -32 0 -25 42 -49 71 -40 19 6 33 39
27 65 -2 9 6 16 20 18 19 3 22 -1 22 -27 0 -30 22 -61 43 -61 28 0 59 32 54
56 -3 16 0 24 9 24 8 0 17 0 22 0 4 0 7 -12 7 -26 1 -37 37 -61 70 -46 18 9
25 19 25 41 0 29 14 42 38 34 6 -3 12 -18 12 -34 0 -22 7 -32 26 -41 32 -15
53 -3 74 41 17 34 30 32 30 -6 0 -16 8 -27 27 -34 40 -15 73 -3 85 31 11 34
20 37 39 13 12 -14 12 -16 -1 -9 -8 5 -1 -6 17 -24 29 -30 35 -32 58 -22 14 6
25 18 25 26 0 7 8 20 18 27 9 7 14 10 10 5 -4 -4 2 -17 12 -29 24 -25 12 -44
-28 -49 -35 -4 -44 -51 -13 -67 20 -11 70 0 72 16 0 5 2 16 4 26 2 10 -3 21
-11 24 -16 6 -9 24 9 22 31 -4 49 3 69 26 l22 25 23 -21 c12 -12 20 -25 18
-29 -7 -11 29 -8 44 4 11 8 13 8 7 -1 -4 -7 -5 -13 -1 -13 3 0 10 11 15 25 11
30 21 31 45 5 22 -24 55 -26 95 -5 27 14 33 14 60 0 37 -19 64 -19 80 0 17 20
36 19 52 -2 18 -24 36 -27 64 -8 30 19 58 19 74 0 16 -19 41 -19 66 0 25 19
48 19 64 0 17 -21 47 -19 67 5 22 25 34 25 68 -2 27 -21 28 -21 61 -3 19 10
34 23 34 28 0 6 11 0 24 -12 30 -28 68 -23 82 10 l10 22 25 -25 c39 -41 55
-41 90 -3 18 19 36 32 41 29 5 -3 7 -8 4 -11 -3 -3 -1 -14 5 -25 8 -15 19 -18
47 -16 32 3 38 7 46 36 10 35 29 38 35 6 5 -30 21 -44 51 -44 33 0 47 15 52
55 2 22 9 31 25 33 20 3 22 0 17 -27 -8 -38 9 -61 45 -61 40 0 54 15 55 56 2
37 3 38 49 50 39 10 53 10 74 -1 30 -16 56 -7 73 25 14 26 37 26 45 0 13 -41
63 -44 95 -5 8 10 14 20 13 22 -2 1 -3 6 -3 10 0 4 13 -7 29 -24 26 -29 32
-31 85 -28 31 2 59 -1 62 -6 3 -5 10 -7 15 -4 5 4 18 4 29 0 16 -5 18 -10 9
-32 -7 -20 -6 -30 7 -44 27 -30 84 -22 84 11 0 24 12 31 30 19 8 -5 11 -9 6
-9 -5 0 1 -11 14 -25 29 -31 54 -32 74 -3 16 22 16 22 31 3 14 -19 15 -19 9
-1 -6 16 -5 17 15 7 12 -7 52 -14 89 -17 37 -3 78 -7 92 -9 14 -2 31 -4 38 -4
10 -1 10 -4 0 -15 -7 -8 -15 -12 -18 -11 -3 2 -4 -11 -2 -30 3 -25 10 -34 26
-37 37 -7 66 9 66 35 0 26 -22 52 -33 40 -4 -3 -7 -2 -7 4 0 7 18 9 48 5 55
-6 58 -7 44 -25 -14 -16 -5 -54 15 -61 39 -15 92 24 73 54 -13 22 -2 30 41 30
41 0 53 -14 19 -23 -14 -3 -18 -11 -15 -28 8 -41 59 -53 88 -21 20 21 22 52 5
52 -14 0 -2 13 15 16 7 0 46 4 87 8 41 4 96 12 123 18 36 9 50 9 59 0 7 -7 20
-12 30 -12 21 0 58 30 58 47 0 7 8 17 18 22 16 9 19 6 20 -19 1 -40 9 -50 37
-50 25 0 68 45 62 64 -2 6 -14 13 -26 16 -33 8 -30 25 4 28 60 5 71 11 83 45
17 47 41 45 35 -3 -5 -36 -5 -36 35 -38 32 -2 43 2 51 17 21 38 13 59 -24 71
-29 10 -34 14 -24 26 10 12 16 11 44 -6 l33 -20 21 26 c22 29 27 59 11 69 -19
12 -10 25 13 20 35 -9 71 29 64 70 -5 30 -3 33 25 39 52 10 59 21 43 67 -14
39 -14 39 9 33 15 -3 29 1 40 11 18 18 22 60 6 70 -19 12 -10 25 17 25 58 0
80 73 26 86 -19 5 -21 9 -11 15 11 7 11 9 0 9 -14 0 -9 41 11 90 5 14 11 31
13 38 24 119 43 237 48 296 1 5 8 13 16 17 97 56 144 78 153 72 6 -3 7 -1 3 5
-4 7 -1 12 6 12 17 0 84 56 176 145 39 40 75 69 78 66 3 -3 4 -1 2 4 -3 10 36
66 43 62 2 -1 3 0 2 2 -1 1 15 28 36 60 208 307 303 733 236 1056 -38 185
-154 367 -315 496 -203 162 -475 256 -989 341 -61 10 -88 21 -149 60 -69 46
-178 146 -168 156 3 2 -6 16 -19 29 -13 14 -29 37 -37 52 -7 14 -25 45 -40 67
-16 23 -28 45 -28 48 0 3 -26 50 -58 103 -32 54 -76 132 -99 173 -22 41 -55
100 -73 130 -18 30 -33 60 -33 67 0 7 -3 10 -7 8 -4 -2 -12 7 -19 21 -6 14
-47 82 -91 151 -44 68 -80 127 -80 130 0 3 -11 19 -25 35 -14 16 -22 35 -18
41 3 7 3 9 -2 5 -10 -9 -66 73 -58 86 3 5 2 6 -3 3 -5 -3 -21 11 -34 31 -14
20 -35 48 -47 62 -13 14 -23 28 -23 32 0 5 -11 21 -24 36 -155 178 -241 274
-274 306 -23 22 -38 44 -35 49 3 6 1 7 -5 3 -6 -3 -18 4 -26 16 -9 12 -16 19
-16 15 0 -4 -15 6 -33 22 -47 43 -156 130 -197 157 -19 13 -61 41 -94 64 -32
22 -60 40 -63 40 -2 0 -37 20 -76 43 -70 42 -302 147 -325 147 -7 0 -12 5 -12
10 0 6 -10 10 -23 10 -13 0 -27 4 -33 9 -5 5 -29 13 -54 19 -25 5 -81 19 -125
30 -220 57 -467 86 -680 81 l-140 -4 -14 30 c-7 17 -33 63 -57 103 -25 40 -42
78 -38 83 3 5 1 8 -4 7 -5 -2 -36 33 -69 77 -85 114 -292 312 -390 374 -29 18
-53 36 -53 40 0 4 -6 8 -13 8 -17 0 -67 33 -67 45 0 5 -4 6 -10 3 -5 -3 -10
-1 -10 4 0 6 -3 11 -7 10 -19 -3 -52 14 -46 24 3 5 2 7 -4 4 -6 -4 -41 10 -79
29 -81 41 -334 144 -355 144 -8 0 -20 5 -27 12 -7 7 -12 9 -12 6 0 -4 -15 -2
-32 3 -18 6 -44 12 -58 15 -14 3 -38 9 -55 13 -28 8 -94 22 -195 41 -141 27
-246 34 -505 35 -154 0 -305 -3 -335 -7 -30 -4 -91 -12 -135 -17 -149 -18
-403 -73 -565 -121 -36 -11 -81 -24 -100 -29 -56 -15 -280 -96 -340 -123 -30
-13 -82 -35 -115 -48 -108 -43 -370 -177 -462 -237 -21 -14 -25 -14 -18 -3 8
13 7 13 -8 1 -9 -7 -17 -9 -17 -3 0 5 -20 22 -44 36 -25 14 -52 33 -60 42 -9
8 -16 12 -16 7 0 -4 -4 -3 -8 3 -4 5 -25 17 -47 25 l-40 15 -5 133 c-3 73 -3
136 0 140 7 9 24 12 120 27 47 7 121 19 165 27 44 9 107 18 139 22 33 3 71 11
85 18 34 16 39 57 11 82 -20 18 -24 18 -183 -5 -256 -36 -280 -40 -314 -49
-34 -10 -46 -3 -48 29 -4 48 -19 123 -34 180 -10 36 -24 90 -30 120 -14 60
-29 114 -42 145 -4 11 -13 38 -20 60 -7 22 -16 45 -21 50 -17 25 -9 28 279
116 18 6 38 7 44 3 7 -4 9 -3 6 2 -3 6 36 20 86 34 93 24 127 46 127 81 0 23
-27 49 -51 49 -27 0 -193 -44 -339 -91 -69 -22 -139 -44 -156 -49 -46 -15 -48
-14 -74 48 -13 31 -40 89 -60 129 -20 39 -32 69 -28 67 5 -3 -3 11 -17 31 -13
21 -22 41 -19 46 3 5 0 9 -6 9 -6 0 -8 5 -5 10 3 6 1 10 -6 10 -7 0 -10 3 -6
6 3 4 -4 21 -17 38 -33 43 -76 132 -69 140 4 3 0 6 -8 6 -43 0 199 100 361
150 141 43 154 50 158 83 4 33 -11 54 -41 59 -33 6 -326 -95 -467 -159 -49
-23 -76 -24 -93 -5 -8 10 -42 64 -77 122 -35 58 -96 153 -137 212 -40 59 -73
114 -73 122 0 7 -7 19 -15 26 -13 11 -85 112 -145 205 -14 21 -111 165 -415
615 -65 96 -138 204 -162 240 -25 36 -51 73 -58 83 -8 9 -12 17 -10 17 3 0 -4
10 -15 23 -12 12 -69 90 -128 172 -96 136 -181 253 -217 297 -8 9 -22 29 -32
45 -10 15 -23 33 -29 38 -14 12 -103 130 -127 167 -9 15 -25 35 -36 45 -16 15
-90 102 -173 203 -78 93 -148 171 -258 283 -69 71 -124 133 -122 139 1 5 -1 7
-6 4 -8 -4 -188 144 -204 168 -4 6 -8 8 -8 4 0 -8 -9 -1 -74 53 -17 14 -59 43
-93 64 -35 20 -60 42 -56 48 3 5 0 7 -8 5 -8 -3 -45 11 -84 30 -38 20 -73 35
-77 34 -5 -1 -8 2 -8 7 0 5 -12 11 -27 14 -16 3 -64 14 -108 25 -98 25 -168
30 -260 20z m265 -178 c142 -50 334 -164 488 -293 183 -152 540 -526 525 -550
-3 -6 -1 -7 5 -3 6 3 20 -6 31 -21 11 -16 30 -38 42 -49 13 -13 18 -27 14 -35
-5 -7 -4 -10 3 -6 5 4 33 -22 61 -58 28 -36 49 -65 46 -65 -2 0 10 -15 28 -34
55 -58 222 -280 222 -296 0 -4 9 -17 20 -27 11 -10 27 -27 35 -37 13 -18 13
-19 0 -11 -8 5 0 -6 18 -24 32 -32 92 -114 92 -125 0 -3 8 -15 18 -25 21 -24
57 -74 57 -81 0 -3 16 -26 36 -50 32 -41 55 -73 84 -118 6 -9 18 -25 27 -35 9
-11 24 -35 33 -53 9 -19 19 -34 23 -34 9 0 46 -62 44 -72 -1 -5 2 -8 8 -8 11
0 45 -60 42 -73 -1 -5 1 -6 6 -3 5 3 69 -86 143 -197 74 -111 179 -267 233
-346 55 -80 99 -151 99 -158 0 -7 3 -11 6 -9 10 6 263 -381 261 -398 -1 -5 2
-12 7 -15 22 -15 55 -74 50 -91 -3 -12 0 -17 7 -14 7 3 18 -7 24 -21 11 -24
10 -26 -28 -41 -22 -9 -40 -19 -40 -23 0 -3 -17 -15 -37 -26 -21 -11 -44 -26
-51 -33 -8 -6 -23 -17 -35 -23 -11 -7 -58 -40 -104 -75 -46 -35 -83 -62 -83
-60 0 2 -15 -10 -33 -27 -18 -18 -48 -43 -65 -55 -59 -44 -109 -99 -114 -126
-3 -15 -3 -25 0 -22 2 3 11 -1 19 -9 24 -24 59 -17 105 21 23 20 46 41 50 48
4 6 8 7 8 3 0 -5 12 5 26 22 14 17 46 43 70 57 24 14 44 29 44 33 0 10 56 41
64 36 3 -3 4 -2 1 1 -11 16 200 154 227 149 10 -2 16 0 13 6 -4 5 2 12 11 16
10 4 19 2 22 -5 2 -7 7 -10 11 -8 4 3 27 -34 52 -82 24 -48 56 -107 72 -131
15 -25 27 -53 27 -63 0 -10 5 -18 10 -18 6 0 10 -5 10 -10 0 -6 17 -48 39 -93
48 -103 48 -126 1 -142 -19 -7 -79 -33 -133 -59 -55 -25 -102 -46 -107 -46 -4
0 -28 -11 -51 -25 -24 -14 -60 -30 -78 -36 -19 -7 -55 -24 -80 -39 -26 -14
-61 -32 -80 -38 -18 -7 -40 -20 -47 -29 -27 -36 -11 -83 29 -83 18 0 157 59
342 145 55 25 109 50 120 55 101 47 161 67 176 59 15 -8 68 -158 99 -279 4
-19 13 -53 19 -75 20 -78 40 -196 35 -209 -3 -8 -48 -22 -107 -35 -56 -11
-154 -32 -217 -46 -63 -15 -155 -35 -204 -45 -102 -22 -132 -43 -122 -85 9
-35 29 -41 95 -26 330 71 414 88 534 106 l37 6 0 -158 c0 -166 -21 -303 -69
-452 -25 -77 -73 -185 -83 -189 -4 -2 -8 -11 -8 -19 0 -22 -42 -93 -51 -87 -5
3 -6 -1 -3 -9 3 -8 -1 -21 -8 -28 -7 -8 -19 -26 -27 -41 -8 -15 -23 -37 -33
-48 -10 -11 -15 -20 -11 -20 4 0 0 -7 -10 -14 -10 -8 -17 -16 -15 -18 2 -3
-53 -86 -82 -122 -52 -65 -73 -85 -83 -79 -6 3 -7 1 -3 -5 4 -7 2 -12 -4 -12
-6 0 -8 -4 -5 -10 3 -6 2 -10 -3 -10 -5 0 -15 -11 -22 -25 -7 -13 -17 -22 -22
-19 -4 3 -8 0 -8 -7 0 -24 -229 -251 -244 -242 -6 3 -8 2 -3 -2 10 -11 -23
-46 -36 -38 -5 3 -7 1 -4 -5 6 -9 -8 -24 -73 -75 -84 -68 -149 -121 -166 -138
-12 -12 -27 -18 -33 -14 -7 3 -10 1 -9 -6 2 -6 -13 -24 -33 -38 -19 -14 -64
-47 -100 -73 -157 -116 -384 -268 -399 -268 -4 0 -10 -4 -12 -8 -4 -10 -193
-122 -206 -122 -6 0 -12 -4 -14 -9 -4 -10 -56 -39 -324 -177 -111 -57 -208
-104 -217 -104 -8 0 -17 -3 -19 -7 -6 -14 -324 -151 -550 -237 -157 -59 -386
-136 -396 -134 -4 1 -16 -3 -27 -9 -26 -14 -375 -105 -490 -128 -220 -44 -373
-65 -525 -72 -121 -5 -144 -3 -220 17 -47 13 -97 25 -112 28 -16 2 -25 9 -21
15 3 6 1 7 -5 3 -6 -4 -19 -2 -29 3 -10 5 -43 21 -73 35 -61 28 -197 147 -220
192 -60 121 -103 183 -192 280 -27 28 -45 55 -40 60 4 5 3 6 -2 2 -5 -4 -27 8
-50 27 -74 60 -213 141 -318 185 -57 24 -105 47 -108 50 -9 12 -170 57 -285
81 -87 18 -346 14 -447 -6 -193 -39 -322 -99 -426 -199 -35 -34 -44 -38 -52
-26 -5 8 -10 20 -10 26 0 14 122 85 137 79 7 -2 12 1 10 7 -2 14 210 146 237
147 11 1 16 4 13 8 -6 6 121 81 315 186 87 48 105 68 93 106 -16 51 -42 42
-344 -129 -113 -64 -222 -125 -241 -136 -19 -10 -37 -21 -40 -25 -9 -9 -214
-135 -232 -142 -12 -4 -23 4 -37 29 -12 20 -18 40 -15 46 4 6 3 8 -3 5 -5 -3
-33 45 -62 106 -30 62 -65 135 -78 162 -32 65 -103 240 -103 254 0 13 55 43
64 34 3 -4 6 -1 6 5 0 5 21 18 48 28 26 10 53 22 60 27 6 5 12 6 12 2 0 -5 8
-1 18 7 35 30 318 135 330 123 3 -3 11 0 18 6 23 19 253 74 341 81 7 1 11 4
10 7 0 3 3 16 7 29 10 31 -17 62 -55 62 -51 0 -363 -72 -416 -96 -17 -8 -34
-14 -38 -14 -20 0 -332 -129 -399 -165 -27 -14 -52 -22 -56 -18 -7 7 -57 139
-64 168 -4 13 -15 43 -31 80 -7 17 -20 57 -29 90 -9 33 -24 77 -32 98 -8 21
-12 42 -9 47 3 4 1 10 -3 12 -5 1 -26 39 -48 83 -23 44 -60 118 -85 165 -24
47 -55 110 -69 140 -13 30 -53 115 -87 188 -35 73 -63 139 -63 146 0 6 -4 16
-9 22 -11 10 -72 154 -148 344 -25 63 -51 129 -58 145 -64 145 -209 561 -240
685 -1 3 -13 43 -27 90 -61 194 -122 463 -147 640 -6 41 -15 107 -21 147 -5
39 -10 153 -10 251 0 205 19 328 72 467 31 79 81 165 97 165 5 0 11 8 13 18 8
29 136 119 208 147 36 14 92 30 125 36 69 13 285 17 363 7 29 -4 79 -10 110
-13 76 -9 296 -59 402 -90 173 -52 340 -108 340 -114 0 -4 8 -7 18 -8 9 0 49
-13 87 -28 39 -15 80 -30 92 -32 13 -3 20 -10 16 -16 -3 -5 -1 -7 4 -4 12 7
273 -105 493 -212 161 -78 232 -115 428 -220 74 -39 146 -71 161 -71 28 0 172
65 220 100 51 36 325 169 326 158 0 -2 10 6 22 17 12 12 39 27 60 34 21 8 64
27 97 42 32 16 62 26 66 24 5 -3 10 -2 12 2 3 8 89 49 160 77 58 23 68 53 84
265 7 102 18 224 24 271 6 47 15 128 20 180 20 189 45 331 110 635 11 50 24
106 29 125 39 140 53 188 85 285 43 128 79 222 110 285 82 163 110 217 126
235 9 11 20 28 23 38 4 11 12 15 18 11 7 -4 9 -3 5 4 -10 16 131 154 195 190
31 17 80 38 110 47 76 21 215 14 299 -15z m6150 -4851 c214 -20 531 -88 620
-134 16 -8 33 -15 39 -15 5 0 22 -5 38 -12 15 -6 31 -11 35 -10 23 5 417 -213
448 -248 3 -3 18 -14 34 -24 50 -32 206 -188 199 -199 -3 -5 -1 -7 4 -4 6 4
19 -6 29 -21 9 -15 35 -47 56 -72 21 -25 38 -49 38 -53 -1 -5 7 -16 17 -25 10
-10 23 -26 30 -37 45 -73 75 -127 77 -138 1 -7 7 -21 13 -33 53 -96 119 -320
133 -455 28 -273 -3 -485 -104 -699 -63 -133 -96 -181 -188 -274 l-58 -59 0
111 c0 143 -17 226 -69 344 -23 50 -48 66 -79 49 -11 -6 -22 -8 -24 -5 -10 10
11 -82 31 -136 27 -74 41 -159 41 -245 0 -111 -29 -243 -51 -229 -5 3 -9 1 -9
-4 0 -10 -113 -68 -197 -101 -29 -11 -53 -18 -53 -15 0 4 -6 2 -12 -3 -22 -17
-121 -37 -237 -48 -30 -3 -33 -1 -28 18 35 148 47 231 47 330 0 127 -20 278
-40 301 -16 20 -54 20 -74 0 -19 -19 -19 -17 -1 -129 19 -113 19 -196 1 -305
-15 -87 -40 -192 -51 -210 -8 -13 -124 -13 -199 1 -81 14 -227 50 -246 60 -8
4 -27 10 -41 13 -34 7 -39 25 -46 157 -6 118 3 184 48 338 27 96 27 122 -4
134 -8 3 -25 0 -38 -7 -49 -24 -106 -254 -110 -448 l-3 -106 -38 19 c-20 10
-47 29 -59 42 -12 12 -18 15 -13 7 10 -19 -78 52 -131 105 -93 92 -176 227
-220 357 -30 89 -41 145 -61 303 -8 66 -19 122 -24 123 -6 2 -10 8 -10 13 0 6
-11 26 -25 46 -13 20 -21 41 -18 46 3 6 1 7 -5 3 -7 -4 -12 -1 -12 8 0 9 -3
16 -7 16 -5 0 -26 16 -48 36 -44 38 -100 72 -155 93 -19 8 -55 23 -78 34 -39
17 -45 18 -59 4 -20 -20 -9 -51 22 -65 14 -7 25 -20 25 -31 0 -27 26 -51 55
-51 21 0 23 -4 22 -40 -2 -44 -15 -47 -34 -9 -7 14 -21 33 -31 43 -19 16 -21
16 -48 -7 -32 -25 -36 -26 -77 -9 -16 7 -52 13 -80 13 -63 2 -112 11 -109 22
1 4 2 18 2 32 0 21 -5 25 -31 25 -24 0 -32 -5 -37 -22 -3 -13 -4 -25 -3 -27 8
-11 -26 -18 -53 -10 -17 5 -42 7 -56 4 -14 -3 -56 -7 -94 -10 -67 -4 -68 -4
-64 20 4 17 0 25 -16 29 -22 6 -56 -18 -56 -39 0 -17 -20 -24 -88 -31 -77 -9
-102 -25 -102 -69 0 -60 13 -63 248 -58 195 5 321 -2 481 -27 78 -12 211 -52
205 -61 -2 -4 3 -10 12 -13 10 -4 13 -2 8 6 -9 14 8 5 53 -28 17 -13 38 -24
45 -24 19 0 38 -20 38 -40 0 -9 16 -33 35 -53 19 -20 35 -46 35 -57 0 -10 7
-45 15 -77 9 -32 18 -74 21 -93 2 -19 10 -38 17 -42 6 -4 9 -8 5 -8 -12 0 71
-158 120 -230 48 -70 141 -183 156 -189 6 -2 19 -13 31 -25 73 -73 266 -179
415 -229 153 -51 312 -78 490 -83 91 -2 188 1 215 6 28 5 68 11 90 13 88 11
239 59 355 114 89 43 246 149 263 179 4 8 14 14 21 14 7 0 22 14 35 30 12 17
26 28 32 25 5 -4 8 -1 7 7 -2 7 3 12 10 10 8 -1 11 2 8 7 -4 5 13 34 36 63 24
29 51 65 60 79 9 14 23 33 30 40 7 8 14 19 15 25 3 18 51 103 55 99 2 -2 4 4
5 13 1 9 15 55 32 101 52 140 81 307 81 471 0 101 -25 296 -51 400 -12 47 -23
102 -24 123 l-3 37 177 -4 c194 -5 285 -16 436 -52 189 -45 315 -84 315 -97 0
-5 5 -5 10 -2 9 6 54 -13 200 -83 30 -15 58 -31 61 -35 3 -5 10 -9 15 -9 20 0
102 -53 97 -63 -4 -5 -3 -7 2 -3 13 12 170 -92 160 -106 -3 -3 -2 -4 1 -1 15
11 231 -176 328 -284 17 -19 46 -51 65 -70 66 -70 266 -327 266 -343 0 -5 5
-12 11 -16 15 -11 77 -105 77 -119 0 -7 4 -10 9 -7 4 3 8 1 8 -4 0 -5 16 -33
35 -61 20 -28 33 -51 30 -51 -3 0 -1 -6 5 -12 24 -28 101 -151 126 -200 15
-29 35 -65 45 -79 10 -14 19 -32 21 -40 2 -8 5 -16 8 -19 6 -5 36 -55 72 -120
11 -19 35 -60 53 -90 18 -30 35 -62 37 -70 2 -8 6 -17 9 -20 3 -3 30 -43 61
-90 92 -139 111 -163 160 -209 26 -24 45 -48 41 -54 -3 -6 -1 -7 6 -3 6 4 32
-8 59 -27 83 -61 128 -77 315 -112 200 -39 398 -83 437 -98 14 -5 34 -13 45
-17 11 -5 46 -18 78 -30 31 -12 60 -26 63 -31 3 -5 12 -9 21 -9 24 0 173 -95
223 -143 94 -90 146 -159 134 -178 -4 -7 -3 -9 3 -6 10 6 39 -50 69 -135 13
-39 10 -73 -7 -62 -5 3 -6 10 -3 16 4 7 2 8 -4 4 -6 -4 -28 4 -49 17 -45 28
-129 67 -143 67 -6 0 -18 4 -28 9 -18 10 -90 26 -160 36 -31 5 -49 2 -67 -9
-46 -30 -25 -83 36 -90 71 -9 199 -45 251 -72 100 -50 217 -158 213 -196 -1
-13 -6 -54 -9 -93 -9 -85 -36 -205 -69 -303 l-24 -73 -30 33 c-34 39 -138 128
-149 128 -4 0 -15 6 -23 14 -52 46 -282 136 -347 136 -38 0 -59 -27 -50 -64 4
-18 19 -26 73 -41 126 -32 227 -75 277 -116 6 -5 23 -19 39 -30 15 -11 24 -25
21 -31 -4 -7 -2 -8 5 -4 16 10 36 -8 88 -78 l43 -58 -30 -54 c-67 -123 -173
-249 -279 -333 -22 -18 -41 -29 -41 -24 0 4 -5 0 -11 -9 -7 -13 -21 -17 -60
-15 -46 2 -49 4 -47 27 4 39 -11 128 -52 320 -12 55 -39 128 -81 219 -21 46
-39 90 -39 97 0 8 -3 14 -7 14 -5 0 -19 17 -32 38 -14 20 -36 49 -49 64 -13
14 -21 31 -17 37 3 7 3 10 -2 9 -14 -5 -143 114 -136 125 3 6 1 7 -5 3 -6 -3
-45 16 -86 44 -41 27 -80 50 -86 50 -6 0 -8 5 -4 12 4 7 3 8 -5 4 -6 -4 -25 2
-41 14 -17 12 -30 18 -30 14 0 -4 -8 0 -17 8 -10 8 -33 18 -51 22 -19 3 -48
12 -65 20 -18 8 -45 17 -62 21 -16 3 -48 10 -70 15 -122 30 -312 48 -645 64
-41 2 -92 8 -113 14 -21 6 -36 8 -33 5 8 -9 -14 -33 -30 -33 -9 0 -14 11 -14
31 0 22 -5 32 -20 36 -11 3 -18 9 -15 13 2 4 -6 5 -20 3 -13 -3 -26 -11 -29
-18 -7 -20 5 -56 17 -48 6 3 7 1 3 -5 -13 -22 -51 3 -54 37 -4 36 -25 50 -80
53 -36 1 -38 2 -23 18 9 9 20 15 24 12 5 -2 3 5 -4 17 -8 11 -27 26 -43 32
-25 11 -30 10 -42 -6 -14 -19 -15 -19 -37 3 -14 14 -22 35 -22 55 0 28 -4 32
-28 35 -25 3 -28 0 -25 -19 4 -30 -11 -33 -49 -9 -22 13 -33 27 -33 43 0 27
-48 67 -78 64 -11 0 -19 -4 -16 -8 6 -11 -22 -18 -45 -12 -14 3 -24 18 -31 44
-10 36 -14 39 -45 39 -19 0 -36 -4 -40 -9 -7 -13 -34 -7 -77 17 -20 11 -39 18
-42 15 -3 -3 -8 7 -12 21 -3 15 -4 30 0 33 3 3 1 12 -5 20 -16 19 -75 16 -91
-4 -18 -25 -36 -26 -43 -4 -7 24 -51 44 -73 33 -22 -11 -75 -7 -112 8 -30 12
-30 13 -13 41 16 27 16 29 -1 48 -17 19 -21 19 -52 6 -32 -13 -36 -12 -59 8
-13 12 -27 35 -29 50 -7 39 -23 56 -51 52 -22 -2 -24 1 -22 33 3 45 -20 61
-63 45 -28 -11 -32 -9 -86 44 -37 37 -61 53 -73 50 -10 -2 -38 8 -61 24 -52
35 -66 36 -97 7 -32 -30 -29 -51 15 -89 20 -17 44 -46 52 -62 9 -19 26 -34 43
-38 16 -4 25 -3 21 2 -9 15 13 10 30 -7 22 -21 20 -25 -7 -19 -14 4 -28 1 -35
-7 -16 -20 8 -64 34 -60 23 4 46 31 37 45 -15 24 28 -12 65 -56 25 -29 39 -53
35 -63 -6 -16 -34 -16 -35 1 -2 48 -71 64 -87 21 -9 -22 -14 -23 -148 -29
-239 -9 -497 -68 -708 -161 -105 -46 -279 -143 -330 -184 -5 -4 -26 -19 -45
-32 -69 -48 -210 -184 -285 -274 -22 -27 -52 -62 -67 -77 -14 -16 -23 -29 -20
-29 4 0 -2 -7 -12 -15 -11 -8 -16 -15 -10 -15 5 0 4 -4 -2 -8 -18 -12 -143
-226 -189 -325 -55 -119 -115 -296 -117 -349 -2 -46 26 -78 67 -78 33 0 72 36
81 73 16 76 127 338 146 345 4 2 8 10 8 17 0 31 158 275 178 275 7 0 11 4 7 9
-10 16 191 231 215 231 6 0 8 5 4 12 -5 8 -2 9 10 5 9 -4 14 -3 11 2 -7 12 35
42 48 34 6 -3 7 -1 3 5 -6 10 6 21 65 64 69 49 114 76 121 72 4 -3 8 -1 8 3 0
21 273 145 360 164 19 4 62 15 95 24 152 42 206 48 460 49 237 1 259 -1 375
-29 3 -1 25 -5 50 -9 76 -13 296 -79 340 -102 14 -7 46 -20 73 -30 26 -9 47
-21 47 -26 0 -5 5 -6 10 -3 6 3 10 1 10 -4 0 -6 6 -11 14 -11 16 0 281 -133
305 -153 9 -7 43 -29 76 -47 33 -18 109 -66 168 -106 88 -61 115 -74 147 -74
21 0 42 5 46 11 9 15 518 6 624 -11 94 -15 302 -60 315 -69 6 -3 12 -6 15 -6
19 -2 95 -33 151 -61 145 -73 298 -216 368 -344 37 -69 63 -122 66 -139 4 -20
-14 -27 -125 -51 -52 -11 -291 -12 -367 -1 -67 9 -108 -6 -110 -41 -2 -14 4
-31 11 -37 38 -31 358 -41 518 -15 55 8 105 13 112 11 39 -15 78 -505 44 -549
-7 -9 -38 -21 -70 -28 -71 -14 -334 -15 -396 -1 -26 6 -67 15 -92 21 -104 25
-125 26 -145 10 -20 -17 -24 -45 -9 -71 7 -13 13 -21 14 -17 0 4 30 -2 68 -13
131 -38 257 -52 417 -46 83 2 157 7 165 11 8 3 21 2 28 -2 10 -7 10 -21 -3
-74 -34 -146 -97 -318 -117 -318 -5 0 -7 -4 -4 -8 7 -12 -70 -125 -91 -134
-29 -11 -212 -9 -277 3 -88 17 -213 59 -253 86 -57 38 -103 26 -103 -27 0 -35
76 -80 207 -125 103 -35 177 -48 275 -48 l58 -1 -33 -27 c-17 -16 -35 -28 -38
-29 -3 0 -19 -11 -35 -25 -42 -36 -141 -82 -231 -107 -70 -20 -102 -22 -308
-22 -194 -1 -253 3 -375 23 -148 24 -165 28 -445 101 -180 48 -172 48 -434 1
-62 -12 -150 -25 -195 -31 -44 -5 -139 -16 -211 -25 -297 -35 -1036 -38 -1470
-5 -339 26 -793 41 -1365 46 -1275 10 -2267 34 -2855 69 -44 3 -174 9 -290 15
-428 21 -986 70 -1265 111 -74 11 -164 24 -200 29 -93 14 -213 42 -227 53 -7
5 -10 14 -6 20 3 5 1 7 -5 3 -6 -3 -13 -2 -17 4 -10 16 -33 12 -53 -10 -23
-25 -42 -19 -64 20 -20 36 -61 41 -78 10 -13 -24 -43 -26 -60 -5 -9 11 -25 14
-52 12 -21 -2 -38 0 -38 5 0 4 -5 8 -11 8 -5 0 -7 -5 -3 -11 7 -11 -10 -8 -64
12 -21 8 -22 10 -8 25 23 22 20 49 -8 63 -35 19 -73 -4 -67 -41 0 -5 -4 -8
-10 -8 -5 0 -7 -4 -4 -10 3 -6 -1 -7 -9 -4 -9 3 -17 10 -17 15 -1 5 -2 13 -3
19 -4 34 -66 48 -91 20 -16 -18 -18 -18 -51 2 -23 13 -44 18 -62 15 -15 -4
-49 1 -75 11 -37 13 -48 21 -46 37 2 35 0 42 -23 51 -33 14 -66 6 -73 -17 -8
-24 -17 -24 -40 1 -14 15 -31 20 -70 20 -28 0 -55 4 -61 9 -5 5 -20 11 -34 13
-14 1 -26 9 -26 16 -1 6 -2 18 -3 26 -4 47 -74 62 -93 21 -6 -14 -14 -25 -18
-25 -3 0 -21 16 -38 36 -30 34 -34 35 -55 22 -27 -17 -59 -17 -64 0 -3 7 5 12
21 12 36 0 54 44 30 71 -36 39 -93 14 -94 -41 -1 -24 -1 -24 -15 -7 -7 11 -11
25 -9 31 8 20 -22 38 -58 34 -30 -3 -34 -7 -43 -46 -8 -32 -18 -47 -40 -58
-19 -10 -31 -11 -33 -5 -2 6 -11 11 -20 11 -15 0 -15 -2 -2 -10 11 -8 7 -9
-15 -4 -32 7 -33 7 -52 5 -16 -1 -54 -42 -47 -52 2 -4 0 -10 -5 -13 -5 -3 -14
7 -21 23 -22 54 -94 25 -92 -38 0 -25 -5 -30 -41 -41 -23 -8 -45 -13 -49 -12
-5 1 -8 -4 -8 -10 0 -8 -3 -9 -8 -3 -4 6 -14 16 -23 23 -23 17 -66 -3 -85 -40
-14 -27 -54 -57 -54 -40 0 4 -13 9 -29 10 -20 1 -40 -8 -72 -36 -31 -27 -55
-39 -81 -41 -21 -1 -59 -13 -85 -25 -26 -13 -88 -36 -138 -51 -49 -15 -116
-36 -147 -47 -32 -10 -66 -18 -76 -18 -10 0 -22 -4 -27 -8 -6 -5 -37 -14 -70
-21 -33 -7 -71 -17 -85 -22 -29 -10 -116 -27 -348 -69 -307 -55 -722 -73 -970
-40 -112 15 -302 62 -295 73 4 6 0 8 -9 4 -9 -3 -28 1 -43 9 -15 8 -31 14 -36
14 -15 0 -118 50 -124 60 -3 5 -21 17 -39 25 -18 9 -67 47 -108 85 -144 133
-265 349 -299 534 -74 405 -41 715 122 1143 68 179 259 574 308 637 27 35 71
132 71 156 0 16 -8 44 -19 62 -10 18 -36 65 -58 103 -47 82 -110 238 -123 304
-5 25 -14 62 -20 81 -18 57 -24 251 -11 322 22 117 103 291 126 271 4 -5 5 -2
0 5 -18 33 190 192 252 192 17 0 17 -4 -7 -49 -76 -149 -91 -463 -30 -606 22
-52 41 -63 76 -45 29 16 30 39 7 124 -25 91 -23 258 5 365 31 118 124 279 156
268 6 -2 25 0 41 5 65 19 250 10 368 -18 61 -14 117 -31 122 -36 6 -6 3 -7 -9
-2 -12 5 -17 4 -13 -2 3 -6 -10 -27 -29 -48 -19 -20 -34 -41 -34 -45 0 -4 -9
-17 -20 -29 -12 -12 -18 -22 -15 -22 3 0 -3 -17 -14 -38 -50 -98 -66 -180 -66
-337 0 -216 27 -292 94 -270 30 9 33 36 15 116 -20 90 -15 232 13 334 23 84
83 201 102 197 7 -1 10 2 6 8 -8 13 62 83 75 75 6 -4 10 -1 10 5 0 7 9 9 23 5
97 -29 314 -156 301 -177 -5 -7 -3 -8 6 -3 14 9 176 -152 200 -200 8 -17 18
-32 21 -35 6 -5 89 -149 89 -154 0 -4 143 -146 147 -146 6 0 90 -95 131 -149
60 -78 137 -240 164 -341 31 -122 31 -348 -1 -470 -34 -131 -102 -330 -113
-330 -5 0 -7 -4 -4 -9 6 -9 -60 -189 -75 -206 -5 -5 -9 -15 -9 -22 0 -7 -13
-42 -30 -78 -17 -36 -30 -67 -30 -70 0 -4 -103 -240 -137 -315 -9 -19 -17 -50
-17 -70 -1 -31 3 -36 34 -46 26 -9 37 -9 42 0 4 6 8 7 8 1 0 -5 9 9 19 32 11
23 36 58 55 77 20 19 36 38 36 44 0 5 12 14 26 21 20 9 25 17 20 34 -7 29 3
44 33 48 38 6 49 33 28 68 -14 24 -15 29 -2 27 8 -1 17 -5 20 -8 13 -12 51 5
63 30 15 31 2 44 -40 39 -33 -4 -31 11 16 101 20 37 42 84 50 105 18 43 52 62
77 41 19 -17 41 -18 57 -2 18 18 14 46 -8 58 -12 7 -18 16 -13 23 4 7 0 6 -10
-2 -10 -8 -20 -11 -24 -8 -3 4 -12 2 -19 -4 -15 -13 -14 6 4 38 7 12 12 34 12
50 0 25 19 72 20 49 0 -6 7 -1 15 10 8 10 15 36 15 56 0 34 3 38 32 46 32 8
33 11 31 54 -2 43 -2 45 25 44 27 -1 28 -2 15 -26 -19 -37 -16 -59 12 -72 19
-8 31 -8 51 1 22 10 25 17 22 49 -3 32 0 37 20 40 18 3 22 -1 22 -21 0 -58 31
-85 75 -65 22 10 26 17 23 40 -3 16 -1 31 4 34 4 3 8 -1 8 -8 0 -10 2 -10 9 1
14 22 31 3 25 -28 -5 -24 -2 -30 26 -41 43 -18 65 -4 65 41 0 41 3 44 32 37
20 -5 21 -10 13 -37 -7 -26 -5 -33 10 -41 25 -13 79 -1 90 20 5 10 7 20 4 22
-2 3 -6 14 -8 24 -3 15 2 19 24 19 26 0 28 -2 23 -32 -3 -18 -1 -39 6 -46 6
-8 9 -16 6 -18 -9 -10 70 4 83 13 22 18 14 56 -15 73 -28 16 -28 16 23 11 36
-3 62 1 94 15 28 13 46 16 48 9 2 -5 7 -8 12 -5 4 3 13 -2 20 -10 18 -22 31
-19 70 15 40 33 50 36 50 15 0 -18 31 -35 64 -35 20 0 29 8 40 35 15 36 29 44
42 23 4 -7 3 -8 -4 -4 -15 9 -15 1 -2 -25 8 -14 21 -19 51 -19 59 0 81 15 77
52 -3 31 -2 31 62 44 42 9 68 10 74 4 14 -14 52 -12 68 3 7 8 24 19 37 26 19
11 25 10 35 -5 18 -23 59 -12 74 21 12 26 19 29 60 25 13 -1 33 7 45 17 13 11
17 13 12 3 -5 -8 4 -5 19 8 16 12 35 22 42 22 7 0 85 24 174 54 89 30 167 53
174 52 6 -2 7 -1 2 2 -5 3 24 17 65 32 41 15 98 37 127 49 29 12 51 17 47 12
-3 -5 -1 -12 4 -15 5 -3 15 -30 21 -58 16 -70 78 -228 98 -250 8 -10 12 -18 8
-18 -7 0 27 -41 101 -121 29 -30 52 -58 50 -60 -1 -2 -1 -3 1 -2 2 0 33 -21
69 -48 204 -155 492 -207 743 -134 119 34 274 117 332 178 15 16 32 26 38 22
6 -4 7 1 3 11 -4 10 -2 15 3 11 6 -3 19 8 29 26 10 18 38 58 61 90 104 140
166 350 157 532 -3 89 -46 260 -84 339 -38 79 -111 176 -188 249 -34 32 -61
61 -61 65 0 4 32 27 71 52 38 24 80 52 92 61 12 10 72 57 132 104 105 82 165
134 312 273 36 34 71 62 76 62 6 0 8 2 5 5 -3 3 22 34 56 68 33 34 80 84 103
110 23 27 47 46 53 42 5 -3 7 0 4 8 -4 13 73 111 103 130 7 4 13 12 13 18 0 5
4 15 10 22 70 88 103 132 112 152 6 14 14 25 18 25 4 0 15 18 25 40 10 22 22
40 27 40 4 0 8 5 8 10 0 6 18 40 40 76 22 36 40 67 40 69 0 16 68 143 74 138
4 -4 4 1 0 11 -5 13 -4 17 3 13 6 -4 10 -1 9 6 0 6 18 71 41 142 23 72 48 171
54 220 15 118 6 280 -21 375 -20 69 -87 217 -113 248 -30 37 -19 48 124 126
77 42 146 73 152 70 7 -4 9 -3 4 1 -9 10 90 58 104 50 5 -4 9 -2 9 3 0 30 515
210 745 261 400 88 730 112 1095 80z m-3943 -3101 c43 -12 70 -25 66 -31 -3
-6 -1 -7 6 -3 6 4 24 1 39 -7 85 -44 111 -61 105 -70 -3 -6 -1 -7 4 -4 14 9
105 -64 99 -79 -3 -8 0 -11 9 -8 9 4 12 -1 11 -13 -2 -10 -10 -17 -19 -17 -9
1 -13 -4 -10 -12 3 -8 1 -14 -4 -14 -5 0 -42 -32 -83 -71 -98 -92 -200 -175
-212 -171 -5 1 -7 -2 -3 -7 3 -6 -14 -23 -37 -38 -24 -15 -45 -31 -46 -36 -2
-4 -8 -5 -13 -1 -5 3 -9 1 -9 -4 0 -11 -69 -55 -87 -55 -7 0 -10 -4 -8 -8 6
-8 -236 -132 -243 -124 -3 3 -13 -2 -22 -10 -25 -23 -207 -93 -315 -120 -51
-13 -54 -13 -63 -2 -16 20 -42 170 -42 238 0 77 29 221 43 212 6 -3 7 -1 3 5
-9 14 33 114 45 106 5 -3 6 1 4 9 -3 7 10 33 28 58 41 53 147 165 147 155 0
-4 7 0 16 8 28 28 139 85 209 107 132 41 253 44 382 7z m514 -505 c54 -173 24
-399 -75 -567 -42 -71 -164 -199 -208 -219 -16 -6 -28 -16 -28 -20 0 -5 -4 -5
-10 -2 -5 3 -10 2 -10 -3 0 -12 -137 -65 -209 -82 -84 -20 -270 -8 -352 22
-101 37 -189 91 -256 156 -48 47 -59 62 -51 75 5 10 13 15 19 12 5 -4 9 -2 9
4 0 6 8 8 18 4 9 -3 14 -2 9 2 -9 10 120 78 133 70 6 -4 10 -2 10 3 0 12 136
83 144 75 3 -3 6 -2 6 4 0 10 50 35 78 39 15 3 58 -54 54 -70 -2 -6 0 -8 4 -3
4 4 20 -5 35 -19 33 -32 107 -43 154 -23 17 7 33 12 36 11 4 -1 27 19 52 43
31 29 50 58 58 87 10 39 9 51 -14 116 -31 85 -35 76 85 158 40 27 83 59 96 72
14 12 30 22 36 23 6 0 38 22 71 49 33 27 65 49 72 49 7 1 22 -29 34 -66z"/>
<path d="M5635 12000 c-110 -25 -193 -98 -252 -218 -21 -42 -41 -79 -46 -80
-4 -2 -5 -7 -2 -12 3 -4 -2 -27 -11 -51 -32 -93 -68 -353 -79 -574 -7 -155 9
-481 31 -630 21 -141 55 -246 96 -290 17 -20 56 -47 85 -62 51 -25 59 -26 156
-19 56 3 120 11 142 16 238 59 341 75 495 74 135 0 169 -4 270 -29 63 -15 146
-39 184 -52 43 -15 104 -27 158 -30 75 -5 96 -3 150 17 75 27 102 50 129 110
27 58 26 157 -2 237 -11 32 -26 76 -32 98 -6 22 -14 42 -17 45 -11 11 -70 134
-70 146 0 8 -4 14 -9 14 -10 0 -37 60 -33 73 1 5 -2 6 -8 2 -5 -3 -10 -1 -10
5 0 6 -27 51 -60 101 -34 49 -58 95 -54 101 4 6 3 8 -3 5 -5 -3 -20 8 -33 25
-12 17 -16 28 -9 24 8 -4 6 -1 -3 7 -23 18 -158 205 -158 218 0 6 -4 7 -10 4
-5 -3 -10 -2 -10 3 0 4 -16 27 -36 50 -19 23 -34 42 -31 42 4 0 -23 29 -124
136 -22 22 -37 44 -34 47 3 4 2 5 -2 2 -5 -4 -29 19 -63 61 -5 7 -6 15 -2 20
4 4 2 4 -4 1 -14 -8 -47 26 -37 38 5 4 3 6 -2 2 -6 -3 -29 11 -52 32 -22 21
-48 41 -57 44 -10 4 -14 12 -10 18 4 7 3 9 -3 6 -12 -8 -145 98 -135 108 4 5
1 5 -5 1 -16 -9 -124 54 -116 68 3 5 1 6 -4 3 -6 -4 -35 4 -64 17 -58 25 -156
38 -204 26z"/>
<path d="M1160 9760 c-62 -13 -125 -48 -173 -96 -61 -60 -79 -96 -107 -213
-21 -84 -22 -109 -17 -250 3 -86 13 -194 22 -241 32 -170 65 -326 74 -359 6
-19 8 -37 6 -42 -3 -4 -1 -10 5 -14 5 -3 10 -15 10 -26 0 -10 4 -27 9 -37 5
-9 26 -69 46 -132 90 -279 229 -596 327 -743 32 -48 58 -92 58 -97 0 -6 5 -10
12 -10 6 0 9 -2 6 -5 -10 -10 118 -133 163 -156 65 -34 176 -34 242 1 26 14
47 29 47 33 0 5 5 5 10 2 6 -3 10 -1 10 5 0 11 10 25 41 58 18 20 63 126 109
262 48 140 116 290 133 290 4 0 7 5 7 11 0 21 81 129 92 123 6 -4 8 -3 5 3 -8
13 62 105 74 97 5 -3 8 -1 7 4 -2 5 60 73 137 150 188 188 211 213 219 240 4
12 12 22 17 22 5 0 9 4 9 9 0 5 5 22 11 38 31 75 -4 191 -84 279 -26 28 -43
55 -39 59 4 5 2 6 -3 2 -6 -3 -43 23 -82 57 -38 34 -99 85 -134 112 -35 26
-68 52 -74 57 -31 25 -169 121 -227 157 -38 23 -68 47 -68 52 0 5 -4 7 -8 4
-5 -3 -18 2 -28 12 -11 9 -24 18 -29 19 -6 1 -50 24 -98 51 -87 49 -329 159
-397 180 -105 33 -265 48 -340 32z"/>
<path d="M7324 8510 c-19 -8 -45 -35 -109 -115 -16 -21 -36 -44 -43 -51 -7 -8
-11 -14 -8 -14 16 0 -71 -82 -224 -214 -54 -46 -140 -94 -250 -138 -165 -68
-285 -87 -553 -88 -166 -2 -176 -3 -195 -23 -41 -45 -31 -121 21 -158 12 -9
65 -26 117 -39 80 -20 121 -24 260 -24 186 -1 255 9 404 61 117 40 222 92 288
140 26 19 52 32 58 28 6 -4 9 -1 8 5 -2 7 6 17 16 23 23 14 186 178 186 188 0
3 11 19 25 35 14 16 25 33 25 38 0 5 11 24 26 43 14 18 22 33 18 33 -3 0 -1 6
5 14 20 24 61 139 61 170 -1 67 -72 112 -136 86z"/>
<path d="M4467 7150 c-26 -16 -47 -34 -47 -38 0 -5 -10 -20 -22 -34 -13 -13
-36 -43 -51 -66 -16 -25 -32 -40 -39 -36 -7 4 -8 3 -4 -5 10 -15 -143 -165
-235 -231 -98 -68 -188 -114 -313 -155 -139 -47 -213 -58 -411 -61 -93 -2
-179 -4 -190 -4 -11 0 -31 -9 -44 -19 -32 -25 -40 -110 -12 -135 20 -18 127
-67 133 -60 3 2 36 -3 74 -12 87 -20 157 -23 309 -12 142 11 155 13 175 21 8
3 63 22 122 42 99 33 185 72 215 97 7 5 18 6 24 2 7 -4 9 -3 6 3 -6 9 61 63
78 63 4 0 25 18 91 81 16 16 36 29 43 29 7 0 10 4 7 8 -3 4 14 26 36 48 22 21
52 57 66 79 14 22 28 42 31 45 7 6 21 29 67 115 60 111 69 209 21 239 -46 29
-79 28 -130 -4z"/>
<path d="M5640 7018 c-121 -34 -312 -140 -379 -211 -26 -29 -38 -98 -23 -137
5 -14 11 -29 12 -35 2 -5 16 -19 31 -31 16 -11 25 -25 21 -29 -4 -5 -2 -6 3
-2 6 3 28 -3 50 -13 22 -11 45 -20 50 -20 6 0 30 -21 55 -45 45 -46 96 -68
148 -65 15 1 32 2 39 1 13 -1 57 -87 68 -133 4 -16 11 -28 16 -28 5 0 9 -4 9
-10 0 -5 13 -36 28 -67 15 -32 27 -70 25 -85 -1 -23 -26 -73 -43 -88 -3 -3
-16 -20 -29 -38 -12 -18 -27 -30 -32 -26 -5 3 -8 0 -7 -8 2 -7 -3 -12 -10 -10
-8 1 -11 -2 -8 -7 8 -12 -18 -33 -29 -23 -5 4 -5 2 -2 -4 15 -27 -164 -122
-282 -150 -83 -19 -278 -17 -379 3 -43 9 -84 12 -100 7 -15 -4 -31 -6 -37 -5
-5 2 -7 -1 -3 -4 4 -4 1 -17 -7 -29 -24 -34 -19 -89 11 -117 22 -20 37 -24 97
-26 40 -1 137 -4 217 -7 162 -5 263 10 379 57 36 14 69 23 74 20 6 -3 7 -1 4
4 -4 6 10 17 31 26 34 14 74 43 136 102 30 28 96 111 131 165 16 25 31 47 32
49 2 3 88 5 191 6 163 1 195 4 250 23 94 32 228 97 272 132 21 16 43 30 49 30
6 0 18 11 27 25 9 14 22 25 28 25 7 0 22 11 34 25 12 14 19 25 15 25 -3 0 3 8
13 18 33 29 105 131 134 186 8 16 29 37 45 47 44 26 54 37 61 64 11 46 -3 71
-52 95 -85 39 -166 10 -180 -67 -8 -42 -101 -186 -114 -178 -6 4 -9 2 -8 -4 4
-16 -135 -152 -149 -147 -7 3 -12 1 -10 -4 1 -6 -7 -16 -19 -23 -148 -87 -231
-112 -369 -112 -60 1 -129 5 -153 9 -42 9 -43 10 -88 105 -25 53 -52 109 -60
125 -7 16 -11 33 -7 39 3 5 2 7 -3 4 -6 -3 -15 7 -21 23 -9 23 -8 32 4 41 32
27 48 76 54 164 3 50 13 116 22 148 10 32 17 72 17 89 0 40 -36 103 -67 117
-37 17 -129 12 -213 -11z"/>
<path d="M10880 6101 c-34 -9 -40 -48 -8 -60 35 -13 67 4 68 36 0 18 -32 31
-60 24z"/>
<path d="M10731 6076 c-14 -17 -4 -46 16 -46 26 0 53 20 53 40 0 15 -7 20 -29
20 -16 0 -34 -6 -40 -14z"/>
<path d="M10586 6028 c-17 -24 -6 -58 19 -58 15 0 45 26 45 40 0 42 -40 53
-64 18z"/>
<path d="M10472 6018 c-15 -15 -15 -25 0 -42 25 -27 90 13 67 41 -14 16 -51
17 -67 1z"/>
<path d="M10801 6014 c-23 -17 -27 -44 -9 -62 16 -16 39 -15 65 3 17 12 20 21
14 37 -11 30 -44 40 -70 22z"/>
<path d="M10944 6020 c-44 -17 -31 -80 16 -80 24 0 49 36 43 61 -3 11 -8 17
-11 14 -3 -2 -10 -1 -16 4 -6 5 -21 5 -32 1z"/>
<path d="M2436 4864 c-5 -14 -4 -15 9 -4 17 14 19 20 6 20 -5 0 -12 -7 -15
-16z"/>
<path d="M4030 4236 c0 -2 8 -10 18 -17 15 -13 16 -12 3 4 -13 16 -21 21 -21
13z"/>
<path d="M14560 3810 c0 -36 21 -48 55 -30 20 11 22 16 13 36 -8 17 -19 24
-40 24 -25 0 -28 -4 -28 -30z"/>
<path d="M14686 3813 c-14 -15 -5 -43 14 -43 13 0 20 7 20 19 0 19 -23 35 -34
24z"/>
<path d="M14726 3734 c-12 -31 -6 -55 18 -66 31 -13 54 -5 65 24 7 18 5 27
-11 41 -25 21 -64 22 -72 1z"/>
<path d="M14345 3710 c-3 -6 1 -7 9 -4 18 7 21 14 7 14 -6 0 -13 -4 -16 -10z"/>
<path d="M14851 3706 c-10 -12 -8 -19 7 -34 11 -11 18 -23 15 -26 -3 -2 8 -1
23 3 32 9 35 36 6 58 -22 16 -37 16 -51 -1z"/>
<path d="M15056 3588 c-12 -36 -3 -48 32 -44 42 6 49 12 36 34 -14 21 -63 28
-68 10z"/>
<path d="M5911 3196 c-6 -7 -9 -20 -6 -28 10 -24 69 -8 73 20 3 18 -1 22 -26
22 -16 0 -35 -6 -41 -14z"/>
<path d="M5541 3103 c-20 -13 -29 -52 -13 -54 4 0 18 -2 31 -3 29 -3 65 32 50
50 -16 19 -46 23 -68 7z"/>
<path d="M5366 3089 c-14 -11 -24 -24 -21 -29 3 -5 -6 -22 -20 -38 -29 -34
-31 -42 -11 -42 8 0 23 11 34 25 16 20 25 23 54 18 66 -10 100 55 41 78 -35
13 -47 11 -77 -12z"/>
<path d="M5139 3005 c-25 -14 -33 -44 -14 -57 30 -22 95 5 95 39 0 20 -54 32
-81 18z"/>
<path d="M4580 2991 c-16 -31 -12 -49 14 -66 19 -13 29 -14 45 -5 26 13 37 55
21 75 -18 22 -67 19 -80 -4z"/>
<path d="M4712 2993 c-30 -58 34 -102 86 -61 15 13 16 50 0 66 -19 19 -76 15
-86 -5z"/>
<path d="M4853 2989 c-20 -20 -20 -24 -6 -45 15 -24 55 -32 80 -16 19 12 28
63 12 73 -25 15 -64 10 -86 -12z"/>
<path d="M4997 2992 c-35 -38 -12 -72 44 -64 21 3 31 11 35 28 12 48 -45 74
-79 36z"/>
<path d="M4527 2898 c-20 -10 -23 -58 -5 -76 17 -17 54 -15 72 3 37 37 -20
100 -67 73z"/>
<path d="M4652 2898 c-7 -7 -12 -24 -12 -40 0 -51 73 -65 96 -19 15 30 10 45
-22 60 -32 14 -47 14 -62 -1z"/>
<path d="M4789 2881 l-30 -30 20 -20 c26 -26 42 -26 73 -1 35 27 42 67 14 74
-36 10 -45 7 -77 -23z"/>
<path d="M4925 2889 c-9 -26 3 -41 28 -37 24 3 53 35 43 46 -4 3 -20 7 -36 8
-21 1 -31 -3 -35 -17z"/>
<path d="M4606 2791 c-21 -24 -20 -54 3 -75 18 -16 21 -16 50 -1 53 27 42 60
-30 92 -4 1 -14 -6 -23 -16z"/>
<path d="M4726 2773 c-4 -9 -2 -21 4 -27 13 -13 44 4 48 28 5 22 -44 22 -52
-1z"/>
<path d="M4569 2683 c-24 -6 -44 -54 -27 -64 21 -14 37 -10 58 11 24 24 26 46
4 54 -9 3 -16 5 -17 5 -1 -1 -9 -3 -18 -6z"/>
<path d="M4432 2668 c-16 -16 -15 -43 1 -56 18 -15 69 -34 63 -23 -4 5 -2 11
3 13 9 3 14 28 12 61 -1 20 -60 24 -79 5z"/>
<path d="M4397 2562 c-27 -16 -39 -62 -16 -62 5 0 8 -4 4 -9 -3 -6 6 -6 24 -1
16 4 32 6 35 4 3 -2 4 -1 1 2 -2 4 2 13 10 20 35 36 -12 74 -58 46z"/>
<path d="M5604 1593 c-11 -10 -20 -27 -19 -37 0 -26 50 -28 81 -4 22 18 22 20
6 38 -20 25 -43 25 -68 3z"/>
<path d="M5714 1585 c-14 -35 17 -62 60 -51 28 7 41 33 25 52 -16 19 -78 18
-85 -1z"/>
<path d="M5412 1490 c-34 -31 -38 -40 -22 -56 19 -19 69 -3 92 29 12 17 17 27
10 23 -7 -4 -12 -3 -12 3 0 6 -8 15 -18 20 -15 8 -25 4 -50 -19z"/>
<path d="M5792 1508 c-19 -19 -14 -56 8 -68 25 -13 68 -3 80 20 22 40 -54 82
-88 48z"/>
<path d="M5924 1476 c-8 -32 -1 -42 31 -49 16 -3 34 2 48 14 30 25 13 53 -36
57 -32 3 -37 0 -43 -22z"/>
<path d="M5998 1393 c-27 -32 6 -83 48 -75 39 7 52 62 20 84 -19 13 -52 9 -68
-9z"/>
<path d="M6138 1399 c-23 -13 -24 -65 -2 -73 26 -10 61 -7 72 7 13 15 11 63
-3 65 -5 0 -19 3 -30 6 -11 3 -28 1 -37 -5z"/>
<path d="M6256 1352 c-9 -14 21 -35 40 -28 8 3 14 12 12 19 -6 15 -44 22 -52
9z"/>
<path d="M5100 1330 c0 -5 5 -10 10 -10 6 0 10 5 10 10 0 6 -4 10 -10 10 -5 0
-10 -4 -10 -10z"/>
<path d="M6332 1299 c-42 -16 -16 -79 32 -79 12 0 33 12 47 27 13 14 19 23 13
20 -7 -4 -14 1 -17 12 -5 21 -44 31 -75 20z"/>
<path d="M6447 1268 c-8 -25 13 -48 44 -48 33 0 48 22 29 45 -15 18 -67 20
-73 3z"/>
<path d="M6793 1163 c-19 -7 -16 -40 5 -48 30 -13 52 -12 64 3 10 11 7 18 -12
33 -26 19 -36 21 -57 12z"/>
<path d="M17604 1276 c-7 -29 1 -46 22 -46 8 0 14 -5 14 -12 0 -6 9 -3 20 7
13 12 20 29 18 44 -2 21 -9 27 -35 29 -27 3 -33 -1 -39 -22z"/>
<path d="M17742 1243 c2 -16 9 -28 17 -28 18 0 24 37 8 47 -22 14 -28 8 -25
-19z"/>
<path d="M1679 1192 c-25 -18 -23 -65 4 -70 55 -11 95 32 63 67 -19 21 -40 22
-67 3z"/>
<path d="M5631 1193 c-43 -36 17 -101 68 -73 31 16 30 75 -1 84 -35 9 -44 7
-67 -11z"/>
<path d="M17675 1190 c-33 -37 -14 -70 41 -70 30 0 54 42 37 68 -13 22 -59 23
-78 2z"/>
<path d="M1540 1186 c-19 -24 -8 -59 20 -67 31 -7 56 4 63 30 10 39 -56 69
-83 37z"/>
<path d="M5480 1180 c-23 -42 33 -85 79 -60 12 6 21 17 21 25 0 8 4 15 9 15 5
0 7 9 4 20 -4 17 -14 20 -54 20 -38 0 -51 -4 -59 -20z"/>
<path d="M17836 1175 c-26 -24 -26 -26 -10 -42 29 -30 114 -10 114 25 0 47
-62 56 -104 17z"/>
<path d="M1608 1103 c-27 -11 -38 -21 -38 -37 0 -26 10 -41 32 -49 28 -10 49
20 46 64 -2 21 -3 39 -3 38 0 0 -17 -7 -37 -16z"/>
<path d="M1732 1102 c-28 -14 -32 -21 -30 -45 6 -61 90 -51 96 10 4 43 -21 56
-66 35z"/>
<path d="M5152 1094 c-27 -18 -27 -61 -1 -77 23 -15 69 0 79 26 7 17 3 27 -16
45 -30 26 -33 27 -62 6z"/>
<path d="M5279 1091 c-20 -16 -22 -23 -14 -47 13 -35 57 -45 86 -18 24 22 24
46 1 67 -24 22 -44 21 -73 -2z"/>
<path d="M5421 1083 c-19 -23 -20 -29 -8 -47 28 -41 97 -24 97 24 0 24 -26 50
-50 50 -10 0 -28 -12 -39 -27z"/>
<path d="M5573 1098 c-28 -13 -30 -49 -5 -71 21 -19 57 -22 67 -7 4 6 9 8 13
6 14 -9 10 50 -5 67 -18 19 -38 21 -70 5z"/>
<path d="M5705 1090 c-15 -16 -16 -25 -7 -44 6 -14 20 -30 31 -36 17 -8 26 -5
53 18 l32 29 -27 27 c-31 31 -57 33 -82 6z"/>
<path d="M5850 1091 c-18 -34 -12 -68 16 -86 15 -9 23 -12 20 -6 -4 7 1 11 13
11 18 0 51 34 51 52 0 5 -9 17 -20 28 -26 26 -66 26 -80 1z"/>
<path d="M5986 1081 c-15 -27 -14 -30 10 -54 27 -27 44 -26 77 1 23 20 22 34
-6 60 -33 31 -63 28 -81 -7z"/>
<path d="M17609 1091 c-40 -32 0 -94 53 -83 20 4 36 68 21 83 -18 18 -52 18
-74 0z"/>
<path d="M1477 1078 c-13 -48 49 -68 70 -23 9 22 8 27 -7 35 -31 17 -57 12
-63 -12z"/>
<path d="M17751 1086 c-16 -19 -11 -56 10 -69 26 -16 67 21 59 53 -7 30 -50
39 -69 16z"/>
<path d="M17871 1086 c-15 -18 17 -76 43 -76 35 0 48 15 44 51 -3 32 -5 34
-40 35 -21 1 -42 -4 -47 -10z"/>
<path d="M4944 1011 c3 -4 -3 -15 -14 -23 -10 -9 -17 -25 -16 -35 3 -23 45
-44 74 -36 28 7 46 64 25 76 -22 13 -74 27 -69 18z"/>
<path d="M1636 999 c2 -4 -3 -12 -11 -19 -33 -27 1 -72 47 -63 30 6 43 32 34
67 -4 18 -12 22 -40 22 -19 -1 -32 -4 -30 -7z"/>
<path d="M1795 1001 c-24 -5 -31 -12 -33 -34 -6 -50 29 -70 81 -46 19 8 22 16
19 40 -5 35 -26 48 -67 40z"/>
<path d="M5062 977 c-13 -35 -9 -45 23 -57 52 -20 90 19 64 66 -19 37 -72 31
-87 -9z"/>
<path d="M5351 989 c-25 -27 -25 -28 -5 -57 17 -25 56 -29 74 -7 7 8 15 13 19
10 6 -3 7 8 2 46 -1 4 -9 9 -18 12 -10 2 -25 8 -34 12 -11 4 -24 -2 -38 -16z"/>
<path d="M5503 995 c-29 -20 -29 -49 -1 -69 45 -32 95 -6 83 43 -8 31 -5 28
-35 36 -16 3 -34 0 -47 -10z"/>
<path d="M5641 989 c-26 -24 -27 -41 -3 -62 24 -22 54 -21 79 1 16 13 18 23
12 47 -7 24 -14 30 -37 32 -18 1 -38 -6 -51 -18z"/>
<path d="M5781 991 c-32 -32 -8 -81 39 -81 45 0 78 53 47 78 -27 23 -65 24
-86 3z"/>
<path d="M5926 994 c-19 -18 -20 -38 -6 -65 14 -25 54 -25 80 1 22 22 25 36 9
45 -6 4 -8 12 -6 19 7 18 -59 18 -77 0z"/>
<path d="M6069 991 c-26 -21 -21 -59 9 -78 16 -9 25 -8 51 8 34 20 40 49 15
70 -25 20 -50 20 -75 0z"/>
<path d="M6368 1003 c-9 -3 -21 -17 -27 -33 -18 -53 33 -79 79 -42 38 31 0 86
-52 75z"/>
<path d="M17548 999 c-28 -16 -23 -67 7 -81 42 -19 72 2 71 49 0 36 -3 39 -31
41 -16 1 -38 -3 -47 -9z"/>
<path d="M17715 1002 c-30 -6 -45 -22 -45 -48 0 -48 70 -53 82 -6 8 28 -13 59
-37 54z"/>
<path d="M17813 983 c-22 -34 -7 -58 37 -58 43 0 61 26 36 53 -28 32 -54 34
-73 5z"/>
<path d="M1473 984 c-9 -25 11 -49 38 -46 37 6 50 21 38 43 -12 24 -67 26 -76
3z"/>
<path d="M1928 993 c-40 -10 -21 -83 22 -83 33 0 50 17 50 51 0 34 -24 45 -72
32z"/>
<path d="M5203 988 c-22 -36 -2 -78 37 -78 48 0 78 48 48 78 -16 16 -75 15
-85 0z"/>
<path d="M6212 988 c-18 -18 -15 -56 6 -66 20 -11 60 -6 78 9 13 11 7 50 -10
61 -17 12 -61 9 -74 -4z"/>
<path d="M17952 987 c-25 -32 -19 -51 23 -74 35 -20 75 49 43 74 -19 14 -55
14 -66 0z"/>
<path d="M1562 898 c-20 -20 -13 -48 13 -60 34 -15 59 7 50 43 -7 27 -43 37
-63 17z"/>
<path d="M1692 885 c-18 -15 -29 -33 -28 -47 1 -20 7 -23 53 -26 44 -3 53 0
63 17 13 25 0 55 -30 71 -25 13 -24 14 -58 -15z"/>
<path d="M5712 901 c1 -3 -2 -14 -7 -24 -15 -34 32 -59 79 -41 9 3 16 17 16
30 0 23 -3 25 -72 39 -10 1 -17 0 -16 -4z"/>
<path d="M6696 889 c-17 -13 -26 -30 -26 -48 0 -25 4 -27 41 -30 47 -2 69 12
69 44 0 43 -48 62 -84 34z"/>
<path d="M1839 879 c-24 -24 -24 -30 2 -58 29 -31 80 -15 92 29 10 38 -62 61
-94 29z"/>
<path d="M1983 885 c-34 -24 -13 -85 29 -85 35 0 58 19 58 48 0 50 -43 68 -87
37z"/>
<path d="M4592 884 c-26 -18 -28 -37 -6 -58 24 -24 61 -20 80 9 16 24 16 27
-1 45 -22 24 -43 25 -73 4z"/>
<path d="M4860 880 c-22 -22 -17 -43 14 -69 33 -27 84 17 72 63 -7 30 -58 34
-86 6z"/>
<path d="M5008 888 c-35 -27 -21 -78 22 -78 37 0 62 26 58 59 -2 21 -9 27 -33
29 -16 2 -38 -3 -47 -10z"/>
<path d="M5134 886 c-3 -8 -4 -27 -2 -43 3 -24 8 -28 40 -31 29 -3 39 1 48 18
7 12 9 32 6 44 -4 18 -13 23 -46 24 -28 2 -42 -2 -46 -12z"/>
<path d="M5285 886 c-20 -15 -17 -55 6 -69 39 -24 89 16 75 61 -7 21 -56 26
-81 8z"/>
<path d="M5422 888 c-20 -20 -14 -58 11 -67 22 -9 69 8 82 30 20 31 -65 65
-93 37z"/>
<path d="M5593 892 c-26 -4 -38 -29 -22 -48 15 -18 63 -18 79 1 24 29 -6 55
-57 47z"/>
<path d="M5883 892 c-57 -9 -50 -74 7 -67 40 5 50 12 50 35 0 23 -26 38 -57
32z"/>
<path d="M6002 884 c-49 -34 -3 -91 53 -66 34 16 36 67 3 76 -31 8 -31 8 -56
-10z"/>
<path d="M6271 873 c-19 -42 12 -76 59 -64 27 8 42 46 28 74 -14 27 -73 20
-87 -10z"/>
<path d="M6413 889 c-16 -16 -17 -51 -1 -67 16 -16 63 -15 75 1 16 20 22 43
14 56 -11 18 -74 25 -88 10z"/>
<path d="M6554 887 c-28 -16 -18 -57 19 -77 27 -14 29 -14 53 14 22 25 24 30
11 50 -17 25 -53 31 -83 13z"/>
<path d="M6830 879 c-6 -11 -10 -30 -8 -42 2 -18 9 -22 43 -22 36 0 40 3 43
26 6 50 -56 80 -78 38z"/>
<path d="M17476 884 c-9 -8 -16 -23 -16 -33 0 -24 31 -51 58 -51 21 0 52 34
52 57 0 19 -30 43 -55 43 -13 0 -31 -7 -39 -16z"/>
<path d="M17618 889 c-22 -12 -23 -52 -4 -69 22 -18 59 -8 73 19 23 47 -21 78
-69 50z"/>
<path d="M17750 881 c-24 -45 -3 -86 37 -70 29 11 43 39 32 67 -11 28 -54 30
-69 3z"/>
<path d="M17877 879 c-28 -39 5 -85 50 -68 31 11 46 44 33 69 -15 27 -64 27
-83 -1z"/>
<path d="M6131 868 c-13 -35 4 -58 43 -58 41 0 60 21 52 55 -5 21 -12 25 -47
25 -32 0 -41 -4 -48 -22z"/>
<path d="M18020 860 c0 -13 5 -20 13 -17 6 2 12 10 12 17 0 7 -6 15 -12 18 -8
2 -13 -5 -13 -18z"/>
<path d="M6936 800 c-40 -7 -59 -38 -43 -70 17 -33 49 -36 80 -8 24 23 24 24
8 54 -13 25 -20 29 -45 24z"/>
<path d="M17814 785 c-19 -19 -22 -28 -15 -48 6 -14 8 -27 5 -30 -3 -2 14 -1
36 3 48 9 53 13 55 42 3 47 -46 68 -81 33z"/>
<path d="M1780 792 c-22 -8 -30 -25 -18 -39 14 -17 55 -17 61 1 7 18 -23 45
-43 38z"/>
<path d="M2194 792 c-6 -4 -16 -16 -22 -28 -23 -44 50 -88 86 -52 38 38 -20
110 -64 80z"/>
<path d="M4247 793 c-4 -3 -7 -23 -7 -44 0 -30 5 -39 21 -44 26 -9 66 11 72
36 7 27 -20 59 -52 59 -15 0 -31 -3 -34 -7z"/>
<path d="M4382 788 c-22 -22 -14 -63 14 -78 30 -16 52 -7 71 31 11 21 10 26
-8 42 -25 20 -60 22 -77 5z"/>
<path d="M4537 793 c-24 -6 -41 -51 -26 -69 15 -18 73 -18 88 0 6 7 11 27 9
42 -1 24 -7 29 -27 30 -15 1 -34 -1 -44 -3z"/>
<path d="M4651 773 c-20 -24 -20 -27 -5 -45 32 -35 79 -20 93 29 7 25 6 33 -6
37 -32 13 -62 5 -82 -21z"/>
<path d="M4796 787 c-11 -8 -17 -23 -14 -38 6 -45 98 -31 98 15 0 12 -40 36
-59 36 -4 0 -15 -6 -25 -13z"/>
<path d="M4935 780 c-24 -26 -13 -50 23 -50 46 0 80 48 45 61 -31 13 -49 10
-68 -11z"/>
<path d="M5076 784 c-15 -14 -15 -19 -3 -31 19 -19 70 0 65 25 -4 23 -42 27
-62 6z"/>
<path d="M6241 787 c-13 -16 -5 -27 20 -27 22 0 32 27 13 34 -21 8 -20 8 -33
-7z"/>
<path d="M6358 781 c-25 -20 -19 -37 16 -43 33 -7 55 8 49 31 -7 27 -39 32
-65 12z"/>
<path d="M6486 785 c-19 -19 -20 -37 -4 -53 33 -33 110 4 84 40 -19 26 -60 32
-80 13z"/>
<path d="M6772 787 c-18 -8 -22 -17 -20 -41 3 -27 7 -31 36 -34 40 -4 62 12
62 43 0 29 -44 47 -78 32z"/>
<path d="M7032 788 c-37 -37 12 -99 62 -77 34 16 43 45 20 70 -19 21 -64 25
-82 7z"/>
<path d="M7182 788 c-7 -7 -12 -25 -12 -40 0 -50 76 -60 94 -12 9 24 8 31 -10
48 -18 19 -55 21 -72 4z"/>
<path d="M7323 793 c-7 -2 -13 -20 -13 -39 0 -27 5 -37 25 -46 34 -15 71 2 77
37 8 40 -43 67 -89 48z"/>
<path d="M17412 779 c-32 -34 -6 -84 40 -77 12 2 29 16 38 31 14 27 14 29 -9
48 -30 24 -46 24 -69 -2z"/>
<path d="M17547 780 c-18 -26 -10 -68 14 -75 30 -10 57 4 67 35 8 23 7 31 -7
44 -24 22 -57 20 -74 -4z"/>
<path d="M17686 781 c-21 -23 -20 -44 4 -66 18 -16 21 -16 43 -2 26 17 39 48
28 65 -12 20 -58 21 -75 3z"/>
<path d="M17958 793 c-19 -5 -33 -37 -23 -53 17 -28 70 2 63 36 -3 19 -14 24
-40 17z"/>
<path d="M1905 782 c-5 -4 -16 -14 -23 -24 -11 -14 -10 -19 9 -37 40 -37 92
-23 92 24 0 15 -7 31 -14 36 -17 11 -50 11 -64 1z"/>
<path d="M2045 776 c-16 -12 -17 -18 -8 -39 17 -38 45 -49 71 -31 12 8 22 21
22 29 0 7 6 16 13 18 10 4 10 6 0 6 -7 1 -13 8 -13 16 0 20 -59 20 -85 1z"/>
<path d="M6621 776 c-7 -8 -11 -25 -9 -38 2 -18 10 -24 36 -26 44 -4 62 11 53
46 -6 21 -14 28 -38 30 -17 2 -35 -3 -42 -12z"/>
<path d="M7843 687 c-43 -19 -16 -87 34 -87 28 0 56 34 48 58 -8 27 -53 42
-82 29z"/>
<path d="M8128 686 c-30 -22 -31 -53 -1 -74 26 -18 31 -19 56 -6 29 16 37 54
15 71 -22 17 -54 21 -70 9z"/>
<path d="M8409 686 c-47 -23 -32 -86 21 -86 34 0 52 21 48 56 -4 33 -36 47
-69 30z"/>
<path d="M17627 688 c-11 -6 -17 -22 -17 -43 0 -32 3 -35 29 -35 47 0 79 44
49 67 -22 17 -44 21 -61 11z"/>
<path d="M2259 672 c-25 -17 -11 -46 31 -60 26 -9 32 -8 44 10 10 14 12 27 6
38 -5 10 -8 19 -5 21 10 11 -59 3 -76 -9z"/>
<path d="M3628 682 c-23 -4 -32 -36 -18 -62 11 -21 64 -28 75 -10 4 6 10 8 14
6 4 -3 8 9 7 26 -1 27 -5 33 -31 38 -16 3 -38 4 -47 2z"/>
<path d="M3768 683 c-24 -6 -34 -49 -17 -66 18 -17 60 -16 79 1 8 8 15 26 16
41 1 23 -2 26 -30 27 -17 1 -39 -1 -48 -3z"/>
<path d="M3908 676 c-26 -19 -23 -55 5 -61 46 -10 73 -1 75 24 4 46 -41 67
-80 37z"/>
<path d="M4032 670 c-17 -28 0 -57 37 -62 17 -2 28 -1 26 3 -3 4 4 9 15 12 12
3 20 14 20 26 0 40 -76 56 -98 21z"/>
<path d="M4193 680 c-28 -11 -30 -46 -4 -55 21 -6 66 8 77 26 4 7 -1 18 -11
26 -21 15 -31 15 -62 3z"/>
<path d="M4325 676 c-25 -18 -10 -36 31 -36 32 0 56 21 41 36 -12 12 -55 13
-72 0z"/>
<path d="M4477 683 c-8 -8 -9 -43 -1 -43 16 0 44 23 44 35 0 15 -31 21 -43 8z"/>
<path d="M6876 683 c-12 -12 -6 -33 9 -33 8 0 15 6 15 14 0 17 -14 28 -24 19z"/>
<path d="M6970 670 c-9 -17 -7 -20 14 -26 37 -9 61 -1 62 21 1 29 -61 33 -76
5z"/>
<path d="M7110 675 c-6 -8 -10 -22 -8 -32 5 -25 76 -25 92 0 21 35 -56 65 -84
32z"/>
<path d="M7252 678 c-30 -30 7 -81 51 -70 41 10 54 53 23 74 -17 12 -61 9 -74
-4z"/>
<path d="M7396 674 c-33 -32 -14 -71 34 -69 37 1 50 13 50 44 0 21 -6 30 -22
35 -35 9 -45 7 -62 -10z"/>
<path d="M7537 669 c-8 -11 -12 -29 -10 -40 3 -11 -2 -28 -12 -39 -16 -18 -16
-20 -1 -26 17 -7 49 13 41 26 -3 4 11 11 31 14 46 9 69 51 39 72 -28 21 -71
17 -88 -7z"/>
<path d="M7687 675 c-15 -15 -13 -49 5 -72 20 -25 88 12 88 48 0 35 -66 52
-93 24z"/>
<path d="M7972 681 c-8 -5 -12 -21 -10 -37 2 -23 10 -30 37 -38 30 -8 36 -7
52 13 23 28 23 35 3 55 -17 17 -61 21 -82 7z"/>
<path d="M8251 668 c-12 -33 -2 -55 26 -63 49 -12 70 7 63 55 -5 36 -76 43
-89 8z"/>
<path d="M17343 683 c-35 -13 -2 -88 38 -88 37 0 69 61 46 84 -11 11 -62 14
-84 4z"/>
<path d="M17477 683 c-11 -11 -8 -58 5 -71 28 -28 88 0 88 42 0 25 -74 48 -93
29z"/>
<path d="M17753 682 c-19 -12 -20 -53 -2 -65 22 -14 47 -3 61 28 10 22 9 28
-3 36 -17 11 -40 11 -56 1z"/>
<path d="M2137 673 c-16 -15 -6 -33 18 -33 28 0 34 24 9 34 -19 7 -19 7 -27
-1z"/>
<path d="M2394 655 c-13 -53 60 -79 86 -30 18 33 -1 55 -46 55 -28 0 -35 -5
-40 -25z"/>
<path d="M2533 661 c-3 -12 -10 -18 -15 -15 -6 4 -2 -5 7 -20 31 -47 94 -29
100 27 3 21 -2 24 -42 26 -38 2 -45 -1 -50 -18z"/>
<path d="M2993 590 c-14 -6 -23 -18 -23 -30 0 -16 5 -21 23 -18 16 2 22 10 23
31 1 15 1 27 0 26 -1 0 -11 -4 -23 -9z"/>
<path d="M3105 590 c3 -5 0 -10 -7 -12 -7 -3 -9 -12 -5 -22 5 -12 15 -16 34
-14 38 4 38 39 0 49 -15 4 -25 4 -22 -1z"/>
<path d="M7645 584 c-15 -15 -15 -18 -1 -33 20 -19 51 -4 51 25 0 25 -28 29
-50 8z"/>
<path d="M15366 573 c-28 -25 -27 -33 9 -68 28 -27 75 -1 75 40 0 46 -48 62
-84 28z"/>
<path d="M15642 584 c-33 -23 -26 -65 11 -78 56 -20 93 45 45 78 -12 9 -25 16
-28 16 -3 0 -16 -7 -28 -16z"/>
<path d="M2854 579 c-11 -18 13 -34 31 -19 8 7 15 16 15 21 0 13 -38 11 -46
-2z"/>
<path d="M3230 567 c0 -10 7 -20 15 -23 22 -9 62 3 68 20 4 11 -5 15 -39 18
-37 3 -44 0 -44 -15z"/>
<path d="M3417 579 c-23 -13 -22 -29 2 -29 23 0 33 11 23 27 -5 8 -13 8 -25 2z"/>
<path d="M7775 569 c-8 -24 8 -39 43 -39 27 0 39 24 22 45 -19 23 -57 19 -65
-6z"/>
<path d="M7925 580 c-3 -5 -10 -8 -14 -6 -11 7 -10 -27 2 -41 25 -33 92 1 70
35 -12 20 -48 28 -58 12z"/>
<path d="M8068 582 c-22 -3 -28 -9 -28 -27 0 -42 60 -58 84 -23 26 37 3 57
-56 50z"/>
<path d="M8347 582 c-26 -3 -28 -7 -25 -40 2 -29 8 -37 28 -42 34 -9 60 9 60
42 0 31 -22 45 -63 40z"/>
<path d="M8472 579 c-29 -11 -29 -53 -1 -72 38 -27 86 3 75 47 -6 26 -40 37
-74 25z"/>
<path d="M8611 578 c-29 -10 -25 -55 5 -75 20 -13 25 -12 49 10 48 40 8 88
-54 65z"/>
<path d="M9033 577 c-50 -22 -23 -90 31 -80 25 5 53 53 42 71 -9 15 -50 20
-73 9z"/>
<path d="M9173 579 c-26 -9 -34 -40 -17 -64 18 -24 9 -35 -30 -35 -17 0 -37
-5 -44 -12 -18 -18 5 -38 45 -38 26 0 36 5 42 23 5 12 7 25 5 29 -2 3 9 11 25
16 31 11 56 45 48 66 -7 17 -48 25 -74 15z"/>
<path d="M9295 566 c-19 -29 -10 -54 23 -63 27 -7 50 4 66 31 9 14 6 21 -13
37 -31 26 -57 24 -76 -5z"/>
<path d="M9448 577 c-38 -30 -22 -77 26 -77 29 0 47 21 50 57 2 25 -2 28 -29
30 -18 2 -38 -3 -47 -10z"/>
<path d="M9580 571 c-5 -11 -9 -30 -8 -43 2 -20 8 -25 39 -26 29 -2 40 2 52
21 15 23 14 26 -4 46 -25 26 -65 27 -79 2z"/>
<path d="M9731 566 c-28 -29 -22 -53 14 -62 33 -8 53 0 66 30 23 49 -41 74
-80 32z"/>
<path d="M9868 570 c-20 -16 -21 -21 -10 -42 9 -17 23 -25 46 -26 27 -2 35 2
45 24 22 50 -35 81 -81 44z"/>
<path d="M10022 577 c-18 -8 -22 -17 -20 -47 3 -33 6 -36 30 -35 53 2 91 63
51 80 -29 13 -37 13 -61 2z"/>
<path d="M10156 571 c-23 -25 -17 -52 14 -68 20 -10 27 -9 42 4 24 21 23 60
-1 73 -27 14 -35 13 -55 -9z"/>
<path d="M10286 577 c-20 -15 -28 -49 -13 -59 25 -15 14 -34 -19 -35 -19 -1
-41 -7 -50 -13 -13 -11 -13 -15 2 -31 11 -12 28 -18 46 -17 24 2 30 8 39 41 8
30 14 38 28 34 23 -6 51 40 42 67 -9 24 -50 31 -75 13z"/>
<path d="M10411 572 c-15 -27 -2 -61 25 -68 29 -7 43 1 55 33 7 20 6 28 -8 39
-26 19 -61 17 -72 -4z"/>
<path d="M10542 578 c-31 -31 8 -85 53 -74 30 8 40 26 31 61 -5 20 -13 25 -39
25 -18 0 -38 -5 -45 -12z"/>
<path d="M10676 568 c-19 -27 -6 -55 30 -64 44 -11 83 43 52 74 -20 20 -65 14
-82 -10z"/>
<path d="M10822 581 c-8 -5 -12 -21 -10 -37 2 -21 11 -31 32 -39 24 -8 31 -6
46 13 22 27 16 58 -13 66 -29 8 -40 7 -55 -3z"/>
<path d="M10960 570 c-30 -30 -13 -65 31 -65 27 0 36 6 47 28 16 33 8 45 -31
53 -18 3 -33 -2 -47 -16z"/>
<path d="M11102 579 c-22 -8 -30 -43 -14 -64 24 -33 98 0 90 41 -4 21 -46 34
-76 23z"/>
<path d="M11218 573 c-17 -21 0 -62 28 -69 44 -11 85 46 52 74 -17 14 -67 10
-80 -5z"/>
<path d="M11368 579 c-30 -17 -22 -56 13 -75 17 -8 29 -11 25 -6 -3 5 3 12 13
15 21 5 33 51 18 66 -14 14 -47 14 -69 0z"/>
<path d="M15236 574 c-18 -18 -21 -50 -6 -59 6 -4 8 -9 6 -13 -2 -4 8 -8 22
-9 32 -2 62 22 62 50 0 40 -55 60 -84 31z"/>
<path d="M15520 582 c-37 -12 -40 -63 -6 -81 18 -10 29 -10 45 -2 21 12 37 52
27 69 -7 12 -47 20 -66 14z"/>
<path d="M17164 582 c-25 -16 -34 -48 -18 -70 17 -25 55 -24 83 2 28 25 11 71
-27 74 -15 1 -32 -2 -38 -6z"/>
<path d="M17287 572 c-19 -21 -22 -48 -7 -57 6 -4 8 -10 5 -14 -2 -5 10 -5 28
-2 22 5 36 16 46 36 12 25 12 30 -5 42 -25 18 -48 16 -67 -5z"/>
<path d="M17419 567 c-31 -34 -11 -81 31 -70 10 3 28 15 39 27 18 19 19 25 7
41 -18 25 -54 26 -77 2z"/>
<path d="M17570 577 c-18 -9 -25 -21 -26 -44 l-1 -32 36 15 c20 8 43 22 51 30
13 14 13 17 -4 30 -24 17 -25 17 -56 1z"/>
<path d="M8185 570 c-4 -6 -3 -23 1 -38 4 -15 7 -29 6 -32 -2 -12 68 3 78 16
7 7 10 23 8 36 -2 19 -10 24 -45 26 -23 2 -44 -2 -48 -8z"/>
<path d="M8730 560 c-12 -23 15 -60 44 -60 30 0 48 22 44 52 -2 19 -9 23 -41
24 -26 1 -41 -4 -47 -16z"/>
<path d="M8872 568 c-28 -28 2 -78 43 -70 32 6 47 25 43 54 -2 18 -10 24 -38
26 -19 2 -41 -3 -48 -10z"/>
<path d="M9410 490 c-8 -5 -23 -11 -32 -14 -24 -7 -23 -33 3 -46 26 -14 65 -6
73 15 8 22 -25 55 -44 45z"/>
<path d="M12312 489 c-28 -11 -38 -35 -22 -54 16 -19 64 -19 80 0 28 33 -12
71 -58 54z"/>
<path d="M12592 487 c-28 -13 -27 -60 1 -65 37 -7 67 7 67 32 0 30 -36 47 -68
33z"/>
<path d="M12727 486 c-36 -29 -18 -75 27 -68 22 4 46 28 46 47 0 18 -57 35
-73 21z"/>
<path d="M15463 483 c-42 -15 -47 -30 -18 -59 18 -18 75 10 75 36 0 11 -5 20
-11 20 -5 0 -7 5 -4 10 3 6 5 9 3 9 -2 -1 -22 -8 -45 -16z"/>
<path d="M8677 484 c-11 -11 3 -24 24 -24 12 0 19 5 17 13 -5 14 -31 21 -41
11z"/>
<path d="M8810 480 c-20 -12 -4 -40 23 -40 14 0 30 7 37 15 13 15 13 15 -33
29 -8 2 -20 1 -27 -4z"/>
<path d="M8952 474 c-29 -20 -20 -34 23 -34 41 0 55 18 30 37 -24 16 -26 16
-53 -3z"/>
<path d="M9540 480 c-33 -8 -36 -53 -3 -58 30 -4 63 15 63 37 0 22 -24 30 -60
21z"/>
<path d="M9665 473 c-20 -19 -19 -30 3 -42 29 -15 76 1 80 27 2 16 -2 22 -15
23 -10 0 -26 2 -36 4 -9 2 -24 -3 -32 -12z"/>
<path d="M9944 469 c-18 -20 -18 -21 1 -35 21 -16 54 -10 73 14 14 18 7 27
-29 36 -19 4 -31 0 -45 -15z"/>
<path d="M10346 474 c-9 -8 -16 -19 -16 -24 0 -17 42 -32 68 -24 15 4 30 7 33
6 19 -4 -7 41 -28 49 -33 12 -39 12 -57 -7z"/>
<path d="M10480 472 c-21 -17 -21 -19 -5 -35 28 -29 85 -14 85 22 0 34 -46 41
-80 13z"/>
<path d="M10616 474 c-21 -21 -20 -31 5 -44 27 -15 66 -5 79 20 9 17 7 22 -15
30 -36 14 -51 13 -69 -6z"/>
<path d="M10750 468 l-21 -23 30 -12 c23 -10 36 -10 56 -1 31 14 33 44 3 52
-37 9 -46 7 -68 -16z"/>
<path d="M10891 474 l-22 -16 22 -24 c20 -22 23 -22 50 -8 35 18 38 49 7 58
-31 8 -31 8 -57 -10z"/>
<path d="M11038 483 c-38 -10 -27 -63 14 -63 28 0 58 18 58 35 0 8 -9 19 -19
25 -20 10 -25 11 -53 3z"/>
<path d="M11159 474 c-16 -20 -1 -51 27 -57 31 -5 70 23 61 45 -7 20 -74 28
-88 12z"/>
<path d="M11294 468 c-5 -16 -1 -27 16 -40 25 -20 40 -23 40 -7 0 5 4 7 10 4
5 -3 12 6 16 21 8 30 -7 44 -48 44 -19 0 -29 -6 -34 -22z"/>
<path d="M11432 478 c-27 -27 -3 -67 34 -60 13 2 30 13 40 23 14 15 14 21 4
34 -15 18 -61 20 -78 3z"/>
<path d="M11567 475 c-19 -19 -21 -31 -7 -40 6 -4 8 -10 6 -14 -3 -4 11 -5 30
-3 23 3 40 13 51 28 19 29 16 33 -29 40 -25 4 -39 1 -51 -11z"/>
<path d="M11714 475 c-15 -11 -17 -18 -8 -32 13 -22 60 -29 80 -12 17 14 19
49 2 50 -7 0 -22 2 -34 4 -12 3 -30 -2 -40 -10z"/>
<path d="M11853 479 c-13 -13 -7 -39 14 -55 26 -22 89 24 66 47 -15 15 -68 21
-80 8z"/>
<path d="M12006 478 c-36 -20 -1 -58 54 -58 29 0 52 28 41 49 -11 19 -67 24
-95 9z"/>
<path d="M12152 478 c-31 -31 3 -66 54 -56 22 4 39 31 31 52 -8 19 -67 22 -85
4z"/>
<path d="M12429 474 c-20 -24 1 -49 41 -49 43 0 64 29 36 51 -26 19 -60 18
-77 -2z"/>
<path d="M12858 479 c-26 -15 -23 -47 6 -55 34 -8 57 -2 70 19 20 33 -36 60
-76 36z"/>
<path d="M12987 470 c-14 -20 -14 -23 3 -40 22 -22 77 -14 94 12 14 23 -1 37
-46 44 -29 5 -38 2 -51 -16z"/>
<path d="M13145 477 c-20 -16 -17 -45 7 -60 26 -17 68 7 68 38 0 14 -3 25 -7
26 -5 0 -17 2 -29 4 -12 3 -29 -1 -39 -8z"/>
<path d="M13690 476 c-19 -24 -8 -61 18 -64 13 -2 31 0 40 4 9 4 20 7 23 6 4
-1 5 9 2 21 -10 42 -58 62 -83 33z"/>
<path d="M13840 481 c-19 -5 -25 -13 -25 -36 0 -28 3 -30 42 -36 23 -3 40 -2
37 2 -2 4 0 10 6 14 16 10 12 52 -6 59 -18 7 -19 7 -54 -3z"/>
<path d="M14095 473 c-32 -31 -8 -78 37 -71 29 4 58 52 41 69 -18 18 -61 19
-78 2z"/>
<path d="M14226 474 c-41 -40 18 -93 67 -61 31 20 29 48 -4 64 -32 17 -44 16
-63 -3z"/>
<path d="M14781 480 c-56 -13 -48 -70 10 -70 30 0 49 23 47 56 -2 20 -16 24
-57 14z"/>
<path d="M14898 483 c-19 -5 -24 -38 -9 -61 4 -7 23 -12 43 -11 32 3 34 5 36
38 2 33 0 36 -25 37 -16 1 -36 -1 -45 -3z"/>
<path d="M15180 483 c-31 -12 -37 -35 -14 -57 21 -22 50 -20 75 5 18 18 19 23
8 34 -18 17 -50 25 -69 18z"/>
<path d="M15570 476 c-29 -29 13 -71 56 -55 29 10 38 27 25 43 -15 18 -67 26
-81 12z"/>
<path d="M15706 475 c-16 -16 -11 -51 8 -58 27 -11 64 5 69 29 5 28 2 31 -36
38 -16 3 -33 -1 -41 -9z"/>
<path d="M16133 482 c-38 -3 -43 -6 -43 -27 0 -42 10 -55 45 -55 18 0 37 6 42
13 34 44 15 73 -44 69z"/>
<path d="M17087 464 c-15 -21 -15 -24 -1 -38 14 -14 18 -14 45 0 36 18 35 45
-1 54 -20 5 -29 2 -43 -16z"/>
<path d="M9224 465 c-10 -24 9 -37 47 -33 26 2 34 8 34 23 0 16 -8 21 -38 23
-27 2 -39 -1 -43 -13z"/>
<path d="M9796 464 c-9 -24 2 -34 38 -34 35 0 62 21 51 40 -10 17 -82 12 -89
-6z"/>
<path d="M10073 464 c-4 -10 1 -22 11 -30 24 -17 76 1 76 27 0 16 -7 19 -40
19 -28 0 -43 -5 -47 -16z"/>
<path d="M13274 470 c-18 -18 -5 -49 22 -56 30 -8 76 21 72 44 -4 20 -77 29
-94 12z"/>
<path d="M13547 473 c-10 -9 -9 -51 1 -57 5 -3 21 -7 35 -10 35 -6 67 35 47
59 -12 15 -71 21 -83 8z"/>
<path d="M13961 466 c-17 -21 3 -56 32 -56 32 0 60 23 56 46 -5 25 -70 32 -88
10z"/>
<path d="M14353 464 c-3 -8 0 -27 6 -40 14 -31 57 -30 78 2 12 19 12 24 -2 38
-21 21 -74 21 -82 0z"/>
<path d="M14492 468 c-17 -17 -15 -32 7 -52 28 -25 64 -17 75 17 8 22 7 30 -4
37 -21 14 -64 12 -78 -2z"/>
<path d="M14623 473 c-16 -6 -17 -35 -1 -51 18 -18 63 -14 82 7 16 17 16 20 1
35 -16 15 -56 20 -82 9z"/>
<path d="M15013 464 c-10 -28 11 -49 50 -49 19 -1 33 3 31 7 -3 5 2 11 10 14
12 5 13 10 5 25 -13 25 -87 27 -96 3z"/>
<path d="M15301 466 c-6 -7 -9 -21 -5 -29 14 -37 84 -20 84 20 0 20 -5 23 -34
23 -18 0 -39 -6 -45 -14z"/>
<path d="M15831 466 c-18 -22 -7 -44 25 -52 35 -9 59 7 59 37 0 20 -6 24 -36
27 -23 2 -40 -2 -48 -12z"/>
<path d="M15967 473 c-4 -3 -7 -19 -7 -34 0 -43 55 -54 92 -17 l21 21 -23 19
c-22 18 -70 24 -83 11z"/>
<path d="M16813 472 c-12 -7 -16 -25 -14 -54 1 -13 10 -18 34 -18 36 0 67 25
67 52 0 23 -61 37 -87 20z"/>
<path d="M16947 462 c-30 -33 -3 -63 53 -60 21 2 50 42 41 57 -4 6 -23 14 -42
17 -26 5 -38 1 -52 -14z"/>
<path d="M17237 473 c-12 -11 -8 -31 7 -36 7 -3 24 1 36 10 17 12 19 17 9 24
-17 10 -43 12 -52 2z"/>
<path d="M16660 455 c-14 -17 -5 -51 16 -59 23 -9 62 3 69 21 3 9 3 24 0 34
-8 23 -67 26 -85 4z"/>
</g>
</svg>
