<?xml version="1.0" standalone="no"?>
<!DOCTYPE svg PUBLIC "-//W3C//DTD SVG 20010904//EN"
 "http://www.w3.org/TR/2001/REC-SVG-20010904/DTD/svg10.dtd">
<svg version="1.0" xmlns="http://www.w3.org/2000/svg"
 width="1367.000000pt" height="2020.000000pt" viewBox="0 0 1367.000000 2020.000000"
 preserveAspectRatio="xMidYMid meet">
<metadata>
Created by potrace 1.16, written by Peter Selinger 2001-2019
</metadata>
<g transform="translate(0.000000,2020.000000) scale(0.100000,-0.100000)"
fill="#a7262a" stroke="none">
<path d="M6470 19794 c-128 -3 -476 -21 -565 -29 -219 -20 -387 -38 -480 -51
-60 -9 -137 -19 -170 -24 -115 -15 -360 -60 -415 -75 -30 -8 -116 -30 -190
-48 -750 -188 -1202 -486 -1334 -878 -32 -96 -49 -260 -35 -353 10 -75 47
-194 81 -259 17 -34 92 -142 126 -182 22 -25 154 -141 182 -158 16 -10 30 -23
30 -29 0 -5 5 -6 10 -3 6 3 10 1 10 -5 0 -6 4 -9 9 -6 5 3 14 -1 21 -9 7 -8
16 -15 21 -15 5 0 32 -15 61 -33 137 -86 413 -191 703 -267 355 -92 710 -148
1200 -190 73 -6 135 -16 141 -23 11 -12 58 -284 71 -405 8 -79 31 -112 78
-112 28 0 41 9 86 63 30 34 57 64 60 67 3 3 11 15 18 28 7 12 17 20 23 16 6
-4 8 -3 5 3 -4 6 8 26 26 45 18 18 40 46 50 61 11 16 23 25 30 21 7 -4 9 -4 5
1 -4 4 -2 13 5 21 7 7 25 31 42 54 17 23 35 38 43 35 7 -2 11 -1 8 4 -3 5 5
24 17 42 l23 34 284 -4 c247 -3 586 7 825 24 227 16 452 37 530 50 50 8 116
16 147 17 32 2 58 6 58 9 0 4 24 9 53 13 63 8 207 38 342 72 55 13 115 25 132
27 17 1 29 5 28 8 -2 3 28 16 67 28 40 13 103 36 141 52 39 15 74 26 79 23 4
-3 8 0 8 6 0 6 4 9 9 6 5 -4 11 -2 13 3 4 12 104 61 123 61 9 0 14 4 10 9 -3
5 5 13 17 17 13 4 37 17 54 30 17 13 36 24 42 24 7 0 12 4 12 10 0 5 3 9 8 9
19 -3 33 2 28 10 -4 5 11 19 31 32 39 23 101 84 155 152 16 20 35 34 40 31 6
-4 8 -2 5 3 -4 6 5 28 20 49 85 126 142 302 150 471 7 127 -12 272 -46 358
-31 77 -57 132 -69 147 -8 9 -11 23 -6 30 4 7 4 10 0 6 -5 -4 -34 26 -66 65
-32 40 -80 93 -108 119 -27 26 -47 49 -44 52 3 3 -1 6 -10 6 -8 0 -32 15 -54
33 -76 64 -205 137 -404 230 -51 24 -263 97 -420 145 -74 23 -192 49 -465 102
-160 31 -376 60 -670 90 -203 21 -796 40 -1045 34z m625 -164 c372 -20 457
-28 805 -75 194 -27 230 -33 400 -65 279 -53 625 -161 803 -252 10 -5 37 -19
60 -30 70 -36 197 -119 197 -130 0 -5 4 -7 9 -4 12 8 172 -144 165 -155 -3 -5
0 -8 7 -7 8 2 21 -13 31 -32 10 -19 18 -30 18 -25 0 6 7 -3 15 -19 8 -15 15
-35 15 -44 0 -8 3 -12 6 -9 14 14 65 -107 84 -195 24 -112 25 -207 5 -308 -20
-98 -54 -192 -68 -183 -6 3 -7 1 -3 -6 16 -25 -84 -159 -188 -251 -111 -100
-110 -99 -149 -124 -15 -10 -27 -14 -27 -10 0 5 -6 2 -13 -7 -15 -21 -144 -85
-262 -132 -186 -74 -551 -164 -805 -197 -275 -37 -343 -44 -610 -66 -136 -11
-343 -17 -687 -19 l-492 -2 -33 -28 c-18 -15 -40 -40 -49 -54 -27 -43 -231
-276 -244 -279 -8 -2 -15 16 -19 55 -4 32 -11 78 -16 103 -19 100 -33 170 -33
177 -1 5 -10 18 -21 30 -18 19 -38 23 -146 32 -235 21 -410 39 -560 61 -159
23 -218 32 -260 40 -25 4 -79 14 -120 20 -41 7 -122 24 -180 37 -58 14 -116
27 -130 29 -14 3 -32 7 -40 10 -8 3 -40 12 -70 20 -30 8 -64 18 -75 23 -11 4
-45 16 -75 26 -30 9 -70 23 -88 31 -18 7 -34 14 -37 14 -54 10 -286 121 -278
134 3 6 3 8 -2 4 -9 -9 -76 24 -94 46 -8 9 -18 16 -23 16 -19 0 -97 63 -91 73
3 6 1 7 -5 4 -13 -9 -131 105 -168 163 -31 49 -74 127 -75 135 0 2 -6 20 -14
39 -41 98 -43 274 -5 381 27 74 86 186 94 178 3 -4 6 1 6 10 0 21 29 49 42 41
7 -4 8 -2 4 4 -9 15 89 110 201 194 50 37 94 68 98 68 3 0 24 12 46 26 22 14
49 26 60 27 10 1 19 4 19 8 0 15 280 126 445 177 146 45 452 118 615 146 14 2
63 11 110 20 75 14 158 24 510 66 47 5 119 12 160 15 41 2 131 9 200 15 244
20 742 25 1025 10z"/>
<path d="M4525 18815 c-5 -2 -32 -6 -59 -10 -85 -12 -126 -84 -73 -132 33 -30
45 -32 186 -34 149 -1 165 -8 124 -54 -14 -17 -52 -65 -85 -108 -34 -45 -64
-75 -70 -71 -6 4 -8 3 -5 -3 4 -6 -7 -26 -23 -44 -57 -64 -63 -72 -117 -147
-47 -65 -53 -80 -53 -123 0 -40 5 -55 29 -81 l29 -33 244 0 c134 0 255 3 270
8 45 12 78 50 78 88 -1 72 -41 88 -227 89 -73 0 -113 4 -113 11 0 5 -6 7 -12
3 -11 -7 5 19 22 36 3 3 23 29 45 58 21 28 43 52 47 52 4 0 8 6 8 13 0 8 12
24 26 38 14 13 42 48 60 77 21 32 39 50 46 46 6 -4 8 -3 4 4 -3 6 0 16 7 24 7
7 30 43 50 79 47 84 49 130 8 179 l-29 35 -203 2 c-112 1 -208 0 -214 -2z"/>
<path d="M6443 18811 c-103 -10 -144 -74 -89 -138 24 -27 25 -28 177 -34 85
-4 156 -7 158 -8 5 -2 -28 -52 -50 -76 -38 -41 -86 -101 -102 -128 -10 -15
-23 -25 -29 -21 -6 4 -8 3 -5 -3 4 -6 -21 -46 -56 -90 -35 -43 -74 -94 -87
-113 -13 -19 -28 -38 -33 -41 -5 -3 -8 -9 -7 -13 0 -3 -2 -21 -5 -40 -10 -48
17 -100 63 -122 31 -14 66 -17 232 -16 107 0 218 6 245 12 94 21 131 88 81
146 -23 27 -25 28 -167 31 -79 3 -150 6 -157 9 -17 5 21 61 91 134 15 15 27
31 27 34 0 17 73 105 82 99 7 -3 8 -1 4 5 -4 6 2 20 14 32 11 11 20 23 20 28
0 4 6 14 13 22 24 29 74 116 88 153 11 32 11 41 -4 72 -32 67 -56 73 -261 73
-99 0 -209 -3 -243 -7z"/>
<path d="M8384 18811 c-49 -4 -90 -12 -106 -23 -52 -34 -38 -117 24 -137 18
-6 89 -11 158 -12 150 -2 155 -3 133 -35 -13 -20 -18 -22 -32 -12 -13 10 -14
10 -4 -1 9 -11 6 -21 -15 -50 -67 -89 -111 -139 -118 -133 -4 4 -4 2 -1 -4 4
-6 -13 -34 -36 -61 -23 -28 -55 -68 -72 -88 -16 -21 -36 -44 -43 -51 -7 -8
-11 -14 -8 -14 3 0 -3 -15 -14 -32 -38 -63 -24 -140 31 -168 34 -18 60 -20
251 -20 227 0 270 6 317 46 24 20 29 31 26 60 -2 19 -8 41 -15 49 -18 22 -101
35 -220 35 -60 0 -111 4 -114 9 -3 5 5 20 19 35 13 15 24 29 24 32 -1 3 12 22
27 41 16 20 33 42 37 50 5 7 13 10 19 7 6 -4 8 -3 5 3 -6 9 91 144 138 194 8
9 15 19 15 23 0 3 11 24 24 45 57 89 51 159 -17 198 -32 19 -50 21 -193 21
-88 -1 -195 -4 -240 -7z"/>
<path d="M6620 18590 c0 -5 5 -10 11 -10 5 0 7 5 4 10 -3 6 -8 10 -11 10 -2 0
-4 -4 -4 -10z"/>
<path d="M5185 18513 c-53 -14 -73 -65 -44 -112 18 -31 33 -36 129 -45 25 -3
47 -5 49 -5 2 -1 -17 -22 -44 -48 -27 -27 -52 -47 -57 -45 -5 1 -7 -2 -4 -7 7
-10 -18 -33 -27 -26 -4 3 -5 2 -2 -2 3 -4 -13 -26 -36 -49 -33 -33 -42 -51
-46 -88 -6 -48 16 -96 47 -106 26 -8 302 -12 358 -5 35 4 62 15 83 32 26 22
30 31 27 67 -3 36 -8 43 -38 58 -23 12 -58 18 -103 18 -38 0 -67 4 -65 9 2 5
32 39 66 77 73 79 102 129 102 176 -1 34 -29 78 -50 78 -6 0 -9 3 -7 8 3 4 -5
8 -16 9 -57 7 -304 11 -322 6z"/>
<path d="M5770 18508 c-32 -18 -47 -59 -32 -92 17 -37 62 -56 138 -57 l67 -2
-106 -101 c-58 -55 -110 -114 -116 -129 -18 -47 -13 -93 13 -124 l24 -28 173
-3 c121 -2 187 1 219 10 25 7 50 13 55 13 6 0 11 26 13 57 3 56 3 58 -30 78
-26 15 -51 20 -113 20 l-80 0 68 65 c37 36 77 82 90 103 27 44 49 112 36 112
-5 0 -9 7 -9 14 0 8 -16 27 -36 43 -36 27 -40 27 -193 31 -115 2 -162 0 -181
-10z"/>
<path d="M7133 18513 c-60 -8 -81 -70 -40 -118 19 -23 33 -28 95 -33 40 -4 72
-11 71 -17 0 -5 -5 -9 -10 -7 -5 1 -8 -2 -6 -7 1 -5 -39 -49 -88 -98 -50 -48
-95 -97 -102 -108 -25 -48 5 -136 52 -149 34 -10 309 -7 364 4 61 11 80 27 88
74 11 67 -34 96 -158 99 l-58 2 57 58 c79 81 75 77 104 128 47 86 13 149 -93
169 -50 10 -209 11 -276 3z"/>
<path d="M7724 18510 c-61 -19 -78 -73 -36 -113 31 -29 51 -36 112 -38 25 -2
51 -4 57 -7 7 -2 -14 -28 -49 -60 -144 -133 -168 -165 -168 -222 0 -52 24 -87
66 -94 50 -10 374 -5 374 6 0 4 6 8 13 8 18 0 55 41 58 65 4 31 -10 64 -34 77
-12 7 -57 15 -100 18 l-77 5 30 35 c16 19 34 35 40 35 5 0 11 5 12 10 1 6 16
25 35 43 18 17 31 32 28 32 -3 0 4 17 15 37 35 66 25 110 -34 148 -24 16 -52
19 -170 22 -77 1 -155 -2 -172 -7z"/>
<path d="M2599 17146 c-2 -2 -22 -6 -44 -10 -142 -20 -286 -103 -405 -230 -30
-33 -63 -68 -72 -78 -10 -10 -18 -22 -18 -27 0 -5 -7 -14 -15 -21 -8 -6 -35
-49 -61 -93 -26 -45 -52 -85 -58 -89 -6 -4 -7 -8 -3 -8 5 0 1 -12 -7 -27 -59
-105 -151 -354 -212 -571 -88 -313 -180 -861 -213 -1277 -32 -395 -35 -485
-37 -1220 -1 -433 -6 -847 -12 -945 -7 -96 -12 -252 -12 -346 l0 -171 -77 -7
c-122 -11 -383 -53 -434 -70 -8 -3 -33 -10 -57 -16 -46 -12 -77 -46 -66 -74 8
-21 58 -48 70 -37 5 4 38 13 74 20 36 7 74 15 85 17 68 14 213 34 290 40 50 3
94 7 99 8 12 2 13 -19 20 -249 3 -110 12 -261 20 -335 8 -74 14 -136 13 -137
-3 -3 -51 -11 -106 -18 -68 -9 -305 -53 -391 -73 -90 -20 -126 -47 -116 -85 4
-18 15 -29 33 -33 16 -4 118 11 263 40 131 26 260 49 288 53 48 5 51 4 56 -18
46 -227 95 -398 160 -559 25 -63 43 -117 38 -121 -4 -4 -59 -22 -122 -40 -63
-17 -137 -38 -165 -46 -27 -8 -54 -16 -60 -17 -5 -2 -17 -6 -25 -9 -8 -3 -34
-11 -58 -17 -72 -18 -104 -70 -67 -107 22 -22 59 -14 305 62 236 74 258 78
274 51 6 -10 23 -37 38 -59 15 -23 25 -45 22 -49 -3 -4 4 -12 15 -18 12 -6 25
-19 31 -29 8 -16 -1 -30 -55 -86 -49 -50 -77 -91 -115 -168 -59 -120 -78 -187
-90 -320 -10 -112 -2 -184 33 -305 22 -75 23 -84 8 -90 -9 -3 -50 -30 -91 -59
-41 -29 -86 -61 -100 -71 -124 -88 -432 -406 -479 -495 -8 -15 -22 -35 -30
-44 -9 -10 -32 -42 -51 -70 -18 -29 -38 -53 -43 -53 -6 0 -7 -3 -4 -7 4 -3 3
-11 -2 -17 -5 -6 -30 -51 -56 -101 -26 -49 -53 -93 -59 -97 -6 -4 -8 -8 -4 -8
9 0 -61 -142 -74 -151 -5 -3 -8 -10 -6 -15 4 -15 -23 -84 -33 -84 -6 0 -8 -4
-4 -10 3 -5 -1 -26 -10 -46 -15 -37 -25 -71 -71 -239 -82 -303 -97 -696 -37
-940 21 -88 71 -231 104 -299 16 -32 26 -63 23 -67 -3 -5 -1 -9 5 -9 9 0 41
-51 41 -65 0 -2 12 -16 25 -31 14 -15 22 -30 19 -35 -3 -5 0 -9 5 -9 6 0 11
-4 11 -9 0 -5 18 -28 40 -52 22 -24 38 -50 35 -57 -3 -7 0 -10 5 -7 21 13 8
-23 -28 -78 -21 -31 -42 -54 -46 -50 -4 5 -6 3 -4 -3 3 -12 -61 -126 -74 -132
-5 -2 -8 -9 -8 -16 0 -7 -13 -39 -29 -72 -67 -139 -145 -400 -190 -634 -44
-233 -51 -646 -15 -940 37 -306 55 -392 202 -971 78 -306 86 -359 86 -574 1
-212 -14 -312 -74 -510 -55 -178 -68 -456 -31 -629 33 -151 101 -324 149 -379
8 -9 12 -17 9 -17 -3 0 4 -10 16 -23 47 -50 92 -110 89 -121 -2 -6 0 -8 4 -4
7 7 51 -24 105 -73 86 -80 347 -205 534 -256 147 -40 406 -82 570 -94 191 -13
570 -10 675 6 47 8 117 17 155 21 39 4 72 8 75 9 35 9 71 16 95 20 58 8 171
37 300 77 218 69 374 158 512 293 45 44 82 84 82 88 0 4 9 20 21 35 12 15 25
33 30 41 7 13 18 12 77 -7 64 -21 139 -39 313 -77 254 -55 625 -106 1005 -137
206 -17 889 -17 1085 0 304 26 682 76 850 113 30 6 75 15 100 19 25 4 105 23
178 42 l132 36 52 -67 c96 -123 205 -210 362 -288 42 -22 73 -43 69 -48 -4 -4
-1 -6 8 -2 9 3 22 0 28 -6 6 -6 11 -8 11 -4 0 4 13 1 30 -8 16 -8 32 -15 35
-15 3 0 22 -7 43 -16 20 -8 48 -17 62 -19 14 -2 71 -15 126 -29 263 -67 483
-91 824 -91 270 0 357 3 442 16 32 5 77 11 100 13 40 3 172 27 228 41 14 4 41
10 60 15 86 19 265 84 380 138 46 21 164 94 168 104 2 4 8 8 14 8 6 0 19 11
30 25 11 14 23 24 26 22 4 -1 26 17 50 40 23 24 39 43 36 43 -4 0 4 10 17 22
85 79 189 302 218 463 46 267 36 443 -43 735 -50 184 -58 257 -53 475 6 224
13 263 104 620 30 121 59 239 64 263 5 24 11 48 15 53 3 6 7 23 9 37 2 15 8
52 14 82 86 448 111 737 92 1062 -10 157 -15 206 -42 368 -21 130 -79 355
-127 490 -8 25 -43 104 -78 177 -34 72 -59 134 -56 137 3 3 1 6 -5 6 -6 0 -23
20 -37 44 -14 24 -55 81 -90 126 -36 45 -64 86 -61 90 2 4 37 8 77 9 83 2 335
37 373 51 14 5 32 7 40 4 8 -4 15 -1 15 5 0 6 8 11 18 11 10 0 56 13 103 28
46 16 90 27 98 24 9 -3 11 0 6 8 -6 10 -4 12 8 7 10 -3 17 -3 17 1 0 5 17 14
38 21 90 33 255 119 357 187 177 119 179 120 317 255 43 41 81 73 85 70 3 -3
3 -1 0 5 -4 7 8 25 26 40 17 16 33 33 33 38 1 4 18 26 38 47 20 22 36 43 36
47 0 5 8 17 18 28 26 29 115 163 143 214 13 25 26 47 29 50 10 10 98 195 133
280 133 321 205 571 287 995 11 60 45 321 59 460 59 568 36 1257 -68 2045 -26
192 -64 435 -81 510 -56 246 -63 323 -63 670 -1 356 8 451 73 742 27 123 36
164 60 273 5 22 13 72 19 110 6 39 16 104 23 145 8 46 12 165 12 305 0 211 -3
240 -28 358 -47 222 -110 354 -246 517 -25 30 -45 59 -45 65 -1 5 -6 9 -12 8
-6 -1 -32 17 -57 41 -25 23 -46 41 -46 38 0 -2 -17 9 -37 25 -99 74 -299 161
-415 179 -21 4 -38 10 -38 14 0 4 -12 7 -27 8 -16 0 -84 4 -153 9 -156 11
-359 -1 -470 -28 -203 -50 -416 -156 -509 -253 -19 -20 -42 -36 -50 -36 -8 0
-11 -3 -8 -6 4 -4 -14 -29 -39 -57 -118 -131 -211 -321 -268 -547 -90 -352
-76 -751 44 -1259 61 -261 76 -430 60 -701 -6 -107 -15 -262 -20 -345 -19
-321 -73 -913 -106 -1160 -40 -297 -68 -472 -95 -600 -51 -232 -164 -546 -191
-529 -7 4 -8 3 -4 -5 10 -16 -64 -107 -124 -152 -57 -43 -195 -103 -217 -95
-10 4 -13 13 -8 24 21 53 28 187 16 285 -23 188 -81 314 -222 480 -36 42 -37
34 24 137 18 30 40 56 50 58 15 3 284 -81 383 -119 40 -16 82 -5 95 25 14 30
-2 63 -39 77 -36 14 -200 66 -286 90 -94 27 -108 35 -96 57 47 82 128 315 179
515 21 81 40 150 42 152 2 2 24 -1 49 -6 25 -5 95 -18 155 -29 61 -11 143 -29
184 -39 l74 -20 28 31 c22 23 26 34 19 47 -10 19 -40 47 -40 37 0 -3 -12 -1
-27 5 -16 6 -48 15 -73 20 -25 5 -97 20 -160 34 -63 14 -127 25 -141 25 -47 0
-53 19 -41 128 21 182 29 277 38 448 3 72 10 137 14 144 6 9 24 11 61 7 122
-13 208 -28 279 -47 89 -23 123 -25 139 -6 12 14 12 88 1 81 -3 -2 -19 2 -35
10 -17 7 -57 18 -90 25 -33 7 -73 16 -90 20 -16 5 -68 14 -115 20 -47 7 -101
15 -120 19 l-35 7 -12 494 c-11 439 -11 528 4 785 21 363 24 1188 5 1410 -7
83 -17 209 -23 280 -25 321 -73 637 -140 915 -17 69 -32 132 -33 140 -2 8 -20
68 -40 132 -58 190 -125 349 -214 509 -42 76 -48 85 -66 106 -10 12 -15 26
-11 33 4 6 1 9 -7 8 -7 -2 -12 4 -10 12 2 8 1 12 -2 9 -4 -3 -35 22 -69 56
-34 34 -81 75 -104 92 -23 17 -40 33 -37 36 3 3 -1 5 -8 4 -7 0 -42 13 -78 30
-95 45 -159 57 -295 55 -138 -1 -273 -32 -425 -97 -84 -36 -240 -115 -250
-126 -3 -3 -36 -25 -75 -48 -96 -59 -197 -128 -246 -168 -15 -13 -31 -23 -36
-23 -4 0 -14 -9 -21 -21 -8 -12 -19 -18 -28 -15 -8 3 -13 2 -10 -2 5 -8 -116
-122 -130 -122 -4 0 -16 -10 -28 -23 -68 -72 -168 -157 -178 -151 -6 4 -8 3
-4 -4 3 -5 -10 -25 -30 -44 -45 -41 -111 -109 -159 -165 -21 -24 -42 -40 -48
-36 -5 3 -7 1 -4 -5 4 -5 -5 -21 -20 -34 -16 -12 -37 -35 -49 -50 -12 -15 -41
-51 -66 -80 -85 -99 -153 -183 -198 -240 -25 -32 -48 -58 -52 -58 -5 0 -8 -5
-8 -11 0 -9 -30 -52 -73 -104 -5 -5 -39 -55 -77 -110 -37 -55 -77 -109 -87
-120 -10 -12 -18 -23 -18 -25 0 -4 -76 -124 -180 -282 l-20 -31 -190 4 c-261
5 -834 5 -1039 -1 l-169 -4 -17 24 c-50 72 -120 183 -120 190 0 5 -4 10 -8 12
-5 2 -52 68 -106 148 -54 80 -101 147 -105 150 -7 6 -119 152 -141 185 -8 12
-34 44 -57 72 -24 28 -43 54 -43 58 0 5 -19 29 -42 54 -24 25 -68 75 -98 110
-94 111 -252 282 -330 359 -41 41 -74 78 -73 83 2 5 -1 8 -5 6 -5 -1 -47 32
-93 75 -106 96 -265 228 -327 269 -26 18 -54 39 -62 46 -35 33 -293 190 -375
229 -33 16 -61 32 -63 37 -2 4 -9 7 -16 7 -8 0 -35 9 -62 19 -143 56 -272 81
-415 81 -64 0 -118 -2 -120 -4z m271 -160 c74 -16 176 -48 235 -75 169 -75
340 -172 327 -186 -4 -5 -2 -5 5 -2 10 6 35 -8 157 -93 11 -8 37 -28 57 -45
20 -16 49 -40 65 -53 80 -61 164 -135 164 -144 0 -5 4 -7 8 -4 11 6 286 -265
411 -404 145 -161 154 -172 191 -220 19 -25 47 -58 62 -75 15 -16 28 -33 28
-37 0 -5 8 -16 18 -26 33 -36 103 -126 142 -182 8 -13 20 -28 25 -34 23 -26
66 -86 61 -86 -3 0 5 -11 17 -24 27 -30 229 -326 222 -326 -2 0 2 -8 10 -18 9
-9 34 -46 58 -82 62 -96 51 -94 470 -80 267 9 437 9 728 0 l378 -12 42 24 c23
13 49 38 59 58 31 59 127 200 134 195 3 -3 4 -2 2 1 -9 12 102 179 131 197 7
4 13 12 13 18 0 12 70 113 82 117 4 2 8 9 8 15 0 7 16 27 35 46 19 18 33 38
32 45 -1 6 4 10 11 8 8 -1 11 2 7 8 -3 5 1 13 9 16 9 3 13 10 10 15 -3 5 -1 9
5 9 5 0 12 8 15 18 4 9 26 39 51 65 25 26 45 52 45 58 0 6 5 7 12 3 6 -4 8 -3
4 4 -3 6 11 28 31 49 21 20 38 40 38 44 0 4 36 46 80 95 157 172 249 263 258
257 6 -3 7 -2 4 4 -8 12 48 64 59 55 4 -4 4 -2 1 5 -4 7 16 31 50 59 32 27 75
66 96 87 20 21 37 37 37 34 0 -2 15 8 33 24 104 89 168 139 177 139 5 0 10 4
10 8 0 17 310 231 310 214 0 -4 5 1 11 11 6 9 14 15 20 12 5 -4 9 -2 9 3 0 5
15 15 33 22 17 8 39 19 47 26 8 6 40 22 70 34 30 12 70 29 87 37 125 54 342
77 458 48 81 -20 110 -32 151 -62 17 -13 35 -23 40 -23 19 0 158 -146 174
-183 3 -7 17 -30 30 -52 14 -22 24 -41 22 -43 -1 -1 4 -10 13 -18 8 -9 15 -21
15 -29 0 -7 3 -15 8 -17 4 -1 23 -39 43 -83 202 -447 321 -1074 360 -1895 14
-283 7 -964 -13 -1220 -7 -98 -11 -277 -9 -440 2 -151 5 -408 5 -570 l1 -295
-180 -3 c-231 -3 -399 -24 -715 -91 -70 -14 -99 -25 -112 -41 -23 -28 -23 -43
1 -64 19 -17 27 -16 178 12 291 55 400 67 643 67 l185 0 -2 -135 c-1 -136 -40
-549 -53 -570 -5 -8 -20 -8 -56 0 -93 21 -351 47 -639 64 -207 13 -238 10
-257 -18 -14 -20 -8 -55 10 -65 9 -5 78 -14 152 -20 239 -20 373 -32 468 -41
175 -19 287 -32 299 -35 8 -3 4 -34 -13 -107 -30 -130 -101 -355 -114 -363 -6
-3 -10 -14 -10 -23 0 -19 -62 -158 -76 -172 -5 -5 -56 5 -114 21 -58 17 -132
37 -165 46 -33 8 -64 19 -69 24 -6 5 -19 9 -31 9 -11 0 -38 9 -60 20 -22 11
-45 20 -53 20 -12 0 -58 14 -217 65 l-70 22 -22 -20 c-27 -25 -30 -58 -6 -79
10 -9 46 -24 80 -34 34 -10 60 -21 58 -24 -2 -3 11 -6 27 -7 17 -1 35 -6 42
-11 6 -5 25 -12 41 -15 39 -7 217 -60 325 -98 47 -16 97 -31 113 -34 27 -4 69
-35 48 -35 -6 0 -11 -5 -11 -10 0 -9 -76 -127 -90 -140 -3 -3 -19 -23 -35 -45
-68 -91 -249 -257 -369 -337 -354 -235 -885 -403 -1631 -513 -212 -32 -241
-36 -330 -46 -531 -59 -934 -80 -1513 -80 -800 0 -1296 37 -1967 146 -259 42
-587 119 -695 162 -8 3 -18 6 -22 5 -4 -1 -63 17 -130 39 -447 150 -730 340
-975 654 -85 109 -129 183 -117 195 5 5 18 11 29 13 11 2 33 9 48 15 16 7 33
12 38 12 26 0 527 174 551 192 31 21 37 58 13 78 -21 18 -59 9 -245 -54 -203
-70 -315 -107 -355 -117 -113 -29 -145 -35 -152 -30 -20 14 -123 266 -127 311
-1 9 -5 20 -8 25 -9 15 -62 223 -72 287 -8 44 -11 43 134 57 58 6 152 15 210
21 58 6 190 17 294 24 163 11 191 16 203 31 36 50 4 85 -77 85 -66 0 -576 -38
-600 -45 -8 -2 -54 -7 -101 -10 l-86 -7 -7 54 c-24 185 -35 344 -36 486 l0
162 108 0 c172 0 445 -32 635 -75 132 -30 153 -31 167 -6 16 30 12 49 -12 65
-26 17 -155 53 -243 67 -148 25 -176 30 -279 44 -61 8 -170 15 -244 15 l-135
0 7 298 c3 163 10 365 15 447 5 83 7 384 4 670 -8 716 13 1117 88 1680 32 244
46 327 88 520 45 213 48 223 86 351 66 221 154 451 201 521 8 13 14 26 13 29
0 4 3 10 8 13 5 3 19 26 30 51 12 25 30 54 40 65 10 11 29 35 43 54 84 119
240 229 363 256 82 18 226 18 307 1z m9099 -2137 c5 -31 15 -131 22 -222 13
-173 4 -425 -23 -629 -11 -80 -10 -89 7 -108 21 -23 44 -26 68 -7 46 35 82
529 56 787 -7 74 -13 160 -13 190 l-1 55 45 -3 c63 -4 192 -30 258 -53 94 -32
192 -81 192 -95 0 -8 4 -14 8 -14 10 0 27 -61 49 -175 12 -62 17 -135 17 -235
-1 -156 -13 -216 -70 -372 -33 -88 -28 -111 23 -116 29 -3 54 15 60 42 1 6 16
52 33 101 17 50 37 119 44 155 19 88 20 317 3 406 -13 65 -13 72 3 82 14 8 23
3 51 -30 19 -22 43 -50 55 -62 39 -39 156 -256 139 -256 -3 0 1 -13 9 -28 23
-45 54 -178 65 -284 28 -248 3 -483 -99 -938 -54 -245 -69 -335 -85 -538 -31
-370 -15 -599 68 -1027 52 -262 82 -481 127 -915 11 -109 17 -182 25 -330 3
-58 8 -134 10 -170 16 -256 16 -476 1 -735 -9 -154 -21 -314 -26 -355 -5 -41
-12 -97 -15 -125 -3 -27 -8 -66 -10 -85 -3 -19 -8 -53 -10 -75 -18 -131 -71
-389 -106 -514 -16 -58 -32 -117 -35 -131 -22 -103 -165 -488 -187 -502 -7 -4
-9 -8 -4 -8 9 0 -62 -144 -74 -148 -5 -2 -9 -10 -9 -19 0 -19 -62 -123 -73
-123 -4 0 -5 -4 -2 -10 3 -5 1 -10 -4 -10 -6 0 -11 -6 -11 -14 0 -8 -17 -36
-38 -63 -20 -26 -45 -61 -55 -76 -10 -15 -23 -25 -29 -21 -6 4 -8 3 -5 -4 14
-22 -173 -223 -306 -330 -40 -31 -78 -62 -85 -69 -17 -16 -176 -115 -229 -142
-45 -23 -68 -27 -58 -11 4 6 -8 10 -29 10 -34 0 -65 -28 -49 -44 8 -7 -27 -35
-45 -36 -9 0 -10 4 -1 19 20 30 4 53 -33 49 -36 -3 -51 -34 -26 -52 33 -24 20
-37 -55 -60 -23 -7 -52 -11 -62 -8 -72 15 -80 14 -97 -17 -21 -37 -35 -39 -48
-7 -18 48 -90 46 -90 -3 0 -29 -16 -51 -37 -51 -8 0 -13 14 -13 40 0 35 -3 40
-27 46 -14 4 -33 2 -42 -3 -21 -13 -26 -50 -10 -69 10 -13 10 -17 -1 -24 -18
-11 -89 -22 -100 -15 -5 3 -67 6 -136 6 l-127 0 20 22 c26 29 34 63 18 77 -16
13 -94 10 -102 -4 -3 -5 -1 -6 5 -2 14 8 16 -13 3 -33 -7 -11 -12 -8 -26 12
-20 31 -6 67 25 67 11 0 24 9 30 19 11 21 4 51 -12 51 -5 0 -6 4 -3 10 4 6 -1
7 -10 3 -24 -8 -35 14 -35 69 0 41 3 48 28 60 39 19 42 62 5 80 -25 12 -28 19
-31 72 -2 34 1 55 6 52 5 -3 21 5 36 19 32 30 24 57 -24 74 -30 10 -31 12 -28
63 3 46 6 53 25 56 15 2 25 13 29 28 8 30 -3 43 -37 46 -25 2 -26 5 -25 59 1
54 3 58 30 66 65 18 46 91 -21 80 -37 -6 -39 -3 -19 44 13 30 12 35 -11 70
-28 43 -30 113 -3 132 9 7 19 22 23 35 5 20 0 26 -27 37 -25 11 -35 22 -40 46
-11 57 -8 69 24 80 17 6 31 15 31 20 1 5 2 15 3 22 1 6 -2 20 -7 31 -7 15 -17
17 -47 13 -40 -5 -44 1 -22 40 18 33 15 47 -18 71 -26 20 -30 29 -30 71 0 41
4 51 24 65 45 29 17 81 -36 70 -16 -3 -28 -4 -28 -2 0 2 4 19 10 37 8 30 6 40
-20 79 -36 54 -40 107 -10 115 11 3 25 16 31 30 15 33 -6 57 -49 57 -28 0 -30
2 -25 36 4 28 0 40 -20 58 -30 28 -51 92 -37 115 5 9 10 13 10 9 0 -16 43 10
46 28 5 33 -22 57 -62 56 -33 -1 -36 0 -29 21 20 64 18 75 -14 82 -28 6 -31
10 -31 46 0 28 -9 51 -30 81 -16 22 -30 48 -30 58 0 9 -6 22 -12 29 -7 7 -8
12 -3 11 21 -5 35 1 64 25 26 23 31 24 43 10 43 -52 44 -52 74 -31 14 10 19
26 19 58 0 40 2 43 25 39 62 -9 65 -8 66 27 0 24 9 42 31 62 17 16 34 26 38
22 5 -4 5 -2 1 5 -6 11 12 38 57 85 9 10 14 18 11 18 -4 0 -2 6 4 13 39 48
144 299 158 377 3 14 8 36 13 50 5 14 14 50 20 80 7 30 16 73 21 95 59 260
122 761 170 1345 5 63 14 169 20 235 18 208 30 403 37 622 7 255 -5 392 -57
608 -5 22 -9 40 -9 40 0 0 -2 7 -4 15 -43 146 -87 426 -102 640 -11 164 40
549 87 650 6 14 13 33 15 44 2 10 9 30 16 45 110 220 111 222 212 325 74 74
178 151 183 135 2 -5 7 -7 11 -5 4 3 -1 -32 -10 -77 -31 -140 -45 -331 -31
-444 16 -140 50 -303 71 -338 29 -50 91 -42 91 11 0 13 -12 68 -26 121 -25 90
-27 115 -28 298 -1 218 17 349 64 470 6 17 11 32 10 34 -5 12 67 43 143 61 90
21 267 40 279 30 3 -3 11 -30 17 -61z m-1955 -5820 c-5 9 -3 12 5 7 6 -4 8
-12 5 -18 -4 -6 -1 -13 5 -17 18 -12 146 -364 209 -576 90 -305 186 -836 218
-1205 8 -102 18 -318 21 -481 5 -286 5 -296 -13 -295 -11 1 -30 7 -44 14 -38
17 -217 68 -286 81 -80 15 -332 16 -415 1 -177 -31 -247 -50 -354 -95 -76 -32
-200 -97 -232 -121 -17 -13 -34 -24 -38 -24 -8 0 -172 -137 -180 -150 -4 -6
-11 -8 -16 -5 -5 4 -9 2 -9 -4 0 -9 -45 -61 -142 -163 -14 -15 -24 -28 -20
-28 3 0 -9 -16 -28 -35 -19 -19 -31 -35 -27 -35 4 0 -17 -35 -45 -77 -133
-197 -256 -485 -348 -813 -18 -63 -39 -126 -47 -139 -8 -13 -10 -20 -4 -17 7
4 9 1 5 -8 -3 -8 -13 -17 -21 -20 -12 -5 -14 -16 -9 -54 8 -64 -15 -147 -48
-173 -31 -25 -34 -59 -5 -77 14 -9 18 -19 14 -33 -4 -12 -8 -31 -9 -43 -2 -11
-9 -32 -16 -46 -8 -14 -13 -37 -12 -53 2 -21 -3 -30 -22 -37 -37 -14 -52 -47
-31 -70 9 -10 23 -16 31 -13 15 6 17 -1 14 -62 -1 -30 -9 -47 -31 -68 -31 -29
-29 -48 5 -77 9 -7 16 -19 16 -27 0 -13 -4 -13 -26 2 -36 24 -74 7 -74 -32 0
-53 64 -67 76 -17 3 13 10 24 15 24 11 0 6 -45 -12 -93 -10 -30 -11 -42 -1
-57 19 -31 15 -42 -9 -29 -32 17 -67 -5 -63 -38 3 -33 21 -44 51 -32 34 13 34
13 27 -23 -4 -18 -8 -51 -9 -73 -2 -22 -3 -43 -4 -47 -1 -5 -10 -8 -20 -8 -12
0 -23 -9 -27 -22 -4 -13 -18 -33 -31 -46 -24 -22 -25 -33 -8 -76 7 -15 4 -17
-11 -13 -25 8 -49 -11 -57 -44 -8 -33 9 -50 47 -47 29 3 39 23 34 68 -2 19 2
26 20 28 29 4 45 37 39 78 -4 22 -1 34 8 38 20 7 25 -3 25 -59 0 -42 -5 -56
-25 -75 -26 -24 -33 -54 -15 -65 14 -9 1 -27 -15 -21 -8 3 -26 -5 -40 -16 -22
-17 -26 -27 -23 -54 3 -22 0 -34 -8 -34 -17 0 -55 -50 -52 -68 2 -9 19 -21 38
-27 25 -8 35 -18 36 -33 1 -26 -4 -27 -30 -7 -44 33 -118 5 -96 -35 6 -11 26
-26 44 -35 19 -9 37 -24 41 -33 4 -12 15 -5 50 34 28 31 44 43 45 33 0 -9 7
-19 15 -23 28 -10 15 -33 -27 -46 -24 -8 -46 -13 -50 -12 -20 5 -10 -60 12
-78 10 -8 20 -24 22 -35 2 -11 16 -26 31 -33 18 -9 27 -21 27 -37 0 -29 -16
-41 -35 -25 -23 19 -75 -6 -75 -34 0 -26 18 -46 41 -46 24 0 32 -16 19 -39
-10 -19 -11 -19 -36 4 l-26 25 -29 -20 c-48 -35 -24 -84 39 -77 17 1 32 2 32
0 0 -12 -61 -122 -74 -132 -9 -8 -16 -23 -16 -35 0 -28 -15 -50 -29 -42 -6 4
-9 2 -5 -7 3 -8 -2 -20 -11 -27 -8 -7 -15 -25 -15 -41 0 -27 -12 -41 -38 -45
-34 -6 -57 -54 -32 -69 18 -11 11 -35 -11 -35 -40 0 -60 -19 -57 -55 1 -18 6
-33 12 -32 5 1 12 -6 14 -16 3 -16 0 -18 -27 -12 -59 13 -82 -37 -35 -74 31
-24 27 -56 -5 -46 -13 4 -27 -1 -40 -14 -29 -29 -27 -59 4 -67 15 -4 25 -13
25 -24 0 -16 -4 -17 -29 -7 -36 13 -58 5 -73 -28 -10 -22 -9 -29 9 -46 25 -25
59 -18 74 14 8 18 8 17 3 -8 -3 -16 -8 -56 -11 -88 -4 -52 -7 -57 -28 -57 -28
0 -34 -9 -40 -50 -3 -26 0 -31 28 -38 30 -8 32 -11 37 -65 l5 -56 -30 -3 c-26
-3 -30 -7 -33 -36 -4 -39 21 -65 55 -57 29 7 38 -10 19 -37 -22 -31 -20 -53 7
-66 21 -10 20 -11 -10 -11 -17 -1 -47 -10 -66 -21 -30 -18 -36 -19 -47 -5 -7
8 -27 15 -46 15 -26 0 -36 -6 -46 -27 -16 -33 -38 -42 -38 -15 0 31 -30 47
-78 43 -18 -1 -31 -43 -21 -63 11 -21 26 -17 -221 -59 -108 -18 -177 -27 -380
-50 -167 -18 -558 -39 -750 -39 -356 0 -850 41 -1195 99 -135 23 -132 21 -146
55 -18 41 -51 46 -67 11 -14 -30 -32 -25 -32 9 0 15 -9 27 -25 34 -32 15 -54
6 -67 -27 l-9 -26 -27 30 c-27 30 -62 36 -89 14 -11 -10 -125 22 -123 34 8 35
14 47 24 47 23 1 -29 30 -53 30 -21 0 -23 2 -11 10 8 5 10 10 4 10 -22 0 6 93
36 122 31 30 31 59 1 81 -12 8 -18 29 -20 62 -2 43 2 54 23 74 33 31 33 54 2
78 -19 13 -26 31 -30 66 -3 27 -8 52 -10 56 -3 4 7 8 21 9 59 5 77 68 27 91
-31 14 -30 14 -48 -5 -27 -26 -33 12 -7 40 38 41 21 84 -34 82 -29 -1 -35 13
-19 51 16 37 12 53 -15 53 -24 0 -41 20 -41 48 0 13 -12 39 -26 58 -15 19 -23
34 -18 34 4 0 0 6 -10 13 -10 7 -19 25 -19 39 -1 14 -5 24 -9 21 -5 -2 -8 3
-8 13 0 12 6 15 25 12 13 -3 22 -2 20 2 -3 5 2 10 10 14 23 9 18 52 -8 69 -17
11 -28 12 -43 4 -23 -13 -34 -28 -28 -39 3 -4 1 -8 -4 -8 -14 0 -22 27 -15 47
5 12 3 14 -8 8 -8 -4 -11 -5 -7 -1 3 4 8 7 10 5 2 -1 13 3 26 10 25 14 30 55
8 77 -19 18 -31 18 -60 -2 -34 -22 -41 -2 -12 33 21 26 23 32 13 54 -8 15 -23
25 -40 27 -29 4 -30 6 -27 64 1 28 -4 39 -19 48 -12 6 -21 21 -21 33 0 14 3
18 8 10 4 -6 20 -16 35 -22 23 -9 31 -7 47 9 23 23 24 33 10 61 -14 26 -66 26
-82 -1 -17 -27 -28 -25 -28 3 0 13 11 33 25 45 19 17 25 31 23 56 -1 27 -5 32
-21 28 -25 -6 -37 14 -37 63 0 33 6 46 31 68 33 29 35 54 4 71 -30 17 -35 27
-35 77 0 42 3 48 29 59 47 19 47 80 0 80 -19 0 -29 34 -26 85 2 22 10 34 32
45 37 18 37 57 0 66 -18 4 -24 14 -27 44 -4 50 -1 59 21 53 26 -7 64 43 51 67
-5 9 -7 19 -5 22 2 2 -9 5 -25 6 -16 1 -31 -2 -35 -8 -9 -14 -24 -12 -21 3 1
6 7 22 14 34 17 30 15 50 -5 61 -12 7 -18 27 -21 74 -4 61 -3 64 22 76 14 6
26 15 27 19 0 5 2 17 3 28 2 16 -4 21 -23 23 -36 3 -41 12 -44 72 -2 49 0 53
22 55 33 3 53 32 40 58 -9 16 -18 18 -50 14 -43 -6 -49 4 -24 37 17 22 20 56
5 56 -15 0 -37 41 -45 83 -4 26 -3 37 4 32 7 -3 8 0 5 9 -5 12 0 16 19 16 32
0 44 32 26 66 -12 24 -59 35 -59 14 0 -5 -6 -7 -13 -4 -7 2 -13 15 -13 28 0
19 8 26 39 36 22 6 67 26 101 43 33 17 67 30 75 29 7 -2 10 1 6 7 -3 6 -2 11
3 11 5 0 26 11 46 25 20 13 36 22 36 20 0 -5 25 16 116 100 39 36 74 63 77 60
4 -3 5 -2 2 2 -3 3 14 27 38 53 55 61 73 84 87 112 7 13 20 32 30 43 21 25 82
167 110 258 34 108 50 223 50 347 -1 343 -123 653 -385 979 -25 31 -124 138
-186 200 -81 82 -237 206 -349 278 -36 23 -70 47 -77 52 -7 6 -14 11 -17 11
-6 0 -110 63 -116 71 -10 13 -298 149 -410 194 -63 26 -162 62 -220 81 -58 19
-111 36 -118 39 -16 6 -12 5 -57 16 -125 32 -134 34 -299 63 -49 8 -128 18
-175 22 -79 6 -88 4 -108 -15 -49 -47 -19 -121 50 -121 15 0 47 -4 70 -9 23
-5 74 -15 112 -21 237 -41 569 -142 770 -234 28 -13 69 -31 92 -41 23 -10 40
-22 36 -28 -3 -6 -1 -7 5 -3 11 7 35 -5 177 -85 59 -33 120 -71 140 -87 6 -4
28 -19 50 -32 65 -40 180 -132 177 -142 -1 -5 2 -7 8 -3 15 10 303 -261 294
-277 -3 -4 -1 -8 5 -8 24 0 190 -247 248 -370 92 -191 136 -366 131 -515 l-3
-90 -52 70 c-28 38 -50 71 -48 73 2 2 -24 28 -56 58 -47 43 -66 55 -87 52 -34
-4 -53 -48 -34 -79 7 -11 10 -24 7 -29 -4 -6 1 -7 11 -3 13 5 15 3 9 -7 -5 -8
-4 -11 2 -7 30 19 165 -197 193 -308 12 -48 11 -54 -17 -125 -36 -88 -78 -163
-138 -239 -39 -52 -97 -111 -82 -84 4 6 3 14 -3 18 -5 3 -10 17 -10 30 0 27
-69 203 -105 267 -13 24 -50 72 -81 106 -51 57 -60 62 -93 60 -56 -3 -54 -38
6 -119 62 -83 88 -124 113 -179 12 -25 25 -54 31 -65 19 -41 40 -160 34 -192
-4 -25 -19 -43 -61 -74 -31 -23 -62 -42 -69 -43 -8 -1 -22 -9 -32 -18 -26 -23
-201 -90 -249 -95 l-41 -5 -5 83 c-5 96 -43 228 -88 304 -16 28 -38 66 -49 86
-23 42 -75 89 -98 89 -22 0 -53 -29 -53 -49 0 -9 20 -43 44 -76 91 -121 136
-244 136 -371 0 -93 -1 -94 -83 -94 -91 0 -229 27 -331 64 -98 36 -178 74
-184 89 -2 4 -8 7 -14 7 -9 0 -65 38 -133 90 -21 17 -76 66 -180 163 -101 94
-128 116 -245 199 -127 91 -208 137 -495 278 -307 151 -524 281 -517 309 1 7
-2 10 -8 6 -5 -3 -10 -1 -10 5 0 6 -4 9 -9 6 -13 -8 -212 196 -206 212 2 7 1
11 -4 8 -9 -6 -72 76 -75 98 -1 7 -11 24 -23 39 -30 39 -98 198 -127 301 -50
172 -67 394 -45 580 33 280 108 537 230 794 73 153 157 302 175 309 8 3 11 9
8 14 -3 5 0 9 7 9 7 0 9 3 6 6 -8 9 54 95 64 89 4 -3 11 0 15 6 4 8 3 9 -4 5
-16 -10 -15 2 0 19 7 7 31 36 53 64 22 28 45 49 52 47 7 -3 10 1 7 7 -9 24
309 332 333 323 8 -3 12 -2 10 2 -3 4 5 16 16 27 11 12 17 14 13 5 -4 -8 0 -6
8 4 9 11 16 16 16 11 0 -5 6 -2 12 7 7 8 29 24 49 36 33 20 36 20 54 4 18 -16
18 -16 6 1 -8 9 -12 20 -9 22 3 3 11 -7 19 -23 7 -15 40 -54 72 -88 31 -33 63
-68 70 -76 6 -9 50 -46 97 -82 47 -37 92 -73 100 -79 8 -7 17 -13 20 -13 3 0
23 -12 45 -26 22 -13 101 -57 175 -96 223 -117 424 -199 650 -265 30 -9 80
-24 110 -33 79 -23 480 -124 512 -129 15 -2 44 -8 65 -14 21 -5 55 -12 75 -15
21 -3 59 -11 85 -17 58 -13 138 -27 218 -39 33 -5 123 -18 200 -30 77 -11 181
-25 230 -30 50 -4 108 -11 130 -14 22 -3 104 -10 182 -17 77 -6 147 -15 153
-19 10 -6 9 -19 -5 -56 -26 -73 -32 -326 -11 -419 16 -67 47 -160 67 -197 5
-10 9 -25 9 -33 0 -8 4 -15 9 -15 10 0 24 -38 22 -60 -2 -12 0 -12 7 -2 7 10
13 7 27 -14 18 -27 54 -71 90 -108 11 -12 19 -25 17 -31 -2 -5 0 -7 4 -2 4 4
24 -8 43 -26 86 -80 234 -151 389 -187 68 -16 266 -16 352 0 82 15 199 60 273
104 31 19 57 33 57 30 0 -2 9 4 19 14 11 9 26 22 33 28 34 29 156 163 176 194
29 47 91 175 107 225 43 132 50 359 15 489 -17 60 -19 80 -10 86 7 4 63 13
124 19 61 6 147 16 191 21 44 5 139 17 210 25 255 30 509 74 845 145 52 11
104 22 115 25 11 2 61 13 110 24 84 18 138 32 370 95 50 14 164 50 255 82 91
31 175 56 188 56 13 0 21 2 18 5 -5 5 203 101 229 106 6 1 12 4 15 7 15 15
107 54 120 52 8 -2 12 -1 8 4 -7 6 92 74 108 74 8 0 119 75 144 98 14 12 28
22 33 22 8 0 62 47 127 110 49 48 130 149 130 163 0 6 7 2 16 -9 8 -10 12 -13
8 -5z m-4122 -699 c94 -19 207 -53 202 -62 -3 -4 1 -5 9 -3 18 7 149 -79 207
-136 87 -85 161 -206 194 -319 15 -51 15 -56 -1 -67 -9 -7 -22 -13 -27 -13 -6
0 -87 -14 -181 -31 -144 -26 -205 -31 -400 -36 -244 -6 -376 2 -575 37 -244
42 -232 37 -210 108 26 85 80 193 92 186 6 -4 8 -2 5 3 -18 28 216 255 244
237 5 -3 9 -1 9 4 0 13 135 68 200 81 108 22 162 24 232 11z m-509 -861 c203
-14 227 -23 227 -84 0 -59 27 -102 88 -142 48 -32 192 -28 230 7 11 10 22 17
25 14 7 -7 46 96 49 131 2 24 11 34 42 48 22 11 60 20 85 22 44 3 369 8 383 6
11 -2 -31 -139 -61 -199 -16 -31 -39 -67 -50 -79 -12 -12 -21 -26 -21 -30 0
-10 -126 -132 -166 -160 -17 -12 -37 -23 -44 -25 -8 -2 -23 -10 -33 -19 -10
-9 -44 -26 -75 -37 -171 -61 -365 -56 -541 13 -91 35 -207 118 -194 138 3 6 1
7 -5 3 -15 -9 -114 105 -151 174 -39 72 -71 164 -71 200 0 26 2 27 53 29 28 1
132 -4 230 -10z m4747 -1085 c146 -25 371 -119 464 -194 135 -110 235 -217
288 -309 73 -127 91 -160 129 -241 36 -75 107 -281 138 -395 59 -225 82 -405
88 -700 6 -267 -7 -440 -48 -681 -11 -65 -22 -132 -25 -149 -12 -73 -41 -200
-109 -475 -82 -330 -100 -427 -116 -615 -17 -211 -2 -346 75 -646 58 -227 67
-395 31 -584 -15 -79 -51 -193 -68 -214 -6 -7 -12 -19 -13 -27 -3 -18 -74
-134 -82 -134 -4 0 -15 -14 -24 -31 -11 -18 -22 -27 -29 -23 -7 4 -9 3 -6 -3
6 -10 -74 -92 -133 -135 -77 -55 -280 -155 -292 -142 -3 2 3 28 13 57 78 233
60 521 -48 766 -30 68 -49 91 -78 91 -53 0 -57 -43 -16 -150 67 -177 88 -300
77 -455 -8 -109 -60 -325 -79 -325 -4 0 -5 -4 -2 -10 3 -5 -1 -10 -9 -10 -9 0
-16 -4 -16 -9 0 -5 -12 -11 -27 -14 -16 -2 -62 -11 -103 -20 -41 -8 -113 -21
-160 -27 -47 -6 -108 -15 -137 -19 -58 -9 -166 -15 -263 -16 l-65 0 3 35 c1
19 6 64 12 100 46 315 46 462 1 770 -15 103 -24 120 -72 120 -55 0 -57 -37
-18 -240 6 -30 11 -143 12 -250 0 -159 -4 -219 -22 -325 -28 -163 -38 -202
-54 -207 -17 -6 -259 9 -347 22 -41 6 -102 15 -135 19 -281 41 -278 39 -316
227 -44 215 -15 514 65 672 34 67 34 99 0 112 -35 14 -57 0 -88 -56 -28 -49
-75 -191 -97 -289 -19 -84 -17 -377 3 -475 16 -74 13 -90 -17 -90 -5 0 -3 5 5
10 11 7 7 10 -18 10 -35 0 -212 77 -212 91 0 5 -6 9 -14 9 -20 0 -136 91 -186
148 -68 76 -72 81 -103 141 -109 208 -119 479 -30 766 26 82 200 435 215 435
4 0 8 6 8 13 0 8 13 41 30 74 61 127 87 204 115 338 23 111 37 310 30 435 -8
157 -9 655 0 760 14 188 45 441 65 535 5 28 14 73 19 100 15 80 51 246 62 290
24 93 91 309 109 350 5 11 14 38 21 60 13 44 108 257 118 265 7 5 34 60 35 70
2 15 80 140 88 140 4 0 8 6 8 13 0 11 25 45 64 90 9 9 16 19 16 22 0 13 44 64
51 59 4 -2 10 4 14 15 10 34 201 211 253 234 12 6 22 14 22 19 0 5 5 6 10 3 6
-3 10 -2 10 3 0 12 50 45 67 45 7 0 13 3 13 7 0 25 337 144 420 148 8 1 49 5
90 9 99 10 203 6 320 -13z m-9156 -539 c8 -8 17 -15 21 -15 3 0 34 -22 68 -48
102 -80 246 -161 550 -311 158 -78 287 -146 287 -152 0 -5 5 -9 12 -9 42 0
418 -298 410 -325 -2 -5 -1 -7 3 -3 4 4 46 -27 94 -69 150 -132 263 -200 436
-265 144 -53 232 -68 395 -63 80 2 161 7 181 10 l37 7 10 -48 c78 -370 121
-874 108 -1284 -10 -335 19 -578 90 -745 7 -16 21 -52 32 -80 11 -27 61 -133
110 -235 114 -236 145 -319 172 -455 35 -184 36 -270 5 -430 -26 -135 -97
-265 -205 -378 -59 -61 -91 -87 -100 -82 -8 5 -11 4 -7 -2 11 -17 -202 -141
-222 -129 -5 3 -11 3 -13 -1 -4 -10 -118 -57 -124 -51 -2 3 6 40 18 84 18 67
22 106 22 254 1 192 -8 254 -57 390 -64 180 -95 228 -141 216 -50 -12 -51 -39
-8 -139 54 -123 71 -177 88 -272 28 -161 14 -360 -37 -504 -23 -67 -27 -71
-81 -82 -197 -41 -425 -68 -603 -72 l-119 -2 1 30 c1 17 5 93 9 170 11 220
-40 798 -73 823 -22 16 -34 15 -62 -4 -23 -16 -23 -21 -18 -108 3 -50 13 -161
22 -246 22 -202 24 -469 6 -577 l-15 -83 -50 1 c-80 1 -275 17 -341 28 -33 5
-89 15 -125 21 -36 6 -94 18 -130 26 -36 8 -75 17 -87 20 -44 9 -74 76 -110
249 -10 49 -13 108 -10 195 5 136 24 237 65 344 53 135 51 129 34 149 -17 19
-57 23 -67 7 -4 -6 -12 -7 -18 -4 -7 4 -9 4 -6 0 4 -4 -10 -47 -31 -95 -54
-124 -69 -180 -84 -301 -14 -124 -5 -275 24 -394 11 -44 18 -81 15 -84 -3 -3
-5 -1 -5 5 0 6 -6 10 -12 10 -19 -2 -118 44 -118 55 0 5 -4 7 -10 3 -5 -3 -18
3 -30 15 -11 11 -23 19 -26 19 -10 -2 -94 64 -94 75 0 5 -3 6 -7 2 -4 -3 -25
13 -48 37 -184 195 -264 403 -265 686 0 133 14 223 58 376 58 196 87 450 72
624 -16 191 -74 472 -151 731 -11 36 -26 97 -35 135 -8 39 -19 86 -24 105 -8
35 -31 149 -50 245 -5 28 -19 122 -31 210 -26 190 -31 594 -11 760 26 203 81
442 139 600 70 188 209 441 245 444 4 1 13 -6 22 -14z m7132 -2580 c1 -53 -16
-95 -42 -105 -13 -5 -24 -16 -24 -24 0 -8 -6 -18 -12 -22 -7 -4 -10 -4 -6 1 4
4 1 17 -7 29 -22 30 -18 44 11 44 33 0 45 17 43 62 -1 50 -1 52 19 48 11 -2
17 -13 18 -33z m-6 -203 c0 -27 -15 -61 -23 -52 -2 3 -7 21 -11 40 -5 31 -3
36 14 37 15 1 20 -4 20 -25z m0 -164 c-1 -18 -23 -44 -37 -43 -24 0 -25 15 -2
34 28 24 39 26 39 9z"/>
<path d="M2760 16571 c-99 -14 -222 -104 -297 -216 -14 -22 -29 -42 -32 -45
-3 -3 -22 -36 -41 -75 -19 -38 -37 -72 -40 -75 -21 -21 -140 -404 -178 -570
-46 -205 -60 -290 -77 -470 -43 -472 -25 -796 56 -999 16 -40 26 -77 23 -82
-3 -5 -1 -8 4 -7 5 2 25 -17 44 -42 68 -90 201 -128 328 -96 116 30 184 70
305 180 128 117 177 157 202 167 12 5 23 13 23 19 0 5 6 10 14 10 7 0 19 7 26
15 16 20 102 67 94 52 -3 -7 1 -5 8 4 33 40 305 133 508 173 32 6 121 30 228
61 86 25 161 61 176 84 4 7 17 22 27 32 11 11 17 19 15 19 -3 0 2 16 10 35 17
41 18 138 3 203 -15 61 -65 194 -96 255 -13 26 -21 47 -17 47 3 0 1 6 -5 14
-11 13 -74 134 -76 146 -1 9 -77 141 -127 223 -26 43 -48 82 -48 87 0 5 -6 15
-13 22 -12 12 -26 32 -125 178 -24 36 -47 67 -51 70 -20 15 -69 88 -63 94 4 4
2 6 -3 4 -6 -2 -42 33 -81 77 -106 119 -189 197 -284 264 -47 33 -93 67 -102
75 -10 9 -20 16 -23 16 -18 -1 -55 14 -55 21 0 5 -12 9 -26 9 -14 0 -33 4 -42
9 -25 12 -140 20 -192 12z"/>
<path d="M8993 16555 c-70 -17 -164 -62 -246 -119 -37 -26 -72 -44 -78 -41 -5
4 -8 2 -7 -3 4 -14 -128 -133 -137 -124 -5 4 -6 2 -2 -3 3 -6 -15 -33 -40 -60
-25 -28 -83 -96 -129 -152 -45 -56 -86 -98 -90 -95 -4 4 -4 2 -1 -4 3 -5 -11
-32 -32 -60 -20 -27 -45 -63 -56 -81 -10 -18 -22 -30 -27 -27 -4 3 -8 -3 -8
-14 0 -10 -10 -29 -22 -42 -13 -14 -21 -25 -18 -25 2 0 -11 -26 -30 -59 -142
-240 -264 -493 -309 -641 -12 -38 -25 -105 -28 -147 -5 -70 -3 -82 22 -133 40
-83 107 -124 275 -169 30 -8 117 -31 194 -51 232 -61 436 -134 436 -156 0 -5
4 -8 9 -7 11 4 110 -55 171 -100 25 -18 93 -76 152 -128 59 -53 135 -116 170
-140 112 -79 256 -106 352 -64 25 10 46 17 46 14 0 -2 15 11 34 30 19 19 37
31 40 28 3 -3 6 1 6 8 0 7 13 34 28 59 95 153 148 544 123 894 -12 160 -28
312 -50 467 -10 63 -15 94 -41 225 -16 86 -59 266 -70 295 -5 14 -23 66 -40
115 -87 248 -160 368 -273 451 -94 70 -201 89 -324 59z"/>
<path d="M4772 12215 c-23 -8 -68 -27 -100 -44 -186 -97 -273 -126 -478 -161
-247 -41 -515 -14 -754 77 -67 25 -151 64 -160 73 -3 3 -30 18 -60 33 -62 30
-105 34 -136 12 -12 -8 -23 -12 -26 -10 -3 3 -5 -1 -6 -8 -14 -90 -13 -98 5
-127 20 -32 119 -120 134 -120 6 0 7 -6 3 -12 -4 -7 -4 -10 0 -6 4 3 30 -7 57
-23 28 -16 54 -29 59 -29 4 0 10 -3 12 -7 9 -21 226 -97 338 -120 110 -21 106
-21 220 -28 123 -7 311 7 407 30 116 29 236 68 281 93 12 7 27 10 32 7 6 -3
10 -2 10 3 0 5 30 25 68 44 37 19 80 46 96 61 16 15 34 27 40 27 18 1 80 87
88 122 8 42 -4 71 -45 102 -19 14 -36 26 -38 25 -2 -1 -23 -7 -47 -14z"/>
<path d="M6668 12211 c-28 -16 -48 -56 -48 -95 0 -35 47 -98 105 -141 29 -22
51 -43 48 -48 -2 -4 -1 -7 4 -5 12 3 123 -55 118 -62 -2 -3 4 -6 13 -7 9 0 60
-19 112 -40 56 -24 149 -51 226 -66 111 -23 155 -27 301 -27 199 0 298 14 463
67 63 20 117 37 120 38 13 3 156 77 169 88 12 10 13 9 6 -3 -6 -11 -3 -10 11
2 43 40 92 78 99 78 23 0 85 99 85 136 0 56 -56 102 -115 95 -11 -1 -76 -28
-145 -60 -69 -32 -163 -71 -210 -85 -47 -15 -105 -34 -129 -42 -72 -23 -307
-47 -396 -40 -187 15 -352 42 -390 64 -5 4 -19 8 -30 9 -11 2 -24 8 -29 13 -6
6 -17 10 -27 10 -9 0 -72 28 -140 61 -144 72 -182 82 -221 60z"/>
<path d="M5665 11574 c-180 -25 -245 -68 -245 -164 0 -46 16 -82 69 -155 49
-68 73 -114 65 -127 -4 -6 -3 -8 3 -5 12 8 35 -47 25 -58 -4 -4 -2 -5 3 -3 15
4 56 -27 47 -37 -4 -5 -2 -6 3 -3 6 3 26 -1 45 -11 l35 -16 3 -184 c3 -177 -5
-241 -28 -241 -5 0 -15 -7 -24 -15 -24 -24 -134 -76 -206 -96 -49 -15 -97 -19
-195 -19 -172 0 -292 27 -431 97 -90 46 -186 107 -179 115 6 5 -63 3 -85 -3
-21 -6 -48 -66 -42 -95 13 -69 253 -198 474 -255 101 -26 114 -28 266 -29 183
-1 303 31 471 127 74 42 75 42 100 24 143 -101 267 -140 476 -148 201 -7 316
16 503 103 40 19 80 34 88 34 8 0 13 4 10 8 -3 4 16 19 42 32 26 14 62 38 80
54 26 25 32 37 32 72 0 78 -78 109 -144 59 -18 -14 -38 -25 -44 -25 -6 0 -15
-7 -20 -16 -5 -8 -16 -16 -26 -18 -10 -1 -21 -7 -24 -13 -19 -27 -205 -97
-306 -113 -79 -13 -260 -12 -311 1 -22 5 -53 12 -70 15 -16 3 -39 11 -50 17
-11 6 -23 10 -27 9 -5 -1 -8 3 -8 10 0 6 -3 9 -6 5 -8 -7 -53 15 -112 55 l-43
29 1 200 2 199 36 19 c20 10 40 18 44 17 10 -1 58 65 58 80 0 6 11 28 25 48
13 20 22 36 18 36 -3 0 0 7 7 15 7 8 17 12 23 8 5 -3 7 -1 4 4 -4 6 3 21 14
34 42 48 72 111 72 149 0 123 -87 168 -338 175 -82 2 -163 2 -180 -1z"/>
<path d="M10223 9083 c-16 -6 -17 -47 -3 -74 10 -18 13 -18 40 -4 16 8 34 24
40 34 18 35 -31 63 -77 44z"/>
<path d="M10354 9069 c-23 -25 -9 -53 29 -57 30 -4 49 23 40 56 -7 28 -44 29
-69 1z"/>
<path d="M10312 8992 c-24 -4 -29 -10 -36 -54 -5 -28 8 -38 48 -38 26 0 46 18
46 41 0 27 -32 56 -58 51z"/>
<path d="M10424 8975 c-20 -31 -10 -63 23 -71 29 -8 51 10 56 46 8 48 -51 67
-79 25z"/>
<path d="M10356 8869 c-21 -31 -6 -63 32 -67 24 -3 35 3 48 24 18 26 17 27 -5
45 -30 25 -56 24 -75 -2z"/>
<path d="M10427 8764 c-14 -19 -15 -28 -7 -44 13 -24 68 -28 76 -5 4 8 10 12
16 9 5 -3 2 8 -6 25 -9 17 -20 31 -24 32 -4 0 -14 2 -22 4 -8 1 -23 -8 -33
-21z"/>
<path d="M10375 8670 c-26 -29 -26 -56 1 -71 19 -10 28 -9 49 5 28 19 32 47 9
70 -21 21 -37 20 -59 -4z"/>
<path d="M10502 8675 c0 -5 -3 -19 -5 -30 -6 -27 10 -45 39 -45 23 0 32 22 24
55 -1 6 -3 15 -3 20 0 6 -12 10 -27 10 -15 0 -27 -4 -28 -10z"/>
<path d="M10439 8574 c-11 -14 -22 -80 -11 -69 3 3 11 0 18 -6 17 -14 51 -3
64 22 13 24 7 35 -30 54 -25 13 -29 13 -41 -1z"/>
<path d="M10511 8471 c-20 -13 -21 -51 -2 -71 18 -19 45 -18 66 4 40 39 -16
97 -64 67z"/>
<path d="M10446 8367 c-23 -17 -18 -55 10 -74 20 -12 25 -12 49 9 23 20 25 27
16 51 -12 30 -44 36 -75 14z"/>
<path d="M10585 8364 c-9 -9 -15 -26 -13 -38 4 -30 62 -35 78 -7 24 45 -28 81
-65 45z"/>
<path d="M10512 8268 c-13 -13 -16 -47 -4 -64 20 -33 92 -4 92 36 0 33 -63 53
-88 28z"/>
<path d="M10666 8257 c-26 -19 -17 -52 14 -52 18 0 26 6 28 21 4 30 -20 47
-42 31z"/>
<path d="M10586 8158 c-21 -29 -20 -41 4 -63 40 -37 95 19 63 64 -19 27 -48
27 -67 -1z"/>
<path d="M10667 8061 c-35 -40 -24 -81 24 -81 21 0 32 6 40 24 21 46 -33 94
-64 57z"/>
<path d="M10524 8053 c-21 -21 -17 -60 6 -73 41 -22 86 14 70 56 -10 27 -56
37 -76 17z"/>
<path d="M10595 7959 c3 -4 1 -10 -5 -14 -31 -19 6 -86 44 -79 34 5 50 61 24
81 -16 13 -69 23 -63 12z"/>
<path d="M10730 7945 c-7 -8 -10 -24 -8 -37 2 -17 10 -23 28 -23 21 0 26 5 28
31 2 25 -1 33 -17 37 -11 3 -25 -1 -31 -8z"/>
<path d="M10666 7844 c-19 -19 -21 -58 -3 -71 26 -21 56 -22 62 -2 4 10 10 19
15 19 12 0 1 30 -18 53 -19 21 -36 22 -56 1z"/>
<path d="M10617 7748 c-51 -18 -45 -88 9 -88 46 0 75 62 34 75 -11 4 -18 11
-15 16 4 5 5 9 3 8 -2 0 -15 -5 -31 -11z"/>
<path d="M10732 7730 c-34 -32 -12 -70 41 -70 36 0 51 35 29 67 -18 28 -42 29
-70 3z"/>
<path d="M10662 7628 c-32 -32 1 -83 51 -76 28 4 46 50 27 72 -15 19 -61 21
-78 4z"/>
<path d="M10813 7628 c-19 -25 -22 -48 -7 -63 12 -11 20 -12 35 -5 24 13 26
65 3 74 -21 8 -20 8 -31 -6z"/>
<path d="M10742 7545 c3 -4 0 -18 -7 -32 -16 -30 -7 -56 24 -72 14 -8 23 -5
40 13 24 25 27 49 8 64 -14 12 -75 37 -65 27z"/>
<path d="M10607 7529 c-13 -8 -17 -20 -15 -49 2 -21 5 -36 7 -34 2 2 10 -1 16
-6 18 -15 65 26 65 55 0 36 -38 53 -73 34z"/>
<path d="M10675 7416 c-11 -8 -16 -22 -13 -41 3 -27 7 -30 37 -30 43 0 67 30
47 58 -17 23 -50 29 -71 13z"/>
<path d="M10831 7421 c-47 -12 -45 -81 3 -81 31 0 57 30 50 57 -7 26 -21 32
-53 24z"/>
<path d="M10736 7298 c-22 -31 -20 -47 8 -54 34 -8 57 -2 70 19 27 43 -48 78
-78 35z"/>
<path d="M10865 7290 c-6 -20 9 -50 26 -50 17 0 37 31 32 50 -7 27 -49 27 -58
0z"/>
<path d="M10672 7208 c-39 -39 17 -100 58 -63 25 23 26 51 1 65 -26 13 -44 13
-59 -2z"/>
<path d="M10810 7201 c-14 -26 -13 -37 5 -54 30 -31 82 5 71 48 -5 20 -13 25
-36 25 -19 0 -33 -7 -40 -19z"/>
<path d="M10746 7104 c-20 -19 -20 -29 -2 -47 22 -21 68 -15 77 10 14 38 -45
67 -75 37z"/>
<path d="M10910 7112 c-8 -2 -23 -12 -33 -20 -16 -14 -16 -16 -1 -34 21 -23
46 -23 67 0 14 16 14 19 -1 38 -9 12 -24 19 -32 16z"/>
<path d="M10688 7009 c-42 -24 -5 -89 41 -74 26 8 35 56 13 73 -19 14 -31 15
-54 1z"/>
<path d="M10816 7004 c-24 -24 -20 -53 10 -64 33 -13 64 3 64 33 0 44 -43 62
-74 31z"/>
<path d="M10952 6990 c-10 -26 -8 -31 10 -41 18 -10 25 -8 40 11 13 17 15 26
8 41 -16 29 -46 24 -58 -11z"/>
<path d="M10911 6912 c-40 -20 -49 -56 -18 -77 25 -17 39 -12 60 25 15 25 15
30 3 43 -8 8 -12 17 -9 21 11 10 0 7 -36 -12z"/>
<path d="M10742 6893 c-6 -11 -6 -27 -1 -41 7 -18 15 -23 35 -20 35 4 53 31
38 56 -16 24 -60 28 -72 5z"/>
<path d="M10833 6810 c-33 -13 -40 -50 -14 -71 29 -23 65 -11 69 23 4 32 -26
59 -55 48z"/>
<path d="M10674 6796 c-3 -8 -4 -25 -2 -38 2 -19 9 -23 37 -23 66 0 68 67 2
73 -21 2 -33 -2 -37 -12z"/>
<path d="M10952 6798 c-27 -27 -6 -68 34 -68 32 0 46 22 34 54 -10 28 -46 36
-68 14z"/>
<path d="M10752 6699 c-19 -7 -23 -15 -20 -41 3 -29 7 -33 34 -36 64 -6 89 64
29 81 -11 3 -30 1 -43 -4z"/>
<path d="M10903 6702 c-24 -4 -40 -40 -29 -67 7 -18 57 -20 74 -3 31 31 1 77
-45 70z"/>
<path d="M11015 6681 c-11 -37 3 -59 35 -57 39 3 46 11 34 44 -12 35 -59 44
-69 13z"/>
<path d="M10985 6603 c-32 -8 -45 -23 -45 -54 0 -56 73 -64 85 -9 5 23 -8 74
-18 69 -1 -1 -11 -4 -22 -6z"/>
<path d="M10677 6593 c-13 -12 -7 -70 7 -83 12 -9 21 -9 43 2 31 15 42 50 23
74 -13 14 -61 19 -73 7z"/>
<path d="M10808 6574 c-25 -54 45 -90 78 -39 16 24 16 27 -1 45 -26 29 -63 26
-77 -6z"/>
<path d="M11103 6589 c-45 -17 -36 -79 11 -79 28 0 46 18 46 45 0 27 -29 44
-57 34z"/>
<path d="M11220 6545 c-16 -19 -5 -35 25 -35 26 0 39 22 22 39 -15 15 -32 14
-47 -4z"/>
<path d="M10740 6475 c-19 -23 -4 -64 27 -71 47 -12 72 22 50 69 -10 21 -60
23 -77 2z"/>
<path d="M10882 6478 c-7 -7 -12 -25 -12 -40 0 -50 81 -51 88 -1 6 40 -48 69
-76 41z"/>
<path d="M11012 6478 c-7 -7 -12 -22 -12 -34 0 -52 76 -61 93 -10 8 24 6 32
-9 43 -22 16 -56 17 -72 1z"/>
<path d="M11433 6475 c-25 -11 -30 -18 -26 -35 8 -29 36 -42 67 -30 30 11 34
40 9 63 -16 13 -22 14 -50 2z"/>
<path d="M11147 6474 c-4 -4 -7 -20 -7 -35 0 -22 6 -30 25 -35 40 -10 57 2 53
38 -3 29 -7 33 -33 36 -17 2 -34 0 -38 -4z"/>
<path d="M11280 6465 c-7 -8 -10 -25 -6 -40 5 -20 13 -25 35 -25 30 0 61 22
61 44 0 34 -66 50 -90 21z"/>
<path d="M10811 6362 c-27 -50 35 -97 70 -53 18 22 16 49 -5 63 -20 14 -55 8
-65 -10z"/>
<path d="M10947 6373 c-4 -3 -7 -21 -7 -39 0 -31 13 -44 46 -44 16 0 54 35 54
49 0 29 -72 56 -93 34z"/>
<path d="M3701 4476 c-19 -23 -9 -66 17 -73 26 -6 42 5 46 33 7 44 -36 72 -63
40z"/>
<path d="M8091 4462 c-12 -22 4 -53 24 -46 20 8 20 64 0 64 -8 0 -19 -8 -24
-18z"/>
<path d="M3742 4353 c5 -26 38 -29 38 -4 0 15 -6 21 -21 21 -14 0 -19 -5 -17
-17z"/>
<path d="M8037 4186 c-29 -27 -35 -54 -15 -74 41 -41 91 32 55 82 -12 16 -14
16 -40 -8z"/>
<path d="M3757 4182 c-23 -25 -21 -49 4 -62 30 -16 69 -4 69 21 0 53 -41 76
-73 41z"/>
<path d="M3812 4081 c-21 -13 -11 -55 15 -59 26 -4 41 31 23 53 -14 17 -20 18
-38 6z"/>
<path d="M8005 4050 c-7 -11 2 -30 14 -30 5 0 11 9 14 20 5 21 -16 29 -28 10z"/>
<path d="M3751 3979 c-13 -22 -14 -58 -2 -77 10 -17 13 -16 51 3 30 16 39 45
21 73 -13 21 -57 21 -70 1z"/>
<path d="M3804 3863 c-28 -46 38 -95 77 -57 16 16 17 23 6 44 -16 32 -67 40
-83 13z"/>
<path d="M7966 3858 c-21 -30 -20 -45 3 -58 36 -19 70 -7 75 26 9 51 -49 74
-78 32z"/>
<path d="M3872 3768 c-23 -23 -7 -67 30 -81 21 -7 38 19 38 56 0 34 -43 50
-68 25z"/>
<path d="M7914 3756 c-31 -44 -4 -88 42 -67 21 9 25 17 22 48 -2 30 -7 37 -26
38 -13 1 -29 -7 -38 -19z"/>
<path d="M3821 3669 c-35 -21 -39 -39 -13 -62 25 -23 34 -21 61 7 15 16 21 31
17 44 -10 29 -29 33 -65 11z"/>
<path d="M7988 3672 c-23 -5 -34 -48 -18 -67 16 -19 54 -19 70 -1 28 34 -6 79
-52 68z"/>
<path d="M7870 3645 c-7 -9 -10 -25 -6 -41 10 -37 50 -30 54 10 5 40 -25 59
-48 31z"/>
<path d="M3879 3582 c-38 -19 -45 -48 -16 -66 39 -25 99 43 64 72 -10 9 -22 7
-48 -6z"/>
<path d="M7934 3555 c-8 -21 7 -49 29 -53 18 -4 60 39 49 50 -4 4 -22 11 -40
14 -25 5 -33 3 -38 -11z"/>
<path d="M7923 3502 c4 -5 -3 -12 -14 -15 -16 -4 -20 -12 -17 -34 3 -31 37
-44 56 -20 14 16 2 69 -17 75 -8 3 -11 0 -8 -6z"/>
<path d="M3786 3484 c-30 -30 -13 -74 29 -74 32 0 48 15 48 45 0 43 -46 61
-77 29z"/>
<path d="M3911 3486 c-16 -20 -10 -56 12 -70 27 -17 52 4 52 45 0 29 -4 34
-26 37 -14 2 -31 -4 -38 -12z"/>
<path d="M3849 3385 c-20 -21 -13 -72 12 -80 40 -13 89 38 66 68 -18 24 -59
31 -78 12z"/>
<path d="M3915 3269 c-21 -40 -11 -69 24 -69 65 0 72 71 9 93 -13 5 -22 -2
-33 -24z"/>
<path d="M3782 3278 c-28 -28 -7 -78 33 -78 44 0 69 59 34 81 -20 12 -53 11
-67 -3z"/>
<path d="M7881 3258 c-12 -31 4 -58 35 -58 29 0 47 35 32 63 -13 25 -57 22
-67 -5z"/>
<path d="M3844 3165 c-15 -23 -15 -27 0 -50 19 -30 46 -32 69 -7 23 25 21 48
-5 66 -31 22 -45 20 -64 -9z"/>
<path d="M7826 3168 c-21 -30 -20 -55 4 -68 24 -13 41 -10 57 10 18 22 16 51
-4 66 -26 19 -40 17 -57 -8z"/>
<path d="M3971 3153 c-11 -24 -10 -29 9 -45 27 -22 55 -10 55 24 1 50 -44 64
-64 21z"/>
<path d="M3775 3060 c-9 -28 3 -58 27 -71 17 -9 25 -7 44 12 39 40 15 78 -48
79 -9 0 -20 -9 -23 -20z"/>
<path d="M3916 3065 c-23 -24 -20 -52 8 -70 41 -27 78 6 74 66 -2 21 -61 24
-82 4z"/>
<path d="M3863 2969 c-29 -11 -40 -59 -17 -76 31 -23 73 -16 84 13 18 46 -19
81 -67 63z"/>
<path d="M3968 2935 c5 -36 26 -55 52 -48 23 6 34 35 25 63 -5 16 -14 20 -44
18 -35 -3 -37 -5 -33 -33z"/>
<path d="M7858 2929 c-34 -19 -16 -79 22 -79 34 0 71 66 46 82 -16 11 -48 9
-68 -3z"/>
<path d="M3910 2839 c-16 -29 1 -66 35 -75 33 -8 56 19 52 61 -2 27 -6 30 -39
33 -29 3 -39 -1 -48 -19z"/>
<path d="M7921 2826 c-28 -30 -23 -71 11 -79 58 -16 98 72 42 93 -32 13 -27
14 -53 -14z"/>
<path d="M7784 2815 c-20 -31 -10 -63 23 -71 44 -11 82 53 51 84 -20 20 -56
14 -74 -13z"/>
<path d="M4040 2816 c0 -8 5 -18 10 -21 6 -3 10 3 10 14 0 12 -4 21 -10 21 -5
0 -10 -6 -10 -14z"/>
<path d="M3855 2743 c-18 -17 -20 -54 -3 -71 7 -7 25 -12 40 -12 22 0 31 6 39
28 13 33 2 53 -34 63 -19 5 -32 3 -42 -8z"/>
<path d="M3991 2746 c-7 -8 -11 -31 -10 -53 2 -35 5 -38 33 -37 66 2 81 104
16 104 -15 0 -33 -6 -39 -14z"/>
<path d="M7862 2718 c-16 -16 -15 -39 3 -65 19 -27 41 -21 61 19 12 23 13 33
3 44 -14 17 -51 18 -67 2z"/>
<path d="M7767 2703 c-14 -13 -6 -33 13 -33 13 0 20 7 20 20 0 19 -20 27 -33
13z"/>
<path d="M3939 2636 c-31 -15 -36 -56 -10 -80 16 -15 23 -16 43 -5 50 26 55
56 14 83 -18 12 -28 12 -47 2z"/>
<path d="M7806 2599 c-10 -15 -12 -27 -6 -39 11 -21 4 -30 -26 -30 -42 0 -60
-70 -23 -90 41 -23 88 40 57 77 -8 9 -5 14 8 19 51 16 65 28 62 53 -4 36 -49
42 -72 10z"/>
<path d="M3997 2522 c-47 -52 21 -109 71 -59 12 13 12 19 0 43 -16 35 -48 42
-71 16z"/>
<path d="M7902 2533 c-29 -6 -53 -42 -46 -70 13 -49 84 -35 84 17 0 16 -5 32
-10 35 -6 4 -8 11 -5 16 4 5 5 8 3 8 -2 -1 -13 -4 -26 -6z"/>
<path d="M4066 2411 c-14 -16 -16 -26 -9 -48 5 -15 13 -27 16 -25 4 1 16 2 27
2 28 0 43 33 28 64 -13 31 -38 33 -62 7z"/>
<path d="M7806 2411 c-31 -34 -16 -81 25 -81 35 0 69 43 53 68 -17 26 -60 33
-78 13z"/>
<path d="M7694 2406 c-3 -8 -4 -23 -2 -33 4 -21 35 -19 57 2 12 12 12 17 1 29
-16 20 -49 21 -56 2z"/>
<path d="M3993 2312 c-9 -9 -12 -23 -8 -36 4 -12 7 -26 7 -32 2 -19 63 -16 82
4 13 15 14 25 7 46 -6 14 -14 26 -18 27 -5 0 -19 2 -31 3 -13 2 -30 -4 -39
-12z"/>
<path d="M7762 2318 c-7 -7 -12 -8 -12 -3 0 16 -29 -30 -30 -47 0 -9 10 -24
21 -32 37 -26 79 4 79 58 0 16 -3 26 -6 23 -4 -3 -14 -2 -24 3 -11 6 -21 5
-28 -2z"/>
<path d="M4134 2296 c-3 -9 -3 -27 0 -41 5 -19 12 -24 28 -21 30 4 46 31 32
54 -15 23 -52 28 -60 8z"/>
<path d="M7660 2265 c0 -9 5 -15 11 -13 6 2 11 8 11 13 0 5 -5 11 -11 13 -6 2
-11 -4 -11 -13z"/>
<path d="M4078 2209 c-23 -13 -25 -74 -2 -83 28 -11 57 -6 70 12 38 50 -13
104 -68 71z"/>
<path d="M7674 2210 c-30 -12 -37 -47 -13 -71 24 -24 51 -24 72 -1 41 45 0 96
-59 72z"/>
<path d="M4205 2161 c-3 -5 -1 -12 5 -16 12 -7 30 2 30 16 0 12 -27 12 -35 0z"/>
<path d="M4150 2100 c-21 -21 -24 -37 -14 -64 9 -23 60 -20 84 4 17 17 19 24
9 43 -22 42 -48 48 -79 17z"/>
<path d="M7650 2113 c-14 -3 -35 -14 -47 -25 -18 -17 -20 -24 -11 -42 12 -23
27 -36 44 -36 16 0 55 40 49 51 -4 5 -1 9 5 9 7 0 5 7 -4 16 -9 8 -14 20 -11
25 4 5 5 8 3 8 -2 -1 -14 -4 -28 -6z"/>
<path d="M4226 1987 c-41 -41 -29 -77 25 -77 47 0 60 46 23 81 l-23 21 -25
-25z"/>
<path d="M7557 1983 c-25 -25 11 -93 49 -93 46 0 53 77 8 94 -21 8 -49 8 -57
-1z"/>
<path d="M4278 1869 c-23 -13 -24 -65 -2 -73 8 -3 26 -3 40 0 31 8 34 58 5 74
-23 12 -22 12 -43 -1z"/>
<path d="M7531 1869 c-22 -9 -31 -33 -26 -72 2 -15 0 -25 -3 -23 -4 2 -17 0
-30 -5 -19 -7 -23 -15 -20 -41 2 -27 8 -34 30 -36 21 -3 30 3 42 27 10 18 12
32 6 36 -16 10 1 35 25 35 18 0 25 7 28 28 11 57 -1 69 -52 51z"/>
<path d="M4330 1760 c-17 -17 -18 -24 -10 -41 7 -13 19 -19 33 -17 18 2 22 10
22 37 0 42 -17 49 -45 21z"/>
<path d="M4192 1757 c-6 -7 -9 -22 -7 -32 2 -11 4 -23 4 -26 1 -3 12 -11 25
-17 20 -9 27 -7 45 12 25 26 27 61 5 70 -26 10 -61 7 -72 -7z"/>
<path d="M4250 1641 c-14 -27 -13 -37 6 -55 34 -35 84 -10 84 42 0 35 -72 45
-90 13z"/>
<path d="M7512 1648 c-17 -17 -15 -42 6 -61 26 -23 58 -21 76 5 15 20 14 24
-6 45 -23 25 -57 30 -76 11z"/>
<path d="M7427 1643 c-15 -14 -7 -43 12 -43 20 0 35 25 25 41 -6 11 -28 12
-37 2z"/>
<path d="M4216 1549 c-37 -10 -46 -24 -37 -57 5 -19 16 -28 39 -33 37 -7 55 8
55 47 0 37 -22 53 -57 43z"/>
<path d="M4327 1542 c-23 -25 -22 -72 1 -73 9 -1 21 0 27 1 5 1 17 2 27 3 9 1
15 4 12 8 -2 4 0 10 5 13 11 7 2 48 -13 58 -19 13 -42 9 -59 -10z"/>
<path d="M7447 1544 c-9 -9 -9 -47 -1 -68 7 -19 43 -21 67 -3 10 6 19 26 20
42 2 28 0 30 -38 33 -23 2 -44 0 -48 -4z"/>
<path d="M4390 1440 c-24 -24 -24 -29 -2 -58 13 -16 26 -23 43 -20 20 2 25 10
27 39 3 30 -1 37 -23 47 -21 10 -28 9 -45 -8z"/>
<path d="M4253 1443 c-7 -2 -13 -20 -13 -39 0 -27 5 -35 24 -40 39 -9 60 -1
70 29 8 22 6 30 -10 42 -19 14 -48 18 -71 8z"/>
<path d="M7400 1429 c-16 -28 -4 -69 19 -69 21 0 51 30 51 51 0 39 -52 52 -70
18z"/>
<path d="M7521 1436 c-7 -8 -11 -27 -9 -43 3 -24 8 -28 38 -31 23 -3 38 2 46
13 32 43 -42 101 -75 61z"/>
<path d="M4183 1323 c-17 -14 -19 -21 -11 -45 6 -15 16 -29 24 -29 8 -1 20 -2
27 -3 17 -2 46 44 39 63 -12 34 -46 40 -79 14z"/>
<path d="M4322 1328 c-28 -28 -7 -78 33 -78 23 0 55 28 55 48 0 33 -63 55 -88
30z"/>
<path d="M7456 1324 c-38 -37 7 -95 54 -71 19 10 25 20 25 47 0 32 -3 35 -31
38 -20 2 -38 -3 -48 -14z"/>
<path d="M7355 1304 c-19 -19 -20 -44 -1 -44 27 0 46 12 46 30 0 24 -26 33
-45 14z"/>
<path d="M4453 1295 c-7 -19 13 -36 37 -32 8 1 15 11 15 22 0 26 -42 34 -52
10z"/>
<path d="M7551 1230 c-32 -7 -45 -31 -37 -63 7 -29 40 -36 77 -17 42 23 8 92
-40 80z"/>
<path d="M4242 1215 c-35 -25 -4 -75 45 -75 31 0 61 60 37 73 -28 16 -60 17
-82 2z"/>
<path d="M4375 1220 c-12 -19 6 -69 26 -75 45 -15 75 18 58 63 -6 17 -16 22
-43 22 -19 0 -38 -5 -41 -10z"/>
<path d="M7384 1218 c-11 -17 -6 -57 9 -73 13 -14 52 -8 67 11 6 7 10 25 8 41
-3 24 -8 28 -40 31 -22 2 -39 -2 -44 -10z"/>
<path d="M4504 1207 c-3 -9 -4 -26 -2 -39 5 -34 53 -33 53 1 0 13 -10 30 -22
38 -20 14 -23 14 -29 0z"/>
<path d="M7292 1198 c-17 -17 -15 -47 3 -54 21 -9 47 15 43 40 -4 24 -28 32
-46 14z"/>
<path d="M7227 1103 c-4 -3 -7 -15 -7 -25 0 -20 44 -26 55 -8 14 22 -30 52
-48 33z"/>
</g>
</svg>
