<?xml version="1.0" standalone="no"?>
<!DOCTYPE svg PUBLIC "-//W3C//DTD SVG 20010904//EN"
 "http://www.w3.org/TR/2001/REC-SVG-20010904/DTD/svg10.dtd">
<svg version="1.0" xmlns="http://www.w3.org/2000/svg"
 width="1589.000000pt" height="1863.000000pt" viewBox="0 0 1589.000000 1863.000000"
 preserveAspectRatio="xMidYMid meet">
<metadata>
Created by potrace 1.16, written by Peter Selinger 2001-2019
</metadata>
<g transform="translate(0.000000,1863.000000) scale(0.100000,-0.100000)"
fill="#a7262a" stroke="none">
<path d="M7035 18223 c-220 -49 -312 -101 -442 -252 -94 -111 -173 -238 -275
-445 l-20 -38 -28 27 c-16 16 -26 33 -23 39 3 6 3 8 -2 4 -4 -4 -22 5 -40 20
-169 143 -210 176 -266 212 -35 22 -66 44 -69 48 -3 4 -24 16 -47 26 -23 10
-40 23 -36 29 3 6 1 7 -5 3 -13 -8 -83 24 -76 35 2 4 -4 8 -13 8 -10 0 -52 11
-93 26 -162 56 -279 56 -396 0 -102 -50 -204 -192 -247 -345 -21 -73 -73 -331
-92 -450 -30 -195 -85 -664 -110 -935 -13 -154 -27 -309 -31 -343 -5 -60 -8
-65 -42 -85 -21 -12 -59 -36 -85 -54 -27 -18 -54 -30 -60 -26 -7 3 -9 3 -5 -2
6 -7 -86 -83 -169 -140 -8 -5 -31 -26 -52 -45 -20 -19 -69 -64 -107 -100 -116
-107 -271 -290 -357 -420 -30 -47 -63 -93 -71 -102 -9 -10 -14 -18 -11 -18 3
0 -6 -17 -19 -38 -41 -65 -134 -256 -176 -362 -107 -268 -190 -622 -220 -940
-23 -245 -41 -350 -62 -350 -4 0 -8 -5 -8 -11 0 -19 -85 -109 -98 -104 -7 3
-11 1 -8 -4 7 -12 -39 -53 -49 -44 -4 5 -5 3 -1 -4 4 -7 -21 -30 -66 -60 -40
-26 -78 -53 -84 -58 -6 -6 -39 -28 -74 -50 -103 -65 -136 -102 -144 -160 -4
-28 -2 -81 5 -120 6 -38 12 -79 13 -90 0 -11 4 -22 7 -25 3 -3 16 -36 29 -75
12 -38 29 -83 37 -99 8 -16 17 -52 19 -80 12 -131 26 -217 49 -291 14 -44 25
-86 25 -92 0 -9 -18 -13 -55 -13 -209 0 -675 -123 -926 -245 -121 -59 -297
-169 -383 -242 -21 -18 -44 -30 -50 -26 -6 3 -8 3 -4 -1 3 -4 -30 -40 -75 -79
-45 -39 -102 -94 -127 -121 -25 -28 -57 -63 -72 -79 -16 -16 -28 -32 -28 -37
0 -5 -10 -16 -22 -24 -12 -9 -19 -16 -14 -16 4 0 -5 -17 -21 -37 -66 -87 -113
-171 -183 -332 -37 -85 -52 -108 -79 -123 -18 -10 -38 -15 -44 -12 -7 4 -9 4
-5 -1 4 -4 -14 -21 -40 -38 -40 -25 -177 -156 -172 -165 0 -1 -15 -28 -34 -60
-74 -122 -106 -238 -116 -422 -6 -109 -12 -149 -34 -207 -119 -323 -28 -738
231 -1061 24 -30 43 -60 43 -67 0 -8 5 -17 12 -21 7 -5 9 -2 4 7 -4 8 0 5 8
-6 34 -42 155 -162 199 -198 26 -21 53 -44 60 -51 21 -22 216 -165 312 -231
49 -33 123 -94 164 -135 94 -93 298 -282 317 -293 8 -5 11 -14 8 -20 -4 -7 -4
-9 1 -5 9 9 81 -52 77 -65 -1 -5 2 -6 8 -2 6 3 43 -20 83 -52 39 -32 113 -87
162 -123 50 -35 96 -70 103 -77 7 -7 17 -13 22 -13 5 0 15 -6 22 -13 7 -7 42
-31 78 -52 36 -22 81 -52 101 -67 20 -15 40 -28 43 -28 3 0 58 -29 122 -65 64
-36 120 -65 124 -65 4 0 13 -7 20 -15 6 -8 15 -14 18 -13 12 2 127 -54 134
-65 4 -6 10 -9 13 -5 4 3 32 -5 63 -19 79 -35 141 -62 147 -63 2 -1 57 -19
122 -41 120 -41 311 -92 393 -104 55 -9 92 -27 117 -57 10 -13 70 -68 134
-123 166 -142 191 -163 220 -183 74 -49 107 -72 141 -99 l37 -30 -41 -36 c-22
-20 -46 -34 -52 -30 -6 3 -8 3 -4 -2 6 -7 -43 -72 -106 -140 -10 -11 -44 -58
-75 -105 -206 -304 -307 -597 -352 -1017 -14 -138 -2 -400 26 -569 70 -409
189 -756 395 -1143 56 -106 70 -143 53 -139 -5 0 -15 -1 -23 -4 -8 -3 -51 -13
-95 -23 -182 -39 -374 -118 -502 -207 -24 -16 -43 -27 -43 -24 0 3 -17 -10
-37 -29 -20 -19 -42 -31 -47 -28 -6 4 -8 2 -3 -2 4 -5 -28 -45 -71 -89 -225
-232 -345 -552 -312 -831 21 -175 61 -277 145 -369 20 -22 34 -45 31 -53 -3
-7 -1 -13 4 -13 6 0 10 -9 10 -20 0 -16 7 -20 38 -20 70 0 111 -24 62 -37 -35
-9 -37 -64 -1 -82 26 -14 58 5 66 39 8 38 25 35 45 -8 19 -40 41 -47 79 -28
26 14 33 14 65 1 19 -8 50 -15 68 -16 18 0 42 -4 53 -9 19 -8 19 -9 -2 -9 -31
-1 -60 -46 -43 -66 30 -36 104 -3 79 36 -17 27 -10 35 26 31 34 -4 35 -5 29
-38 -5 -30 -3 -35 21 -44 30 -11 64 1 66 25 1 8 2 21 3 28 0 6 12 12 26 12 19
0 25 -5 25 -25 0 -16 9 -29 24 -37 32 -16 59 -1 63 34 4 34 41 40 46 8 6 -32
22 -45 54 -45 19 0 31 6 34 18 17 56 40 65 55 23 8 -22 22 -36 46 -46 29 -12
34 -19 33 -42 -5 -65 -4 -66 43 -59 33 5 47 3 57 -8 10 -13 8 -17 -15 -26 -22
-8 -26 -15 -23 -42 3 -29 6 -33 33 -33 25 0 32 5 40 33 10 35 24 37 40 5 23
-45 36 -53 75 -47 40 6 110 -11 110 -27 0 -5 -4 -9 -10 -9 -14 0 -13 -43 2
-58 21 -21 56 -14 75 16 9 15 18 29 20 31 6 9 33 -23 33 -40 0 -15 7 -19 38
-19 21 0 43 5 50 12 9 9 21 9 50 0 22 -7 56 -12 77 -12 21 0 68 -5 103 -11 56
-10 63 -14 49 -24 -20 -14 -22 -50 -5 -61 38 -23 83 -1 83 40 0 14 7 22 23 24
18 3 22 -1 22 -26 0 -16 7 -35 15 -42 21 -18 64 -4 75 24 11 30 41 25 55 -7
14 -32 49 -33 73 -3 25 33 47 33 68 1 21 -32 49 -32 78 0 28 30 42 31 56 6 16
-30 45 -34 86 -12 38 20 38 21 56 1 24 -25 39 -25 72 1 24 19 29 20 44 7 30
-26 49 -27 87 -7 l37 20 23 -21 c23 -21 45 -20 75 6 18 15 45 13 62 -4 15 -15
51 -15 66 0 7 7 12 8 12 3 0 -6 4 -4 9 3 7 12 14 11 39 -2 39 -20 66 -20 82
-1 7 8 20 15 30 15 10 0 23 -7 30 -15 18 -21 60 -19 85 5 l22 20 25 -20 c29
-22 68 -26 86 -8 18 18 48 19 62 3 16 -19 50 -19 76 -1 23 16 38 16 71 -2 29
-16 58 -15 73 3 13 16 34 15 67 -3 30 -17 46 -15 76 8 16 13 28 16 32 10 4 -6
10 -8 15 -5 4 3 13 -2 20 -10 17 -20 67 -19 78 1 6 11 11 13 16 5 4 -6 13 -11
19 -11 7 0 6 4 -3 10 -27 17 9 12 40 -6 28 -17 32 -16 79 11 21 12 26 11 44
-6 26 -23 56 -24 72 -2 17 23 41 24 61 2 17 -19 64 -27 64 -11 0 5 11 15 25
22 23 12 27 12 41 -8 20 -30 60 -28 87 3 l22 25 29 -25 c33 -28 64 -32 72 -10
4 9 15 20 26 26 16 9 25 6 47 -15 33 -32 45 -32 73 -4 31 31 53 32 72 3 22
-33 51 -31 78 5 21 29 48 40 48 20 0 -13 37 -50 50 -50 6 0 24 13 41 29 34 33
49 32 64 -2 6 -13 21 -23 36 -25 22 -3 29 3 40 27 8 17 17 32 21 32 25 5 33 1
38 -20 12 -53 68 -53 80 0 4 15 14 25 27 27 17 3 22 -3 25 -25 3 -28 3 -28 77
-28 60 0 78 4 92 18 16 18 17 18 32 -3 28 -40 99 -25 96 20 -3 35 2 40 40 40
22 0 42 -4 46 -9 7 -12 -29 -33 -39 -24 -4 4 -3 -4 2 -17 11 -29 63 -44 89
-25 16 12 27 68 11 59 -4 -3 -8 -1 -8 4 0 5 10 12 23 16 35 9 87 7 87 -4 0 -5
-7 -10 -15 -10 -9 0 -21 -11 -27 -25 -15 -34 8 -61 46 -51 39 10 51 41 25 67
-11 11 -18 24 -14 27 4 4 80 7 171 8 138 0 167 3 182 17 24 22 30 21 51 -5 23
-27 63 -19 79 17 15 32 40 32 52 0 9 -25 50 -42 69 -30 6 3 11 15 11 25 0 35
12 50 40 50 28 0 28 -1 15 -27 -17 -33 -7 -49 36 -55 34 -5 48 7 53 50 2 24 0
29 -13 25 -15 -5 -15 -4 0 11 12 13 40 19 110 23 80 5 98 10 124 31 l29 24 23
-26 c35 -42 83 -29 83 21 0 27 19 36 120 59 36 9 75 22 87 30 24 15 48 10 57
-12 7 -18 45 -18 69 0 9 7 16 24 15 36 -3 19 7 27 67 51 62 25 73 27 103 17
33 -12 66 -3 67 18 2 31 21 52 69 78 45 24 57 27 70 17 8 -7 27 -11 43 -9 24
3 29 9 34 41 3 20 8 38 10 40 75 52 119 69 119 47 0 -5 10 -15 22 -21 18 -10
24 -8 40 11 11 13 16 29 13 37 -3 7 -8 19 -11 27 -3 9 8 19 34 29 25 10 48 29
62 51 12 20 25 36 29 36 4 0 27 18 51 39 25 22 48 37 52 35 5 -3 7 -2 6 3 -2
5 13 23 32 39 26 23 59 37 130 54 52 12 160 44 239 71 80 26 149 45 154 42 6
-3 7 -1 3 5 -4 7 -2 12 5 12 51 0 416 188 599 309 63 42 121 75 128 74 7 0 11
1 8 4 -2 3 48 46 112 96 138 107 232 188 363 314 53 51 99 90 104 85 5 -4 5
-2 2 4 -3 6 24 43 61 82 37 40 78 86 92 104 14 17 37 44 53 59 15 15 27 32 27
37 0 15 36 43 45 35 4 -5 5 -3 2 3 -4 6 22 49 56 95 132 175 311 453 421 651
21 37 42 70 47 74 5 3 7 10 4 15 -4 5 -1 9 5 9 6 0 8 5 5 10 -3 6 -1 10 4 10
6 0 10 3 9 8 -1 4 21 54 49 112 28 58 67 143 88 190 20 47 48 110 62 140 58
129 190 494 243 670 16 52 40 133 54 180 54 181 153 600 182 765 127 731 167
1379 129 2080 -16 296 -29 474 -45 635 -10 100 -19 203 -40 440 -5 58 -17 184
-26 280 -25 251 -25 760 0 925 41 281 98 468 237 782 133 300 181 438 221 628
50 244 28 562 -52 753 -16 36 -26 71 -23 76 3 5 1 6 -5 2 -7 -4 -12 -1 -12 7
0 8 -19 43 -42 78 -22 35 -41 69 -41 76 0 7 -4 10 -9 7 -4 -3 -8 -1 -8 5 0 5
-27 41 -60 79 -33 38 -56 72 -52 76 4 4 3 6 -3 4 -5 -1 -44 25 -85 59 -98 80
-136 105 -239 159 -47 24 -92 49 -98 54 -7 6 -15 10 -18 9 -3 0 -40 11 -83 24
-42 14 -99 30 -127 36 -27 7 -61 14 -75 18 -14 3 -95 8 -180 10 -133 4 -170 2
-258 -17 -225 -47 -378 -128 -575 -302 -78 -70 -219 -258 -276 -370 -8 -15
-19 -25 -24 -21 -6 3 -7 1 -3 -5 4 -6 -11 -46 -33 -89 -93 -185 -188 -484
-230 -718 -58 -326 -66 -415 -65 -750 1 -368 6 -432 98 -1225 23 -201 29 -262
56 -558 17 -182 14 -642 -5 -827 -26 -256 -68 -490 -123 -685 -6 -19 -18 -62
-27 -95 -18 -66 -22 -74 -29 -54 -10 31 -68 225 -71 234 -1 6 -6 19 -10 30 -5
11 -38 99 -75 195 -98 254 -331 769 -371 816 -5 6 -6 14 -2 17 3 4 2 7 -4 7
-5 0 -20 21 -33 48 -13 26 -33 63 -45 82 -12 19 -33 55 -47 80 -49 87 -66 116
-143 240 -90 144 -258 398 -322 485 -166 226 -302 404 -368 481 -33 38 -82 97
-110 129 -101 119 -373 415 -417 454 -15 13 -15 18 -4 30 20 24 74 167 91 242
34 152 29 326 -16 484 -35 123 -125 291 -198 368 -65 69 -172 157 -192 157 -5
0 -27 9 -49 20 l-38 20 13 57 c31 136 64 315 75 413 6 58 15 138 21 178 12 94
12 489 0 584 -5 40 -15 116 -21 168 -20 165 -37 257 -76 415 -66 261 -132 448
-251 704 -23 51 -40 98 -36 104 3 5 2 7 -3 4 -5 -3 -28 29 -49 71 -41 77 -207
334 -264 407 -17 22 -34 45 -38 50 -89 117 -387 422 -478 490 -57 42 -71 57
-77 85 -15 62 -108 335 -127 370 -5 9 -30 70 -56 135 -26 66 -58 141 -71 167
-13 26 -24 56 -24 67 0 11 -4 21 -9 23 -5 2 -36 60 -70 129 -51 106 -132 255
-239 442 -12 21 -22 45 -22 54 0 9 -3 14 -6 10 -3 -3 -35 38 -72 91 -91 135
-224 312 -292 391 -118 135 -374 381 -397 381 -5 0 -26 15 -46 34 -20 18 -37
32 -37 29 0 -2 -26 14 -59 36 -62 43 -177 99 -252 124 -101 34 -278 55 -344
40z m239 -163 c260 -68 571 -309 847 -655 119 -149 167 -217 263 -371 27 -44
56 -90 66 -104 28 -41 51 -90 43 -90 -5 0 0 -5 10 -11 9 -5 17 -16 17 -24 0
-7 4 -15 8 -17 12 -4 112 -195 112 -212 0 -8 3 -16 8 -18 7 -3 25 -38 85 -168
65 -141 97 -211 97 -216 0 -3 9 -24 19 -47 38 -83 71 -171 71 -187 0 -9 4 -20
9 -25 19 -21 157 -457 222 -705 18 -68 41 -132 51 -142 23 -23 52 -23 73 -1
20 19 16 93 -11 212 -8 36 -17 76 -19 89 -10 41 24 24 93 -45 144 -145 275
-297 265 -307 -3 -3 -2 -6 3 -6 23 0 179 -235 167 -253 -3 -5 -1 -7 5 -4 6 4
24 -15 41 -43 17 -27 27 -50 23 -50 -4 0 -2 -4 3 -8 11 -8 22 -26 72 -119 18
-35 30 -63 27 -63 -3 0 3 -12 14 -27 11 -16 32 -57 47 -93 15 -36 36 -85 47
-109 27 -61 86 -223 105 -291 73 -264 109 -440 134 -660 18 -159 21 -222 16
-455 -5 -281 -17 -396 -63 -630 -45 -228 -84 -353 -106 -339 -6 4 -8 3 -5 -3
13 -21 -342 -341 -364 -327 -7 4 -9 3 -6 -3 9 -15 -228 -192 -395 -297 -35
-22 -92 -58 -128 -81 -140 -90 -223 -138 -236 -138 -8 0 -12 -3 -9 -5 7 -7
-137 -92 -146 -86 -4 2 -9 0 -11 -5 -7 -19 -418 -230 -631 -324 -232 -103
-333 -145 -467 -197 -74 -28 -151 -59 -170 -67 -45 -20 -390 -141 -455 -160
-27 -7 -70 -20 -95 -27 -106 -31 -421 -115 -490 -131 -219 -49 -443 -91 -570
-105 -41 -5 -136 -16 -210 -24 -74 -9 -195 -16 -267 -16 -132 0 -133 0 -130
23 2 18 -2 21 -23 19 -14 -2 -49 -18 -79 -35 -29 -18 -58 -31 -63 -29 -5 1 -7
-1 -4 -6 12 -19 -222 -141 -245 -127 -5 4 -17 21 -25 38 -9 18 -31 55 -49 82
-17 28 -33 53 -34 57 -1 4 -31 35 -67 69 -38 37 -63 68 -59 76 2 8 0 11 -5 8
-17 -11 -11 7 14 39 12 17 33 53 45 81 12 27 25 52 29 55 8 5 42 140 62 238 5
29 10 124 10 210 -1 299 -69 586 -210 872 -58 119 -68 137 -102 175 -16 16
-28 34 -28 38 0 10 -10 20 -75 73 -88 72 -132 87 -172 59 -33 -23 -17 -57 50
-106 32 -23 55 -45 50 -49 -16 -14 -96 -41 -177 -59 -153 -36 -365 -36 -541
-1 -27 6 -67 13 -87 16 -21 4 -36 10 -33 14 3 4 -6 8 -19 8 -20 0 -98 24 -161
51 -82 35 -205 97 -205 104 0 4 -4 6 -8 3 -15 -9 -51 24 -71 62 -25 51 -51
159 -51 216 0 43 4 52 44 91 25 23 54 61 65 84 25 48 55 80 139 143 94 73 123
147 85 225 -19 40 -50 61 -143 99 -36 15 -75 31 -87 37 l-22 10 27 21 c15 11
36 28 46 38 10 10 24 14 30 11 6 -3 8 -3 4 2 -8 8 1 18 52 56 53 40 87 76 130
141 55 83 75 158 90 347 15 175 77 551 96 582 2 4 6 23 10 44 8 54 100 331
139 420 53 121 106 225 115 225 6 0 9 4 6 8 -5 9 89 164 96 157 2 -3 5 1 5 8
0 27 134 205 238 317 23 25 58 62 78 84 22 24 40 35 48 31 7 -5 10 -4 6 2 -6
10 58 78 76 81 5 0 17 12 28 27 12 14 25 23 30 20 5 -4 9 -1 9 5 0 6 5 8 12 4
7 -4 8 -3 4 4 -6 10 88 88 96 81 2 -2 16 8 31 21 16 14 46 34 67 46 22 12 38
23 35 26 -2 2 12 13 33 23 20 11 74 41 119 68 47 28 87 46 94 41 8 -4 9 -3 5
4 -5 8 0 12 13 12 10 0 21 4 23 9 5 12 199 103 303 141 50 18 104 38 120 45
43 18 128 45 193 62 32 7 73 18 92 24 19 5 49 11 65 14 17 3 44 9 62 14 17 5
34 6 38 3 3 -4 10 0 14 7 5 7 20 14 34 14 14 1 23 5 20 10 -2 4 0 7 6 7 21 0
52 72 95 220 58 201 100 327 198 590 112 302 239 590 260 590 5 0 7 4 4 8 -7
12 79 153 89 145 4 -5 5 -3 1 4 -9 16 23 65 37 56 6 -3 7 -1 3 6 -9 14 44 82
132 169 135 134 324 182 516 132z m-1770 -216 c89 -23 205 -80 336 -166 125
-82 161 -111 290 -235 55 -53 86 -91 88 -106 2 -24 -90 -271 -110 -294 -6 -7
-8 -13 -5 -13 4 0 -5 -28 -17 -63 -32 -83 -166 -488 -166 -499 0 -5 -7 -25
-16 -46 -9 -20 -18 -48 -20 -62 -1 -14 -8 -42 -15 -62 -13 -41 -27 -49 -134
-73 -38 -9 -87 -20 -109 -26 -21 -6 -42 -7 -46 -2 -5 4 -13 60 -19 123 -18
189 -40 333 -87 560 -73 360 -126 528 -194 618 -40 53 -74 73 -137 80 -52 6
-52 7 9 125 31 60 51 84 87 109 74 50 155 60 265 32z m8956 -4938 c117 -25
340 -115 340 -137 0 -5 5 -7 10 -4 6 3 10 1 10 -4 0 -6 3 -10 8 -9 9 3 121
-58 147 -80 20 -17 44 -44 135 -151 60 -70 121 -171 153 -251 14 -36 35 -86
46 -111 28 -63 54 -282 46 -384 -20 -243 -78 -463 -183 -688 -21 -45 -65 -145
-96 -222 -32 -77 -61 -147 -66 -155 -18 -35 -80 -252 -99 -344 -84 -403 -87
-733 -15 -1486 48 -503 57 -620 84 -1100 19 -348 10 -799 -25 -1245 -25 -309
-130 -938 -200 -1193 -9 -32 -18 -68 -21 -82 -34 -175 -281 -912 -321 -961 -7
-8 -13 -23 -13 -32 0 -20 -21 -67 -29 -67 -4 0 -7 -8 -8 -17 -4 -50 -270 -584
-355 -711 -15 -24 -28 -45 -28 -47 0 -9 -99 -161 -118 -182 -11 -12 -17 -24
-14 -27 3 -3 0 -6 -6 -6 -6 0 -13 -8 -16 -18 -4 -10 -14 -27 -24 -38 -10 -10
-29 -36 -43 -56 -14 -21 -29 -35 -34 -30 -5 4 -5 2 -2 -4 6 -10 -31 -70 -51
-83 -5 -3 -14 -16 -21 -29 -7 -12 -16 -20 -22 -17 -5 4 -8 1 -7 -7 2 -7 -4
-12 -12 -10 -8 2 -12 0 -8 -4 10 -9 -19 -48 -115 -158 -127 -145 -152 -168
-182 -160 -34 8 -67 -22 -52 -48 11 -16 7 -20 -164 -184 -21 -20 -28 -22 -32
-10 -3 8 -15 20 -26 26 -17 8 -24 7 -41 -10 -19 -19 -19 -23 -6 -48 13 -26 13
-29 -7 -43 -22 -14 -28 -16 -58 -18 -9 0 -24 -16 -33 -35 -9 -19 -32 -48 -52
-66 l-36 -31 -23 21 c-35 33 -60 23 -60 -23 0 -23 -5 -37 -12 -37 -7 0 -32
-18 -55 -41 -42 -40 -42 -40 -50 -17 -12 31 -35 47 -58 41 -24 -6 -27 -54 -5
-76 13 -13 11 -16 -15 -27 -16 -6 -36 -20 -46 -31 -20 -22 -49 -26 -41 -5 9
22 -18 38 -55 34 -32 -3 -33 -4 -32 -46 1 -38 -2 -43 -25 -49 -14 -3 -40 -18
-58 -31 -37 -30 -67 -38 -59 -16 9 24 -12 54 -39 54 -28 0 -39 -28 -31 -73 2
-14 2 -26 -2 -25 -9 3 -81 -32 -87 -42 -5 -9 -85 28 -85 39 0 10 22 31 33 31
4 0 6 -4 3 -8 -10 -16 53 -6 73 12 20 18 20 21 5 37 -9 10 -13 23 -8 30 4 8 3
10 -4 5 -7 -4 -12 -2 -12 5 0 7 12 10 33 6 17 -2 40 0 50 5 19 10 23 43 6 53
-6 4 -8 13 -5 21 3 9 0 11 -11 7 -11 -4 -14 -3 -9 6 5 8 19 10 37 6 18 -4 36
-2 44 5 17 14 20 66 5 75 -20 12 -9 23 31 29 l41 7 -4 41 c-3 36 0 44 21 54
32 16 44 40 37 69 -5 18 1 28 24 45 20 15 30 30 30 48 0 31 9 46 30 50 31 7
42 26 36 60 -5 31 -2 35 30 48 33 14 35 17 32 57 -3 39 -1 42 23 45 32 4 54
44 39 72 -16 29 -12 42 10 35 45 -14 72 32 40 70 -17 20 -24 55 -11 55 6 0 13
-5 16 -10 9 -14 48 -13 63 2 22 22 13 48 -20 63 -18 8 -26 14 -18 15 10 0 11
3 3 11 -9 9 -7 21 6 48 10 20 27 62 37 94 13 42 26 63 45 74 26 16 29 30 17
83 -2 8 2 15 7 15 28 3 55 18 60 35 6 19 -17 65 -27 55 -6 -6 -2 38 7 80 17
80 36 128 60 147 24 19 26 25 20 69 -7 46 -6 49 17 50 12 1 26 1 29 1 19 -3
14 40 -7 63 -29 32 -23 61 9 41 12 -7 28 -12 35 -11 6 2 16 3 21 4 14 2 23 38
16 61 -4 14 -15 20 -35 20 -35 0 -43 20 -30 74 5 24 20 48 40 65 29 24 31 28
19 54 -7 15 -15 27 -19 27 -4 0 -7 6 -7 13 0 10 12 13 42 9 39 -3 43 -1 54 27
7 16 10 35 6 40 -8 14 -51 14 -76 1 -17 -10 -18 -9 -7 17 6 16 14 51 17 78 5
46 8 50 31 49 17 -1 26 5 27 15 1 9 3 23 5 30 2 8 -10 21 -25 29 -27 13 -27
16 -22 70 4 38 12 63 26 79 15 15 19 27 14 40 -5 10 -9 30 -10 45 -1 24 2 27
22 22 30 -8 53 11 48 38 -5 26 -24 40 -47 34 -15 -3 -18 3 -18 42 0 66 9 90
34 98 26 8 36 22 36 52 0 18 -6 22 -30 22 -30 0 -30 0 -30 58 0 51 3 60 30 84
17 14 30 31 30 36 0 6 -14 20 -30 32 -26 18 -30 28 -30 66 0 27 5 44 12 44 6
0 8 3 5 7 -4 4 4 19 19 34 l25 26 -25 21 c-24 18 -26 27 -26 91 0 69 1 71 25
71 14 0 28 7 31 15 7 17 -13 46 -30 44 -26 -3 -34 2 -29 21 3 11 11 20 18 20
19 0 36 25 29 43 -3 9 -15 17 -27 19 -20 3 -22 9 -22 83 0 58 3 79 12 78 7 -2
17 6 23 17 11 21 7 25 -35 32 -32 5 -47 110 -23 163 10 22 9 31 -7 57 -26 44
-30 100 -10 137 18 36 13 67 -14 76 -26 8 -38 110 -16 135 22 25 18 49 -10 62
-30 14 -40 44 -26 81 8 20 7 30 -3 40 -8 7 -39 115 -70 239 l-55 226 36 98
c19 55 39 113 43 129 5 17 20 68 34 115 15 47 28 94 31 105 2 11 19 97 38 190
64 313 83 499 86 835 2 326 -14 547 -75 1060 -119 999 -122 1453 -13 1965 28
133 74 298 89 320 4 6 10 27 14 48 4 21 10 36 14 33 4 -2 8 6 8 18 3 41 163
365 186 374 4 2 8 9 8 14 0 39 242 305 309 340 14 7 33 20 42 29 23 23 162 87
249 115 41 13 109 28 150 34 94 11 285 4 370 -14z m-11244 -1225 c21 -5 80
-20 129 -32 50 -11 126 -32 170 -46 44 -13 134 -38 199 -54 66 -16 124 -33
130 -39 6 -6 6 -10 1 -10 -6 0 -6 -3 0 -8 16 -11 75 -135 75 -156 0 -11 3 -17
6 -14 3 4 21 -11 41 -33 46 -50 96 -66 165 -52 l51 10 46 -41 c75 -67 191
-188 220 -231 75 -109 165 -347 170 -448 3 -78 -14 -112 -87 -173 -36 -30 -74
-54 -85 -54 -10 0 -16 -4 -13 -9 3 -5 -7 -14 -23 -21 -24 -9 -39 -8 -92 10
-161 54 -337 76 -442 55 -49 -10 -131 -32 -157 -43 -14 -6 -65 -16 -115 -22
-135 -17 -309 -103 -425 -210 -61 -57 -126 -101 -135 -92 -5 4 -6 2 -2 -3 3
-6 -18 -37 -48 -69 -29 -31 -53 -58 -52 -59 1 -1 -5 -12 -14 -24 -12 -18 -40
-27 -145 -48 -530 -106 -1257 -129 -1603 -50 -60 14 -80 24 -112 56 -21 21
-38 42 -37 47 1 4 -5 21 -12 37 -28 66 -23 290 12 445 19 86 71 229 81 223 6
-3 7 -1 4 4 -11 18 100 223 176 325 104 139 297 335 318 322 5 -3 8 0 7 6 -2
7 6 17 17 23 11 7 24 17 30 23 58 64 429 276 500 286 11 2 22 5 25 8 18 20
222 84 375 118 185 42 563 67 651 43z m944 -157 c0 -3 -7 -34 -16 -67 -33
-127 -66 -152 -112 -84 -15 23 -37 64 -50 90 -25 54 -24 54 53 60 97 7 125 7
125 1z m6620 -1119 c74 -78 134 -148 132 -154 -1 -7 1 -10 6 -7 17 10 298
-327 287 -345 -4 -5 -1 -8 7 -7 7 2 12 -3 11 -9 -2 -7 1 -12 6 -10 14 3 62
-64 54 -76 -3 -6 -1 -7 5 -3 6 3 41 -35 84 -91 40 -54 79 -104 86 -111 6 -8
17 -23 24 -35 6 -12 25 -40 42 -62 17 -21 24 -35 16 -30 -8 5 1 -7 20 -26 19
-19 42 -48 50 -65 8 -16 17 -31 21 -34 20 -19 58 -78 52 -83 -3 -4 -1 -7 6 -7
7 0 9 -4 6 -10 -3 -5 -2 -10 3 -10 8 0 69 -87 107 -155 7 -11 40 -65 75 -120
181 -289 435 -796 580 -1160 151 -379 328 -1017 381 -1376 6 -41 15 -101 20
-134 58 -371 82 -793 68 -1190 -8 -235 -14 -309 -40 -545 -37 -330 -126 -755
-229 -1093 -145 -479 -324 -872 -578 -1267 -57 -90 -173 -240 -185 -240 -6 0
-7 -3 -4 -6 3 -4 -8 -20 -24 -35 -17 -16 -27 -29 -23 -29 5 0 -2 -11 -16 -25
-14 -13 -45 -48 -70 -76 -61 -70 -146 -157 -195 -198 -22 -19 -62 -55 -89 -80
-27 -25 -45 -39 -41 -31 5 8 -5 2 -21 -15 -16 -16 -44 -41 -63 -55 -19 -14
-47 -35 -62 -48 -15 -12 -30 -22 -34 -22 -3 0 -13 -7 -22 -15 -8 -8 -19 -12
-25 -9 -7 4 -8 2 -4 -4 4 -7 3 -12 -1 -12 -5 0 -36 -18 -70 -40 -33 -21 -92
-54 -129 -72 -38 -18 -70 -36 -72 -40 -2 -5 -8 -8 -13 -8 -6 0 -29 -9 -52 -21
-212 -105 -604 -229 -896 -284 -461 -86 -906 -120 -1936 -145 -586 -14 -2274
-21 -2450 -10 -279 18 -387 29 -402 41 -23 20 -70 119 -87 186 -22 85 -21 232
4 326 21 83 81 214 108 234 8 7 12 13 7 13 -5 0 3 12 17 27 35 39 41 70 16 84
-29 16 -87 -26 -136 -100 -22 -33 -43 -57 -47 -53 -5 4 -5 1 -1 -6 4 -7 1 -23
-7 -35 -39 -60 -77 -228 -76 -337 0 -78 21 -201 43 -254 27 -65 24 -70 -38
-62 -78 9 -279 62 -326 86 -33 17 -46 33 -74 93 -44 95 -56 156 -56 286 0 164
44 308 136 441 19 27 34 56 34 64 0 14 -20 26 -45 26 -14 0 -112 -90 -98 -90
4 0 4 -4 -2 -8 -12 -8 -38 -62 -71 -145 -54 -136 -68 -368 -29 -491 27 -86 19
-95 -36 -42 -97 95 -137 195 -146 363 -7 128 7 232 43 336 32 93 86 197 97
190 6 -3 7 -1 3 5 -11 18 113 174 133 167 8 -3 12 -3 9 1 -13 12 10 40 79 96
95 78 210 145 331 195 96 38 119 46 177 57 11 2 47 11 80 19 33 9 85 18 115
22 30 3 67 8 82 11 22 5 37 -5 90 -57 35 -34 62 -65 61 -69 -1 -3 4 -7 10 -7
7 0 55 -31 107 -69 90 -66 133 -92 258 -154 29 -14 49 -30 45 -35 -5 -4 -3 -5
3 -2 7 4 43 -6 80 -21 99 -41 120 -45 139 -26 15 15 15 18 -2 36 -9 11 -39 29
-65 40 -26 11 -45 25 -41 30 3 6 0 8 -8 6 -17 -6 -48 9 -142 69 -171 110 -360
288 -485 455 -40 53 -72 98 -72 101 0 3 -17 32 -38 64 -61 92 -157 303 -205
448 -53 163 -88 358 -101 575 -9 140 16 421 50 557 23 98 65 246 73 258 3 6 6
12 6 15 6 53 145 348 209 445 14 22 32 49 39 59 93 145 315 394 339 380 7 -4
10 -4 6 1 -15 16 205 200 225 188 5 -3 7 -2 4 3 -8 14 156 116 327 203 245
125 533 219 766 251 47 6 110 16 140 21 109 20 444 23 600 5 160 -19 398 -71
506 -112 38 -14 81 -29 95 -34 96 -30 489 -238 547 -290 9 -8 35 -27 58 -43
22 -15 49 -35 60 -45 11 -9 42 -35 69 -57 28 -22 93 -84 147 -138 66 -68 102
-98 115 -95 24 4 29 50 8 71 -8 9 -32 38 -52 64 -19 26 -72 85 -117 131 -58
59 -81 90 -82 109 -1 32 -26 52 -58 46 -19 -4 -37 8 -87 58 -35 34 -75 65 -89
69 -22 6 -25 12 -22 43 3 41 -22 62 -64 54 -13 -2 -21 -1 -19 3 3 4 -4 10 -16
13 -16 4 -18 3 -8 -9 9 -11 8 -14 -3 -14 -22 0 -55 27 -78 64 -18 30 -24 33
-48 27 -35 -9 -62 -3 -62 15 0 8 5 13 12 11 6 -1 16 10 21 25 18 48 -31 78
-68 42 -16 -16 -12 -55 6 -62 5 -2 9 -8 9 -13 0 -21 -54 19 -72 54 -18 36 -22
39 -51 32 -40 -9 -79 -7 -112 5 -30 12 -32 26 -4 40 16 9 24 8 39 -5 10 -9 27
-15 37 -13 20 4 30 43 14 61 -14 18 0 36 35 46 19 5 30 15 32 29 2 12 26 45
53 74 l49 51 24 -22 c52 -49 86 -1 42 58 -29 39 -20 65 18 55 30 -7 50 18 42
52 -8 30 8 54 35 54 21 0 39 28 39 60 0 12 14 35 30 50 22 21 30 37 30 63 0
21 6 37 14 40 22 9 46 63 33 76 -18 18 -28 13 -75 -35 -24 -26 -38 -43 -30
-38 13 8 -29 -46 -79 -102 -131 -145 -207 -223 -215 -218 -5 3 -7 0 -6 -7 3
-11 -177 -166 -298 -257 -60 -44 -78 -47 -174 -26 -140 31 -488 58 -620 49
-41 -3 -111 -8 -155 -11 -204 -14 -527 -91 -783 -186 -111 -41 -336 -151 -420
-204 -29 -19 -54 -34 -57 -34 -2 0 -43 -27 -89 -61 -50 -35 -90 -58 -97 -53
-7 4 -9 3 -6 -3 4 -6 -8 -22 -26 -36 -17 -14 -50 -42 -72 -61 -40 -36 -40 -36
-115 -31 -109 7 -204 29 -385 90 -236 79 -284 99 -458 186 -366 184 -667 407
-1012 754 -167 167 -242 251 -237 269 2 6 0 8 -4 4 -8 -8 -32 17 -97 102 -23
30 -44 57 -47 60 -51 48 -292 426 -357 560 -38 78 -121 278 -156 375 -59 166
-104 383 -127 611 -17 182 14 458 70 606 20 55 22 56 48 47 39 -13 128 -84
124 -98 -1 -7 1 -10 6 -7 11 7 82 -67 110 -115 12 -19 30 -43 41 -53 16 -15
22 -15 40 -4 37 23 36 46 -5 106 -50 74 -124 166 -124 155 0 -4 -6 -1 -13 8
-7 9 -45 37 -85 63 -43 28 -72 54 -72 64 0 38 139 282 161 282 5 0 9 6 9 14 0
7 23 34 51 60 43 40 55 46 84 43 82 -9 236 -142 303 -260 35 -61 56 -71 86
-38 16 18 16 22 -10 73 -71 141 -152 235 -248 289 l-59 33 39 32 c89 75 278
164 347 164 42 0 144 -66 217 -140 67 -68 77 -82 144 -195 43 -74 57 -90 77
-90 41 0 37 51 -13 153 -23 48 -46 89 -50 90 -4 2 -8 8 -8 13 0 5 -8 17 -17
27 -10 10 -36 38 -58 62 -22 25 -57 60 -78 78 -21 17 -32 32 -25 32 10 0 10 2
0 9 -22 14 126 22 213 12 189 -23 328 -81 481 -203 68 -54 182 -179 185 -203
1 -5 9 -15 18 -22 9 -6 27 -33 41 -60 14 -26 29 -51 34 -54 5 -4 5 -12 1 -19
-5 -8 -4 -11 2 -7 13 8 91 -159 136 -293 48 -145 101 -411 137 -690 6 -47 16
-105 22 -130 17 -70 75 -199 108 -240 17 -21 30 -40 30 -43 0 -3 32 -37 70
-75 39 -38 70 -68 70 -66 0 2 24 -12 54 -31 61 -39 171 -85 267 -112 49 -13
100 -17 219 -17 137 1 167 4 260 29 58 15 134 41 169 56 69 31 270 163 285
187 16 27 150 157 159 154 4 -1 5 2 2 9 -8 12 29 51 39 41 4 -3 4 1 1 10 -4
11 1 21 14 30 12 7 21 17 21 22 0 4 13 24 30 43 34 38 36 46 15 63 -19 16 -43
7 -83 -31 -18 -17 -37 -27 -44 -23 -6 4 -8 3 -5 -3 7 -11 -84 -103 -102 -103
-7 0 -9 -4 -6 -10 3 -5 1 -10 -4 -10 -6 0 -34 -23 -63 -50 -30 -29 -90 -69
-139 -94 -48 -24 -107 -55 -130 -69 -31 -18 -76 -30 -149 -41 -58 -9 -132 -23
-165 -33 -74 -20 -254 -22 -345 -3 -60 12 -161 55 -198 83 -97 76 -224 261
-236 347 -1 9 -5 21 -9 27 -12 19 -20 165 -13 214 l6 44 123 -2 c67 -1 163 -7
214 -13 136 -15 440 -12 568 5 61 9 148 20 195 25 47 6 148 21 225 34 77 13
190 32 250 41 142 22 333 59 463 91 57 13 107 22 113 19 5 -4 9 -1 9 4 0 6 6
11 14 11 30 0 427 115 655 189 134 44 247 78 252 76 4 -3 9 -1 11 4 1 4 55 27
118 51 63 24 148 58 188 76 40 19 75 34 77 34 7 0 214 89 280 119 33 16 83 39
110 51 59 26 320 157 420 210 181 97 233 126 274 152 24 15 48 25 54 21 6 -3
7 -2 4 3 -3 6 18 23 46 39 29 15 63 36 76 47 13 10 27 15 32 12 5 -3 9 0 9 5
0 12 200 147 213 143 4 -1 7 2 7 8 0 6 4 10 9 10 6 0 25 14 43 30 18 17 38 30
45 30 7 0 13 4 13 9 0 5 13 17 29 28 41 26 182 134 208 160 13 13 29 19 40 16
10 -3 79 -70 153 -148z m-9911 -220 c-5 -44 -8 -138 -7 -210 l3 -129 -55 -11
c-30 -7 -80 -24 -111 -38 -31 -15 -58 -27 -60 -27 -3 0 -6 14 -7 31 -1 17 1
28 6 25 5 -3 6 8 4 24 -4 29 55 230 68 230 4 0 7 6 7 13 0 23 64 108 75 101 7
-4 8 -2 4 5 -10 15 62 87 74 75 5 -5 4 -43 -1 -89z m3744 25 c-16 -3 -20 -9
-14 -19 5 -7 14 -10 20 -6 8 4 10 -2 7 -21 -8 -45 -21 -49 -60 -19 -36 27 -46
45 -25 45 6 0 22 9 36 19 14 12 31 17 41 13 14 -5 14 -7 -5 -12z m-3679 -493
c15 -23 40 -51 55 -62 33 -21 33 -28 4 -75 -44 -72 -79 -200 -69 -251 3 -17
12 -45 20 -62 17 -37 34 -104 33 -129 0 -9 -11 -19 -23 -22 -66 -17 -150 -102
-142 -143 5 -25 43 -28 60 -5 18 26 107 72 139 72 26 0 69 -45 69 -74 0 -7 11
-17 25 -20 25 -6 30 -20 19 -50 -5 -12 -15 -15 -45 -10 -35 6 -39 4 -39 -14 0
-12 10 -28 21 -36 17 -11 24 -33 35 -104 17 -115 43 -189 95 -269 39 -59 142
-163 162 -163 4 0 5 -4 2 -10 -3 -6 1 -7 9 -4 9 3 16 2 16 -4 0 -6 14 -13 30
-17 17 -4 28 -10 26 -14 -3 -4 3 -7 12 -8 9 0 42 -10 72 -21 74 -27 139 -40
233 -48 77 -7 86 -11 66 -31 -19 -19 -6 -58 19 -61 32 -5 53 15 50 47 -3 22 1
25 26 26 27 0 30 -3 30 -35 1 -30 5 -35 26 -38 33 -3 52 11 54 39 2 37 39 32
46 -6 5 -27 9 -30 40 -30 31 0 35 3 40 30 4 23 11 31 32 33 24 3 26 0 25 -29
-2 -27 2 -34 23 -39 39 -11 62 6 58 43 -3 30 -1 32 27 32 27 0 30 -3 27 -31
-4 -44 18 -60 59 -44 28 12 31 17 26 47 -3 18 -5 33 -3 33 19 0 226 31 238 35
11 4 20 -1 28 -15 15 -28 39 -121 30 -115 -4 2 -17 -5 -28 -16 -24 -22 -29
-61 -9 -76 15 -13 50 -8 55 6 2 6 8 11 13 11 15 0 10 -36 -6 -50 -8 -7 -15
-23 -15 -36 0 -19 7 -26 30 -30 40 -8 54 -28 47 -64 -5 -20 -2 -34 9 -42 38
-32 44 -42 56 -81 6 -23 15 -44 18 -47 3 -3 21 -31 39 -64 38 -68 36 -88 -9
-80 -20 5 -30 3 -30 -6 0 -8 -8 -10 -24 -6 -15 4 -26 1 -29 -7 -10 -26 8 -33
84 -33 42 -1 81 -4 87 -8 7 -4 12 -27 12 -52 0 -37 3 -44 19 -44 11 0 29 -12
41 -27 20 -26 20 -28 4 -40 -25 -18 -33 -16 -56 12 -22 28 -35 30 -61 11 -17
-13 -16 -14 1 -35 12 -16 32 -24 67 -28 28 -2 64 -6 80 -8 17 -1 33 -3 38 -4
4 -1 7 -18 7 -40 0 -40 11 -56 45 -63 16 -3 19 -10 17 -36 -3 -28 0 -35 25
-44 29 -11 140 -133 136 -149 -2 -5 1 -8 5 -6 13 3 134 -131 128 -142 -4 -5 2
-12 11 -15 10 -2 2 -3 -18 -2 -19 2 -51 8 -70 14 -112 36 -288 101 -377 139
-105 44 -393 190 -441 222 -25 17 -45 30 -156 99 -27 17 -55 36 -61 41 -6 5
-25 16 -42 25 -18 9 -32 21 -32 26 0 6 -3 9 -7 8 -11 -4 -133 84 -133 95 0 4
-4 6 -8 3 -5 -3 -24 10 -43 29 -19 19 -38 35 -43 35 -21 0 -318 259 -311 270
3 4 -1 7 -8 6 -7 0 -69 52 -138 118 -68 65 -135 126 -149 134 -27 18 -175 125
-282 205 -37 28 -64 55 -61 60 3 6 1 7 -5 3 -30 -18 -345 309 -334 347 1 5 -2
6 -8 2 -5 -3 -13 2 -17 12 -4 10 -12 23 -18 30 -30 30 -76 113 -69 125 4 7 4
10 -1 6 -9 -9 -45 53 -38 66 3 4 2 11 -3 15 -29 21 -76 159 -95 281 -17 112
-7 270 24 356 33 95 66 145 124 185 55 40 84 55 133 68 58 15 66 13 94 -32z
m1871 -95 c-5 -4 -10 -11 -10 -17 0 -5 -13 -40 -28 -76 -20 -45 -38 -71 -58
-83 -16 -10 -37 -28 -45 -42 -9 -13 -21 -21 -27 -17 -6 3 -7 1 -3 -5 4 -7 2
-12 -4 -12 -6 0 -9 -4 -6 -9 6 -9 -50 -58 -91 -80 -42 -22 -132 -7 -175 28
-95 78 -139 98 -209 96 -68 -2 -115 -27 -199 -105 -36 -34 -78 -68 -95 -77
-37 -20 -92 -20 -131 0 -40 21 -107 95 -98 109 4 6 3 8 -3 5 -6 -4 -20 5 -33
18 -13 13 -43 32 -66 41 -73 28 -135 11 -261 -73 -30 -19 -58 -31 -64 -27 -8
4 -9 3 -5 -4 5 -8 -5 -12 -34 -12 -33 0 -48 6 -72 30 -27 27 -30 36 -26 73 6
55 56 167 74 167 8 0 13 6 12 13 -2 7 6 11 22 9 327 -39 371 -42 610 -42 271
-1 376 6 670 46 178 25 185 25 198 7 13 -17 14 -17 29 5 9 13 26 22 42 23 14
0 35 4 46 9 25 11 54 12 40 2z m-1527 -748 c4 2 50 -4 102 -15 241 -46 756
-51 1065 -9 83 11 153 20 156 20 3 0 9 -66 12 -147 6 -135 28 -328 42 -366 4
-8 2 -18 -4 -21 -27 -17 -370 -46 -551 -46 -248 0 -334 11 -555 72 -179 50
-325 251 -312 430 4 62 26 117 35 89 2 -6 7 -9 10 -7z m3239 -2951 c40 -22 56
-37 59 -58 0 -5 2 -15 2 -22 3 -18 35 -21 53 -6 15 12 24 10 70 -14 60 -31 71
-42 64 -61 -8 -22 14 -52 37 -52 12 0 32 10 44 21 l23 22 31 -27 c17 -14 41
-26 53 -26 24 0 62 -20 39 -20 -9 0 -12 -11 -10 -32 2 -27 8 -34 30 -36 19 -2
31 3 40 17 17 27 43 27 63 -1 12 -19 25 -23 68 -23 40 0 58 -5 76 -22 l24 -22
-30 11 c-51 19 -105 -26 -71 -60 14 -14 64 -16 73 -2 3 5 19 7 35 3 26 -5 30
-2 30 16 0 12 -7 24 -16 28 -23 9 2 21 32 15 17 -3 24 -11 24 -27 0 -41 11
-55 41 -55 19 0 34 8 45 25 l16 25 25 -20 c14 -11 29 -18 33 -15 3 2 7 -2 7
-10 0 -19 -24 -29 -67 -30 -34 0 -35 -1 -35 -42 0 -47 -9 -60 -45 -65 -22 -3
-25 -8 -25 -41 0 -31 -6 -44 -32 -65 -18 -15 -34 -37 -36 -49 -2 -12 -12 -32
-23 -44 -10 -11 -28 -40 -39 -63 -15 -31 -27 -42 -49 -46 -43 -7 -55 -34 -29
-62 16 -18 19 -28 12 -47 -7 -19 -12 -22 -21 -13 -18 18 -43 15 -63 -8 -17
-18 -16 -20 13 -47 l30 -28 -23 -48 c-13 -27 -31 -72 -41 -100 -9 -29 -25 -66
-35 -83 -11 -17 -19 -42 -19 -55 0 -33 -11 -46 -40 -50 -34 -5 -41 -52 -10
-69 19 -10 21 -17 15 -57 -3 -24 -13 -63 -21 -85 -8 -22 -14 -53 -14 -69 0
-21 -7 -31 -27 -41 -38 -18 -41 -52 -9 -74 23 -14 26 -23 26 -70 0 -46 -3 -56
-25 -70 -32 -21 -32 -57 -2 -77 18 -12 24 -25 25 -64 2 -42 -1 -51 -29 -77
l-31 -29 36 -33 c34 -31 36 -37 36 -93 0 -39 -5 -65 -15 -74 -13 -13 -12 -18
6 -41 11 -14 17 -31 13 -37 -4 -7 -3 -9 4 -5 7 4 15 -8 21 -31 16 -55 13 -74
-9 -80 -21 -6 -37 -44 -25 -62 3 -6 22 -11 41 -11 37 0 42 -11 22 -54 -10 -23
-8 -29 15 -50 15 -14 27 -31 27 -39 0 -8 18 -51 41 -96 22 -44 42 -90 44 -101
3 -17 1 -18 -15 -8 -45 28 -96 -38 -55 -72 21 -17 72 -3 78 22 4 12 10 17 17
13 7 -4 10 -16 7 -26 -3 -11 -1 -17 4 -13 5 3 9 1 9 -4 0 -5 -13 -12 -29 -15
-34 -7 -48 -49 -24 -73 18 -18 28 -18 59 2 23 16 25 15 45 -7 l21 -24 -33 -5
c-42 -6 -57 -30 -41 -64 14 -31 42 -34 67 -6 10 11 21 20 25 20 7 0 52 -76 50
-86 -1 -4 4 -11 12 -15 9 -6 9 -9 1 -9 -7 0 -16 6 -20 13 -4 6 -16 18 -25 25
-24 19 -56 0 -60 -35 -2 -21 -9 -29 -28 -31 -20 -3 -23 -1 -12 9 29 30 2 69
-48 69 -29 0 -37 -28 -17 -61 17 -31 14 -35 -24 -42 -14 -3 -43 -10 -65 -17
-36 -11 -45 -10 -68 5 -34 22 -53 14 -63 -27 -7 -27 -19 -38 -63 -60 -29 -16
-64 -28 -78 -28 -26 0 -75 -33 -65 -44 3 -3 2 -6 -4 -6 -6 0 -16 7 -23 15 -28
34 -67 4 -51 -39 9 -23 7 -27 -19 -41 -17 -9 -44 -30 -61 -48 -26 -27 -37 -32
-65 -29 -34 4 -35 3 -33 -29 2 -28 -9 -49 -61 -116 -35 -46 -67 -83 -72 -83
-4 0 -8 -6 -8 -13 0 -7 -29 -72 -65 -145 -41 -84 -65 -146 -65 -167 0 -35 -15
-48 -41 -34 -10 5 -23 3 -34 -5 -15 -11 -16 -15 -4 -34 8 -12 24 -22 36 -22
15 0 20 -5 18 -17 -2 -10 -4 -40 -4 -66 -1 -40 -4 -48 -18 -46 -36 3 -43 -1
-43 -27 0 -19 7 -28 30 -35 26 -10 30 -16 30 -47 0 -21 3 -54 7 -76 6 -36 5
-38 -14 -28 -20 11 -43 0 -43 -21 0 -16 -30 -38 -47 -35 -11 2 -20 15 -23 33
-7 43 -38 46 -53 5 l-12 -32 -90 6 c-49 3 -112 12 -140 19 -45 11 -53 17 -77
62 -73 135 -95 308 -59 457 21 92 45 146 111 253 22 37 35 67 29 70 -5 4 -7
10 -4 15 3 4 -10 4 -29 0 -19 -4 -51 -25 -72 -46 -22 -21 -34 -35 -27 -31 6 4
-4 -19 -23 -50 -19 -32 -47 -94 -61 -138 -23 -70 -26 -98 -27 -215 -1 -104 3
-150 18 -200 10 -36 19 -73 19 -82 1 -9 5 -14 9 -12 14 9 8 -13 -7 -26 -11 -9
-15 -9 -15 -1 0 7 -5 9 -10 6 -17 -11 -122 56 -177 111 -56 58 -95 131 -119
226 -20 77 -14 258 11 358 18 70 111 268 147 313 13 16 34 42 46 58 13 16 29
26 34 22 7 -3 8 -1 4 6 -8 13 125 147 156 157 10 3 18 10 18 15 0 5 6 9 13 9
6 0 25 11 41 25 55 47 323 162 353 151 7 -3 13 -2 13 3 0 4 6 8 13 8 6 0 49
10 94 22 45 12 110 24 143 28 49 5 65 11 80 31 11 14 20 31 20 38 0 13 -50
124 -60 134 -16 16 -38 68 -32 75 4 5 2 5 -5 1 -11 -6 -30 29 -25 47 1 4 -3 7
-9 7 -5 0 -8 4 -5 9 4 5 3 11 -1 13 -12 5 -55 88 -46 88 4 0 3 4 -4 8 -25 16
-202 437 -189 450 3 3 2 10 -3 16 -23 30 -99 324 -125 486 -38 238 -45 516
-16 685 26 160 34 196 56 275 35 122 69 212 78 203 4 -4 4 -1 1 8 -7 18 78
187 143 284 25 38 74 103 107 143 65 80 116 137 100 112 -9 -13 -8 -13 8 -1 9
7 17 18 17 23 0 5 19 27 42 48 45 40 44 40 115 3z m7423 -4201 c0 -13 -12 -22
-22 -16 -10 6 -1 24 13 24 5 0 9 -4 9 -8z m-3030 -1172 c0 -5 -7 -7 -15 -4 -8
4 -15 8 -15 10 0 2 7 4 15 4 8 0 15 -4 15 -10z"/>
<path d="M6927 17674 c-54 -20 -131 -96 -185 -184 -25 -41 -50 -78 -55 -81 -5
-3 -8 -9 -7 -13 2 -11 -52 -121 -64 -128 -6 -4 -8 -8 -5 -8 4 0 -13 -51 -38
-112 -95 -238 -240 -700 -303 -963 -66 -278 -74 -326 -67 -410 13 -172 101
-265 327 -345 36 -13 70 -27 75 -30 6 -4 28 -13 50 -20 95 -30 310 -154 299
-172 -3 -5 -1 -7 4 -6 19 5 129 -95 247 -223 138 -150 287 -229 429 -229 130
0 192 35 242 135 60 122 64 256 18 615 -21 167 -48 326 -97 570 -3 14 -17 67
-31 117 -14 51 -28 103 -30 115 -21 102 -191 631 -236 733 -7 17 -39 88 -71
159 -32 71 -56 134 -52 140 3 6 3 8 -2 4 -4 -4 -21 18 -38 50 -16 31 -46 79
-66 107 -37 51 -131 159 -131 150 0 -2 -17 4 -39 15 -50 27 -126 33 -174 14z"/>
<path d="M5178 14149 c-65 -9 -143 -43 -220 -96 -62 -42 -197 -153 -248 -203
-90 -89 -149 -140 -160 -140 -6 0 -8 -4 -5 -10 3 -5 1 -10 -4 -10 -6 0 -36
-24 -67 -52 -31 -29 -61 -52 -68 -50 -6 2 -8 0 -4 -4 15 -14 -121 -114 -230
-169 -57 -30 -88 -38 -152 -44 -44 -4 -85 -12 -91 -18 -19 -19 -12 -72 13
-109 25 -37 81 -68 150 -83 58 -13 205 -15 245 -3 l32 10 -5 -50 c-5 -69 20
-170 55 -221 26 -38 87 -99 104 -104 116 -34 170 -30 254 21 39 24 105 126
112 174 26 168 -35 309 -157 367 -23 11 -42 23 -42 27 0 4 16 20 36 35 20 15
63 54 97 86 33 31 62 55 65 52 8 -7 33 16 27 25 -3 4 12 21 33 36 20 16 55 47
77 69 94 94 218 155 315 155 44 0 169 -33 215 -57 11 -6 40 -17 65 -26 25 -9
81 -30 125 -47 381 -149 588 -169 525 -50 -8 15 -211 160 -225 160 -2 0 -57
32 -121 71 -338 204 -571 284 -746 258z"/>
<path d="M6780 12835 c-91 -7 -208 -20 -260 -29 -181 -31 -315 -59 -327 -69
-21 -15 -15 -55 9 -68 16 -8 34 -9 72 0 94 20 259 44 472 70 217 26 717 7 919
-34 39 -8 92 -16 119 -17 44 -3 51 0 62 21 19 36 -8 55 -96 71 -41 7 -91 16
-110 20 -115 26 -409 51 -580 49 -63 -1 -189 -7 -280 -14z"/>
<path d="M6186 12061 c-17 -19 -17 -22 -3 -44 14 -22 25 -24 164 -35 81 -7
162 -14 178 -16 17 -3 59 -8 95 -11 82 -8 316 -48 440 -75 52 -11 109 -22 125
-24 68 -9 347 -86 529 -147 93 -31 121 -31 131 2 8 24 -8 45 -49 63 -50 23
-210 76 -228 76 -9 0 -18 3 -20 8 -1 4 -32 15 -68 25 -36 9 -99 27 -140 38
-186 51 -441 98 -755 138 -44 6 -147 14 -230 17 -144 6 -151 5 -169 -15z"/>
<path d="M6105 11421 c3 -2 0 -12 -5 -22 -6 -9 -7 -24 -4 -33 3 -8 76 -42 162
-76 86 -34 204 -82 262 -107 107 -46 123 -53 220 -96 30 -13 89 -39 130 -57
41 -18 77 -37 78 -41 2 -5 8 -7 12 -4 13 8 202 -90 193 -100 -4 -4 -3 -5 4 -1
13 7 93 -29 105 -48 4 -6 8 -7 8 -3 0 5 30 -8 67 -27 62 -33 68 -35 90 -21 27
18 30 47 7 66 -35 29 -491 259 -514 259 -6 0 -8 5 -4 12 4 7 3 8 -4 4 -7 -4
-24 0 -39 8 -16 8 -93 43 -173 76 -80 34 -154 65 -165 70 -141 64 -377 149
-407 147 -14 -1 -25 -4 -23 -6z"/>
<path d="M13020 6391 c0 -17 24 -51 35 -51 3 0 9 9 15 21 9 15 8 24 -1 35 -17
21 -49 18 -49 -5z"/>
<path d="M13053 6194 c-9 -24 10 -49 40 -52 30 -4 46 30 27 53 -17 20 -59 19
-67 -1z"/>
<path d="M13127 6102 c-13 -3 -17 -11 -15 -30 2 -21 8 -27 28 -27 18 0 26 6
28 21 4 25 -16 42 -41 36z"/>
<path d="M13078 6002 c-10 -2 -18 -11 -18 -21 0 -21 30 -57 45 -55 22 3 75 29
75 36 0 5 -12 13 -27 18 -16 6 -35 14 -43 18 -8 4 -23 6 -32 4z"/>
<path d="M13182 5878 c-29 -29 1 -75 32 -49 15 12 16 28 3 49 -10 15 -20 15
-35 0z"/>
<path d="M13120 5764 c-7 -17 -7 -32 0 -44 9 -16 15 -17 39 -9 33 12 44 38 26
62 -19 26 -54 21 -65 -9z"/>
<path d="M13230 5680 c-8 -5 -27 -10 -42 -10 -30 0 -46 -16 -30 -32 5 -5 28
-12 50 -15 33 -4 42 -2 51 14 14 27 -7 57 -29 43z"/>
<path d="M13180 5552 c-25 -31 -15 -45 31 -45 35 0 52 19 39 44 -16 29 -48 30
-70 1z"/>
<path d="M13139 5473 c-10 -2 -19 -17 -21 -34 -8 -51 37 -66 61 -20 13 23 -14
60 -40 54z"/>
<path d="M13247 5463 c-15 -14 -6 -53 14 -63 39 -21 61 7 43 54 -6 16 -45 22
-57 9z"/>
<path d="M13184 5346 c-11 -29 1 -51 28 -54 33 -4 57 30 37 54 -15 18 -58 18
-65 0z"/>
<path d="M13304 5335 c-9 -21 3 -45 21 -45 10 0 15 10 15 30 0 32 -26 43 -36
15z"/>
<path d="M13140 5250 c-30 -7 -36 -28 -16 -55 12 -17 17 -18 40 -7 47 21 26
75 -24 62z"/>
<path d="M13253 5228 c-13 -31 -6 -48 20 -48 33 0 49 15 45 41 -4 34 -50 39
-65 7z"/>
<path d="M13189 5136 c-15 -32 -7 -52 24 -58 32 -6 58 33 41 60 -18 28 -52 27
-65 -2z"/>
<path d="M13327 5143 c-4 -3 -7 -17 -7 -30 0 -16 6 -23 20 -23 16 0 20 7 20
30 0 28 -17 40 -33 23z"/>
<path d="M13257 5033 c-14 -31 0 -57 33 -61 35 -6 53 24 34 53 -23 35 -53 39
-67 8z"/>
<path d="M13125 5035 c-3 -8 -7 -21 -9 -29 -6 -17 13 -36 35 -36 27 0 50 39
38 62 -12 22 -58 24 -64 3z"/>
<path d="M13192 4928 c-16 -16 -15 -43 3 -58 19 -16 45 -9 62 16 12 19 12 24
-2 38 -19 19 -46 21 -63 4z"/>
<path d="M13322 4916 c-2 -26 11 -39 41 -41 14 -1 17 4 15 29 -2 25 -8 32 -28
34 -21 2 -26 -2 -28 -22z"/>
<path d="M13270 4826 c-15 -15 -12 -52 5 -66 33 -27 76 20 54 61 -10 19 -43
21 -59 5z"/>
<path d="M13124 4816 c-12 -31 0 -51 30 -51 36 0 56 26 37 49 -17 20 -60 21
-67 2z"/>
<path d="M13190 4699 c-17 -30 8 -54 45 -45 21 5 26 12 23 34 -4 36 -51 44
-68 11z"/>
<path d="M13334 4705 c-7 -18 12 -45 32 -45 9 0 14 11 14 30 0 23 -4 30 -20
30 -11 0 -23 -7 -26 -15z"/>
<path d="M13132 4608 c-17 -17 -15 -58 4 -65 26 -10 64 14 64 41 0 33 -43 49
-68 24z"/>
<path d="M13270 4601 c-24 -45 2 -77 46 -57 31 14 36 29 18 55 -19 26 -50 27
-64 2z"/>
<path d="M13080 4513 c-8 -2 -20 -14 -26 -28 -10 -20 -8 -27 10 -44 20 -19 24
-19 44 -5 40 28 19 88 -28 77z"/>
<path d="M13190 4491 c-23 -44 27 -78 62 -43 29 28 16 62 -22 62 -19 0 -33 -7
-40 -19z"/>
<path d="M13331 4488 c-10 -27 3 -48 29 -48 21 0 33 25 25 51 -9 26 -44 24
-54 -3z"/>
<path d="M13126 4389 c-17 -24 -12 -45 15 -59 13 -8 24 -5 44 12 24 22 25 24
10 46 -20 28 -49 28 -69 1z"/>
<path d="M13277 4399 c-11 -7 -16 -20 -15 -39 1 -16 5 -27 9 -24 4 2 10 0 13
-5 10 -15 44 0 50 22 6 24 1 33 -22 46 -11 6 -24 6 -35 0z"/>
<path d="M13062 4288 c-7 -7 -12 -22 -12 -35 0 -30 42 -52 64 -34 18 15 26 57
13 70 -15 15 -50 14 -65 -1z"/>
<path d="M13220 4287 c-34 -17 -35 -61 -2 -65 43 -6 70 41 39 66 -9 8 -20 7
-37 -1z"/>
<path d="M13333 4268 c-14 -31 -6 -48 22 -48 26 0 50 32 41 56 -9 23 -51 17
-63 -8z"/>
<path d="M13185 4195 c-5 -2 -22 -6 -37 -9 -21 -5 -28 -12 -28 -29 0 -34 15
-49 45 -45 34 4 51 28 40 54 -4 11 -7 22 -7 27 1 4 1 7 0 6 -2 0 -7 -2 -13 -4z"/>
<path d="M13282 4173 c-15 -31 -8 -48 20 -51 22 -3 29 2 34 22 3 14 3 30 -1
35 -10 17 -43 13 -53 -6z"/>
<path d="M13060 4071 c-13 -25 6 -71 30 -71 22 0 40 20 40 45 0 43 -50 62 -70
26z"/>
<path d="M13208 4062 c-18 -31 -12 -52 18 -56 39 -7 69 45 42 72 -20 20 -43
14 -60 -16z"/>
<path d="M13000 3958 c-25 -24 -25 -34 1 -48 32 -18 79 -3 79 25 0 43 -44 56
-80 23z"/>
<path d="M13148 3969 c-14 -8 -27 -59 -15 -59 1 0 16 -4 33 -9 28 -8 33 -6 43
15 9 20 7 28 -9 44 -23 23 -28 24 -52 9z"/>
<path d="M13284 3944 c-8 -32 7 -48 40 -40 29 7 45 44 25 57 -28 18 -58 10
-65 -17z"/>
<path d="M13064 3856 c-9 -23 -1 -48 19 -60 25 -16 51 4 55 43 3 30 2 31 -33
31 -22 0 -38 -6 -41 -14z"/>
<path d="M13207 3864 c-20 -21 -1 -75 30 -81 18 -4 45 34 41 59 -2 17 -10 24
-33 26 -17 2 -34 0 -38 -4z"/>
<path d="M13006 3751 c-19 -21 -15 -56 8 -64 19 -8 60 16 64 36 8 43 -42 62
-72 28z"/>
<path d="M13142 3748 c-25 -28 -14 -58 22 -58 32 0 50 24 42 55 -8 31 -35 33
-64 3z"/>
<path d="M13284 3762 c-20 -13 -22 -58 -4 -70 18 -11 27 -7 48 20 11 13 11 20
0 37 -13 22 -26 26 -44 13z"/>
<path d="M12953 3648 c-6 -7 -13 -23 -15 -35 -5 -17 0 -24 21 -31 37 -13 61 2
61 37 0 21 -6 30 -22 35 -32 8 -34 8 -45 -6z"/>
<path d="M13229 3646 c-35 -17 -33 -57 4 -67 22 -6 30 -3 43 15 26 41 -3 74
-47 52z"/>
<path d="M13068 3624 c-10 -21 -9 -27 3 -35 24 -15 58 -10 69 10 15 29 2 51
-31 51 -22 0 -32 -7 -41 -26z"/>
<path d="M12896 3541 c-23 -25 -18 -75 7 -79 18 -4 67 33 67 50 0 11 -38 48
-48 48 -5 0 -17 -9 -26 -19z"/>
<path d="M13022 3538 c-22 -22 -14 -58 15 -69 34 -13 52 6 45 51 -3 23 -9 30
-26 30 -12 0 -27 -5 -34 -12z"/>
<path d="M13142 3525 c-10 -21 -9 -28 8 -45 26 -26 44 -25 59 4 20 36 11 61
-25 64 -24 2 -33 -2 -42 -23z"/>
<path d="M13270 3520 c0 -5 4 -10 9 -10 6 0 13 5 16 10 3 6 -1 10 -9 10 -9 0
-16 -4 -16 -10z"/>
<path d="M12832 3441 c-18 -11 -11 -61 10 -74 23 -15 48 8 48 43 0 35 -29 50
-58 31z"/>
<path d="M12950 3425 c-21 -25 3 -67 37 -63 34 4 52 31 37 56 -15 23 -57 27
-74 7z"/>
<path d="M13080 3420 c-15 -27 4 -60 33 -60 29 0 47 18 47 46 0 37 -62 48 -80
14z"/>
<path d="M13222 3428 c-19 -19 -14 -46 9 -59 18 -9 24 -8 33 7 27 45 -7 87
-42 52z"/>
<path d="M12800 3381 c0 -6 4 -13 10 -16 6 -3 7 1 4 9 -7 18 -14 21 -14 7z"/>
<path d="M12895 3326 c-11 -8 -16 -22 -13 -41 3 -27 6 -30 33 -27 40 5 63 27
49 49 -15 24 -49 34 -69 19z"/>
<path d="M13020 3315 c-22 -26 -8 -50 29 -50 37 0 58 22 48 49 -8 20 -60 21
-77 1z"/>
<path d="M13154 3305 c-8 -33 10 -53 41 -47 32 6 39 17 31 48 -5 19 -13 24
-36 24 -23 0 -31 -5 -36 -25z"/>
<path d="M12961 3227 c-23 -23 -11 -68 21 -80 32 -12 61 38 40 69 -11 16 -49
23 -61 11z"/>
<path d="M13102 3226 c-25 -32 -17 -65 20 -79 32 -12 61 38 40 69 -11 16 -50
23 -60 10z"/>
<path d="M12819 3203 c-8 -20 -6 -30 5 -42 22 -22 70 -4 74 28 7 46 -62 59
-79 14z"/>
<path d="M12900 3129 c0 -6 -4 -8 -8 -5 -5 3 -8 -11 -7 -30 1 -38 17 -54 46
-47 29 8 42 30 35 59 -4 15 -9 24 -13 21 -3 -3 -16 -2 -29 3 -16 6 -24 6 -24
-1z"/>
<path d="M12751 3111 c-23 -41 20 -81 58 -55 15 11 21 24 19 42 -2 22 -9 28
-35 30 -23 2 -34 -2 -42 -17z"/>
<path d="M13039 3111 c-21 -17 -22 -21 -10 -44 11 -20 18 -24 34 -18 12 4 27
17 34 28 12 18 11 22 -11 36 -23 15 -26 15 -47 -2z"/>
<path d="M13171 3102 c-11 -21 3 -52 24 -52 19 0 34 28 28 51 -7 24 -39 25
-52 1z"/>
<path d="M12700 3022 c-8 -4 -17 -21 -18 -39 -3 -27 0 -33 22 -39 36 -9 54 1
62 32 10 39 -26 64 -66 46z"/>
<path d="M12826 3008 c-21 -30 -20 -45 5 -59 33 -17 69 3 69 40 0 45 -48 57
-74 19z"/>
<path d="M12964 3006 c-12 -32 0 -61 28 -64 35 -4 60 37 38 63 -16 19 -59 20
-66 1z"/>
<path d="M13109 3004 c-23 -22 -13 -64 16 -64 34 0 59 33 45 59 -13 25 -40 27
-61 5z"/>
<path d="M12766 2909 c-19 -15 -23 -25 -17 -41 19 -53 91 -29 77 25 -8 34 -30
40 -60 16z"/>
<path d="M12900 2906 c-19 -24 -8 -61 18 -64 25 -4 62 23 62 44 0 15 -30 34
-53 34 -8 0 -20 -7 -27 -14z"/>
<path d="M13036 2898 c-11 -15 -12 -26 -5 -40 13 -24 55 -23 69 1 13 25 13 27
-6 45 -21 22 -40 20 -58 -6z"/>
<path d="M13180 2891 c-16 -31 -12 -41 15 -41 21 0 25 5 25 30 0 35 -23 41
-40 11z"/>
<path d="M12692 2808 c-39 -39 19 -98 59 -62 23 21 24 38 3 58 -18 19 -45 21
-62 4z"/>
<path d="M12837 2802 c-24 -27 -21 -51 9 -62 35 -14 56 4 52 44 -4 37 -35 47
-61 18z"/>
<path d="M12972 2799 c-19 -30 -14 -46 17 -57 34 -12 51 0 51 34 0 38 -49 54
-68 23z"/>
<path d="M13104 2796 c-11 -27 1 -50 29 -57 23 -6 30 -4 36 14 5 12 5 30 -1
40 -11 21 -56 23 -64 3z"/>
<path d="M12631 2696 c-16 -20 -10 -56 12 -70 27 -17 52 4 52 45 0 29 -4 34
-26 37 -14 2 -31 -4 -38 -12z"/>
<path d="M12762 2698 c-15 -15 -16 -54 -2 -63 6 -4 8 -10 5 -14 -2 -5 10 -5
28 -2 58 12 61 91 3 91 -12 0 -27 -5 -34 -12z"/>
<path d="M12899 2689 c-16 -31 3 -69 35 -69 26 0 45 18 51 49 8 40 -66 57 -86
20z"/>
<path d="M13052 2701 c-8 -5 -12 -21 -10 -37 2 -23 9 -30 30 -32 22 -3 29 2
34 22 10 41 -21 68 -54 47z"/>
<path d="M13178 2705 c-8 -9 3 -54 17 -65 32 -26 66 27 36 54 -17 16 -43 21
-53 11z"/>
<path d="M13328 2689 c-21 -12 -24 -49 -4 -49 19 0 46 27 46 46 0 16 -18 18
-42 3z"/>
<path d="M12865 2650 c-3 -5 -1 -10 4 -10 6 0 11 5 11 10 0 6 -2 10 -4 10 -3
0 -8 -4 -11 -10z"/>
<path d="M12577 2592 c-30 -33 -15 -72 28 -72 27 0 45 18 45 45 0 43 -44 59
-73 27z"/>
<path d="M12705 2594 c-9 -9 -15 -28 -13 -43 2 -21 8 -26 33 -26 21 0 33 7 44
27 15 25 14 28 -4 42 -26 20 -40 20 -60 0z"/>
<path d="M12830 2581 c-13 -25 5 -68 28 -68 35 -1 69 51 50 75 -16 19 -66 15
-78 -7z"/>
<path d="M12978 2576 c-13 -30 -5 -56 19 -56 34 0 48 22 44 68 -2 23 -51 14
-63 -12z"/>
<path d="M13110 2581 c-14 -28 21 -71 46 -55 30 18 39 40 25 58 -18 22 -58 20
-71 -3z"/>
<path d="M12503 2495 c0 -5 -3 -20 -7 -31 -7 -24 15 -54 39 -54 32 0 63 88 33
92 -41 5 -65 2 -65 -7z"/>
<path d="M12775 2487 c-16 -22 -21 -66 -7 -68 4 0 16 -2 27 -4 47 -9 65 63 20
83 -21 10 -27 8 -40 -11z"/>
<path d="M12640 2485 c-18 -22 -19 -49 -1 -62 24 -18 49 -16 61 6 14 27 13 37
-6 55 -19 20 -38 20 -54 1z"/>
<path d="M12924 2489 c-45 -16 -35 -79 11 -79 27 0 61 41 52 64 -7 17 -37 25
-63 15z"/>
<path d="M13057 2488 c-25 -14 -22 -57 6 -67 30 -12 57 4 57 33 0 28 -38 49
-63 34z"/>
<path d="M12446 2384 c-31 -30 -13 -74 30 -74 37 0 48 62 15 80 -25 13 -27 13
-45 -6z"/>
<path d="M12565 2370 c-8 -24 18 -70 39 -70 22 0 46 35 44 63 -2 24 -6 27 -40
27 -28 0 -38 -5 -43 -20z"/>
<path d="M12706 2375 c-12 -33 -6 -64 15 -76 18 -9 25 -7 42 10 17 17 19 25
11 48 -11 33 -57 45 -68 18z"/>
<path d="M12849 2380 c-29 -18 -7 -79 28 -80 17 0 46 47 40 64 -6 16 -50 26
-68 16z"/>
<path d="M12392 2291 c-5 -3 -14 -16 -20 -28 -10 -17 -9 -25 4 -37 26 -26 60
-20 74 13 6 17 9 34 6 39 -7 12 -52 21 -64 13z"/>
<path d="M12514 2282 c-15 -9 -19 -42 -9 -64 16 -38 70 -11 78 37 4 28 2 30
-27 32 -17 1 -36 -1 -42 -5z"/>
<path d="M12641 2276 c-18 -21 -9 -65 14 -73 35 -12 52 -10 53 6 5 41 2 57
-14 68 -23 17 -39 16 -53 -1z"/>
<path d="M12770 2259 c-18 -34 -9 -64 22 -67 19 -2 31 3 43 21 19 29 12 53
-18 61 -33 9 -35 8 -47 -15z"/>
<path d="M12483 2192 c-13 -2 -23 -8 -23 -13 0 -6 -4 -8 -8 -5 -12 7 -14 -45
-2 -59 17 -21 57 -6 71 27 14 35 -2 56 -38 50z"/>
<path d="M12333 2181 c-17 -11 -23 -42 -13 -61 8 -14 16 -17 37 -11 35 9 51
34 35 54 -15 18 -46 27 -59 18z"/>
<path d="M12575 2160 c-10 -33 4 -60 31 -60 27 0 51 38 41 64 -10 24 -64 21
-72 -4z"/>
<path d="M12266 2058 c-19 -27 -6 -55 31 -64 45 -12 74 54 34 76 -30 15 -48
12 -65 -12z"/>
<path d="M12392 2068 c-32 -32 6 -90 46 -72 9 4 20 7 23 6 7 -1 9 27 3 56 -3
16 -11 22 -32 22 -15 0 -33 -5 -40 -12z"/>
<path d="M12198 1944 c-11 -23 -10 -29 11 -45 26 -21 53 -13 72 22 17 32 4 49
-36 49 -29 0 -38 -5 -47 -26z"/>
<path d="M3282 11415 c-8 -17 -8 -33 -2 -50 18 -47 62 -44 87 6 10 20 9 27 -9
46 -29 31 -62 30 -76 -2z"/>
<path d="M2666 11308 c-21 -30 -20 -61 3 -89 16 -20 23 -22 47 -14 29 11 56
49 48 69 -4 11 -65 56 -77 56 -3 0 -13 -10 -21 -22z"/>
<path d="M2055 11245 c-28 -27 -29 -33 -15 -69 19 -50 94 -27 106 31 5 25 1
34 -17 47 -32 22 -46 20 -74 -9z"/>
<path d="M3683 11082 c-6 -4 -19 -20 -27 -36 -31 -61 42 -118 87 -68 24 26 21
59 -8 87 -26 27 -33 29 -52 17z"/>
<path d="M2991 10824 c-26 -33 -26 -49 -1 -74 24 -24 43 -25 75 -4 31 20 32
56 3 84 -29 27 -52 25 -77 -6z"/>
<path d="M1565 10766 c-9 -14 -15 -39 -13 -58 2 -27 8 -34 29 -36 39 -5 79 32
79 73 0 35 -13 45 -56 45 -14 0 -30 -10 -39 -24z"/>
<path d="M2247 10722 c-23 -25 -21 -61 4 -88 22 -24 41 -22 72 4 22 20 23 87
1 96 -29 11 -61 6 -77 -12z"/>
<path d="M8967 7082 c-8 -9 -17 -26 -19 -37 -5 -31 49 -34 61 -3 15 42 -15 71
-42 40z"/>
<path d="M8947 6843 c-14 -13 -6 -33 12 -33 19 0 35 23 24 34 -8 8 -28 8 -36
-1z"/>
<path d="M8918 6773 c-35 -8 -34 -83 1 -83 23 0 41 20 41 46 0 26 -18 42 -42
37z"/>
<path d="M8836 6648 c-27 -38 12 -81 53 -58 31 16 28 58 -5 70 -33 13 -30 13
-48 -12z"/>
<path d="M8774 6536 c-18 -46 45 -88 76 -51 22 26 -3 65 -40 65 -17 0 -33 -6
-36 -14z"/>
<path d="M8601 6409 c-27 -25 -24 -49 8 -66 46 -22 84 21 56 63 -19 29 -35 30
-64 3z"/>
<path d="M8744 6420 c-42 -16 -35 -74 10 -82 26 -5 47 11 59 44 10 27 -33 51
-69 38z"/>
<path d="M8538 6309 c-36 -21 -16 -79 27 -79 42 0 59 44 29 74 -18 18 -32 20
-56 5z"/>
<path d="M8678 6309 c-11 -6 -18 -22 -18 -39 0 -24 5 -31 27 -36 20 -6 31 -2
45 16 16 20 17 25 5 44 -17 25 -35 30 -59 15z"/>
<path d="M8832 6298 c-7 -7 -12 -23 -12 -36 0 -32 34 -26 38 7 5 29 -10 45
-26 29z"/>
<path d="M8740 6190 c-13 -24 -5 -56 14 -63 19 -7 59 15 62 34 3 24 -7 35 -38
43 -21 5 -30 2 -38 -14z"/>
<path d="M8815 6090 c-4 -12 -1 -28 6 -36 16 -20 53 -14 57 9 8 41 -51 66 -63
27z"/>
<path d="M989 9025 c-1 -3 -2 -8 -3 -12 -1 -5 -5 -14 -10 -22 -6 -10 -3 -18
10 -28 27 -20 49 -12 49 17 0 18 -6 26 -23 28 -12 2 -20 8 -17 13 4 5 4 9 1 9
-3 0 -7 -2 -7 -5z"/>
<path d="M2611 8139 c-15 -16 -18 -26 -11 -40 22 -40 90 -30 90 14 0 48 -45
62 -79 26z"/>
<path d="M1704 8125 c-8 -32 7 -49 36 -40 30 9 25 59 -7 63 -17 3 -24 -3 -29
-23z"/>
<path d="M2483 8143 c-19 -7 -16 -51 5 -61 28 -14 65 1 73 30 5 19 3 28 -8 32
-17 7 -53 7 -70 -1z"/>
<path d="M2151 8043 c-26 -18 -27 -45 -2 -67 23 -21 56 -14 71 15 23 41 -29
80 -69 52z"/>
<path d="M2285 8044 c-9 -9 -15 -28 -13 -43 2 -20 9 -27 31 -29 16 -2 35 2 43
9 20 17 17 56 -5 69 -27 14 -37 13 -56 -6z"/>
<path d="M2414 8035 c-15 -23 -15 -27 0 -50 18 -28 34 -31 58 -12 35 26 19 87
-23 87 -10 0 -26 -11 -35 -25z"/>
<path d="M2575 8051 c-25 -5 -31 -11 -33 -38 -3 -27 1 -35 24 -45 23 -11 28
-10 45 11 34 42 14 82 -36 72z"/>
<path d="M1884 8036 c-12 -31 1 -51 32 -54 36 -4 50 18 34 49 -13 22 -58 26
-66 5z"/>
<path d="M2012 8033 c-15 -28 3 -63 32 -63 33 0 59 39 41 63 -16 22 -62 22
-73 0z"/>
<path d="M1764 8029 c-3 -6 0 -17 8 -25 12 -12 17 -12 32 -1 11 8 16 19 12 25
-9 15 -43 15 -52 1z"/>
<path d="M2079 7929 c-20 -20 -20 -22 -3 -40 26 -28 72 -25 80 6 7 27 -14 55
-40 55 -9 0 -25 -9 -37 -21z"/>
<path d="M2210 7930 c-15 -28 4 -60 34 -60 32 0 50 24 42 55 -5 20 -13 25 -36
25 -19 0 -33 -7 -40 -20z"/>
<path d="M2352 7938 c-30 -30 5 -83 46 -67 29 11 37 32 22 58 -12 23 -49 28
-68 9z"/>
<path d="M2487 7936 c-11 -9 -17 -24 -15 -38 2 -19 9 -23 37 -23 41 0 62 25
45 53 -14 22 -44 26 -67 8z"/>
<path d="M2612 7938 c-28 -28 -11 -64 36 -74 21 -4 43 27 40 55 -2 21 -9 27
-33 29 -17 2 -36 -3 -43 -10z"/>
<path d="M1962 7913 c4 -22 38 -30 49 -11 15 22 10 28 -22 28 -24 0 -30 -4
-27 -17z"/>
<path d="M2553 7835 c-41 -29 -23 -75 28 -75 37 0 55 24 43 58 -11 32 -40 39
-71 17z"/>
<path d="M2282 7828 c-30 -30 -2 -72 45 -66 21 2 29 9 31 27 6 40 -48 67 -76
39z"/>
<path d="M2414 7815 c-9 -38 2 -55 36 -55 24 0 33 6 40 26 13 34 -2 54 -41 54
-22 0 -30 -6 -35 -25z"/>
<path d="M2674 7816 c-10 -41 2 -58 37 -54 64 6 64 70 1 76 -26 3 -32 -1 -38
-22z"/>
<path d="M2140 7812 c0 -30 31 -51 58 -41 17 6 22 15 20 31 -2 19 -10 24 -40
26 -32 3 -38 0 -38 -16z"/>
<path d="M2498 7729 c-11 -6 -18 -22 -18 -39 0 -23 5 -31 25 -36 30 -7 51 8
58 42 7 36 -29 54 -65 33z"/>
<path d="M2622 7728 c-17 -17 -15 -53 3 -68 8 -7 12 -17 9 -22 -9 -14 38 14
53 32 17 21 16 41 -4 56 -22 17 -45 18 -61 2z"/>
<path d="M2758 7729 c-24 -13 -23 -40 3 -73 17 -21 24 -24 40 -15 11 5 25 21
31 33 21 48 -26 83 -74 55z"/>
<path d="M2355 7719 c-4 -5 -4 -21 -1 -35 5 -18 13 -24 36 -24 33 0 50 31 30
55 -14 17 -56 20 -65 4z"/>
<path d="M2557 7618 c-34 -19 -13 -68 29 -68 21 0 34 17 34 44 0 19 -43 36
-63 24z"/>
<path d="M2678 7613 c-19 -23 2 -67 33 -71 24 -3 59 19 59 37 0 35 -69 61 -92
34z"/>
<path d="M2835 7606 c-21 -21 -24 -29 -15 -46 12 -23 61 -28 78 -7 11 14 1 47
-21 66 -14 11 -20 9 -42 -13z"/>
<path d="M2444 7609 c-10 -17 13 -36 27 -22 12 12 4 33 -11 33 -5 0 -12 -5
-16 -11z"/>
<path d="M2613 7494 c-3 -8 -1 -20 5 -26 16 -16 42 -2 42 22 0 24 -38 28 -47
4z"/>
<path d="M2726 7495 c-32 -32 -8 -66 39 -57 26 5 71 47 58 55 -4 2 -24 7 -45
11 -26 5 -40 2 -52 -9z"/>
<path d="M2900 7404 c-20 -23 -1 -68 29 -72 29 -5 43 15 35 48 -9 40 -41 52
-64 24z"/>
<path d="M2798 7392 c-10 -2 -18 -12 -18 -23 0 -14 7 -19 25 -19 14 0 25 2 25
4 0 2 3 11 6 19 6 16 -12 25 -38 19z"/>
<path d="M3044 7185 c-7 -18 12 -45 31 -45 18 0 24 21 13 43 -11 21 -37 22
-44 2z"/>
<path d="M3121 7091 c-17 -11 -2 -41 20 -41 12 0 19 7 19 19 0 21 -21 33 -39
22z"/>
<path d="M4444 5869 c-3 -6 0 -17 7 -25 18 -17 44 -2 36 20 -7 18 -33 21 -43
5z"/>
<path d="M4640 5769 c-15 -27 12 -71 38 -62 43 15 48 43 14 71 -23 18 -40 15
-52 -9z"/>
<path d="M4735 5682 c-24 -5 -35 -20 -35 -49 0 -19 5 -23 34 -23 40 0 57 17
46 46 -10 27 -19 32 -45 26z"/>
<path d="M4837 5659 c-9 -32 2 -49 32 -49 33 0 51 17 51 47 0 20 -5 23 -39 23
-31 0 -40 -4 -44 -21z"/>
<path d="M4791 5561 c-35 -35 -5 -69 45 -51 20 8 25 16 22 38 -4 35 -39 41
-67 13z"/>
<path d="M4926 5558 c-20 -29 -20 -44 0 -52 47 -18 85 14 64 54 -14 26 -45 25
-64 -2z"/>
<path d="M5056 5564 c-19 -18 -20 -33 -3 -54 17 -22 57 -19 74 7 13 19 12 24
-6 42 -25 25 -44 27 -65 5z"/>
<path d="M4662 5557 c-16 -19 8 -50 34 -45 28 5 26 52 -2 56 -11 2 -26 -3 -32
-11z"/>
<path d="M4748 5473 c-42 -10 -33 -79 12 -85 16 -2 27 -1 24 3 -2 4 0 19 5 32
11 29 -12 56 -41 50z"/>
<path d="M5316 5470 c-58 -11 -77 -53 -30 -70 58 -22 94 -4 94 48 0 25 -15 30
-64 22z"/>
<path d="M4860 5455 c-15 -18 -10 -45 12 -58 21 -14 68 9 68 33 0 37 -55 55
-80 25z"/>
<path d="M4994 5456 c-10 -25 0 -58 22 -72 18 -12 23 -11 42 6 26 24 29 65 6
74 -28 11 -64 6 -70 -8z"/>
<path d="M5134 5456 c-3 -8 -4 -25 -2 -38 2 -18 10 -24 36 -26 27 -3 34 1 42
24 7 19 7 30 -1 40 -15 18 -68 18 -75 0z"/>
<path d="M4949 5357 c-29 -15 -36 -66 -10 -69 32 -3 55 3 63 15 25 39 -10 75
-53 54z"/>
<path d="M5208 5344 c-9 -19 -8 -28 7 -44 23 -25 71 -26 83 -2 11 20 -2 61
-20 63 -7 1 -23 3 -36 4 -17 2 -27 -5 -34 -21z"/>
<path d="M4790 5345 c-20 -24 -3 -55 31 -55 33 0 55 35 37 58 -14 16 -53 15
-68 -3z"/>
<path d="M5071 5346 c-12 -14 -5 -46 13 -58 18 -13 35 -9 56 12 16 16 18 25
10 40 -13 23 -62 27 -79 6z"/>
<path d="M4676 5335 c-7 -20 3 -45 19 -45 19 0 38 28 31 45 -7 19 -42 19 -50
0z"/>
<path d="M4864 5243 c-31 -32 -7 -70 41 -64 25 4 25 3 31 34 7 39 -43 59 -72
30z"/>
<path d="M5006 5238 c-27 -39 9 -71 58 -52 9 4 16 18 16 34 0 43 -48 55 -74
18z"/>
<path d="M5154 5239 c-26 -29 -14 -54 25 -52 40 2 55 14 47 41 -9 27 -51 34
-72 11z"/>
<path d="M4733 5243 c-18 -6 -16 -28 3 -44 20 -16 47 -1 49 27 1 19 -24 27
-52 17z"/>
<path d="M4812 5148 c-17 -17 -15 -56 4 -66 23 -13 53 14 47 39 -7 26 -37 41
-51 27z"/>
<path d="M5073 5149 c-13 -13 -5 -55 13 -70 20 -16 59 2 67 30 9 35 -53 67
-80 40z"/>
<path d="M4934 5135 c-4 -9 -1 -27 6 -40 12 -23 14 -23 42 -9 41 21 36 58 -10
62 -22 2 -34 -2 -38 -13z"/>
<path d="M5016 5047 c-11 -8 -17 -22 -14 -38 2 -20 8 -24 38 -24 32 0 35 3 38
33 2 17 -1 32 -7 32 -5 0 -15 2 -23 5 -7 3 -22 -1 -32 -8z"/>
<path d="M4714 5036 c-8 -21 14 -56 35 -56 29 0 45 25 31 49 -12 24 -58 29
-66 7z"/>
<path d="M4890 5037 c-16 -8 -25 -21 -26 -38 -1 -21 4 -25 28 -27 36 -3 61 39
37 63 -11 12 -19 12 -39 2z"/>
<path d="M4806 4918 c-14 -20 -14 -24 -1 -37 11 -12 19 -12 40 -3 31 14 43 41
24 53 -24 15 -47 10 -63 -13z"/>
<path d="M4942 4928 c-16 -16 -15 -43 1 -55 17 -14 61 0 65 20 7 37 -39 62
-66 35z"/>
<path d="M4872 4825 c0 -5 -4 -20 -7 -32 -6 -18 -2 -25 16 -32 30 -11 49 -4
59 23 12 32 -6 57 -39 54 -15 -1 -28 -7 -29 -13z"/>
<path d="M5005 4832 c-12 -12 -4 -70 10 -76 33 -12 61 19 50 54 -5 17 -49 33
-60 22z"/>
<path d="M4740 4809 c-13 -23 1 -49 26 -49 21 0 38 38 23 56 -16 20 -36 17
-49 -7z"/>
<path d="M4807 4712 c-22 -24 -21 -39 2 -52 37 -19 70 16 49 54 -12 21 -31 20
-51 -2z"/>
<path d="M4936 4709 c-11 -17 -12 -25 -3 -40 23 -37 63 -33 73 7 12 48 -41 73
-70 33z"/>
<path d="M4876 4598 c-28 -40 8 -72 55 -48 23 13 24 33 3 54 -21 22 -40 20
-58 -6z"/>
<path d="M4744 4595 c-9 -23 4 -47 23 -43 11 2 19 14 21 31 3 22 -1 27 -18 27
-11 0 -23 -7 -26 -15z"/>
<path d="M4801 4488 c-11 -29 4 -48 36 -48 27 0 47 37 31 58 -17 21 -58 15
-67 -10z"/>
<path d="M4880 4395 c-15 -18 -10 -45 12 -58 23 -15 48 8 48 44 0 24 -4 29
-24 29 -13 0 -29 -7 -36 -15z"/>
<path d="M4757 4393 c-22 -21 7 -71 30 -52 20 17 17 59 -5 59 -10 0 -22 -3
-25 -7z"/>
<path d="M4810 4285 c-20 -25 -8 -60 22 -63 22 -3 30 2 40 23 9 19 9 28 0 37
-18 18 -48 19 -62 3z"/>
<path d="M4770 4175 c-10 -12 -10 -18 0 -30 16 -20 36 -19 44 1 6 16 -9 44
-24 44 -4 0 -13 -7 -20 -15z"/>
<path d="M4822 4078 c-19 -19 -14 -56 8 -63 26 -8 50 11 50 40 0 32 -35 46
-58 23z"/>
<path d="M4785 3950 c-8 -13 4 -32 16 -25 12 8 12 35 0 35 -6 0 -13 -4 -16
-10z"/>
<path d="M4815 3859 c-4 -5 -4 -21 -1 -35 5 -17 13 -24 31 -24 29 0 47 27 34
52 -11 20 -54 24 -64 7z"/>
<path d="M4823 3634 c-10 -26 11 -49 43 -49 26 0 29 4 29 30 0 27 -4 30 -33
33 -23 2 -34 -2 -39 -14z"/>
<path d="M4820 3511 c0 -28 21 -37 36 -16 16 22 10 35 -17 35 -12 0 -19 -7
-19 -19z"/>
<path d="M4890 3442 c-36 -12 -41 -59 -7 -71 32 -12 47 -3 47 29 0 31 -18 50
-40 42z"/>
<path d="M4884 3205 c-7 -27 9 -55 31 -55 22 0 36 27 29 54 -9 36 -51 37 -60
1z"/>
<path d="M4927 3124 c-4 -4 -7 -20 -7 -35 0 -19 6 -30 21 -34 28 -9 41 6 37
41 -3 28 -34 45 -51 28z"/>
<path d="M4985 3006 c-19 -29 -10 -54 21 -62 47 -12 65 27 31 66 -22 26 -33
25 -52 -4z"/>
<path d="M4922 2898 c-19 -19 -14 -44 11 -55 19 -9 26 -8 36 9 25 39 -15 78
-47 46z"/>
<path d="M4992 2804 c-30 -21 -29 -52 2 -60 57 -14 86 32 41 62 -18 12 -24 11
-43 -2z"/>
<path d="M5030 2690 c-22 -41 12 -81 50 -60 22 12 32 37 25 61 -9 27 -61 26
-75 -1z"/>
<path d="M4900 2689 c0 -5 -4 -8 -9 -5 -18 12 2 -35 21 -49 34 -23 66 5 53 46
-7 21 -65 28 -65 8z"/>
<path d="M4855 2600 c-25 -9 -41 -30 -41 -49 1 -19 42 -33 54 -18 14 18 21 57
10 57 -5 0 -6 5 -3 10 7 11 7 12 -20 0z"/>
<path d="M4959 2583 c-5 -14 -7 -34 -3 -42 4 -9 7 -19 6 -23 -2 -9 48 9 65 24
19 16 16 46 -6 58 -32 17 -51 12 -62 -17z"/>
<path d="M4760 2476 c-7 -14 -10 -32 -7 -40 10 -25 46 -19 59 10 11 22 10 28
-7 40 -25 19 -30 18 -45 -10z"/>
<path d="M4246 1977 c-19 -14 -13 -47 9 -47 15 0 26 33 16 49 -5 8 -12 7 -25
-2z"/>
<path d="M4177 1873 c-4 -3 -7 -15 -7 -25 0 -29 44 -20 48 10 3 16 -2 22 -16
22 -10 0 -22 -3 -25 -7z"/>
<path d="M4118 1792 c-34 -7 -32 -62 3 -62 25 0 41 31 26 51 -7 8 -19 13 -29
11z"/>
<path d="M4050 1666 c0 -20 27 -40 33 -24 2 7 2 19 -1 26 -6 16 -32 15 -32 -2z"/>
<path d="M4006 1491 c-19 -21 -13 -47 14 -54 12 -3 22 3 30 19 24 45 -10 73
-44 35z"/>
<path d="M3953 1400 c-15 -6 -20 -15 -16 -29 6 -25 51 -29 60 -5 9 23 -18 44
-44 34z"/>
<path d="M3881 1297 c-25 -25 -2 -59 24 -37 8 7 15 18 15 25 0 18 -25 26 -39
12z"/>
<path d="M3997 1303 c-22 -22 7 -63 41 -57 6 1 17 2 22 3 16 2 12 27 -8 44
-19 18 -44 22 -55 10z"/>
<path d="M11532 1309 c-17 -6 -22 -15 -20 -31 5 -40 78 -32 78 8 0 20 -32 33
-58 23z"/>
<path d="M11672 1300 c-19 -8 -21 -13 -12 -30 12 -23 52 -27 69 -6 9 11 8 18
-4 30 -18 18 -21 18 -53 6z"/>
<path d="M11806 1303 c-3 -4 -6 -15 -6 -25 0 -13 8 -18 29 -18 40 0 48 26 11
38 -15 6 -31 8 -34 5z"/>
<path d="M11594 1203 c-18 -19 -18 -52 1 -59 23 -9 65 4 72 23 15 37 -43 66
-73 36z"/>
<path d="M11736 1207 c-11 -8 -17 -23 -14 -38 2 -19 9 -24 33 -24 23 0 32 6
39 27 5 15 8 29 5 32 -14 12 -48 14 -63 3z"/>
<path d="M11860 1205 c-14 -17 4 -65 25 -65 41 0 75 47 47 64 -21 12 -62 13
-72 1z"/>
<path d="M12006 1204 c-17 -44 6 -69 54 -57 25 7 28 58 4 67 -28 11 -52 6 -58
-10z"/>
<path d="M3100 1195 c-18 -22 -5 -45 27 -45 29 0 59 32 48 50 -9 15 -61 12
-75 -5z"/>
<path d="M11447 1204 c-13 -14 -7 -55 9 -61 30 -11 69 10 69 37 0 21 -5 25
-35 28 -20 2 -39 0 -43 -4z"/>
<path d="M12144 1195 c-15 -38 16 -56 57 -34 20 10 20 11 3 30 -20 23 -52 25
-60 4z"/>
<path d="M2970 1175 c-10 -12 -9 -16 3 -21 26 -10 62 0 65 19 3 13 -3 17 -26
17 -16 0 -35 -7 -42 -15z"/>
<path d="M12282 1159 c2 -6 8 -10 13 -10 5 0 11 4 13 10 2 6 -4 11 -13 11 -9
0 -15 -5 -13 -11z"/>
<path d="M2753 1081 c-6 -24 16 -51 43 -51 21 0 36 29 30 55 -5 21 -12 25 -37
23 -22 -2 -31 -8 -36 -27z"/>
<path d="M2902 1098 c-18 -18 -14 -46 7 -58 11 -5 22 -10 25 -10 13 0 36 49
30 64 -7 19 -45 21 -62 4z"/>
<path d="M3036 1094 c-19 -19 -19 -24 -1 -48 16 -22 59 -16 69 10 16 41 -36
71 -68 38z"/>
<path d="M3164 1085 c-8 -31 10 -55 41 -55 31 0 49 24 41 55 -5 21 -12 25 -41
25 -29 0 -36 -4 -41 -25z"/>
<path d="M11236 1089 c-14 -21 -14 -24 1 -41 33 -37 88 -14 81 34 -4 33 -60
38 -82 7z"/>
<path d="M11381 1096 c-7 -8 -11 -25 -9 -38 2 -19 9 -23 38 -23 33 0 35 2 35
35 0 30 -4 35 -26 38 -14 2 -31 -4 -38 -12z"/>
<path d="M11517 1104 c-4 -4 -7 -20 -7 -35 0 -22 6 -30 26 -35 35 -9 74 27 58
54 -11 17 -64 29 -77 16z"/>
<path d="M11652 1086 c-9 -19 -7 -28 9 -45 21 -23 28 -25 45 -13 21 14 33 46
23 64 -15 27 -63 23 -77 -6z"/>
<path d="M11802 1094 c-18 -12 -20 -18 -10 -39 19 -42 83 -29 76 15 -4 30 -39
43 -66 24z"/>
<path d="M11930 1090 c-14 -26 7 -60 37 -60 30 0 55 37 42 62 -13 25 -65 24
-79 -2z"/>
<path d="M12080 1084 c-13 -33 2 -54 36 -54 30 0 51 44 33 66 -20 24 -58 17
-69 -12z"/>
<path d="M12224 1096 c-13 -33 0 -51 36 -51 32 0 35 2 35 30 0 27 -4 30 -33
33 -22 2 -34 -2 -38 -12z"/>
<path d="M12364 1085 c-13 -20 -14 -28 -4 -40 7 -8 22 -15 33 -15 38 0 64 61
31 74 -29 11 -43 6 -60 -19z"/>
<path d="M12502 1088 c-30 -30 3 -68 43 -50 20 9 23 15 16 34 -9 26 -40 35
-59 16z"/>
<path d="M2840 997 c-29 -15 -34 -28 -18 -50 20 -27 55 -29 72 -5 27 38 -11
76 -54 55z"/>
<path d="M2990 1000 c-20 -5 -25 -12 -25 -35 0 -27 3 -30 34 -30 25 0 36 5 42
22 10 29 -17 52 -51 43z"/>
<path d="M11169 988 c-17 -32 -7 -63 22 -66 32 -4 61 23 57 51 -4 31 -65 42
-79 15z"/>
<path d="M11317 992 c-34 -37 -11 -76 40 -70 22 2 29 9 31 31 6 52 -38 76 -71
39z"/>
<path d="M11623 1002 c-33 -5 -45 -25 -33 -56 12 -32 43 -34 63 -5 14 19 13
56 -2 62 -3 2 -16 1 -28 -1z"/>
<path d="M11735 987 c-23 -33 -19 -56 12 -63 49 -13 73 59 26 77 -17 6 -26 3
-38 -14z"/>
<path d="M12020 997 c-42 -22 -32 -77 15 -77 30 0 49 24 41 54 -7 30 -26 38
-56 23z"/>
<path d="M12594 1002 c3 -5 -1 -12 -9 -16 -20 -7 -20 -56 1 -56 9 0 12 -5 8
-12 -4 -7 5 -2 19 11 34 31 34 44 1 66 -15 9 -24 13 -20 7z"/>
<path d="M2703 994 c-22 -9 -16 -55 8 -61 16 -4 17 -8 7 -14 -9 -6 -9 -9 -1
-9 41 0 58 83 18 87 -11 1 -26 -1 -32 -3z"/>
<path d="M3100 980 c-20 -38 20 -76 56 -52 15 9 21 43 11 60 -13 19 -55 14
-67 -8z"/>
<path d="M3235 980 c-11 -34 4 -60 34 -60 33 0 51 16 51 46 0 37 -74 50 -85
14z"/>
<path d="M3376 979 c-18 -27 -11 -47 20 -55 43 -11 81 46 44 66 -29 15 -47 12
-64 -11z"/>
<path d="M3520 986 c-6 -8 -10 -25 -8 -38 2 -18 10 -24 36 -26 26 -3 34 1 41
20 5 13 5 30 -1 41 -11 21 -51 22 -68 3z"/>
<path d="M11027 993 c-13 -13 -7 -61 9 -67 31 -12 55 -6 66 18 16 37 4 56 -35
56 -19 0 -37 -3 -40 -7z"/>
<path d="M11454 986 c-12 -31 1 -51 33 -54 27 -3 33 1 39 22 3 14 3 30 -1 35
-9 16 -65 13 -71 -3z"/>
<path d="M11864 986 c-11 -30 1 -61 24 -64 30 -4 52 14 52 43 0 34 -64 51 -76
21z"/>
<path d="M12138 982 c-3 -10 -1 -28 3 -40 15 -39 79 -23 79 20 0 35 -74 53
-82 20z"/>
<path d="M12290 985 c-18 -22 12 -65 42 -60 39 8 51 47 19 65 -27 14 -46 13
-61 -5z"/>
<path d="M12440 986 c-16 -21 -9 -60 13 -64 21 -4 56 23 53 41 -5 37 -43 50
-66 23z"/>
<path d="M3173 873 c-13 -19 -13 -26 -3 -39 29 -34 98 5 74 43 -16 25 -53 23
-71 -4z"/>
<path d="M4032 892 c-28 -4 -48 -48 -31 -68 6 -8 24 -14 39 -14 22 0 30 6 38
29 8 24 7 32 -6 43 -9 8 -27 12 -40 10z"/>
<path d="M4160 887 c-50 -25 -30 -82 27 -75 22 2 29 9 31 29 2 15 -5 32 -15
42 -16 13 -23 14 -43 4z"/>
<path d="M10822 890 c-34 -14 -44 -50 -18 -71 37 -30 86 -6 86 42 0 16 -4 29
-9 29 -5 0 -15 2 -23 4 -7 3 -23 1 -36 -4z"/>
<path d="M10973 889 c-41 -15 -27 -79 17 -79 28 0 40 15 40 50 0 25 -29 40
-57 29z"/>
<path d="M11094 885 c-10 -25 5 -63 26 -70 26 -8 60 11 60 34 0 40 -73 70 -86
36z"/>
<path d="M11248 889 c-32 -18 -11 -79 27 -79 21 0 45 29 45 55 0 33 -37 45
-72 24z"/>
<path d="M11551 891 c-31 -8 -45 -45 -25 -65 22 -23 74 1 74 34 0 25 -21 38
-49 31z"/>
<path d="M2895 870 c-8 -26 11 -50 40 -50 32 0 49 23 35 49 -15 29 -66 29 -75
1z"/>
<path d="M3034 863 c-8 -28 0 -40 31 -45 33 -7 56 19 44 50 -12 31 -67 28 -75
-5z"/>
<path d="M3307 884 c-12 -12 -8 -51 7 -64 35 -28 93 11 70 48 -11 17 -64 29
-77 16z"/>
<path d="M3453 883 c-24 -9 -15 -53 13 -65 23 -11 29 -10 44 10 25 30 15 62
-19 61 -14 0 -32 -3 -38 -6z"/>
<path d="M3590 865 c-12 -22 -12 -28 1 -40 25 -24 52 -22 66 7 18 35 7 58 -26
58 -19 0 -32 -8 -41 -25z"/>
<path d="M3721 868 c-11 -30 4 -58 32 -58 29 0 47 18 47 46 0 39 -65 48 -79
12z"/>
<path d="M3851 872 c-7 -14 -6 -25 5 -41 30 -42 105 -7 78 37 -16 25 -70 28
-83 4z"/>
<path d="M11374 876 c-10 -27 1 -51 30 -61 24 -8 31 -6 46 13 29 35 15 62 -31
62 -25 0 -42 -5 -45 -14z"/>
<path d="M11660 870 c-14 -26 3 -60 30 -60 28 0 56 45 40 65 -18 21 -57 19
-70 -5z"/>
<path d="M11794 865 c-5 -19 -1 -32 12 -46 18 -18 21 -18 42 -3 16 11 22 24
20 42 -2 22 -9 28 -35 30 -28 3 -33 -1 -39 -23z"/>
<path d="M11942 878 c-19 -19 -14 -45 10 -62 17 -12 25 -13 36 -4 23 20 35 60
20 70 -19 12 -52 10 -66 -4z"/>
<path d="M12074 876 c-10 -27 1 -49 28 -57 32 -8 51 9 46 43 -2 18 -10 24 -36
26 -22 2 -34 -2 -38 -12z"/>
<path d="M12221 860 c-14 -42 26 -69 57 -38 13 13 16 57 5 59 -44 8 -53 5 -62
-21z"/>
<path d="M12360 875 c-16 -19 -9 -49 13 -53 37 -7 67 7 67 32 0 36 -56 50 -80
21z"/>
<path d="M10724 772 c-8 -8 -14 -26 -12 -41 3 -22 8 -26 40 -29 29 -2 39 1 48
18 6 11 8 29 5 39 -7 24 -62 33 -81 13z"/>
<path d="M11176 771 c-9 -10 -16 -24 -16 -32 0 -39 61 -54 80 -20 13 25 5 46
-25 59 -18 9 -26 7 -39 -7z"/>
<path d="M3385 764 c-11 -12 -12 -20 -4 -35 14 -27 72 -23 77 5 7 35 -46 57
-73 30z"/>
<path d="M3520 761 c-20 -39 22 -82 60 -61 25 13 28 65 4 74 -29 11 -53 6 -64
-13z"/>
<path d="M3662 764 c-5 -9 -7 -27 -4 -40 4 -21 9 -25 36 -22 23 2 33 10 40 31
8 22 7 30 -4 37 -23 15 -58 12 -68 -6z"/>
<path d="M3802 771 c-8 -5 -12 -21 -10 -37 3 -25 7 -29 33 -29 39 0 65 43 38
63 -19 14 -42 15 -61 3z"/>
<path d="M3932 768 c-30 -30 -2 -72 44 -66 31 3 49 42 31 66 -12 15 -59 16
-75 0z"/>
<path d="M4066 758 c-28 -39 19 -82 64 -58 20 11 25 35 14 64 -9 24 -60 20
-78 -6z"/>
<path d="M4208 756 c-14 -33 -4 -56 26 -56 39 0 56 11 56 36 0 44 -63 60 -82
20z"/>
<path d="M10448 773 c-24 -6 -23 -54 1 -74 23 -20 48 -8 62 28 16 42 -10 60
-63 46z"/>
<path d="M10577 765 c-11 -11 -14 -22 -8 -38 11 -28 68 -31 85 -4 25 39 -43
76 -77 42z"/>
<path d="M10885 768 c-19 -58 1 -86 50 -68 20 8 25 16 25 45 0 33 -2 35 -35
35 -20 0 -38 -6 -40 -12z"/>
<path d="M11016 758 c-8 -32 -8 -33 12 -56 18 -20 20 -20 43 -5 42 29 47 43
23 67 -24 25 -70 21 -78 -6z"/>
<path d="M11312 768 c-7 -7 -12 -19 -12 -28 0 -23 35 -52 57 -48 25 5 44 47
32 70 -11 21 -59 24 -77 6z"/>
<path d="M11464 772 c-15 -9 -21 -43 -11 -59 11 -18 66 -16 73 2 11 29 -5 65
-29 65 -12 0 -27 -4 -33 -8z"/>
<path d="M11736 764 c-19 -18 -19 -16 -7 -48 9 -21 14 -23 38 -17 21 5 29 14
31 36 5 42 -32 60 -62 29z"/>
<path d="M11864 766 c-11 -30 1 -61 24 -64 49 -7 76 59 30 72 -35 9 -48 7 -54
-8z"/>
<path d="M12024 770 c-31 -12 -36 -24 -19 -46 13 -17 16 -18 41 -4 15 8 29 20
31 27 6 17 -29 32 -53 23z"/>
<path d="M3250 750 c0 -17 5 -21 28 -18 16 2 27 9 27 18 0 9 -11 16 -27 18
-23 3 -28 -1 -28 -18z"/>
<path d="M11594 756 c-12 -31 1 -51 33 -54 27 -3 33 1 39 22 3 14 3 30 -1 35
-9 16 -65 13 -71 -3z"/>
<path d="M10086 667 c-12 -9 -17 -23 -14 -42 3 -26 8 -30 37 -33 39 -4 48 3
55 41 7 41 -40 62 -78 34z"/>
<path d="M10370 660 c-19 -19 -20 -24 -7 -43 19 -29 65 -29 83 -1 29 42 -39
81 -76 44z"/>
<path d="M3871 659 c-20 -8 -21 -12 -10 -25 14 -17 60 -15 66 3 6 18 -29 32
-56 22z"/>
<path d="M4001 656 c-11 -13 -6 -45 8 -47 31 -6 55 -1 64 13 23 35 -44 67 -72
34z"/>
<path d="M4142 658 c-30 -30 0 -75 43 -64 29 7 48 44 33 64 -13 15 -60 16 -76
0z"/>
<path d="M4276 658 c-12 -36 -12 -44 0 -55 17 -17 45 -16 80 2 25 13 30 13 44
0 28 -25 76 -16 80 15 6 39 0 46 -40 48 -35 3 -41 -1 -50 -23 -12 -31 -22 -32
-35 -2 -12 26 -72 37 -79 15z"/>
<path d="M10210 650 c-16 -31 13 -62 53 -58 66 7 60 70 -6 76 -28 2 -38 -1
-47 -18z"/>
<path d="M10504 656 c-13 -33 0 -61 29 -64 37 -4 59 15 55 47 -3 22 -9 26 -41
29 -26 2 -39 -1 -43 -12z"/>
<path d="M10651 656 c-20 -24 -10 -60 17 -64 30 -4 64 26 60 52 -4 26 -58 35
-77 12z"/>
<path d="M10812 662 c-22 -15 -23 -51 0 -63 43 -23 104 24 76 59 -12 14 -56
16 -76 4z"/>
<path d="M10953 653 c-3 -10 -8 -21 -10 -25 -5 -10 26 -38 43 -38 18 0 47 34
49 58 2 26 -72 31 -82 5z"/>
<path d="M11098 659 c-30 -17 -22 -47 15 -57 35 -10 47 -1 47 34 0 31 -30 42
-62 23z"/>
<path d="M11248 659 c-28 -16 -22 -48 9 -55 20 -6 31 -2 45 16 30 37 -9 66
-54 39z"/>
<path d="M11382 658 c-35 -35 9 -66 50 -36 24 17 26 21 14 34 -18 17 -48 18
-64 2z"/>
<path d="M4507 647 c-9 -24 16 -49 44 -45 18 2 24 9 24 28 0 21 -5 26 -31 28
-21 2 -33 -2 -37 -11z"/>
<path d="M11537 654 c-14 -14 -7 -25 13 -22 12 2 21 8 21 13 0 12 -24 18 -34
9z"/>
<path d="M9623 562 c-29 -4 -39 -38 -19 -61 29 -32 90 -8 84 32 -3 22 -32 35
-65 29z"/>
<path d="M9758 558 c-20 -7 -28 -16 -28 -33 0 -39 42 -55 72 -28 40 36 8 79
-44 61z"/>
<path d="M10008 545 c-15 -20 -15 -24 -2 -44 17 -24 32 -26 68 -10 48 22 40
56 -15 68 -29 7 -37 4 -51 -14z"/>
<path d="M10325 560 c-12 -4 -26 -14 -33 -22 -10 -12 -8 -19 9 -34 19 -17 23
-17 47 -3 15 8 28 21 30 29 4 21 -29 39 -53 30z"/>
<path d="M10597 558 c-34 -12 -30 -32 7 -36 36 -4 50 9 34 30 -10 12 -19 14
-41 6z"/>
<path d="M4580 545 c0 -8 5 -15 10 -15 6 0 10 7 10 15 0 8 -4 15 -10 15 -5 0
-10 -7 -10 -15z"/>
<path d="M4706 547 c-20 -15 -16 -21 25 -31 18 -4 31 -1 39 9 15 18 13 21 -20
30 -15 3 -33 0 -44 -8z"/>
<path d="M4834 545 c-9 -24 5 -35 45 -35 45 0 54 7 40 31 -12 23 -77 27 -85 4z"/>
<path d="M4987 545 c-22 -21 -21 -32 2 -45 31 -16 59 -12 75 12 18 26 12 35
-30 44 -22 4 -36 1 -47 -11z"/>
<path d="M9347 553 c-12 -11 -8 -50 6 -61 25 -21 89 30 72 58 -7 11 -68 14
-78 3z"/>
<path d="M9477 553 c-11 -10 -8 -48 4 -60 26 -26 94 25 75 56 -8 12 -68 15
-79 4z"/>
<path d="M9871 546 c-16 -19 -11 -46 12 -60 26 -16 72 12 72 44 0 21 -5 25
-36 28 -23 2 -40 -2 -48 -12z"/>
<path d="M10141 541 c-14 -26 22 -64 52 -55 32 9 47 24 47 44 0 34 -82 43 -99
11z"/>
<path d="M10440 535 c0 -20 5 -25 24 -25 34 0 56 10 56 25 0 15 -22 25 -56 25
-19 0 -24 -5 -24 -25z"/>
<path d="M10731 547 c-15 -18 -6 -25 24 -19 14 2 25 11 25 18 0 18 -34 18 -49
1z"/>
<path d="M7265 437 c-19 -28 -3 -47 40 -47 36 0 51 19 32 43 -21 25 -56 27
-72 4z"/>
<path d="M7428 452 c-45 -6 -48 -62 -3 -62 36 0 55 10 55 30 0 24 -20 36 -52
32z"/>
<path d="M7669 444 c-18 -21 -6 -49 22 -52 28 -3 54 20 46 42 -7 19 -54 26
-68 10z"/>
<path d="M8100 452 c-31 -10 -40 -23 -29 -44 8 -15 19 -18 47 -16 31 3 37 7
37 27 0 25 -28 42 -55 33z"/>
<path d="M8390 450 c-29 -7 -34 -37 -9 -53 24 -15 69 0 69 23 0 25 -28 39 -60
30z"/>
<path d="M8666 448 c-9 -5 -16 -18 -16 -28 0 -16 7 -20 34 -20 34 0 63 21 52
38 -9 14 -52 20 -70 10z"/>
<path d="M6297 444 c-14 -15 -6 -34 14 -34 14 0 19 5 17 17 -3 18 -20 27 -31
17z"/>
<path d="M6417 436 c-6 -15 11 -36 29 -36 21 0 35 25 22 38 -16 16 -45 15 -51
-2z"/>
<path d="M6568 443 c-22 -5 -23 -32 -2 -40 8 -3 24 -2 35 3 20 9 20 10 2 25
-10 9 -26 14 -35 12z"/>
<path d="M6694 435 c-8 -21 4 -35 31 -35 29 0 41 16 25 35 -16 19 -49 19 -56
0z"/>
<path d="M6824 435 c-9 -23 5 -35 40 -35 40 0 48 7 35 31 -12 23 -67 26 -75 4z"/>
<path d="M6971 432 c-17 -32 20 -53 63 -36 9 3 16 14 16 24 0 33 -63 42 -79
12z"/>
<path d="M7117 443 c-13 -12 -7 -41 9 -47 24 -9 38 -7 59 8 16 12 17 16 6 30
-13 16 -62 22 -74 9z"/>
<path d="M7534 435 c-10 -25 4 -45 29 -45 29 0 52 24 43 45 -7 20 -65 20 -72
0z"/>
<path d="M7791 428 c-10 -28 7 -41 46 -36 19 2 29 11 33 29 7 24 5 25 -32 28
-32 1 -40 -2 -47 -21z"/>
<path d="M7935 442 c-5 -4 -10 -14 -10 -22 0 -20 15 -30 46 -30 35 0 56 24 39
45 -13 16 -58 20 -75 7z"/>
<path d="M8222 433 c-14 -28 -3 -43 31 -43 44 0 61 13 52 39 -8 27 -70 30 -83
4z"/>
<path d="M8507 436 c-4 -9 0 -22 8 -30 21 -20 70 -6 70 20 0 25 -69 34 -78 10z"/>
<path d="M8840 440 c-8 -5 -25 -10 -37 -10 -13 0 -23 -4 -23 -9 0 -11 117 -19
132 -10 6 4 8 14 5 23 -7 18 -53 21 -77 6z"/>
<path d="M9007 443 c-17 -17 -6 -34 20 -31 36 4 45 38 10 38 -13 0 -27 -3 -30
-7z"/>
<path d="M9173 435 c-3 -9 -3 -18 -1 -21 9 -9 38 8 38 22 0 19 -29 18 -37 -1z"/>
<path d="M9325 440 c3 -5 10 -10 16 -10 5 0 9 5 9 10 0 6 -7 10 -16 10 -8 0
-12 -4 -9 -10z"/>
<path d="M6160 430 c0 -5 9 -10 20 -10 11 0 20 5 20 10 0 6 -9 10 -20 10 -11
0 -20 -4 -20 -10z"/>
</g>
</svg>
