<?xml version="1.0" standalone="no"?>
<!DOCTYPE svg PUBLIC "-//W3C//DTD SVG 20010904//EN"
 "http://www.w3.org/TR/2001/REC-SVG-20010904/DTD/svg10.dtd">
<svg version="1.0" xmlns="http://www.w3.org/2000/svg"
 width="1681.000000pt" height="1883.000000pt" viewBox="0 0 1681.000000 1883.000000"
 preserveAspectRatio="xMidYMid meet">
<metadata>
Created by potrace 1.16, written by Peter Selinger 2001-2019
</metadata>
<g transform="translate(0.000000,1883.000000) scale(0.100000,-0.100000)"
fill="#a7262a" stroke="none">
<path d="M8785 18416 c-156 -34 -369 -151 -529 -292 -141 -124 -315 -311 -441
-473 -22 -28 -43 -51 -47 -51 -5 0 -8 -5 -8 -10 0 -9 -74 -116 -89 -130 -3 -3
-12 -17 -20 -32 -8 -16 -18 -28 -23 -28 -4 0 -8 -6 -8 -14 0 -8 -3 -16 -8 -18
-4 -1 -23 -29 -42 -60 -19 -32 -38 -58 -42 -58 -4 0 -8 -7 -8 -15 0 -8 -4 -15
-8 -15 -4 0 -14 -16 -21 -35 -7 -19 -17 -35 -22 -35 -5 0 -9 -5 -9 -10 0 -6
-11 -27 -23 -48 -25 -40 -36 -58 -142 -252 -147 -267 -310 -648 -412 -965 -30
-94 -37 -104 -89 -145 -54 -43 -184 -163 -257 -237 -33 -34 -64 -60 -69 -57
-4 3 -5 -1 -2 -9 3 -8 -10 -27 -31 -46 -20 -17 -33 -31 -31 -31 3 0 -4 -10
-15 -22 -29 -32 -115 -149 -174 -238 -28 -41 -57 -80 -65 -87 -8 -7 -12 -13
-7 -13 4 0 -4 -18 -18 -40 -38 -60 -178 -343 -220 -445 -110 -267 -196 -568
-244 -860 -40 -246 -45 -317 -45 -605 1 -302 12 -428 58 -678 13 -70 26 -137
28 -150 3 -20 -4 -26 -52 -43 -206 -73 -362 -307 -399 -600 -10 -71 -1 -162
24 -274 22 -96 84 -227 144 -303 23 -28 41 -55 41 -60 0 -4 -13 -18 -29 -30
-147 -109 -614 -597 -852 -892 -51 -63 -99 -121 -106 -128 -7 -7 -13 -18 -13
-23 0 -6 -5 -7 -12 -3 -6 4 -8 3 -5 -2 5 -9 -27 -56 -84 -122 -10 -12 -19 -26
-19 -30 0 -4 -13 -22 -29 -40 -17 -17 -28 -32 -25 -32 7 0 -49 -74 -58 -78 -5
-2 -8 -8 -8 -13 0 -5 -46 -77 -101 -161 -56 -84 -111 -168 -123 -185 -11 -18
-24 -33 -28 -33 -5 0 -8 -6 -8 -14 0 -7 -29 -61 -65 -120 -36 -58 -65 -108
-65 -111 0 -3 -10 -22 -23 -43 -84 -134 -273 -516 -353 -714 -10 -25 -23 -44
-28 -41 -5 4 -6 2 -3 -4 3 -5 -18 -68 -47 -139 -29 -71 -72 -185 -96 -254 -24
-69 -46 -128 -50 -133 -7 -8 -64 133 -92 231 -74 255 -97 362 -122 557 -34
276 -39 373 -32 683 8 375 11 408 76 1027 61 579 70 693 76 1050 6 302 -3 537
-27 715 -22 158 -68 394 -93 473 -7 23 -19 62 -26 87 -16 59 -29 98 -45 135
-7 17 -30 70 -50 119 -84 207 -237 426 -385 557 -71 63 -197 151 -240 169 -16
7 -27 17 -23 23 3 6 1 7 -6 3 -6 -4 -17 -4 -24 2 -17 13 -91 41 -167 64 -290
86 -673 52 -945 -84 -108 -55 -248 -155 -335 -241 -98 -97 -168 -194 -231
-322 -24 -49 -48 -93 -54 -97 -5 -4 -7 -8 -3 -8 4 0 0 -19 -8 -42 -50 -142
-74 -288 -74 -466 0 -270 41 -444 205 -857 107 -272 140 -365 176 -505 62
-238 90 -417 110 -685 16 -226 8 -481 -31 -1020 -40 -546 -60 -989 -60 -1330
0 -456 33 -934 90 -1315 11 -74 25 -169 31 -210 28 -201 128 -655 213 -970 22
-84 130 -415 164 -505 44 -118 130 -332 158 -393 13 -29 24 -56 24 -60 0 -9
242 -495 250 -502 3 -3 34 -54 69 -115 56 -96 186 -302 209 -330 4 -5 23 -32
41 -60 19 -27 65 -91 103 -141 37 -50 68 -97 68 -103 0 -7 5 -9 10 -6 6 3 10
3 10 -2 0 -4 10 -20 23 -35 12 -14 38 -46 57 -70 64 -79 164 -192 230 -260 37
-38 65 -68 63 -68 -1 0 43 -43 100 -96 242 -227 605 -490 857 -620 41 -22 77
-42 78 -46 2 -5 8 -8 14 -8 6 0 36 -13 67 -29 82 -41 259 -117 354 -151 115
-42 116 -43 219 -143 51 -49 116 -107 145 -129 45 -35 53 -45 53 -74 0 -40 11
-48 67 -45 36 1 51 -5 83 -30 21 -17 44 -44 50 -60 13 -29 19 -33 83 -44 20
-3 37 -10 37 -16 0 -6 -4 -8 -9 -4 -13 7 -24 -30 -16 -55 12 -38 89 -37 90 1
1 19 26 13 46 -11 9 -11 35 -22 58 -26 39 -6 54 -25 31 -39 -16 -10 -12 -40 8
-58 26 -23 57 -21 82 5 20 22 22 22 53 6 17 -9 49 -24 70 -32 20 -8 37 -18 37
-21 0 -3 -4 -4 -10 0 -5 3 -13 -9 -18 -27 -8 -27 -6 -36 9 -49 26 -23 67 -13
84 22 17 31 40 30 50 -3 10 -30 50 -44 80 -28 22 12 33 11 78 -4 29 -10 58
-20 65 -22 10 -3 10 -9 -2 -32 -13 -26 -13 -31 2 -53 23 -34 62 -25 81 19 8
17 17 32 20 32 3 -1 15 -15 26 -33 25 -40 68 -48 96 -18 25 27 30 26 65 -4 32
-28 45 -30 61 -14 8 8 25 8 65 0 29 -7 63 -14 76 -17 18 -4 22 -11 22 -43 0
-49 21 -68 58 -55 19 7 28 18 32 39 7 42 41 41 52 -2 13 -52 74 -57 96 -8 16
34 34 31 63 -9 24 -33 25 -34 57 -21 17 8 32 19 32 25 0 5 7 10 16 10 19 0 66
-35 57 -43 -3 -4 10 -1 28 5 19 6 50 11 69 10 109 -3 402 -13 440 -16 25 -2
114 -4 199 -4 146 -2 153 -3 139 -19 -41 -47 -27 -84 32 -85 37 -1 50 14 50
58 0 36 13 44 68 44 30 -1 34 -3 19 -11 -27 -16 -47 -62 -33 -75 22 -21 67
-26 91 -10 20 13 22 20 15 50 -7 30 -5 35 14 40 49 13 87 0 56 -19 -12 -8 -13
-45 -1 -64 11 -18 71 -17 82 1 13 19 11 62 -3 76 -9 9 0 12 40 12 29 0 52 -2
52 -4 0 -2 -6 -16 -14 -32 -24 -46 7 -83 59 -70 29 7 44 50 27 77 -13 21 2 29
55 29 35 0 36 -1 19 -19 -36 -40 7 -100 58 -82 24 9 33 50 17 79 -10 19 12 19
1017 25 565 4 1065 9 1112 12 47 3 96 5 110 4 34 -2 66 -1 127 5 29 3 55 1 58
-4 10 -17 51 -11 70 10 18 19 38 22 63 7 7 -5 10 -13 7 -18 -3 -5 2 -6 11 -2
11 4 15 3 11 -4 -5 -8 3 -8 29 0 19 6 40 19 45 29 13 24 45 23 63 -3 16 -24
58 -28 81 -9 9 7 13 15 10 18 -6 6 25 42 36 42 5 0 15 -16 23 -35 13 -30 20
-35 49 -35 37 0 47 12 47 56 0 17 8 27 25 34 14 5 29 9 33 8 4 -1 23 2 42 5
19 4 57 9 85 11 32 3 54 11 63 23 15 20 43 19 55 -3 5 -8 24 -14 47 -14 42 0
46 5 41 58 -1 17 6 26 31 37 18 7 49 25 68 39 l34 26 21 -26 c26 -33 65 -28
83 10 9 20 7 27 -14 45 -36 31 -26 46 28 45 38 -1 48 2 58 21 10 18 9 28 -4
54 l-17 31 133 1 c213 2 405 16 414 30 9 15 51 10 58 -6 3 -9 18 -15 36 -15
24 0 35 7 48 29 9 17 30 33 48 39 32 9 32 9 22 -14 -17 -36 -4 -56 34 -52 25
2 36 10 47 32 12 25 11 30 -2 38 -20 10 -11 38 12 38 9 0 29 7 45 15 15 8 33
12 39 8 5 -3 7 -1 4 4 -4 6 0 16 7 23 12 9 18 6 31 -19 18 -35 44 -40 68 -13
21 23 21 36 2 65 -14 22 -13 24 16 41 17 10 34 28 40 39 18 41 50 92 67 105 9
6 13 12 10 12 -4 0 7 30 24 67 82 181 89 441 18 653 -24 73 -104 230 -132 260
-10 11 -16 20 -13 20 3 0 -27 34 -67 76 -40 42 -72 81 -70 86 1 5 -2 7 -7 3
-13 -8 -112 70 -103 80 4 5 2 5 -5 1 -7 -4 -20 1 -30 11 -24 23 -241 127 -313
149 -30 9 -64 21 -75 25 -11 4 -33 10 -50 12 -16 3 -70 12 -120 21 -49 9 -109
16 -132 16 -27 0 -41 4 -39 13 1 6 20 46 42 87 35 63 78 157 115 245 47 115
109 336 139 500 45 238 53 340 55 660 1 171 3 313 3 317 1 4 28 -5 60 -19 31
-14 75 -33 97 -43 22 -10 56 -21 75 -25 19 -4 41 -12 48 -17 6 -6 12 -8 12 -5
0 3 33 -4 73 -14 185 -49 499 -98 797 -124 336 -29 684 -38 969 -26 445 21
634 43 1036 125 116 24 400 131 434 164 7 7 21 10 29 7 9 -3 13 -3 9 1 -9 9
21 44 38 44 6 0 26 20 44 45 18 25 37 45 43 45 6 0 9 3 5 6 -3 3 7 29 21 57
l27 52 0 1035 c1 569 2 1504 3 2078 l2 1043 48 21 c26 11 52 21 59 21 7 0 10
4 7 9 -3 4 -1 8 4 8 39 0 112 130 112 198 0 42 5 51 49 97 57 59 80 114 88
207 11 133 -28 248 -112 330 l-55 53 16 65 c29 119 5 265 -58 357 -15 23 -28
47 -28 54 0 7 -3 10 -6 7 -3 -3 -19 8 -36 24 -17 17 -69 48 -115 70 l-83 40 0
45 c0 112 -57 245 -148 342 -33 35 -121 91 -182 115 -57 23 -167 47 -184 40
-17 -6 -46 22 -46 44 0 63 -109 251 -189 325 -48 44 -188 137 -207 137 -8 0
-14 5 -14 10 0 6 -6 10 -13 10 -8 0 -41 9 -75 20 -50 17 -88 20 -199 20 -76 0
-145 -1 -153 -3 -55 -12 -145 -44 -202 -72 -65 -34 -67 -34 -90 -16 -81 64
-211 106 -333 110 -49 1 -94 7 -99 12 -13 12 9 586 29 749 25 209 69 416 127
600 43 136 158 401 171 393 6 -3 7 -1 3 6 -4 6 12 45 37 89 210 363 305 587
353 837 23 116 26 449 5 540 -23 104 -72 258 -97 307 -13 26 -24 51 -23 54 0
4 -3 10 -8 13 -5 3 -29 33 -53 66 -115 158 -310 298 -510 365 -145 49 -227 62
-430 67 -185 5 -201 4 -315 -22 -139 -31 -307 -95 -403 -154 -103 -64 -107
-66 -112 -71 -3 -3 -32 -27 -65 -54 -123 -102 -253 -264 -335 -419 -14 -26
-28 -47 -31 -47 -5 0 -80 91 -142 172 -38 50 -226 235 -310 304 -152 128 -311
238 -437 303 -36 19 -70 38 -76 42 -7 6 -13 89 -18 226 -3 120 -9 238 -11 263
-3 25 -10 113 -15 195 -13 200 -43 444 -79 645 -81 449 -144 590 -301 684 -58
34 -94 42 -198 39 -177 -5 -387 -125 -592 -339 -41 -43 -79 -77 -83 -76 -5 1
-6 -1 -3 -6 3 -5 -8 -21 -23 -36 l-29 -28 -41 82 c-135 267 -205 372 -338 507
-72 72 -190 145 -291 180 -64 22 -97 27 -197 29 -71 2 -144 -2 -180 -10z m324
-151 c57 -20 151 -74 151 -86 0 -6 4 -8 9 -5 16 10 154 -140 223 -243 90 -135
162 -272 233 -441 31 -74 63 -148 70 -165 17 -41 82 -221 132 -365 30 -88 128
-428 163 -568 31 -124 28 -122 265 -178 336 -79 704 -233 965 -404 86 -56 149
-99 165 -112 11 -9 58 -47 105 -85 145 -115 410 -399 410 -439 0 -7 4 -14 8
-16 10 -4 80 -106 112 -163 114 -203 185 -382 233 -585 43 -178 49 -243 57
-595 7 -335 8 -341 34 -409 37 -96 104 -186 202 -268 46 -39 81 -75 78 -80 -3
-5 -2 -7 3 -6 14 5 73 -45 66 -55 -3 -6 -2 -7 4 -4 6 4 20 -4 32 -17 27 -29
23 -32 -54 -40 -65 -8 -179 -41 -209 -62 -55 -38 -73 -128 -38 -192 9 -18 42
-58 72 -90 31 -31 67 -79 80 -106 25 -50 94 -130 119 -138 19 -6 22 -50 10
-148 -12 -101 -23 -140 -47 -166 -9 -10 -28 -32 -40 -49 -24 -31 -128 -125
-177 -160 -16 -11 -33 -25 -39 -31 -24 -23 -107 -66 -177 -90 -133 -47 -272
-44 -419 8 -70 25 -108 48 -197 120 -39 32 -77 58 -84 58 -44 0 -65 -79 -31
-118 74 -84 246 -185 368 -216 72 -19 227 -21 305 -5 30 6 61 12 69 14 17 3
87 31 113 46 10 5 23 7 30 3 7 -4 9 -4 5 1 -7 7 94 75 112 75 4 0 15 9 25 20
10 11 25 20 33 20 9 0 13 3 9 6 -7 8 64 70 76 66 4 -1 6 1 3 6 -3 5 8 21 23
36 29 27 29 28 40 8 25 -46 3 -161 -28 -154 -7 1 -10 -2 -7 -7 4 -5 -4 -18
-17 -28 -18 -14 -73 -79 -125 -148 -4 -5 -14 -25 -21 -42 -7 -18 -16 -31 -20
-29 -3 2 -7 -10 -8 -26 -1 -17 -6 -35 -11 -42 -5 -6 -13 -37 -16 -68 -6 -49
-11 -59 -29 -62 -116 -21 -146 -29 -193 -50 -70 -32 -163 -121 -198 -189 -14
-29 -32 -82 -39 -116 -10 -45 -20 -68 -38 -82 -13 -10 -28 -19 -32 -19 -13 0
-137 -83 -137 -91 0 -4 -6 -14 -14 -21 -31 -32 -77 -130 -91 -194 -24 -112
-20 -182 14 -245 15 -30 27 -63 25 -73 -6 -41 -131 -116 -224 -135 -90 -17
-348 -41 -527 -47 -247 -10 -749 34 -998 86 -27 6 -78 15 -113 20 -34 6 -81
15 -105 21 -23 6 -62 14 -87 19 -244 45 -993 270 -1165 349 -11 5 -40 16 -65
24 -86 29 -278 105 -321 128 -24 13 -48 24 -54 25 -80 17 -756 362 -1030 526
-55 32 -109 65 -120 71 -103 60 -464 300 -492 326 -12 12 -25 21 -28 21 -11 0
-305 223 -370 281 -16 15 -71 63 -122 108 -111 98 -131 122 -139 170 -3 20
-10 50 -14 66 -5 17 -11 44 -14 60 -3 17 -10 48 -15 70 -13 51 -48 297 -56
395 -41 519 34 1056 215 1545 22 61 44 119 49 130 5 11 17 39 26 63 10 23 21
42 25 42 5 0 11 7 14 16 3 9 2 12 -5 9 -14 -9 50 118 65 127 6 4 7 8 3 8 -8 0
80 170 93 180 4 3 15 20 24 38 19 36 160 248 183 274 9 10 20 15 26 11 5 -3 7
-1 4 4 -9 14 32 65 45 57 7 -4 8 -2 4 5 -5 7 4 23 21 40 15 15 61 64 102 109
41 45 78 79 83 76 4 -3 8 0 8 6 0 6 4 9 9 6 5 -4 7 -20 5 -36 -2 -17 -6 -45
-9 -62 -22 -160 -18 -178 41 -178 42 0 38 -9 105 230 28 102 54 190 57 195 4
6 8 20 10 33 4 35 71 226 147 422 65 167 115 281 201 458 46 95 84 175 84 178
0 8 54 89 65 96 5 4 6 8 2 8 -8 0 28 67 42 80 4 3 7 11 9 18 5 27 177 290 185
285 5 -3 8 0 5 8 -3 8 14 40 36 73 90 129 99 141 105 146 4 3 14 18 24 33 10
15 23 25 29 21 7 -4 8 -3 4 5 -5 7 14 37 46 75 29 34 69 82 88 106 19 23 56
65 81 91 25 27 44 51 42 53 -2 2 4 9 14 17 14 12 16 12 8 0 -5 -10 -4 -12 3
-7 7 4 12 12 12 18 0 5 15 23 33 40 17 16 57 53 88 83 63 59 200 161 211 158
5 -2 8 2 8 8 0 5 5 7 10 4 6 -3 10 -2 10 4 0 25 171 97 280 117 79 16 210 10
269 -11z m1562 -309 c40 -17 89 -59 89 -75 0 -6 4 -11 9 -11 10 0 63 -116 66
-145 2 -18 -2 -20 -39 -17 -53 3 -111 -29 -147 -83 -100 -152 -224 -728 -246
-1147 l-6 -118 -41 6 c-61 9 -116 24 -117 32 -1 8 -2 15 -24 97 -9 33 -21 76
-26 95 -5 19 -23 80 -40 135 -16 55 -35 118 -41 140 -5 22 -14 49 -19 60 -4
11 -21 61 -38 110 -32 99 -62 182 -114 323 -31 82 -38 132 -18 132 4 0 26 27
50 60 24 33 47 60 52 60 4 0 11 9 14 21 4 11 9 18 12 15 3 -2 23 15 44 40 21
25 39 42 39 38 0 -4 9 5 20 19 47 60 239 186 323 212 57 18 157 18 198 1z
m2735 -2155 c93 -187 106 -479 32 -735 -23 -79 -18 -113 16 -122 53 -13 76 28
110 196 25 124 31 208 25 342 -6 130 -14 171 -52 290 -14 43 -18 71 -12 77 9
8 138 -7 198 -24 71 -19 186 -69 180 -78 -3 -6 -1 -7 6 -3 20 13 40 -13 60
-80 75 -239 69 -541 -14 -761 -14 -36 -25 -69 -25 -73 0 -17 32 -40 54 -40 35
0 54 29 85 126 29 89 33 109 52 214 10 58 13 295 4 343 -3 16 -7 53 -9 83 -4
48 -2 53 12 44 24 -13 82 -77 119 -130 107 -157 163 -360 163 -590 -1 -310
-66 -512 -304 -945 -76 -137 -166 -309 -166 -317 0 -4 -16 -42 -34 -85 -88
-200 -168 -514 -206 -808 -22 -164 -40 -466 -40 -655 0 -107 -4 -200 -8 -206
-4 -5 -27 -20 -52 -33 -25 -13 -54 -31 -66 -42 -20 -19 -21 -19 -80 5 -78 32
-183 56 -242 56 -26 0 -85 -7 -131 -15 -46 -8 -86 -13 -89 -10 -3 2 0 17 6 32
38 94 63 289 62 473 -1 91 -1 167 0 170 1 3 3 12 5 20 2 8 13 37 25 64 28 61
39 143 29 207 -16 99 -136 259 -273 364 -71 54 -126 108 -126 122 0 8 -4 12
-9 9 -11 -7 -86 76 -108 118 -43 82 -45 104 -53 426 -9 372 -20 463 -81 695
-48 183 -70 242 -161 427 -32 64 -58 123 -58 131 0 42 127 270 144 260 6 -3 8
-3 4 2 -14 15 146 210 163 199 5 -3 9 2 9 10 0 9 3 16 8 16 4 0 23 14 42 31
50 44 120 91 120 82 0 -4 6 -1 13 8 17 23 221 120 262 125 6 0 17 4 25 7 25
10 172 36 220 39 113 8 112 8 146 -61z m-11463 -2438 c38 -10 65 -22 60 -26
-4 -5 0 -5 9 -2 9 4 19 1 23 -4 3 -6 10 -9 15 -6 17 11 144 -51 245 -119 65
-43 214 -187 261 -251 16 -22 36 -48 45 -57 8 -10 24 -34 36 -55 11 -21 36
-65 54 -98 121 -211 221 -532 262 -835 33 -242 38 -295 44 -526 8 -323 -8
-578 -78 -1264 -74 -730 -73 -708 -73 -1140 -1 -454 8 -567 70 -880 38 -195
120 -457 185 -598 22 -46 36 -89 32 -95 -3 -5 -1 -7 4 -4 6 4 14 0 17 -9 10
-26 7 -34 -14 -34 -23 0 -27 -15 -6 -23 16 -6 12 -59 -5 -65 -5 -2 -9 -23 -9
-48 0 -39 -3 -44 -27 -50 -50 -12 -55 -22 -32 -64 26 -46 22 -98 -10 -160 -11
-22 -20 -50 -18 -62 1 -18 -4 -23 -28 -28 -38 -7 -46 -47 -15 -75 26 -23 25
-55 -2 -134 -15 -43 -29 -66 -44 -71 -42 -16 -41 -64 2 -74 22 -6 23 -10 18
-54 -4 -26 -18 -64 -32 -85 -21 -32 -24 -42 -14 -58 7 -10 12 -28 12 -39 0
-16 -5 -19 -28 -14 -34 7 -55 -14 -50 -48 2 -18 9 -23 33 -23 30 -1 30 -1 32
-61 1 -65 -1 -73 -32 -90 -29 -16 -31 -54 -4 -75 19 -14 22 -25 20 -70 -1 -35
-9 -61 -20 -74 -22 -24 -34 -55 -21 -55 41 0 53 -91 19 -146 -19 -31 -19 -35
-4 -64 18 -35 12 -54 -15 -45 -18 6 -50 -18 -50 -36 0 -25 23 -50 43 -49 41 4
42 1 39 -62 -3 -53 -8 -66 -29 -84 -31 -25 -26 -65 10 -81 16 -8 23 -20 25
-44 1 -19 5 -42 8 -51 3 -12 -4 -22 -25 -32 -35 -19 -41 -32 -29 -68 7 -20 16
-27 31 -25 17 2 22 -6 30 -41 11 -55 5 -70 -30 -74 -22 -2 -29 -9 -31 -31 -5
-45 21 -65 56 -44 17 11 24 -12 13 -48 -6 -22 -4 -38 9 -60 10 -16 20 -49 23
-72 3 -35 0 -46 -19 -64 -31 -29 -30 -39 6 -69 25 -20 32 -35 37 -77 5 -47 4
-53 -12 -53 -21 0 -55 -28 -55 -45 0 -7 8 -19 19 -29 14 -13 24 -14 44 -7 32
12 42 1 22 -25 -17 -23 -19 -60 -4 -70 17 -10 49 -85 49 -115 0 -35 -34 -66
-54 -50 -9 7 -39 11 -78 9 l-63 -3 0 -35 c0 -40 24 -52 51 -26 8 9 30 16 48
16 17 0 37 5 42 10 17 17 72 -20 83 -55 19 -59 18 -89 -4 -93 -48 -9 -61 -55
-25 -87 20 -18 21 -18 50 4 25 18 30 19 30 6 0 -9 -9 -29 -21 -44 -28 -37 -18
-68 24 -79 20 -6 31 -14 28 -23 -13 -47 -12 -61 3 -72 19 -14 66 -121 66 -149
0 -10 -5 -18 -11 -18 -5 0 -7 4 -4 10 3 5 0 7 -8 4 -8 -3 -18 -1 -21 4 -7 12
-58 0 -63 -14 -5 -15 36 -64 53 -64 10 0 13 -7 8 -24 -9 -36 12 -66 46 -66 16
0 32 5 35 10 8 13 25 13 25 0 0 -6 -9 -24 -21 -39 -17 -23 -19 -32 -10 -50 7
-11 24 -24 39 -27 40 -10 41 -12 31 -46 -8 -29 -6 -34 26 -61 19 -16 35 -35
35 -43 0 -8 7 -26 16 -39 15 -23 15 -24 -25 -35 -49 -13 -65 -48 -36 -80 24
-27 47 -25 75 5 28 29 36 31 44 8 5 -11 -4 -26 -24 -45 -34 -31 -37 -63 -8
-82 12 -7 24 -6 42 3 13 8 32 11 41 7 15 -5 11 -12 -20 -47 -54 -60 -40 -87
37 -67 18 4 31 2 39 -8 14 -17 14 -16 -30 -39 -28 -14 -35 -14 -42 -3 -5 7 -9
15 -9 18 0 3 -15 6 -34 7 -27 2 -39 -3 -55 -23 -51 -65 -9 -98 73 -58 36 17
36 17 36 -1 0 -22 27 -18 40 5 12 22 54 27 67 8 20 -33 10 -43 -53 -52 -26 -4
-32 -55 -8 -73 28 -21 61 -15 84 14 l22 28 16 -24 c24 -35 23 -48 -3 -44 -51
10 -78 -73 -30 -95 21 -10 29 -8 54 13 35 30 43 31 59 4 8 -12 9 -18 3 -14 -6
3 -11 2 -11 -2 0 -5 -12 -10 -27 -11 -46 -4 -59 -54 -23 -87 25 -23 21 -27
-30 -29 -47 -3 -59 8 -36 33 9 10 16 30 16 44 0 25 -3 27 -44 27 -42 0 -73
-18 -58 -35 4 -5 1 -5 -5 -1 -7 4 -13 14 -13 22 0 15 -11 17 -71 14 -41 -2
-56 12 -34 30 19 16 19 64 0 80 -19 15 -65 5 -65 -15 0 -8 -5 -15 -11 -15 -6
0 -8 -7 -5 -16 4 -9 -13 0 -36 20 -61 53 -65 55 -71 49 -4 -3 -1 11 4 32 13
47 6 65 -25 65 -19 0 -23 4 -19 20 8 31 -38 48 -71 26 -34 -22 -52 -20 -70 6
-14 20 -14 22 7 32 28 15 34 46 11 63 -26 19 -54 16 -80 -8 l-22 -20 -35 31
c-20 17 -44 48 -54 68 -12 25 -28 40 -50 47 -43 14 -47 19 -32 43 22 36 5 54
-48 50 -49 -3 -62 10 -40 40 15 19 -12 45 -42 38 -22 -4 -36 6 -93 67 -38 39
-68 74 -68 77 0 3 -25 32 -56 65 -60 64 -175 209 -194 246 -7 12 -21 31 -31
42 -27 29 -119 165 -119 176 0 5 -4 11 -9 13 -15 5 -187 285 -233 378 -12 25
-26 47 -30 48 -4 2 -8 12 -8 22 0 10 -5 22 -10 25 -6 4 -21 28 -34 53 -13 26
-45 90 -71 142 -26 52 -48 101 -48 108 0 6 -4 12 -7 12 -9 0 -47 85 -52 115
-1 11 -8 25 -14 32 -19 20 -85 195 -80 210 3 8 2 12 -3 9 -13 -9 -112 257
-191 514 -47 152 -157 581 -170 659 -4 31 -15 85 -24 121 -66 281 -132 811
-162 1295 -24 401 -14 1024 26 1560 5 77 17 241 25 365 8 124 19 289 25 366
29 405 -8 875 -96 1234 -36 147 -108 360 -204 599 -114 283 -149 403 -179 599
-14 90 -14 269 -1 385 14 118 103 351 170 443 8 12 22 32 30 44 43 65 156 191
181 202 16 7 29 17 29 22 0 4 7 5 16 2 8 -3 12 -2 9 3 -5 10 54 61 70 61 4 0
22 11 39 24 37 28 108 65 133 69 10 1 23 5 28 8 16 10 112 41 200 65 71 20 98
22 250 19 124 -3 189 -9 238 -22z m10967 -1303 c-11 -74 -30 -118 -30 -72 0
30 32 164 37 158 3 -3 0 -41 -7 -86z m1177 -326 c34 -15 59 -32 56 -37 -4 -6
0 -8 10 -4 10 4 28 -7 51 -34 20 -21 42 -39 49 -39 7 0 29 11 50 25 20 14 37
23 37 20 0 -3 9 4 21 16 11 11 27 18 35 15 8 -3 13 -2 10 3 -3 5 31 19 77 31
86 24 234 32 314 17 54 -9 154 -52 218 -92 96 -61 218 -207 198 -237 -3 -6 -1
-8 4 -5 13 8 42 -77 50 -142 3 -25 12 -56 20 -69 12 -20 19 -22 46 -15 157 40
363 -64 441 -223 37 -76 56 -227 31 -253 -13 -13 20 -40 57 -46 55 -9 118 -34
118 -47 0 -5 4 -7 9 -4 15 10 111 -92 133 -142 17 -36 22 -67 23 -132 0 -75
-4 -93 -27 -139 -34 -64 -35 -79 -5 -90 35 -13 147 -126 147 -148 0 -10 4 -23
9 -28 5 -6 15 -38 22 -72 19 -94 -2 -152 -81 -224 l-60 -54 6 -51 c4 -29 1
-66 -5 -86 -13 -38 -68 -101 -82 -92 -5 3 -9 2 -9 -3 0 -10 -85 -16 -110 -8
-15 5 -17 11 -10 30 5 12 6 26 3 29 -12 12 -54 6 -59 -8 -8 -20 -45 -11 -67
16 -44 56 -81 158 -57 158 6 0 8 -5 4 -11 -4 -8 0 -8 15 0 26 14 26 22 1 44
-11 9 -20 12 -20 7 0 -6 -4 -10 -9 -10 -8 0 -8 6 5 93 5 33 2 67 -11 113 -9
35 -15 77 -12 93 5 22 0 34 -21 53 -50 47 -62 49 -111 20 -29 -17 -59 -26 -90
-26 -53 -1 -199 32 -221 50 -26 20 -78 44 -98 44 -10 0 -27 -9 -37 -20 -17
-19 -97 -70 -110 -70 -3 0 -3 5 1 12 4 7 3 8 -4 4 -6 -4 -21 -2 -32 4 -17 9
-22 7 -30 -15 -8 -21 -16 -25 -50 -25 -22 0 -39 3 -38 8 4 16 -14 52 -26 52
-8 0 -20 -10 -28 -22 l-14 -21 -48 19 c-26 10 -55 26 -64 34 -9 9 -32 22 -50
29 -27 11 -38 12 -60 1 -15 -8 -31 -12 -37 -11 -5 2 -7 -1 -3 -5 11 -11 -80
-71 -142 -95 -67 -25 -146 -22 -208 10 -23 12 -50 21 -60 21 -26 0 -46 -42
-38 -77 21 -86 26 -136 21 -203 -16 -204 -42 -266 -149 -359 -47 -41 -47 -41
-78 -25 -33 17 -42 13 -62 -28 -7 -14 -22 -24 -38 -26 -23 -3 -27 1 -30 25 -2
24 -8 28 -33 28 -21 0 -31 -6 -35 -20 -7 -29 -52 -27 -65 3 -5 13 -21 25 -35
28 -14 3 -35 7 -48 10 l-23 5 25 29 c32 39 25 70 -15 70 -22 0 -32 -6 -38 -22
-5 -13 -6 -27 -3 -33 2 -5 -2 -3 -11 5 -54 53 -86 174 -87 326 l0 81 -41 36
c-22 21 -44 37 -49 37 -5 0 -22 -11 -38 -25 -16 -13 -33 -21 -37 -17 -5 4 -5
2 -1 -5 8 -14 -27 -36 -39 -25 -5 4 -5 2 -2 -4 11 -20 -95 -54 -168 -54 -99 0
-201 51 -272 135 l-37 45 -62 -6 c-53 -6 -68 -3 -102 16 -23 13 -39 27 -36 31
3 5 -2 6 -10 3 -9 -3 -19 4 -27 18 -20 37 -18 59 8 69 28 10 30 35 4 49 -16 8
-23 5 -41 -17 l-20 -26 -12 31 c-10 25 -18 32 -39 32 -21 0 -29 -7 -38 -30
-13 -39 -56 -42 -73 -6 -16 37 -36 39 -64 9 -25 -27 -25 -27 -31 -5 -4 17 -10
21 -30 16 -41 -11 -108 23 -159 79 -50 55 -67 88 -58 111 3 8 -4 24 -17 37
-20 20 -21 29 -16 95 7 88 40 167 94 225 59 63 104 82 205 87 96 5 91 1 103
79 6 35 4 44 -10 50 -12 4 -23 -2 -35 -17 -20 -26 -40 -19 -40 14 0 84 71 196
150 236 58 30 142 47 211 45 93 -4 101 3 93 75 -5 45 -2 74 14 127 25 80 97
197 117 189 9 -3 12 0 9 9 -5 13 61 85 78 85 4 0 16 8 27 19 10 10 56 33 102
51 73 29 96 33 174 33 101 0 198 -17 219 -38 7 -8 16 -12 18 -9 3 2 11 -2 18
-11 10 -12 9 -16 -4 -21 -23 -9 -20 -41 4 -49 24 -7 50 10 50 32 0 11 7 14 25
11 19 -4 34 3 58 27 56 56 147 103 227 119 14 2 68 3 120 1 79 -2 106 -7 157
-31z m-8490 -937 c10 -12 69 -64 131 -115 63 -53 109 -98 106 -104 -4 -7 -2
-8 5 -4 7 5 45 -16 94 -52 45 -33 132 -92 192 -132 61 -40 112 -76 115 -79 5
-6 136 -87 195 -121 17 -9 55 -32 85 -50 80 -48 116 -68 200 -113 41 -22 80
-43 85 -48 18 -13 564 -284 655 -324 47 -21 109 -48 138 -61 29 -13 55 -24 59
-24 10 0 146 -62 161 -74 8 -5 21 -11 30 -12 10 -1 53 -16 97 -34 73 -29 174
-66 370 -138 274 -99 861 -267 1055 -302 25 -5 77 -16 115 -25 113 -25 254
-45 335 -45 41 0 116 -7 165 -15 53 -9 156 -15 250 -15 89 0 244 -9 350 -20
224 -24 446 -26 548 -6 40 8 119 17 177 21 110 7 181 20 267 51 29 10 55 15
59 11 12 -12 -25 -67 -87 -131 -44 -44 -65 -75 -84 -127 -15 -38 -32 -69 -38
-69 -5 0 -8 -3 -4 -6 3 -4 0 -19 -8 -35 -8 -15 -19 -56 -25 -91 -40 -260 -43
-274 -59 -270 -7 1 -10 -2 -6 -7 3 -6 -7 -17 -23 -25 -56 -29 -360 -115 -463
-131 -57 -9 -133 -21 -169 -27 -98 -15 -321 -13 -430 6 -99 17 -258 54 -275
64 -5 3 -20 7 -33 8 -36 4 -172 71 -172 85 0 7 -3 10 -6 6 -4 -3 -25 7 -48 22
-52 36 -112 54 -137 40 -55 -29 -60 -96 -11 -141 52 -48 178 -123 267 -158 21
-9 237 -63 345 -86 36 -8 145 -17 242 -21 189 -6 274 2 533 53 169 33 507 148
689 233 44 21 135 55 201 76 66 21 130 45 142 52 34 22 423 19 466 -4 71 -36
179 -133 238 -213 53 -72 105 -187 104 -230 0 -23 -5 -26 -55 -32 -30 -4 -94
-18 -142 -32 -89 -26 -322 -116 -358 -138 -29 -18 -36 -55 -15 -78 20 -22 37
-25 63 -10 25 15 229 95 287 113 79 25 175 43 230 42 35 0 53 -30 82 -135 22
-79 24 -314 5 -402 -17 -74 -39 -101 -109 -128 -32 -13 -86 -36 -120 -51 -34
-16 -110 -44 -169 -64 -59 -20 -115 -40 -125 -46 -26 -13 -39 -42 -32 -67 11
-44 50 -38 233 31 281 106 269 102 250 88 -10 -7 -11 -11 -2 -11 13 0 13 -4
-13 -111 -38 -156 -185 -374 -344 -510 -186 -159 -482 -299 -776 -369 -49 -11
-108 -25 -130 -30 -102 -25 -418 -74 -610 -95 -172 -19 -592 -31 -738 -20
l-108 7 -81 62 c-108 82 -135 101 -261 179 -96 61 -268 153 -275 148 -1 -1
-15 5 -30 13 -46 25 -171 69 -357 126 -42 13 -174 39 -280 56 -132 21 -514 30
-658 15 -242 -25 -213 -29 -308 39 -92 65 -231 197 -349 330 -41 47 -83 94
-92 104 -10 10 -14 24 -11 30 3 6 3 8 -2 4 -4 -4 -35 18 -69 49 -70 64 -121
90 -141 73 -10 -9 -16 -7 -24 8 -6 11 -7 23 -3 28 4 5 3 6 -2 2 -5 -4 -16 -3
-26 2 -11 6 -23 5 -35 -4 -25 -18 -11 -54 23 -58 24 -3 27 -7 30 -48 4 -53 25
-80 63 -80 37 0 43 -13 24 -49 -19 -37 -19 -36 1 -56 12 -12 27 -14 60 -9 47
7 58 -5 26 -28 -40 -28 -34 -80 11 -97 16 -7 28 -4 45 12 l22 20 25 -23 c14
-13 25 -27 25 -30 0 -4 -17 -10 -39 -14 -57 -9 -64 -48 -13 -75 25 -13 55 -2
71 27 9 15 12 15 36 -8 14 -13 23 -30 20 -38 -2 -7 -1 -11 4 -8 17 11 45 -22
46 -55 0 -30 3 -34 42 -44 23 -5 44 -13 48 -16 9 -10 -27 -80 -39 -76 -6 2
-13 19 -16 38 -5 33 -7 34 -52 37 -44 3 -48 1 -50 -20 -1 -13 -3 -32 -4 -43
-1 -11 -2 -25 -3 -31 -1 -6 -23 -21 -51 -34 -47 -22 -51 -22 -68 -7 -10 10
-30 17 -44 17 -27 0 -38 -16 -38 -55 0 -19 -9 -27 -47 -41 -27 -10 -50 -20
-53 -23 -12 -14 -40 -10 -51 7 -19 30 -46 15 -88 -47 -25 -36 -62 -73 -102
-100 -121 -83 -150 -107 -272 -221 -75 -70 -83 -84 -62 -116 24 -38 56 -30
137 34 40 31 93 70 118 87 25 16 47 33 50 37 3 3 12 8 20 10 8 2 19 8 25 15
20 24 291 165 421 219 359 148 841 220 1230 184 225 -22 368 -51 569 -116 406
-133 764 -377 1035 -706 110 -134 269 -388 243 -388 -5 0 -3 -4 2 -8 31 -22
119 -236 168 -407 62 -215 87 -404 87 -654 0 -266 -30 -452 -112 -698 -54
-162 -157 -380 -177 -375 -7 1 -10 -2 -6 -8 7 -11 -64 -130 -77 -130 -5 0 -8
-5 -8 -11 0 -24 -144 -195 -245 -290 -110 -104 -190 -163 -283 -210 -56 -28
-80 -63 -63 -90 6 -11 9 -24 7 -28 -6 -9 55 1 89 14 33 13 207 117 252 152 24
17 68 53 99 80 31 26 60 47 65 45 5 -1 8 2 7 7 -2 5 24 36 57 69 l61 60 114
-4 c117 -3 299 -25 374 -45 22 -6 41 -11 41 -10 0 7 132 -41 215 -78 171 -77
312 -179 410 -300 19 -24 43 -52 52 -63 43 -51 100 -163 134 -263 35 -103 38
-119 42 -255 5 -166 -7 -228 -63 -346 -25 -51 -52 -87 -95 -128 -68 -62 -85
-69 -69 -29 35 93 52 333 30 422 -34 136 -55 207 -62 215 -5 6 -9 16 -9 23 0
24 -84 153 -103 159 -24 8 -69 -24 -73 -51 -2 -11 5 -29 15 -40 34 -38 91
-170 112 -260 28 -121 23 -335 -11 -435 -32 -95 -66 -149 -98 -156 -15 -3 -54
-14 -87 -24 -110 -35 -346 -72 -360 -58 -3 3 3 32 14 64 61 181 72 375 31 539
-32 129 -102 274 -150 312 -16 13 -72 14 -64 1 3 -4 1 -8 -4 -8 -23 0 -21 -35
4 -73 14 -21 20 -36 12 -32 -7 5 -3 -3 8 -16 31 -34 63 -103 86 -179 25 -83
34 -269 19 -369 -12 -78 -71 -229 -99 -254 -41 -36 -585 -51 -2202 -62 -947
-6 -1410 1 -1720 26 -770 62 -1232 176 -1750 434 -159 79 -213 109 -205 117 3
2 -1 5 -7 5 -19 0 -248 162 -248 175 0 6 -3 8 -6 5 -8 -8 -80 51 -196 162 -76
72 -87 86 -76 100 11 14 11 14 -3 3 -15 -11 -25 -4 -77 50 -33 35 -86 97 -118
138 -32 41 -71 91 -88 111 -50 58 -58 69 -127 174 -244 370 -429 756 -580
1208 -27 82 -49 154 -49 161 0 7 -9 39 -19 72 -11 32 -22 70 -25 84 -3 14 -10
43 -16 65 -14 55 -68 304 -80 373 -5 31 -15 80 -20 107 -14 66 -24 139 -60
413 -26 199 -40 462 -40 750 0 287 5 373 40 722 11 114 44 336 65 440 55 275
72 353 110 500 24 91 52 197 63 235 46 155 183 525 262 706 23 52 51 117 63
144 54 123 254 512 324 630 167 279 379 605 415 637 11 9 20 20 20 25 1 16 80
124 94 130 8 3 12 8 9 13 -2 4 4 16 13 26 10 10 28 35 42 54 13 19 39 50 57
69 18 18 33 36 33 40 0 4 8 16 18 27 9 10 35 42 57 69 22 28 44 55 50 61 5 6
33 37 60 69 28 31 68 76 90 100 22 23 49 54 59 69 11 15 25 25 32 22 7 -3 11
0 9 7 -7 18 141 171 156 161 8 -5 10 -3 5 5 -10 16 207 230 354 350 32 26 35
26 57 -2z m6787 -894 c55 -78 136 -120 245 -129 52 -5 69 -10 81 -27 8 -12 28
-33 44 -47 15 -14 36 -32 45 -41 10 -8 50 -26 89 -38 62 -20 87 -23 170 -19
102 5 147 21 220 75 21 16 32 20 32 11 6 -153 11 -204 24 -243 20 -57 43 -104
64 -127 8 -10 12 -18 9 -18 -3 0 15 -20 41 -44 26 -25 44 -48 39 -52 -4 -4
-24 -1 -46 6 -42 13 -39 14 -271 -34 -214 -44 -242 -48 -365 -53 -66 -3 -128
-10 -137 -14 -18 -10 -68 7 -68 23 0 4 -3 7 -7 6 -8 -1 -24 4 -71 23 -35 14
-79 11 -86 -6 -6 -17 9 -65 21 -65 5 0 8 -122 8 -270 l0 -270 -85 -1 c-47 0
-106 -4 -132 -8 -27 -4 -48 -5 -49 -2 0 3 -2 65 -3 136 -2 72 -6 144 -10 160
-3 17 -9 45 -12 64 -3 21 -18 46 -37 64 l-32 30 -3 471 -3 472 133 -2 132 -2
20 -29z m2937 -16 c64 -32 87 -38 150 -40 41 -1 90 1 110 5 34 7 38 5 45 -20
5 -15 9 -97 9 -182 0 -151 1 -156 29 -215 38 -77 126 -166 189 -190 l47 -18 0
-2060 0 -2061 -21 -43 c-28 -58 -94 -113 -192 -161 -76 -37 -207 -85 -267 -96
-14 -3 -70 -16 -125 -30 -116 -28 -314 -60 -465 -75 -58 -6 -163 -16 -235 -23
-168 -17 -859 -16 -1055 0 -404 34 -589 61 -910 131 -172 38 -377 128 -444
194 -74 75 -80 95 -80 302 l-1 180 27 13 c33 16 37 31 72 257 15 93 30 173 35
178 11 11 189 32 198 23 4 -4 8 -124 9 -268 l1 -261 44 -39 c82 -73 159 -103
395 -153 248 -52 329 -64 699 -97 208 -19 825 -15 1045 6 249 24 337 34 403
46 31 5 81 14 110 19 175 30 335 81 436 138 36 21 73 41 82 45 14 5 19 19 34
86 20 88 25 460 25 1960 1 920 -2 1677 -6 1683 -3 6 -23 9 -43 8 -21 -2 -51 3
-68 10 -25 10 -50 9 -144 -4 -182 -27 -200 -28 -212 -16 -6 6 -32 11 -59 11
-61 0 -131 15 -243 52 -136 44 -158 45 -246 10 -174 -69 -283 -79 -440 -37
-149 39 -179 49 -179 57 0 4 -8 5 -17 1 -10 -3 3 15 28 40 69 70 105 145 128
272 11 61 23 148 26 195 l6 86 58 -10 c50 -8 68 -6 129 13 38 13 98 41 132 63
l61 40 78 -35 c157 -72 289 -73 416 -2 35 20 68 42 75 50 13 15 10 16 121 -38z
m-3303 -979 c12 -15 15 -75 13 -254 l-1 -131 -92 -18 c-134 -25 -342 -100
-411 -148 -16 -11 -30 -17 -33 -14 -8 8 15 124 37 190 26 78 78 169 91 160 6
-3 8 -1 5 4 -10 17 65 94 127 132 55 33 205 91 237 91 9 0 21 -6 27 -12z
m1652 -484 c11 -12 11 -18 -1 -30 -20 -19 -53 3 -43 29 8 21 27 22 44 1z m726
-2009 c-7 -20 -41 -16 -42 5 0 8 4 21 10 28 13 18 41 -10 32 -33z m-2307 -589
c-10 -49 -30 -112 -43 -142 l-24 -53 -39 11 c-62 17 -130 46 -175 75 -42 26
-93 72 -87 77 2 1 34 10 72 19 37 10 122 37 190 61 67 24 123 43 124 42 0 -1
-7 -41 -18 -90z m-511 -97 c81 -99 161 -153 302 -204 l84 -30 3 -130 c7 -304
11 -331 72 -415 27 -38 28 -44 41 -249 37 -592 -61 -1128 -283 -1551 -55 -103
-136 -226 -185 -280 -23 -25 -42 -53 -42 -63 0 -28 39 -77 61 -77 11 0 42 23
69 50 l49 50 68 0 c238 0 523 -85 713 -213 88 -59 200 -157 200 -176 0 -5 9
-16 19 -23 11 -8 40 -47 65 -88 45 -73 46 -74 26 -92 -27 -25 -26 -33 18 -124
60 -124 76 -192 68 -302 -7 -101 -29 -173 -82 -261 -40 -69 -97 -126 -115
-116 -7 5 -10 4 -6 -2 4 -6 -1 -17 -11 -26 -20 -18 -161 -87 -179 -87 -13 0
-12 6 13 95 13 45 18 99 18 220 0 167 -9 220 -53 321 -12 25 -18 51 -14 58 3
6 2 8 -2 3 -5 -4 -20 12 -33 35 -46 78 -107 120 -127 88 -4 -6 -10 -8 -14 -6
-4 3 -8 -7 -9 -22 -1 -17 11 -45 33 -76 19 -27 35 -55 35 -63 0 -7 4 -13 9
-13 5 0 11 -8 14 -17 3 -10 17 -52 32 -93 39 -112 45 -248 16 -374 -12 -53
-28 -102 -34 -109 -7 -7 -13 -19 -15 -27 -9 -39 -32 -59 -79 -65 -27 -3 -68
-11 -93 -17 -25 -5 -114 -13 -199 -16 -147 -5 -153 -4 -147 14 15 49 36 203
36 263 0 245 -109 528 -271 705 -63 70 -132 134 -165 157 -13 8 -21 20 -17 25
5 5 4 6 -1 2 -5 -4 -41 15 -80 42 -90 62 -223 125 -351 166 -97 30 -100 32
-97 58 4 31 -22 66 -48 66 -21 0 -33 -25 -25 -51 4 -11 2 -19 -4 -19 -5 0 -17
-3 -26 -6 -9 -4 -15 -3 -14 2 1 5 1 23 0 39 -1 25 -8 34 -38 47 -34 16 -37 16
-49 0 -8 -9 -14 -29 -14 -44 0 -15 -4 -29 -9 -32 -11 -7 -21 17 -21 51 0 40
-19 52 -60 38 -26 -9 -37 -20 -44 -43 -11 -41 -21 -41 -24 0 -2 17 -8 38 -15
47 -9 12 -9 13 1 7 6 -4 12 -4 12 1 0 4 11 9 25 9 60 4 73 38 33 82 l-23 24
41 -7 c35 -5 46 -3 68 17 22 19 26 27 19 46 -5 13 -12 23 -16 23 -20 -2 -33 0
-46 8 -12 8 -12 12 -2 25 19 22 54 20 69 -4 7 -11 18 -20 25 -20 21 0 59 46
55 67 -3 15 -13 18 -56 18 -54 0 -66 12 -33 32 14 9 21 26 23 55 2 30 7 43 18
43 20 0 50 33 50 55 0 9 -9 27 -20 40 -22 25 -26 35 -10 25 6 -3 10 0 10 7 0
9 3 9 8 2 4 -7 18 -8 38 -2 53 14 50 68 -2 68 -28 0 -37 14 -29 40 6 18 8 19
30 4 31 -21 69 -15 73 11 3 27 -8 42 -39 50 -20 5 -28 2 -37 -17 l-11 -23 0
23 c-1 13 4 33 10 44 6 11 11 35 11 53 0 36 5 46 33 61 25 14 32 62 10 70 -8
4 -20 15 -26 25 -9 18 -7 19 15 13 43 -10 76 3 76 31 0 28 -31 49 -60 40 -17
-5 -18 0 -17 57 2 67 8 78 45 78 32 0 46 40 20 58 -10 8 -27 15 -36 16 -12 2
-19 17 -25 51 -9 53 -3 80 16 72 21 -8 57 12 57 31 0 27 -27 46 -61 44 -35 -3
-37 11 -5 43 l24 23 -34 30 c-26 24 -34 38 -34 65 0 20 -3 42 -6 51 -4 10 5
20 25 31 55 28 32 89 -31 82 -21 -2 -23 2 -23 43 0 30 -7 55 -21 75 -25 35
-48 110 -38 126 3 6 18 9 32 7 26 -3 27 -1 27 47 1 60 9 75 40 75 26 0 41 15
26 24 -6 4 -4 17 5 34 29 55 14 79 -45 74 -46 -5 -55 -19 -35 -57 16 -31 11
-45 -15 -45 -22 0 -55 -35 -47 -48 3 -6 -1 -12 -9 -16 -15 -5 -26 9 -45 59 -7
17 -7 24 0 20 6 -3 10 -1 10 5 0 6 4 9 9 6 17 -11 41 6 41 27 0 42 -66 78 -85
47 -4 -6 -11 -8 -16 -5 -14 9 -11 35 6 51 25 25 19 63 -12 75 -14 5 -32 8 -39
5 -18 -7 -29 13 -15 27 13 13 14 47 2 66 -8 13 -26 18 -72 20 -14 1 -15 7 -6
46 6 25 7 48 4 52 -4 3 -24 9 -44 12 l-38 7 3 46 c4 51 -12 68 -63 68 -21 0
-26 4 -21 16 17 46 18 65 1 77 -14 11 -12 13 19 15 36 3 36 2 36 -38 0 -35 4
-42 27 -51 41 -15 66 -7 77 24 7 20 7 34 -2 47 -11 19 -9 20 28 20 41 0 49 -7
29 -27 -6 -6 -9 -21 -7 -34 3 -21 8 -24 48 -24 l45 0 0 48 -1 47 37 0 c21 0
41 -4 44 -10 3 -5 2 -10 -3 -10 -17 0 -20 -50 -5 -66 8 -8 28 -14 44 -14 38 0
54 34 33 67 -12 20 -12 23 4 31 9 5 78 15 152 21 175 15 172 15 400 55 107 19
198 35 203 35 4 1 15 -9 25 -20z m2257 -9 c3 -5 1 -10 -4 -10 -6 0 -11 5 -11
10 0 6 2 10 4 10 3 0 8 -4 11 -10z m11 -28 c-12 -13 -18 -13 -28 -4 -9 9 -8
12 5 12 10 0 21 8 24 17 5 12 8 13 11 4 2 -7 -3 -20 -12 -29z m-10601 -2381
l15 -30 -33 11 c-41 14 -41 14 -26 32 20 22 27 20 44 -13z m575 -1177 c0 -12
-68 -25 -83 -17 -4 2 5 20 20 39 l27 36 18 -24 c9 -12 18 -28 18 -34z m-67
-69 c18 -25 18 -25 -3 -22 -31 5 -56 47 -27 47 6 0 20 -12 30 -25z m135 -7 c7
-7 12 -17 12 -23 0 -17 -46 -39 -65 -31 -15 5 -14 9 5 36 24 33 30 36 48 18z"/>
<path d="M8924 17879 c-73 -35 -164 -124 -215 -208 -20 -33 -39 -57 -43 -53
-4 3 -4 -2 0 -12 6 -15 4 -17 -6 -11 -8 5 -11 4 -6 -3 4 -6 -5 -34 -18 -61
-80 -156 -191 -486 -260 -771 -112 -460 -176 -922 -176 -1278 0 -217 12 -305
51 -389 50 -105 116 -141 238 -129 114 10 292 112 466 266 50 43 95 79 102 80
7 0 17 8 22 18 5 10 22 24 37 32 15 8 39 25 52 38 14 12 31 22 38 22 8 0 14 4
14 10 0 20 328 167 413 184 7 2 26 9 42 15 17 7 35 14 40 15 6 1 33 14 61 28
68 36 120 92 145 158 18 48 20 69 15 160 -5 98 -9 127 -35 255 -10 49 -64 271
-81 330 -4 17 -17 64 -28 105 -34 127 -118 390 -156 488 -20 52 -36 102 -36
113 0 10 -4 19 -8 19 -4 0 -14 17 -21 38 -7 20 -40 90 -72 155 -33 65 -56 124
-53 129 4 6 3 8 -2 5 -5 -3 -29 22 -52 57 -57 85 -133 159 -202 195 -50 27
-68 31 -131 31 -61 -1 -84 -6 -135 -31z"/>
<path d="M10555 14213 c-99 -21 -230 -65 -331 -109 -121 -53 -332 -167 -390
-211 -17 -13 -34 -23 -39 -23 -15 0 -65 -60 -65 -78 0 -42 42 -52 142 -31 143
29 235 53 363 94 264 85 349 96 463 56 71 -24 183 -95 252 -159 25 -23 49 -42
53 -42 5 0 5 -5 2 -10 -4 -6 -3 -9 2 -8 14 5 202 -165 196 -176 -3 -6 -3 -8 2
-4 4 4 21 0 37 -8 39 -20 24 -39 -37 -48 -152 -23 -255 -150 -255 -315 0 -87
22 -149 71 -205 76 -86 108 -100 234 -100 68 -1 165 27 165 47 0 5 4 6 9 3 5
-3 12 1 15 10 3 9 11 12 18 8 7 -4 10 -4 6 0 -3 4 9 28 28 53 46 61 68 140 61
220 -4 35 -11 72 -18 84 -20 38 5 46 58 19 27 -13 53 -25 58 -26 6 -2 37 -13
70 -24 80 -27 194 -37 236 -20 67 28 93 170 44 242 -22 32 -31 37 -92 47 -193
33 -324 115 -657 409 -204 181 -348 271 -475 298 -62 13 -182 17 -226 7z"/>
<path d="M8605 13078 c-193 -17 -393 -49 -481 -78 -40 -13 -52 -51 -29 -86 8
-13 21 -24 28 -24 7 0 76 13 152 29 131 27 314 52 500 67 89 7 381 -10 545
-31 58 -8 170 -28 248 -45 137 -30 145 -31 163 -14 22 20 25 47 6 62 -22 19
-270 76 -417 97 -244 34 -499 42 -715 23z"/>
<path d="M12765 12970 c-19 -8 -19 -9 3 -9 12 -1 22 4 22 9 0 6 -1 10 -2 9 -2
0 -12 -4 -23 -9z"/>
<path d="M9575 12294 c-16 -2 -82 -8 -145 -14 -172 -16 -460 -50 -500 -60 -19
-5 -62 -14 -95 -20 -68 -13 -452 -106 -505 -122 -169 -52 -211 -89 -167 -145
16 -21 41 -16 231 46 159 52 314 94 481 130 144 32 632 91 746 91 61 0 89 18
89 58 0 37 -37 46 -135 36z"/>
<path d="M9740 11621 c-8 -5 -105 -43 -215 -84 -110 -41 -263 -101 -340 -132
-77 -31 -144 -58 -150 -59 -5 -1 -14 -4 -20 -8 -5 -3 -68 -32 -140 -63 -194
-85 -338 -155 -357 -172 -21 -18 -24 -63 -6 -81 23 -23 58 -11 236 78 98 50
189 90 201 90 12 0 20 4 17 9 -3 5 9 15 27 22 17 7 68 29 112 49 44 20 112 49
150 65 39 15 85 34 103 42 51 22 184 71 312 115 146 50 184 82 144 122 -17 17
-50 20 -74 7z"/>
<path d="M2998 7069 c-26 -15 -24 -66 3 -74 44 -14 80 53 40 75 -23 12 -22 12
-43 -1z"/>
<path d="M2947 6954 c-4 -4 -7 -18 -7 -31 0 -17 6 -23 21 -23 16 0 20 5 17 27
-3 26 -18 39 -31 27z"/>
<path d="M2918 6749 c-24 -14 -23 -51 3 -67 29 -19 56 -6 61 28 7 45 -23 63
-64 39z"/>
<path d="M2870 6650 c-15 -28 -12 -47 9 -53 20 -5 47 31 39 54 -7 20 -37 19
-48 -1z"/>
<path d="M2885 6482 c-22 -5 -44 -30 -45 -50 0 -18 25 -42 43 -42 21 0 47 34
47 62 0 28 -13 37 -45 30z"/>
<path d="M2802 6364 c-14 -10 -20 -24 -19 -43 1 -16 4 -28 6 -26 1 2 14 0 27
-5 19 -8 26 -5 34 10 25 48 -8 92 -48 64z"/>
<path d="M2798 6148 c-19 -15 -26 -47 -15 -65 5 -7 22 -13 38 -13 23 0 32 6
40 28 18 46 -24 80 -63 50z"/>
<path d="M2730 6031 c-14 -27 -13 -47 6 -65 20 -21 51 -5 60 29 12 47 -44 77
-66 36z"/>
<path d="M2796 5924 c-21 -21 -20 -40 4 -64 25 -25 51 -26 70 -2 42 48 -29
112 -74 66z"/>
<path d="M2700 5895 c0 -8 5 -15 10 -15 6 0 10 7 10 15 0 8 -4 15 -10 15 -5 0
-10 -7 -10 -15z"/>
<path d="M2732 5818 c-20 -20 -15 -66 8 -73 31 -10 60 12 60 44 0 38 -41 56
-68 29z"/>
<path d="M2674 5705 c-10 -40 -1 -60 26 -60 22 0 25 4 25 34 0 26 -5 36 -22
42 -19 7 -24 4 -29 -16z"/>
<path d="M2806 5704 c-31 -30 -13 -74 30 -74 23 0 34 20 40 68 2 18 -3 22 -26
22 -16 0 -36 -7 -44 -16z"/>
<path d="M2747 5602 c-10 -10 -16 -31 -15 -45 2 -23 7 -27 33 -27 36 0 55 15
55 45 0 44 -44 59 -73 27z"/>
<path d="M2671 5481 c-16 -29 13 -57 55 -52 18 2 34 47 21 60 -18 18 -65 13
-76 -8z"/>
<path d="M2653 5379 c-15 -15 -4 -49 17 -49 21 0 32 34 17 49 -6 6 -14 11 -17
11 -3 0 -11 -5 -17 -11z"/>
<path d="M2758 5365 c-16 -36 0 -61 38 -58 48 4 55 11 52 45 -3 30 -6 33 -40
36 -33 3 -40 0 -50 -23z"/>
<path d="M2722 5291 c1 -3 -2 -14 -6 -23 -4 -9 -6 -27 -4 -40 2 -18 10 -24 36
-26 27 -3 34 1 42 23 13 35 -2 62 -39 67 -16 2 -29 2 -29 -1z"/>
<path d="M2795 5167 c-22 -18 -25 -28 -20 -50 4 -15 10 -26 13 -23 2 3 13 1
24 -5 31 -17 67 12 60 48 -10 57 -35 67 -77 30z"/>
<path d="M2650 5165 c-6 -8 -10 -26 -8 -42 3 -24 7 -28 33 -26 16 1 31 7 33
13 3 7 9 7 19 -2 11 -8 9 -2 -4 21 -22 40 -56 56 -73 36z"/>
<path d="M2716 5048 c-21 -30 -20 -45 3 -58 23 -12 66 1 73 22 3 7 0 23 -5 36
-13 29 -51 29 -71 0z"/>
<path d="M2840 4981 c0 -7 -4 -10 -9 -7 -13 8 -56 -43 -56 -67 -1 -16 6 -23
25 -24 52 -5 70 5 70 40 0 17 -7 41 -15 51 -8 11 -15 14 -15 7z"/>
<path d="M2654 4962 c-37 -24 -16 -90 24 -78 24 8 36 37 27 66 -6 20 -30 26
-51 12z"/>
<path d="M2723 4863 c-18 -7 -16 -58 2 -73 21 -17 61 1 70 31 11 35 -31 59
-72 42z"/>
<path d="M2662 4743 c-21 -18 -21 -18 -3 -42 26 -34 53 -22 49 21 -4 38 -18
45 -46 21z"/>
<path d="M2786 4745 c-19 -19 -8 -55 20 -65 23 -9 64 5 65 22 1 7 2 20 3 28 0
8 -3 18 -9 22 -17 13 -63 9 -79 -7z"/>
<path d="M2721 4644 c-16 -20 -18 -31 -10 -45 13 -26 54 -24 73 3 22 31 20 35
-13 53 -28 14 -31 14 -50 -11z"/>
<path d="M2854 4635 c-4 -8 -3 -26 0 -40 7 -29 31 -32 63 -10 19 13 21 19 11
40 -13 29 -65 35 -74 10z"/>
<path d="M2657 4543 c-22 -22 8 -83 33 -68 18 11 29 49 18 63 -11 13 -40 16
-51 5z"/>
<path d="M2787 4532 c-23 -25 -21 -49 3 -62 35 -19 88 27 74 64 -8 22 -57 20
-77 -2z"/>
<path d="M2722 4438 c-17 -17 -15 -63 2 -77 11 -9 20 -10 35 -1 12 6 21 14 22
18 0 4 2 17 5 29 6 33 -40 55 -64 31z"/>
<path d="M2885 4440 c-67 -25 -49 -93 20 -76 19 5 25 13 25 35 0 35 -18 51
-45 41z"/>
<path d="M2786 4324 c-21 -20 -21 -63 0 -71 20 -7 63 12 70 32 7 17 -22 55
-42 55 -7 0 -20 -7 -28 -16z"/>
<path d="M2677 4323 c-11 -10 -8 -51 4 -59 13 -8 32 10 35 33 4 24 -24 42 -39
26z"/>
<path d="M2732 4219 c-32 -12 -38 -37 -15 -60 24 -24 51 -16 59 18 9 33 -13
54 -44 42z"/>
<path d="M2841 4201 c-6 -11 -8 -26 -5 -34 15 -41 98 -17 92 26 -4 31 -72 37
-87 8z"/>
<path d="M2947 4128 c-50 -18 -50 -88 1 -88 35 0 52 16 52 51 0 36 -18 49 -53
37z"/>
<path d="M2775 4103 c-13 -31 -14 -47 -3 -60 13 -17 49 -17 72 0 31 23 -7 76
-55 77 -4 0 -10 -8 -14 -17z"/>
<path d="M2731 3996 c-20 -24 -9 -51 19 -51 21 0 25 5 25 30 0 34 -24 45 -44
21z"/>
<path d="M2960 3920 c-11 -11 -20 -24 -20 -29 0 -6 -9 -8 -20 -6 -12 2 -18 0
-14 -6 3 -6 8 -8 11 -5 3 3 14 -5 24 -18 15 -19 24 -22 56 -17 47 8 61 44 30
79 -25 27 -41 28 -67 2z"/>
<path d="M2781 3896 c-7 -8 -12 -25 -12 -38 0 -13 1 -35 1 -50 0 -19 5 -28 16
-28 11 0 14 5 10 16 -6 16 40 62 57 56 5 -1 6 2 2 8 -3 5 -1 10 4 10 6 0 11 8
11 18 0 24 -71 30 -89 8z"/>
<path d="M2895 3810 c-3 -5 -11 -8 -16 -4 -5 3 -8 2 -7 -3 1 -4 -2 -18 -6 -31
-9 -28 8 -52 39 -52 31 0 57 32 53 67 -2 22 -9 29 -30 31 -14 2 -29 -2 -33 -8z"/>
<path d="M2818 3703 c-22 -6 -33 -40 -18 -58 17 -21 44 -19 66 6 29 33 0 65
-48 52z"/>
<path d="M2955 3694 c-41 -41 22 -98 65 -59 11 10 20 28 20 40 0 36 -55 48
-85 19z"/>
<path d="M2885 3593 c-33 -33 -14 -73 36 -73 24 0 45 46 29 65 -17 20 -49 24
-65 8z"/>
<path d="M3045 3602 c-46 -10 -59 -46 -27 -75 34 -31 64 -18 77 35 8 30 -15
48 -50 40z"/>
<path d="M3075 3486 c-24 -36 -6 -85 32 -86 28 0 63 24 63 44 0 31 -13 45 -48
56 -28 7 -34 6 -47 -14z"/>
<path d="M2946 3484 c-30 -29 -16 -74 23 -74 54 0 73 62 25 80 -32 13 -30 13
-48 -6z"/>
<path d="M2846 3473 c-12 -12 -6 -33 9 -33 8 0 15 6 15 14 0 17 -14 28 -24 19z"/>
<path d="M2881 3376 c-9 -11 -10 -20 -1 -36 15 -27 55 -24 55 5 0 41 -31 59
-54 31z"/>
<path d="M3000 3383 c-25 -10 -29 -26 -14 -55 19 -37 55 -37 79 -1 28 42 -12
77 -65 56z"/>
<path d="M2932 3278 c-28 -28 -7 -78 34 -78 40 0 47 61 9 78 -31 15 -28 15
-43 0z"/>
<path d="M3050 3270 c-20 -37 14 -79 52 -65 20 8 37 46 29 65 -9 22 -69 22
-81 0z"/>
<path d="M3175 3185 c-5 -2 -22 -6 -37 -9 -23 -5 -28 -12 -28 -36 0 -58 78
-67 87 -11 2 13 -1 29 -7 36 -5 6 -7 15 -3 18 7 7 5 8 -12 2z"/>
<path d="M2988 3170 c-18 -11 -19 -53 -1 -71 19 -19 57 -6 63 21 12 47 -21 73
-62 50z"/>
<path d="M3188 3073 c-25 -6 -30 -33 -13 -60 22 -33 41 -38 69 -19 67 43 26
101 -56 79z"/>
<path d="M3024 3045 c-4 -9 -2 -27 4 -41 21 -45 97 -20 90 30 -2 17 -11 22
-46 24 -32 2 -44 -1 -48 -13z"/>
<path d="M3276 2969 c-42 -33 -31 -81 19 -81 49 0 82 62 47 88 -24 18 -35 17
-66 -7z"/>
<path d="M3107 2950 c-19 -18 -23 -75 -6 -85 31 -20 111 53 88 81 -16 19 -63
22 -82 4z"/>
<path d="M2998 2949 c-26 -14 -24 -59 2 -59 25 0 36 24 24 50 -7 15 -13 17
-26 9z"/>
<path d="M3238 2870 c-15 -4 -30 -5 -34 -1 -4 3 -5 1 -1 -5 3 -5 -7 -23 -24
-38 -31 -29 -36 -54 -18 -87 10 -19 11 -19 41 6 17 14 37 24 44 21 8 -3 13 -2
12 2 -1 4 5 21 15 38 14 28 15 34 2 44 -8 7 -12 16 -9 21 3 5 4 9 2 8 -2 0
-15 -4 -30 -9z"/>
<path d="M3030 2820 c-6 -11 -8 -31 -4 -45 5 -22 11 -25 39 -23 19 1 32 5 29
9 -2 4 0 10 6 14 17 10 11 44 -9 55 -29 15 -49 12 -61 -10z"/>
<path d="M2888 2799 c-25 -14 -22 -44 5 -56 42 -20 77 23 45 55 -14 14 -27 15
-50 1z"/>
<path d="M3294 2758 c-23 -13 -74 -59 -74 -68 0 -4 18 -13 40 -20 32 -11 42
-11 55 0 52 43 35 117 -21 88z"/>
<path d="M3085 2700 c-23 -26 -10 -75 19 -75 27 0 61 62 45 81 -16 20 -43 17
-64 -6z"/>
<path d="M2932 2697 c-21 -24 -10 -56 21 -63 34 -7 48 7 45 47 -2 19 -8 25
-29 27 -14 1 -31 -4 -37 -11z"/>
<path d="M3338 2654 c-30 -16 -39 -59 -16 -82 35 -35 98 2 98 59 0 40 -34 50
-82 23z"/>
<path d="M3215 2640 c-3 -5 -21 -17 -39 -25 -37 -18 -65 -63 -43 -70 36 -11
71 -15 58 -6 -10 7 -6 11 18 16 51 11 73 63 37 87 -15 10 -24 10 -31 -2z"/>
<path d="M3256 2529 c-30 -24 -35 -66 -8 -71 25 -5 92 30 92 49 0 17 -27 42
-46 43 -6 0 -23 -9 -38 -21z"/>
<path d="M3220 2530 c-13 -8 -12 -10 3 -10 9 0 17 5 17 10 0 12 -1 12 -20 0z"/>
<path d="M3323 2440 c-12 -5 -26 -17 -32 -28 -11 -21 -11 -63 0 -56 4 2 10 0
13 -5 10 -16 46 1 63 30 10 16 21 29 25 29 15 0 8 28 -8 34 -20 8 -34 7 -61
-4z"/>
<path d="M3443 2433 c-27 -3 -33 -9 -33 -27 0 -31 22 -48 57 -44 24 3 28 8 31
41 2 26 -1 37 -10 35 -7 0 -28 -3 -45 -5z"/>
<path d="M3486 2324 c-33 -32 -8 -84 39 -84 42 0 62 70 26 90 -27 14 -47 13
-65 -6z"/>
<path d="M13147 11643 c-14 -13 -6 -33 13 -33 13 0 20 7 20 20 0 19 -20 27
-33 13z"/>
<path d="M13300 11610 c0 -23 22 -27 39 -7 13 16 5 27 -21 27 -11 0 -18 -7
-18 -20z"/>
<path d="M13592 11608 c-16 -16 -15 -35 1 -41 20 -8 39 8 35 28 -4 23 -20 29
-36 13z"/>
<path d="M13743 11609 c-25 -9 -31 -44 -10 -52 19 -7 57 11 57 26 0 23 -23 36
-47 26z"/>
<path d="M13877 11603 c-13 -12 -7 -43 7 -43 29 0 44 11 39 31 -5 18 -33 26
-46 12z"/>
<path d="M14020 11580 c0 -5 5 -10 10 -10 6 0 10 5 10 10 0 6 -4 10 -10 10 -5
0 -10 -4 -10 -10z"/>
<path d="M14147 11568 c-19 -10 -23 -48 -6 -48 19 0 49 21 49 34 0 19 -22 26
-43 14z"/>
<path d="M13372 11531 c-21 -13 -11 -56 15 -59 25 -4 59 36 43 52 -13 13 -42
17 -58 7z"/>
<path d="M13514 11515 c-8 -21 4 -35 31 -35 29 0 41 16 25 35 -16 19 -49 19
-56 0z"/>
<path d="M13650 11505 c-15 -18 -6 -45 15 -45 8 0 15 -5 15 -12 0 -6 9 -1 20
12 15 17 17 27 9 41 -12 23 -42 25 -59 4z"/>
<path d="M13797 11504 c-13 -14 -7 -43 12 -53 24 -13 55 8 50 35 -4 19 -48 32
-62 18z"/>
<path d="M13947 11503 c-4 -3 -7 -15 -7 -25 0 -13 8 -18 29 -18 35 0 48 15 31
35 -13 16 -42 20 -53 8z"/>
<path d="M14160 11435 c0 -8 7 -15 15 -15 8 0 15 7 15 15 0 8 -7 15 -15 15 -8
0 -15 -7 -15 -15z"/>
<path d="M14030 11420 c-25 -25 -25 -36 -2 -64 25 -32 64 -21 76 22 16 56 -32
84 -74 42z"/>
<path d="M13716 11411 c-10 -16 5 -41 25 -41 23 0 26 35 3 44 -20 8 -22 8 -28
-3z"/>
<path d="M13897 11355 c-7 -16 8 -29 23 -20 15 9 12 35 -4 35 -8 0 -16 -7 -19
-15z"/>
<path d="M14212 11348 c-13 -13 -16 -54 -4 -61 15 -10 52 13 52 32 0 26 -32
45 -48 29z"/>
<path d="M13954 11326 c-33 -51 9 -86 62 -52 24 16 34 56 13 56 -5 0 -8 4 -5
8 2 4 -8 9 -24 10 -22 2 -34 -4 -46 -22z"/>
<path d="M14110 11343 c-20 -8 -30 -24 -30 -48 0 -15 10 -25 35 -34 19 -7 35
-19 35 -27 0 -20 39 -18 47 2 4 11 -1 22 -12 30 -12 9 -14 14 -6 14 11 0 11 3
1 15 -7 8 -9 15 -5 15 5 0 -2 9 -15 20 -24 21 -26 22 -50 13z"/>
<path d="M14266 11262 c-13 -12 -5 -50 12 -55 9 -2 25 -8 35 -12 13 -6 17 -2
17 18 0 34 -45 68 -64 49z"/>
<path d="M13877 11253 c-13 -12 -7 -43 8 -43 16 0 38 34 28 44 -8 8 -28 8 -36
-1z"/>
<path d="M15156 11204 c-22 -15 -36 -33 -36 -45 0 -19 4 -20 43 -14 23 3 50 7
59 8 9 1 15 4 12 8 -2 4 2 9 8 12 18 6 -1 38 -29 48 -15 5 -31 0 -57 -17z"/>
<path d="M15246 11135 c-11 -8 -16 -21 -13 -30 8 -18 26 -19 50 -1 16 13 16
15 2 30 -19 19 -16 19 -39 1z"/>
<path d="M12753 11110 c-24 -10 -31 -34 -13 -45 6 -4 10 -16 8 -28 -2 -14 3
-23 15 -25 12 -2 17 3 17 17 0 12 5 30 12 40 11 18 5 52 -9 50 -4 0 -18 -4
-30 -9z"/>
<path d="M15157 11103 c-4 -3 -7 -15 -7 -25 0 -21 45 -26 52 -5 11 28 -24 52
-45 30z"/>
<path d="M12617 11070 c-4 -17 -1 -21 16 -18 25 3 30 31 6 36 -10 2 -19 -6
-22 -18z"/>
<path d="M14703 11055 c-3 -9 -3 -18 0 -22 10 -10 37 6 37 22 0 20 -29 20 -37
0z"/>
<path d="M13157 10912 c-34 -37 -18 -62 49 -76 23 -5 37 -1 59 16 l28 22 -34
28 c-38 32 -79 36 -102 10z"/>
<path d="M12690 10830 c-12 -23 -6 -40 16 -40 8 0 14 10 14 24 0 33 -16 42
-30 16z"/>
<path d="M14782 10808 c-25 -25 -6 -68 30 -68 10 0 25 11 34 25 13 20 14 28 4
40 -15 18 -51 20 -68 3z"/>
<path d="M14557 10783 c-4 -3 -7 -15 -7 -25 0 -14 6 -19 23 -16 29 4 38 48 9
48 -10 0 -22 -3 -25 -7z"/>
<path d="M12360 10745 c-11 -13 -11 -18 2 -31 20 -20 50 -7 46 20 -4 26 -30
32 -48 11z"/>
<path d="M13371 10737 c-7 -7 -17 -12 -24 -12 -7 0 -12 -16 -13 -41 -1 -36 1
-40 20 -38 11 1 23 3 26 4 3 1 8 2 13 1 4 0 7 4 7 9 0 6 11 15 24 21 29 14 25
29 -13 52 -22 13 -30 14 -40 4z"/>
<path d="M12714 10719 c-3 -6 -13 -8 -21 -5 -8 3 -12 2 -8 -3 3 -5 -1 -15 -8
-23 -8 -8 -11 -23 -7 -38 8 -33 54 -40 69 -12 6 11 22 23 36 26 22 6 23 9 13
26 -15 24 -65 43 -74 29z"/>
<path d="M12216 10693 c-11 -11 -6 -23 9 -23 8 0 15 4 15 9 0 13 -16 22 -24
14z"/>
<path d="M15038 10666 c-26 -19 -22 -32 17 -72 29 -29 38 -33 54 -24 26 14 35
44 20 72 -21 40 -58 50 -91 24z"/>
<path d="M12287 10663 c-14 -13 -6 -33 12 -33 19 0 35 23 24 34 -8 8 -28 8
-36 -1z"/>
<path d="M13444 10625 c-7 -18 3 -35 22 -35 8 0 14 10 14 25 0 27 -27 35 -36
10z"/>
<path d="M15491 10622 c-13 -25 14 -52 53 -52 23 0 27 -3 21 -17 -24 -58 -28
-72 -22 -87 10 -25 49 -16 64 13 6 14 9 30 5 35 -4 6 -7 24 -8 40 -1 15 -5 31
-10 35 -5 3 -14 15 -20 26 -15 28 -69 32 -83 7z"/>
<path d="M13556 10622 c-9 -14 12 -35 28 -29 23 9 20 37 -3 37 -11 0 -22 -4
-25 -8z"/>
<path d="M13502 10518 c-17 -17 -15 -32 6 -54 17 -20 46 -21 68 -3 13 11 7 50
-10 61 -17 12 -51 9 -64 -4z"/>
<path d="M13381 10486 c-16 -19 -6 -36 20 -36 15 0 20 6 17 22 -4 27 -21 33
-37 14z"/>
<path d="M13637 10488 c-7 -20 12 -48 31 -48 28 0 43 20 31 42 -11 20 -55 25
-62 6z"/>
<path d="M13455 10410 c-3 -6 -3 -19 0 -30 7 -23 43 -27 51 -5 12 29 -35 61
-51 35z"/>
<path d="M13588 10409 c-25 -14 -22 -38 7 -51 43 -20 77 29 36 52 -23 12 -22
12 -43 -1z"/>
<path d="M13717 10402 c-16 -17 -15 -20 3 -40 12 -12 29 -22 39 -22 27 0 32
35 9 59 -23 26 -30 26 -51 3z"/>
<path d="M13999 10399 c-14 -26 0 -42 32 -37 18 2 25 10 27 31 3 23 0 27 -22
27 -15 0 -30 -8 -37 -21z"/>
<path d="M11930 10381 c-15 -30 -12 -49 10 -56 27 -9 40 1 40 30 0 34 -35 52
-50 26z"/>
<path d="M12000 10270 c-18 -11 -3 -43 24 -48 21 -4 32 24 16 43 -14 17 -20
18 -40 5z"/>
<path d="M12084 10175 c-9 -23 3 -45 26 -45 25 0 37 25 20 45 -16 19 -39 19
-46 0z"/>
<path d="M12290 10166 c0 -7 11 -16 25 -18 19 -4 25 -1 25 13 0 14 -7 19 -25
19 -15 0 -25 -6 -25 -14z"/>
<path d="M14699 10069 c-11 -6 -11 -11 -2 -20 12 -12 43 -6 43 10 0 14 -25 20
-41 10z"/>
<path d="M12540 9943 c0 -5 5 -15 10 -23 9 -13 11 -13 20 0 15 22 12 30 -10
30 -11 0 -20 -3 -20 -7z"/>
<path d="M13642 9608 c-15 -15 -15 -45 0 -54 15 -9 49 32 41 51 -6 18 -25 19
-41 3z"/>
<path d="M13605 9502 c-39 -8 -54 -41 -25 -54 28 -12 49 -8 55 12 8 27 -6 47
-30 42z"/>
<path d="M13465 9491 c-11 -19 -14 -52 -4 -46 5 4 9 1 9 -4 0 -17 25 -13 42 7
8 9 14 24 14 32 -1 18 -51 26 -61 11z"/>
<path d="M15811 9490 c-9 -5 -8 -11 4 -24 20 -20 41 -21 48 -1 9 22 -28 40
-52 25z"/>
<path d="M16082 9483 c4 -22 43 -25 43 -3 0 8 -11 16 -23 18 -19 3 -23 0 -20
-15z"/>
<path d="M16029 9413 c-20 -5 -31 -37 -17 -51 14 -14 45 -3 51 19 6 21 -11 37
-34 32z"/>
<path d="M13642 9398 c-15 -19 4 -58 27 -58 26 0 43 30 30 53 -12 20 -42 22
-57 5z"/>
<path d="M13939 9389 c-16 -30 1 -43 45 -35 37 7 45 23 24 44 -19 19 -56 14
-69 -9z"/>
<path d="M13797 9374 c-9 -10 2 -24 19 -24 8 0 14 7 14 15 0 15 -21 21 -33 9z"/>
<path d="M7025 7130 c-11 -17 5 -32 21 -19 7 6 11 15 8 20 -7 12 -21 11 -29
-1z"/>
<path d="M6957 7070 c-37 -29 -26 -80 17 -80 35 0 59 32 47 62 -13 34 -35 41
-64 18z"/>
<path d="M7015 6946 c-24 -18 -13 -43 26 -63 20 -11 26 -10 37 5 7 9 12 28 10
42 -4 30 -42 39 -73 16z"/>
<path d="M7087 6832 c-22 -25 -21 -45 3 -67 17 -15 24 -16 45 -7 44 20 27 92
-23 92 -5 0 -16 -8 -25 -18z"/>
<path d="M7146 6714 c-22 -22 -20 -31 13 -65 39 -39 69 -24 76 36 5 41 -57 62
-89 29z"/>
<path d="M7107 6623 c-10 -9 -8 -65 2 -81 14 -22 46 -10 49 18 3 26 -38 77
-51 63z"/>
<path d="M7226 6591 c-13 -14 -16 -26 -10 -43 4 -13 7 -26 6 -29 0 -3 13 -6
31 -5 39 1 69 44 51 73 -16 26 -57 28 -78 4z"/>
<path d="M7301 6481 c-29 -29 -15 -75 24 -79 54 -7 79 69 29 88 -33 13 -31 13
-53 -9z"/>
<path d="M7442 6484 c-41 -28 -23 -84 28 -84 22 0 68 19 47 20 -4 0 -3 8 2 18
7 14 6 25 -5 40 -18 26 -41 28 -72 6z"/>
<path d="M7149 6474 c-19 -23 8 -69 40 -69 31 0 60 47 42 69 -17 21 -65 21
-82 0z"/>
<path d="M7403 6382 c-63 -10 -65 -102 -3 -102 32 0 50 23 50 63 0 30 -17 44
-47 39z"/>
<path d="M7227 6362 c-30 -33 -15 -72 29 -72 29 0 46 23 42 57 -4 35 -45 44
-71 15z"/>
<path d="M7108 6345 c-9 -21 -9 -29 5 -42 22 -22 47 -2 47 38 0 38 -35 40 -52
4z"/>
<path d="M7152 6248 c-17 -17 -15 -53 3 -68 35 -29 103 31 74 66 -14 17 -61
18 -77 2z"/>
<path d="M15840 5060 c-9 -6 -10 -10 -3 -10 6 0 15 5 18 10 8 12 4 12 -15 0z"/>
<path d="M12071 5854 c0 -11 3 -14 6 -6 3 7 2 16 -1 19 -3 4 -6 -2 -5 -13z"/>
<path d="M10870 5601 c-13 -25 -13 -27 4 -44 19 -19 63 -10 69 13 11 44 -51
71 -73 31z"/>
<path d="M11037 5599 c-9 -33 3 -50 32 -47 21 2 27 9 29 36 3 30 1 32 -26 32
-22 0 -31 -6 -35 -21z"/>
<path d="M11188 5602 c-23 -4 -23 -31 -2 -39 18 -7 45 6 51 24 4 12 -24 21
-49 15z"/>
<path d="M10502 5504 c-31 -21 -29 -62 3 -74 42 -16 75 5 75 48 0 15 -8 26
-26 32 -31 12 -25 13 -52 -6z"/>
<path d="M10642 5508 c-17 -17 -15 -67 2 -74 47 -18 86 0 86 41 0 28 -18 45
-50 45 -14 0 -31 -5 -38 -12z"/>
<path d="M10796 5504 c-33 -32 -13 -74 35 -74 30 0 42 12 47 49 5 40 -51 57
-82 25z"/>
<path d="M10944 5485 c-8 -20 4 -35 29 -35 31 0 51 15 44 34 -8 20 -65 22 -73
1z"/>
<path d="M10726 5391 c-26 -29 -24 -77 3 -84 36 -9 66 15 71 58 6 40 5 40 -27
41 -18 0 -39 -7 -47 -15z"/>
<path d="M10571 5386 c-21 -25 -10 -69 19 -76 48 -12 61 -2 58 44 -3 38 -5 41
-34 44 -18 2 -36 -3 -43 -12z"/>
<path d="M10870 5375 c-16 -19 -9 -49 13 -53 38 -7 66 49 31 62 -23 9 -30 8
-44 -9z"/>
<path d="M10648 5279 c-25 -14 -24 -65 1 -79 35 -18 60 -12 76 20 8 16 15 33
14 37 -4 31 -56 43 -91 22z"/>
<path d="M10801 5276 c-7 -8 -11 -27 -9 -43 3 -25 7 -28 38 -28 28 0 36 5 44
27 17 47 -42 82 -73 44z"/>
<path d="M10730 5162 c-18 -14 -21 -25 -17 -44 9 -34 27 -40 64 -21 24 11 30
20 28 40 -4 43 -38 55 -75 25z"/>
<path d="M10900 5167 c-18 -9 -26 -22 -28 -45 -3 -32 -2 -33 32 -30 47 3 69
39 40 68 -16 17 -22 18 -44 7z"/>
<path d="M10936 5034 c-4 -10 -2 -22 3 -27 15 -15 46 -3 46 18 0 26 -40 33
-49 9z"/>
<path d="M10947 4955 c-21 -20 -10 -52 20 -60 28 -7 53 9 53 34 0 38 -46 54
-73 26z"/>
<path d="M10871 4867 c-12 -12 -15 -67 -3 -68 4 0 14 -2 22 -3 44 -9 79 36 48
61 -21 16 -56 21 -67 10z"/>
<path d="M11007 4836 c-7 -17 1 -26 24 -26 14 0 29 18 29 36 0 11 -49 2 -53
-10z"/>
<path d="M10803 4751 c-11 -11 -20 -30 -19 -43 1 -19 7 -24 37 -26 44 -4 70
17 61 50 -10 42 -45 50 -79 19z"/>
<path d="M10952 4743 c-16 -14 -18 -23 -12 -40 10 -25 48 -31 68 -11 17 17 15
55 -4 62 -24 9 -30 8 -52 -11z"/>
<path d="M10871 4628 c-19 -51 26 -75 70 -39 20 16 22 23 13 38 -6 10 -25 19
-43 21 -25 3 -33 -1 -40 -20z"/>
<path d="M11018 4625 c-10 -21 -9 -29 5 -43 31 -31 75 19 47 53 -19 22 -39 18
-52 -10z"/>
<path d="M10952 4538 c-16 -16 -15 -68 1 -69 6 0 19 -2 28 -4 18 -3 43 14 51
37 13 34 -52 64 -80 36z"/>
<path d="M11025 4419 c-9 -17 -14 -37 -11 -45 6 -16 43 -18 65 -5 19 12 7 57
-19 71 -16 9 -22 6 -35 -21z"/>
<path d="M10888 4428 c-27 -23 -29 -47 -5 -63 31 -20 64 -9 70 23 3 15 2 30
-1 33 -16 15 -49 18 -64 7z"/>
<path d="M10941 4314 c-16 -21 -18 -29 -9 -44 25 -39 88 -28 88 14 0 46 -51
65 -79 30z"/>
<path d="M11015 4217 c-13 -10 -16 -21 -11 -40 5 -21 12 -27 35 -27 40 0 54
35 25 64 -19 19 -25 20 -49 3z"/>
<path d="M10931 4106 c-16 -19 -11 -37 18 -60 27 -23 54 -12 59 23 7 43 -50
70 -77 37z"/>
<path d="M11070 4091 c0 -11 5 -23 10 -26 6 -4 8 -11 5 -16 -9 -14 2 -11 19 7
25 25 20 54 -9 54 -18 0 -25 -5 -25 -19z"/>
<path d="M10996 3995 c-7 -20 2 -42 21 -49 16 -7 63 18 63 32 0 30 -73 45 -84
17z"/>
<path d="M10926 3889 c1 -15 5 -32 9 -38 10 -18 54 -12 75 9 16 16 18 24 10
41 -9 16 -20 19 -54 18 -39 -2 -42 -4 -40 -30z"/>
<path d="M11083 3893 c-18 -7 -16 -43 2 -43 18 0 31 28 19 39 -5 5 -15 6 -21
4z"/>
<path d="M11020 3805 c-26 -31 13 -82 44 -56 21 17 21 57 0 65 -23 9 -30 8
-44 -9z"/>
<path d="M10956 3694 c-18 -17 -19 -24 -10 -48 12 -31 84 -14 84 20 0 17 -28
44 -45 44 -7 0 -21 -7 -29 -16z"/>
<path d="M10909 3596 c-29 -14 -33 -55 -7 -74 32 -24 76 17 63 58 -8 25 -28
30 -56 16z"/>
<path d="M11032 3588 c-15 -15 -16 -48 -2 -48 6 0 13 0 17 -1 4 0 10 9 14 20
10 25 -12 46 -29 29z"/>
<path d="M10962 3467 c-11 -40 -7 -47 23 -47 45 0 56 59 13 71 -25 7 -29 4
-36 -24z"/>
<path d="M10923 3364 c-16 -25 -16 -27 2 -40 23 -17 27 -17 50 -1 13 10 16 21
11 40 -8 35 -40 35 -63 1z"/>
<path d="M10864 3266 c-9 -38 -1 -61 24 -64 25 -4 62 23 62 44 0 20 -30 44
-56 44 -17 0 -25 -7 -30 -24z"/>
<path d="M10802 3178 c-20 -26 -23 -56 -7 -72 33 -32 85 -11 85 34 0 42 -54
68 -78 38z"/>
<path d="M10932 3158 c-17 -17 -15 -58 3 -58 18 0 38 37 31 56 -7 17 -18 18
-34 2z"/>
<path d="M10868 3062 c-24 -5 -23 -35 2 -57 16 -15 22 -15 35 -5 36 30 10 72
-37 62z"/>
<path d="M10783 2963 c-29 -6 -29 -24 1 -52 18 -17 30 -20 51 -15 15 4 37 8
49 9 11 1 24 3 29 4 12 2 8 41 -5 46 -24 7 -103 12 -125 8z"/>
<path d="M10693 2862 c-7 -4 -14 -23 -15 -42 l-3 -35 45 0 c44 0 45 1 48 34 2
20 -2 37 -10 42 -16 11 -49 11 -65 1z"/>
<path d="M10804 2846 c-10 -43 -1 -61 31 -61 17 0 36 4 43 9 15 10 16 56 1 56
-5 0 -7 5 -4 10 4 6 -8 10 -29 10 -29 0 -37 -4 -42 -24z"/>
<path d="M10922 2818 c4 -31 53 -34 53 -3 0 15 -8 21 -28 23 -25 3 -28 0 -25
-20z"/>
<path d="M3856 2034 c-4 -10 -1 -14 6 -12 15 5 23 28 10 28 -5 0 -13 -7 -16
-16z"/>
<path d="M4360 1396 c-16 -21 -9 -60 13 -64 25 -5 67 25 67 47 0 31 -58 43
-80 17z"/>
<path d="M4217 1382 c-24 -26 -2 -55 38 -50 26 3 30 7 30 33 0 25 -4 31 -26
33 -15 2 -32 -5 -42 -16z"/>
<path d="M4097 1365 c-8 -18 11 -31 25 -17 11 11 3 32 -12 32 -4 0 -10 -7 -13
-15z"/>
<path d="M3850 1295 c-18 -21 -8 -65 16 -71 50 -13 86 25 60 61 -15 20 -62 26
-76 10z"/>
<path d="M4002 1298 c-24 -24 -11 -78 20 -78 35 0 58 19 58 49 0 39 -50 57
-78 29z"/>
<path d="M4140 1300 c-8 -5 -15 -15 -16 -22 -1 -27 26 -66 50 -70 14 -3 23 -2
21 2 -3 5 2 10 10 14 9 3 15 18 15 40 0 26 -5 35 -22 40 -31 8 -40 7 -58 -4z"/>
<path d="M4281 1296 c-7 -8 -7 -24 0 -49 8 -29 15 -37 33 -37 34 0 66 50 48
76 -11 18 -69 25 -81 10z"/>
<path d="M4422 1293 c-12 -23 -1 -63 20 -77 27 -17 68 8 68 42 0 15 -5 33 -12
40 -18 18 -66 15 -76 -5z"/>
<path d="M4593 1303 c-18 -4 -23 -11 -23 -37 0 -20 8 -40 19 -50 19 -17 21
-17 46 8 15 15 25 34 23 43 -4 22 -38 40 -65 36z"/>
<path d="M12932 1298 c-17 -17 -15 -65 4 -72 48 -18 88 19 66 60 -12 22 -53
29 -70 12z"/>
<path d="M13078 1289 c-22 -13 -23 -55 -2 -63 47 -18 79 9 63 52 -9 23 -33 28
-61 11z"/>
<path d="M3745 1282 c-27 -6 -45 -21 -45 -38 0 -19 76 -19 83 0 8 20 -15 43
-38 38z"/>
<path d="M13227 1273 c-4 -3 -7 -15 -7 -25 0 -13 8 -18 30 -18 23 0 30 5 30
19 0 24 -37 41 -53 24z"/>
<path d="M3601 1249 c-15 -6 -21 -13 -15 -19 11 -11 54 -2 54 11 0 14 -14 17
-39 8z"/>
<path d="M4366 1181 c-9 -10 -16 -30 -16 -44 0 -20 6 -28 27 -33 35 -9 57 7
61 43 3 26 -1 32 -27 41 -24 9 -32 7 -45 -7z"/>
<path d="M3519 1176 c-34 -16 -36 -49 -5 -64 34 -15 56 -5 56 25 0 37 -21 54
-51 39z"/>
<path d="M3779 1171 c-18 -15 -20 -21 -10 -39 6 -12 15 -22 19 -23 4 0 14 -2
23 -4 20 -4 30 4 46 32 9 17 9 23 0 31 -24 19 -57 20 -78 3z"/>
<path d="M3922 1167 l-22 -23 21 -23 c14 -14 30 -21 47 -19 24 3 27 7 27 43 0
35 -3 40 -25 43 -17 2 -33 -5 -48 -21z"/>
<path d="M4072 1178 c-7 -7 -12 -25 -12 -40 0 -21 6 -29 25 -34 14 -3 32 -4
40 -1 20 8 30 54 15 72 -15 18 -51 20 -68 3z"/>
<path d="M4210 1176 c-15 -19 -9 -56 11 -69 9 -5 28 -7 42 -3 31 7 46 48 27
71 -16 19 -64 19 -80 1z"/>
<path d="M4498 1164 c-21 -44 13 -74 68 -60 18 5 24 13 24 34 0 36 -17 52 -52
52 -21 0 -32 -7 -40 -26z"/>
<path d="M4652 1178 c-15 -15 -16 -68 -1 -68 5 0 7 -5 3 -12 -4 -6 -3 -8 3 -5
5 3 25 7 44 8 31 3 35 6 37 32 1 16 -3 36 -9 43 -14 17 -61 18 -77 2z"/>
<path d="M12721 1179 c-18 -7 -22 -15 -19 -41 3 -29 7 -33 35 -36 25 -3 35 2
49 22 12 20 14 29 5 40 -16 19 -42 25 -70 15z"/>
<path d="M12852 1178 c-19 -19 -14 -46 13 -64 45 -29 90 9 65 56 -12 23 -58
28 -78 8z"/>
<path d="M12994 1166 c-12 -49 13 -74 62 -62 22 6 25 11 22 44 -3 35 -5 37
-40 40 -33 3 -38 0 -44 -22z"/>
<path d="M13300 1175 c-6 -8 -10 -24 -8 -37 2 -18 10 -24 36 -26 23 -2 34 2
39 14 13 35 -44 77 -67 49z"/>
<path d="M3366 1165 c-9 -9 -16 -20 -16 -24 0 -16 29 -32 52 -29 32 4 34 61 2
66 -12 2 -29 -4 -38 -13z"/>
<path d="M3638 1169 c-20 -11 -24 -44 -7 -54 41 -26 105 8 83 43 -13 20 -52
26 -76 11z"/>
<path d="M13140 1161 c-8 -17 -7 -24 10 -41 24 -24 30 -24 54 -7 11 8 17 23
14 38 -4 33 -61 40 -78 10z"/>
<path d="M13440 1161 c-14 -27 -3 -48 26 -54 20 -3 28 1 36 19 20 44 -39 77
-62 35z"/>
<path d="M3567 1053 c-15 -33 1 -57 41 -61 23 -2 32 2 37 17 11 35 -3 58 -36
63 -25 4 -33 0 -42 -19z"/>
<path d="M3735 1071 c-52 -10 -43 -81 10 -81 31 0 55 30 45 56 -11 28 -19 32
-55 25z"/>
<path d="M3858 1069 c-22 -12 -23 -38 -2 -67 16 -23 31 -27 51 -14 15 9 25 54
16 68 -12 18 -46 24 -65 13z"/>
<path d="M4135 1060 c-28 -31 -16 -60 31 -74 29 -9 56 19 52 52 -4 34 -59 49
-83 22z"/>
<path d="M4435 1063 c-10 -9 -15 -28 -13 -47 3 -27 7 -31 34 -34 32 -3 64 18
64 42 0 39 -58 66 -85 39z"/>
<path d="M4588 1069 c-23 -13 -25 -74 -2 -83 30 -12 54 -6 68 17 17 25 11 67
-9 67 -8 0 -19 2 -27 5 -7 2 -21 0 -30 -6z"/>
<path d="M4743 1067 c-17 -8 -23 -18 -23 -44 0 -26 5 -36 23 -42 30 -12 61 9
65 44 5 44 -22 62 -65 42z"/>
<path d="M4876 1061 c-21 -23 -21 -67 0 -75 25 -10 59 -7 72 6 21 21 15 66
-10 74 -39 13 -46 13 -62 -5z"/>
<path d="M12503 1069 c-24 -9 -37 -38 -27 -63 10 -25 81 -22 89 4 14 45 -17
76 -62 59z"/>
<path d="M12785 1056 c-21 -32 -12 -64 22 -72 33 -9 67 27 57 60 -8 26 -5 23
-36 31 -21 5 -30 2 -43 -19z"/>
<path d="M12965 1072 c-11 -2 -26 -9 -32 -14 -18 -15 -16 -55 3 -66 19 -11 55
-4 66 12 21 30 -4 75 -37 68z"/>
<path d="M13081 1063 c-39 -27 -20 -73 30 -73 32 0 36 4 40 44 3 25 0 31 -23
37 -17 4 -34 2 -47 -8z"/>
<path d="M3280 1049 c-9 -16 -8 -25 6 -40 30 -34 74 -18 74 27 0 38 -62 48
-80 13z"/>
<path d="M3434 1056 c-11 -28 1 -51 27 -54 31 -4 53 20 44 48 -8 24 -62 29
-71 6z"/>
<path d="M3992 1058 c-29 -29 -5 -68 40 -68 33 0 52 33 36 63 -10 20 -58 23
-76 5z"/>
<path d="M4275 1050 c-14 -45 15 -75 60 -64 27 7 40 34 30 64 -5 15 -15 20
-45 20 -30 0 -40 -5 -45 -20z"/>
<path d="M11884 1044 c-12 -48 19 -73 72 -60 22 6 25 11 22 44 -3 36 -4 37
-45 40 -39 3 -43 1 -49 -24z"/>
<path d="M12040 1055 c-15 -18 -5 -64 15 -72 45 -17 95 29 75 67 -13 24 -71
28 -90 5z"/>
<path d="M12184 1044 c-15 -22 -15 -27 -3 -39 8 -7 26 -17 41 -20 35 -9 66 32
48 64 -16 31 -65 28 -86 -5z"/>
<path d="M12334 1056 c-10 -26 5 -64 27 -71 11 -4 30 0 44 9 19 13 22 20 16
43 -6 23 -13 29 -44 31 -27 2 -39 -1 -43 -12z"/>
<path d="M12624 1043 c-4 -14 -2 -33 3 -42 24 -39 93 -13 93 34 0 25 -17 35
-61 35 -23 0 -30 -5 -35 -27z"/>
<path d="M13223 1063 c-20 -14 -19 -45 2 -59 29 -19 70 2 70 36 0 20 -5 25
-30 28 -16 1 -35 -1 -42 -5z"/>
<path d="M13366 1054 c-35 -35 24 -72 65 -41 12 9 14 18 8 35 -10 26 -50 30
-73 6z"/>
<path d="M13522 1058 c-14 -14 -16 -45 -2 -53 13 -8 46 11 54 31 11 28 -29 45
-52 22z"/>
<path d="M12708 952 c-14 -16 -16 -51 -4 -70 10 -17 47 -15 73 3 19 13 20 19
12 44 -12 34 -61 48 -81 23z"/>
<path d="M12871 953 c-32 -22 -25 -67 10 -71 32 -4 53 20 45 52 -8 31 -28 38
-55 19z"/>
<path d="M13015 953 c-20 -19 -16 -52 8 -67 25 -15 62 27 47 54 -14 26 -37 31
-55 13z"/>
<path d="M3658 952 c-22 -4 -24 -45 -3 -62 28 -23 80 18 61 49 -7 11 -36 18
-58 13z"/>
<path d="M3781 946 c-25 -30 13 -81 46 -60 21 13 39 41 32 49 -16 15 -68 23
-78 11z"/>
<path d="M3918 935 c-8 -19 -8 -28 2 -40 24 -28 79 -15 84 21 5 28 -12 44 -45
44 -22 0 -32 -7 -41 -25z"/>
<path d="M4067 945 c-9 -8 -14 -23 -12 -32 2 -10 4 -21 4 -25 2 -13 40 -19 59
-9 26 14 34 38 22 62 -13 23 -52 25 -73 4z"/>
<path d="M4208 934 c-16 -34 0 -59 37 -59 34 0 50 23 41 58 -9 38 -61 39 -78
1z"/>
<path d="M4355 946 c-3 -9 -7 -23 -10 -32 -8 -24 13 -54 39 -54 32 0 58 32 54
67 -3 25 -8 28 -41 31 -27 2 -39 -1 -42 -12z"/>
<path d="M4500 941 c-18 -34 -9 -64 24 -76 24 -8 31 -6 47 14 32 39 21 67 -28
77 -25 5 -33 2 -43 -15z"/>
<path d="M4656 944 c-30 -29 -17 -84 19 -84 46 0 82 63 49 87 -24 17 -49 16
-68 -3z"/>
<path d="M4820 953 c-32 -13 -38 -28 -25 -59 22 -54 99 -33 89 24 -7 37 -28
49 -64 35z"/>
<path d="M4945 951 c3 -2 0 -12 -6 -23 -16 -29 -2 -55 34 -62 43 -9 70 21 56
62 -8 23 -15 27 -48 27 -22 0 -38 -2 -36 -4z"/>
<path d="M11830 943 c-23 -16 -26 -41 -7 -68 28 -37 97 8 82 54 -7 24 -49 32
-75 14z"/>
<path d="M11972 947 c-17 -20 -11 -76 8 -82 50 -15 104 42 67 73 -23 19 -63
24 -75 9z"/>
<path d="M12114 936 c-10 -43 -1 -61 33 -64 55 -5 82 68 30 82 -41 11 -57 6
-63 -18z"/>
<path d="M12274 950 c-31 -12 -37 -55 -10 -68 41 -20 54 -20 70 -3 22 24 20
58 -3 71 -23 12 -29 12 -57 0z"/>
<path d="M12416 947 c-12 -9 -17 -23 -14 -42 3 -26 8 -31 39 -36 42 -6 65 17
53 54 -12 38 -45 48 -78 24z"/>
<path d="M12562 948 c-27 -27 -10 -78 27 -78 54 0 73 62 25 80 -33 13 -37 13
-52 -2z"/>
<path d="M13159 943 c-17 -20 -15 -49 5 -56 22 -9 58 22 54 46 -4 28 -39 34
-59 10z"/>
<path d="M13307 954 c-4 -4 -7 -16 -7 -26 0 -15 6 -19 28 -16 19 2 27 9 27 23
0 20 -33 33 -48 19z"/>
<path d="M3511 936 c-11 -13 -11 -17 2 -22 25 -9 62 0 62 16 0 21 -49 25 -64
6z"/>
<path d="M5097 943 c-12 -11 -8 -60 6 -70 6 -5 19 -9 27 -8 8 1 23 3 32 3 20
2 32 34 23 62 -5 15 -15 20 -44 20 -21 0 -41 -3 -44 -7z"/>
<path d="M4585 839 c4 -5 2 -9 -4 -9 -17 0 -23 -38 -9 -62 7 -13 11 -27 9 -33
-1 -5 3 -4 10 3 7 6 21 12 30 12 19 0 44 59 31 72 -13 13 -73 28 -67 17z"/>
<path d="M12514 840 c-12 -5 -24 -16 -28 -26 -8 -20 18 -64 38 -64 17 0 43 30
48 54 4 25 -31 47 -58 36z"/>
<path d="M13090 830 c-9 -17 -8 -20 10 -20 13 0 20 7 20 20 0 11 -4 20 -10 20
-5 0 -14 -9 -20 -20z"/>
<path d="M3854 826 c-9 -23 4 -36 37 -36 26 0 30 3 27 23 -4 27 -55 38 -64 13z"/>
<path d="M3990 820 c-24 -24 -17 -48 16 -56 39 -10 54 2 54 41 0 31 -3 35 -25
35 -14 0 -34 -9 -45 -20z"/>
<path d="M4137 826 c-15 -15 -12 -62 4 -72 5 -3 22 -3 38 1 52 11 48 85 -5 85
-12 0 -29 -6 -37 -14z"/>
<path d="M4274 816 c-9 -38 2 -56 34 -56 35 0 55 20 50 52 -2 19 -10 24 -40
26 -33 3 -38 0 -44 -22z"/>
<path d="M4434 832 c-30 -20 -19 -67 19 -81 42 -16 77 45 45 77 -13 13 -47 16
-64 4z"/>
<path d="M4720 814 c-15 -39 3 -64 45 -64 35 0 35 0 35 45 0 45 0 45 -35 45
-29 0 -37 -5 -45 -26z"/>
<path d="M4870 819 c-11 -19 1 -62 20 -74 6 -4 22 -4 35 -1 29 7 44 59 23 78
-20 20 -67 18 -78 -3z"/>
<path d="M5032 829 c-31 -12 -16 -69 21 -82 36 -12 57 5 57 48 0 28 -4 33 -29
37 -16 2 -38 1 -49 -3z"/>
<path d="M5183 832 c-21 -13 -27 -66 -9 -81 25 -21 69 -10 80 21 16 44 -33 85
-71 60z"/>
<path d="M5478 829 c-26 -15 -24 -76 2 -84 27 -8 70 19 70 45 0 21 -25 50 -43
50 -7 0 -20 -5 -29 -11z"/>
<path d="M11601 823 c-25 -17 -28 -58 -5 -71 20 -11 60 -4 74 14 34 40 -25 88
-69 57z"/>
<path d="M11747 820 c-19 -28 -10 -68 17 -72 31 -6 76 19 76 42 0 21 -35 50
-62 50 -9 0 -23 -9 -31 -20z"/>
<path d="M11906 827 c-12 -9 -17 -23 -14 -42 2 -24 8 -31 31 -33 51 -6 78 45
40 74 -23 17 -35 17 -57 1z"/>
<path d="M12058 833 c-21 -5 -32 -36 -23 -64 10 -31 65 -22 85 14 14 26 14 29
-4 43 -20 14 -28 15 -58 7z"/>
<path d="M12203 830 c-43 -18 -22 -70 28 -70 32 0 52 21 47 52 -3 26 -37 34
-75 18z"/>
<path d="M12333 823 c-10 -26 19 -68 47 -68 33 0 60 46 41 69 -18 22 -80 21
-88 -1z"/>
<path d="M12633 829 c-8 -8 -8 -20 -1 -41 9 -27 14 -29 41 -24 41 8 60 35 39
55 -19 20 -64 25 -79 10z"/>
<path d="M12786 827 c-27 -20 -15 -67 17 -67 35 0 59 22 55 51 -4 29 -43 38
-72 16z"/>
<path d="M12938 829 c-10 -5 -18 -19 -18 -30 0 -17 5 -19 32 -16 38 4 61 33
38 47 -19 12 -31 12 -52 -1z"/>
<path d="M3735 820 c3 -5 17 -10 31 -10 13 0 24 5 24 10 0 6 -14 10 -31 10
-17 0 -28 -4 -24 -10z"/>
<path d="M5315 810 c-14 -45 15 -75 60 -64 27 7 40 34 30 64 -5 15 -15 20 -45
20 -30 0 -40 -5 -45 -20z"/>
<path d="M4504 705 c-11 -28 4 -45 41 -45 28 0 35 4 35 20 0 34 -65 55 -76 25z"/>
<path d="M4645 704 c-25 -25 2 -59 46 -59 28 0 35 4 37 23 7 47 -48 70 -83 36z"/>
<path d="M4947 700 c-12 -14 -13 -22 -3 -40 24 -48 62 -51 90 -7 25 40 -56 83
-87 47z"/>
<path d="M5125 712 c-31 -6 -38 -17 -30 -50 11 -52 95 -51 95 1 0 43 -21 58
-65 49z"/>
<path d="M5258 713 c-23 -6 -32 -37 -18 -63 14 -26 75 -28 88 -2 11 19 -1 62
-17 62 -5 0 -15 2 -23 4 -7 2 -21 2 -30 -1z"/>
<path d="M5543 703 c-22 -21 -18 -60 9 -77 27 -16 63 9 66 46 4 48 -37 64 -75
31z"/>
<path d="M5711 711 c-35 -10 -47 -34 -33 -65 23 -50 86 -21 80 37 -3 33 -11
38 -47 28z"/>
<path d="M5840 708 c-27 -10 -35 -34 -22 -64 13 -28 52 -33 76 -8 18 18 21 50
6 59 -6 4 -8 10 -6 14 6 9 -28 9 -54 -1z"/>
<path d="M5978 709 c-28 -16 -23 -67 7 -81 39 -17 75 3 75 42 0 24 -6 33 -26
40 -31 12 -34 12 -56 -1z"/>
<path d="M11200 690 c-16 -39 0 -60 46 -60 37 0 59 26 47 57 -9 24 -23 33 -54
33 -20 0 -30 -7 -39 -30z"/>
<path d="M11353 698 c-17 -38 1 -68 40 -68 42 0 55 13 49 49 -6 44 -71 58 -89
19z"/>
<path d="M11695 712 c-32 -7 -45 -23 -40 -50 7 -41 45 -51 81 -21 35 29 5 81
-41 71z"/>
<path d="M12134 710 c-21 -8 -37 -43 -26 -54 19 -19 92 4 92 29 0 8 -9 19 -19
25 -22 11 -19 11 -47 0z"/>
<path d="M12272 711 c-21 -13 -10 -46 16 -49 31 -5 73 24 66 43 -7 16 -60 20
-82 6z"/>
<path d="M12433 713 c-21 -8 -15 -33 8 -33 28 0 61 19 54 31 -6 9 -41 11 -62
2z"/>
<path d="M4360 701 c0 -13 37 -24 50 -16 6 4 8 11 5 16 -8 12 -55 12 -55 0z"/>
<path d="M4794 696 c-10 -27 1 -51 29 -60 47 -17 86 24 57 59 -16 19 -79 20
-86 1z"/>
<path d="M5403 704 c-7 -3 -13 -18 -13 -34 0 -34 17 -49 49 -41 33 9 49 36 35
59 -11 17 -48 25 -71 16z"/>
<path d="M11513 698 c-19 -31 9 -78 42 -70 67 16 67 82 0 82 -19 0 -37 -6 -42
-12z"/>
<path d="M11814 698 c-27 -43 8 -83 57 -66 29 10 47 46 34 67 -9 15 -82 14
-91 -1z"/>
<path d="M11966 694 c-19 -19 -20 -36 -4 -52 29 -29 92 7 81 47 -7 26 -54 29
-77 5z"/>
<path d="M6980 591 c-27 -7 -35 -29 -26 -67 7 -25 28 -30 73 -18 29 8 36 51
12 75 -20 20 -21 21 -59 10z"/>
<path d="M7126 585 c-46 -47 25 -107 77 -65 21 18 21 20 7 47 -18 33 -60 42
-84 18z"/>
<path d="M7287 582 c-23 -25 -21 -59 2 -72 59 -31 111 13 77 65 -20 30 -56 33
-79 7z"/>
<path d="M8248 593 c-11 -3 -18 -14 -18 -29 0 -13 -1 -27 -2 -31 -1 -5 9 -14
24 -21 39 -18 78 -1 78 36 0 46 -26 60 -82 45z"/>
<path d="M8396 587 c-26 -19 -17 -59 17 -75 24 -12 31 -11 53 2 26 18 32 54
12 74 -16 16 -60 15 -82 -1z"/>
<path d="M8718 589 c-21 -12 -24 -49 -6 -67 7 -7 26 -12 43 -12 35 0 55 15 55
41 0 40 -52 62 -92 38z"/>
<path d="M8867 586 c-19 -19 -10 -63 14 -77 23 -12 69 -4 81 13 22 36 -5 78
-52 78 -16 0 -35 -6 -43 -14z"/>
<path d="M9037 588 c-27 -20 -18 -60 16 -76 24 -12 31 -11 53 2 24 17 30 40
16 63 -12 20 -65 26 -85 11z"/>
<path d="M9358 589 c-27 -15 -22 -56 8 -75 35 -24 78 -9 82 27 6 47 -46 74
-90 48z"/>
<path d="M9686 584 c-36 -36 1 -90 53 -77 30 7 41 20 41 50 0 39 -64 58 -94
27z"/>
<path d="M10023 588 c-6 -7 -13 -25 -17 -39 -6 -28 3 -36 51 -45 25 -5 53 19
53 46 0 40 -64 68 -87 38z"/>
<path d="M5200 570 c0 -13 7 -20 20 -20 13 0 20 7 20 20 0 13 -7 20 -20 20
-13 0 -20 -7 -20 -20z"/>
<path d="M5348 583 c-28 -7 -23 -43 6 -43 31 0 56 28 35 41 -8 5 -16 8 -19 8
-3 -1 -13 -3 -22 -6z"/>
<path d="M5464 575 c-9 -22 14 -45 46 -45 34 0 48 35 20 50 -27 15 -60 12 -66
-5z"/>
<path d="M5606 569 c-21 -31 -4 -49 46 -49 38 0 39 1 36 33 -3 28 -7 32 -35
35 -23 2 -35 -3 -47 -19z"/>
<path d="M5757 583 c-13 -12 -7 -64 8 -69 23 -9 62 4 69 22 13 33 -53 72 -77
47z"/>
<path d="M5891 568 c-10 -28 -4 -46 21 -59 27 -14 68 13 68 45 0 41 -75 52
-89 14z"/>
<path d="M6044 564 c-9 -34 6 -58 38 -62 31 -4 50 19 46 55 -3 24 -8 28 -40
31 -33 3 -38 0 -44 -24z"/>
<path d="M6194 576 c-3 -8 -4 -25 -2 -37 8 -55 88 -47 88 10 0 17 -6 31 -16
35 -28 11 -64 6 -70 -8z"/>
<path d="M6347 584 c-11 -12 -8 -59 5 -72 29 -29 83 6 76 50 -2 18 -10 24 -38
26 -20 2 -39 0 -43 -4z"/>
<path d="M6487 583 c-4 -3 -7 -19 -7 -35 0 -37 37 -57 75 -40 29 14 36 66 9
76 -21 8 -69 8 -77 -1z"/>
<path d="M6641 576 c-32 -38 18 -87 70 -71 16 5 19 14 17 43 -3 35 -5 37 -39
40 -23 2 -40 -2 -48 -12z"/>
<path d="M6803 578 c-29 -37 -17 -68 29 -75 36 -6 59 15 56 50 -3 29 -7 32
-39 35 -21 2 -40 -2 -46 -10z"/>
<path d="M8539 578 c-5 -53 9 -68 62 -68 42 0 62 18 57 52 -3 21 -9 23 -60 26
-42 2 -58 -1 -59 -10z"/>
<path d="M9185 575 c-3 -8 -7 -21 -9 -29 -3 -8 9 -21 27 -31 57 -30 102 3 81
59 -8 22 -93 23 -99 1z"/>
<path d="M9504 564 c-6 -21 -2 -31 16 -46 43 -35 94 -13 88 37 -3 28 -6 30
-50 33 -44 3 -48 1 -54 -24z"/>
<path d="M9841 568 c-15 -41 5 -68 50 -68 34 0 49 17 49 57 0 32 -1 33 -45 33
-38 0 -47 -4 -54 -22z"/>
<path d="M10170 564 c-14 -36 3 -64 40 -64 30 0 60 22 60 45 0 34 -13 45 -51
45 -33 0 -41 -4 -49 -26z"/>
<path d="M10343 578 c-13 -17 -23 -69 -12 -62 5 3 9 0 9 -5 0 -17 57 -13 74 5
17 16 20 33 10 58 -7 19 -67 22 -81 4z"/>
<path d="M10492 578 c-27 -27 -1 -78 40 -78 33 0 50 22 46 57 -3 24 -8 28 -38
31 -19 2 -41 -3 -48 -10z"/>
<path d="M10650 574 c-19 -22 -1 -68 28 -72 25 -4 47 10 63 39 20 39 -62 69
-91 33z"/>
<path d="M10806 575 c-17 -18 -9 -53 16 -68 44 -28 103 40 62 70 -24 17 -59
16 -78 -2z"/>
<path d="M10957 569 c-14 -19 -14 -24 0 -45 18 -28 24 -29 64 -8 24 12 30 21
27 42 -3 23 -8 27 -40 30 -28 2 -40 -2 -51 -19z"/>
<path d="M11128 579 c-25 -14 -22 -47 5 -60 27 -12 74 2 83 26 14 36 -46 59
-88 34z"/>
<path d="M11293 578 c-6 -7 -12 -22 -15 -34 -5 -19 -2 -21 36 -18 46 4 73 29
55 51 -14 17 -63 17 -76 1z"/>
<path d="M11440 566 c0 -8 5 -18 10 -21 6 -4 8 -11 4 -16 -4 -7 0 -7 12 0 11
5 27 12 37 15 9 3 17 12 17 21 0 11 -11 15 -40 15 -28 0 -40 -4 -40 -14z"/>
<path d="M8481 466 c-7 -8 -11 -27 -9 -43 2 -22 9 -29 30 -31 55 -6 90 42 56
76 -17 17 -63 15 -77 -2z"/>
<path d="M8636 464 c-32 -32 -13 -74 34 -74 32 0 50 17 50 46 0 37 -57 56 -84
28z"/>
<path d="M8791 467 c-17 -17 -13 -64 5 -71 28 -11 54 -6 73 13 22 22 18 60 -8
62 -9 1 -26 3 -38 4 -12 1 -27 -3 -32 -8z"/>
<path d="M8958 468 c-24 -20 -29 -46 -12 -63 31 -31 94 -11 94 30 0 38 -50 58
-82 33z"/>
<path d="M9116 466 c-43 -35 -10 -83 48 -72 41 8 50 18 42 50 -4 18 -14 25
-42 28 -19 2 -41 -1 -48 -6z"/>
<path d="M7042 458 c-31 -31 14 -67 63 -48 20 8 23 13 16 32 -9 26 -58 37 -79
16z"/>
<path d="M7202 458 c-29 -29 0 -58 52 -52 36 4 40 8 32 39 -5 20 -12 25 -39
25 -18 0 -38 -5 -45 -12z"/>
<path d="M7361 456 c-31 -37 7 -66 66 -51 19 4 24 11 21 33 -3 23 -8 27 -39
30 -23 2 -40 -2 -48 -12z"/>
<path d="M7520 449 c-17 -31 -5 -49 34 -49 46 0 66 9 66 29 0 43 -80 59 -100
20z"/>
<path d="M7686 448 c-22 -32 -3 -50 48 -46 35 3 42 7 44 27 7 44 -65 59 -92
19z"/>
<path d="M7841 448 c-13 -34 10 -55 54 -50 41 5 49 14 41 48 -5 20 -12 24 -47
24 -32 0 -41 -4 -48 -22z"/>
<path d="M8002 446 c-9 -20 -7 -27 7 -40 24 -22 47 -20 71 4 29 29 11 60 -34
60 -25 0 -35 -6 -44 -24z"/>
<path d="M8151 452 c-15 -27 12 -62 48 -62 34 0 54 21 49 52 -2 19 -10 23 -45
26 -33 2 -44 -1 -52 -16z"/>
<path d="M8310 444 c-14 -35 3 -54 44 -54 37 0 56 15 56 46 0 24 -17 34 -61
34 -23 0 -32 -6 -39 -26z"/>
<path d="M9270 449 c-18 -33 -5 -49 38 -49 46 0 63 16 51 48 -12 30 -73 32
-89 1z"/>
<path d="M9431 448 c-13 -35 -2 -48 39 -48 43 0 62 17 53 48 -4 18 -13 22 -44
22 -32 0 -41 -4 -48 -22z"/>
<path d="M9602 458 c-20 -20 -14 -47 12 -54 33 -8 57 -2 69 18 23 35 -49 68
-81 36z"/>
<path d="M9783 460 c-22 -9 -32 -43 -15 -54 4 -2 23 -1 42 3 29 6 35 11 35 31
0 28 -24 36 -62 20z"/>
<path d="M6732 443 c4 -22 47 -30 59 -12 12 20 1 29 -32 29 -24 0 -30 -4 -27
-17z"/>
<path d="M6877 454 c-4 -4 -7 -14 -7 -21 0 -10 11 -13 43 -11 29 2 42 8 42 18
0 16 -64 27 -78 14z"/>
<path d="M9937 454 c-20 -20 -6 -35 31 -32 47 4 52 32 7 36 -17 2 -34 0 -38
-4z"/>
<path d="M10102 447 c-10 -11 -9 -17 2 -26 20 -17 68 -3 64 18 -4 21 -51 26
-66 8z"/>
<path d="M10290 440 c0 -5 7 -10 15 -10 8 0 15 5 15 10 0 6 -7 10 -15 10 -8 0
-15 -4 -15 -10z"/>
</g>
</svg>
