<?xml version="1.0" standalone="no"?>
<!DOCTYPE svg PUBLIC "-//W3C//DTD SVG 20010904//EN"
 "http://www.w3.org/TR/2001/REC-SVG-20010904/DTD/svg10.dtd">
<svg version="1.0" xmlns="http://www.w3.org/2000/svg"
 width="260.000000pt" height="392.000000pt" viewBox="0 0 260.000000 392.000000"
 preserveAspectRatio="xMidYMid meet">
<metadata>
Created by potrace 1.16, written by Peter Selinger 2001-2019
</metadata>
<g transform="translate(0.000000,392.000000) scale(0.100000,-0.100000)"
fill="#ffffff" stroke="none">
<path d="M771 3599 c-90 -46 -163 -227 -186 -464 -4 -38 -10 -79 -12 -90 -3
-11 -7 -129 -10 -262 l-6 -242 -53 -12 c-30 -7 -54 -16 -54 -22 0 -5 7 -6 16
-3 9 3 33 9 54 12 38 6 39 5 44 -27 4 -19 7 -49 9 -68 2 -32 0 -34 -45 -48
-27 -7 -48 -18 -48 -22 0 -5 21 -3 47 5 25 8 49 14 53 14 4 0 13 -20 20 -45 7
-25 17 -48 21 -51 21 -13 5 -32 -36 -44 -25 -7 -45 -17 -45 -21 0 -12 8 -11
57 7 24 9 46 15 49 12 3 -3 -4 -23 -16 -45 -24 -48 -23 -125 4 -166 10 -15 21
-25 23 -23 3 3 29 -8 57 -24 29 -17 79 -39 112 -50 72 -25 288 -70 336 -70 34
0 36 -1 40 -45 4 -28 16 -59 33 -81 89 -117 275 -59 279 87 l1 37 60 6 c193
21 380 73 478 134 22 13 40 22 42 20 1 -2 14 -25 28 -53 39 -78 83 -222 96
-311 35 -242 -87 -452 -335 -574 -170 -85 -330 -91 -410 -15 -47 45 -44 54 14
42 28 -6 60 -7 78 -2 25 8 19 10 -41 16 -91 8 -102 14 -110 55 -10 56 1 76 38
70 65 -11 117 -10 117 2 0 4 -27 7 -60 8 -73 0 -90 13 -66 48 25 39 57 56 132
69 39 8 70 19 72 27 3 9 -1 11 -12 7 -14 -5 -17 -2 -14 15 2 18 13 24 58 33
31 6 78 24 105 39 50 27 140 104 132 112 -3 3 -34 -17 -70 -44 -75 -58 -144
-87 -205 -87 l-44 0 6 -37 c5 -29 3 -38 -8 -38 -10 0 -18 22 -27 73 -7 39 -17
78 -22 85 -5 6 -25 12 -44 12 -27 0 -34 4 -31 18 3 13 13 17 48 17 42 0 46 -2
57 -35 8 -22 12 -28 12 -15 1 29 -27 65 -50 65 -10 0 -19 4 -19 9 0 17 -29 20
-44 6 -8 -8 -27 -14 -43 -14 -17 1 -21 3 -10 6 9 2 15 9 11 14 -3 6 -16 3 -31
-7 -21 -13 -27 -14 -34 -3 -6 10 -9 11 -9 2 0 -7 -5 -13 -11 -13 -6 0 -8 7 -5
17 6 15 4 15 -14 -2 -19 -17 -21 -17 -38 -2 -16 15 -20 15 -40 1 -20 -14 -24
-14 -38 1 -15 15 -18 15 -35 -1 -18 -16 -20 -16 -37 0 -18 15 -21 14 -58 -12
-76 -56 -79 -62 -60 -139 8 -37 27 -122 41 -188 42 -200 57 -260 67 -270 8 -9
252 -22 511 -28 73 -2 86 -4 81 -17 -4 -8 -7 -31 -6 -50 0 -19 -4 -43 -9 -52
-5 -9 -5 -18 -1 -20 4 -2 4 -37 0 -78 -4 -41 -8 -83 -8 -93 -1 -10 -6 -15 -12
-11 -7 4 -8 2 -4 -5 4 -6 0 -23 -9 -37 -18 -27 -27 -58 -27 -87 1 -11 -4 -15
-11 -10 -7 4 -6 0 2 -10 7 -9 11 -24 7 -32 -3 -8 -1 -26 4 -39 8 -21 6 -24
-11 -21 -10 2 -19 0 -19 -4 0 -18 -131 -36 -260 -36 -117 0 -252 15 -300 33
-8 3 -19 6 -25 6 -14 1 -16 66 -3 89 7 13 7 17 0 13 -6 -4 -11 2 -11 11 -1 43
-7 69 -19 82 -7 7 -11 20 -8 28 4 9 2 11 -6 7 -8 -5 -9 -2 -5 10 5 11 3 15 -5
10 -8 -5 -9 -2 -5 9 3 9 2 19 -4 23 -6 3 -10 49 -9 107 1 56 0 104 -1 107 -1
3 -3 21 -4 40 -5 51 -42 175 -69 229 -28 55 -113 145 -141 149 -27 5 -46 32
-40 56 5 17 3 16 -9 -4 -12 -20 -23 -25 -63 -26 -40 -2 -47 2 -16 9 4 1 20 14
36 30 15 15 32 25 37 22 6 -4 7 2 3 11 -5 13 -3 15 7 9 9 -5 11 -4 6 3 -10 16
18 66 46 80 13 7 32 26 43 43 l20 30 20 -24 c19 -22 119 -97 130 -97 3 0 5 7
5 15 0 8 -5 15 -11 15 -6 0 -8 8 -5 18 3 9 1 24 -5 32 -8 12 -9 9 -4 -10 8
-33 -10 -5 -19 30 -6 20 -5 22 4 10 9 -12 10 -10 4 10 -8 29 -45 82 -52 75 -3
-3 2 -13 11 -23 10 -10 17 -23 17 -28 -1 -10 -25 19 -41 49 -7 13 -6 17 3 15
22 -5 22 81 0 122 -18 33 -73 80 -136 118 -16 9 -41 28 -54 42 -22 22 -24 22
-19 5 8 -24 9 -25 -79 90 -69 90 -99 135 -91 135 3 0 29 -32 57 -71 28 -39 54
-69 56 -66 3 3 -21 39 -53 81 -45 60 -63 76 -79 73 -15 -3 -21 1 -20 12 1 11
-7 16 -24 16 -19 0 -26 -6 -28 -24 -2 -13 1 -28 7 -34 6 -6 11 -19 11 -28 0
-10 27 -54 61 -99 68 -93 69 -89 -17 -146 -124 -82 -193 -270 -149 -404 10
-29 33 -70 52 -91 40 -44 116 -74 163 -64 41 9 38 1 -10 -26 -122 -69 -162
-258 -116 -541 16 -98 18 -126 8 -168 -31 -134 -3 -222 87 -277 130 -78 374
-65 470 26 34 32 38 33 76 23 136 -36 441 -41 568 -9 l58 15 30 -29 c64 -60
231 -93 353 -70 184 34 254 130 219 301 -14 69 -14 83 2 175 48 273 34 395
-57 508 -30 38 -30 39 -14 75 25 58 46 151 46 206 0 114 -41 270 -106 398 -33
65 -33 68 -18 103 17 42 12 83 -17 133 -10 18 -19 35 -19 37 0 2 21 -2 48 -10
26 -8 51 -15 57 -15 18 0 -10 18 -48 30 -30 9 -37 16 -32 29 4 9 14 35 22 59
16 46 29 50 91 33 17 -5 32 -6 32 -1 0 9 -14 14 -68 25 l-33 7 7 61 c8 73 10
79 32 73 48 -13 96 -17 87 -7 -5 5 -32 14 -60 18 l-50 9 1 39 c3 111 -17 504
-32 600 -49 335 -134 462 -281 426 -70 -18 -120 -50 -194 -128 -65 -67 -159
-200 -195 -275 l-18 -38 -82 0 -82 0 -36 65 c-65 118 -124 200 -193 266 -113
110 -207 141 -292 98z m166 -34 c29 -13 76 -45 104 -72 46 -43 142 -178 211
-296 l28 -47 94 0 95 0 54 93 c106 178 195 279 290 323 98 45 172 24 219 -63
29 -54 61 -157 78 -249 18 -103 40 -364 40 -476 l0 -106 -70 -29 c-69 -29 -72
-29 -138 -17 -41 8 -118 12 -198 10 l-132 -3 60 56 c91 84 95 86 183 62 92
-26 112 -27 95 -6 -24 28 -132 75 -175 75 -47 0 -64 -11 -162 -102 -38 -34
-79 -62 -103 -69 -25 -8 -42 -20 -46 -33 -12 -38 -30 -46 -100 -46 -68 0 -104
16 -104 46 0 7 -24 25 -52 39 -29 13 -69 39 -88 57 -109 102 -118 108 -164
108 -31 0 -65 -11 -115 -37 -107 -54 -93 -69 29 -32 65 19 71 20 102 4 18 -9
58 -39 89 -68 l56 -52 -156 -1 c-86 0 -175 -5 -197 -11 -37 -9 -50 -7 -114 20
l-72 30 7 146 c20 445 81 686 189 752 42 26 100 24 163 -6z m-216 -1001 c10
-9 19 -21 19 -26 0 -6 -138 -1 -147 7 -2 1 -6 23 -9 49 l-7 46 62 -29 c35 -16
71 -37 82 -47z m1429 27 l0 -48 -77 -6 c-43 -2 -79 -3 -81 -2 -16 15 67 70
156 104 1 1 2 -21 2 -48z m-1057 -19 c-5 -40 4 -54 44 -66 30 -9 67 27 60 60
-4 21 -1 23 22 18 53 -13 57 -27 25 -91 -35 -70 -75 -99 -151 -109 -82 -10
-210 2 -246 24 -35 20 -75 91 -79 142 -5 52 20 60 189 60 l141 0 -5 -38z m837
29 c22 -6 25 -13 24 -52 0 -62 -31 -118 -80 -143 -33 -18 -57 -21 -159 -21
-151 1 -179 11 -218 84 -35 63 -33 102 5 112 20 5 25 4 21 -7 -9 -25 25 -64
56 -64 37 0 55 22 53 65 l-1 35 137 -1 c75 -1 148 -4 162 -8z m-504 -69 c6 -4
23 -29 37 -57 48 -96 90 -115 246 -115 164 0 217 23 256 110 19 42 29 47 126
57 l62 6 -8 -59 c-4 -32 -9 -62 -11 -66 -3 -4 -40 -6 -82 -3 -63 3 -70 3 -37
-5 22 -5 57 -12 77 -15 l37 -6 -14 -39 c-28 -80 -29 -80 -82 -63 -81 25 -83
26 -83 16 0 -5 19 -14 43 -21 74 -22 76 -27 37 -67 -94 -97 -317 -147 -665
-147 -346 -1 -574 51 -669 150 l-28 31 34 14 c19 8 44 18 56 21 12 4 22 11 22
16 0 5 -25 0 -57 -11 -31 -10 -59 -19 -63 -19 -8 0 -50 92 -50 108 0 6 28 13
63 17 69 8 112 24 62 24 -16 0 -50 -4 -75 -9 -25 -5 -48 -5 -52 -2 -4 4 -10
35 -14 70 l-7 63 34 -5 c19 -3 55 -8 81 -11 42 -5 48 -9 61 -43 35 -87 93
-112 259 -112 155 1 198 21 244 116 14 29 31 55 37 58 19 7 111 6 123 -2z m15
-608 c25 -22 53 -73 45 -82 -10 -9 -161 -15 -210 -8 -58 9 -59 23 -5 77 40 40
43 41 95 37 34 -3 62 -12 75 -24z m-766 5 c81 -22 128 -76 141 -160 l7 -44
-24 22 c-27 24 -118 68 -126 60 -2 -3 13 -13 34 -23 47 -22 100 -61 107 -79 5
-15 -11 -85 -24 -98 -4 -5 -28 6 -53 22 -25 17 -60 33 -79 36 -32 5 -31 5 10
-15 54 -25 102 -58 102 -71 0 -5 -15 -18 -32 -30 -25 -15 -43 -19 -78 -15 -41
5 -43 4 -26 -9 11 -8 28 -15 38 -15 24 0 23 -8 -7 -52 -48 -71 -157 -98 -235
-58 -95 49 -131 189 -81 321 41 108 113 182 199 205 60 16 78 16 127 3z m193
-202 c-3 -22 -4 -22 -14 -2 -6 11 -14 40 -17 65 l-6 45 20 -43 c11 -24 19 -53
17 -65z m448 65 c6 -4 13 -15 17 -24 10 -27 46 -22 57 7 8 22 16 25 55 25 25
0 45 -2 45 -5 0 -15 -31 -62 -53 -84 -33 -30 -112 -33 -150 -5 -27 20 -57 64
-57 83 0 12 69 15 86 3z m-156 -214 c0 -13 -8 -18 -30 -18 -22 0 -30 5 -30 18
0 14 8 18 30 18 22 0 30 -4 30 -18z m70 2 c0 -16 -7 -20 -30 -20 -18 0 -30 5
-30 13 0 20 10 27 37 27 16 0 23 -6 23 -20z m78 -2 c3 -14 -3 -18 -27 -18 -29
0 -41 17 -24 34 13 13 48 1 51 -16z m72 2 c0 -16 -7 -20 -30 -20 -18 0 -30 5
-30 13 0 20 10 27 37 27 16 0 23 -6 23 -20z m80 16 c0 -20 -16 -36 -36 -36
-23 0 -32 18 -17 33 7 8 53 10 53 3z m-376 -21 c-4 -8 -12 -15 -20 -15 -8 0
-11 6 -8 15 4 8 12 15 20 15 8 0 11 -6 8 -15z m-338 -271 c50 -28 86 -70 120
-135 40 -79 55 -155 63 -314 7 -129 11 -159 35 -217 55 -136 41 -229 -43 -276
-21 -12 -40 -22 -42 -22 -2 0 -4 31 -4 70 0 45 -5 74 -14 82 -11 11 -12 7 -5
-22 12 -49 11 -117 -3 -131 -6 -6 -38 -12 -70 -13 l-58 -1 -5 85 c-4 60 -7 78
-13 63 -5 -13 -6 -52 -3 -88 l6 -65 -34 0 c-75 0 -95 10 -106 51 -8 28 -8 51
0 80 13 48 6 65 -11 23 -6 -16 -9 -53 -7 -81 3 -29 2 -53 -2 -53 -4 0 -26 13
-48 30 -74 53 -83 91 -67 275 6 71 4 108 -10 175 -54 259 13 475 158 511 48
12 117 1 163 -27z m1510 -138 c25 -84 28 -189 8 -301 -19 -104 -23 -226 -9
-307 4 -26 4 -63 1 -83 -8 -43 -65 -109 -106 -124 l-29 -10 5 43 c7 45 -10
116 -27 116 -6 0 -5 -9 2 -21 11 -22 9 -133 -3 -145 -4 -3 -34 -8 -67 -11
l-61 -6 -2 94 c-1 52 -3 72 -5 44 -1 -27 -6 -70 -9 -94 l-6 -44 -61 7 c-33 3
-64 12 -69 19 -11 18 -10 105 3 129 6 11 8 22 6 25 -13 12 -31 -47 -31 -99 l1
-56 -26 11 c-68 29 -109 102 -98 174 3 19 18 64 33 101 22 55 28 90 35 199 8
139 14 173 30 173 23 0 147 55 198 87 66 43 154 124 183 171 l22 35 33 -38
c18 -21 40 -62 49 -89z"/>
<path d="M814 3505 c-83 -35 -155 -367 -101 -470 25 -48 65 -47 127 5 50 42
91 62 172 86 26 8 50 20 54 26 37 60 -108 326 -194 356 -20 7 -37 6 -58 -3z"/>
<path d="M1814 3456 c-52 -54 -125 -186 -139 -252 -8 -43 16 -67 95 -90 44
-13 83 -33 124 -67 75 -60 111 -62 139 -7 16 29 18 51 13 135 -8 151 -46 283
-95 323 -8 6 -31 12 -50 12 -29 0 -43 -9 -87 -54z"/>
<path d="M1300 2485 c-11 -13 -9 -22 6 -51 10 -20 25 -38 32 -41 17 -7 15 -78
-3 -93 -28 -23 -98 -24 -145 -1 -50 24 -50 24 -50 11 0 -5 19 -19 42 -31 34
-17 51 -20 97 -14 71 8 94 8 157 0 56 -8 114 6 135 31 20 24 5 25 -37 3 -43
-22 -121 -22 -149 1 -17 14 -21 90 -5 90 6 0 15 10 20 23 6 12 15 29 22 39 9
13 9 20 -1 32 -18 21 -104 22 -121 1z"/>
</g>
</svg>
