<?xml version="1.0" standalone="no"?>
<!DOCTYPE svg PUBLIC "-//W3C//DTD SVG 20010904//EN"
 "http://www.w3.org/TR/2001/REC-SVG-20010904/DTD/svg10.dtd">
<svg version="1.0" xmlns="http://www.w3.org/2000/svg"
 width="1751.000000pt" height="1888.000000pt" viewBox="0 0 1751.000000 1888.000000"
 preserveAspectRatio="xMidYMid meet">
<metadata>
Created by potrace 1.16, written by Peter Selinger 2001-2019
</metadata>
<g transform="translate(0.000000,1888.000000) scale(0.100000,-0.100000)"
fill="#a7262a" stroke="none">
<path d="M7665 18461 c-85 -22 -156 -53 -174 -75 -7 -9 -19 -16 -26 -16 -27 0
-192 -197 -242 -288 -11 -20 -30 -54 -41 -75 -12 -21 -22 -44 -22 -53 0 -8 -4
-13 -9 -10 -5 4 -11 1 -13 -5 -2 -6 -24 7 -48 29 -58 51 -217 155 -300 197
-126 63 -224 89 -335 88 -85 0 -108 -4 -156 -25 -149 -68 -231 -206 -305 -515
-40 -171 -105 -547 -134 -788 -45 -370 -50 -414 -60 -520 -17 -185 -7 -166
-118 -220 -53 -25 -130 -66 -170 -91 -40 -24 -75 -44 -78 -44 -3 0 -20 -11
-38 -25 -18 -14 -36 -25 -40 -25 -4 0 -24 -12 -44 -27 -125 -91 -151 -111
-187 -141 -22 -18 -55 -45 -73 -60 -64 -53 -270 -258 -327 -327 -32 -38 -61
-72 -64 -75 -3 -3 -10 -12 -16 -22 -19 -30 -108 -143 -117 -146 -4 -2 -8 -8
-8 -13 0 -4 -32 -57 -70 -116 -79 -121 -194 -350 -263 -523 -86 -215 -148
-451 -202 -765 -26 -151 -55 -240 -89 -277 -11 -12 -19 -24 -17 -27 13 -13
-227 -241 -254 -241 -8 0 -172 -136 -180 -150 -4 -6 -11 -8 -16 -4 -5 3 -8 1
-7 -4 2 -6 0 -9 -4 -8 -4 0 -15 -9 -23 -21 -9 -13 -22 -23 -30 -23 -8 0 -17
-5 -21 -12 -5 -7 -3 -8 7 -3 11 7 -12 -27 -31 -45 -18 -16 -42 -105 -47 -170
-5 -64 -1 -87 21 -153 15 -43 42 -103 61 -133 19 -30 33 -54 30 -54 -3 0 4 -9
14 -19 11 -11 23 -37 26 -58 36 -234 85 -359 193 -491 55 -68 141 -149 188
-178 19 -11 32 -23 29 -26 -3 -2 1 -5 8 -5 6 0 44 -15 82 -33 39 -18 76 -32
82 -31 25 4 49 -18 62 -56 37 -104 139 -228 216 -262 81 -36 120 -27 185 41
l28 29 71 -78 c163 -176 275 -397 336 -658 9 -42 15 -115 15 -202 l0 -136 -44
-41 c-72 -67 -95 -180 -60 -291 9 -27 17 -54 18 -60 5 -21 31 -71 43 -83 7 -7
13 -17 13 -22 0 -5 31 -39 68 -77 126 -127 299 -188 513 -181 76 2 109 0 109
-8 0 -6 -11 -36 -25 -67 -51 -117 -73 -254 -56 -356 6 -35 8 -67 6 -72 -13
-20 -288 112 -381 184 -26 20 -78 86 -135 172 -52 77 -115 167 -140 201 -26
34 -55 76 -65 92 -10 17 -21 29 -26 26 -4 -3 -8 2 -8 10 0 9 -3 15 -7 14 -5 0
-37 27 -73 61 -36 35 -96 83 -135 108 -86 56 -95 67 -95 112 0 20 -13 64 -29
98 -26 54 -28 63 -14 74 8 7 27 36 41 63 22 43 27 63 26 127 -1 72 -3 80 -38
127 -23 32 -58 63 -92 83 -42 24 -54 35 -49 48 36 86 -1 303 -76 446 -88 171
-97 183 -229 315 -113 113 -188 179 -195 172 -3 -3 -5 0 -5 6 0 7 -4 12 -10
12 -5 0 -19 8 -30 17 -29 25 -286 157 -337 173 -24 7 -43 16 -43 20 0 4 -17
10 -37 13 -21 4 -72 16 -113 28 -152 43 -217 54 -417 69 -178 13 -464 -1 -618
-30 -60 -12 -121 -23 -135 -25 -39 -7 -247 -70 -330 -101 -88 -32 -383 -180
-388 -194 -2 -6 -8 -10 -14 -10 -11 0 -100 -59 -110 -74 -4 -6 -8 -7 -8 -2 0
6 -6 3 -13 -5 -19 -24 -120 -104 -126 -101 -3 1 -6 -2 -6 -6 0 -5 -25 -33 -55
-63 -65 -64 -170 -179 -163 -179 3 0 -8 -17 -24 -37 -73 -95 -151 -244 -196
-373 -85 -244 -87 -544 -6 -684 17 -28 17 -29 -20 -65 -43 -41 -81 -131 -81
-189 1 -20 7 -55 15 -76 8 -22 11 -44 8 -49 -3 -6 -1 -7 5 -3 7 4 12 3 12 -2
0 -13 77 -92 90 -92 5 0 10 -4 10 -10 0 -5 -4 -10 -9 -10 -5 0 -26 -24 -47
-52 -21 -29 -41 -55 -45 -58 -14 -10 -77 -148 -97 -210 -36 -111 -45 -182 -39
-312 8 -198 58 -343 183 -535 72 -109 242 -281 379 -382 55 -41 105 -80 111
-87 6 -8 14 -11 17 -7 4 3 7 1 7 -6 0 -7 4 -9 10 -6 5 3 10 1 10 -5 0 -6 12
-15 27 -21 27 -10 244 -137 253 -148 3 -3 23 -19 45 -35 22 -16 47 -36 55 -43
20 -18 126 -99 224 -170 385 -282 669 -459 1029 -640 84 -42 154 -80 155 -85
2 -4 11 -8 19 -8 8 0 49 -16 90 -35 41 -19 78 -35 83 -35 4 0 36 -13 71 -29
112 -50 439 -166 644 -228 80 -25 413 -106 495 -122 30 -6 89 -17 130 -25 41
-8 98 -18 125 -21 97 -12 99 -13 81 -38 -34 -50 -135 -272 -170 -378 -194
-584 -207 -1125 -40 -1804 74 -306 252 -737 402 -980 28 -44 48 -83 45 -87 -2
-5 -18 -8 -35 -8 -18 0 -45 -5 -62 -10 -17 -6 -70 -21 -119 -35 -361 -101
-611 -314 -753 -643 -63 -146 -88 -339 -64 -489 15 -99 65 -231 116 -308 27
-41 39 -71 39 -95 0 -34 1 -35 42 -38 56 -4 72 -24 38 -46 -49 -32 -12 -94 39
-67 14 8 23 18 19 24 -12 20 22 26 42 7 11 -10 42 -29 68 -40 42 -19 47 -24
35 -37 -15 -18 -12 -54 6 -65 6 -4 23 -8 39 -8 20 0 30 7 37 25 13 33 27 32
66 -6 24 -23 38 -30 51 -24 32 14 47 14 111 2 63 -12 71 -21 52 -56 -6 -13 -5
-24 6 -39 30 -43 89 -14 82 40 -4 25 -2 28 23 28 25 0 28 -4 31 -36 4 -43 24
-60 61 -50 22 5 27 12 27 36 0 19 7 33 20 40 28 15 40 5 40 -36 0 -35 1 -35
38 -32 29 2 38 8 40 25 5 31 29 50 45 33 10 -10 9 -11 -3 -5 -11 6 -10 3 2
-12 10 -11 18 -24 18 -29 0 -5 17 -18 38 -29 20 -11 38 -27 38 -35 1 -8 2 -28
3 -44 1 -28 2 -29 47 -22 40 5 55 1 105 -25 46 -25 59 -37 59 -55 0 -49 47
-64 90 -30 18 14 28 14 55 0 11 -6 41 -17 68 -24 26 -7 50 -17 53 -22 3 -5 0
-7 -7 -6 -7 2 -18 -8 -25 -21 -19 -36 -2 -61 41 -61 40 0 57 22 44 57 -8 21
-6 22 31 20 39 -2 40 -3 40 -39 0 -37 1 -38 35 -38 28 0 38 5 47 25 14 31 38
28 77 -9 l30 -29 40 21 c42 22 63 21 94 -6 14 -13 23 -13 56 -2 24 8 54 10 78
5 45 -8 85 -10 443 -19 151 -4 286 -10 300 -13 l25 -6 -25 -6 c-35 -9 -39 -53
-8 -73 30 -20 65 -7 74 26 7 29 -1 46 -22 46 -8 0 -14 4 -14 9 0 5 30 9 68 9
65 2 66 1 47 -16 -21 -17 -22 -46 -3 -69 13 -16 68 -17 68 -2 0 6 6 9 14 6 13
-5 13 -1 0 35 -8 22 -14 42 -14 44 0 2 25 4 55 4 47 0 54 -2 43 -14 -7 -8 -15
-12 -18 -11 -3 2 -5 -7 -5 -20 3 -54 57 -73 94 -34 16 17 17 25 8 40 -15 25
-5 32 50 34 44 1 45 1 25 -13 -25 -17 -29 -47 -8 -68 18 -17 58 -18 74 -2 15
15 16 68 0 68 -31 0 6 13 46 16 42 3 59 -7 37 -20 -14 -9 -19 -55 -7 -64 43
-34 96 -10 96 44 0 29 3 34 24 34 13 0 31 3 40 6 9 3 16 1 16 -6 0 -6 -4 -9
-9 -6 -13 8 -20 -16 -14 -46 6 -31 46 -52 72 -38 10 5 20 7 23 5 2 -2 5 11 6
30 1 18 -2 36 -8 40 -20 12 1 23 45 23 45 0 59 -10 30 -22 -16 -6 -17 -40 -2
-64 10 -15 51 -16 78 -2 24 13 25 56 2 69 -21 12 -15 14 49 15 27 1 48 -2 48
-6 0 -5 -4 -8 -9 -8 -5 0 -11 -13 -13 -30 -4 -25 0 -31 25 -44 27 -12 33 -12
54 1 25 17 30 52 11 72 -11 10 -9 11 6 5 11 -4 17 -3 14 2 -3 5 12 9 33 10 21
1 39 -3 39 -8 0 -5 -4 -7 -9 -4 -10 7 -21 -16 -21 -44 0 -32 79 -57 95 -30 4
6 10 8 15 5 8 -5 5 19 -7 55 -2 8 -4 17 -4 20 1 9 91 7 91 -2 0 -4 -5 -8 -10
-8 -6 0 -10 -17 -9 -38 2 -30 7 -39 23 -41 35 -4 78 0 71 7 -2 3 0 13 6 23 7
14 5 23 -10 38 -24 24 -11 31 55 31 45 0 60 -14 24 -23 -16 -4 -20 -12 -17
-32 6 -48 54 -64 95 -32 15 12 16 49 0 65 -9 9 -8 13 3 16 23 9 79 2 77 -9 -2
-5 -5 -9 -8 -8 -13 4 -4 -53 10 -64 42 -35 108 4 90 53 -7 18 -5 24 8 28 9 3
122 5 250 5 128 0 301 3 385 6 154 7 393 16 457 17 19 0 48 -3 63 -7 20 -5 33
-3 47 10 19 17 66 17 63 0 -3 -20 68 -16 94 5 32 25 44 25 73 0 35 -30 69 -25
83 13 9 23 54 22 66 -2 6 -10 8 -20 6 -23 -7 -6 38 -9 63 -3 16 4 22 13 22 31
0 20 4 25 16 20 9 -4 13 -2 8 5 -4 7 1 10 12 7 10 -2 25 -16 32 -31 15 -31 51
-44 81 -27 20 10 25 25 22 63 -2 16 3 18 49 22 8 0 20 4 26 7 6 4 44 11 86 16
41 5 85 15 96 21 12 7 22 8 22 3 0 -9 16 -13 63 -14 18 -1 34 7 43 21 20 28
48 27 68 -4 27 -42 86 -28 86 20 0 29 11 41 43 49 27 6 27 6 21 -32 -8 -48 13
-70 54 -56 49 17 38 84 -14 84 -13 0 -24 4 -24 9 0 9 47 21 82 21 10 0 35 8
56 17 51 23 71 23 83 2 11 -22 51 -25 67 -6 5 6 12 23 14 37 2 17 14 30 38 41
19 10 38 15 42 13 4 -2 9 0 12 5 4 5 26 9 51 9 37 0 52 6 82 32 l36 32 13 -31
c9 -22 20 -31 36 -31 41 0 51 14 44 57 l-7 39 52 25 c29 13 54 23 56 22 6 -5
-2 -18 -10 -15 -5 1 -6 -2 -2 -8 5 -8 12 -7 23 2 10 9 16 10 19 2 4 -13 50 -7
59 8 10 15 12 58 3 52 -5 -3 -9 -1 -9 4 0 6 17 17 38 26 20 9 53 25 72 36 l35
20 17 -20 c21 -25 65 -24 82 2 8 13 6 25 -6 46 -17 29 -17 29 8 41 14 6 31 11
39 11 7 0 24 13 37 29 26 33 62 45 64 21 0 -8 2 -21 2 -28 1 -7 12 -17 25 -21
26 -10 57 12 57 41 0 19 9 25 45 30 16 2 19 -2 17 -21 -3 -30 14 -51 43 -51
29 0 47 22 43 51 -3 21 5 24 150 54 84 18 156 33 160 34 4 1 21 5 37 11 17 5
41 12 55 14 46 9 274 92 367 133 50 23 94 39 97 35 3 -3 6 0 6 7 0 7 5 9 10 6
6 -3 10 -2 10 3 0 5 15 15 33 22 17 8 40 20 49 28 9 8 21 11 27 8 5 -4 13 0
18 7 8 13 179 112 193 112 5 0 12 4 17 9 5 5 2 6 -7 2 -8 -4 -4 2 10 13 14 11
31 21 38 21 6 0 12 4 12 8 0 10 62 47 73 44 5 -1 6 2 2 8 -3 5 -2 10 3 10 6 0
42 24 80 54 39 30 74 51 78 48 4 -4 4 -2 1 4 -3 6 12 24 34 40 23 16 50 39 62
52 11 12 24 22 29 22 15 0 252 233 364 359 21 24 50 56 63 70 14 14 40 46 58
71 19 25 47 56 62 70 15 14 20 21 12 15 -16 -10 70 102 114 149 13 13 182 269
205 308 8 14 27 49 42 76 15 27 33 56 41 63 7 8 19 29 26 47 8 19 19 39 25 46
6 6 38 65 70 131 33 66 62 122 65 125 3 3 7 13 9 23 2 10 19 48 37 85 19 37
35 70 35 73 0 4 9 26 19 50 11 24 20 47 20 51 1 5 13 34 27 65 28 65 90 239
136 383 115 365 209 787 267 1210 25 179 30 220 41 315 6 55 15 138 20 185 5
47 14 135 20 195 11 114 24 239 40 385 5 47 15 132 21 190 31 300 72 572 108
725 6 22 14 60 20 85 17 79 81 281 123 390 60 154 155 348 255 520 12 19 60
103 108 185 48 83 93 157 100 165 8 8 13 17 13 20 0 3 8 25 19 50 55 122 67
151 94 230 135 398 102 806 -88 1107 -18 29 -33 55 -33 58 0 3 -8 13 -17 23
-10 10 -29 34 -43 53 -38 52 -152 159 -217 204 -61 42 -202 125 -212 125 -3 0
-49 13 -101 29 -52 17 -120 36 -151 42 -83 17 -325 6 -417 -19 -40 -11 -75
-21 -77 -21 -98 -26 -315 -136 -388 -197 -16 -13 -34 -21 -39 -18 -6 4 -8 2
-5 -3 4 -6 -4 -18 -16 -26 -13 -8 -58 -49 -101 -91 -43 -42 -82 -76 -87 -76
-4 0 -11 -5 -15 -12 -5 -7 -3 -8 7 -2 8 4 -1 -11 -19 -34 -19 -23 -38 -42 -43
-42 -5 0 -9 -6 -9 -12 0 -7 -16 -30 -35 -51 -19 -21 -37 -47 -40 -58 -4 -10
-11 -19 -16 -19 -5 0 -9 -4 -9 -9 0 -5 -23 -46 -50 -92 -108 -174 -248 -491
-310 -699 -13 -41 -29 -95 -37 -120 -15 -44 -21 -66 -61 -220 -70 -266 -127
-607 -207 -1250 -36 -285 -52 -392 -86 -565 -26 -133 -68 -313 -83 -355 -2 -8
-17 -55 -32 -105 l-27 -90 -13 60 c-31 135 -86 334 -110 390 -7 17 -16 44 -19
60 -4 17 -21 73 -37 125 -27 84 -42 126 -93 260 -8 19 -26 67 -40 105 -26 69
-68 170 -87 210 -5 12 -10 27 -12 35 -1 8 -19 50 -39 94 -21 43 -37 80 -37 82
0 12 -207 432 -222 452 -6 6 -7 12 -3 12 5 0 1 8 -7 18 -8 9 -43 71 -78 137
-180 342 -519 866 -840 1298 -29 39 -117 151 -197 252 -22 27 -117 139 -123
145 -3 3 -28 32 -55 65 -28 33 -52 62 -55 65 -3 3 -27 30 -54 60 -27 30 -125
132 -217 227 -93 94 -165 173 -161 175 11 4 82 164 97 218 40 140 45 331 11
454 -56 201 -219 402 -395 487 -49 23 -61 33 -50 40 8 5 9 9 4 9 -6 0 5 67 27
158 73 306 81 385 82 752 1 209 -3 330 -12 385 -7 44 -22 134 -33 200 -11 66
-24 136 -29 155 -5 19 -11 46 -14 60 -3 14 -10 43 -14 65 -11 48 -97 307 -117
350 -7 17 -26 62 -41 100 -38 95 -160 340 -196 393 -16 23 -26 42 -23 42 4 0
0 6 -7 14 -7 8 -46 63 -87 123 -136 197 -305 386 -486 541 -55 47 -106 93
-112 101 -7 8 -13 11 -13 5 0 -5 -4 -4 -8 1 -10 15 -171 129 -209 149 -18 9
-33 21 -33 27 0 6 -4 8 -9 5 -10 -7 -23 21 -45 99 -20 67 -48 146 -101 285
-20 52 -38 100 -39 105 -1 6 -10 27 -19 49 -9 21 -17 40 -17 42 0 16 -217 483
-230 494 -3 3 -12 19 -20 35 -8 17 -27 52 -43 78 -15 27 -24 53 -21 59 4 6 2
8 -3 5 -6 -4 -16 5 -22 21 -12 30 -53 102 -82 144 -11 14 -19 29 -19 32 0 11
-202 311 -211 314 -5 2 -9 8 -9 13 0 5 -6 17 -14 26 -45 56 -84 112 -80 117 2
3 1 4 -2 2 -3 -3 -32 28 -63 67 -56 70 -235 255 -316 327 -22 20 -67 53 -100
75 -33 22 -70 48 -83 60 -13 11 -24 18 -25 16 -1 -2 -21 6 -44 17 -126 65
-221 91 -353 97 -82 4 -120 1 -175 -14z m310 -153 c70 -20 225 -95 225 -108 0
-4 13 -13 30 -20 16 -7 27 -17 23 -23 -3 -5 -1 -7 4 -4 18 11 196 -139 186
-156 -3 -6 -1 -7 4 -4 15 9 307 -319 295 -331 -1 -1 3 -9 10 -16 32 -34 92
-114 157 -211 85 -127 104 -158 89 -150 -7 3 -5 0 4 -7 15 -13 110 -165 106
-171 -1 -1 10 -21 25 -43 43 -69 221 -430 282 -574 148 -349 248 -655 316
-965 6 -27 15 -60 20 -72 12 -31 53 -39 85 -18 25 16 26 18 23 120 -2 57 -1
106 2 110 4 3 28 -11 55 -32 27 -20 76 -57 109 -82 86 -66 265 -242 258 -254
-3 -6 -2 -7 4 -4 6 4 28 -14 49 -40 22 -26 44 -51 50 -57 12 -12 161 -212 184
-246 8 -12 23 -33 33 -45 9 -13 17 -25 17 -28 0 -3 16 -29 35 -58 19 -29 32
-56 29 -61 -3 -4 -1 -8 4 -8 11 0 170 -314 175 -345 2 -11 13 -40 24 -65 40
-88 131 -390 153 -510 6 -30 12 -66 15 -80 17 -85 35 -247 45 -390 11 -166 5
-345 -21 -595 -11 -102 -62 -367 -76 -388 -4 -7 -8 -14 -8 -17 -6 -46 -18 -79
-27 -74 -7 5 -9 2 -5 -9 3 -9 0 -23 -8 -31 -8 -8 -15 -19 -15 -25 0 -15 -13
-14 -30 2 -12 10 -12 9 -1 -6 12 -16 4 -27 -77 -105 -50 -48 -103 -98 -119
-112 -45 -41 -233 -194 -251 -205 -10 -5 -19 -12 -22 -16 -5 -5 -113 -87 -227
-172 -36 -27 -62 -42 -58 -35 3 7 0 6 -7 -3 -8 -9 -45 -38 -83 -64 -39 -27
-99 -68 -135 -93 -36 -25 -70 -45 -77 -45 -7 0 -10 -3 -8 -7 2 -3 -10 -15 -28
-25 -18 -10 -69 -42 -113 -72 -45 -29 -86 -53 -92 -53 -6 0 -12 -4 -14 -8 -4
-11 -171 -112 -185 -112 -6 0 -13 -4 -15 -9 -3 -10 -21 -21 -193 -117 -309
-174 -768 -403 -1000 -499 -49 -20 -122 -52 -161 -71 -40 -18 -85 -36 -100
-40 -16 -4 -62 -23 -103 -41 -79 -36 -339 -137 -406 -157 -22 -7 -47 -15 -55
-19 -21 -8 -172 -58 -305 -100 -128 -41 -372 -110 -432 -123 -6 -1 -27 -7 -45
-12 -75 -23 -348 -79 -466 -96 -56 -8 -65 -2 -47 35 12 22 13 34 5 49 -6 11
-15 20 -20 20 -4 0 -15 2 -22 5 -8 3 -57 -22 -109 -56 -208 -137 -308 -173
-489 -173 -185 0 -298 44 -400 157 -74 82 -99 136 -101 217 -1 73 1 74 83 81
79 7 130 20 189 50 28 14 39 15 48 6 10 -9 11 -8 6 4 -4 12 4 23 30 39 46 29
68 51 114 120 31 46 71 134 90 200 2 8 6 90 8 181 4 165 3 181 -37 349 -11 48
-58 189 -73 220 -62 129 -181 300 -250 358 -15 13 -24 29 -20 34 3 6 1 8 -5 4
-6 -3 -18 1 -27 11 -14 13 -127 74 -145 77 -3 1 -9 4 -15 7 -34 20 -113 31
-192 27 -65 -4 -123 -16 -223 -48 -112 -35 -153 -43 -244 -47 -124 -6 -185 4
-296 50 -91 37 -150 78 -215 150 -72 79 -77 86 -69 99 5 7 3 8 -6 3 -10 -6
-12 -4 -7 9 4 9 3 15 -2 12 -20 -13 -81 136 -102 246 -10 56 -10 72 1 93 8 14
19 24 25 21 7 -2 27 21 45 52 65 111 81 133 92 126 6 -4 8 -3 4 4 -7 11 41 62
59 62 18 1 77 89 86 130 17 75 -13 135 -83 164 -24 10 -52 22 -63 26 -25 11
-156 35 -170 32 -12 -3 32 37 65 58 13 8 38 28 56 43 18 16 38 26 43 23 5 -4
13 -1 17 5 5 8 3 9 -7 4 -19 -11 -14 -7 67 63 40 34 75 58 79 54 4 -4 5 0 3 8
-2 8 3 14 10 12 8 -1 11 2 8 6 -3 5 8 24 24 41 17 17 28 31 24 31 -3 0 8 18
25 39 70 88 92 159 141 441 32 189 60 300 125 495 53 157 90 246 100 238 4 -4
6 -1 3 7 -7 19 55 153 67 143 4 -4 5 -2 1 5 -11 18 113 235 130 228 7 -3 16 0
20 6 4 6 3 8 -4 4 -6 -3 -13 -2 -17 4 -3 6 0 13 8 16 7 2 14 11 14 18 0 18 62
106 75 106 6 0 9 3 5 6 -3 4 15 34 41 68 25 33 50 66 54 71 11 14 77 91 122
142 21 23 43 40 49 36 5 -3 7 -2 4 4 -3 5 38 52 91 104 125 121 167 158 158
139 -4 -8 1 -4 10 8 25 33 168 141 204 154 17 5 30 13 30 18 0 13 141 101 152
94 7 -4 8 -3 4 4 -4 7 -2 12 4 12 6 0 23 9 38 20 15 11 37 22 50 25 12 2 35
12 50 23 26 18 61 35 187 92 63 28 355 131 390 137 53 9 119 24 207 47 53 15
110 27 125 28 15 1 33 6 38 10 84 64 95 85 200 408 37 113 78 237 92 275 14
39 28 84 33 101 4 18 11 38 16 45 4 8 9 20 10 29 3 24 107 312 159 440 56 138
154 344 166 348 5 2 9 10 9 18 0 8 5 14 11 14 5 0 7 4 4 10 -3 5 3 17 15 27
11 10 20 23 20 29 0 17 157 174 174 174 7 0 19 6 25 13 12 16 109 45 161 50
59 5 132 -4 205 -25z m-1423 -209 c9 -5 26 -9 37 -9 28 0 210 -96 291 -153 97
-68 183 -144 186 -164 2 -10 -25 -92 -60 -183 -35 -91 -72 -190 -81 -220 -10
-30 -22 -64 -28 -75 -6 -11 -12 -27 -14 -36 -1 -9 -8 -29 -14 -45 -7 -16 -11
-35 -10 -43 1 -7 -2 -10 -9 -6 -6 4 -11 1 -9 -6 4 -32 -2 -60 -11 -54 -5 3 -8
0 -5 -7 7 -17 -50 -180 -59 -171 -4 4 -4 1 -1 -8 7 -18 -69 -242 -78 -232 -4
4 -7 -2 -6 -13 4 -37 -1 -55 -13 -48 -6 4 -8 3 -4 -4 10 -16 -33 -121 -55
-133 -30 -16 -37 -4 -43 69 -29 341 -45 484 -82 712 -13 85 -31 187 -40 225
-8 39 -16 77 -18 85 -1 8 -8 35 -15 60 -42 157 -105 240 -186 244 -11 1 -20 6
-20 11 0 11 34 83 47 100 65 85 77 93 158 111 55 12 110 9 142 -7z m-3647
-6347 c28 -6 84 -16 125 -22 41 -7 82 -16 91 -21 9 -4 31 -10 50 -12 44 -6
213 -66 217 -78 2 -5 11 -9 19 -9 22 0 168 -73 235 -117 240 -160 407 -366
487 -602 26 -76 40 -191 23 -191 -7 0 -9 -7 -5 -17 4 -11 3 -14 -5 -9 -7 4
-10 2 -7 -7 3 -7 -10 -28 -30 -45 -19 -18 -35 -30 -35 -27 0 3 -9 -4 -20 -15
-12 -12 -26 -18 -32 -14 -6 4 -8 3 -5 -3 6 -10 -50 -40 -65 -35 -5 1 -8 -2 -8
-6 0 -5 -60 -32 -132 -61 -73 -29 -142 -57 -153 -61 -170 -70 -661 -198 -960
-250 -278 -49 -403 -68 -615 -94 -351 -43 -449 -49 -745 -50 -300 0 -397 7
-509 40 -96 28 -117 54 -136 177 -17 101 -1 250 41 397 24 81 72 189 82 183 6
-4 7 -1 3 6 -7 10 53 124 74 141 3 3 15 19 25 37 32 50 127 153 137 147 5 -3
7 -1 6 5 -2 5 17 31 42 57 49 51 222 194 235 194 5 0 18 8 29 19 12 10 50 33
86 52 35 19 71 40 78 47 12 11 18 13 48 16 6 1 19 9 29 19 10 10 25 15 33 12
9 -3 13 -3 9 1 -23 23 367 151 513 169 8 1 26 5 40 8 14 4 77 14 140 22 127
16 477 14 565 -3z m1555 -160 c0 -30 -37 -130 -60 -162 -12 -17 -28 -30 -36
-30 -22 0 -113 89 -135 132 -32 63 -30 64 83 67 57 1 105 4 107 7 12 12 41 2
41 -14z m6990 -737 c30 -29 76 -71 103 -95 26 -23 47 -47 47 -52 0 -6 11 -19
25 -29 51 -41 365 -403 390 -450 5 -10 13 -19 17 -19 5 0 8 -7 8 -16 0 -8 4
-13 8 -10 4 2 26 -21 47 -51 22 -31 48 -65 57 -75 16 -16 74 -92 216 -283 29
-38 58 -82 64 -97 7 -16 16 -28 19 -28 13 0 59 -81 53 -92 -4 -6 -3 -8 4 -5
13 9 74 -82 65 -97 -3 -6 -2 -8 2 -3 11 9 66 -73 58 -86 -3 -6 -1 -7 4 -4 6 4
20 -9 32 -29 12 -19 15 -32 9 -29 -7 4 -3 -2 9 -12 18 -15 89 -125 153 -238 9
-16 51 -86 92 -155 113 -189 180 -319 172 -331 -4 -7 -3 -9 3 -6 19 12 287
-556 397 -843 20 -52 46 -117 58 -145 11 -27 21 -54 23 -60 1 -5 5 -17 8 -25
4 -8 31 -89 61 -180 229 -696 333 -1306 343 -2018 8 -512 -23 -809 -141 -1352
-28 -131 -128 -456 -192 -627 -60 -162 -175 -420 -192 -433 -4 -3 -8 -12 -10
-20 -7 -36 -45 -100 -54 -93 -6 3 -8 1 -4 -5 6 -11 -37 -97 -67 -132 -9 -11
-15 -20 -12 -20 5 0 -82 -146 -130 -219 -15 -22 -32 -38 -38 -34 -6 3 -7 1 -3
-6 7 -11 -20 -55 -61 -101 -7 -8 -31 -39 -52 -68 -42 -58 -90 -117 -161 -196
-55 -61 -283 -290 -332 -331 -133 -115 -250 -205 -259 -199 -4 2 -9 -2 -12
-10 -3 -7 -32 -28 -64 -47 -32 -18 -69 -41 -82 -51 -13 -10 -27 -15 -32 -12
-5 3 -9 0 -9 -6 0 -5 -17 -18 -37 -28 -21 -9 -40 -19 -43 -22 -15 -16 -293
-148 -325 -154 -5 -1 -23 -9 -40 -18 -16 -9 -120 -45 -230 -81 -466 -152 -901
-228 -1535 -267 -450 -27 -761 -33 -1810 -33 -1055 0 -1376 6 -1770 33 -233
17 -224 14 -246 63 -11 23 -19 44 -20 47 0 3 -6 19 -13 35 -54 127 -54 346 0
511 11 33 42 100 69 148 28 47 50 95 50 105 0 22 -31 35 -64 27 -24 -6 -73
-71 -101 -134 -10 -22 -23 -38 -28 -35 -6 3 -7 2 -4 -4 3 -5 -3 -34 -14 -62
-32 -86 -50 -189 -50 -296 -1 -133 25 -279 59 -333 8 -12 13 -22 11 -23 -2 0
-13 -2 -24 -5 -11 -2 -65 6 -120 17 -199 41 -318 81 -346 116 -12 15 -12 16 1
8 12 -7 11 -4 -1 11 -23 26 -47 103 -59 185 -11 77 -5 245 10 285 6 14 10 37
10 51 0 31 70 179 111 236 l29 40 -22 24 c-45 48 -84 18 -153 -120 -55 -108
-80 -194 -95 -315 -10 -91 -2 -218 19 -298 8 -28 7 -31 -11 -26 -11 2 -22 11
-25 18 -3 8 -11 14 -18 14 -38 0 -125 159 -151 278 -21 93 -14 262 15 371 19
69 69 179 128 281 27 46 246 270 264 270 6 0 25 11 42 24 38 29 125 73 152 78
11 1 23 7 26 11 3 5 12 10 20 11 8 2 28 9 44 16 91 38 218 60 345 60 149 -1
165 -6 262 -91 131 -116 271 -208 423 -279 124 -58 157 -66 180 -40 28 31 12
71 -37 94 -22 10 -70 38 -107 62 -90 59 -102 67 -115 80 -6 6 -14 11 -19 12
-8 2 -37 24 -151 114 -152 120 -419 429 -399 462 3 5 1 6 -5 2 -7 -4 -12 -1
-12 8 0 9 -4 16 -8 16 -8 0 -58 101 -120 240 -34 77 -72 191 -72 218 0 10 -4
22 -8 28 -12 13 -31 94 -59 249 -21 116 -24 485 -5 595 22 122 41 222 53 270
21 81 78 249 89 260 3 3 6 12 8 20 7 31 86 195 99 207 8 6 14 14 13 17 -1 11
32 69 51 89 10 12 19 24 19 29 0 15 73 118 83 118 6 0 7 3 4 6 -7 8 60 96 123
163 8 9 23 29 33 44 9 15 23 26 30 24 6 -1 11 4 9 11 -1 6 5 12 14 12 8 0 13
3 11 8 -6 9 39 52 47 45 3 -4 6 1 6 10 0 10 7 17 16 17 8 0 12 5 9 10 -3 6 -2
10 3 10 4 0 21 13 38 29 43 42 182 151 193 151 5 0 11 4 13 8 11 29 392 244
508 287 25 9 61 23 80 30 19 8 64 25 100 39 60 23 143 46 180 50 9 1 20 5 25
8 24 14 203 48 335 63 268 31 557 22 780 -26 52 -11 106 -22 120 -25 126 -25
342 -97 531 -178 136 -58 409 -196 409 -207 0 -5 5 -9 10 -9 6 0 39 -22 74
-50 86 -68 108 -75 136 -45 30 32 21 55 -52 118 -34 28 -84 73 -112 98 -47 41
-232 159 -250 159 -4 0 -20 9 -34 19 -15 10 -29 19 -32 19 -3 0 -36 14 -74 31
-38 17 -72 31 -75 31 -3 0 -33 11 -66 24 -46 19 -63 31 -74 55 -18 39 -54 50
-90 28 -25 -15 -31 -15 -72 0 -24 8 -53 16 -64 17 -14 1 -19 7 -17 21 15 88
16 84 -14 91 -37 9 -58 -6 -64 -47 -4 -28 -9 -34 -30 -34 -22 0 -25 4 -23 33
1 29 -3 34 -28 39 -40 8 -43 16 -14 43 14 13 25 18 25 11 0 -6 12 -16 26 -22
50 -18 85 42 48 83 -18 19 -21 17 41 35 24 8 31 16 33 41 2 18 7 32 13 32 5 0
8 4 6 8 -1 5 12 25 28 46 17 21 40 50 53 66 12 15 22 31 22 35 0 5 11 23 25
41 14 18 25 36 25 41 0 4 12 21 26 36 l26 28 15 -21 c16 -23 42 -23 60 0 15
19 17 60 2 60 -5 0 -7 4 -4 10 4 7 -3 7 -20 0 -15 -6 -28 -10 -31 -10 -8 0 9
52 36 108 52 109 64 150 52 177 -8 17 -20 25 -36 25 -29 0 -54 -31 -110 -133
-20 -37 -41 -65 -46 -62 -6 3 -7 0 -4 -8 5 -13 -110 -183 -199 -292 -69 -86
-309 -316 -323 -311 -7 3 -16 0 -20 -6 -4 -7 -3 -8 4 -4 29 18 8 -4 -30 -31
-24 -17 -52 -29 -63 -26 -32 6 -413 4 -500 -2 -290 -23 -683 -136 -987 -285
-53 -26 -100 -45 -103 -42 -3 3 -5 1 -5 -5 0 -5 -22 -22 -49 -36 -97 -53 -309
-57 -681 -11 -166 20 -362 54 -376 65 -6 5 -13 6 -16 3 -7 -6 -208 38 -298 66
-86 27 -239 70 -267 76 -22 4 -180 57 -218 73 -56 23 -223 84 -243 88 -12 3
-22 8 -22 12 0 4 -8 7 -17 8 -46 4 -465 205 -658 316 -135 78 -390 246 -434
286 -14 14 -28 24 -31 23 -27 -9 -507 409 -493 431 3 5 2 7 -4 4 -11 -7 -130
122 -125 136 1 5 -2 6 -7 3 -5 -3 -17 7 -26 22 -10 15 -24 30 -30 34 -17 10
-172 219 -215 288 -45 74 -80 142 -80 158 0 6 -5 12 -11 12 -5 0 -7 4 -4 10 3
6 1 10 -4 10 -6 0 -11 9 -11 20 0 11 -4 20 -8 20 -8 0 -37 71 -33 79 2 2 -1 7
-6 10 -12 8 -49 129 -63 200 -26 137 4 377 50 406 5 3 8 10 5 15 -3 4 1 13 8
18 34 28 318 -194 302 -236 -3 -7 0 -10 6 -7 5 4 24 -8 40 -27 66 -73 73 -78
105 -76 27 2 31 5 32 38 2 30 -4 44 -37 80 -22 24 -38 48 -35 52 3 5 2 7 -3 6
-4 -2 -9 0 -11 4 -2 6 -125 124 -175 169 -7 6 -48 34 -92 62 l-80 53 1 74 c1
152 94 300 220 355 l62 27 43 -23 c48 -24 182 -114 223 -150 14 -12 23 -27 19
-32 -3 -6 -2 -7 4 -4 9 6 150 -148 152 -166 1 -4 12 -20 27 -36 18 -21 32 -27
47 -23 58 14 62 51 12 116 -19 26 -35 49 -35 52 0 14 -233 241 -265 258 -19
10 -42 26 -52 35 -11 9 -37 25 -58 36 -24 12 -41 28 -43 40 -4 27 55 118 70
109 6 -4 8 -3 5 3 -8 13 57 73 78 73 8 0 15 4 15 8 0 10 78 46 130 61 19 5 62
13 95 16 57 6 65 4 141 -35 90 -46 230 -172 301 -270 93 -130 92 -129 115
-125 33 7 51 30 45 57 -8 30 -87 148 -146 218 -25 30 -45 58 -43 63 1 5 -2 6
-8 2 -5 -3 -30 12 -54 35 -24 22 -62 55 -84 72 -43 33 -42 38 8 67 40 23 223
27 316 6 87 -19 204 -64 204 -77 0 -5 4 -7 9 -3 12 7 62 -15 56 -25 -2 -4 2
-7 8 -7 7 0 48 -23 91 -53 92 -61 220 -187 294 -286 28 -38 55 -73 60 -79 20
-25 57 -91 54 -97 -1 -5 3 -8 10 -8 6 0 9 -2 6 -5 -3 -3 3 -16 13 -28 10 -12
46 -56 79 -97 105 -127 290 -233 625 -355 539 -196 1340 -215 2055 -48 85 20
162 36 170 37 8 1 17 3 20 6 3 3 55 21 115 39 134 41 143 45 151 76 13 51 -39
68 -138 45 -24 -5 -97 -19 -163 -30 -66 -11 -149 -27 -185 -35 -207 -46 -570
-100 -570 -84 0 4 15 10 33 14 17 4 70 18 117 32 98 28 298 83 320 87 8 2 22
6 30 9 8 4 94 33 190 66 153 51 276 94 589 205 40 14 79 23 85 19 6 -3 8 -2 3
2 -4 5 64 34 150 66 87 32 194 71 237 88 44 17 83 28 87 26 4 -3 9 -1 11 3 4
13 209 93 219 86 5 -3 9 -2 9 3 0 4 12 14 28 20 15 7 74 33 132 58 58 26 112
47 120 48 8 1 17 5 20 8 3 3 43 23 90 44 47 21 135 62 196 91 62 30 115 54
120 54 4 0 15 6 23 14 9 7 81 47 161 89 80 41 175 91 213 111 37 20 67 34 67
31 0 -3 8 2 18 11 27 25 226 144 240 144 6 0 12 4 12 10 0 9 56 44 72 45 4 0
16 8 27 17 11 9 22 14 25 11 3 -4 6 -2 6 4 0 6 21 24 48 39 26 15 53 34 60 41
7 7 17 13 22 13 5 0 17 8 27 18 28 28 119 92 132 92 6 0 11 5 11 12 0 6 3 9 6
6 3 -3 18 6 34 20 16 15 51 46 77 68 124 107 192 172 243 234 19 23 36 15 110
-55z m4763 -92 c28 -10 54 -21 55 -25 2 -5 15 -8 28 -8 46 0 239 -104 228
-122 -4 -7 -2 -8 5 -4 23 15 153 -96 210 -179 30 -43 54 -84 54 -92 0 -7 3
-11 5 -8 13 12 75 -108 129 -252 l38 -98 0 -205 c-1 -188 -3 -213 -27 -307
-32 -124 -68 -223 -80 -223 -5 0 -7 -4 -3 -10 5 -9 -46 -121 -100 -216 -36
-63 -88 -148 -95 -154 -3 -3 -14 -22 -24 -42 -11 -21 -22 -38 -26 -38 -4 0 -7
-6 -7 -12 0 -7 -13 -35 -30 -63 -16 -27 -46 -83 -67 -122 -22 -41 -43 -70 -49
-66 -5 3 -7 1 -4 -4 6 -10 -67 -182 -82 -193 -3 -3 -8 -14 -9 -25 -2 -11 -12
-35 -22 -55 -55 -109 -172 -496 -199 -658 -6 -31 -16 -95 -24 -142 -27 -155
-41 -261 -67 -500 -27 -246 -43 -403 -60 -580 -40 -407 -90 -773 -150 -1105
-43 -233 -133 -594 -200 -795 -15 -47 -34 -98 -40 -115 -7 -16 -14 -35 -16
-42 -12 -61 -180 -464 -197 -475 -7 -4 -9 -8 -4 -8 16 0 -168 -345 -206 -387
-11 -13 -18 -26 -14 -29 3 -4 -10 -32 -30 -63 -20 -31 -50 -78 -66 -106 -16
-27 -32 -52 -36 -55 -4 -3 -18 -23 -31 -45 -13 -22 -39 -60 -59 -85 -20 -24
-40 -52 -46 -61 -85 -141 -530 -630 -557 -613 -6 4 -8 3 -5 -3 8 -13 -17 -36
-28 -25 -5 4 -6 2 -2 -4 7 -11 -18 -36 -123 -124 -40 -33 -76 -57 -81 -54 -17
10 -69 23 -67 16 1 -4 -2 -15 -7 -25 -4 -10 -2 -23 5 -32 7 -9 11 -17 9 -19
-2 -2 -24 -15 -49 -30 -25 -15 -60 -39 -78 -53 -31 -24 -34 -25 -32 -8 5 44 0
55 -24 55 -32 0 -50 -24 -42 -55 4 -14 11 -23 15 -20 5 3 8 -3 7 -12 -2 -12
-14 -19 -37 -21 -27 -3 -40 -12 -62 -43 -29 -42 -47 -44 -47 -3 0 49 -79 58
-88 9 -5 -23 18 -66 31 -58 5 3 8 0 5 -8 -2 -8 -21 -15 -40 -17 -26 -2 -45
-13 -67 -38 -39 -43 -59 -45 -53 -5 3 24 0 31 -20 37 -30 10 -51 6 -63 -14
-14 -24 -13 -34 1 -59 13 -21 11 -23 -42 -47 -65 -30 -74 -31 -74 -12 0 8 -7
17 -16 20 -19 7 -84 -3 -82 -13 0 -3 0 -20 -1 -37 -1 -37 -23 -46 -113 -48
-45 -1 -61 -6 -78 -23 -20 -23 -20 -23 -40 -3 -22 22 -72 27 -88 8 -5 -7 -12
-22 -14 -33 -5 -29 -32 -25 -36 5 -2 19 -12 29 -35 38 l-31 12 21 21 c20 20
23 21 38 5 19 -18 18 -18 40 -10 27 11 38 53 20 80 -15 23 -14 24 5 24 34 0
57 17 65 47 3 16 21 42 38 59 18 17 39 41 47 53 l15 22 5 -23 c3 -13 16 -27
28 -33 12 -5 22 -13 22 -18 0 -4 -5 -5 -12 -1 -7 5 -8 3 -3 -5 5 -9 12 -7 26
8 42 45 41 101 -1 101 -21 0 -25 16 -12 37 6 10 12 10 28 -2 23 -18 56 -19 72
-3 17 17 15 68 -2 68 -17 0 -29 27 -15 35 5 4 19 6 32 5 48 -4 49 -3 45 55 -4
54 -4 55 22 55 37 0 50 18 50 67 0 37 4 44 30 58 18 9 32 26 36 43 4 15 12 33
18 41 9 12 8 13 -4 6 -8 -5 1 10 21 32 21 22 40 54 44 71 8 37 28 56 54 49 22
-6 33 13 20 34 -15 24 -10 58 11 69 11 6 25 8 30 5 16 -10 28 27 19 63 -9 43
-4 55 21 47 11 -3 28 -1 40 5 20 11 27 44 11 54 -5 3 -11 16 -13 30 -4 22 -2
23 32 19 34 -5 38 -3 50 27 13 31 12 34 -12 51 -31 23 -29 66 2 49 42 -23 90
-6 90 31 0 19 -38 51 -51 43 -30 -18 -12 76 22 120 12 15 27 46 34 69 9 30 18
43 34 45 24 4 26 -7 12 -56 -6 -20 -6 -30 0 -27 5 4 12 -1 15 -9 3 -9 16 -16
28 -16 53 0 64 61 16 88 -17 10 -30 25 -30 37 0 11 -7 29 -15 39 -22 29 -18
76 10 121 16 25 25 55 25 80 0 34 3 41 21 42 47 4 66 55 32 88 -13 14 -14 18
-3 25 7 4 19 6 27 3 39 -15 81 24 67 62 -7 18 -44 26 -66 14 -14 -8 -18 -6
-18 8 2 50 28 116 58 143 32 29 40 54 22 65 -5 3 -15 16 -21 27 -10 18 -9 20
5 15 9 -4 16 -3 16 2 0 4 10 6 23 4 30 -6 51 19 43 51 -5 19 -14 25 -39 28
-22 2 -31 7 -28 18 2 8 6 34 9 58 3 32 12 48 33 63 32 23 37 50 13 73 -31 32
-24 64 11 45 6 -3 16 -4 23 -3 6 1 16 2 20 3 5 0 13 11 19 24 13 29 -3 54 -37
59 -32 4 -40 15 -40 55 0 48 17 83 40 83 11 0 27 11 36 25 13 20 14 27 2 42
-7 10 -19 18 -25 19 -7 1 -17 2 -23 3 -14 2 -13 87 2 114 6 12 22 30 35 40 22
17 22 20 8 48 -9 16 -21 28 -28 26 -19 -4 -21 107 -1 144 14 28 14 59 1 106
-1 4 11 9 27 10 35 2 45 15 38 49 -6 31 -28 41 -53 26 -10 -7 -22 -12 -25 -12
-13 0 3 142 17 151 8 5 10 9 4 10 -5 0 1 4 15 8 19 5 25 14 25 35 0 28 -10 38
-49 50 -15 5 -17 12 -12 41 4 19 2 43 -4 54 -13 26 -3 51 21 51 29 0 26 46 -3
56 -13 5 -27 7 -32 5 -5 -1 -5 4 1 11 22 27 24 69 6 97 -23 34 -25 50 -12 83
8 20 7 31 -5 50 -8 13 -17 39 -20 58 -3 19 -7 49 -10 65 -3 17 -8 46 -11 65
-10 70 -25 166 -35 224 -8 52 -7 66 16 130 91 249 190 644 229 911 8 55 19
129 25 165 16 103 42 298 60 445 37 304 76 554 115 745 15 69 30 143 34 165
44 221 209 706 299 875 18 36 48 92 64 125 17 33 40 70 51 83 11 12 17 22 13
22 -9 0 41 70 58 82 6 4 7 8 3 8 -7 0 27 56 43 70 3 3 18 23 35 44 16 22 46
56 67 77 21 20 38 39 38 43 0 18 150 147 162 140 6 -4 8 -3 5 3 -8 13 102 89
198 137 86 43 173 72 290 97 111 23 286 20 368 -8z m-11039 -259 c25 -21 46
-41 46 -45 0 -4 9 -11 20 -14 11 -3 25 -16 31 -27 9 -17 7 -24 -17 -44 -41
-34 -149 -86 -170 -82 -9 1 -19 14 -22 28 -6 35 -6 142 0 160 3 8 8 27 12 42
11 36 42 31 100 -18z m-915 -33 c49 -25 71 -69 61 -122 -13 -70 -71 -107 -185
-119 -93 -10 -140 -28 -182 -70 -24 -23 -39 -28 -98 -33 -87 -7 -186 -37 -245
-75 -35 -22 -59 -29 -105 -31 -107 -4 -179 -21 -279 -65 -32 -14 -71 -26 -86
-26 -23 0 -38 -13 -78 -62 -99 -125 -164 -162 -265 -155 -70 5 -73 5 -182 42
-44 15 -112 29 -151 32 -86 7 -115 -6 -228 -100 -129 -107 -196 -112 -363 -28
-126 65 -175 68 -273 19 -35 -18 -71 -40 -80 -49 -34 -32 -113 -63 -164 -62
-74 0 -102 11 -165 68 -45 41 -128 75 -181 75 -22 0 -73 -11 -114 -25 -41 -14
-95 -25 -120 -25 -53 0 -99 18 -92 36 3 8 -1 11 -10 7 -10 -4 -12 0 -7 13 4
12 3 15 -5 10 -9 -5 -12 9 -12 49 0 52 3 60 40 97 37 38 42 40 77 33 214 -41
318 -48 643 -42 349 6 629 31 985 87 66 11 137 22 159 25 38 5 157 28 321 61
44 9 127 28 185 42 58 13 114 26 125 28 39 7 318 89 450 133 49 16 94 27 99
24 5 -4 6 -1 1 7 -6 10 -4 12 8 7 9 -3 19 -2 22 3 3 5 42 23 87 40 45 18 113
47 150 66 37 19 68 31 68 27 0 -5 4 -3 8 3 12 18 106 74 125 74 10 0 35 -9 56
-19z m-3510 -1219 c8 -11 32 -30 55 -43 50 -27 57 -38 45 -60 -26 -50 4 -237
55 -337 43 -84 122 -170 208 -226 44 -28 82 -51 86 -52 34 -6 72 -18 72 -23 0
-4 8 -7 18 -8 9 -1 58 -9 107 -17 50 -9 115 -16 146 -16 43 0 60 -5 74 -20 10
-11 15 -20 10 -20 -4 0 -2 -6 4 -14 18 -21 51 -8 51 21 0 21 4 24 33 21 29 -3
32 -6 29 -31 -3 -19 3 -33 15 -42 37 -29 71 -14 77 33 2 17 -1 29 -5 26 -5 -3
-9 -1 -9 5 0 5 13 9 29 9 28 -1 30 -4 33 -42 3 -37 6 -41 31 -44 32 -4 56 19
57 54 0 25 30 41 41 22 4 -6 3 -20 -3 -31 -5 -10 -8 -20 -6 -22 16 -13 47 -21
68 -15 21 5 25 12 26 45 l0 40 49 3 c49 3 58 -5 16 -13 -32 -6 -41 -14 -41
-36 0 -37 17 -57 44 -52 27 5 39 30 38 75 -1 24 5 28 49 38 38 9 56 9 78 1 29
-12 52 -12 62 2 8 10 69 27 69 19 0 -4 3 -17 6 -29 5 -20 2 -22 -37 -25 -37
-3 -45 -7 -47 -26 -2 -13 2 -30 8 -38 14 -16 56 -19 65 -4 9 15 35 12 35 -3 0
-8 -9 -22 -20 -32 -11 -10 -20 -31 -20 -46 0 -23 5 -30 28 -34 56 -12 62 -22
47 -70 -5 -15 3 -31 29 -57 20 -21 36 -44 36 -53 0 -9 11 -32 25 -52 13 -20
22 -40 19 -45 -3 -4 -1 -8 4 -8 10 0 65 -87 60 -93 -2 -1 7 -13 20 -27 12 -13
22 -28 22 -32 0 -5 9 -19 21 -31 11 -12 39 -47 62 -77 23 -30 54 -70 69 -88
16 -18 25 -38 22 -44 -4 -6 -3 -8 3 -5 5 3 50 -40 100 -96 100 -112 207 -216
323 -317 41 -36 88 -77 103 -92 16 -16 32 -28 36 -28 4 0 16 -8 27 -17 73 -66
395 -289 544 -378 36 -21 67 -42 68 -47 2 -4 8 -6 13 -2 5 3 9 0 9 -7 0 -7 3
-10 6 -7 3 4 31 -8 62 -26 31 -17 96 -52 144 -76 47 -25 84 -48 81 -53 -3 -5
1 -7 8 -5 20 4 105 -30 121 -49 11 -14 11 -15 -7 -6 -11 6 -26 8 -33 6 -14 -5
-304 52 -367 72 -56 18 -96 28 -124 31 -13 2 -29 8 -35 14 -5 5 -22 10 -37 10
-15 0 -31 5 -34 10 -3 6 -16 10 -29 10 -12 0 -49 8 -82 19 -32 10 -90 28 -129
40 -38 12 -79 26 -90 31 -11 5 -47 18 -80 28 -33 11 -71 24 -85 30 -39 16 -64
25 -80 28 -8 2 -16 8 -18 14 -2 5 -8 8 -12 5 -5 -3 -26 4 -47 15 -21 11 -42
20 -46 20 -9 0 -45 15 -133 56 -28 13 -56 24 -63 24 -7 0 -10 4 -6 9 3 6 -3 9
-12 9 -16 -1 -109 42 -293 137 -30 15 -97 52 -148 82 -51 29 -95 53 -99 53 -3
0 -21 11 -39 25 -18 14 -35 25 -39 25 -3 0 -18 8 -33 19 -40 27 -193 125 -214
136 -58 32 -346 240 -544 393 -72 56 -190 135 -249 167 -27 16 -52 31 -55 35
-3 4 -23 17 -45 28 -63 32 -136 88 -128 97 5 4 3 5 -3 2 -6 -4 -33 9 -60 28
-27 19 -44 35 -39 36 6 0 3 3 -6 7 -23 10 -116 90 -158 136 -20 22 -45 49 -56
60 -32 33 -105 123 -105 130 0 4 -9 16 -20 28 -11 12 -20 30 -20 39 0 10 -4
19 -8 21 -15 6 -61 114 -82 193 -30 110 -36 232 -16 323 24 115 74 205 131
239 21 12 28 7 64 -45z m1832 -34 c1 -7 0 -49 -1 -92 -2 -75 -5 -85 -47 -157
-45 -79 -73 -174 -76 -268 -2 -44 -3 -46 -33 -47 -18 -1 -39 -4 -49 -8 -30
-11 -293 -36 -454 -42 -178 -7 -430 8 -541 32 -255 54 -408 240 -391 474 1 19
5 29 8 21 4 -10 7 -10 13 -1 5 9 40 9 151 -1 323 -27 1001 18 1364 91 22 4 43
8 48 9 4 1 7 -5 8 -11z m2409 -3003 c41 -16 127 -45 190 -66 l115 -36 -3 -36
c-2 -28 2 -38 19 -47 25 -14 69 1 69 24 0 23 27 26 46 4 30 -32 49 -39 83 -27
24 9 47 7 101 -6 71 -17 78 -23 59 -42 -6 -6 -9 -23 -7 -39 2 -23 9 -30 31
-32 35 -4 57 13 57 43 0 26 22 39 39 22 6 -6 11 -24 11 -39 0 -15 3 -28 8 -29
4 0 14 -2 22 -3 25 -5 60 12 60 29 0 12 6 15 23 9 12 -3 28 -12 36 -18 8 -6
51 -11 95 -12 45 0 96 -4 114 -8 32 -8 33 -9 14 -22 -41 -29 -31 -94 14 -94
62 0 83 43 43 86 l-22 23 39 -5 c63 -9 66 -11 53 -32 -20 -32 -4 -69 32 -74
38 -6 59 13 59 52 0 30 14 47 25 30 4 -6 12 -7 18 -4 9 5 9 4 1 -5 -16 -17 -5
-60 17 -72 31 -16 74 10 74 44 -1 17 6 29 17 33 25 7 37 -2 31 -25 -3 -12 3
-26 15 -37 33 -28 17 -44 -44 -44 -52 0 -54 -1 -55 -27 -1 -16 -1 -33 0 -39 1
-6 -17 -25 -39 -43 -22 -17 -40 -37 -40 -43 0 -20 -104 -112 -109 -96 -10 32
-59 38 -83 11 -19 -22 -10 -50 21 -66 35 -18 27 -32 -21 -35 -23 -2 -48 -8
-55 -14 -18 -14 -16 -53 2 -68 25 -20 17 -32 -15 -25 -19 4 -36 2 -45 -5 -17
-14 -20 -56 -6 -64 18 -12 0 -43 -25 -43 -45 0 -87 -60 -59 -83 22 -19 7 -37
-32 -38 -20 -1 -40 -7 -45 -14 -14 -23 -8 -57 13 -72 14 -9 19 -21 15 -31 -4
-12 -10 -14 -19 -8 -25 20 -56 21 -76 1 -12 -10 -21 -25 -21 -33 0 -17 27 -45
45 -45 22 0 24 -26 5 -58 -10 -16 -16 -33 -13 -35 3 -3 -4 -18 -15 -34 -18
-25 -38 -88 -34 -105 1 -4 -14 -16 -33 -28 -37 -23 -43 -44 -21 -75 14 -22 17
-55 5 -55 -4 0 -11 5 -14 10 -9 14 -58 13 -73 -2 -26 -26 -8 -78 27 -78 8 0
22 7 31 15 15 14 16 13 15 -2 -1 -10 -7 -31 -14 -46 -6 -16 -11 -39 -11 -52 0
-38 -11 -55 -36 -55 -44 0 -47 -80 -4 -90 14 -3 26 -14 28 -24 7 -34 -9 -86
-33 -112 -31 -34 -32 -69 -2 -89 19 -12 24 -25 26 -68 2 -49 0 -54 -24 -65
-22 -10 -26 -17 -23 -50 3 -32 7 -37 31 -40 26 -3 27 -6 27 -50 -1 -47 2 -73
13 -102 10 -26 15 -73 10 -87 -3 -7 -12 -13 -19 -13 -20 0 -29 -27 -14 -45 7
-8 21 -15 31 -15 15 0 19 -7 19 -38 0 -21 3 -42 7 -46 13 -12 11 -35 -3 -47
-17 -14 -18 -45 -3 -55 7 -4 21 -7 33 -8 15 -1 22 -9 24 -26 2 -24 45 -126 85
-204 l20 -39 -32 19 c-32 19 -33 19 -47 -1 -8 -11 -14 -33 -12 -50 3 -26 8
-30 36 -33 28 -3 34 1 45 27 l13 31 18 -36 c17 -38 11 -53 -21 -54 -15 0 -26
-35 -18 -59 8 -25 45 -34 71 -16 19 12 24 12 35 -1 10 -13 8 -19 -14 -40 -57
-52 -13 -113 50 -69 18 13 22 12 38 -5 23 -25 16 -41 -28 -65 l-36 -19 -27 27
c-15 15 -34 27 -44 27 -21 0 -47 -28 -52 -55 -2 -14 -15 -22 -43 -28 -22 -5
-67 -15 -100 -22 -38 -9 -63 -11 -69 -5 -18 18 -41 10 -58 -20 -11 -19 -41
-42 -88 -65 -141 -71 -318 -226 -409 -358 -18 -27 -37 -45 -43 -41 -6 4 -8 3
-5 -3 4 -6 -13 -49 -37 -94 -113 -213 -151 -456 -106 -668 11 -52 18 -97 15
-101 -8 -14 -311 11 -340 28 -5 3 -17 7 -25 7 -9 1 -47 10 -84 21 -54 15 -71
24 -79 44 -5 14 -18 43 -27 65 -53 122 -67 302 -35 430 22 87 72 198 114 249
52 65 51 116 -4 116 -26 0 -49 -19 -90 -75 -16 -22 -33 -43 -38 -46 -5 -3 -8
-9 -8 -13 3 -19 0 -27 -7 -22 -5 3 -9 0 -10 -7 0 -7 -14 -50 -31 -97 -52 -148
-59 -346 -16 -491 l13 -47 -28 2 c-16 1 -39 11 -52 22 -59 49 -86 79 -81 88 3
5 1 6 -5 2 -17 -11 -129 174 -117 193 3 5 0 11 -5 13 -17 5 -42 185 -35 253
17 167 91 358 160 411 31 23 66 76 69 104 1 7 36 55 36 49 0 -3 22 16 50 42
50 47 183 132 207 132 7 0 13 3 13 7 0 7 90 46 155 68 70 24 209 51 285 56 53
4 56 3 91 -35 39 -42 78 -51 101 -24 7 9 18 21 24 28 14 14 -8 64 -38 85 -10
7 -25 27 -34 43 -8 17 -40 65 -70 106 -30 42 -54 82 -54 89 0 8 -4 14 -9 14
-12 0 -117 190 -115 207 1 7 -2 10 -7 7 -5 -3 -9 0 -9 7 0 6 -13 39 -29 73
-94 200 -155 358 -202 531 -6 22 -18 60 -26 85 -20 65 -60 260 -83 410 -16
105 -40 378 -40 465 0 137 31 409 66 570 32 148 144 475 166 483 4 2 8 8 8 13
0 18 53 119 62 119 5 0 7 4 4 8 -7 11 59 114 67 105 4 -3 7 2 7 11 0 12 5 16
16 12 9 -3 12 -2 9 5 -9 14 11 36 32 34 10 0 52 -14 93 -30z m7734 -4647 c-1
-28 -5 -33 -26 -34 -14 -1 -29 -4 -35 -7 -5 -3 -10 0 -10 7 0 8 6 12 13 9 7
-2 11 3 11 13 -1 10 9 24 23 31 14 7 25 13 25 13 0 0 0 -15 -1 -32z"/>
<path d="M7610 17902 c-63 -41 -102 -91 -160 -204 -19 -36 -39 -64 -44 -61 -5
3 -6 1 -3 -4 4 -6 -7 -48 -24 -94 -17 -46 -52 -150 -78 -231 -26 -82 -51 -145
-56 -140 -5 4 -5 2 -2 -4 4 -6 0 -34 -8 -61 -54 -183 -229 -851 -262 -1002 -9
-42 -17 -115 -16 -163 0 -81 2 -90 34 -140 18 -29 40 -57 47 -62 8 -4 23 -17
33 -27 11 -11 21 -19 24 -19 3 0 6 0 8 -1 1 0 9 -2 17 -4 97 -26 253 -80 325
-114 84 -40 184 -97 195 -112 3 -3 20 -14 38 -23 17 -9 32 -21 32 -26 0 -6 7
-10 15 -10 8 0 15 -4 15 -9 0 -5 9 -13 20 -16 11 -4 17 -11 14 -17 -4 -6 -3
-8 2 -5 6 3 32 -12 59 -34 28 -21 82 -63 120 -93 39 -30 79 -63 90 -73 11 -11
27 -22 35 -26 27 -12 109 -75 104 -79 -2 -3 2 -5 8 -5 7 -1 40 -13 73 -27 84
-35 149 -42 205 -21 25 9 53 17 62 18 9 1 15 4 12 8 -2 4 7 18 21 33 13 15 24
27 24 29 0 1 5 16 11 32 35 91 41 142 40 366 0 344 -41 655 -138 1029 -42 164
-52 205 -59 248 -3 17 -9 32 -13 32 -4 0 -11 12 -14 28 -4 15 -18 63 -32 107
-13 44 -29 98 -35 120 -7 22 -21 60 -32 85 -30 69 -47 120 -39 120 4 0 2 4 -4
8 -6 4 -21 35 -33 69 -12 35 -44 108 -72 163 -27 56 -49 105 -49 110 0 6 -4
10 -8 10 -5 0 -14 12 -21 28 -27 57 -104 163 -151 205 -71 64 -112 81 -205 85
-74 3 -83 1 -125 -26z"/>
<path d="M5694 14295 c-101 -27 -205 -84 -339 -185 -22 -16 -56 -40 -75 -53
-19 -14 -44 -34 -54 -46 -11 -11 -25 -21 -33 -21 -7 0 -13 -5 -13 -11 0 -5 -5
-7 -12 -3 -7 4 -8 3 -4 -4 4 -6 -6 -19 -21 -29 -15 -10 -64 -47 -108 -84 -120
-100 -286 -219 -296 -213 -5 3 -9 1 -9 -5 0 -9 -54 -43 -62 -40 -2 0 -15 -4
-30 -10 -15 -6 -51 -13 -80 -17 -66 -8 -103 -34 -118 -80 -26 -78 9 -187 68
-213 37 -17 104 -13 188 13 44 12 87 26 96 30 14 7 16 4 12 -16 -16 -68 -16
-157 0 -211 23 -78 97 -158 174 -187 72 -28 191 -24 248 8 12 6 25 8 29 4 5
-4 5 -1 1 6 -4 6 -3 12 2 12 17 0 82 74 104 119 31 63 32 67 32 142 -1 80 -27
157 -72 210 -38 44 -125 99 -158 99 -12 0 -27 7 -34 15 -9 11 -9 15 -1 15 7 0
22 10 34 23 31 33 163 137 173 137 5 1 27 19 49 40 22 22 42 40 45 40 4 0 24
16 46 35 21 19 44 35 51 35 6 0 13 4 15 8 2 5 23 22 48 39 198 135 337 147
593 51 134 -50 305 -98 415 -116 l102 -16 23 22 c20 21 21 24 7 49 -16 27
-156 132 -178 132 -7 1 -11 5 -8 9 3 5 -1 9 -8 9 -7 0 -33 14 -59 31 -43 30
-323 172 -338 172 -4 0 -20 5 -36 12 -15 6 -30 12 -33 12 -3 1 -23 6 -45 13
-123 36 -241 42 -331 18z"/>
<path d="M7565 13114 c-71 -7 -159 -17 -195 -23 -36 -5 -83 -13 -105 -16 -106
-17 -425 -101 -517 -137 -15 -5 -31 -10 -35 -10 -19 1 -51 -41 -47 -62 7 -37
30 -46 80 -31 24 7 44 10 44 7 0 -4 4 -2 8 4 4 6 68 27 142 47 356 96 620 131
924 124 111 -2 253 -12 316 -21 218 -32 214 -32 227 -4 8 19 8 31 0 48 -18 36
-91 53 -332 75 -188 17 -331 17 -510 -1z"/>
<path d="M6727 12296 c-20 -21 -22 -59 -4 -75 8 -6 79 -12 178 -15 235 -6 611
-46 734 -79 22 -6 44 -10 49 -8 20 5 345 -83 339 -92 -3 -6 -1 -7 6 -3 7 4 61
-9 121 -29 71 -25 115 -35 127 -30 10 5 20 8 23 7 3 0 5 12 4 26 -1 15 -3 32
-3 38 -2 19 -140 76 -251 104 -25 6 -54 15 -65 20 -19 8 -139 36 -265 61 -30
6 -73 14 -95 19 -22 5 -80 14 -130 20 -49 6 -106 13 -125 16 -62 10 -270 23
-450 30 -158 6 -178 5 -193 -10z"/>
<path d="M6636 11691 c-14 -15 -15 -24 -7 -40 15 -27 23 -31 166 -79 158 -54
282 -102 380 -147 44 -20 98 -44 120 -53 86 -35 379 -185 473 -241 135 -82
165 -95 195 -87 22 5 24 10 20 43 -3 22 -15 47 -29 60 -13 12 -24 20 -24 17 0
-5 -91 45 -100 56 -5 5 -76 42 -235 122 -55 28 -102 53 -105 57 -3 3 -12 7
-20 9 -8 2 -56 23 -106 47 -51 24 -104 47 -118 51 -14 3 -29 10 -32 15 -3 5
-12 9 -20 9 -8 0 -33 9 -57 19 -57 27 -249 98 -377 140 -80 26 -102 26 -124 2z"/>
<path d="M2790 11600 c-18 -18 -19 -24 -8 -43 7 -12 11 -25 11 -28 -4 -12 70
9 85 25 13 12 13 20 4 41 -15 32 -63 34 -92 5z"/>
<path d="M2115 11570 c-4 -6 -12 -7 -18 -4 -7 4 -9 4 -5 -1 4 -4 3 -14 -3 -21
-16 -20 -1 -53 28 -60 29 -8 50 2 70 33 13 19 12 24 -6 42 -22 22 -56 28 -66
11z"/>
<path d="M3242 11490 c-13 -10 -23 -22 -23 -25 -1 -12 56 -55 71 -55 14 1 61
30 47 30 -3 0 -3 10 2 22 6 18 3 25 -17 35 -33 18 -53 16 -80 -7z"/>
<path d="M2568 11329 c-36 -20 -12 -89 30 -89 27 0 62 29 62 50 0 21 -35 50
-60 50 -8 0 -23 -5 -32 -11z"/>
<path d="M1729 11161 c-33 -34 -30 -58 9 -68 32 -8 72 14 89 47 11 22 10 26
-10 37 -35 19 -56 15 -88 -16z"/>
<path d="M3157 11132 c-33 -36 -12 -82 38 -82 40 0 59 55 29 84 -21 21 -47 20
-67 -2z"/>
<path d="M2211 10926 c-28 -30 -27 -52 4 -72 33 -21 71 -7 81 30 13 54 -46 83
-85 42z"/>
<path d="M1246 10835 c-27 -29 -29 -49 -5 -71 13 -12 26 -14 46 -9 15 5 32 7
36 6 5 -1 6 3 3 8 -4 5 -1 21 5 35 24 51 -43 76 -85 31z"/>
<path d="M9572 7308 c-17 -17 -15 -55 3 -61 7 -3 24 2 37 13 19 15 21 22 12
37 -14 23 -36 27 -52 11z"/>
<path d="M9494 7185 c-13 -20 -14 -28 -4 -40 24 -29 70 -11 70 27 0 15 -27 38
-44 38 -3 0 -13 -11 -22 -25z"/>
<path d="M9442 7088 c-16 -16 -15 -53 2 -67 12 -10 19 -8 35 8 25 25 27 56 5
65 -22 8 -28 8 -42 -6z"/>
<path d="M9318 6869 c-24 -13 -23 -56 1 -69 28 -14 38 -13 60 11 18 20 19 23
4 45 -16 26 -37 30 -65 13z"/>
<path d="M9252 6745 c-12 -15 -18 -33 -15 -41 13 -35 94 -23 92 14 -2 53 -45
68 -77 27z"/>
<path d="M9387 6763 c-4 -3 -7 -19 -7 -35 0 -34 27 -38 39 -5 12 30 -12 60
-32 40z"/>
<path d="M9338 6653 c-13 -3 -18 -14 -18 -37 0 -25 6 -35 25 -44 34 -16 31
-17 44 19 7 21 7 37 0 50 -10 19 -18 21 -51 12z"/>
<path d="M9192 6638 c-21 -21 -14 -57 14 -70 31 -14 57 -1 62 31 7 42 -46 69
-76 39z"/>
<path d="M9304 6542 c-29 -4 -48 -46 -32 -72 18 -28 37 -33 64 -15 44 29 19
96 -32 87z"/>
<path d="M9132 6528 c-7 -7 -12 -25 -12 -40 0 -21 6 -31 25 -38 46 -17 74 13
61 66 -5 18 -13 24 -34 24 -15 0 -33 -5 -40 -12z"/>
<path d="M9204 6422 c-33 -22 -6 -92 35 -92 21 0 51 30 51 51 -1 38 -54 63
-86 41z"/>
<path d="M9352 6418 c-7 -7 -12 -21 -12 -33 0 -12 5 -26 12 -33 7 -7 21 -12
33 -12 12 0 26 5 33 12 7 7 12 21 12 33 0 12 -5 26 -12 33 -7 7 -21 12 -33 12
-12 0 -26 -5 -33 -12z"/>
<path d="M9454 6300 c-35 -14 -40 -31 -14 -52 33 -27 66 -20 62 12 -5 35 -23
50 -48 40z"/>
<path d="M14184 5385 c-13 -34 28 -49 45 -16 8 15 7 20 -5 25 -24 9 -34 7 -40
-9z"/>
<path d="M14226 5171 c-17 -19 -13 -46 8 -54 33 -13 57 42 26 61 -14 9 -21 7
-34 -7z"/>
<path d="M14172 5068 c-17 -17 -15 -57 3 -64 8 -4 27 -3 41 0 21 6 25 11 22
39 -2 26 -8 33 -28 35 -14 2 -31 -3 -38 -10z"/>
<path d="M14244 4933 c-5 -19 -2 -30 11 -40 11 -7 23 -13 27 -13 15 0 26 44
16 63 -14 27 -47 21 -54 -10z"/>
<path d="M14187 4848 c-25 -13 -22 -64 5 -82 20 -14 24 -14 41 2 19 17 41 61
34 69 -12 12 -66 19 -80 11z"/>
<path d="M14258 4723 c-28 -33 -6 -76 36 -71 29 4 42 32 28 62 -13 30 -42 34
-64 9z"/>
<path d="M14178 4610 c-20 -15 -21 -21 -10 -44 15 -34 64 -36 86 -4 14 20 14
24 0 39 -23 26 -52 29 -76 9z"/>
<path d="M14273 4509 c-26 -10 -39 -45 -23 -64 17 -20 66 -19 74 1 18 46 -9
79 -51 63z"/>
<path d="M14193 4392 c-6 -4 -14 -19 -18 -34 -5 -20 -2 -29 13 -37 34 -18 62
-13 73 13 21 45 -26 85 -68 58z"/>
<path d="M14340 4371 c-5 -11 -10 -27 -10 -35 0 -23 37 -20 50 3 14 26 13 29
-10 41 -15 8 -21 6 -30 -9z"/>
<path d="M14116 4268 c-20 -28 -20 -42 -1 -58 16 -13 77 -21 69 -8 -3 4 0 8 5
8 6 0 11 13 11 30 0 49 -57 68 -84 28z"/>
<path d="M14262 4268 c-20 -20 -14 -58 10 -67 39 -14 76 26 61 65 -6 17 -55
18 -71 2z"/>
<path d="M14190 4166 c-15 -19 -9 -56 11 -69 9 -5 28 -7 42 -3 22 5 27 12 27
36 0 43 -53 67 -80 36z"/>
<path d="M14334 4136 c-8 -21 14 -56 30 -50 14 5 27 49 18 59 -11 10 -43 5
-48 -9z"/>
<path d="M14125 4054 c-21 -22 -15 -63 12 -81 20 -14 24 -13 47 11 27 26 26
50 -2 74 -21 16 -37 15 -57 -4z"/>
<path d="M14270 4040 c-16 -16 -18 -25 -10 -39 14 -27 31 -31 62 -13 46 27 43
50 -9 66 -15 5 -28 1 -43 -14z"/>
<path d="M14067 3939 c-37 -28 -36 -64 2 -77 25 -9 32 -7 47 9 25 28 25 44 0
68 l-23 21 -26 -21z"/>
<path d="M14193 3938 c-33 -54 27 -106 71 -62 20 19 20 41 2 60 -18 17 -62 18
-73 2z"/>
<path d="M14347 3933 c-4 -3 -7 -19 -7 -34 0 -37 37 -47 52 -14 6 13 8 31 5
39 -6 16 -38 22 -50 9z"/>
<path d="M14270 3813 c-38 -48 23 -89 64 -44 23 25 13 57 -20 64 -18 3 -30 -2
-44 -20z"/>
<path d="M14114 3805 c-4 -15 -1 -32 6 -40 29 -35 95 -2 83 43 -4 18 -13 22
-44 22 -33 0 -40 -4 -45 -25z"/>
<path d="M14042 3692 c-2 -26 3 -35 23 -44 19 -9 29 -8 50 6 47 31 26 69 -40
70 -27 1 -30 -2 -33 -32z"/>
<path d="M14191 3703 c-20 -24 -20 -27 -5 -45 29 -31 75 -22 88 19 5 16 1 25
-16 37 -31 22 -43 20 -67 -11z"/>
<path d="M14352 3708 c-16 -16 -15 -55 2 -61 22 -9 53 30 40 50 -14 22 -27 26
-42 11z"/>
<path d="M14155 3621 c-23 -5 -31 -13 -36 -39 -5 -26 -3 -35 13 -43 10 -6 29
-9 41 -7 18 2 23 11 25 41 2 22 -1 37 -8 37 -6 0 -8 5 -5 10 3 6 5 9 3 9 -2
-1 -16 -4 -33 -8z"/>
<path d="M13994 3612 c-38 -26 -7 -90 38 -79 34 9 47 55 22 74 -20 14 -43 17
-60 5z"/>
<path d="M14277 3602 c-28 -31 -15 -72 23 -72 40 0 61 60 29 81 -21 13 -34 11
-52 -9z"/>
<path d="M13922 3498 c-20 -20 -15 -66 8 -73 29 -9 70 20 70 49 0 34 -52 50
-78 24z"/>
<path d="M14203 3498 c-22 -28 -22 -37 -2 -62 17 -21 24 -24 40 -15 27 14 39
49 25 71 -13 21 -49 24 -63 6z"/>
<path d="M14045 3479 c-9 -26 21 -61 49 -57 11 2 27 15 36 31 13 24 13 29 0
37 -8 5 -29 10 -47 10 -23 0 -33 -5 -38 -21z"/>
<path d="M14287 3394 c-32 -17 -33 -24 -8 -55 16 -20 23 -22 38 -13 23 14 28
39 11 63 -12 17 -16 18 -41 5z"/>
<path d="M13970 3385 c-16 -19 -3 -55 19 -55 22 0 45 -25 37 -39 -4 -5 -1 -21
5 -35 23 -51 101 -21 85 32 -3 10 -19 23 -35 29 -23 8 -29 15 -24 32 3 12 0
28 -7 36 -16 19 -64 19 -80 0z"/>
<path d="M14132 3390 c-18 -8 -23 -16 -20 -37 3 -24 7 -28 37 -28 41 0 62 25
45 53 -13 21 -31 24 -62 12z"/>
<path d="M14192 3290 l-22 -18 22 -27 c22 -24 24 -25 46 -10 24 18 29 44 10
63 -16 16 -29 15 -56 -8z"/>
<path d="M13806 3198 c-21 -29 -20 -41 4 -63 42 -38 104 15 72 63 -18 28 -56
28 -76 0z"/>
<path d="M13952 3200 c-39 -62 27 -106 80 -52 17 17 17 18 -7 45 -30 32 -55
35 -73 7z"/>
<path d="M14100 3190 c-22 -40 12 -80 54 -64 23 9 36 44 24 67 -13 24 -64 23
-78 -3z"/>
<path d="M14270 3195 c-7 -9 -14 -26 -15 -39 -3 -21 0 -23 24 -17 30 8 40 41
18 59 -11 10 -17 9 -27 -3z"/>
<path d="M13874 3079 c-21 -23 -20 -25 3 -51 21 -23 56 -23 76 0 21 23 21 36
1 56 -22 22 -57 20 -80 -5z"/>
<path d="M14029 3083 c-29 -35 0 -86 41 -71 37 12 56 46 38 65 -22 22 -64 25
-79 6z"/>
<path d="M14187 3082 c-34 -21 -34 -37 -2 -58 24 -16 27 -16 45 1 44 40 8 87
-43 57z"/>
<path d="M13963 2987 c-22 -10 -38 -50 -27 -68 3 -6 17 -15 31 -20 35 -13 65
14 61 54 -3 34 -32 49 -65 34z"/>
<path d="M13803 2978 c-15 -25 -14 -62 2 -74 40 -30 106 34 74 72 -14 17 -65
18 -76 2z"/>
<path d="M14102 2978 c-18 -18 -15 -63 6 -81 17 -15 19 -15 33 1 21 25 28 56
17 76 -11 19 -39 21 -56 4z"/>
<path d="M13886 2878 c3 -4 1 -8 -4 -8 -17 0 -22 -29 -10 -55 8 -18 19 -25 40
-25 62 0 58 92 -4 94 -15 1 -24 -2 -22 -6z"/>
<path d="M13736 2865 c-31 -31 -14 -75 30 -75 31 0 60 44 45 68 -12 20 -57 24
-75 7z"/>
<path d="M14022 2868 c-28 -28 -10 -78 29 -78 22 0 32 7 41 26 11 23 10 29
-11 45 -27 22 -42 24 -59 7z"/>
<path d="M14170 2860 c-8 -5 -12 -10 -8 -10 4 0 4 -10 -1 -23 -8 -19 -6 -22
13 -22 12 1 27 5 34 9 17 10 15 43 -4 50 -19 7 -16 8 -34 -4z"/>
<path d="M13674 2760 c-31 -12 -35 -35 -12 -59 14 -16 29 -21 51 -19 27 2 33
8 35 31 6 49 -24 67 -74 47z"/>
<path d="M13822 2760 c-50 -20 -43 -83 10 -87 47 -4 74 49 42 81 -17 18 -20
18 -52 6z"/>
<path d="M13975 2760 c-53 -20 -50 -80 3 -80 29 0 44 11 54 40 8 22 -32 49
-57 40z"/>
<path d="M14098 2735 c-9 -21 -9 -29 3 -40 13 -13 17 -13 37 1 26 18 29 49 6
58 -26 10 -34 7 -46 -19z"/>
<path d="M13608 2653 c-9 -10 -20 -28 -26 -39 -10 -19 -8 -23 17 -34 49 -20
75 -10 79 30 5 52 -39 79 -70 43z"/>
<path d="M13744 2649 c-16 -8 -19 -17 -16 -40 5 -36 36 -51 70 -36 29 13 31
62 3 77 -23 12 -29 12 -57 -1z"/>
<path d="M13874 2625 c-10 -39 1 -55 40 -55 34 0 46 13 46 50 0 20 -19 30 -56
30 -17 0 -25 -7 -30 -25z"/>
<path d="M14037 2635 c-23 -17 -19 -58 6 -63 25 -5 58 38 46 60 -12 21 -27 22
-52 3z"/>
<path d="M13540 2550 c0 -5 -17 -27 -37 -47 l-38 -38 62 -3 c54 -2 64 0 73 18
8 16 7 27 -7 50 -16 28 -53 42 -53 20z"/>
<path d="M13673 2528 c-24 -28 -19 -56 12 -64 45 -11 60 -2 57 36 -6 54 -35
65 -69 28z"/>
<path d="M13807 2533 c-16 -15 -6 -62 15 -77 20 -15 24 -14 45 6 25 24 29 48
11 66 -13 13 -60 16 -71 5z"/>
<path d="M13963 2528 c-31 -40 -14 -75 31 -64 27 7 38 35 24 60 -11 19 -42 21
-55 4z"/>
<path d="M13462 2417 c-30 -32 -29 -63 4 -71 38 -10 61 1 67 30 3 18 -2 33
-14 45 -24 24 -31 24 -57 -4z"/>
<path d="M13618 2432 c-26 -5 -41 -58 -22 -77 38 -38 104 3 82 50 -11 24 -31
34 -60 27z"/>
<path d="M13742 2418 c-7 -7 -12 -25 -12 -40 0 -21 6 -29 25 -34 14 -3 33 -3
42 2 10 4 21 7 24 6 9 -2 -2 51 -14 66 -12 15 -49 16 -65 0z"/>
<path d="M13898 2419 c-11 -6 -18 -22 -18 -38 0 -23 5 -30 25 -33 24 -5 54 16
54 37 0 11 -29 45 -38 45 -3 0 -14 -5 -23 -11z"/>
<path d="M13388 2299 c-11 -6 -18 -22 -18 -39 0 -60 80 -61 95 -2 10 42 -35
66 -77 41z"/>
<path d="M13515 2290 c-15 -48 23 -88 66 -67 27 14 37 51 19 73 -19 22 -77 18
-85 -6z"/>
<path d="M13659 2289 c-16 -30 3 -69 34 -69 43 0 74 45 54 78 -14 21 -75 15
-88 -9z"/>
<path d="M13816 2297 c-25 -19 -18 -61 12 -65 32 -5 54 16 50 47 -3 30 -33 39
-62 18z"/>
<path d="M13320 2183 c-29 -20 -23 -63 10 -80 21 -11 28 -9 47 9 27 26 30 63
6 73 -31 14 -41 13 -63 -2z"/>
<path d="M13485 2192 c-30 -6 -45 -22 -45 -46 0 -47 57 -63 84 -24 30 43 9 81
-39 70z"/>
<path d="M13600 2182 c-29 -23 -20 -59 18 -73 23 -9 30 -7 50 16 21 24 21 29
9 49 -19 28 -48 31 -77 8z"/>
<path d="M13743 2191 c0 -3 -3 -16 -7 -29 -10 -29 10 -54 38 -50 25 4 49 47
35 64 -10 12 -69 25 -66 15z"/>
<path d="M13890 2164 c-17 -31 2 -58 34 -48 44 14 48 48 7 62 -25 9 -30 7 -41
-14z"/>
<path d="M13258 2069 c-26 -15 -24 -76 2 -84 29 -9 55 2 71 31 12 24 12 28
-10 45 -26 21 -38 23 -63 8z"/>
<path d="M13393 2073 c-18 -7 -16 -59 3 -77 20 -21 47 -20 66 2 33 37 -21 95
-69 75z"/>
<path d="M13530 2064 c-16 -19 -4 -61 23 -78 24 -15 51 4 55 40 6 46 -50 73
-78 38z"/>
<path d="M13682 2068 c-25 -25 -10 -78 22 -78 43 0 63 35 40 69 -17 23 -44 27
-62 9z"/>
<path d="M13500 1962 c-35 -5 -51 -21 -47 -46 4 -35 17 -46 53 -46 27 0 37 5
43 22 16 44 -6 77 -49 70z"/>
<path d="M13174 1936 c-10 -43 4 -66 40 -66 38 0 56 15 56 47 0 45 -85 62 -96
19z"/>
<path d="M13322 1948 c-13 -13 -15 -37 -6 -62 7 -19 64 -22 82 -4 17 17 15 65
-4 72 -25 10 -59 7 -72 -6z"/>
<path d="M12984 1825 c-15 -23 -15 -27 0 -50 22 -33 60 -33 82 0 14 22 15 30
4 50 -18 34 -64 34 -86 0z"/>
<path d="M13152 1843 c-12 -2 -27 -13 -33 -24 -21 -41 21 -90 60 -70 24 13 33
68 14 87 -8 8 -15 13 -16 13 -1 -1 -12 -4 -25 -6z"/>
<path d="M13250 1821 c-17 -33 4 -71 39 -71 29 0 43 11 54 42 15 42 -72 68
-93 29z"/>
<path d="M12943 1729 c-27 -10 -32 -59 -8 -79 23 -19 64 -4 76 28 18 46 -16
72 -68 51z"/>
<path d="M13063 1727 c-9 -15 -4 -58 8 -73 5 -7 21 -14 35 -17 13 -2 23 -2 20
1 -3 2 1 11 9 19 17 17 20 49 5 58 -27 17 -70 23 -77 12z"/>
<path d="M5235 10411 c-3 -5 -1 -12 5 -16 5 -3 10 1 10 9 0 18 -6 21 -15 7z"/>
<path d="M2253 8448 c-21 -27 -22 -58 -2 -69 41 -22 88 3 89 47 0 33 -66 49
-87 22z"/>
<path d="M2056 8328 c-16 -18 -20 -19 -30 -7 -14 18 -63 24 -81 9 -23 -19 -4
-64 29 -68 31 -4 57 13 50 32 -3 7 2 13 11 13 8 0 15 -6 15 -12 0 -7 7 -18 15
-25 21 -17 65 2 65 29 0 53 -40 69 -74 29z"/>
<path d="M2183 8338 c-10 -13 -10 -36 1 -64 7 -18 50 -18 65 0 7 8 11 27 9 43
-2 23 -8 29 -34 31 -17 2 -35 -3 -41 -10z"/>
<path d="M2326 8334 c-33 -32 -13 -74 36 -74 20 0 32 7 39 24 23 50 -36 90
-75 50z"/>
<path d="M1838 8333 c-22 -5 -23 -36 -3 -53 21 -17 50 -8 53 17 4 24 -22 42
-50 36z"/>
<path d="M2410 8227 c-36 -18 -35 -68 2 -81 22 -8 32 -6 48 9 25 23 26 61 1
75 -24 12 -21 12 -51 -3z"/>
<path d="M2112 8205 c-15 -34 -16 -32 12 -50 39 -26 82 7 69 53 -8 33 -66 31
-81 -3z"/>
<path d="M2252 8218 c-7 -7 -12 -22 -12 -35 0 -39 56 -52 88 -19 24 24 1 66
-36 66 -15 0 -33 -5 -40 -12z"/>
<path d="M2000 8196 c0 -30 13 -40 40 -31 24 8 27 40 4 49 -31 12 -44 6 -44
-18z"/>
<path d="M2328 8109 c-29 -16 -22 -56 11 -74 27 -13 31 -13 45 1 44 44 -3 105
-56 73z"/>
<path d="M2478 8113 c-25 -6 -32 -40 -14 -68 11 -17 21 -22 38 -18 49 12 63
47 32 77 -15 16 -25 17 -56 9z"/>
<path d="M2176 8102 c-8 -14 18 -57 37 -60 38 -8 66 49 31 62 -22 9 -62 7 -68
-2z"/>
<path d="M2558 8003 c-21 -5 -32 -36 -23 -63 12 -39 91 -13 83 28 -4 20 -39
40 -60 35z"/>
<path d="M2393 7984 c-9 -24 12 -61 35 -59 25 2 52 23 52 41 0 30 -76 47 -87
18z"/>
<path d="M2632 7889 c-32 -12 -26 -50 10 -63 22 -8 32 -6 47 8 20 18 20 18 -6
42 -14 13 -26 24 -27 23 -1 0 -11 -4 -24 -10z"/>
<path d="M5381 5983 c-39 -27 -20 -73 30 -73 37 0 55 24 41 54 -13 29 -45 38
-71 19z"/>
<path d="M5240 5971 c-15 -29 -13 -39 11 -52 24 -13 69 4 64 25 -10 48 -55 64
-75 27z"/>
<path d="M5512 5973 c-6 -11 -6 -27 -1 -41 7 -19 15 -23 40 -20 64 6 64 70 1
76 -22 2 -33 -2 -40 -15z"/>
<path d="M5456 5878 c-10 -6 -16 -23 -16 -44 0 -27 5 -37 23 -43 40 -15 67 5
67 51 0 38 -38 56 -74 36z"/>
<path d="M5613 5882 c-27 -4 -39 -41 -23 -71 15 -30 63 -28 79 3 25 45 -2 77
-56 68z"/>
<path d="M5742 5877 c-6 -7 -15 -24 -20 -38 -9 -21 -6 -28 11 -39 27 -17 37
-19 60 -8 20 10 24 73 5 85 -22 13 -45 13 -56 0z"/>
<path d="M5876 5880 c-9 -3 -17 -9 -17 -13 1 -4 1 -8 0 -9 -12 -40 15 -71 56
-66 39 4 58 36 42 68 -12 24 -45 33 -81 20z"/>
<path d="M6002 5847 c-2 -32 1 -39 22 -46 34 -14 66 -2 77 27 13 34 -3 49 -54
54 l-42 3 -3 -38z"/>
<path d="M5315 5870 c-4 -6 -10 -8 -15 -5 -4 3 -6 -10 -3 -27 6 -39 16 -47 49
-40 29 5 46 39 32 65 -9 18 -53 23 -63 7z"/>
<path d="M5669 5766 c-25 -19 -31 -47 -14 -72 27 -42 77 -26 90 28 9 37 -44
68 -76 44z"/>
<path d="M6103 5769 c-18 -6 -23 -16 -23 -43 0 -44 29 -64 67 -47 52 24 9 111
-44 90z"/>
<path d="M5253 5761 c-18 -11 -21 -58 -4 -68 23 -13 49 -5 56 17 11 36 -24 70
-52 51z"/>
<path d="M5386 5754 c-38 -37 -4 -90 42 -65 29 15 35 41 16 62 -21 23 -38 24
-58 3z"/>
<path d="M5522 5754 c-47 -33 1 -96 54 -72 30 14 33 62 5 78 -26 13 -33 13
-59 -6z"/>
<path d="M5796 5757 c-28 -21 -18 -69 18 -82 25 -8 31 -6 52 18 44 51 -14 105
-70 64z"/>
<path d="M5970 5762 c-39 -6 -52 -29 -34 -63 25 -49 84 -36 90 20 4 35 -15 49
-56 43z"/>
<path d="M6231 5756 c-17 -20 -10 -67 12 -80 21 -14 46 0 67 38 14 25 13 28
-4 42 -25 18 -60 18 -75 0z"/>
<path d="M6372 5748 c-19 -19 -14 -56 9 -69 27 -14 62 3 78 38 6 13 7 22 2 19
-5 -3 -11 1 -15 9 -7 18 -57 20 -74 3z"/>
<path d="M5455 5636 c-14 -14 -25 -29 -25 -33 1 -21 21 -36 50 -36 52 0 67 51
23 80 -20 14 -24 13 -48 -11z"/>
<path d="M5597 5647 c-14 -11 -21 -35 -18 -63 0 -7 14 -14 31 -16 23 -4 35 2
54 23 l25 27 -22 14 c-36 24 -54 27 -70 15z"/>
<path d="M5310 5636 c-15 -19 -9 -59 10 -67 26 -10 48 2 59 32 8 24 7 30 -9
39 -26 14 -45 13 -60 -4z"/>
<path d="M5726 5631 c-21 -23 -12 -46 25 -65 16 -8 27 -10 24 -5 -4 5 1 9 10
9 20 0 35 40 23 63 -12 23 -60 22 -82 -2z"/>
<path d="M5864 5636 c-9 -24 0 -58 18 -70 43 -26 99 31 68 70 -16 18 -79 19
-86 0z"/>
<path d="M6012 5624 c-8 -17 -9 -31 -2 -43 5 -10 7 -21 4 -24 -7 -7 60 8 74
17 19 12 20 56 1 66 -33 18 -65 12 -77 -16z"/>
<path d="M6152 5638 c-18 -18 -15 -43 8 -63 26 -23 67 -13 82 21 11 22 9 28
-7 40 -23 17 -67 18 -83 2z"/>
<path d="M6301 5636 c-19 -23 -10 -69 14 -72 34 -5 67 24 63 54 -2 22 -9 28
-34 30 -18 2 -36 -3 -43 -12z"/>
<path d="M5380 5527 c0 -4 -4 -6 -8 -3 -4 2 -7 -7 -6 -21 1 -33 29 -54 57 -44
25 9 42 61 24 73 -16 10 -67 6 -67 -5z"/>
<path d="M5511 5521 c-8 -14 -8 -27 0 -45 15 -32 30 -37 60 -22 18 9 24 20 24
46 0 33 -2 35 -37 38 -28 2 -39 -1 -47 -17z"/>
<path d="M5660 5525 c-15 -18 -5 -64 15 -72 28 -10 64 6 71 32 8 33 -11 55
-46 55 -15 0 -33 -7 -40 -15z"/>
<path d="M5807 5529 c-23 -13 -19 -59 5 -77 41 -30 100 35 68 74 -14 16 -47
18 -73 3z"/>
<path d="M5947 5527 c-19 -13 -18 -46 1 -69 10 -13 23 -14 63 -9 4 1 12 15 19
31 10 24 10 33 0 45 -15 18 -60 20 -83 2z"/>
<path d="M6081 5526 c-7 -9 -11 -22 -8 -30 3 -7 1 -19 -4 -25 -5 -6 -6 -9 -2
-6 3 3 17 -2 30 -10 43 -29 82 6 71 62 -4 24 -69 31 -87 9z"/>
<path d="M5250 5502 c0 -34 24 -49 47 -31 23 20 12 54 -19 57 -25 3 -28 0 -28
-26z"/>
<path d="M5591 5416 c-17 -20 -10 -67 12 -80 21 -13 47 0 64 35 10 19 9 27 -4
41 -19 22 -56 23 -72 4z"/>
<path d="M5752 5419 c-30 -11 -37 -33 -22 -68 11 -27 14 -29 41 -19 33 11 34
13 42 49 5 21 2 28 -16 36 -13 6 -31 7 -45 2z"/>
<path d="M5871 5413 c-13 -8 -18 -20 -14 -31 10 -28 35 -52 54 -52 22 0 52 42
47 67 -4 24 -61 35 -87 16z"/>
<path d="M6023 5418 c-30 -38 -17 -78 25 -78 35 0 52 17 52 51 0 19 -6 28 -22
33 -34 9 -44 7 -55 -6z"/>
<path d="M5310 5410 c-23 -15 -22 -58 1 -65 35 -11 69 3 69 28 0 40 -35 59
-70 37z"/>
<path d="M5436 5405 c-3 -9 -3 -27 0 -41 5 -19 13 -24 39 -24 38 0 58 19 53
52 -2 19 -10 24 -44 26 -31 2 -43 -1 -48 -13z"/>
<path d="M5835 5311 c-40 -8 -61 -48 -38 -73 17 -19 49 -23 69 -10 20 13 25
48 9 62 -8 7 -12 16 -9 21 3 5 4 8 2 8 -2 -1 -16 -4 -33 -8z"/>
<path d="M5380 5290 c-11 -11 -20 -24 -20 -29 0 -14 29 -34 53 -35 42 -3 64
54 28 74 -28 14 -38 13 -61 -10z"/>
<path d="M5516 5294 c-21 -20 -20 -30 4 -54 33 -33 80 -16 80 30 0 40 -53 56
-84 24z"/>
<path d="M5662 5298 c-17 -17 -15 -65 4 -72 43 -17 74 5 74 52 0 31 -54 44
-78 20z"/>
<path d="M5954 5302 c-6 -4 -13 -17 -17 -30 -7 -29 32 -57 68 -48 29 7 44 49
25 71 -13 16 -57 20 -76 7z"/>
<path d="M5264 5278 c-4 -6 1 -17 12 -25 16 -12 20 -11 31 3 7 9 10 21 7 25
-8 13 -42 11 -50 -3z"/>
<path d="M5456 5188 c-21 -12 -21 -64 0 -72 45 -17 81 7 70 48 -6 26 -43 39
-70 24z"/>
<path d="M5592 5188 c-7 -7 -12 -21 -12 -33 0 -29 19 -45 52 -45 33 0 54 31
39 59 -17 31 -58 40 -79 19z"/>
<path d="M5735 5184 c-22 -23 -15 -56 15 -71 51 -25 94 39 48 71 -28 20 -42
20 -63 0z"/>
<path d="M5883 5189 c-28 -10 -31 -50 -7 -74 18 -18 63 -13 76 8 26 41 -20 85
-69 66z"/>
<path d="M5319 5183 c-18 -4 -33 -53 -17 -53 5 0 6 -5 3 -11 -5 -7 6 -9 31 -7
35 3 39 6 42 32 5 38 -15 51 -59 39z"/>
<path d="M5525 5074 c-29 -29 -15 -74 24 -74 33 0 51 17 51 46 0 30 -53 50
-75 28z"/>
<path d="M5673 5082 c-7 -4 -14 -23 -15 -42 -2 -26 1 -35 15 -38 31 -6 64 7
70 27 6 23 -1 34 -30 50 -25 13 -25 13 -40 3z"/>
<path d="M5830 5080 c-31 -4 -35 -9 -38 -37 -3 -27 2 -34 29 -48 17 -9 28 -12
25 -6 -4 6 0 11 9 11 8 0 20 11 26 24 17 37 -6 63 -51 56z"/>
<path d="M5386 5067 c-27 -20 -18 -61 15 -65 33 -4 67 41 48 64 -14 18 -40 18
-63 1z"/>
<path d="M5630 5000 c0 -5 5 -10 11 -10 5 0 7 5 4 10 -3 6 -8 10 -11 10 -2 0
-4 -4 -4 -10z"/>
<path d="M5452 4958 c-19 -19 -15 -66 6 -72 28 -9 55 0 63 20 11 28 11 31 -7
48 -18 19 -45 21 -62 4z"/>
<path d="M5590 4955 c-7 -9 -14 -27 -16 -40 -2 -20 4 -27 29 -34 26 -7 35 -5
50 11 20 23 22 49 5 66 -17 17 -53 15 -68 -3z"/>
<path d="M5732 4958 c-17 -17 -15 -53 3 -68 38 -31 105 31 71 66 -18 17 -58
18 -74 2z"/>
<path d="M5316 4941 c-15 -17 -15 -20 1 -40 22 -27 50 -20 59 15 11 44 -27 61
-60 25z"/>
<path d="M5384 4835 c-24 -20 -27 -27 -18 -42 17 -27 59 -28 77 -2 12 17 13
25 4 40 -18 28 -31 29 -63 4z"/>
<path d="M5513 4833 c-14 -21 -14 -25 1 -48 19 -28 50 -27 73 4 16 21 16 23
-1 46 -19 27 -55 26 -73 -2z"/>
<path d="M5802 4844 c-29 -20 -34 -52 -11 -67 10 -8 16 -17 12 -20 -4 -4 7 -2
25 4 17 6 38 21 46 34 14 21 13 25 -2 41 -21 23 -45 26 -70 8z"/>
<path d="M5653 4827 c-14 -29 7 -67 36 -67 26 0 53 34 49 62 -2 18 -10 24 -39
26 -29 2 -37 -1 -46 -21z"/>
<path d="M5603 4742 c-33 -5 -42 -48 -15 -74 15 -15 27 -19 46 -14 22 5 26 12
26 41 0 38 -19 54 -57 47z"/>
<path d="M5442 4728 c-31 -31 0 -94 40 -79 30 11 42 33 34 64 -5 21 -12 27
-34 27 -15 0 -33 -5 -40 -12z"/>
<path d="M5726 4724 c-33 -32 -13 -74 35 -74 38 0 61 33 45 65 -13 29 -56 34
-80 9z"/>
<path d="M5334 4716 c-8 -21 -1 -49 13 -53 15 -5 36 34 29 53 -7 18 -35 18
-42 0z"/>
<path d="M5494 4609 c-14 -16 -15 -24 -6 -44 16 -34 56 -34 78 1 15 22 15 27
2 40 -23 23 -54 24 -74 3z"/>
<path d="M5646 4617 c-20 -15 -27 -47 -13 -64 13 -18 58 -16 85 2 19 14 20 19
9 38 -22 39 -49 48 -81 24z"/>
<path d="M5364 4606 c-18 -47 25 -88 53 -50 17 23 16 29 -3 48 -19 20 -43 21
-50 2z"/>
<path d="M5558 4502 c-14 -16 -18 -73 -6 -66 4 3 16 0 27 -6 11 -5 27 -7 35
-4 21 8 31 51 17 68 -18 21 -59 25 -73 8z"/>
<path d="M5417 4503 c-11 -11 -8 -48 5 -61 24 -24 77 -8 76 23 0 25 -21 45
-47 45 -15 0 -31 -3 -34 -7z"/>
<path d="M5512 4392 c-41 -6 -52 -72 -15 -87 38 -14 76 25 66 66 -6 21 -19 26
-51 21z"/>
<path d="M5622 4388 c-15 -15 -15 -43 -2 -69 19 -34 90 -5 90 37 0 35 -62 58
-88 32z"/>
<path d="M5392 4381 c-19 -11 -11 -45 11 -49 13 -3 17 3 17 27 0 32 -6 37 -28
22z"/>
<path d="M5422 4278 c-17 -17 -15 -42 6 -68 22 -27 38 -21 53 18 9 22 7 30
-11 44 -26 21 -32 22 -48 6z"/>
<path d="M5564 4280 c-27 -10 -34 -28 -23 -58 12 -31 34 -37 64 -18 54 35 19
98 -41 76z"/>
<path d="M5644 4172 c-12 -1 -26 -13 -31 -25 -15 -32 6 -57 45 -57 24 0 32 6
40 29 13 38 -10 61 -54 53z"/>
<path d="M5472 4150 c-11 -18 -9 -24 12 -45 14 -14 29 -25 34 -25 24 0 43 54
29 78 -13 19 -61 14 -75 -8z"/>
<path d="M5550 4046 c-6 -8 -10 -25 -8 -38 3 -20 9 -23 43 -23 35 0 40 3 43
24 6 42 -51 68 -78 37z"/>
<path d="M5430 4026 c0 -33 35 -54 48 -29 15 31 8 48 -20 51 -24 3 -28 0 -28
-22z"/>
<path d="M5487 3932 c-10 -10 -17 -25 -17 -33 0 -37 61 -54 79 -21 5 9 10 19
12 22 1 3 -3 15 -10 28 -14 27 -42 29 -64 4z"/>
<path d="M5640 3940 c-21 -5 -25 -12 -25 -40 0 -31 3 -35 28 -38 36 -4 57 13
57 48 0 31 -19 40 -60 30z"/>
<path d="M5555 3823 c-28 -28 -12 -73 26 -73 26 0 50 39 39 60 -13 24 -47 31
-65 13z"/>
<path d="M5496 3704 c-19 -19 -20 -36 -4 -52 26 -26 58 -8 58 33 0 25 -36 37
-54 19z"/>
<path d="M5622 3704 c-29 -20 -28 -40 2 -59 19 -13 29 -14 45 -5 23 12 28 49
9 68 -16 16 -29 15 -56 -4z"/>
<path d="M5546 3602 c-3 -5 -6 -27 -7 -50 -2 -23 -7 -42 -11 -42 -4 0 -8 -12
-8 -26 0 -16 5 -24 13 -21 6 2 12 17 12 34 0 24 3 29 21 25 39 -7 74 68 38 82
-22 9 -52 7 -58 -2z"/>
<path d="M5673 3591 c-24 -39 18 -89 51 -62 18 15 26 57 13 70 -17 17 -51 13
-64 -8z"/>
<path d="M5609 3494 c-13 -16 -7 -50 15 -79 14 -19 15 -19 34 -2 24 22 34 63
18 75 -21 17 -55 20 -67 6z"/>
<path d="M5557 3393 c-10 -16 -19 -103 -13 -119 9 -22 36 0 36 30 0 12 7 32
16 44 9 13 13 29 10 37 -6 16 -41 21 -49 8z"/>
<path d="M5692 3384 c-12 -8 -22 -22 -22 -30 0 -8 -9 -30 -19 -50 -23 -42 -18
-64 14 -64 27 0 51 25 60 63 4 15 11 30 16 33 16 9 10 43 -9 53 -14 7 -25 6
-40 -5z"/>
<path d="M5601 3220 c-7 -4 -13 -23 -14 -41 -2 -30 1 -34 23 -34 22 0 25 5 28
36 3 38 -13 55 -37 39z"/>
<path d="M5718 3198 c-29 -29 -20 -62 19 -66 57 -6 82 70 26 81 -17 3 -32 -2
-45 -15z"/>
<path d="M5805 3098 c-43 -24 -47 -64 -9 -79 34 -12 69 9 76 45 3 14 2 24 -1
23 -3 -1 -15 4 -26 10 -15 8 -26 8 -40 1z"/>
<path d="M5646 3081 c-34 -38 26 -85 62 -49 17 17 15 55 -4 62 -26 10 -40 7
-58 -13z"/>
<path d="M5610 2975 c-7 -8 -10 -26 -6 -39 5 -19 12 -24 31 -22 14 1 28 6 33
11 4 4 1 5 -7 0 -11 -6 -13 -2 -7 18 8 33 -24 56 -44 32z"/>
<path d="M5722 2978 c-17 -17 -15 -53 3 -68 38 -31 96 27 65 65 -15 18 -51 20
-68 3z"/>
<path d="M5785 2862 c-8 -22 -6 -57 6 -69 14 -14 58 -4 69 17 13 25 8 60 -10
61 -8 0 -25 2 -37 3 -12 1 -25 -4 -28 -12z"/>
<path d="M5657 2849 c-4 -13 2 -28 15 -41 l21 -21 18 21 c24 31 14 62 -21 62
-20 0 -29 -6 -33 -21z"/>
<path d="M5734 2747 c-22 -20 -25 -27 -16 -44 13 -23 56 -35 71 -20 18 18 13
61 -9 74 -16 11 -23 9 -46 -10z"/>
<path d="M5849 2739 c-18 -35 4 -71 41 -67 16 2 38 13 49 25 18 19 18 23 5 42
-21 29 -79 29 -95 0z"/>
<path d="M5607 2644 c-4 -4 -7 -18 -7 -31 0 -18 5 -24 18 -21 10 2 17 12 17
27 0 24 -15 37 -28 25z"/>
<path d="M5697 2642 c-13 -3 -17 -11 -15 -30 2 -21 8 -27 28 -27 18 0 26 6 28
21 4 25 -16 42 -41 36z"/>
<path d="M5792 2638 c-7 -7 -12 -19 -12 -27 1 -18 30 -61 30 -43 0 6 6 9 14 6
16 -6 46 21 46 41 0 28 -56 45 -78 23z"/>
<path d="M5558 2539 c-10 -6 -18 -19 -18 -30 0 -27 43 -22 48 5 5 25 -9 37
-30 25z"/>
<path d="M4470 11307 l-23 -32 29 27 c15 15 26 30 23 33 -3 2 -16 -10 -29 -28z"/>
<path d="M12774 1362 c-15 -23 4 -51 37 -54 29 -4 61 48 38 63 -24 15 -64 10
-75 -9z"/>
<path d="M12948 1373 c-26 -6 -24 -53 2 -60 11 -3 17 -10 14 -15 -3 -5 3 -4
15 4 30 19 37 49 15 65 -10 7 -20 12 -23 12 -3 -1 -14 -3 -23 -6z"/>
<path d="M13083 1354 c-4 -11 1 -23 17 -36 21 -17 23 -17 35 -1 19 26 11 48
-18 51 -18 2 -29 -2 -34 -14z"/>
<path d="M3860 1346 c-10 -13 -9 -17 5 -22 19 -8 45 4 48 21 3 17 -39 17 -53
1z"/>
<path d="M13247 1346 c-7 -19 18 -40 39 -32 8 3 14 14 12 23 -4 22 -43 29 -51
9z"/>
<path d="M13405 1320 c3 -5 13 -10 21 -10 8 0 14 5 14 10 0 6 -9 10 -21 10
-11 0 -17 -4 -14 -10z"/>
<path d="M12411 1266 c-7 -8 -11 -27 -9 -43 2 -23 8 -29 36 -31 27 -3 34 1 42
23 13 34 -3 65 -34 65 -13 0 -29 -6 -35 -14z"/>
<path d="M12556 1259 c-11 -17 -12 -27 -3 -46 14 -31 57 -28 73 6 25 50 -38
86 -70 40z"/>
<path d="M12706 1264 c-9 -8 -16 -23 -16 -33 0 -42 58 -56 84 -20 33 47 -28
94 -68 53z"/>
<path d="M12868 1273 c-17 -4 -19 -9 -22 -43 -3 -38 49 -53 77 -22 24 27 21
51 -9 62 -14 6 -26 9 -27 9 -1 -1 -10 -3 -19 -6z"/>
<path d="M13018 1268 c-8 -7 -18 -23 -21 -36 -7 -31 31 -51 68 -34 35 16 34
59 -1 72 -31 12 -27 12 -46 -2z"/>
<path d="M3633 1252 c-16 -17 -16 -25 -1 -40 19 -19 56 -14 68 9 22 39 -33 65
-67 31z"/>
<path d="M3773 1247 c-15 -33 -2 -49 38 -45 30 3 34 6 34 33 0 26 -4 30 -31
33 -24 2 -33 -2 -41 -21z"/>
<path d="M3924 1256 c-3 -9 -3 -27 0 -40 5 -21 10 -23 38 -17 28 6 33 11 33
36 0 26 -4 30 -33 33 -22 2 -34 -2 -38 -12z"/>
<path d="M13161 1248 c-11 -29 -4 -46 20 -53 42 -14 76 17 64 56 -10 29 -73
26 -84 -3z"/>
<path d="M13314 1245 c-12 -50 19 -70 67 -45 39 21 16 70 -33 70 -21 0 -29 -6
-34 -25z"/>
<path d="M13474 1262 c-7 -4 -14 -20 -15 -36 -4 -25 0 -30 24 -33 35 -5 67 13
67 37 0 30 -48 50 -76 32z"/>
<path d="M13642 1262 c-19 -3 -23 -9 -20 -30 2 -23 8 -27 33 -27 23 0 31 5 33
21 4 26 -16 41 -46 36z"/>
<path d="M3492 1234 c-2 -24 19 -37 43 -28 26 11 18 41 -13 46 -23 3 -28 0
-30 -18z"/>
<path d="M13784 1235 c-6 -15 2 -35 14 -35 18 1 32 18 26 33 -8 21 -33 22 -40
2z"/>
<path d="M4151 1161 c-5 -4 -14 -18 -20 -33 -8 -21 -6 -29 7 -40 9 -8 23 -13
30 -12 6 1 19 2 27 3 23 2 41 47 26 65 -13 16 -55 26 -70 17z"/>
<path d="M12330 1155 c-9 -11 -13 -32 -11 -52 2 -18 39 -35 62 -28 28 9 43 51
27 73 -14 19 -64 24 -78 7z"/>
<path d="M13272 1162 c-24 -4 -39 -26 -38 -57 1 -26 48 -32 81 -11 41 27 10
77 -43 68z"/>
<path d="M13550 1147 c-24 -34 -14 -64 21 -69 45 -7 79 43 47 70 -28 22 -53
21 -68 -1z"/>
<path d="M3414 1133 c-10 -37 1 -50 35 -45 26 4 31 9 31 32 0 23 -5 28 -30 32
-25 4 -31 1 -36 -19z"/>
<path d="M3698 1144 c-13 -13 -14 -21 -5 -41 9 -20 17 -23 46 -21 30 2 37 7
39 27 7 44 -48 67 -80 35z"/>
<path d="M3850 1141 c-17 -32 -12 -49 20 -59 33 -12 60 5 60 37 0 40 -61 57
-80 22z"/>
<path d="M3992 1143 c-16 -34 -9 -58 20 -61 38 -4 68 14 68 42 0 37 -71 52
-88 19z"/>
<path d="M12165 1130 c0 -38 13 -50 49 -50 41 0 60 21 52 55 -6 24 -10 26 -54
23 -43 -3 -47 -5 -47 -28z"/>
<path d="M12476 1145 c-29 -29 -11 -68 35 -73 32 -4 51 18 47 55 -2 23 -8 29
-34 31 -19 2 -38 -3 -48 -13z"/>
<path d="M12630 1146 c-6 -8 -10 -25 -8 -38 3 -20 9 -23 43 -23 33 0 40 4 45
25 4 14 2 31 -3 38 -13 17 -62 15 -77 -2z"/>
<path d="M12782 1151 c-18 -11 -11 -61 11 -75 38 -24 91 35 64 72 -11 14 -55
16 -75 3z"/>
<path d="M12932 1148 c-28 -28 -6 -68 39 -68 15 0 31 5 34 10 4 6 10 8 14 5 9
-5 6 39 -4 54 -9 15 -68 14 -83 -1z"/>
<path d="M13088 1143 c-23 -26 -7 -59 31 -65 49 -7 85 49 47 74 -20 14 -63 8
-78 -9z"/>
<path d="M13397 1142 c-32 -35 -16 -62 34 -62 55 0 71 52 22 71 -33 12 -37 12
-56 -9z"/>
<path d="M13702 1144 c-27 -19 -21 -46 12 -62 24 -12 30 -12 47 4 11 10 19 27
17 38 -4 26 -50 38 -76 20z"/>
<path d="M13858 1149 c-22 -13 -23 -55 -2 -63 38 -15 78 10 67 42 -12 31 -35
39 -65 21z"/>
<path d="M13996 1141 c-26 -29 -14 -57 25 -57 39 1 59 27 43 54 -16 24 -47 26
-68 3z"/>
<path d="M3555 1130 c-12 -36 21 -56 65 -40 3 2 7 2 10 2 3 0 6 11 5 26 0 24
-4 27 -37 30 -30 3 -38 -1 -43 -18z"/>
<path d="M4071 1039 c-24 -23 -24 -20 -11 -53 14 -37 66 -37 82 0 22 49 -32
89 -71 53z"/>
<path d="M4225 1047 c-35 -26 -22 -87 19 -87 26 0 56 28 56 52 0 30 -49 53
-75 35z"/>
<path d="M13788 1042 c-45 -27 -35 -80 15 -78 45 3 63 49 31 80 -18 19 -13 19
-46 -2z"/>
<path d="M3511 1040 c-33 -8 -49 -34 -32 -54 21 -25 56 -20 69 10 15 32 -2 53
-37 44z"/>
<path d="M3630 1029 c-23 -42 0 -74 45 -63 23 6 26 11 23 43 -3 32 -6 36 -31
37 -17 1 -32 -6 -37 -17z"/>
<path d="M3783 1038 c-22 -29 -23 -38 -4 -57 37 -37 96 5 69 49 -14 22 -50 27
-65 8z"/>
<path d="M3926 1034 c-36 -35 -2 -83 50 -70 19 5 24 13 24 40 0 46 -42 63 -74
30z"/>
<path d="M4361 1028 c-12 -33 -2 -57 27 -65 31 -7 56 7 60 36 5 31 -15 51 -50
51 -20 0 -31 -6 -37 -22z"/>
<path d="M4510 1031 c-15 -30 -12 -49 11 -61 31 -17 62 -8 70 20 12 49 -57 84
-81 41z"/>
<path d="M11972 1038 c-7 -7 -12 -25 -12 -40 0 -21 6 -29 24 -34 40 -10 66 4
66 35 0 32 -16 51 -45 51 -12 0 -26 -5 -33 -12z"/>
<path d="M12111 1036 c-7 -8 -11 -27 -9 -43 2 -22 9 -29 31 -31 52 -6 76 38
39 71 -23 21 -46 22 -61 3z"/>
<path d="M12255 1038 c-2 -7 -5 -20 -8 -28 -8 -26 12 -50 41 -50 48 0 69 44
38 76 -18 17 -65 19 -71 2z"/>
<path d="M12399 1029 c-17 -33 3 -69 39 -69 33 0 52 16 52 45 0 29 -19 45 -52
45 -18 0 -31 -7 -39 -21z"/>
<path d="M12561 1034 c-39 -28 -20 -74 30 -74 20 0 30 7 39 31 8 19 9 34 3 40
-17 17 -50 18 -72 3z"/>
<path d="M12696 1022 c-18 -34 -2 -62 37 -62 50 0 77 58 38 80 -34 18 -60 12
-75 -18z"/>
<path d="M12856 1034 c-32 -32 -13 -74 34 -74 32 0 50 17 50 47 0 38 -55 56
-84 27z"/>
<path d="M13013 1038 c-19 -25 -22 -48 -7 -63 32 -31 94 -8 94 35 0 34 -66 54
-87 28z"/>
<path d="M13165 1040 c-12 -20 -14 -54 -4 -67 12 -14 57 -17 75 -5 21 13 25
49 9 66 -18 18 -70 22 -80 6z"/>
<path d="M13466 1029 c-28 -41 11 -81 62 -65 24 8 36 46 19 63 -23 22 -66 23
-81 2z"/>
<path d="M13626 1035 c-20 -15 -21 -49 -1 -65 36 -30 102 26 69 59 -17 19 -47
21 -68 6z"/>
<path d="M13909 1033 c-15 -18 -3 -60 19 -65 47 -13 82 34 50 65 -18 16 -56
16 -69 0z"/>
<path d="M3361 1029 c-23 -9 -23 -10 -6 -29 14 -15 21 -17 32 -9 14 12 17 35
6 42 -5 3 -19 1 -32 -4z"/>
<path d="M13317 1033 c-4 -3 -7 -17 -7 -29 0 -26 27 -45 56 -39 10 2 22 4 26
4 14 2 19 42 8 56 -13 15 -71 21 -83 8z"/>
<path d="M14055 1021 c-13 -43 22 -65 64 -39 16 9 17 16 8 35 -13 29 -63 32
-72 4z"/>
<path d="M11633 930 c-54 -33 -38 -95 22 -87 30 4 45 22 45 55 0 15 -7 26 -20
29 -11 3 -17 9 -14 14 8 13 3 11 -33 -11z"/>
<path d="M4314 930 c-30 -12 -36 -24 -25 -53 13 -32 47 -41 71 -17 10 10 21
15 25 12 3 -3 2 5 -3 18 -12 33 -42 50 -68 40z"/>
<path d="M4890 931 c-20 -5 -26 -14 -28 -44 -3 -30 0 -37 15 -37 15 0 16 -2 3
-10 -22 -14 -4 -12 35 4 27 12 35 21 35 40 0 19 -24 60 -33 55 -1 -1 -13 -4
-27 -8z"/>
<path d="M11790 930 c-50 -12 -49 -90 0 -90 37 0 50 12 50 45 0 39 -16 54 -50
45z"/>
<path d="M12192 928 c-27 -27 -10 -78 27 -78 42 0 64 34 43 67 -11 18 -56 25
-70 11z"/>
<path d="M12343 930 c-25 -10 -28 -25 -13 -64 12 -32 54 -36 70 -7 12 24 13
71 1 71 -5 0 -15 2 -23 4 -7 3 -23 1 -35 -4z"/>
<path d="M12780 926 c-12 -12 -13 -46 -2 -62 15 -24 50 -26 71 -5 36 36 24 66
-26 73 -18 2 -37 0 -43 -6z"/>
<path d="M13120 931 c-31 -5 -35 -10 -38 -38 -3 -27 1 -35 21 -44 32 -14 64 2
73 37 9 35 -12 52 -56 45z"/>
<path d="M13851 927 c-6 -6 -11 -21 -11 -34 0 -17 6 -23 23 -23 47 0 66 54 23
62 -14 3 -30 0 -35 -5z"/>
<path d="M3707 924 c-16 -16 -7 -55 15 -63 32 -12 59 8 56 39 -2 20 -9 26 -33
28 -17 2 -34 0 -38 -4z"/>
<path d="M3853 919 c-19 -19 4 -69 32 -69 24 0 35 17 35 56 0 20 -5 24 -28 24
-15 0 -33 -5 -39 -11z"/>
<path d="M3989 913 c-2 -31 2 -58 11 -67 16 -17 58 3 68 33 13 36 0 51 -45 51
-24 0 -33 -5 -34 -17z"/>
<path d="M4145 918 c-15 -43 -13 -66 7 -71 45 -12 87 28 71 69 -6 18 -72 19
-78 2z"/>
<path d="M4434 915 c-12 -31 5 -63 36 -67 45 -7 57 7 52 65 -3 23 -80 25 -88
2z"/>
<path d="M4577 923 c-13 -12 -7 -50 11 -70 13 -15 22 -18 40 -12 24 9 46 54
38 76 -6 13 -77 19 -89 6z"/>
<path d="M4727 924 c-4 -4 -7 -22 -7 -40 0 -24 5 -33 22 -37 34 -9 70 19 66
51 -3 23 -8 27 -38 30 -20 2 -39 0 -43 -4z"/>
<path d="M5015 917 c-12 -14 -7 -59 7 -68 22 -14 62 7 75 40 8 18 9 30 4 27
-5 -4 -12 -2 -16 4 -9 14 -58 12 -70 -3z"/>
<path d="M11893 914 c-8 -22 9 -67 27 -69 8 -1 25 1 38 6 17 6 22 16 22 44 0
34 -1 35 -40 35 -28 0 -43 -5 -47 -16z"/>
<path d="M12042 913 c-16 -34 -8 -56 22 -64 43 -12 68 5 64 44 -3 29 -7 32
-40 35 -27 2 -39 -1 -46 -15z"/>
<path d="M12477 923 c-12 -12 -7 -51 8 -66 20 -21 46 -15 68 14 26 36 14 59
-32 59 -21 0 -41 -3 -44 -7z"/>
<path d="M12623 919 c-14 -14 -4 -58 17 -69 39 -21 83 21 66 65 -6 17 -66 21
-83 4z"/>
<path d="M12924 915 c-12 -29 5 -62 33 -68 16 -3 33 -1 40 5 19 16 26 48 13
63 -17 20 -79 20 -86 0z"/>
<path d="M13238 906 c-7 -37 9 -56 48 -56 27 0 37 5 43 23 14 36 -4 57 -48 57
-33 0 -39 -4 -43 -24z"/>
<path d="M13393 919 c-14 -14 -4 -58 16 -68 37 -20 94 35 69 67 -13 15 -70 16
-85 1z"/>
<path d="M13547 923 c-12 -11 -8 -60 6 -70 13 -11 45 -9 57 4 8 8 13 37 11 61
-1 13 -62 17 -74 5z"/>
<path d="M13690 915 c-20 -24 -3 -55 30 -55 26 0 60 22 60 39 0 29 -68 42 -90
16z"/>
<path d="M3567 913 c-12 -11 13 -31 33 -26 28 7 25 33 -3 33 -13 0 -27 -3 -30
-7z"/>
<path d="M4221 793 c-14 -31 0 -53 35 -53 30 0 48 31 31 52 -22 28 -54 28 -66
1z"/>
<path d="M4534 810 c-31 -12 -36 -45 -10 -68 26 -24 66 -14 66 18 0 11 1 23 3
26 5 14 -39 32 -59 24z"/>
<path d="M4946 804 c-43 -43 20 -104 67 -64 22 19 22 43 -1 63 -23 21 -46 22
-66 1z"/>
<path d="M5082 796 c-4 -41 7 -64 33 -69 31 -5 55 15 55 48 0 29 -9 35 -53 38
-27 3 -33 -1 -35 -17z"/>
<path d="M5230 804 c-20 -23 -1 -66 33 -75 21 -6 30 -3 42 14 20 29 19 43 -7
61 -28 20 -52 20 -68 0z"/>
<path d="M11386 809 c2 -4 0 -10 -6 -14 -15 -9 -12 -41 6 -59 21 -21 57 -20
77 2 20 22 21 39 4 56 -14 14 -89 27 -81 15z"/>
<path d="M11573 813 c-24 -2 -43 -9 -44 -16 0 -7 -2 -20 -4 -30 -2 -10 7 -24
21 -34 41 -27 86 4 74 52 -1 6 -3 16 -3 23 0 6 -1 11 -1 10 -1 -1 -20 -3 -43
-5z"/>
<path d="M11726 811 c-27 -4 -41 -12 -46 -26 -8 -24 -1 -57 11 -49 5 3 9 0 9
-6 0 -14 51 -4 61 12 5 7 7 28 6 45 -1 18 -2 32 -2 32 0 -1 -18 -5 -39 -8z"/>
<path d="M11836 804 c-28 -28 -12 -66 32 -77 44 -10 60 67 16 83 -32 13 -30
13 -48 -6z"/>
<path d="M11983 808 c-30 -38 -17 -78 25 -78 33 0 52 16 52 45 0 12 -5 26 -12
33 -16 16 -53 15 -65 0z"/>
<path d="M12133 809 c-17 -6 -23 -17 -23 -37 0 -39 20 -55 53 -43 30 12 36 20
40 58 3 24 0 28 -22 30 -14 0 -36 -3 -48 -8z"/>
<path d="M12274 812 c-21 -14 -23 -41 -4 -64 18 -22 20 -22 47 -8 33 19 40 42
18 64 -17 17 -43 21 -61 8z"/>
<path d="M12418 809 c-11 -6 -18 -22 -18 -40 0 -18 4 -28 10 -24 6 3 10 1 10
-4 0 -6 13 -11 30 -11 23 0 31 5 36 24 10 40 1 61 -26 63 -14 2 -33 -2 -42 -8z"/>
<path d="M12564 812 c-6 -4 -14 -16 -17 -26 -8 -21 17 -56 40 -56 8 0 11 -5 8
-12 -4 -7 5 1 19 17 41 48 31 85 -22 85 -9 0 -22 -4 -28 -8z"/>
<path d="M12703 813 c-7 -2 -10 -10 -8 -16 2 -7 6 -24 9 -40 6 -25 10 -27 44
-25 37 3 38 5 41 41 1 20 -2 38 -6 38 -25 5 -70 6 -80 2z"/>
<path d="M13010 806 c-28 -28 0 -76 44 -76 24 0 51 47 37 64 -15 18 -67 26
-81 12z"/>
<path d="M3940 796 c0 -8 4 -17 9 -20 11 -7 33 18 24 27 -12 12 -33 7 -33 -7z"/>
<path d="M4073 795 c-7 -20 14 -36 42 -33 12 2 20 11 20 23 0 26 -52 35 -62
10z"/>
<path d="M4377 803 c-11 -11 -8 -48 5 -61 30 -30 80 11 65 52 -6 16 -57 22
-70 9z"/>
<path d="M4650 791 c-15 -30 18 -66 53 -57 27 6 46 44 32 65 -11 19 -73 13
-85 -8z"/>
<path d="M4797 804 c-11 -11 -8 -49 5 -62 31 -31 82 -3 76 40 -2 18 -10 24
-38 26 -20 2 -39 0 -43 -4z"/>
<path d="M12850 781 c0 -54 63 -70 87 -21 16 33 1 50 -48 50 -36 0 -39 -2 -39
-29z"/>
<path d="M13177 795 c-25 -24 -10 -55 27 -55 44 0 70 21 62 48 -6 17 -15 22
-41 22 -18 0 -40 -7 -48 -15z"/>
<path d="M13327 786 c-14 -35 57 -50 86 -18 25 28 21 32 -32 32 -32 0 -51 -5
-54 -14z"/>
<path d="M13507 793 c-13 -12 -7 -23 13 -23 11 0 20 7 20 15 0 15 -21 21 -33
8z"/>
<path d="M12326 700 c5 -8 9 -26 9 -39 0 -31 29 -50 53 -35 34 22 23 64 -19
66 -13 1 -30 6 -38 12 -12 9 -13 8 -5 -4z"/>
<path d="M5456 681 c-23 -25 -20 -48 9 -67 23 -15 27 -15 50 0 16 10 25 26 25
41 0 14 -1 25 -3 25 -1 0 -16 4 -34 9 -25 7 -35 6 -47 -8z"/>
<path d="M10696 682 c-24 -27 -20 -60 9 -74 38 -17 75 3 75 41 0 32 -7 40 -44
47 -14 2 -29 -3 -40 -14z"/>
<path d="M11004 679 c-22 -24 -14 -51 18 -67 38 -18 68 -1 68 37 0 16 -6 33
-13 39 -18 16 -55 11 -73 -9z"/>
<path d="M11161 687 c-17 -17 -13 -65 7 -75 24 -12 63 -7 73 9 7 11 4 60 -4
65 -15 9 -67 10 -76 1z"/>
<path d="M11310 686 c-13 -13 -13 -76 1 -76 5 0 8 -4 5 -9 -4 -5 2 -8 11 -6
10 2 24 4 30 4 23 2 46 48 34 69 -12 22 -65 34 -81 18z"/>
<path d="M11782 684 c-32 -13 -38 -27 -26 -58 7 -19 55 -21 72 -4 16 16 15 65
-1 71 -7 3 -27 -1 -45 -9z"/>
<path d="M12051 687 c-15 -15 -14 -50 1 -65 16 -16 53 -15 68 2 21 27 8 60
-27 67 -18 3 -36 2 -42 -4z"/>
<path d="M12647 688 c-23 -12 -21 -45 3 -53 23 -7 60 10 60 29 0 19 -43 36
-63 24z"/>
<path d="M4606 682 c-15 -14 -4 -32 20 -32 18 0 25 5 22 17 -3 16 -31 26 -42
15z"/>
<path d="M4887 683 c-4 -3 -7 -17 -7 -30 0 -18 6 -23 24 -23 28 0 51 24 42 45
-5 15 -47 21 -59 8z"/>
<path d="M5021 681 c-17 -11 -7 -56 15 -65 27 -10 56 12 52 42 -2 20 -9 28
-28 30 -14 1 -31 -2 -39 -7z"/>
<path d="M5153 674 c-9 -23 14 -64 36 -64 20 0 51 24 51 40 0 5 -3 15 -6 24
-8 22 -72 22 -81 0z"/>
<path d="M5297 683 c-15 -14 -6 -42 19 -62 20 -16 30 -18 46 -10 25 13 39 50
26 67 -11 13 -80 17 -91 5z"/>
<path d="M10846 675 c-20 -52 20 -89 70 -67 21 10 25 18 22 45 -3 30 -6 32
-44 35 -31 2 -43 -1 -48 -13z"/>
<path d="M11456 674 c-13 -33 -6 -59 19 -70 21 -10 28 -8 50 12 27 25 31 44
13 62 -18 18 -75 15 -82 -4z"/>
<path d="M11612 678 c-7 -7 -12 -25 -12 -40 0 -21 6 -29 26 -34 40 -10 74 10
74 45 0 17 -6 31 -16 35 -25 10 -59 7 -72 -6z"/>
<path d="M11897 683 c-11 -11 -8 -48 5 -61 32 -32 93 4 77 46 -6 17 -16 22
-42 22 -19 0 -37 -3 -40 -7z"/>
<path d="M12188 667 c-9 -46 48 -65 76 -25 20 29 5 48 -39 48 -26 0 -34 -5
-37 -23z"/>
<path d="M12487 683 c-4 -3 -7 -17 -7 -30 0 -18 6 -23 24 -23 37 0 56 10 56
30 0 25 -55 42 -73 23z"/>
<path d="M12794 675 c-8 -21 4 -35 32 -35 28 0 44 28 23 41 -21 13 -49 11 -55
-6z"/>
<path d="M12957 684 c-15 -15 -7 -45 11 -42 9 2 17 12 17 22 0 20 -16 31 -28
20z"/>
<path d="M4742 663 c4 -22 38 -30 49 -12 11 19 2 29 -27 29 -19 0 -25 -5 -22
-17z"/>
<path d="M5550 565 c-6 -8 -10 -22 -8 -32 4 -24 47 -24 62 0 9 15 7 21 -8 33
-25 18 -31 18 -46 -1z"/>
<path d="M5701 563 c-20 -17 -20 -19 -3 -41 21 -27 49 -21 61 12 6 14 3 25 -8
33 -21 16 -25 16 -50 -4z"/>
<path d="M5857 568 c-24 -13 -22 -55 3 -63 32 -10 60 4 60 29 0 28 -38 48 -63
34z"/>
<path d="M6012 569 c-18 -7 -23 -15 -20 -35 4 -38 30 -52 62 -34 52 28 14 90
-42 69z"/>
<path d="M6149 559 c-10 -10 -19 -23 -19 -27 0 -20 38 -41 67 -39 17 1 30 4
28 6 -2 1 0 13 5 26 16 41 -47 68 -81 34z"/>
<path d="M6311 563 c-12 -8 -21 -21 -21 -29 0 -16 35 -49 53 -49 14 -1 47 34
47 49 -1 34 -48 51 -79 29z"/>
<path d="M6473 569 c-26 -10 -31 -50 -9 -68 15 -12 78 -12 70 0 -2 4 0 10 5
14 15 9 -3 47 -25 55 -10 4 -29 4 -41 -1z"/>
<path d="M6632 570 c-59 -24 -21 -87 48 -81 25 2 26 67 1 80 -23 13 -19 13
-49 1z"/>
<path d="M8865 571 c-11 -5 -23 -7 -26 -5 -11 6 -1 -46 11 -61 21 -25 90 -16
90 11 0 8 5 14 10 14 6 0 3 11 -6 25 -17 25 -42 30 -79 16z"/>
<path d="M9193 565 c-28 -19 -29 -37 -5 -57 25 -22 60 -28 72 -13 18 22 29 72
16 72 -6 0 -22 3 -36 7 -16 4 -33 1 -47 -9z"/>
<path d="M9368 572 c-26 -5 -33 -40 -12 -63 23 -25 59 -24 78 3 26 37 -11 72
-66 60z"/>
<path d="M9990 563 c-27 -19 -25 -37 5 -61 13 -11 21 -23 17 -27 -4 -4 5 -1
19 5 36 16 56 54 40 74 -17 20 -58 25 -81 9z"/>
<path d="M10149 566 c-31 -15 -33 -28 -9 -59 37 -46 97 -22 88 35 -4 27 -47
40 -79 24z"/>
<path d="M10326 571 c-53 -11 -60 -55 -13 -85 20 -13 63 9 70 35 8 30 -23 57
-57 50z"/>
<path d="M10455 560 c-20 -22 -19 -43 3 -63 26 -24 47 -21 71 9 15 19 18 31
11 44 -13 25 -66 31 -85 10z"/>
<path d="M6770 550 c-9 -18 -8 -25 6 -41 33 -37 99 -12 92 35 -2 17 -11 22
-45 24 -34 3 -44 -1 -53 -18z"/>
<path d="M9017 564 c-11 -11 -8 -52 3 -59 6 -4 8 -10 5 -15 -3 -4 5 -6 17 -2
15 4 19 2 13 -7 -6 -10 -3 -11 12 -3 31 17 45 39 41 64 -2 19 -10 24 -43 26
-23 2 -44 0 -48 -4z"/>
<path d="M9510 550 c-18 -34 24 -79 61 -65 22 8 41 44 34 66 -9 27 -80 27 -95
-1z"/>
<path d="M9670 550 c-12 -22 3 -55 29 -65 16 -6 60 20 68 41 15 41 -76 64 -97
24z"/>
<path d="M9822 553 c-13 -22 20 -73 47 -73 26 0 53 34 49 62 -2 19 -10 23 -45
26 -31 2 -44 -1 -51 -15z"/>
<path d="M10606 554 c-11 -30 -6 -44 23 -58 27 -15 30 -14 55 10 20 21 23 30
15 45 -13 25 -84 27 -93 3z"/>
<path d="M10772 562 c-8 -6 -11 -18 -7 -35 10 -40 25 -47 63 -31 28 11 33 18
30 41 -3 24 -8 28 -38 31 -19 1 -41 -2 -48 -6z"/>
<path d="M10933 563 c-18 -7 -16 -39 3 -58 30 -29 87 4 73 43 -8 21 -44 29
-76 15z"/>
<path d="M11084 544 c-7 -29 7 -44 43 -44 25 0 43 25 36 51 -4 14 -15 19 -39
19 -28 0 -35 -4 -40 -26z"/>
<path d="M11236 554 c-7 -19 10 -54 27 -54 7 0 23 7 35 16 18 12 20 19 12 35
-13 24 -65 26 -74 3z"/>
<path d="M5395 550 c-11 -18 13 -36 31 -25 9 6 16 15 17 20 3 14 -40 18 -48 5z"/>
<path d="M11392 538 c7 -20 48 -23 48 -4 0 11 -9 16 -26 16 -16 0 -24 -5 -22
-12z"/>
<path d="M7239 455 c-3 -2 -16 -6 -30 -8 -31 -5 -39 -43 -10 -52 35 -11 78 23
51 40 -6 4 -8 11 -5 16 6 9 2 12 -6 4z"/>
<path d="M7523 452 c-12 -2 -27 -10 -34 -18 -24 -29 51 -60 79 -32 27 27 0 58
-45 50z"/>
<path d="M7661 444 c-17 -12 -19 -19 -10 -35 8 -15 19 -19 42 -17 26 2 32 7
32 27 0 31 -35 45 -64 25z"/>
<path d="M7802 435 c-2 -30 20 -47 55 -43 20 2 29 9 31 26 4 24 -6 30 -53 35
-26 3 -31 0 -33 -18z"/>
<path d="M7970 445 c-16 -19 -8 -49 13 -53 28 -6 67 7 67 21 -1 35 -59 58 -80
32z"/>
<path d="M8142 449 c-17 -6 -22 -15 -20 -31 3 -20 9 -23 43 -23 35 0 40 3 40
24 0 28 -30 42 -63 30z"/>
<path d="M8295 447 c-29 -22 -15 -52 26 -55 44 -4 65 16 45 43 -17 23 -48 28
-71 12z"/>
<path d="M8454 446 c-26 -20 -8 -50 34 -54 35 -4 62 28 39 46 -24 19 -53 22
-73 8z"/>
<path d="M8985 451 c-11 -5 -23 -7 -26 -5 -11 6 -31 -24 -24 -36 3 -5 21 -10
40 -10 38 0 52 14 36 34 -6 7 -8 16 -4 19 8 8 4 8 -22 -2z"/>
<path d="M6715 434 c-14 -10 -16 -17 -8 -25 15 -15 47 -7 51 12 4 23 -20 30
-43 13z"/>
<path d="M6870 430 c-12 -22 -4 -30 31 -30 32 0 47 16 30 33 -17 17 -51 15
-61 -3z"/>
<path d="M7042 439 c-13 -5 -22 -15 -20 -21 6 -16 70 -17 75 -1 6 18 -29 32
-55 22z"/>
<path d="M7340 440 c-23 -14 1 -45 35 -45 34 0 58 31 35 45 -8 5 -24 10 -35
10 -11 0 -27 -5 -35 -10z"/>
<path d="M8610 440 c-22 -14 0 -44 36 -48 34 -4 60 23 43 45 -13 15 -57 17
-79 3z"/>
<path d="M8772 437 c-18 -21 19 -51 53 -43 39 10 31 50 -11 54 -17 2 -36 -3
-42 -11z"/>
<path d="M9130 441 c-14 -4 -25 -13 -25 -21 0 -18 53 -26 68 -11 17 17 -13 39
-43 32z"/>
<path d="M9287 433 c-15 -14 -6 -33 17 -33 25 0 51 22 39 33 -8 9 -48 9 -56 0z"/>
<path d="M6550 421 c0 -15 16 -22 34 -15 25 9 19 24 -9 24 -14 0 -25 -4 -25
-9z"/>
<path d="M9457 424 c-10 -11 3 -24 24 -24 10 0 19 7 19 15 0 15 -31 21 -43 9z"/>
</g>
</svg>
