<?xml version="1.0" standalone="no"?>
<!DOCTYPE svg PUBLIC "-//W3C//DTD SVG 20010904//EN"
 "http://www.w3.org/TR/2001/REC-SVG-20010904/DTD/svg10.dtd">
<svg version="1.0" xmlns="http://www.w3.org/2000/svg"
 width="1184.000000pt" height="1911.000000pt" viewBox="0 0 1184.000000 1911.000000"
 preserveAspectRatio="xMidYMid meet">
<metadata>
Created by potrace 1.16, written by Peter Selinger 2001-2019
</metadata>
<g transform="translate(0.000000,1911.000000) scale(0.100000,-0.100000)"
fill="#a7262a" stroke="none">
<path d="M3257 18694 c-203 -34 -364 -122 -537 -294 -48 -48 -64 -69 -133
-170 -174 -258 -333 -666 -442 -1135 -110 -474 -189 -984 -235 -1515 -6 -69
-15 -174 -20 -235 -18 -193 -20 -226 -35 -465 -33 -537 -39 -725 -37 -1275 0
-313 4 -626 9 -693 4 -68 6 -127 3 -131 -3 -4 -43 -13 -90 -20 -124 -18 -211
-37 -307 -65 -29 -8 -80 -21 -114 -28 -92 -19 -135 -71 -93 -112 20 -21 35
-20 114 4 113 35 270 67 467 94 38 5 33 22 58 -214 9 -85 28 -225 41 -310 14
-85 26 -163 27 -174 2 -18 -22 -27 -208 -77 -22 -6 -67 -19 -100 -29 -33 -11
-89 -26 -124 -35 -86 -21 -131 -43 -142 -71 -23 -62 20 -78 125 -47 45 13 99
27 121 33 71 16 230 58 245 64 8 3 29 8 45 10 17 2 38 7 47 11 15 6 32 -11 38
-40 1 -5 6 -20 11 -33 5 -13 9 -31 9 -41 0 -9 4 -21 9 -27 4 -5 14 -31 21 -59
7 -27 16 -54 19 -60 4 -5 13 -28 20 -50 10 -30 135 -297 157 -336 4 -6 -131
-59 -341 -134 -138 -49 -185 -72 -185 -90 0 -9 -5 -13 -11 -10 -13 8 12 -37
26 -47 6 -4 22 -8 36 -8 24 0 220 64 443 144 54 20 104 36 112 36 7 0 21 -14
29 -30 16 -31 15 -32 -23 -78 -84 -101 -136 -199 -168 -318 -15 -54 -19 -102
-18 -214 1 -138 2 -149 33 -229 17 -46 29 -86 26 -89 -3 -3 -7 -3 -8 -1 -20
24 -161 216 -188 254 -19 27 -46 63 -61 80 -16 16 -28 35 -28 42 0 6 -3 13 -7
15 -5 2 -32 35 -61 73 -71 95 -85 113 -125 165 -20 24 -33 48 -30 54 3 5 1 6
-5 2 -7 -4 -12 -4 -12 1 0 4 -11 21 -24 36 -13 15 -39 49 -57 75 -59 85 -125
120 -189 102 -31 -9 -70 10 -70 36 0 8 -5 14 -12 14 -6 0 -9 2 -6 5 9 10 -94
115 -113 115 -10 0 -20 4 -23 9 -8 13 -90 5 -122 -12 -76 -39 -114 -101 -114
-181 0 -59 13 -87 79 -170 30 -38 49 -66 41 -61 -9 6 -11 4 -5 -5 5 -8 7 -39
6 -70 -3 -75 12 -109 106 -236 43 -58 87 -118 98 -133 11 -16 65 -88 120 -161
55 -72 99 -137 97 -143 -2 -7 0 -9 4 -5 3 4 34 -30 67 -75 34 -45 87 -117 119
-160 32 -43 58 -81 58 -85 0 -5 -16 -24 -36 -43 -20 -18 -47 -50 -59 -70 -42
-65 -79 -95 -185 -151 -90 -47 -144 -81 -254 -158 -22 -15 -95 -82 -151 -137
-18 -18 -35 -29 -39 -26 -3 3 -6 1 -6 -6 0 -7 -11 -24 -25 -39 -83 -88 -212
-272 -283 -404 -171 -315 -267 -660 -279 -1005 -11 -301 39 -542 158 -776 16
-31 27 -57 24 -57 -3 0 2 -8 9 -18 8 -9 40 -51 70 -92 73 -98 70 -94 153 -172
68 -63 184 -148 203 -148 5 0 15 -6 22 -13 16 -16 145 -67 243 -95 140 -42
353 -52 520 -26 35 6 38 5 27 -8 -7 -9 -34 -23 -60 -33 -120 -45 -271 -138
-342 -210 -25 -25 -50 -42 -54 -38 -5 4 -6 3 -3 -3 3 -6 -18 -35 -47 -65 -56
-57 -159 -200 -170 -237 -4 -12 -12 -22 -17 -22 -6 0 -8 -4 -4 -9 3 -5 1 -12
-4 -16 -11 -6 -49 -86 -88 -185 -14 -36 -31 -68 -37 -72 -6 -4 -8 -8 -4 -8 4
0 1 -17 -7 -37 -8 -21 -26 -83 -40 -138 -14 -55 -29 -107 -32 -115 -3 -8 -7
-24 -9 -35 -1 -11 -14 -85 -28 -165 -35 -202 -50 -435 -42 -675 10 -306 44
-569 140 -1062 94 -481 95 -676 8 -1028 -17 -66 -36 -154 -43 -195 -17 -97
-17 -344 0 -440 16 -87 62 -232 95 -299 13 -25 21 -52 18 -60 -2 -8 0 -11 6
-7 5 3 17 -12 26 -34 9 -22 21 -40 27 -40 5 0 7 -4 4 -10 -3 -5 -2 -10 4 -10
6 0 17 -12 25 -27 20 -36 126 -147 191 -199 155 -125 366 -224 607 -284 46
-12 92 -25 103 -30 11 -5 27 -8 35 -8 8 0 87 -10 175 -23 139 -21 196 -24 435
-24 387 1 620 34 926 134 153 50 330 143 400 209 8 7 14 12 14 9 0 -14 150
148 180 195 21 31 40 54 44 51 3 -4 6 -2 6 4 0 8 205 -35 250 -54 8 -3 24 -7
35 -8 11 -2 47 -10 80 -18 169 -43 610 -109 915 -136 63 -6 138 -13 165 -16
28 -3 199 -8 380 -11 253 -5 384 -2 560 10 309 22 547 50 775 92 74 14 158 29
185 34 28 4 76 15 108 24 32 9 63 14 68 10 5 -3 9 -1 9 4 0 4 33 16 73 26 39
10 77 20 84 22 6 3 25 -14 41 -38 16 -24 48 -63 71 -87 22 -24 41 -48 41 -53
0 -5 4 -7 9 -4 4 3 17 -4 27 -15 56 -62 271 -186 404 -234 195 -70 457 -122
727 -145 191 -17 544 -8 728 19 443 63 823 224 1015 428 87 93 110 120 110
128 0 3 11 21 25 39 34 45 108 206 134 295 51 170 64 373 36 560 -8 54 -17
105 -20 112 -2 8 -7 25 -9 39 -3 14 -15 63 -26 110 -55 231 -55 230 -55 425 0
112 5 215 12 250 7 33 19 101 27 150 9 50 31 167 50 260 55 273 90 467 105
590 48 377 45 699 -9 1055 -15 99 -25 148 -48 230 -11 41 -33 120 -47 175 -15
55 -31 105 -36 111 -16 19 -143 279 -141 287 1 5 -1 6 -5 4 -9 -6 -139 181
-136 194 2 5 0 8 -5 7 -9 -3 -146 131 -159 157 -14 28 12 107 92 275 42 87 67
153 70 185 7 60 43 195 57 213 6 6 8 12 5 12 -2 0 8 41 24 91 39 125 65 375
68 648 2 182 -24 460 -55 591 -36 152 -64 287 -64 310 0 14 -10 61 -21 105
-11 44 -22 85 -23 90 -8 30 -43 145 -77 255 -38 118 -71 227 -84 278 -4 12
-10 22 -15 22 -5 0 -16 17 -26 38 -9 20 -25 54 -36 74 -10 21 -17 42 -14 47 3
5 -1 14 -9 21 -8 7 -15 16 -15 20 0 5 -18 48 -41 97 -22 48 -51 111 -64 138
-12 28 -35 77 -51 110 -15 33 -27 62 -25 64 1 2 -2 7 -7 10 -11 7 -132 248
-132 263 0 5 10 23 21 40 104 145 143 349 104 544 -33 166 -98 297 -216 435
l-48 56 20 22 c12 12 26 20 32 17 7 -3 50 -17 97 -31 47 -15 153 -49 235 -77
198 -65 232 -71 256 -47 26 26 24 54 -5 77 -14 10 -132 54 -263 97 -131 42
-242 82 -248 87 -10 9 31 98 46 98 5 0 9 6 9 13 0 7 22 63 49 123 53 117 115
293 126 359 12 63 15 65 113 43 48 -10 101 -23 118 -28 17 -6 39 -10 50 -10
10 0 73 -14 139 -31 166 -43 185 -46 202 -23 24 33 16 68 -19 86 -38 18 -33
16 -318 88 -19 5 -51 12 -70 15 -19 4 -53 11 -75 16 -22 5 -51 12 -65 15 -13
3 -26 7 -28 8 -1 2 6 59 17 127 37 225 41 253 51 394 5 78 10 151 10 164 0 24
1 24 84 18 94 -8 328 -51 395 -73 72 -24 129 -26 141 -4 16 30 11 59 -12 74
-27 17 -105 44 -168 57 -25 6 -65 15 -90 20 -56 13 -146 26 -230 34 -36 3 -74
8 -85 10 -21 4 -21 7 -17 544 5 583 -16 1313 -48 1716 -5 66 -12 156 -14 200
-37 554 -114 1172 -198 1595 -22 113 -41 212 -42 220 -3 18 -3 20 -68 260 -71
264 -155 520 -179 545 -5 5 -9 15 -9 22 0 12 -48 125 -74 173 -58 107 -84 154
-122 213 -24 37 -44 69 -44 72 0 6 -156 162 -167 167 -5 1 -46 28 -93 59 -132
86 -166 98 -335 119 -191 24 -444 -33 -676 -151 -20 -10 -39 -16 -43 -14 -3 3
-4 2 -1 -2 5 -6 -161 -103 -177 -103 -4 0 -8 -4 -8 -8 0 -4 -15 -16 -32 -26
-18 -11 -44 -28 -57 -40 -13 -12 -20 -14 -16 -6 5 8 -7 1 -26 -17 -42 -39
-154 -133 -182 -153 -11 -8 -80 -75 -155 -150 -74 -74 -139 -134 -144 -132 -5
1 -7 -2 -4 -7 5 -8 -43 -71 -98 -127 -6 -6 -22 -26 -36 -44 -14 -18 -40 -51
-58 -73 -18 -22 -37 -48 -43 -59 -5 -10 -14 -16 -20 -13 -5 4 -8 2 -7 -3 2 -5
-5 -20 -15 -33 -9 -13 -32 -45 -51 -71 -18 -26 -37 -44 -42 -40 -5 4 -6 3 -2
-2 7 -9 -128 -214 -164 -249 -10 -10 -18 -22 -18 -28 0 -5 -8 -22 -18 -37 -39
-56 -141 -219 -168 -267 -15 -27 -31 -52 -34 -55 -3 -3 -16 -26 -29 -52 -14
-26 -29 -44 -34 -41 -6 3 -7 1 -3 -6 4 -6 3 -17 -2 -24 -12 -15 -120 -212
-177 -322 l-42 -80 -434 -3 c-239 -1 -443 0 -454 2 -11 3 -28 20 -36 38 -39
78 -124 235 -209 383 -101 176 -117 202 -150 258 -12 20 -19 37 -16 37 3 0 -3
9 -14 20 -10 10 -28 36 -39 57 -10 21 -73 118 -140 217 -66 98 -118 183 -114
189 3 5 2 7 -4 4 -6 -4 -25 15 -44 41 -18 26 -57 77 -87 114 -29 37 -51 72
-47 78 4 6 2 9 -4 8 -5 -2 -29 20 -52 47 -110 133 -143 169 -264 290 -186 184
-245 235 -412 350 -262 180 -444 258 -703 301 -102 16 -178 16 -283 -2z m295
-158 c100 -19 218 -56 218 -68 0 -5 4 -7 10 -3 5 3 17 1 27 -4 10 -5 66 -33
126 -62 59 -29 107 -56 107 -61 0 -4 6 -8 13 -8 15 0 167 -104 257 -176 96
-76 130 -109 130 -124 0 -7 3 -11 6 -7 9 9 54 -35 47 -46 -3 -6 -1 -7 4 -4 13
8 36 -17 25 -28 -4 -5 -2 -5 4 -2 12 7 57 -35 49 -46 -3 -4 -2 -5 2 -2 10 8
33 -16 26 -28 -3 -5 -2 -7 4 -4 9 6 41 -26 153 -155 17 -21 29 -38 25 -38 -4
0 2 -8 13 -17 51 -45 342 -446 342 -472 0 -6 5 -11 11 -11 5 0 7 -4 4 -10 -3
-5 -2 -10 4 -10 5 0 27 -28 48 -62 20 -35 52 -85 70 -112 18 -27 29 -54 26
-60 -3 -6 -3 -8 2 -4 10 10 101 -138 227 -372 17 -30 34 -59 38 -65 7 -9 31
-53 111 -202 16 -29 26 -53 24 -53 -2 0 7 -12 20 -26 14 -15 22 -30 20 -35 -3
-4 4 -10 15 -14 11 -4 17 -11 14 -17 -4 -6 -2 -8 3 -5 6 4 27 0 47 -8 30 -13
108 -15 478 -15 475 0 529 5 568 50 10 12 24 19 29 15 7 -3 8 0 5 9 -3 8 4 29
16 46 12 16 18 30 14 30 -3 0 -2 6 3 13 6 6 26 42 47 80 82 153 110 204 131
237 11 19 32 57 45 83 14 26 32 56 40 65 8 9 22 31 30 47 18 38 42 77 114 188
125 194 168 257 191 279 14 13 25 28 25 34 0 19 77 114 86 106 5 -4 6 -3 2 2
-9 11 41 84 90 134 20 20 30 32 22 27 -18 -11 61 85 110 134 19 19 28 30 20
26 -19 -11 48 62 178 195 57 58 108 104 113 103 5 -2 8 1 6 5 -3 14 268 242
287 242 3 0 35 20 71 46 36 25 70 42 75 39 6 -4 13 1 16 9 3 9 15 16 26 16 10
0 17 4 14 8 -6 11 162 94 175 87 5 -4 9 -2 9 4 0 10 125 52 220 73 84 19 273
15 345 -6 72 -21 155 -56 155 -65 0 -3 13 -12 29 -19 30 -13 158 -122 144
-122 -4 0 2 -7 14 -15 34 -24 95 -113 87 -127 -4 -7 -3 -9 1 -5 15 13 119
-177 180 -328 15 -38 35 -88 45 -110 46 -107 141 -420 185 -610 9 -38 20 -88
25 -110 8 -35 19 -91 59 -310 5 -27 14 -80 20 -117 6 -38 16 -96 21 -130 29
-183 65 -475 99 -818 48 -478 95 -1470 89 -1904 l-3 -238 -130 -57 c-71 -31
-193 -82 -270 -113 -178 -71 -179 -71 -187 -70 -5 1 -8 -2 -8 -7 0 -5 -12 -12
-27 -16 -16 -3 -51 -17 -80 -31 -64 -30 -80 -30 -195 0 -137 35 -280 63 -393
76 -55 6 -134 16 -175 23 -102 16 -1020 16 -1140 -1 -198 -27 -330 -36 -343
-22 -10 10 -8 12 5 7 10 -4 17 -2 15 2 -2 9 86 91 97 91 3 0 23 16 43 35 20
19 41 35 46 35 5 0 39 32 77 70 38 39 71 70 73 70 2 0 40 35 83 78 136 132
217 208 208 192 -4 -8 9 2 29 23 22 24 41 36 48 31 7 -4 9 -3 6 3 -13 21 128
79 212 88 65 6 133 -9 346 -76 159 -50 269 -79 370 -99 61 -11 129 -25 152
-30 58 -14 61 -13 87 15 33 36 24 58 -48 109 -85 60 -285 186 -296 186 -6 0
-10 5 -10 11 0 5 -4 7 -10 4 -5 -3 -10 -1 -10 6 0 7 -3 10 -6 7 -3 -3 -63 21
-134 53 -71 32 -134 59 -140 59 -5 0 -18 4 -28 10 -9 5 -57 22 -107 36 -122
36 -316 45 -396 19 -82 -27 -159 -69 -235 -127 -82 -62 -63 -45 -220 -198
-176 -171 -304 -286 -316 -282 -5 1 -7 -1 -4 -6 16 -26 -385 -320 -421 -310
-4 1 -19 -4 -33 -12 -20 -11 -118 -38 -227 -63 -49 -12 -89 -103 -80 -182 l5
-46 -47 -24 c-53 -27 -101 -67 -101 -84 0 -6 -4 -11 -10 -11 -5 0 -9 -3 -9 -7
1 -5 1 -19 0 -32 -1 -23 -3 -23 -48 -17 -27 4 -73 11 -103 17 -30 5 -116 12
-190 16 -129 5 -164 2 -373 -34 -24 -4 -29 0 -41 29 -8 18 -14 37 -15 41 -1
14 -27 34 -97 74 l-69 39 -1 64 c-1 123 -40 162 -192 194 -37 8 -89 24 -117
37 -27 12 -52 23 -55 23 -16 4 -90 51 -90 58 0 5 -4 7 -9 4 -14 -9 -136 81
-281 208 -50 44 -358 334 -405 382 -48 49 -156 137 -210 171 -106 66 -194 93
-310 93 -137 0 -295 -40 -473 -121 -34 -15 -65 -28 -67 -28 -6 -1 -137 -67
-207 -104 -26 -14 -60 -34 -76 -46 -17 -11 -33 -21 -37 -21 -11 0 -168 -110
-182 -128 -7 -9 -13 -28 -13 -42 0 -37 37 -53 93 -41 23 6 60 12 82 15 57 7
162 31 241 55 38 11 78 22 89 23 11 2 25 6 30 10 11 6 215 70 300 94 152 42
315 -15 475 -168 13 -12 42 -38 65 -57 103 -86 245 -226 241 -238 -3 -7 1 -10
8 -7 14 5 60 -30 129 -97 20 -21 37 -35 37 -31 0 3 17 -10 38 -29 20 -20 57
-50 81 -67 l45 -32 -70 5 c-38 2 -116 9 -174 14 -530 50 -1312 32 -1625 -38
-127 -29 -152 -33 -167 -34 -10 -1 -18 -4 -18 -8 0 -7 -139 -34 -160 -30 -15
3 -129 51 -184 77 -16 8 -34 14 -39 14 -6 0 -29 8 -51 19 -23 10 -61 26 -86
36 -25 9 -58 23 -75 30 -16 8 -59 26 -95 40 -36 15 -88 38 -116 51 -28 13 -55
24 -60 24 -5 0 -20 9 -33 19 l-24 18 12 404 c11 393 21 621 41 919 5 80 15
217 20 305 13 183 45 559 60 685 6 47 19 164 30 260 12 96 25 200 30 230 5 30
14 87 20 125 32 201 104 553 138 680 11 39 33 122 50 186 18 63 39 133 48 154
9 21 17 46 19 54 6 33 89 249 123 321 19 41 36 81 38 88 1 8 14 31 28 53 14
21 26 43 26 49 0 5 5 10 11 10 5 0 8 4 4 9 -3 5 1 16 9 23 7 8 20 27 29 43 8
17 27 43 41 58 14 15 26 32 26 36 0 4 31 41 69 81 46 49 72 70 81 65 8 -5 11
-4 7 2 -13 21 122 121 144 107 7 -4 9 -3 6 3 -9 15 52 42 153 69 101 27 223
31 332 10z m-1139 -5455 c38 -18 88 -41 110 -50 140 -61 177 -83 177 -105 0
-23 31 -53 88 -87 18 -10 32 -25 31 -32 -2 -6 3 -32 10 -56 7 -23 10 -46 7
-49 -3 -3 -6 1 -6 9 0 11 -2 11 -8 1 -7 -10 -34 -7 -128 12 -168 34 -520 68
-636 60 -32 -2 -60 1 -63 7 -12 19 -26 459 -15 479 10 18 21 14 188 -69 97
-48 208 -102 245 -120z m8167 -28 c0 -144 -4 -234 -10 -238 -6 -3 -56 -8 -113
-10 -211 -9 -433 -37 -657 -83 -52 -11 -98 -18 -102 -16 -4 3 -1 25 7 50 15
51 15 50 15 64 0 14 59 42 73 34 7 -4 9 -4 5 0 -3 4 5 24 18 43 13 20 24 39
24 43 0 7 121 70 135 70 3 0 23 11 44 24 21 14 47 26 57 28 10 2 21 6 24 10
10 13 442 214 461 214 18 0 19 -11 19 -233z m-6119 90 c380 -18 376 -18 332
-65 -36 -38 -57 -115 -57 -208 0 -72 4 -94 26 -140 34 -70 76 -113 143 -144
81 -39 147 -43 239 -16 42 13 76 28 76 33 0 6 3 8 6 4 6 -5 22 10 71 67 37 42
64 139 62 218 -1 38 -6 71 -11 74 -4 3 -8 16 -8 30 0 31 16 31 144 -2 117 -30
200 -75 217 -116 17 -42 -11 -206 -32 -192 -5 3 -6 -1 -3 -9 5 -15 -89 -242
-112 -268 -8 -9 -12 -18 -9 -21 3 -3 -1 -11 -10 -18 -8 -7 -15 -18 -15 -24 0
-7 -8 -21 -17 -32 -10 -10 -25 -32 -33 -49 -21 -43 -179 -199 -226 -223 -194
-99 -484 -138 -954 -129 -151 3 -304 8 -340 11 -118 11 -244 28 -305 43 -33 8
-75 17 -93 20 -18 3 -35 9 -38 14 -3 5 -14 9 -26 9 -68 0 -307 211 -283 250 4
6 1 9 -6 8 -18 -5 -110 178 -148 294 -46 143 -51 161 -51 189 0 14 -4 29 -9
34 -12 12 -22 149 -14 188 7 34 67 102 83 92 5 -3 10 -3 10 2 0 13 71 32 177
47 324 48 668 56 1214 29z m4439 7 c278 -19 510 -49 535 -70 7 -6 15 -7 18 -4
13 13 76 -47 88 -83 19 -59 5 -191 -36 -333 -20 -69 -40 -126 -45 -128 -5 -2
-6 -10 -3 -19 5 -12 3 -14 -7 -8 -9 5 -11 4 -6 -3 8 -14 -60 -162 -111 -241
-51 -78 -102 -131 -122 -124 -12 4 -13 3 -3 -5 10 -7 5 -16 -25 -39 -49 -39
-114 -74 -125 -67 -4 3 -8 0 -8 -5 0 -6 -9 -11 -19 -11 -11 0 -22 -4 -25 -9
-3 -5 -18 -11 -33 -14 -16 -4 -50 -11 -78 -16 -102 -21 -234 -39 -375 -51
-219 -19 -733 -5 -900 25 -128 22 -161 29 -215 47 -178 60 -294 166 -407 371
-21 39 -38 76 -38 83 0 8 -4 14 -9 14 -7 0 -69 134 -76 165 -1 6 -5 17 -8 25
-53 130 -59 204 -21 250 25 29 84 68 84 54 0 -4 6 -1 14 5 15 13 109 39 169
48 37 5 38 5 30 -24 -4 -15 -7 -59 -7 -98 1 -79 28 -144 86 -211 45 -51 139
-94 203 -94 59 0 155 23 189 45 12 8 26 12 31 8 4 -5 4 -2 0 6 -6 11 -4 13 9
8 9 -4 15 -3 12 1 -3 5 6 21 19 36 52 61 70 114 70 211 0 82 -3 95 -33 154
-18 35 -31 65 -29 67 4 5 245 21 427 29 80 4 147 8 149 11 8 8 489 4 631 -6z
m-2493 -396 c64 -4 157 -27 222 -54 47 -21 49 -23 81 -108 44 -118 108 -248
176 -362 31 -52 57 -101 57 -107 0 -7 2 -11 5 -8 2 2 9 -2 16 -9 6 -7 29 -32
51 -56 22 -23 35 -40 29 -37 -6 3 -11 0 -11 -7 0 -8 5 -12 12 -10 6 3 31 -11
55 -30 66 -51 190 -113 273 -136 218 -61 375 -75 842 -74 376 1 388 1 635 39
95 14 249 60 298 88 17 10 32 16 32 13 0 -3 16 6 36 19 20 14 41 22 47 18 6
-3 7 -1 3 5 -7 11 6 17 27 13 5 -1 6 2 3 7 -3 5 24 35 59 68 36 32 65 62 65
65 0 4 21 37 47 75 55 82 125 228 163 339 23 67 31 81 51 83 13 2 69 14 124
27 196 46 581 90 691 79 l64 -7 0 -61 c0 -122 -44 -487 -71 -589 l-10 -37 -57
6 c-31 3 -70 9 -87 13 -16 4 -59 9 -95 10 -35 1 -68 5 -72 7 -11 7 -234 25
-391 31 -151 6 -167 1 -167 -48 0 -44 30 -56 155 -63 61 -3 130 -8 155 -10 25
-3 79 -7 120 -11 134 -10 174 -14 255 -26 103 -15 155 -28 155 -38 0 -24 -62
-219 -99 -309 -43 -108 -109 -238 -139 -276 -18 -24 -60 -27 -111 -7 -14 5
-105 33 -201 61 -96 29 -219 67 -273 86 l-97 33 -33 -29 -32 -28 20 -27 c21
-29 12 -25 406 -150 167 -52 216 -71 215 -84 -1 -17 -20 -43 -78 -105 -21 -21
-38 -42 -38 -46 0 -4 -46 -49 -102 -100 -97 -86 -263 -205 -325 -232 -15 -7
-30 -15 -33 -19 -9 -11 -74 -40 -200 -91 -183 -73 -297 -111 -465 -152 -82
-21 -184 -46 -225 -56 -109 -28 -454 -93 -577 -109 -37 -5 -131 -19 -208 -30
-870 -127 -2278 -127 -3210 -1 -261 36 -741 124 -761 141 -6 5 -13 7 -16 4 -3
-3 -43 5 -89 19 -46 13 -97 26 -114 30 -62 13 -324 99 -321 105 2 3 -7 7 -20
7 -13 1 -43 11 -66 22 -24 11 -86 39 -138 64 -98 45 -202 103 -255 141 -118
86 -189 144 -245 204 -66 70 -142 159 -148 174 -4 10 2 13 178 79 74 28 144
55 155 60 11 5 72 28 135 51 126 46 150 61 150 95 0 42 -57 72 -86 45 -8 -8
-112 -49 -144 -57 -8 -2 -46 -15 -85 -30 -161 -61 -348 -123 -356 -118 -5 3
-9 1 -9 -5 0 -20 -29 1 -45 32 -34 64 -52 96 -69 123 -10 14 -19 32 -21 38 -1
6 -16 43 -34 81 -36 77 -81 208 -81 234 0 9 -5 22 -10 27 -6 6 -12 28 -13 49
l-2 38 63 13 c160 33 347 60 519 74 203 17 216 20 227 53 21 60 -19 77 -149
65 -125 -12 -344 -38 -410 -49 -78 -12 -199 -29 -251 -36 l-41 -5 -16 94 c-33
194 -48 299 -57 404 -6 60 -13 131 -15 157 l-6 48 153 -2 c223 -3 365 -19 578
-64 36 -8 82 -17 103 -21 38 -6 67 -41 67 -80 0 -29 90 -223 137 -297 26 -40
46 -78 46 -84 0 -7 2 -11 5 -8 4 4 43 -39 43 -49 0 -10 84 -91 91 -89 4 2 10
-3 15 -10 31 -53 224 -131 409 -165 197 -38 342 -47 724 -47 364 1 452 6 640
41 131 25 329 97 352 129 5 7 8 7 8 0 0 -5 7 -1 15 9 8 11 15 16 15 12 0 -5 9
3 21 18 11 14 27 26 35 26 8 0 14 3 14 8 1 4 21 30 46 57 25 28 63 76 84 107
21 31 41 55 44 52 3 -2 4 -1 1 3 -3 3 14 40 37 82 62 114 101 196 138 293 17
48 39 89 47 92 9 4 12 1 8 -7 -4 -6 2 -2 12 9 10 12 29 24 43 27 14 3 52 13
84 22 91 25 173 34 261 28 44 -3 104 -7 132 -9z m-5207 -1673 c0 -4 15 -24 33
-45 30 -33 47 -73 25 -60 -5 3 -6 10 -3 15 4 5 2 9 -3 9 -6 0 -29 22 -51 49
-32 38 -37 48 -21 44 11 -3 20 -8 20 -12z m288 -198 c13 -15 21 -35 19 -44 -2
-9 1 -16 8 -15 13 1 60 -56 162 -193 53 -71 61 -87 50 -100 -10 -14 -10 -14 4
-3 14 10 26 -1 90 -89 41 -55 73 -105 71 -110 -1 -5 2 -9 8 -9 5 0 10 -7 10
-16 0 -8 4 -13 9 -10 10 7 81 -84 81 -103 0 -6 4 -11 8 -11 4 0 39 -41 77 -91
39 -50 94 -121 123 -157 28 -37 52 -70 52 -75 0 -5 17 -30 38 -56 22 -25 55
-71 75 -101 20 -30 43 -62 50 -70 8 -8 22 -27 32 -42 14 -23 15 -28 3 -28 -20
0 -54 27 -45 36 4 4 14 -1 23 -12 14 -18 15 -18 4 4 -7 14 -17 21 -26 18 -9
-3 -24 10 -41 37 -16 23 -30 44 -34 47 -20 18 -69 102 -64 111 4 6 1 9 -8 7
-18 -4 -129 132 -122 149 2 7 -1 12 -7 10 -6 -1 -50 50 -98 113 -70 91 -87
120 -83 140 3 18 -2 31 -19 45 -23 20 -23 20 -7 0 19 -24 23 -64 4 -43 -57 65
-305 410 -300 418 4 6 2 9 -3 8 -11 -3 -69 68 -152 187 -48 69 -55 83 -37 79
11 -2 32 -16 45 -31z m8804 -1091 c15 -29 25 -52 22 -52 -2 0 3 -9 13 -19 26
-28 148 -285 254 -533 153 -361 261 -705 329 -1053 5 -27 14 -72 19 -100 50
-248 71 -735 42 -970 -18 -151 -67 -380 -105 -491 -74 -215 -128 -346 -172
-422 -15 -26 -37 -65 -49 -87 -12 -22 -30 -56 -42 -75 -11 -19 -31 -53 -44
-75 -13 -22 -41 -64 -64 -94 -22 -29 -47 -65 -57 -78 -33 -51 -91 -112 -99
-107 -5 3 -8 2 -7 -3 6 -21 -105 -161 -123 -156 -5 2 -8 -1 -6 -6 4 -14 -163
-172 -175 -165 -6 4 -8 3 -5 -3 8 -13 -63 -80 -99 -93 -13 -5 -24 -17 -24 -25
0 -9 -4 -13 -10 -10 -5 3 -10 1 -10 -5 0 -6 -5 -8 -12 -4 -7 4 -8 3 -4 -4 4
-6 -4 -16 -16 -23 -13 -7 -25 -15 -28 -19 -20 -26 -303 -223 -395 -274 -16 -9
-52 -31 -80 -48 -51 -31 -247 -131 -365 -186 -228 -105 -590 -219 -800 -251
-36 -5 -101 -16 -145 -23 -52 -8 -167 -13 -330 -12 -266 1 -344 11 -500 66
-131 45 -324 165 -309 190 4 6 3 8 -4 4 -20 -12 -111 93 -181 212 -28 48 -45
88 -21 52 8 -13 10 -13 10 2 0 17 22 16 65 -2 11 -5 74 -18 140 -29 147 -26
388 -28 514 -6 91 16 107 24 113 58 9 46 -10 50 -170 37 -147 -12 -343 -8
-412 10 -19 5 -62 14 -95 21 -62 12 -197 54 -226 70 -43 22 -72 164 -73 349
-1 176 14 266 43 254 58 -25 265 -65 388 -76 130 -10 300 -4 418 15 29 5 53
52 39 74 -10 16 -34 18 -265 19 -234 1 -263 3 -369 27 -166 37 -196 48 -192
72 7 42 94 202 133 245 23 25 38 39 34 31 -6 -9 -4 -12 3 -7 7 4 12 13 12 20
0 14 102 96 119 96 5 0 11 4 13 9 6 15 172 88 238 104 89 21 222 44 300 51
150 15 340 63 384 97 34 27 34 62 -1 89 -23 18 -37 21 -75 17 -25 -3 -55 -11
-66 -18 -37 -23 -52 3 -52 90 0 85 6 101 41 106 347 51 523 97 728 191 41 19
80 34 87 34 8 0 14 5 14 10 0 6 5 10 10 10 6 0 28 11 50 25 22 14 40 23 40 20
0 -3 6 -1 13 5 35 30 158 101 166 96 5 -4 13 -1 17 5 5 8 3 9 -6 4 -9 -5 -11
-4 -6 3 4 7 13 12 21 12 7 0 16 7 19 16 4 9 9 14 13 10 3 -3 12 3 20 14 8 11
20 20 26 20 7 0 28 15 48 33 20 17 65 57 100 87 34 30 73 65 85 78 13 12 28
22 33 22 6 0 16 10 22 23 7 12 34 46 61 75 51 57 62 97 32 126 -31 32 -65 19
-139 -52 -39 -37 -104 -95 -145 -130 -98 -82 -100 -84 -100 -78 0 3 -15 -9
-32 -25 -45 -42 -88 -72 -88 -62 0 4 -4 3 -8 -2 -12 -18 -84 -70 -137 -100
-130 -73 -155 -86 -155 -78 0 4 -4 3 -8 -2 -8 -12 -113 -67 -157 -83 -16 -6
-60 -22 -97 -37 -38 -14 -87 -30 -110 -35 -24 -5 -68 -16 -98 -25 -53 -15
-337 -65 -371 -65 -35 0 -66 82 -96 250 -8 47 -26 144 -40 215 -13 72 -27 144
-30 160 -3 17 -21 56 -40 87 -46 75 -94 103 -201 118 -47 7 -82 17 -82 24 0
17 -71 89 -111 113 -32 18 -42 19 -87 11 -52 -11 -66 -22 -157 -130 -23 -27
-63 -23 -75 7 -6 14 -15 37 -22 53 -6 15 -11 31 -9 35 1 5 -3 6 -8 3 -5 -4
-16 0 -23 8 -20 20 -90 29 -131 18 -20 -6 -70 -40 -111 -76 -50 -44 -84 -66
-101 -66 -22 0 -25 4 -25 40 0 60 -41 101 -106 107 -66 7 -117 -19 -163 -81
-36 -48 -39 -50 -81 -46 -34 3 -50 18 -50 48 0 49 -79 89 -154 78 -45 -7 -139
-74 -151 -108 -5 -15 -18 -18 -66 -18 -42 0 -59 4 -58 13 4 35 -3 60 -25 82
-13 13 -21 27 -18 30 4 3 -1 3 -9 0 -9 -3 -26 -2 -40 3 -40 15 -112 -12 -148
-56 -66 -79 -72 -83 -104 -80 -25 2 -36 12 -57 48 -34 58 -81 90 -132 90 -52
0 -88 -20 -151 -84 -44 -45 -60 -55 -99 -60 -65 -10 -103 -39 -162 -124 -28
-40 -77 -93 -109 -118 -103 -80 -115 -143 -72 -349 33 -157 132 -612 150 -695
8 -36 40 -180 70 -320 31 -140 60 -273 65 -295 5 -22 39 -173 74 -335 36 -162
81 -367 100 -455 19 -88 49 -225 66 -305 32 -153 49 -207 80 -251 11 -14 16
-30 12 -34 -4 -5 -2 -5 5 -2 6 4 13 4 15 -1 1 -4 17 -18 34 -30 72 -50 81 -50
1094 -55 l945 -4 90 -33 c178 -64 318 -83 605 -81 191 1 270 6 330 22 54 14
82 11 105 -11 l22 -21 17 26 c17 26 36 26 36 0 0 -7 -11 -27 -25 -43 -26 -31
-33 -66 -15 -77 19 -12 10 -25 -18 -25 -34 0 -52 -16 -52 -47 0 -23 33 -49 50
-38 15 9 22 -14 15 -53 -4 -27 -14 -42 -35 -54 -37 -21 -39 -54 -5 -70 21 -9
25 -18 25 -56 0 -29 -7 -53 -20 -69 -24 -31 -25 -51 -4 -74 21 -24 11 -37 -24
-31 -23 3 -30 -1 -40 -23 -17 -37 6 -65 47 -59 l27 5 -4 -63 c-2 -35 -10 -70
-17 -78 -25 -31 -26 -52 -3 -77 13 -14 19 -24 13 -23 -62 13 -93 -12 -80 -63
6 -22 10 -24 42 -17 28 7 33 5 29 -6 -3 -8 -2 -14 3 -14 4 0 8 -22 10 -49 2
-44 -1 -52 -24 -67 -30 -19 -32 -47 -7 -79 24 -30 27 -97 6 -137 -10 -20 -14
-44 -11 -65 5 -26 2 -35 -11 -39 -51 -16 -61 -40 -32 -77 18 -23 18 -23 -12
-25 -42 -3 -48 -9 -48 -42 0 -19 7 -33 20 -40 11 -6 20 -21 20 -35 0 -30 -17
-41 -25 -16 -13 41 -70 37 -86 -7 -9 -22 -7 -30 11 -44 16 -13 27 -15 46 -8
14 6 27 10 30 10 3 0 -18 -43 -46 -95 -27 -53 -50 -103 -50 -113 0 -23 -19
-42 -41 -42 -9 0 -22 -7 -29 -15 -12 -15 -10 -26 12 -56 6 -9 8 -24 5 -33 -6
-14 -11 -15 -28 -6 -25 14 -65 6 -72 -14 -12 -30 4 -56 34 -56 34 0 37 -10 9
-35 -16 -14 -19 -27 -16 -61 4 -43 4 -43 -24 -38 -22 5 -31 1 -39 -14 -17 -32
-13 -42 19 -54 29 -9 30 -13 29 -60 -2 -32 -8 -56 -19 -67 -29 -28 -32 -52
-10 -76 22 -23 35 -65 20 -65 -4 0 -10 7 -14 15 -8 21 -72 20 -80 -1 -13 -34
-6 -65 17 -73 29 -11 39 -6 60 27 l16 27 1 -31 c0 -18 -8 -38 -20 -49 -32 -29
-26 -70 15 -95 36 -22 37 -26 20 -90 -5 -20 0 -31 19 -48 15 -12 26 -31 26
-42 0 -28 -17 -25 -24 4 -14 55 -86 34 -86 -26 0 -15 -2 -28 -4 -28 -2 0 -11
-3 -20 -6 -12 -5 -15 1 -14 30 1 26 -5 41 -21 55 -22 19 -23 19 -47 -2 -26
-22 -32 -64 -11 -73 8 -3 14 -11 14 -20 0 -11 -8 -13 -31 -9 -24 5 -38 0 -60
-20 -16 -14 -31 -25 -33 -25 -2 0 -17 9 -32 21 -34 25 -63 19 -79 -16 -14 -31
-40 -32 -44 -3 -2 15 -11 24 -26 26 -18 3 -23 -2 -29 -28 -3 -18 -11 -34 -17
-36 -34 -12 -318 -49 -501 -65 -508 -44 -1191 -19 -1700 62 -38 6 -81 11 -94
11 -15 0 -29 10 -40 29 -22 39 -48 46 -73 19 l-20 -22 -29 32 -29 31 -33 -20
c-21 -12 -37 -17 -47 -11 -8 4 -44 13 -80 19 -118 21 -111 16 -104 61 l7 40
-40 0 c-42 0 -63 -14 -63 -42 0 -10 -4 -18 -9 -18 -14 0 -32 26 -23 34 11 11
-28 36 -56 36 -21 0 -23 3 -18 26 4 15 10 39 13 55 3 16 16 38 29 48 13 10 28
30 33 44 8 21 6 30 -15 52 -31 33 -34 65 -3 36 23 -21 66 -21 80 0 12 20 11
59 -2 59 -5 0 -8 3 -6 7 3 5 -9 9 -25 10 -21 2 -36 -5 -49 -20 l-19 -22 6 30
c4 17 19 46 33 65 14 19 21 32 17 28 -16 -14 -49 44 -54 93 -4 44 -1 52 22 74
42 39 32 79 -21 80 -31 0 -35 8 -22 44 9 27 8 35 -6 51 -19 21 -14 25 26 21
23 -2 51 34 47 61 -2 17 -10 24 -33 26 -16 1 -36 -2 -43 -6 -17 -12 -22 -43
-9 -59 7 -9 5 -13 -6 -13 -17 0 -28 21 -33 65 -3 25 1 33 27 47 22 13 29 24
27 39 -4 32 -33 47 -58 31 -26 -16 -37 -15 -37 3 0 8 4 15 8 15 13 0 22 61 10
73 -5 5 -21 11 -33 13 -13 1 -26 3 -30 3 -5 1 -8 12 -8 27 0 14 -11 42 -25 62
-14 20 -25 41 -25 47 0 5 -11 33 -25 60 -17 35 -19 44 -7 29 14 -16 23 -19 35
-12 9 5 17 6 17 2 0 -4 7 1 15 12 20 26 19 62 -3 72 -29 14 -46 8 -61 -22 -12
-25 -15 -27 -23 -12 -11 20 -7 57 7 57 15 0 36 45 29 63 -3 9 -24 21 -46 27
-29 7 -38 14 -34 26 19 47 17 63 -7 92 -34 41 -35 100 -1 132 33 31 31 60 -6
81 -26 15 -30 23 -30 61 0 35 6 49 30 72 38 37 38 58 -1 86 -29 21 -31 25 -26
72 3 40 10 54 31 70 34 24 33 41 -4 74 -25 21 -30 34 -30 69 0 35 5 47 24 59
14 9 29 29 34 45 10 26 8 30 -24 45 -33 15 -34 18 -34 70 0 50 2 55 26 61 30
8 46 41 31 69 -5 11 -6 17 -2 12 11 -10 65 72 65 99 0 32 -23 57 -47 50 -20
-6 -33 -42 -33 -92 0 -23 -36 -57 -52 -48 -13 8 -9 44 9 75 16 28 16 29 -7 54
-30 32 -16 51 35 46 25 -2 37 2 41 13 20 53 -42 96 -72 51 -8 -13 -14 -31 -12
-41 2 -9 -3 -19 -10 -21 -10 -4 -12 8 -10 48 2 30 8 53 13 52 6 -1 16 10 24
24 12 24 12 28 -9 45 -12 10 -28 18 -35 18 -8 0 -15 18 -18 47 -5 54 -10 73
-19 89 -17 27 -12 84 10 107 37 39 25 67 -28 67 -14 0 -21 10 -25 37 -3 21
-10 51 -15 68 -9 26 -7 32 12 47 19 14 21 21 12 35 -6 10 -22 20 -35 23 -21 5
-24 11 -21 51 1 35 -3 50 -18 64 -11 10 -20 31 -20 48 0 16 -9 41 -19 55 -10
15 -19 30 -20 34 -1 5 -12 33 -26 64 -14 31 -25 61 -25 66 0 6 -25 61 -55 123
-30 62 -55 117 -55 124 0 6 -4 11 -10 11 -5 0 -10 6 -10 13 0 7 -8 22 -18 33
-29 32 -72 111 -64 119 4 5 3 6 -3 3 -5 -3 -26 17 -45 45 -19 29 -41 59 -50
68 -8 8 -28 33 -45 54 -16 22 -47 57 -67 80 -29 32 -34 44 -26 58 14 26 -8 49
-41 42 -21 -4 -40 6 -98 53 -40 33 -86 65 -103 72 -28 11 -42 40 -21 40 19 0
23 41 6 60 -32 36 -85 26 -85 -16 0 -8 -6 -14 -13 -14 -18 0 -37 21 -37 40 0
29 -19 39 -56 28 -27 -7 -46 -5 -82 8 -61 22 -80 40 -64 56 15 15 16 58 1 58
-5 0 -8 4 -5 9 3 4 -9 7 -27 5 -36 -5 -57 -27 -57 -61 0 -40 -31 -23 -37 22
-4 24 -21 35 -55 35 -17 0 -31 -7 -38 -19 -12 -23 -32 -22 -58 2 -22 20 -42
21 -76 6 -14 -7 -33 -8 -43 -4 -34 15 -67 16 -90 4 -18 -10 -34 -10 -62 -3
-32 9 -45 7 -72 -7 -36 -19 -79 -25 -79 -11 0 19 117 62 168 62 33 0 54 5 56
13 3 6 7 23 10 37 4 14 27 40 53 59 40 29 47 31 55 17 12 -21 62 -21 79 0 10
12 10 22 1 48 -16 44 -17 43 28 50 37 6 40 9 46 46 5 30 13 43 33 53 15 7 30
26 36 44 6 18 23 45 37 60 14 16 31 45 36 65 6 20 19 47 31 59 19 20 26 39 22
62 0 4 4 7 10 7 5 0 7 5 4 10 -3 6 5 14 19 19 29 12 41 43 26 71 -9 17 -8 21
7 26 10 3 25 10 33 15 8 5 29 16 45 23 29 14 30 14 38 -17 5 -17 12 -26 15
-21 4 5 16 14 27 20 14 8 20 21 18 44 -1 26 6 39 30 59 63 52 132 116 132 123
0 4 14 22 30 41 17 19 53 68 80 110 28 42 53 77 57 77 4 0 40 -44 80 -97 101
-136 108 -144 148 -160 19 -9 88 -54 153 -102 64 -47 152 -110 195 -139 42
-28 103 -72 135 -97 69 -53 112 -61 148 -28 18 15 30 68 18 80 -4 5 -23 56
-43 115 -40 121 -133 376 -177 487 -16 41 -27 76 -25 79 2 2 -2 11 -9 20 -55
65 -123 167 -118 175 3 6 2 7 -3 4 -6 -3 -28 19 -49 50 -22 30 -48 64 -58 75
-18 22 -22 38 -9 38 4 0 8 8 9 18 0 9 7 53 15 97 21 124 0 400 -34 440 -4 5
-8 15 -8 23 0 48 -115 237 -192 314 -47 46 -186 148 -203 148 -23 0 -112 76
-182 156 -10 11 -36 33 -58 49 -22 16 -44 34 -50 40 -31 34 -210 130 -282 151
-38 11 -53 20 -49 29 3 9 0 12 -8 9 -8 -3 -22 8 -32 25 -11 16 -47 68 -82 115
-35 48 -61 92 -59 99 3 6 6 4 6 -7 1 -11 6 -16 15 -13 17 7 39 -16 28 -28 -4
-5 -2 -5 5 -1 7 4 37 -12 70 -37 105 -78 226 -143 433 -232 85 -36 166 -71
180 -77 14 -6 30 -12 35 -13 10 -1 288 -89 395 -126 30 -10 125 -34 210 -54
85 -20 182 -42 215 -51 33 -8 71 -17 85 -19 14 -2 54 -11 90 -20 36 -9 90 -21
120 -25 30 -5 93 -16 140 -24 221 -42 586 -88 814 -102 l109 -7 -6 -81 c-6
-91 6 -228 27 -307 19 -71 47 -153 55 -159 3 -3 17 -25 30 -50 48 -88 172
-223 256 -277 28 -18 55 -36 61 -41 21 -19 172 -73 257 -92 119 -28 274 -28
382 0 92 23 178 56 216 82 14 9 28 15 31 13 3 -3 13 4 23 15 10 11 22 20 27
20 4 0 16 8 26 18 10 9 34 31 53 48 19 17 53 51 75 77 23 25 45 43 49 39 5 -4
5 -1 1 5 -6 12 29 74 47 81 4 2 7 10 7 18 0 8 5 14 12 14 6 0 9 3 5 6 -3 4 2
23 12 43 58 115 83 247 80 416 l-3 120 175 17 c336 33 681 80 874 118 55 11
111 23 125 25 14 3 75 14 135 26 61 12 117 23 125 23 9 1 20 5 25 8 6 3 37 11
70 18 224 45 854 234 958 287 15 7 32 11 36 8 5 -3 17 2 26 11 22 22 126 64
140 57 5 -4 7 -3 3 2 -9 9 160 97 173 90 4 -3 11 0 15 6 5 8 3 9 -6 4 -9 -5
-11 -4 -6 3 4 7 11 12 17 12 5 0 45 22 89 50 44 27 80 47 80 45 0 -1 21 17 47
41 26 25 51 43 57 41 5 -2 22 -27 38 -55z m-3917 -274 c28 -6 59 -15 70 -21
11 -6 29 -12 39 -14 31 -5 155 -76 150 -85 -3 -4 2 -8 11 -8 24 0 145 -125
193 -198 42 -65 96 -208 90 -239 -7 -36 -316 -82 -603 -90 -265 -7 -386 3
-660 52 -120 21 -125 23 -125 48 1 35 44 147 81 208 48 78 149 191 166 185 8
-3 11 -1 8 4 -3 5 5 15 19 22 14 6 26 15 26 19 0 12 110 70 120 64 6 -4 10 -2
10 3 0 12 18 20 100 43 73 20 223 23 305 7z m-4005 -92 c74 -16 202 -52 228
-65 9 -5 61 -29 114 -55 53 -25 102 -54 107 -63 6 -10 11 -14 11 -10 0 4 6 3
13 -2 189 -155 275 -272 351 -482 19 -52 41 -133 50 -180 16 -86 22 -230 9
-242 -3 -4 -32 19 -64 49 -168 165 -441 318 -657 369 -39 9 -83 14 -97 11 -29
-7 -44 -49 -25 -70 6 -8 63 -31 126 -52 63 -20 114 -41 114 -46 0 -5 5 -6 10
-3 13 8 204 -93 300 -159 41 -28 104 -81 140 -117 112 -114 140 -155 140 -205
0 -101 -51 -283 -120 -422 l-50 -103 -42 40 c-67 62 -89 81 -143 120 -163 119
-425 237 -597 268 -30 6 -71 -28 -66 -54 5 -25 48 -52 113 -68 72 -19 265 -95
265 -105 0 -4 6 -7 13 -7 13 0 177 -97 217 -128 40 -32 160 -153 160 -162 0
-12 -100 -116 -140 -144 -110 -79 -209 -112 -330 -112 -86 0 -189 22 -218 45
-8 7 -17 12 -19 10 -2 -2 -17 -1 -34 3 -57 13 -95 -59 -51 -98 29 -26 167 -76
259 -93 49 -10 91 -20 94 -23 4 -3 -3 -25 -15 -48 -11 -23 -32 -62 -45 -88
-13 -25 -28 -51 -35 -58 -6 -7 -37 -47 -68 -89 -66 -88 -107 -130 -121 -121
-6 3 -7 1 -4 -4 4 -6 -9 -24 -28 -39 -193 -160 -401 -236 -637 -236 -106 1
-206 12 -248 29 -8 3 -18 6 -22 5 -4 -1 -40 10 -80 24 -100 36 -232 111 -265
152 -9 11 -12 12 -8 2 4 -8 -34 27 -84 79 -50 52 -91 99 -91 105 0 5 -9 19
-19 30 -18 20 -38 52 -87 144 -40 75 -93 243 -114 361 -30 172 -26 437 11 616
21 102 54 226 76 285 3 8 8 23 9 32 5 24 113 267 133 298 8 14 20 28 26 32 5
4 7 8 3 8 -12 0 80 150 92 150 4 0 11 11 14 25 4 14 11 25 16 25 6 0 15 12 20
26 6 15 14 22 22 18 6 -4 8 -3 5 3 -4 6 7 25 23 43 17 18 30 36 30 41 0 5 7 9
15 9 9 0 18 7 22 16 18 47 268 264 341 297 15 6 29 14 32 18 11 15 152 79 160
74 6 -4 10 -2 10 3 0 19 190 75 330 97 99 16 302 11 400 -9z m1010 -642 c0 -7
4 -14 9 -16 17 -7 81 -139 105 -220 37 -124 47 -308 17 -308 -4 0 -28 26 -53
58 l-45 57 -7 110 c-4 61 -12 130 -17 155 -21 93 -32 135 -40 145 -7 10 -12
41 -10 59 2 13 41 -25 41 -40z m2197 -101 c-3 -5 35 -7 84 -5 49 2 144 -1 211
-7 103 -9 125 -14 144 -32 13 -13 24 -34 24 -47 0 -47 24 -106 54 -133 40 -35
119 -54 182 -44 27 5 55 7 63 6 7 -1 10 2 6 8 -3 6 -2 11 3 11 5 0 22 11 37
24 24 21 29 34 33 83 5 68 14 83 64 106 32 15 66 18 238 16 110 0 203 -5 205
-10 15 -23 -44 -177 -102 -268 -43 -67 -182 -204 -200 -196 -8 2 -12 1 -9 -3
9 -14 -77 -62 -159 -88 -101 -33 -235 -42 -340 -23 -41 7 -75 17 -75 21 0 5
-6 8 -12 6 -25 -4 -148 46 -148 61 0 4 -6 8 -14 8 -22 0 -115 79 -173 149 -29
34 -53 64 -53 67 0 3 -11 22 -24 42 -13 19 -38 74 -56 122 -26 74 -29 91 -19
110 7 13 19 23 26 23 8 0 12 -3 10 -7z m-1980 -717 c13 -12 23 -26 23 -32 0
-5 14 -23 30 -39 18 -18 28 -35 25 -44 -3 -9 -3 -12 1 -8 10 9 55 -54 47 -66
-3 -6 -1 -7 5 -3 12 7 35 -27 25 -38 -3 -3 -2 -6 4 -6 5 0 10 -8 10 -17 0 -11
-13 -2 -39 28 -37 43 -49 67 -26 53 7 -4 8 -3 4 5 -4 6 -11 9 -16 6 -11 -7
-50 48 -50 70 0 9 -4 14 -9 10 -6 -3 -28 22 -51 55 -41 60 -33 72 17 26z
m2620 -239 c18 -20 18 -20 -7 -8 -24 11 -24 11 -6 -3 11 -9 23 -16 28 -16 4 0
5 -7 1 -15 -4 -12 -17 -15 -52 -13 -39 3 -46 6 -49 26 -7 48 51 68 85 29z
m-1240 -23 c12 -19 12 -24 -2 -38 -23 -22 -72 -21 -85 3 -8 16 -5 23 17 41 31
25 50 23 70 -6z m401 20 c18 -5 22 -13 20 -32 -4 -32 -28 -47 -61 -38 -30 7
-44 40 -27 61 13 16 32 18 68 9z m456 -15 c5 -5 4 -14 -3 -23 -12 -14 -29 -15
-83 -7 -12 2 -9 26 4 39 13 13 65 7 82 -9z m736 -2 c-23 -18 -25 -41 -3 -32
10 4 29 10 42 13 l24 5 -24 14 -24 14 25 -7 c14 -4 28 -12 32 -18 14 -21 -55
-55 -87 -42 -18 7 -20 52 -2 59 23 10 32 6 17 -6z m481 -8 c22 -36 -43 -72
-87 -49 -26 14 -33 54 -11 64 20 9 89 -2 98 -15z m-3186 -154 c19 -41 35 -79
35 -83 0 -7 29 -85 95 -252 23 -59 27 -80 15 -80 -6 0 -9 4 -6 9 4 5 2 11 -4
13 -11 3 -200 420 -200 441 0 16 9 27 22 27 5 0 24 -34 43 -75z m1269 -1 c-1
-10 -5 -45 -9 -76 l-6 -58 -149 0 c-82 0 -151 3 -153 8 -3 4 -2 36 2 72 l6 65
135 5 c176 7 175 7 174 -16z m399 -62 l-6 -72 -154 0 -154 0 2 58 c4 96 -1 93
160 90 83 -2 139 1 139 7 0 5 4 5 10 -1 5 -5 7 -40 3 -82z m411 65 c0 -9 -1
-44 -2 -77 l-2 -60 -160 0 -161 0 6 38 c3 20 9 48 12 62 4 14 7 30 7 35 1 16
61 22 186 21 101 -2 115 -4 114 -19z m822 -17 c-3 -19 -6 -54 -6 -78 l0 -43
-157 3 -158 3 3 42 c6 76 16 97 48 104 16 3 84 5 152 5 l124 -1 -6 -35z m504
29 c0 -3 14 -6 31 -6 17 0 34 -4 37 -9 4 -5 16 -14 27 -20 34 -19 47 -54 74
-204 10 -52 71 -360 100 -500 26 -126 59 -321 58 -342 0 -12 -9 -18 -26 -19
-14 -1 -41 -3 -58 -5 -18 -1 -35 1 -37 5 -5 8 -44 200 -76 371 -12 63 -30 160
-41 215 -11 55 -24 127 -31 160 -21 112 -70 168 -170 193 -26 7 -105 12 -177
12 l-130 0 5 33 c10 72 12 92 13 103 1 7 45 12 133 13 73 1 135 4 137 7 7 7
131 0 131 -7z m-2556 -34 c-1 -16 -3 -49 -5 -72 l-3 -43 -73 0 c-40 0 -73 4
-73 9 0 4 11 20 24 34 13 14 21 28 18 31 -3 3 0 6 6 6 7 0 12 5 12 12 0 24 44
59 70 56 21 -3 25 -8 24 -33z m1643 -27 c-5 -35 -11 -69 -13 -76 -3 -10 -39
-12 -156 -10 l-153 3 3 35 c1 19 5 52 8 73 l6 37 157 0 157 0 -9 -62z m-1462
-305 c-6 -36 -24 -53 -54 -53 -31 1 -67 25 -52 35 6 3 11 1 11 -4 0 -16 46
-13 60 4 7 8 9 22 6 31 -9 23 3 37 20 23 8 -6 12 -22 9 -36z m403 -7 c-2 -23
-10 -33 -31 -40 -29 -11 -57 -1 -65 22 -3 9 3 10 20 3 31 -12 47 -2 50 31 1
17 7 24 16 21 8 -4 12 -17 10 -37z m1642 3 c0 -26 -27 -49 -59 -49 -30 0 -69
34 -52 44 5 4 12 2 16 -4 8 -14 58 -13 73 2 8 8 8 16 0 32 -10 19 -10 20 5 7
10 -7 17 -22 17 -32z m-887 -19 c27 0 51 22 39 35 -4 5 -1 5 6 1 18 -10 15
-30 -7 -50 -17 -16 -24 -16 -55 -5 -20 7 -37 17 -37 21 -3 19 -5 24 -12 38 -5
8 3 3 17 -12 14 -16 36 -28 49 -28z m465 25 c0 -26 -23 -53 -35 -41 -4 4 -2
11 5 15 7 4 14 18 15 29 2 30 15 28 15 -3z m-894 -28 c3 3 13 0 23 -8 9 -8 14
-9 10 -3 -4 7 2 14 13 17 26 7 26 -9 0 -23 -33 -18 -109 18 -93 43 4 6 13 2
23 -11 10 -12 20 -18 24 -15z m-3237 -1037 c23 -5 63 -12 90 -15 26 -3 91 -19
143 -36 101 -32 300 -125 300 -140 0 -5 5 -9 10 -9 18 0 142 -101 215 -174
107 -108 148 -156 191 -221 21 -33 46 -68 54 -78 8 -10 14 -21 13 -25 -1 -4 7
-16 17 -27 21 -22 160 -296 160 -314 0 -7 9 -30 20 -52 90 -175 214 -715 250
-1079 6 -63 13 -131 16 -150 3 -19 9 -246 14 -505 7 -455 8 -474 34 -595 30
-141 98 -349 158 -484 109 -247 153 -402 168 -596 15 -213 -35 -431 -134 -580
-63 -95 -198 -220 -307 -283 -45 -26 -191 -87 -209 -87 -10 0 -7 31 11 105 18
75 22 303 6 405 -17 108 -46 221 -70 270 -10 18 -17 38 -17 44 0 7 -12 27 -27
45 -25 29 -31 31 -56 22 -35 -14 -44 -36 -27 -75 89 -216 121 -403 101 -589
-11 -99 -44 -241 -62 -262 -23 -30 -437 -95 -601 -95 -72 0 -78 1 -82 22 -11
53 -19 193 -36 677 -9 236 -13 276 -27 286 -22 16 -51 8 -70 -22 -14 -21 -15
-64 -9 -356 3 -183 9 -394 12 -470 l7 -137 -76 0 c-42 0 -111 4 -154 10 -43 5
-118 15 -168 21 -49 6 -123 20 -162 30 -40 11 -81 19 -91 19 -28 0 -47 27 -66
95 -34 117 -46 201 -46 325 0 141 14 224 66 380 l35 105 -27 23 -27 24 -27
-29 c-26 -27 -85 -159 -96 -213 -2 -8 -9 -44 -16 -80 -27 -135 -12 -450 26
-541 5 -10 1 -19 -8 -22 -20 -8 -79 16 -69 28 5 4 3 5 -4 1 -32 -18 -335 175
-325 207 1 5 -2 6 -7 3 -12 -8 -98 88 -146 163 -122 194 -161 337 -159 586 1
160 13 241 61 415 8 30 17 66 20 80 3 14 11 58 19 99 8 41 18 125 21 188 10
181 -17 387 -110 853 -75 371 -107 665 -107 979 0 227 5 291 41 521 48 303
133 554 262 773 21 37 43 67 48 67 5 0 9 7 9 15 0 9 7 18 15 21 8 4 15 11 15
16 0 19 62 88 72 82 6 -4 8 -3 5 3 -7 11 7 27 74 88 75 67 93 81 85 65 -7 -13
-6 -13 6 0 48 55 177 115 316 150 64 16 131 31 147 33 61 8 251 6 292 -3z
m8374 -257 c13 -14 18 -23 10 -18 -10 5 -12 4 -7 -4 4 -6 11 -9 16 -6 11 7 93
-86 152 -174 232 -342 352 -804 350 -1346 -1 -287 -18 -470 -73 -780 -35 -196
-47 -258 -78 -405 -60 -288 -74 -395 -75 -570 0 -182 7 -238 64 -475 21 -88
43 -185 49 -215 29 -156 21 -347 -20 -508 -17 -68 -62 -178 -78 -192 -3 -3
-13 -21 -22 -40 -15 -32 -90 -131 -130 -171 -97 -97 -244 -193 -393 -255 -99
-41 -112 -38 -90 25 22 66 44 213 44 301 0 80 -18 213 -39 290 -5 19 -13 46
-16 60 -13 46 -69 152 -88 165 -21 15 -46 10 -63 -12 -9 -10 -1 -43 32 -141
82 -242 86 -453 12 -682 -12 -36 -25 -70 -30 -76 -4 -6 -34 -16 -65 -24 -32
-7 -71 -16 -88 -20 -29 -8 -97 -18 -268 -40 -43 -5 -124 -10 -179 -10 l-101 0
7 48 c28 224 30 876 1 922 -8 13 -72 13 -80 0 -4 -6 -6 -136 -5 -288 1 -248
-9 -463 -28 -622 l-7 -55 -90 0 c-144 1 -439 39 -550 70 -47 14 -55 27 -87
145 -19 71 -23 109 -22 225 1 176 22 295 76 433 43 111 43 127 -1 143 -18 7
-28 3 -51 -23 -16 -17 -28 -34 -28 -37 1 -3 -6 -24 -16 -46 -27 -61 -42 -111
-67 -220 -28 -121 -30 -321 -5 -455 8 -46 14 -85 13 -86 -1 -1 -14 -4 -28 -7
-20 -5 -56 8 -150 56 -76 38 -123 67 -121 75 1 8 -2 11 -8 7 -14 -9 -92 54
-84 67 4 6 3 8 -3 5 -10 -7 -87 70 -134 133 -32 43 -99 182 -99 204 0 9 -6 27
-14 39 -25 39 -39 180 -33 331 6 153 40 308 92 423 80 176 105 234 126 288 13
33 27 62 32 63 4 2 5 8 2 12 -3 5 1 26 9 47 15 39 54 177 62 223 2 14 7 35 9
48 18 76 26 213 30 487 6 423 29 688 89 1025 2 15 56 46 91 53 11 2 27 7 35
10 81 31 212 67 221 61 8 -4 9 -3 5 4 -4 7 -1 12 6 12 18 0 217 81 343 141 28
12 52 23 55 24 3 1 33 15 68 33 34 18 62 29 62 25 0 -5 5 0 11 10 5 9 14 17
19 17 11 0 218 121 301 176 36 24 70 44 75 44 5 0 22 14 38 31 17 16 36 27 43
24 8 -2 12 -1 9 4 -3 5 11 20 32 34 20 14 47 33 60 44 90 71 110 87 138 111
17 15 54 47 83 72 126 109 341 335 389 409 14 22 30 37 35 34 6 -3 7 -2 4 4
-4 5 1 19 11 29 9 11 33 42 51 69 19 28 37 52 40 55 6 5 21 31 61 103 11 20
22 37 23 37 2 0 14 -12 28 -27z m-3051 -4788 c0 -7 -30 -13 -34 -7 -3 4 4 9
15 9 10 1 19 0 19 -2z"/>
<path d="M3280 18116 c-19 -6 -55 -22 -80 -36 -25 -13 -47 -24 -50 -24 -3 0
-31 -26 -62 -58 -31 -32 -53 -58 -50 -58 4 0 3 -4 -3 -8 -63 -46 -248 -488
-303 -722 -6 -25 -13 -56 -17 -70 -103 -444 -154 -880 -141 -1211 7 -166 22
-264 56 -369 12 -36 23 -70 24 -77 1 -7 9 -20 18 -30 9 -10 16 -22 15 -26 -4
-16 88 -97 133 -119 60 -30 156 -35 235 -14 33 10 70 18 82 20 12 2 29 10 38
20 9 9 23 16 31 16 8 0 14 4 14 9 0 4 17 20 38 34 20 14 49 37 65 52 15 14 27
23 27 20 0 -4 12 7 26 24 14 17 30 29 34 26 5 -3 12 0 16 6 5 8 2 10 -7 4 -8
-4 2 6 21 23 19 16 38 28 43 25 4 -2 6 0 5 6 -7 24 135 125 292 208 103 55
264 111 485 168 160 42 280 87 313 117 12 12 22 18 22 13 0 -12 51 66 66 102
43 102 -5 354 -115 597 -37 82 -51 119 -51 137 0 11 -4 19 -8 19 -9 0 -72 130
-72 148 0 7 -3 12 -8 12 -7 0 -43 72 -48 96 -1 7 -11 21 -23 33 -12 12 -21 26
-21 31 0 6 -16 35 -36 65 -21 31 -33 59 -28 66 4 7 3 10 -3 6 -5 -3 -36 35
-69 86 -121 187 -326 424 -439 506 -143 105 -234 141 -351 140 -43 -1 -95 -6
-114 -13z"/>
<path d="M9081 18096 c-77 -32 -187 -98 -236 -143 -11 -10 -36 -32 -56 -48
-35 -28 -164 -177 -239 -275 -19 -25 -38 -46 -42 -48 -5 -2 -8 -8 -8 -13 0 -5
-20 -38 -45 -75 -25 -36 -45 -68 -45 -71 0 -3 -9 -18 -21 -34 -64 -91 -256
-477 -325 -656 -78 -202 -104 -300 -111 -414 -5 -86 -3 -102 16 -140 57 -117
129 -159 366 -218 294 -73 536 -172 670 -273 69 -53 141 -112 190 -158 33 -31
85 -79 115 -107 65 -61 172 -116 255 -133 117 -24 250 12 312 84 49 58 63 76
58 76 -3 0 4 17 15 38 80 156 111 529 75 914 -15 162 -58 486 -75 563 -5 22
-14 69 -20 105 -7 36 -21 94 -31 130 -10 36 -20 76 -23 90 -3 14 -14 57 -26
95 -12 39 -25 84 -30 100 -20 78 -127 314 -182 402 -11 18 -21 41 -23 50 -1
10 -8 17 -14 15 -6 -1 -14 5 -17 13 -9 22 -123 111 -169 130 -22 10 -47 21
-55 25 -8 4 -56 8 -105 9 -81 1 -98 -2 -174 -33z"/>
<path d="M6041 12549 c-81 -21 -155 -59 -170 -88 -36 -67 -20 -157 44 -235 24
-30 41 -57 38 -60 -4 -3 -1 -6 5 -6 7 0 12 -6 12 -12 0 -7 15 -43 34 -80 19
-36 31 -70 28 -74 -4 -4 -2 -4 4 -1 6 3 24 -7 39 -23 16 -17 35 -30 42 -30 8
0 12 -4 9 -9 -3 -5 2 -8 12 -7 16 1 17 -17 20 -210 l2 -212 -41 -31 c-23 -17
-46 -28 -51 -25 -4 3 -8 1 -8 -4 0 -24 -182 -81 -284 -88 -154 -12 -320 21
-484 97 -45 21 -108 57 -139 79 -31 22 -65 40 -75 40 -26 0 -78 -53 -78 -79 0
-34 54 -84 128 -120 39 -19 68 -39 65 -44 -3 -6 -2 -7 4 -4 5 3 52 -11 104
-32 148 -60 258 -82 407 -82 117 0 214 14 291 43 31 11 68 23 84 25 15 3 27 9
27 13 0 5 10 12 23 16 12 3 29 12 37 19 8 8 28 20 44 29 27 14 32 13 55 -3 14
-10 45 -26 69 -36 23 -11 42 -22 42 -27 0 -4 3 -7 8 -6 4 0 14 -1 22 -4 126
-47 170 -56 314 -68 191 -15 391 33 607 147 133 70 159 92 159 138 0 37 -37
75 -72 75 -11 0 -65 -27 -120 -60 -54 -33 -105 -60 -111 -60 -7 0 -17 -4 -22
-9 -37 -34 -277 -91 -385 -91 -85 0 -229 28 -290 57 -30 14 -60 27 -65 28 -6
2 -34 17 -63 35 l-52 32 0 201 c0 111 4 208 8 214 4 7 23 14 42 16 23 3 36 11
41 25 4 11 15 24 24 29 9 5 32 47 50 93 36 85 61 124 77 114 4 -3 7 0 6 8 -2
7 3 12 10 10 8 -1 11 2 8 7 -4 5 0 13 7 18 8 4 22 29 32 55 23 61 17 131 -16
180 -24 38 -74 59 -199 87 -76 17 -275 12 -359 -10z"/>
<path d="M1750 10489 c0 -5 5 -7 10 -4 6 3 10 8 10 11 0 2 -4 4 -10 4 -5 0
-10 -5 -10 -11z"/>
<path d="M2296 9767 c3 -10 9 -15 12 -12 3 3 0 11 -7 18 -10 9 -11 8 -5 -6z"/>
<path d="M2385 9640 c3 -5 8 -10 11 -10 2 0 4 5 4 10 0 6 -5 10 -11 10 -5 0
-7 -4 -4 -10z"/>
<path d="M2760 7079 c0 -5 5 -7 10 -4 6 3 10 8 10 11 0 2 -4 4 -10 4 -5 0 -10
-5 -10 -11z"/>
<path d="M2813 7080 c-26 -10 -32 -57 -11 -78 17 -17 55 -15 62 4 10 25 7 59
-6 72 -14 14 -15 14 -45 2z"/>
<path d="M2746 6964 c-20 -20 -20 -43 0 -65 22 -24 52 -13 63 25 13 51 -27 77
-63 40z"/>
<path d="M2860 6931 c0 -28 21 -37 36 -16 16 22 10 35 -17 35 -12 0 -19 -7
-19 -19z"/>
<path d="M2674 6855 c-11 -27 5 -62 29 -67 30 -6 47 0 47 17 0 7 5 15 10 17 6
2 4 12 -5 26 -19 26 -72 31 -81 7z"/>
<path d="M2823 6862 c-27 -4 -35 -25 -23 -57 18 -47 70 -22 70 33 0 22 -14 30
-47 24z"/>
<path d="M2625 6756 c-38 -38 -28 -86 16 -86 45 0 64 62 29 93 -20 17 -22 16
-45 -7z"/>
<path d="M2764 6760 c-25 -10 -34 -37 -23 -69 12 -31 59 -26 76 8 20 42 -10
76 -53 61z"/>
<path d="M2585 6663 c-46 -11 -71 -58 -42 -80 15 -13 68 -23 62 -12 -3 4 -1
10 5 14 13 8 13 65 -1 65 -5 0 -7 5 -4 10 3 6 5 9 3 9 -2 -1 -12 -4 -23 -6z"/>
<path d="M2675 6631 c-10 -32 3 -61 28 -61 35 0 49 15 45 46 -2 24 -8 29 -35
32 -24 2 -33 -1 -38 -17z"/>
<path d="M2814 6636 c-3 -8 -4 -25 -2 -38 2 -18 10 -24 35 -26 28 -3 33 1 39
23 4 15 1 31 -6 40 -16 19 -59 19 -66 1z"/>
<path d="M2469 6523 c-13 -35 -3 -62 27 -69 33 -8 64 20 64 58 0 22 -5 28 -22
29 -13 0 -31 2 -41 4 -12 2 -21 -5 -28 -22z"/>
<path d="M2612 6528 c-28 -28 -7 -78 34 -78 35 0 60 47 41 78 -10 15 -59 16
-75 0z"/>
<path d="M2752 6528 c-36 -36 7 -91 54 -69 42 19 26 81 -21 81 -12 0 -26 -5
-33 -12z"/>
<path d="M2879 6514 c-18 -49 38 -79 72 -38 9 11 8 20 -5 39 -22 33 -54 32
-67 -1z"/>
<path d="M2295 6432 c-42 -9 -52 -62 -16 -81 23 -13 34 -12 54 6 37 34 11 86
-38 75z"/>
<path d="M2420 6430 c-30 -7 -39 -44 -16 -69 23 -26 74 -16 82 15 12 46 -14
67 -66 54z"/>
<path d="M2562 6432 c-21 -7 -34 -50 -22 -73 15 -26 66 -26 80 2 17 31 8 62
-20 69 -14 4 -31 5 -38 2z"/>
<path d="M2677 6423 c-12 -11 -8 -61 6 -70 21 -13 49 -14 63 -2 17 14 18 51 2
67 -13 13 -60 16 -71 5z"/>
<path d="M2809 6403 c-14 -38 0 -58 42 -58 27 0 35 5 43 27 12 35 -6 58 -45
58 -23 0 -32 -6 -40 -27z"/>
<path d="M2946 6374 c-4 -15 -3 -31 2 -36 14 -14 57 -5 58 12 2 50 -49 70 -60
24z"/>
<path d="M2426 6322 c-3 -5 1 -9 9 -9 8 0 12 4 9 9 -3 4 -7 8 -9 8 -2 0 -6 -4
-9 -8z"/>
<path d="M2752 6308 c-7 -7 -12 -24 -12 -38 0 -14 5 -31 12 -38 14 -14 54 -16
62 -4 9 15 15 63 9 78 -6 17 -54 19 -71 2z"/>
<path d="M2871 6288 c-21 -57 44 -102 83 -59 22 25 14 54 -20 69 -37 18 -54
15 -63 -10z"/>
<path d="M3020 6254 c-10 -11 -11 -20 -3 -32 14 -23 53 -28 53 -8 0 9 1 19 3
22 1 4 -7 13 -19 21 -18 12 -23 11 -34 -3z"/>
<path d="M3091 6132 c-20 -38 39 -73 67 -39 13 15 5 30 -25 46 -28 15 -31 14
-42 -7z"/>
<path d="M3193 6043 c-41 -8 -39 -63 2 -63 16 0 24 7 27 25 3 14 1 25 -4 25
-5 0 -6 5 -3 10 3 6 5 9 3 9 -2 -1 -13 -4 -25 -6z"/>
<path d="M3964 4445 c-9 -23 5 -65 21 -65 9 0 24 5 34 12 18 11 18 14 5 40
-16 30 -51 38 -60 13z"/>
<path d="M4017 4326 c-8 -19 21 -56 38 -50 20 8 27 34 14 50 -15 18 -45 18
-52 0z"/>
<path d="M8144 3951 c3 -5 -5 -12 -18 -15 -18 -4 -22 -11 -19 -31 7 -35 26
-48 48 -31 20 15 31 56 14 56 -5 0 -8 4 -5 9 3 5 -1 12 -10 15 -8 3 -13 2 -10
-3z"/>
<path d="M4023 3915 c0 -8 4 -12 9 -9 5 3 6 10 3 15 -9 13 -12 11 -12 -6z"/>
<path d="M4146 3865 c-11 -12 -13 -22 -6 -39 5 -13 7 -26 5 -28 -7 -7 40 -3
51 4 16 11 5 57 -17 68 -13 7 -22 6 -33 -5z"/>
<path d="M4076 3761 c-35 -39 8 -91 55 -68 25 13 41 67 19 67 -6 0 -9 4 -6 8
11 18 -52 11 -68 -7z"/>
<path d="M8105 3754 c-30 -30 -9 -74 36 -74 29 0 30 2 27 36 -4 44 -37 64 -63
38z"/>
<path d="M4163 3662 c-24 -4 -40 -40 -29 -67 7 -18 57 -20 74 -3 29 29 -3 77
-45 70z"/>
<path d="M8060 3640 c-28 -28 -11 -63 27 -58 33 4 49 41 27 63 -20 20 -30 19
-54 -5z"/>
<path d="M4079 3548 c-18 -25 -18 -38 0 -70 14 -25 16 -26 43 -12 31 16 46 57
29 78 -19 23 -57 25 -72 4z"/>
<path d="M4211 3546 c-7 -8 -11 -27 -9 -43 2 -22 9 -29 29 -31 39 -5 54 20 34
57 -17 34 -36 39 -54 17z"/>
<path d="M8024 3525 c-8 -19 2 -45 16 -45 16 0 30 44 16 52 -17 12 -26 9 -32
-7z"/>
<path d="M4142 3438 c-7 -7 -12 -21 -12 -33 0 -12 5 -26 12 -33 7 -7 21 -12
33 -12 12 0 26 5 33 12 7 7 12 21 12 33 0 12 -5 26 -12 33 -7 7 -21 12 -33 12
-12 0 -26 -5 -33 -12z"/>
<path d="M8068 3429 c-24 -14 -23 -46 2 -54 11 -4 18 -10 15 -14 -2 -5 7 -6
21 -3 51 10 57 82 6 82 -15 0 -35 -5 -44 -11z"/>
<path d="M4256 3421 c-8 -13 20 -45 32 -37 20 12 14 46 -7 46 -11 0 -22 -4
-25 -9z"/>
<path d="M4069 3319 c-16 -31 3 -69 35 -69 49 0 76 59 37 80 -31 16 -59 12
-72 -11z"/>
<path d="M8032 3328 c-30 -30 -2 -72 45 -66 22 2 29 9 31 30 3 22 -2 30 -23
38 -34 13 -38 13 -53 -2z"/>
<path d="M4205 3318 c-12 -37 -9 -53 14 -64 31 -16 57 -3 63 31 4 18 0 29 -13
35 -25 14 -59 12 -64 -2z"/>
<path d="M4277 3225 c-9 -8 -19 -25 -23 -37 -12 -38 49 -65 76 -34 17 21 9 56
-16 73 -19 12 -24 12 -37 -2z"/>
<path d="M4140 3216 c-16 -21 -9 -56 15 -72 29 -19 65 6 65 45 0 40 -54 58
-80 27z"/>
<path d="M7990 3205 c-16 -30 0 -55 35 -55 28 0 51 50 32 69 -19 19 -53 12
-67 -14z"/>
<path d="M7970 3131 c-28 -8 -40 -52 -20 -76 12 -14 40 -9 52 9 11 17 9 56 -3
56 -5 0 -7 5 -4 10 3 6 5 10 3 9 -2 -1 -14 -4 -28 -8z"/>
<path d="M8100 3133 c-14 -3 -30 -9 -36 -14 -17 -14 -23 -56 -11 -68 15 -15
60 -14 75 1 15 15 16 68 1 68 -5 0 -7 5 -4 10 3 6 5 9 3 9 -2 -1 -14 -4 -28
-6z"/>
<path d="M4213 3118 c-28 -36 -15 -88 21 -88 15 0 40 27 49 52 12 35 -48 65
-70 36z"/>
<path d="M4071 3098 c-13 -32 9 -63 44 -63 22 0 30 6 38 28 11 35 -5 57 -45
57 -20 0 -31 -6 -37 -22z"/>
<path d="M4337 3096 c-20 -20 -15 -51 8 -51 28 0 43 31 24 51 -15 14 -18 14
-32 0z"/>
<path d="M8012 3011 c-8 -5 -12 -21 -10 -37 2 -24 8 -29 35 -32 36 -4 59 24
48 58 -7 21 -48 27 -73 11z"/>
<path d="M4144 3002 c-32 -21 -13 -82 26 -82 41 0 70 70 34 84 -21 8 -47 7
-60 -2z"/>
<path d="M4272 2998 c-32 -32 4 -87 47 -73 25 7 41 47 29 68 -10 20 -58 23
-76 5z"/>
<path d="M8090 2902 c-31 -25 -21 -77 15 -80 42 -3 63 68 26 88 -15 7 -24 5
-41 -8z"/>
<path d="M4101 2901 c-35 -9 -46 -46 -21 -71 34 -34 62 -22 75 30 7 30 -18 49
-54 41z"/>
<path d="M4212 2894 c-32 -22 -27 -66 8 -75 16 -4 31 0 43 9 21 19 23 68 1 76
-23 9 -27 8 -52 -10z"/>
<path d="M4336 2894 c-28 -27 -16 -60 23 -65 45 -7 55 48 12 70 -15 8 -23 7
-35 -5z"/>
<path d="M7966 2889 c-8 -12 -12 -27 -9 -35 13 -34 83 -22 83 14 0 42 -49 56
-74 21z"/>
<path d="M7906 2794 c-19 -49 5 -85 44 -64 24 13 29 30 17 58 -12 26 -52 30
-61 6z"/>
<path d="M8029 2788 c-6 -11 -8 -31 -5 -45 6 -20 12 -24 38 -21 24 2 34 9 41
31 11 33 10 35 -32 47 -26 7 -33 6 -42 -12z"/>
<path d="M4142 2784 c-26 -18 -28 -45 -4 -66 25 -22 65 -8 77 26 8 23 6 30
-10 42 -24 18 -35 18 -63 -2z"/>
<path d="M4265 2784 c-9 -9 -14 -23 -11 -31 3 -8 6 -19 6 -23 0 -5 9 -14 21
-20 43 -24 92 43 57 78 -17 17 -54 15 -73 -4z"/>
<path d="M4385 2751 c-9 -29 5 -52 29 -49 27 4 33 38 10 55 -24 18 -32 16 -39
-6z"/>
<path d="M7976 2691 c-18 -20 -20 -44 -6 -71 9 -16 15 -17 40 -8 54 18 62 65
14 84 -28 12 -34 11 -48 -5z"/>
<path d="M4363 2683 c-27 -4 -34 -10 -41 -36 -8 -29 -6 -33 19 -41 49 -15 85
17 61 55 -9 13 -8 19 1 22 13 6 8 6 -40 0z"/>
<path d="M7873 2683 c-17 -6 -16 -28 1 -42 12 -10 17 -8 25 8 20 36 10 49 -26
34z"/>
<path d="M4204 2672 c-6 -4 -13 -19 -16 -34 -10 -51 73 -62 92 -12 14 36 2 54
-34 54 -17 0 -36 -4 -42 -8z"/>
<path d="M7928 2593 c-9 -2 -20 -13 -23 -24 -7 -22 18 -69 38 -69 13 0 47 20
35 20 -4 0 0 16 8 36 8 20 11 33 5 30 -5 -4 -12 -2 -16 4 -6 10 -17 11 -47 3z"/>
<path d="M4285 2580 c3 -4 -2 -13 -10 -20 -8 -7 -15 -25 -15 -40 0 -24 5 -30
32 -35 24 -6 35 -3 45 11 16 23 17 59 1 71 -17 13 -59 24 -53 13z"/>
<path d="M4400 2530 c-9 -16 -8 -21 5 -26 23 -9 47 4 43 23 -5 26 -35 28 -48
3z"/>
<path d="M7875 2481 c-25 -5 -30 -11 -30 -35 0 -59 66 -60 73 -1 4 35 -5 43
-43 36z"/>
<path d="M4218 2459 c-30 -17 -21 -89 12 -89 40 0 70 80 34 94 -21 8 -26 7
-46 -5z"/>
<path d="M4342 2458 c-17 -17 -15 -53 3 -68 38 -31 96 27 65 65 -15 18 -51 20
-68 3z"/>
<path d="M4454 2367 c-33 -16 -46 -44 -34 -67 13 -25 42 -26 63 -2 21 23 22
48 1 56 -8 3 -12 10 -9 16 3 5 5 9 3 9 -2 -1 -13 -6 -24 -12z"/>
<path d="M7810 2365 c-15 -19 -9 -49 11 -53 17 -3 43 50 32 62 -11 10 -30 6
-43 -9z"/>
<path d="M7906 2364 c-32 -31 -6 -74 44 -74 24 0 30 5 35 30 4 19 2 36 -5 45
-16 20 -55 19 -74 -1z"/>
<path d="M4274 2323 c-5 -17 -3 -28 4 -31 7 -2 10 -7 7 -12 -2 -4 10 -5 27 -1
62 13 60 71 -3 71 -23 0 -30 -6 -35 -27z"/>
<path d="M7839 2261 c-22 -17 -22 -21 -10 -45 17 -31 50 -34 74 -8 46 50 -11
96 -64 53z"/>
<path d="M4361 2253 c-18 -16 -19 -21 -8 -43 9 -18 22 -26 48 -28 33 -3 35 -1
37 31 2 28 -2 36 -23 45 -32 15 -29 15 -54 -5z"/>
<path d="M4493 2263 c-7 -2 -13 -15 -13 -27 0 -46 50 -63 71 -24 10 18 8 24
-11 40 -23 19 -27 20 -47 11z"/>
<path d="M7779 2159 c-37 -37 -16 -75 39 -70 17 1 31 42 22 65 -9 26 -37 29
-61 5z"/>
<path d="M4428 2148 c-19 -31 -12 -57 19 -64 49 -13 82 36 48 70 -23 23 -50
20 -67 -6z"/>
<path d="M7736 2058 c-22 -12 -20 -45 4 -58 15 -8 21 -6 30 9 24 45 5 71 -34
49z"/>
<path d="M4497 2043 c-17 -16 -6 -54 19 -65 23 -11 29 -10 45 11 25 30 10 61
-30 61 -15 0 -31 -3 -34 -7z"/>
<path d="M7719 1956 c-17 -8 -24 -20 -24 -41 0 -25 5 -31 30 -35 39 -7 72 28
56 59 -14 26 -34 31 -62 17z"/>
<path d="M4431 1937 c-24 -44 9 -88 53 -71 20 8 32 52 19 73 -17 27 -57 25
-72 -2z"/>
<path d="M4571 1944 c-22 -16 -28 -48 -11 -59 6 -4 8 -10 6 -14 -3 -4 8 -5 24
-3 31 4 45 29 35 61 -8 27 -29 32 -54 15z"/>
<path d="M4486 1834 c-19 -49 11 -82 58 -64 30 11 46 57 25 71 -24 15 -76 10
-83 -7z"/>
<path d="M7643 1838 c-6 -7 -10 -22 -10 -33 0 -39 45 -47 77 -15 16 16 18 25
10 40 -12 23 -62 27 -77 8z"/>
<path d="M4627 1833 c-15 -14 -7 -43 12 -43 17 0 31 18 31 41 0 10 -33 12 -43
2z"/>
<path d="M4551 1728 c-26 -42 4 -87 49 -73 21 7 36 45 27 69 -9 22 -63 25 -76
4z"/>
<path d="M7604 1742 c-32 -21 -24 -72 10 -72 26 0 52 40 43 64 -7 17 -34 21
-53 8z"/>
<path d="M7716 1729 c-21 -31 -2 -69 35 -69 28 0 46 27 40 60 -7 35 -53 40
-75 9z"/>
<path d="M4415 1731 c-3 -6 -4 -24 -3 -41 4 -50 69 -56 87 -8 13 35 -4 58 -44
58 -18 0 -36 -4 -40 -9z"/>
<path d="M7670 1647 c-36 -18 -40 -69 -7 -84 34 -16 64 6 69 51 2 19 0 32 -5
29 -4 -2 -13 0 -20 6 -9 7 -20 6 -37 -2z"/>
<path d="M4633 1627 c-27 -12 -32 -64 -8 -73 8 -4 13 -9 10 -14 -8 -13 44 2
55 16 17 20 8 66 -15 74 -11 4 -30 3 -42 -3z"/>
<path d="M4485 1616 c-3 -9 -7 -23 -10 -31 -5 -16 20 -45 39 -45 27 0 48 26
44 55 -3 26 -8 30 -36 33 -22 2 -34 -1 -37 -12z"/>
<path d="M7560 1610 c0 -23 25 -27 33 -6 7 16 -1 26 -20 26 -7 0 -13 -9 -13
-20z"/>
<path d="M7587 1533 c-4 -3 -7 -18 -7 -33 0 -39 43 -57 70 -30 20 20 18 47 -4
62 -14 10 -50 10 -59 1z"/>
<path d="M4555 1514 c-24 -25 -15 -67 17 -78 34 -12 58 6 58 45 0 43 -45 63
-75 33z"/>
<path d="M4686 1501 c-20 -22 -18 -41 7 -59 36 -27 83 12 66 56 -10 28 -49 30
-73 3z"/>
<path d="M7523 1428 c-13 -15 5 -79 24 -85 19 -7 54 39 51 67 -2 20 -9 26 -34
28 -17 2 -35 -3 -41 -10z"/>
<path d="M7655 1416 c-13 -19 -14 -28 -4 -50 10 -22 18 -26 45 -24 27 2 33 6
36 30 9 59 -47 91 -77 44z"/>
<path d="M4770 1407 c-18 -9 -24 -19 -22 -37 5 -33 10 -36 29 -24 26 16 40 46
25 51 -6 3 -10 9 -6 14 7 12 4 11 -26 -4z"/>
<path d="M4481 1396 c-7 -8 -11 -27 -9 -43 3 -25 7 -28 44 -31 46 -3 56 10 44
58 -4 19 -13 26 -36 28 -18 2 -36 -3 -43 -12z"/>
<path d="M4618 1399 c-24 -14 -23 -52 3 -75 24 -21 46 -12 66 27 10 19 10 26
0 35 -19 18 -50 24 -69 13z"/>
<path d="M7476 1324 c-11 -28 -6 -42 16 -47 24 -7 47 16 48 46 0 23 -55 24
-64 1z"/>
<path d="M7585 1320 c3 -5 -2 -10 -12 -11 -10 0 -13 -3 -5 -6 18 -7 15 -31 -7
-54 -11 -12 -16 -29 -13 -44 3 -20 0 -25 -16 -25 -29 0 -54 -38 -41 -61 17
-33 44 -41 71 -19 19 15 24 26 20 49 -4 28 -1 32 27 37 44 9 56 27 43 64 -9
24 -8 30 3 30 13 0 35 29 35 44 0 3 -25 6 -56 6 -34 0 -53 -4 -49 -10z"/>
<path d="M7725 1320 c-3 -6 -10 -8 -13 -6 -8 5 -5 -80 3 -101 7 -19 62 -16 69
3 8 22 7 77 -2 90 -11 17 -49 26 -57 14z"/>
<path d="M4415 1293 c-20 -16 -17 -60 6 -77 19 -13 26 -13 49 -1 21 11 27 21
26 47 -1 30 -4 33 -36 36 -19 1 -40 -1 -45 -5z"/>
<path d="M4554 1292 c-15 -10 -26 -46 -19 -65 15 -37 95 -18 95 22 0 35 -48
62 -76 43z"/>
<path d="M4676 1281 c-13 -14 -14 -24 -6 -45 8 -23 15 -27 42 -24 28 2 34 8
36 31 6 52 -38 76 -72 38z"/>
<path d="M4805 1250 c-4 -6 -11 -8 -16 -4 -6 3 -5 -3 3 -15 15 -24 40 -27 57
-7 10 12 8 17 -8 25 -24 14 -28 14 -36 1z"/>
<path d="M7431 1247 c-26 -26 -5 -79 29 -70 23 6 47 50 34 63 -16 16 -50 20
-63 7z"/>
<path d="M4611 1176 c-7 -8 -11 -27 -9 -43 3 -24 8 -28 33 -28 23 0 32 6 39
27 16 46 -33 80 -63 44z"/>
<path d="M4732 1181 c-18 -11 -11 -61 11 -75 21 -13 47 0 64 35 11 21 10 25
-10 36 -26 15 -47 16 -65 4z"/>
<path d="M4843 1165 c-10 -8 -14 -15 -9 -15 5 0 2 -8 -5 -17 -7 -10 -10 -15
-5 -11 5 4 15 1 23 -7 19 -20 47 -19 64 1 27 32 -32 75 -68 49z"/>
<path d="M7387 1152 c-21 -22 -22 -58 -3 -65 24 -10 57 22 54 51 -4 33 -28 39
-51 14z"/>
<path d="M3340 8816 c0 -2 8 -10 18 -17 15 -13 16 -12 3 4 -13 16 -21 21 -21
13z"/>
<path d="M6150 7719 c0 -5 5 -7 10 -4 6 3 10 8 10 11 0 2 -4 4 -10 4 -5 0 -10
-5 -10 -11z"/>
<path d="M4922 7708 c-17 -17 -15 -28 5 -21 11 4 14 3 9 -6 -5 -7 -2 -10 6 -9
20 4 28 21 16 35 -13 16 -21 16 -36 1z"/>
<path d="M5327 7707 c-3 -8 0 -14 6 -15 7 0 22 -4 35 -7 17 -6 22 -3 22 9 0
10 -4 15 -9 11 -5 -3 -12 -1 -16 5 -9 14 -32 12 -38 -3z"/>
<path d="M5763 7713 c-27 -10 -11 -22 29 -21 40 0 41 1 17 14 -26 15 -28 15
-46 7z"/>
<path d="M6967 7704 c-13 -13 -7 -24 14 -24 11 0 19 5 17 12 -5 14 -22 21 -31
12z"/>
<path d="M10730 5885 c0 -5 5 -17 10 -25 5 -8 10 -10 10 -5 0 6 -5 17 -10 25
-5 8 -10 11 -10 5z"/>
<path d="M2304 11010 c0 -13 4 -16 10 -10 7 7 7 13 0 20 -6 6 -10 3 -10 -10z"/>
<path d="M1676 9683 c-6 -14 -5 -15 5 -6 7 7 10 15 7 18 -3 3 -9 -2 -12 -12z"/>
</g>
</svg>
