<?xml version="1.0" standalone="no"?>
<!DOCTYPE svg PUBLIC "-//W3C//DTD SVG 20010904//EN"
 "http://www.w3.org/TR/2001/REC-SVG-20010904/DTD/svg10.dtd">
<svg version="1.0" xmlns="http://www.w3.org/2000/svg"
 width="1164.000000pt" height="1787.000000pt" viewBox="0 0 1164.000000 1787.000000"
 preserveAspectRatio="xMidYMid meet">
<metadata>
Created by potrace 1.16, written by Peter Selinger 2001-2019
</metadata>
<g transform="translate(0.000000,1787.000000) scale(0.100000,-0.100000)"
fill="#a7262a" stroke="none">
<path d="M2675 17449 c-225 -33 -413 -145 -574 -343 -123 -151 -264 -431 -330
-656 -12 -41 -26 -84 -31 -95 -31 -72 -107 -395 -144 -610 -3 -16 -14 -82 -26
-145 -49 -270 -92 -643 -120 -1040 -6 -85 -15 -200 -20 -255 -5 -55 -14 -188
-20 -295 -29 -600 -33 -770 -25 -1310 4 -305 8 -602 9 -660 l1 -105 -25 -3
c-145 -15 -476 -89 -563 -125 -39 -17 -54 -46 -37 -77 14 -27 43 -26 165 6
221 56 473 97 476 78 1 -5 3 -31 4 -59 5 -84 26 -286 35 -350 24 -155 42 -304
39 -320 -4 -18 -48 -33 -284 -95 -205 -53 -271 -78 -281 -105 -10 -25 4 -63
26 -70 11 -3 97 15 197 43 257 72 363 96 373 86 4 -5 22 -66 39 -135 38 -154
98 -333 153 -452 22 -49 36 -92 32 -97 -5 -4 -79 -33 -164 -64 -277 -101 -293
-108 -304 -139 -13 -35 2 -61 35 -65 24 -3 73 13 357 118 79 29 144 51 146 49
6 -9 73 -115 81 -127 5 -10 -10 -32 -47 -70 -128 -133 -192 -256 -232 -453
-29 -137 -13 -328 40 -462 l19 -49 -50 -41 c-81 -66 -297 -285 -367 -372 -210
-261 -363 -552 -447 -854 -69 -243 -76 -299 -75 -556 1 -214 3 -238 28 -350
34 -143 62 -224 121 -343 123 -250 328 -458 559 -567 30 -14 58 -30 61 -35 3
-5 -27 -19 -66 -30 -78 -24 -235 -101 -296 -147 -241 -178 -374 -337 -509
-604 -157 -312 -247 -778 -229 -1189 7 -149 37 -435 56 -531 6 -30 14 -76 18
-104 11 -66 37 -198 61 -310 97 -445 113 -598 80 -788 -12 -71 -27 -145 -34
-165 -36 -102 -51 -217 -51 -392 1 -148 4 -188 23 -260 42 -162 89 -258 192
-395 263 -348 779 -541 1500 -561 297 -9 568 13 825 65 51 11 62 13 198 50
148 41 414 170 462 225 5 7 32 29 58 50 27 22 72 70 100 107 28 38 56 69 62
69 5 0 53 -12 105 -26 223 -60 603 -132 815 -154 293 -31 419 -40 696 -50 652
-25 1409 50 1954 192 185 48 183 48 228 -14 91 -128 204 -221 354 -293 43 -21
87 -42 97 -47 98 -51 427 -128 648 -153 182 -20 637 -24 808 -7 129 13 361 52
425 72 17 5 64 19 105 30 550 153 893 522 930 1002 13 177 1 280 -62 523 -25
96 -32 147 -35 255 -6 160 4 233 81 616 112 558 133 704 142 1003 11 331 -26
614 -117 906 -58 183 -164 406 -227 478 -8 9 -20 26 -26 36 -28 47 -102 136
-183 218 -91 92 -94 94 -315 196 -53 25 -118 60 -145 78 -26 19 -82 45 -123
59 -46 16 -75 32 -76 40 -1 25 25 69 49 81 26 14 206 157 260 208 22 20 57 63
79 96 23 33 57 80 77 105 38 47 124 237 174 385 30 90 30 90 34 370 6 377 -6
562 -45 680 -38 113 -82 218 -134 319 -22 43 -48 103 -59 133 -10 29 -39 91
-65 136 -25 45 -60 107 -77 137 -54 98 -62 108 -130 170 -38 36 -75 79 -85
103 -10 23 -42 67 -70 98 -42 46 -49 59 -38 68 18 15 63 117 83 188 12 41 17
97 16 188 0 111 -4 143 -27 218 -14 48 -41 118 -60 155 -39 76 -135 210 -190
261 -20 19 -36 39 -36 44 0 5 16 35 35 67 l35 58 209 -68 c253 -81 275 -86
302 -59 52 52 11 79 -236 158 -104 34 -196 65 -204 70 -12 8 -8 25 26 103 54
123 93 244 132 408 47 196 43 185 71 182 61 -7 327 -67 431 -96 75 -21 86 -20
105 9 27 41 8 68 -68 93 -83 27 -350 92 -410 99 -27 3 -52 11 -57 17 -5 7 -3
51 5 111 23 161 42 350 49 488 5 91 11 130 21 134 30 11 415 -45 522 -76 62
-18 107 19 78 64 -17 26 -138 64 -301 94 -97 18 -261 41 -290 41 -8 0 -11 159
-10 523 0 287 -6 657 -12 822 -17 406 -40 845 -52 985 -6 63 -15 180 -21 260
-34 483 -99 986 -170 1325 -51 241 -59 278 -86 370 -108 379 -190 572 -335
785 -75 110 -107 145 -202 224 -214 176 -488 233 -798 166 -238 -51 -525 -207
-809 -439 -112 -91 -417 -390 -516 -506 -175 -205 -391 -493 -525 -700 -86
-134 -110 -172 -174 -280 -105 -177 -235 -410 -235 -422 0 -6 -6 -13 -12 -15
-7 -2 -220 -3 -472 -3 l-460 2 -23 34 c-13 19 -62 99 -108 179 -103 176 -315
504 -405 625 -14 19 -54 73 -90 122 -63 84 -197 255 -243 310 -249 295 -511
558 -682 687 -33 25 -69 52 -80 61 -11 8 -38 29 -60 46 -61 47 -201 132 -306
185 -232 116 -473 164 -684 133z m260 -155 c191 -31 344 -97 579 -249 266
-174 626 -522 908 -880 26 -33 85 -107 131 -165 118 -149 348 -485 477 -698
41 -68 85 -140 97 -160 13 -20 41 -69 63 -109 23 -40 55 -83 73 -95 l32 -23
520 0 c506 0 521 1 555 21 20 11 45 39 59 65 26 49 251 443 284 499 97 162
302 454 465 664 289 373 681 744 975 925 68 42 260 141 273 141 3 0 20 6 37
14 86 39 210 61 347 60 119 -1 144 -4 214 -28 43 -14 110 -48 150 -74 39 -26
76 -49 81 -51 21 -8 119 -119 172 -194 107 -152 242 -454 303 -682 10 -38 28
-104 39 -145 44 -166 126 -604 151 -810 34 -272 45 -379 65 -620 8 -102 22
-268 30 -370 9 -102 20 -277 25 -390 5 -113 15 -286 21 -385 14 -236 26 -958
21 -1301 l-4 -271 -214 -12 c-229 -13 -376 -33 -599 -82 -160 -35 -188 -48
-183 -86 6 -48 24 -50 200 -16 203 40 202 40 377 58 79 8 203 15 277 15 l134
0 0 -42 c-1 -120 -50 -611 -66 -661 -6 -20 -19 -20 -194 8 -141 22 -518 55
-633 55 -79 0 -107 -13 -107 -48 0 -37 17 -44 111 -53 415 -38 542 -52 662
-71 153 -24 146 -18 126 -105 -28 -116 -92 -335 -120 -408 -69 -178 -70 -180
-100 -179 -26 2 -216 56 -364 103 -49 16 -124 39 -165 51 -41 12 -84 26 -95
30 -64 28 -137 43 -153 34 -21 -13 -28 -60 -12 -79 11 -14 119 -51 300 -105
41 -12 104 -33 140 -45 36 -13 118 -40 183 -60 65 -21 120 -41 122 -45 7 -11
-55 -105 -141 -214 -95 -119 -211 -229 -309 -293 -38 -25 -89 -58 -113 -74
-23 -16 -46 -29 -51 -29 -5 0 -51 -20 -104 -45 -126 -60 -390 -149 -667 -225
-77 -21 -172 -41 -176 -37 -2 2 -8 24 -12 49 -13 67 -43 121 -77 137 -16 8
-37 17 -45 21 -8 4 -19 25 -25 48 -12 50 -32 71 -87 93 -35 13 -48 27 -73 74
-36 66 -62 83 -142 93 l-57 7 -12 48 c-26 102 -72 137 -181 137 l-71 0 -17 43
c-19 50 -41 67 -103 76 -50 7 -46 -3 -56 122 -12 155 -88 335 -183 436 -78 82
-99 87 -166 35 -194 -149 -443 -182 -701 -92 -74 25 -219 103 -255 136 -14 13
-29 24 -33 24 -5 0 -8 37 -8 83 l0 82 53 20 c55 21 57 23 113 148 14 31 41 73
59 93 45 47 65 93 65 149 0 60 -22 100 -68 124 -142 71 -459 69 -601 -4 -38
-20 -61 -66 -61 -124 0 -53 12 -82 54 -128 18 -21 53 -76 75 -123 50 -101 72
-127 123 -140 l38 -11 0 -79 c0 -76 -1 -80 -32 -109 -43 -40 -165 -109 -246
-138 -262 -95 -494 -60 -729 113 -21 15 -26 15 -55 1 -38 -18 -50 -31 -101
-108 -88 -133 -130 -276 -129 -445 0 -71 6 -130 16 -164 9 -30 16 -61 16 -70
0 -10 -36 -43 -82 -76 -99 -71 -235 -198 -286 -268 -20 -28 -55 -69 -78 -92
-22 -22 -56 -63 -74 -90 -18 -27 -34 -50 -35 -52 -1 -1 -25 6 -53 17 -100 40
-177 51 -340 51 -128 0 -172 -4 -237 -21 -44 -12 -94 -24 -112 -26 -65 -10
-471 142 -650 243 -140 79 -238 163 -367 313 -36 42 -156 219 -156 229 0 5 30
20 68 34 74 28 290 107 392 143 225 81 282 117 254 162 -23 37 -44 32 -329
-74 -116 -44 -432 -153 -440 -153 -20 0 -124 264 -175 441 -51 182 -58 225
-33 233 59 18 398 69 575 86 114 11 218 24 232 30 34 13 46 58 21 77 -22 16
-128 17 -241 3 -43 -5 -155 -19 -249 -30 -93 -12 -217 -30 -275 -40 -57 -11
-107 -16 -111 -12 -14 13 -89 618 -89 710 0 13 33 14 238 9 210 -5 261 -10
446 -42 231 -40 265 -41 277 -9 15 42 -13 61 -134 88 -227 52 -410 75 -648 83
l-186 6 -6 161 c-23 560 -19 1016 14 1781 27 625 101 1379 169 1730 5 28 19
100 30 160 21 113 24 126 60 280 12 50 23 97 25 105 10 45 90 292 116 358 32
81 128 290 142 307 4 6 29 42 55 82 130 197 294 322 482 367 113 27 174 29
295 10z m2053 -6801 c17 -3 32 -12 32 -19 0 -27 -33 -82 -57 -95 -23 -12 -27
-11 -49 14 -18 21 -24 40 -24 74 l0 46 33 -7 c17 -4 47 -10 65 -13z m1684 -18
c6 -49 -24 -95 -63 -95 -22 0 -34 9 -55 40 -14 21 -24 45 -22 52 3 7 27 18 54
25 78 18 81 17 86 -22z m-492 -187 c31 -34 26 -56 -15 -64 -40 -7 -110 14
-110 34 0 17 55 52 82 52 12 0 31 -10 43 -22z m-305 -39 c1 -60 38 -87 75 -54
14 13 20 12 48 -5 28 -17 32 -25 32 -64 0 -26 6 -48 15 -56 25 -21 18 -25 -43
-25 -44 0 -76 -9 -137 -36 -69 -31 -80 -40 -87 -67 -12 -45 -43 -43 -63 4
l-15 36 -54 -6 c-30 -4 -70 -4 -90 -1 -29 6 -36 12 -36 31 0 17 6 24 19 24 27
0 33 13 17 35 -12 17 -14 17 -42 -3 -29 -21 -29 -21 -96 -2 -36 10 -70 15 -73
12 -4 -4 2 12 14 36 21 41 48 59 37 24 -8 -24 17 -57 36 -49 8 3 18 19 21 36
5 22 12 31 26 31 11 0 35 13 53 28 25 21 52 32 108 42 42 7 99 26 130 42 30
16 66 28 80 26 22 -3 25 -8 25 -39z m-559 -31 c5 -7 -7 -24 -29 -43 -30 -26
-49 -33 -97 -38 -32 -3 -74 -12 -91 -21 -22 -11 -36 -13 -43 -6 -29 29 -75 2
-93 -55 -16 -51 -154 -108 -186 -76 -16 16 -63 14 -81 -5 -11 -10 -16 -34 -16
-74 0 -54 -2 -58 -27 -68 -16 -6 -50 -10 -78 -10 -65 2 -162 -43 -227 -103
-26 -24 -61 -55 -78 -69 -45 -36 -74 -105 -60 -143 5 -17 10 -36 10 -42 0 -7
-35 -25 -77 -41 -79 -28 -113 -48 -113 -68 0 -6 -4 -17 -9 -25 -8 -12 -12 -12
-25 -2 -26 22 -19 37 52 108 37 37 92 100 122 138 29 39 67 85 84 103 37 40
215 175 341 257 50 33 92 62 95 65 3 3 16 6 30 8 14 2 50 18 80 36 92 53 342
156 416 170 89 18 91 18 100 4z m1421 -22 c24 -21 26 -26 16 -49 -12 -27 -20
-28 -66 -8 -16 6 -33 8 -38 5 -13 -8 -79 4 -79 15 0 7 114 59 132 60 4 1 19
-10 35 -23z m-277 -35 c0 -16 -30 -21 -113 -21 -74 1 -80 2 -63 15 22 17 176
22 176 6z m518 -31 c39 -36 28 -46 -48 -46 -38 0 -70 3 -70 7 0 12 64 59 81
59 8 0 25 -9 37 -20z m-738 0 c0 -5 -8 -10 -17 -10 -15 0 -16 2 -3 10 19 12
20 12 20 0z m-50 -10 c0 -5 -6 -10 -14 -10 -8 0 -17 -8 -20 -17 -5 -12 -10
-13 -18 -5 -8 8 -8 15 2 27 14 17 50 21 50 5z m338 -76 c24 -7 52 -50 52 -81
0 -10 -16 -35 -36 -57 -38 -41 -77 -55 -157 -56 -26 0 -58 -6 -70 -14 -26 -17
-148 -47 -160 -39 -11 6 -1 76 14 104 31 59 98 111 172 135 44 13 147 18 185
8z m731 -13 c7 -5 17 -27 21 -50 l8 -42 -24 22 -24 22 -26 -24 c-14 -13 -44
-50 -66 -81 -23 -32 -47 -58 -54 -58 -8 0 -20 16 -28 35 -18 41 -38 44 -69 11
-22 -25 -22 -25 -116 -13 -52 7 -96 17 -97 22 -5 15 29 77 46 85 8 4 25 12 37
18 13 7 33 12 46 12 13 0 37 5 54 10 84 30 264 49 292 31z m-524 -21 c3 -5 -1
-22 -10 -37 -8 -16 -21 -46 -29 -68 -11 -34 -17 -40 -44 -42 -39 -2 -44 13
-21 57 10 19 21 42 25 50 20 43 63 65 79 40z m-663 -101 c25 -24 46 -65 28
-54 -17 11 -59 -44 -54 -71 4 -21 -2 -27 -43 -45 -84 -36 -97 -35 -111 3 -14
39 -16 126 -3 146 34 55 137 66 183 21z m1234 -5 c21 -14 29 -15 49 -4 13 7
31 10 40 6 9 -3 14 -2 11 2 -2 4 15 9 38 10 51 2 70 -15 80 -69 8 -47 0 -66
-36 -85 -16 -8 -27 -18 -24 -22 8 -14 -36 -11 -56 2 -11 8 -29 11 -40 8 -14
-3 -19 -1 -14 6 3 6 2 13 -4 17 -17 11 13 45 40 45 51 0 67 39 27 64 -15 9
-22 6 -41 -15 -30 -35 -65 -43 -94 -20 -18 13 -22 23 -17 44 8 32 8 32 41 11z
m-1540 -129 c8 -7 14 -23 14 -34 0 -11 5 -31 11 -45 13 -28 0 -48 -36 -54 -11
-2 -27 -10 -36 -18 -9 -8 -33 -13 -56 -12 -48 1 -66 -8 -60 -32 6 -24 -56 -80
-89 -80 -10 0 6 131 22 168 9 22 20 33 31 32 29 -3 43 -1 43 9 0 12 62 77 80
84 21 8 60 -1 76 -18z m1924 -40 c13 -16 5 -105 -9 -105 -20 0 -141 63 -141
73 0 6 7 19 17 29 21 23 114 26 133 3z m-630 -24 c112 -24 329 -85 356 -99 11
-6 54 -26 96 -45 107 -49 254 -139 371 -228 61 -46 237 -229 237 -246 0 -11
-13 -14 -57 -12 -65 2 -204 -21 -273 -46 -58 -21 -175 -78 -219 -107 -19 -12
-32 -17 -28 -11 9 15 -2 45 -15 37 -5 -3 -8 -19 -6 -34 2 -23 -11 -42 -70
-104 -39 -42 -86 -101 -103 -131 -17 -30 -34 -55 -38 -55 -3 0 -12 -26 -20
-57 -16 -69 -31 -92 -73 -114 -30 -16 -33 -16 -49 4 -15 19 -20 20 -44 9 -29
-14 -29 -30 1 -46 10 -6 21 -12 23 -13 2 -1 -10 -19 -26 -40 -69 -87 -127
-206 -154 -316 -7 -28 -19 -51 -28 -54 -51 -15 -62 -43 -21 -53 23 -5 25 -11
28 -72 3 -59 0 -68 -18 -78 -29 -15 -25 -46 7 -62 22 -10 30 -24 38 -63 5 -28
17 -64 27 -80 18 -34 14 -77 -11 -98 -9 -9 -41 -18 -71 -21 -106 -10 -175 -23
-212 -39 -52 -24 -68 -22 -68 7 0 33 -38 46 -57 20 -7 -10 -11 -26 -8 -35 3
-10 2 -20 -3 -23 -10 -6 -124 -29 -224 -45 -38 -6 -97 -16 -133 -22 -45 -8
-73 -8 -94 -1 -26 9 -32 8 -44 -11 -10 -15 -33 -27 -73 -35 -33 -8 -88 -20
-124 -28 -36 -8 -83 -14 -105 -14 -23 0 -46 -5 -51 -10 -6 -6 -33 -15 -60 -19
-27 -5 -76 -16 -109 -24 -109 -28 -226 -48 -246 -42 -11 4 -30 0 -44 -9 -13
-9 -42 -20 -64 -25 -37 -8 -40 -7 -45 15 -9 35 -38 32 -34 -3 3 -25 -1 -28
-42 -39 -86 -22 -185 -43 -250 -53 -36 -6 -80 -15 -99 -21 -29 -8 -34 -7 -38
10 -8 30 -49 26 -57 -5 -7 -27 -28 -35 -161 -61 -88 -18 -107 -19 -147 -9 -18
5 -34 1 -55 -13 -15 -12 -61 -31 -101 -43 -60 -17 -83 -20 -125 -13 -59 10
-69 32 -22 47 187 59 277 119 409 272 25 29 27 29 41 11 10 -13 21 -17 39 -12
35 9 36 48 1 64 -22 10 -23 14 -14 36 11 23 12 23 38 8 35 -20 64 -10 59 20
-2 17 -11 24 -30 26 -16 2 -28 9 -28 15 2 42 60 231 78 250 11 12 30 43 42 69
12 26 33 54 46 63 23 15 24 17 9 45 -17 34 -14 37 40 42 25 2 30 8 30 28 0 20
-6 26 -30 30 -29 5 -30 7 -27 50 2 25 8 62 13 83 8 30 7 44 -5 61 -14 22 -10
33 64 182 43 88 83 164 87 170 4 5 15 21 23 35 8 13 35 60 61 104 83 140 110
181 142 216 105 114 131 151 120 167 -5 9 -21 18 -34 20 -19 2 -37 -12 -86
-70 -78 -94 -189 -243 -214 -288 -11 -19 -34 -57 -51 -85 -17 -27 -58 -103
-91 -167 -48 -94 -63 -116 -74 -107 -21 18 -16 35 51 168 85 167 82 162 155
271 123 185 228 310 370 447 113 107 174 156 305 242 151 99 213 133 346 185
158 61 225 82 369 111 187 39 248 44 476 40 164 -3 231 -8 305 -24z m-2497 2
c22 -81 16 -105 -34 -122 -47 -16 -124 -14 -139 4 -17 21 14 54 94 100 71 40
73 41 79 18z m232 -23 c3 -5 1 -10 -4 -10 -6 0 -11 5 -11 10 0 6 2 10 4 10 3
0 8 -4 11 -10z m3026 -100 c39 0 66 -26 71 -65 2 -20 1 -38 -4 -41 -10 -6
-146 93 -158 116 -15 27 0 32 35 10 18 -11 43 -20 56 -20z m-2426 -38 c6 -4
11 -23 11 -42 1 -19 5 -47 9 -62 7 -25 2 -30 -55 -67 l-63 -39 -33 35 c-28 29
-36 33 -53 23 -12 -6 -21 -21 -21 -35 0 -30 20 -75 33 -75 5 0 -2 -9 -16 -20
-41 -32 -47 -26 -47 50 0 67 2 72 34 105 19 19 38 41 43 49 4 8 27 16 53 18
49 3 60 11 60 46 0 22 24 30 45 14z m-852 -84 c-13 -12 -25 -19 -29 -15 -10
10 16 37 34 37 13 0 12 -4 -5 -22z m277 -37 c0 -35 -28 -50 -47 -25 -24 33
-13 51 30 53 12 1 17 -7 17 -28z m162 -16 c-12 -22 -27 -2 -18 22 5 12 10 13
17 6 7 -7 8 -17 1 -28z m3022 6 c10 -11 16 -28 14 -38 -3 -16 -7 -15 -31 9
-15 15 -27 32 -27 38 0 17 26 11 44 -9z m-3350 -7 c30 -12 16 -24 -26 -24 -40
1 -42 2 -24 15 22 17 27 18 50 9z m-919 -119 c117 -38 258 -115 241 -132 -2
-3 -37 -11 -77 -20 -174 -36 -318 -95 -432 -179 -74 -54 -97 -86 -81 -112 19
-30 47 -24 124 26 176 115 302 161 461 169 146 8 196 -14 279 -121 22 -28 44
-56 49 -62 54 -65 135 -323 110 -348 -5 -6 -71 -11 -146 -12 -194 -2 -358 -42
-540 -131 -85 -42 -118 -72 -108 -102 11 -35 40 -34 122 2 165 74 212 91 308
111 116 23 191 28 276 16 124 -17 150 -28 175 -75 29 -56 62 -159 72 -227 10
-65 -7 -218 -31 -283 -29 -80 -60 -135 -74 -135 -9 0 -54 10 -102 22 -126 32
-301 31 -441 -2 -115 -27 -153 -51 -143 -90 8 -32 27 -35 96 -16 132 35 296
46 393 27 87 -17 159 -46 162 -65 6 -29 -37 -146 -76 -206 -99 -155 -307 -281
-540 -326 -109 -21 -125 -31 -189 -125 -17 -24 -46 -63 -65 -86 -18 -23 -44
-56 -58 -74 -40 -53 -173 -199 -231 -255 -59 -55 -235 -203 -261 -219 -9 -5
-43 -28 -75 -50 -32 -22 -117 -69 -189 -106 -300 -152 -601 -208 -894 -164
-240 35 -437 132 -606 300 -291 288 -419 754 -338 1225 76 445 317 887 671
1231 113 110 199 179 225 179 11 0 32 -8 46 -19 15 -10 80 -44 145 -76 64 -31
117 -62 117 -67 0 -5 -39 -53 -88 -106 -110 -122 -214 -251 -291 -362 -121
-173 -129 -194 -89 -237 44 -47 97 -26 153 60 62 95 270 366 304 397 3 3 40
43 82 90 76 85 365 357 412 388 13 10 79 54 146 99 190 127 369 213 526 252
44 11 89 22 100 25 11 3 81 3 155 1 112 -3 149 -8 215 -30z m1291 -99 c-4 -16
1 -37 14 -59 l20 -33 -36 -35 c-19 -19 -58 -64 -86 -101 -27 -38 -56 -68 -63
-68 -28 0 -48 117 -22 138 7 5 21 6 32 1 35 -14 75 -10 82 7 9 24 -9 46 -48
59 -19 7 -34 18 -35 26 -1 27 27 69 49 73 12 3 31 7 42 9 49 11 57 8 51 -17z
m-782 -35 c3 -4 3 -11 0 -14 -8 -7 -44 4 -44 14 0 12 37 12 44 0z m357 -124
c-13 -13 -26 -3 -16 12 3 6 11 8 17 5 6 -4 6 -10 -1 -17z m3685 -122 c278 -49
597 -224 909 -500 107 -94 393 -385 405 -411 11 -25 71 -85 94 -94 55 -21 116
27 103 81 -9 36 -238 293 -382 429 -33 31 -84 79 -114 107 l-54 50 54 18 c94
31 408 182 489 235 86 57 87 57 121 24 61 -57 241 -277 275 -336 6 -10 20 -29
31 -41 18 -19 173 -292 173 -304 0 -2 12 -30 26 -61 32 -70 97 -266 134 -402
8 -33 32 -213 46 -346 9 -95 -21 -366 -55 -484 -42 -148 -60 -196 -109 -290
-68 -129 -142 -228 -246 -330 -408 -399 -1064 -461 -1671 -160 -186 93 -258
140 -411 272 -107 92 -174 161 -260 270 -42 52 -64 70 -101 84 -188 69 -267
119 -384 242 -95 100 -156 203 -188 322 -26 94 -28 189 -3 219 23 30 107 50
234 58 125 7 188 -3 340 -54 116 -38 138 -36 138 12 0 29 -23 49 -90 75 -179
71 -372 87 -568 46 -61 -13 -64 -13 -77 8 -36 56 -51 202 -32 311 30 169 129
343 224 393 57 30 298 5 430 -44 85 -32 264 -131 279 -155 10 -17 53 -9 68 13
14 19 14 24 0 47 -60 99 -372 237 -559 247 -154 9 -152 7 -105 101 87 173 282
306 525 357 49 10 230 5 311 -9z m-3708 -117 c-6 -18 -28 -21 -28 -4 0 9 7 16
16 16 9 0 14 -5 12 -12z m181 -26 c18 -25 18 -31 6 -53 -8 -13 -17 -32 -21
-41 -8 -23 -30 -30 -70 -22 -37 7 -51 19 -34 29 6 4 7 11 4 17 -4 7 -2 8 4 4
7 -4 12 -3 12 3 0 7 8 7 25 1 13 -5 27 -5 30 -1 7 12 -20 33 -29 23 -5 -4 2
10 14 31 12 20 26 37 30 37 5 0 18 -13 29 -28z m-145 -171 c14 -15 24 -17 46
-11 16 4 31 6 33 3 5 -4 -45 -116 -66 -150 -6 -9 -18 -3 -43 22 -33 34 -34 35
-24 82 18 83 23 88 54 54z m2373 -1286 c-10 -33 -8 -38 19 -68 17 -18 40 -62
53 -102 45 -137 188 -312 333 -410 83 -56 249 -145 270 -145 9 0 23 -16 33
-36 9 -19 27 -39 40 -44 20 -8 23 -14 18 -43 -6 -37 13 -53 47 -42 21 7 151
-122 178 -176 14 -27 25 -35 55 -40 48 -8 52 -13 33 -41 -22 -30 -20 -45 6
-59 17 -9 28 -8 55 6 l34 18 41 -29 c23 -16 46 -42 51 -59 13 -38 25 -46 61
-39 21 4 46 -2 87 -22 54 -25 59 -31 59 -60 0 -39 30 -51 70 -28 24 15 29 14
65 -2 22 -10 51 -21 65 -24 20 -5 25 -11 23 -35 -4 -58 50 -76 86 -27 l21 27
23 -27 c24 -30 46 -35 77 -18 13 7 36 6 71 -1 48 -11 51 -13 34 -25 -10 -8
-36 -14 -57 -14 -31 0 -40 -5 -53 -30 -24 -46 -81 -80 -135 -80 -53 0 -70 -13
-70 -52 0 -19 -11 -38 -37 -62 -33 -30 -40 -33 -54 -20 -8 8 -24 14 -34 14
-15 0 -17 -6 -12 -44 5 -38 3 -46 -20 -67 -23 -21 -96 -118 -252 -331 -59 -81
-160 -277 -190 -370 -12 -36 -31 -76 -41 -89 -11 -12 -20 -36 -20 -54 0 -20
-8 -39 -21 -51 -17 -15 -20 -26 -15 -56 6 -34 4 -38 -14 -38 -27 0 -36 -25
-20 -55 10 -18 10 -31 1 -56 -6 -17 -11 -43 -11 -56 0 -24 -4 -27 -52 -37 -33
-7 -38 -38 -10 -58 10 -7 21 -18 25 -25 9 -15 -38 -161 -59 -184 -16 -18 -18
-45 -4 -54 17 -11 11 -89 -10 -130 -22 -43 -25 -70 -10 -80 12 -7 3 -175 -11
-212 -4 -12 -18 -23 -31 -25 -17 -2 -24 -11 -26 -31 -3 -23 1 -28 27 -33 30
-6 31 -8 31 -65 0 -46 -5 -64 -20 -79 -24 -24 -25 -34 -4 -55 14 -13 17 -50
21 -225 4 -202 3 -210 -16 -227 -27 -22 -27 -39 -1 -53 18 -10 21 -19 18 -78
-3 -62 -5 -68 -30 -80 -33 -15 -37 -42 -8 -49 10 -3 22 -13 25 -24 7 -21 -9
-86 -36 -145 -11 -22 -19 -50 -19 -62 0 -17 -8 -24 -31 -29 -27 -5 -30 -9 -24
-32 20 -82 20 -81 -19 -74 -31 5 -37 2 -47 -20 -13 -29 1 -57 28 -57 11 0 14
-8 10 -28 -9 -50 -57 -177 -78 -205 -16 -22 -19 -36 -13 -72 6 -45 6 -45 -25
-45 -34 0 -56 -28 -46 -60 4 -14 15 -20 36 -20 29 0 29 0 29 -59 0 -55 -2 -61
-27 -73 -47 -22 -40 -83 10 -90 17 -2 23 -14 32 -66 7 -34 9 -64 7 -67 -3 -2
-16 -2 -29 1 -47 12 -70 -37 -33 -71 18 -17 21 -17 45 -1 21 14 29 15 41 5 25
-21 12 -50 -29 -66 -34 -14 -39 -14 -56 2 -11 9 -31 15 -48 13 -22 -2 -29 -9
-31 -31 -2 -17 -12 -32 -25 -37 -33 -14 -154 -32 -228 -34 -48 -1 -72 -6 -86
-19 -23 -20 -44 -22 -61 -5 -9 9 -16 7 -32 -7 -11 -10 -46 -22 -78 -26 -367
-52 -749 -79 -1105 -79 -212 0 -558 15 -702 30 -349 36 -430 48 -467 67 -16 7
-39 11 -53 7 -17 -4 -33 1 -51 15 -29 23 -54 27 -71 10 -7 -7 -23 -7 -54 1
-24 7 -78 18 -119 24 l-75 12 -3 37 c-3 30 -8 38 -29 43 -21 6 -31 2 -48 -19
-26 -34 -38 -34 -60 -1 -9 14 -23 23 -30 20 -7 -2 -18 1 -24 8 -12 15 9 88 41
143 14 23 17 41 12 67 -6 35 -5 36 25 36 20 0 34 7 41 19 15 29 2 51 -31 51
l-29 0 0 75 0 75 29 0 c31 0 43 16 34 49 -4 16 -13 21 -40 21 -38 0 -38 2 -18
67 6 18 2 25 -16 33 -18 9 -30 30 -47 88 -13 42 -30 94 -38 115 -18 48 -18 46
11 57 51 20 14 79 -41 66 -20 -5 -24 -3 -24 14 0 12 4 30 10 40 14 27 2 50
-31 57 -26 5 -29 10 -29 43 0 20 -7 51 -16 68 -8 18 -18 56 -21 86 -6 54 -5
54 23 58 23 2 29 8 29 28 0 17 -6 26 -20 28 -35 7 -40 19 -40 88 l0 68 30 1
c27 0 30 3 30 30 0 28 -2 30 -33 27 l-33 -4 5 74 c2 40 5 77 5 81 1 5 5 5 11
2 15 -10 50 14 50 34 0 13 -10 20 -30 25 l-31 6 3 67 c3 62 5 68 28 73 38 9
39 45 1 58 -32 11 -40 38 -32 114 3 33 6 37 25 33 28 -7 49 8 44 31 -2 13 -13
20 -36 22 -17 2 -32 6 -32 10 -1 4 -3 30 -5 57 -16 173 -16 165 10 175 15 6
25 17 25 30 0 19 -4 22 -40 24 -10 1 -14 15 -15 51 -1 28 -9 68 -18 90 -25 62
-22 104 8 115 18 7 25 17 25 35 0 22 -4 25 -33 25 -32 0 -32 0 -50 78 -21 95
-21 90 6 94 17 2 22 10 22 33 0 27 -3 30 -32 29 -25 -2 -33 3 -38 23 -7 27 0
43 20 43 16 0 26 23 16 39 -5 7 -18 10 -33 6 -36 -9 -46 30 -16 62 17 19 19
25 8 38 -7 8 -21 15 -31 15 -25 0 -33 18 -19 45 10 19 9 26 -14 48 -14 14 -26
37 -26 50 0 12 -4 27 -9 33 -5 5 -26 50 -47 99 -64 153 -85 197 -143 290 -89
144 -198 294 -279 382 -61 68 -73 87 -68 107 7 29 -15 50 -44 41 -35 -11 -50
11 -43 60 5 41 4 44 -20 50 -14 4 -34 2 -45 -4 -30 -16 -35 -15 -83 24 -27 21
-46 45 -49 62 -5 26 -9 28 -56 28 -29 0 -58 6 -68 14 -16 13 -15 15 16 25 26
9 33 17 33 36 0 20 -6 26 -28 28 -35 4 -57 -13 -57 -44 0 -40 -25 -28 -52 24
-17 31 -17 33 0 38 9 3 41 14 70 26 45 17 57 18 83 8 39 -17 54 -2 58 55 1 6
23 20 50 33 38 17 60 21 89 16 34 -5 42 -3 51 14 6 11 11 29 11 40 0 11 15 27
39 40 21 12 44 29 51 37 17 20 27 19 35 -5 4 -14 15 -20 36 -20 16 0 29 2 29
4 0 2 3 11 6 19 3 8 -2 22 -11 31 -23 23 -12 46 22 46 36 0 46 8 61 45 7 17
36 50 65 75 28 24 67 61 85 82 33 38 34 38 64 22 29 -15 32 -15 50 3 18 19 16
53 -3 53 -13 0 -10 32 5 53 16 21 35 22 42 2 4 -9 19 -15 40 -15 28 0 35 4 40
27 7 27 -14 53 -43 53 -18 0 -16 11 6 38 23 26 29 27 52 6 10 -9 25 -14 34
-11 22 9 19 43 -6 60 -17 13 -19 19 -10 36 13 23 24 26 51 11 42 -23 68 14 42
59 -9 16 -14 33 -10 37 4 3 28 3 53 -1 39 -5 45 -9 39 -23 -4 -9 -9 -29 -11
-44 -4 -23 -1 -28 22 -34 22 -5 31 -2 50 22 l23 28 37 -28 37 -28 39 17 c36
17 40 17 57 2 25 -23 55 -21 77 3 23 25 29 25 63 0 34 -25 56 -19 72 21 17 40
50 40 50 0 0 -21 6 -32 20 -36 31 -10 54 9 54 46 1 32 3 34 39 37 38 3 46 -5
25 -26 -21 -21 6 -38 37 -24 28 13 33 30 10 38 -40 16 -3 28 132 43 36 4 69
13 80 24 22 19 43 23 43 7 0 -17 41 -11 71 11 38 27 176 63 354 93 135 23 211
38 360 71 39 9 93 20 120 25 251 46 434 90 497 119 54 24 148 40 307 51 85 6
155 17 216 35 49 14 107 27 129 27 21 0 50 7 65 14 14 8 33 14 43 14 14 0 15
-5 5 -35z m3028 -1565 c156 -36 300 -100 422 -189 24 -17 47 -31 51 -31 16 0
213 -199 237 -241 6 -9 30 -45 54 -79 52 -75 147 -272 189 -390 16 -47 43
-141 60 -210 105 -432 95 -820 -37 -1475 -17 -82 -47 -229 -66 -325 -33 -162
-49 -274 -62 -440 -5 -65 19 -279 37 -326 29 -75 63 -278 67 -404 5 -117 2
-148 -17 -225 -12 -50 -31 -110 -42 -135 -11 -24 -24 -55 -29 -67 -17 -45
-113 -179 -168 -234 -86 -85 -216 -174 -341 -231 -80 -36 -210 -81 -217 -74
-3 3 1 31 10 63 38 138 47 332 21 478 -17 97 -71 269 -98 309 -31 48 -96 43
-96 -7 0 -17 32 -109 71 -202 17 -39 39 -202 39 -280 0 -117 -35 -295 -73
-374 -7 -13 -26 -30 -44 -37 -70 -30 -611 -84 -642 -65 -5 4 -5 49 0 106 24
261 11 811 -18 841 -17 16 -62 11 -74 -8 -4 -6 -8 -215 -10 -464 -3 -329 -7
-456 -16 -465 -29 -29 -466 10 -629 56 -59 17 -62 22 -93 150 -51 212 -27 468
65 683 20 45 34 89 31 96 -3 7 -18 17 -34 21 -24 6 -32 2 -55 -26 -16 -18 -28
-37 -28 -43 0 -5 -11 -33 -25 -62 -14 -29 -37 -99 -52 -156 -26 -95 -28 -117
-27 -278 1 -141 5 -190 22 -255 11 -44 19 -82 16 -84 -13 -13 -213 70 -304
127 -143 90 -229 183 -299 322 -82 164 -105 280 -90 467 9 127 32 220 89 369
24 60 54 138 67 174 14 36 37 112 51 170 l26 105 1 525 c1 506 4 554 36 795
14 108 75 399 105 510 134 482 335 857 597 1117 273 271 582 406 982 431 75 4
250 -13 340 -33z m-7860 16 c118 -19 222 -47 319 -87 69 -28 108 -47 216 -110
48 -27 146 -104 228 -179 70 -62 130 -131 256 -290 47 -60 169 -286 227 -422
94 -218 148 -382 198 -598 83 -360 104 -600 98 -1100 -4 -387 3 -545 29 -675
15 -76 60 -211 99 -300 29 -65 33 -75 64 -176 38 -121 51 -200 51 -309 0 -133
-40 -325 -77 -371 -7 -8 -13 -19 -13 -23 0 -4 -21 -40 -46 -79 -42 -66 -185
-217 -205 -217 -4 0 -27 -13 -51 -29 -70 -47 -225 -116 -289 -128 l-26 -5 20
74 c28 108 35 366 12 479 -20 103 -46 182 -90 276 -34 73 -56 91 -94 78 -33
-10 -33 -38 -1 -108 107 -237 131 -527 59 -739 -35 -105 -28 -100 -179 -127
-189 -33 -508 -56 -527 -38 -4 5 -10 209 -14 455 -4 246 -10 457 -14 469 -12
39 -70 36 -86 -4 -15 -39 -22 -561 -11 -748 8 -120 8 -171 0 -176 -21 -13
-259 3 -458 32 -190 28 -206 33 -220 72 -93 250 -93 487 0 751 36 102 38 132
9 141 -40 13 -67 -13 -98 -96 -88 -231 -106 -520 -45 -733 8 -27 14 -51 14
-53 0 -10 -52 0 -88 17 -22 11 -46 20 -51 20 -22 0 -186 82 -254 127 -116 76
-233 195 -309 316 -27 42 -89 193 -104 252 -34 137 -21 413 27 545 24 65 51
226 56 331 7 148 -20 383 -67 584 -31 129 -87 412 -109 546 -44 273 -54 411
-48 664 5 241 13 309 58 510 146 645 530 1071 1064 1175 113 23 345 25 470 6z"/>
<path d="M8674 16871 c-239 -56 -475 -266 -755 -675 -42 -61 -89 -133 -103
-161 -15 -27 -43 -77 -62 -110 -64 -109 -199 -389 -218 -450 -11 -33 -25 -73
-31 -90 -13 -31 -35 -95 -53 -155 -23 -73 -34 -205 -22 -251 22 -84 71 -148
140 -183 51 -27 163 -63 230 -76 48 -8 178 -40 275 -67 190 -52 365 -130 470
-211 33 -25 115 -93 183 -151 148 -127 205 -164 296 -192 88 -28 209 -23 274
10 248 126 323 673 198 1441 -49 301 -138 662 -197 795 -4 11 -19 49 -32 85
-50 134 -130 271 -194 331 -115 109 -246 145 -399 110z"/>
<path d="M2715 16866 c-54 -17 -81 -32 -141 -77 -71 -54 -95 -91 -197 -294
-95 -189 -177 -457 -236 -770 -54 -281 -83 -580 -83 -831 0 -200 9 -285 44
-444 25 -115 45 -164 100 -241 72 -103 168 -147 297 -136 141 13 245 68 421
224 247 219 430 304 870 403 170 39 189 45 278 87 72 34 101 62 138 133 28 53
23 189 -11 305 -103 352 -388 864 -663 1190 -233 277 -396 404 -577 450 -71
18 -185 18 -240 1z"/>
<path d="M3435 13179 c-33 -5 -69 -13 -80 -17 -11 -5 -42 -15 -70 -21 -55 -13
-277 -101 -340 -134 -40 -21 -263 -147 -300 -170 -62 -37 -115 -80 -120 -98
-4 -13 0 -28 11 -41 17 -18 26 -19 84 -13 76 8 184 29 255 49 49 13 71 20 300
93 171 54 210 63 292 63 114 0 205 -45 363 -179 36 -31 74 -65 85 -76 55 -54
257 -239 313 -285 49 -41 60 -55 49 -61 -8 -5 -28 -5 -44 0 -74 21 -217 -31
-278 -102 -77 -89 -95 -249 -41 -356 30 -58 102 -125 164 -153 61 -27 175 -29
249 -4 144 49 222 199 190 366 -8 41 -14 76 -14 76 1 1 31 -15 67 -37 208
-122 407 -199 519 -199 48 0 57 3 91 38 31 31 38 46 44 93 14 112 -38 173
-169 199 -159 31 -301 105 -479 249 -71 57 -117 98 -266 241 -327 314 -411
384 -526 437 -113 52 -205 63 -349 42z"/>
<path d="M7857 13179 c-59 -14 -175 -71 -248 -122 -62 -43 -184 -154 -345
-312 -117 -116 -315 -290 -409 -362 -131 -100 -252 -153 -431 -188 -57 -12
-114 -94 -114 -165 0 -52 30 -110 68 -132 87 -51 305 12 552 161 58 35 108 65
112 68 9 5 0 -45 -12 -68 -14 -26 -12 -148 3 -189 42 -115 113 -178 232 -205
162 -38 326 51 380 204 39 112 7 251 -79 336 -73 71 -150 100 -248 92 l-73 -7
50 46 c28 26 99 92 160 148 60 55 144 134 187 173 44 40 104 92 136 115 31 24
59 45 62 48 3 3 34 19 70 35 122 54 256 46 460 -30 152 -56 508 -145 583 -145
49 0 63 52 25 87 -93 85 -459 284 -638 348 -188 67 -370 91 -483 64z"/>
<path d="M5787 10213 c-4 -3 -7 -15 -7 -26 0 -10 -10 -27 -22 -37 -18 -15 -21
-22 -13 -36 15 -25 29 -20 39 14 6 21 17 33 35 37 32 8 43 25 29 42 -11 14
-50 18 -61 6z"/>
<path d="M5636 10113 c-14 -15 -25 -32 -23 -38 5 -15 43 -18 66 -6 15 9 18 17
12 38 -10 37 -25 39 -55 6z"/>
<path d="M5906 10111 c-14 -16 -15 -19 -2 -24 19 -7 51 17 42 31 -10 17 -20
15 -40 -7z"/>
<path d="M5807 10073 c-17 -17 -6 -34 20 -31 36 4 45 38 10 38 -13 0 -27 -3
-30 -7z"/>
<path d="M6404 9990 c-14 -14 -6 -60 10 -60 23 0 48 26 44 46 -4 22 -38 30
-54 14z"/>
<path d="M5985 9868 c-16 -52 -5 -108 12 -60 3 9 13 25 20 34 8 9 12 22 8 27
-9 15 -35 14 -40 -1z"/>
<path d="M5700 9735 c0 -9 -13 -24 -30 -33 -16 -9 -30 -20 -30 -24 0 -16 47
-7 63 10 19 20 23 62 7 62 -5 0 -10 -7 -10 -15z"/>
<path d="M6454 9625 c-4 -9 -2 -21 4 -27 16 -16 47 -5 47 17 0 26 -42 34 -51
10z"/>
<path d="M6817 9613 c-4 -3 -7 -15 -7 -25 0 -23 35 -24 57 -2 14 13 14 17 2
25 -17 10 -43 12 -52 2z"/>
<path d="M7247 9473 c-4 -3 -7 -19 -7 -35 0 -23 4 -28 25 -28 29 0 50 36 33
58 -11 13 -40 16 -51 5z"/>
<path d="M5787 9453 c-4 -3 -7 -17 -7 -30 0 -16 6 -23 19 -23 24 0 45 25 37
45 -5 15 -37 21 -49 8z"/>
<path d="M6124 9426 c-9 -22 15 -48 40 -44 15 2 21 10 21 28 0 20 -6 26 -28
28 -18 2 -29 -2 -33 -12z"/>
<path d="M6876 9425 c-11 -29 -7 -36 17 -33 14 2 22 10 22 23 0 24 -30 32 -39
10z"/>
<path d="M7567 9403 c-4 -3 -7 -17 -7 -30 0 -18 6 -23 24 -23 25 0 43 30 31
50 -7 11 -38 13 -48 3z"/>
<path d="M5902 9298 c-33 -33 8 -115 46 -92 24 16 39 61 26 82 -14 21 -55 27
-72 10z"/>
<path d="M7505 9300 c-11 -18 13 -36 31 -25 9 6 16 15 17 20 3 14 -40 18 -48
5z"/>
<path d="M7740 9290 c0 -25 25 -36 45 -20 25 21 18 40 -15 40 -23 0 -30 -4
-30 -20z"/>
<path d="M5460 9254 c-93 -73 -230 -206 -230 -224 0 -17 18 -30 45 -30 7 0 53
40 101 88 49 48 109 104 134 124 38 31 43 39 34 55 -17 28 -35 25 -84 -13z"/>
<path d="M7828 9253 c-38 -10 -21 -59 18 -51 27 5 42 36 24 48 -8 5 -17 9 -20
9 -3 -1 -12 -3 -22 -6z"/>
<path d="M7187 9204 c-12 -13 -7 -51 8 -64 22 -18 37 0 33 36 -3 28 -26 43
-41 28z"/>
<path d="M7901 9158 c-11 -29 -4 -46 20 -53 38 -12 65 35 37 63 -19 19 -48 14
-57 -10z"/>
<path d="M7556 9024 c-4 -10 -2 -22 3 -27 14 -14 43 0 39 20 -4 24 -34 28 -42
7z"/>
<path d="M6367 9002 c-22 -24 -21 -45 1 -65 25 -23 48 -21 66 5 20 28 20 43 0
62 -21 21 -47 20 -67 -2z"/>
<path d="M5401 8956 c-14 -17 -5 -43 20 -56 25 -14 26 -13 45 15 13 20 14 28
4 40 -16 19 -54 19 -69 1z"/>
<path d="M6806 8891 c-14 -15 -15 -24 -6 -40 23 -43 100 -9 85 38 -8 27 -55
28 -79 2z"/>
<path d="M7294 8875 c-10 -25 4 -45 30 -45 23 0 36 16 36 46 0 19 -59 19 -66
-1z"/>
<path d="M5548 8749 c-31 -18 -17 -79 18 -79 23 0 45 31 38 54 -6 19 -22 36
-34 36 -3 -1 -13 -5 -22 -11z"/>
<path d="M7243 8744 c-8 -21 13 -42 28 -27 13 13 5 43 -11 43 -6 0 -13 -7 -17
-16z"/>
<path d="M5862 8658 c-17 -17 -15 -32 7 -52 22 -20 47 -12 55 17 10 38 -34 63
-62 35z"/>
<path d="M5687 8653 c-4 -3 -7 -15 -7 -25 0 -23 48 -25 57 -2 9 23 -32 45 -50
27z"/>
<path d="M7257 8633 c-12 -11 -8 -23 8 -23 8 0 15 7 15 15 0 16 -12 20 -23 8z"/>
<path d="M7140 8530 c0 -15 5 -20 18 -18 9 2 17 10 17 18 0 8 -8 16 -17 18
-13 2 -18 -3 -18 -18z"/>
<path d="M6284 8469 c-9 -15 27 -78 49 -85 24 -8 47 13 47 42 0 36 -78 71 -96
43z"/>
<path d="M7013 8453 c-18 -7 -16 -30 2 -37 15 -5 39 26 28 38 -7 7 -12 7 -30
-1z"/>
<path d="M6532 8418 c-36 -36 7 -91 55 -69 20 9 24 17 21 44 -3 27 -7 32 -33
35 -17 2 -36 -3 -43 -10z"/>
<path d="M5092 8408 c-18 -18 -15 -31 16 -65 22 -25 31 -29 50 -22 28 11 29
48 2 77 -23 24 -50 28 -68 10z"/>
<path d="M7005 8360 c-9 -15 4 -30 26 -30 12 0 19 7 19 20 0 21 -33 29 -45 10z"/>
<path d="M4867 8283 c-14 -13 -7 -33 11 -33 24 0 32 8 25 26 -5 15 -25 19 -36
7z"/>
<path d="M5413 8259 c-18 -18 -3 -49 23 -49 28 0 49 31 32 48 -15 15 -41 15
-55 1z"/>
<path d="M6937 8263 c-4 -3 -7 -15 -7 -25 0 -29 44 -20 48 10 3 16 -2 22 -16
22 -10 0 -22 -3 -25 -7z"/>
<path d="M5865 8211 c-19 -42 -13 -81 12 -81 28 0 81 31 86 51 7 26 -29 69
-57 69 -17 0 -28 -10 -41 -39z"/>
<path d="M4803 8183 c-14 -5 -18 -35 -7 -46 10 -10 44 12 44 27 0 16 -19 25
-37 19z"/>
<path d="M4904 8175 c-4 -9 -2 -21 4 -27 15 -15 44 -1 40 19 -4 23 -36 29 -44
8z"/>
<path d="M6895 8180 c-8 -13 14 -42 26 -34 5 3 14 14 19 25 9 16 7 19 -14 19
-14 0 -28 -5 -31 -10z"/>
<path d="M6830 8089 c-16 -29 -5 -49 24 -49 19 0 27 7 32 24 3 14 3 30 -1 35
-11 18 -44 12 -55 -10z"/>
<path d="M4843 8074 c-3 -8 2 -23 11 -32 15 -15 17 -15 32 0 21 21 11 48 -16
48 -11 0 -23 -7 -27 -16z"/>
<path d="M5367 8062 c-44 -49 11 -112 57 -66 25 25 20 63 -10 74 -32 12 -28
13 -47 -8z"/>
<path d="M4773 7983 c-7 -17 32 -56 50 -50 18 6 31 33 24 51 -9 22 -65 22 -74
-1z"/>
<path d="M6783 7974 c-7 -18 11 -39 26 -30 17 11 13 46 -4 46 -9 0 -18 -7 -22
-16z"/>
<path d="M6853 7904 c-7 -3 -13 -16 -13 -29 0 -30 46 -44 69 -20 28 28 -15 66
-56 49z"/>
<path d="M4860 7884 c-11 -12 -10 -18 3 -32 16 -15 18 -15 33 0 19 18 12 48
-9 48 -8 0 -20 -7 -27 -16z"/>
<path d="M6710 7881 c-15 -28 -13 -31 19 -31 28 0 47 22 35 41 -9 16 -43 10
-54 -10z"/>
<path d="M6091 7844 c-23 -29 -24 -34 -15 -58 14 -36 94 0 94 42 0 46 -48 55
-79 16z"/>
<path d="M6560 7850 c-15 -27 -3 -60 20 -60 21 0 40 28 40 59 0 29 -45 29 -60
1z"/>
<path d="M4801 7787 c-18 -23 -2 -49 28 -45 20 2 26 8 26 28 0 29 -34 40 -54
17z"/>
<path d="M6794 7785 c-9 -23 3 -45 25 -45 20 0 37 32 26 50 -9 15 -45 12 -51
-5z"/>
<path d="M5667 7763 c-13 -12 -7 -51 11 -73 21 -26 50 -18 58 17 10 39 -43 82
-69 56z"/>
<path d="M4742 7698 c-30 -30 0 -78 37 -58 26 14 27 46 2 60 -24 13 -24 13
-39 -2z"/>
<path d="M6863 7693 c-31 -6 -33 -59 -2 -68 26 -9 61 21 57 49 -3 22 -18 27
-55 19z"/>
<path d="M6711 7681 c-16 -10 -7 -47 15 -55 24 -9 54 12 54 39 0 21 -5 25 -27
25 -16 0 -34 -4 -42 -9z"/>
<path d="M6593 7664 c-7 -18 11 -39 26 -30 17 11 13 46 -4 46 -9 0 -18 -7 -22
-16z"/>
<path d="M4666 7584 c-19 -19 -20 -26 -4 -42 18 -18 56 -14 68 7 7 15 6 23 -6
35 -20 20 -38 20 -58 0z"/>
<path d="M4812 7591 c-21 -13 -10 -46 16 -49 27 -4 40 22 22 43 -14 17 -20 18
-38 6z"/>
<path d="M5180 7580 c-24 -24 -24 -30 -7 -54 18 -25 55 -17 75 17 16 27 16 29
-2 43 -27 19 -42 18 -66 -6z"/>
<path d="M6650 7580 c-33 -33 -19 -70 25 -70 12 0 26 5 33 12 17 17 15 65 -4
72 -25 9 -33 7 -54 -14z"/>
<path d="M6500 7575 c-7 -8 -10 -25 -6 -40 5 -21 12 -25 41 -25 38 0 61 27 50
60 -8 24 -66 28 -85 5z"/>
<path d="M6775 7571 c-8 -27 2 -58 22 -65 23 -9 54 23 51 53 -2 21 -9 27 -35
29 -24 2 -33 -1 -38 -17z"/>
<path d="M6911 7568 c-9 -25 11 -58 35 -58 22 0 44 41 33 62 -14 26 -58 24
-68 -4z"/>
<path d="M6367 7566 c-23 -24 -10 -56 23 -56 32 0 53 21 48 47 -4 23 -51 29
-71 9z"/>
<path d="M6082 7558 c-23 -23 -14 -48 17 -48 35 0 50 28 25 47 -22 16 -27 16
-42 1z"/>
<path d="M6227 7563 c-4 -3 -7 -17 -7 -30 0 -18 6 -23 24 -23 28 0 51 24 42
45 -5 15 -47 21 -59 8z"/>
<path d="M4736 7473 c-9 -23 8 -37 38 -29 38 9 36 46 -3 46 -18 0 -31 -6 -35
-17z"/>
<path d="M4613 7473 c-20 -8 -16 -53 5 -53 27 0 44 16 40 36 -3 19 -23 27 -45
17z"/>
<path d="M5580 7470 c0 -5 5 -10 10 -10 6 0 10 5 10 10 0 6 -4 10 -10 10 -5 0
-10 -4 -10 -10z"/>
<path d="M5720 7455 c0 -21 27 -30 45 -15 19 16 10 30 -21 30 -15 0 -24 -6
-24 -15z"/>
<path d="M5853 7455 c-7 -20 14 -36 42 -33 12 2 20 11 20 23 0 26 -52 35 -62
10z"/>
<path d="M6000 7455 c-30 -36 25 -82 61 -49 24 22 24 40 0 54 -27 14 -46 13
-61 -5z"/>
<path d="M6434 7455 c-4 -9 0 -24 9 -33 13 -13 21 -13 42 -4 37 17 29 46 -13
50 -23 2 -34 -2 -38 -13z"/>
<path d="M6133 7444 c-10 -26 11 -49 43 -49 25 0 29 4 32 33 3 31 2 32 -33 32
-24 0 -38 -5 -42 -16z"/>
<path d="M6274 7446 c-3 -8 -4 -23 -2 -33 8 -41 88 -19 88 24 0 20 -5 23 -40
23 -26 0 -43 -5 -46 -14z"/>
<path d="M5511 7386 c-20 -23 -10 -60 17 -64 32 -5 54 16 50 47 -2 20 -9 27
-29 29 -14 2 -31 -4 -38 -12z"/>
<path d="M5658 7389 c-22 -12 -23 -52 -3 -69 12 -10 21 -10 40 -2 31 14 34 56
6 72 -23 12 -22 12 -43 -1z"/>
<path d="M5791 7386 c-29 -35 10 -93 47 -70 19 12 26 43 15 60 -14 20 -49 25
-62 10z"/>
<path d="M5376 7374 c-20 -20 -18 -43 7 -58 25 -16 52 4 52 40 0 35 -33 45
-59 18z"/>
<path d="M4682 7368 c-18 -18 -14 -45 8 -51 23 -6 43 15 38 40 -4 22 -29 28
-46 11z"/>
<path d="M5920 7345 c0 -43 69 -59 84 -18 10 24 -13 43 -50 43 -29 0 -34 -3
-34 -25z"/>
<path d="M5241 7341 c-20 -37 -8 -46 47 -35 17 3 22 10 20 27 -4 30 -52 36
-67 8z"/>
<path d="M5124 7336 c-8 -22 3 -33 18 -18 9 9 9 15 0 24 -9 9 -13 7 -18 -6z"/>
<path d="M5181 7276 c-33 -35 -24 -60 21 -64 33 -3 38 0 44 21 7 29 -10 67
-30 67 -7 0 -23 -11 -35 -24z"/>
<path d="M4891 7276 c-7 -8 -11 -27 -9 -43 6 -50 78 -40 78 11 0 41 -45 62
-69 32z"/>
<path d="M5037 7272 c-25 -27 -21 -51 10 -58 45 -12 80 28 53 61 -17 20 -44
19 -63 -3z"/>
<path d="M5312 7278 c-19 -19 -15 -56 8 -63 28 -9 52 13 48 44 -3 29 -35 40
-56 19z"/>
<path d="M5604 7282 c-6 -4 -13 -15 -17 -24 -5 -13 0 -19 19 -24 24 -6 43 6
44 28 0 12 -35 27 -46 20z"/>
<path d="M4750 7266 c-18 -23 -8 -61 17 -64 48 -7 81 36 51 66 -16 16 -53 15
-68 -2z"/>
<path d="M5447 7273 c-4 -3 -7 -17 -7 -30 0 -18 6 -23 24 -23 28 0 51 24 42
45 -5 15 -47 21 -59 8z"/>
<path d="M4612 7258 c-28 -28 1 -64 43 -54 40 10 27 66 -15 66 -9 0 -21 -5
-28 -12z"/>
<path d="M4696 7155 c-12 -13 -13 -21 -4 -40 15 -34 55 -34 70 1 11 22 10 28
-7 40 -24 18 -40 18 -59 -1z"/>
<path d="M4827 7155 c-9 -8 -13 -24 -10 -34 10 -38 66 -38 78 0 13 40 -37 65
-68 34z"/>
<path d="M4962 7158 c-16 -16 -15 -33 3 -48 19 -15 61 -6 69 16 13 35 -44 60
-72 32z"/>
<path d="M4440 7145 c-16 -19 -6 -45 18 -45 25 0 46 25 38 45 -7 19 -40 19
-56 0z"/>
<path d="M4562 7151 c-20 -12 -10 -46 14 -49 24 -3 57 24 51 42 -5 14 -48 19
-65 7z"/>
<path d="M4386 7051 c-10 -16 5 -41 25 -41 11 0 22 7 26 16 9 24 -38 47 -51
25z"/>
<path d="M4507 7044 c-12 -12 6 -34 29 -34 17 0 24 6 24 20 0 14 -7 20 -23 20
-13 0 -26 -3 -30 -6z"/>
<path d="M3798 6699 c-42 -24 -1 -82 42 -59 24 13 27 55 4 64 -21 8 -26 7 -46
-5z"/>
<path d="M3922 6698 c-33 -33 5 -76 52 -58 43 16 28 70 -19 70 -12 0 -26 -5
-33 -12z"/>
<path d="M4057 6703 c-12 -11 -7 -41 9 -57 20 -21 30 -20 54 4 16 16 18 25 10
40 -10 20 -59 28 -73 13z"/>
<path d="M4190 6695 c-20 -24 -8 -50 26 -53 36 -4 59 18 49 48 -8 24 -56 28
-75 5z"/>
<path d="M4320 6691 c-13 -25 -3 -51 21 -51 22 0 50 37 42 56 -8 21 -51 17
-63 -5z"/>
<path d="M3725 6584 c-9 -9 -15 -26 -13 -38 2 -17 10 -21 43 -21 37 0 40 2 43
29 5 44 -40 63 -73 30z"/>
<path d="M3851 6578 c-12 -31 4 -58 33 -58 30 0 48 22 44 52 -2 18 -10 24 -36
26 -26 3 -34 -1 -41 -20z"/>
<path d="M4010 6593 c-20 -8 -30 -24 -30 -50 0 -19 6 -23 29 -23 33 0 61 23
61 50 0 25 -27 35 -60 23z"/>
<path d="M4141 6591 c-19 -12 -6 -41 17 -41 11 0 25 7 33 16 10 13 10 17 -2
25 -18 11 -30 11 -48 0z"/>
<path d="M3618 6493 c-36 -9 -33 -73 3 -73 26 0 69 29 69 46 0 7 -9 18 -19 24
-20 10 -25 11 -53 3z"/>
<path d="M3763 6480 c-28 -11 -29 -22 -5 -43 37 -34 92 -16 92 30 0 19 -5 23
-32 22 -18 0 -43 -4 -55 -9z"/>
<path d="M3545 6386 c-25 -18 -16 -60 13 -64 30 -4 54 16 50 41 -4 26 -41 39
-63 23z"/>
<path d="M3406 6374 c-9 -8 -16 -17 -16 -19 0 -2 7 -11 16 -19 22 -22 51 -20
64 5 22 40 -31 67 -64 33z"/>
<path d="M3660 6356 c0 -16 7 -27 20 -31 20 -6 60 9 60 23 0 17 -25 32 -52 32
-23 0 -28 -4 -28 -24z"/>
<path d="M7802 6348 c5 -34 38 -37 38 -4 0 20 -5 26 -21 26 -15 0 -20 -5 -17
-22z"/>
<path d="M3348 6269 c-25 -14 -22 -48 5 -58 43 -16 76 26 45 57 -14 14 -27 15
-50 1z"/>
<path d="M3472 6268 c-30 -30 0 -75 43 -64 25 6 43 45 30 65 -9 15 -58 14 -73
-1z"/>
<path d="M3618 6269 c-29 -17 -22 -39 13 -39 26 0 30 3 27 22 -4 26 -17 31
-40 17z"/>
<path d="M7868 6273 c-25 -6 -29 -29 -8 -48 25 -22 54 -15 58 14 3 21 -13 43
-28 40 -3 -1 -12 -3 -22 -6z"/>
<path d="M3266 6164 c-9 -8 -16 -19 -16 -24 0 -15 31 -40 49 -40 23 0 41 20
41 46 0 34 -47 46 -74 18z"/>
<path d="M3406 6165 c-20 -20 -20 -39 -2 -55 35 -28 93 11 70 48 -15 23 -48
27 -68 7z"/>
<path d="M7930 6165 c-6 -8 -9 -23 -5 -35 5 -15 15 -20 41 -20 29 0 34 3 34
25 0 37 -47 58 -70 30z"/>
<path d="M3544 6155 c-3 -8 -3 -19 0 -24 9 -13 36 -2 36 14 0 19 -30 27 -36
10z"/>
<path d="M3062 6058 c-35 -35 11 -82 54 -53 38 24 25 65 -21 65 -12 0 -26 -5
-33 -12z"/>
<path d="M3190 6055 c-27 -33 20 -76 60 -55 22 12 31 45 17 59 -16 16 -62 14
-77 -4z"/>
<path d="M3331 6056 c-30 -36 9 -78 54 -58 21 10 26 18 23 40 -2 22 -9 28 -34
30 -18 2 -36 -3 -43 -12z"/>
<path d="M8002 6038 c4 -41 40 -52 58 -18 15 27 -2 50 -37 50 -21 0 -24 -4
-21 -32z"/>
<path d="M8133 6063 c-18 -7 -16 -48 2 -63 21 -17 65 2 65 28 0 33 -31 50 -67
35z"/>
<path d="M3475 6040 c-3 -5 3 -10 14 -10 12 0 21 5 21 10 0 6 -6 10 -14 10 -8
0 -18 -4 -21 -10z"/>
<path d="M2860 5945 c-26 -32 13 -81 48 -59 34 22 22 74 -18 74 -10 0 -23 -7
-30 -15z"/>
<path d="M2992 5948 c-27 -27 -6 -68 34 -68 33 0 49 25 36 55 -13 27 -49 34
-70 13z"/>
<path d="M3132 5952 c-8 -5 -12 -22 -10 -38 3 -26 7 -29 38 -29 33 0 35 2 35
35 0 30 -4 35 -25 38 -14 1 -31 -2 -38 -6z"/>
<path d="M3262 5951 c-21 -13 -11 -55 14 -59 25 -4 59 31 51 53 -7 16 -44 20
-65 6z"/>
<path d="M8082 5938 c2 -12 10 -23 18 -23 22 0 19 39 -3 43 -15 3 -18 -1 -15
-20z"/>
<path d="M8196 5947 c-40 -29 2 -80 48 -59 31 14 34 47 7 62 -26 13 -33 13
-55 -3z"/>
<path d="M8316 5944 c-15 -38 47 -81 79 -54 20 16 19 56 -1 64 -30 11 -72 6
-78 -10z"/>
<path d="M2792 5848 c-18 -18 -14 -46 7 -58 30 -15 49 -12 61 10 22 42 -34 82
-68 48z"/>
<path d="M2926 5844 c-33 -32 -1 -72 48 -60 24 6 27 11 24 39 -2 26 -8 33 -29
35 -15 2 -34 -4 -43 -14z"/>
<path d="M3058 5835 c-17 -37 10 -63 49 -49 38 13 45 58 11 68 -39 10 -48 7
-60 -19z"/>
<path d="M8278 5849 c-22 -12 -23 -42 -4 -58 23 -19 71 -10 74 14 4 38 -36 64
-70 44z"/>
<path d="M8414 5853 c-37 -28 -8 -91 38 -80 26 7 55 54 41 68 -13 13 -66 21
-79 12z"/>
<path d="M8563 5845 c-30 -21 -29 -43 1 -56 35 -16 68 4 64 39 -4 33 -33 40
-65 17z"/>
<path d="M3195 5829 c-8 -25 6 -42 31 -37 12 2 20 13 22 31 3 23 0 27 -22 27
-16 0 -27 -7 -31 -21z"/>
<path d="M3008 5749 c-22 -12 -23 -52 -3 -69 12 -10 21 -10 40 -2 31 14 34 56
6 72 -23 12 -22 12 -43 -1z"/>
<path d="M2851 5736 c-21 -26 4 -58 42 -54 28 3 32 7 32 33 0 26 -4 30 -31 33
-18 2 -36 -3 -43 -12z"/>
<path d="M3130 5729 c-12 -22 1 -49 25 -49 19 0 48 38 42 55 -9 22 -54 19 -67
-6z"/>
<path d="M8370 5740 c-20 -12 -1 -45 26 -45 22 0 32 34 12 46 -17 11 -20 11
-38 -1z"/>
<path d="M8480 5735 c-21 -26 3 -65 40 -65 23 0 31 5 36 25 3 14 4 32 0 40 -7
20 -60 19 -76 0z"/>
<path d="M8614 5725 c-9 -38 2 -55 35 -55 26 0 61 21 61 36 0 24 -25 44 -55
44 -29 0 -36 -4 -41 -25z"/>
<path d="M8762 5738 c-30 -30 0 -75 42 -64 27 7 41 43 24 63 -13 16 -50 17
-66 1z"/>
<path d="M3071 5622 c-13 -25 8 -56 35 -50 29 5 27 62 -3 66 -13 2 -26 -4 -32
-16z"/>
<path d="M8560 5630 c-11 -7 -12 -15 -4 -37 16 -48 74 -38 74 12 0 32 -38 45
-70 25z"/>
<path d="M8455 5620 c-8 -13 13 -40 31 -40 8 0 14 10 14 25 0 18 -5 25 -19 25
-11 0 -23 -5 -26 -10z"/>
<path d="M7826 4104 c-12 -11 -13 -20 -6 -34 18 -33 57 -1 44 35 -8 19 -19 19
-38 -1z"/>
<path d="M3811 4090 c-17 -10 -7 -40 14 -40 8 0 15 9 15 19 0 24 -12 32 -29
21z"/>
<path d="M3852 3871 c-8 -5 -12 -21 -10 -37 2 -23 8 -29 28 -29 18 0 26 6 28
23 3 22 -13 52 -27 52 -3 0 -12 -4 -19 -9z"/>
<path d="M7772 3848 c-7 -7 -12 -23 -12 -36 0 -19 5 -23 23 -20 17 2 22 10 22
32 0 32 -14 43 -33 24z"/>
<path d="M3894 3745 c-9 -23 3 -45 25 -45 25 0 32 11 24 38 -6 25 -41 30 -49
7z"/>
<path d="M7752 3651 c-20 -12 -10 -46 13 -49 32 -4 52 14 39 35 -13 21 -33 27
-52 14z"/>
<path d="M3880 3542 c0 -31 19 -46 46 -35 9 3 14 15 12 32 -2 20 -9 27 -30 29
-25 3 -28 0 -28 -26z"/>
<path d="M7703 3558 c-11 -13 -16 -33 -14 -56 2 -19 52 -11 65 11 21 33 -27
75 -51 45z"/>
<path d="M3940 3461 c-21 -41 1 -78 40 -66 27 9 28 60 1 75 -26 14 -29 13 -41
-9z"/>
<path d="M7652 3438 c-7 -7 -12 -20 -12 -31 0 -14 6 -18 28 -15 21 2 28 9 30
31 3 21 -1 27 -15 27 -11 0 -24 -5 -31 -12z"/>
<path d="M3989 3339 c-7 -14 -8 -24 -1 -31 17 -17 42 -1 42 27 0 31 -25 34
-41 4z"/>
<path d="M7694 3325 c-8 -34 7 -49 41 -41 21 5 26 12 23 34 -2 21 -9 28 -30
30 -22 3 -29 -2 -34 -23z"/>
<path d="M3932 3258 c-17 -17 -15 -65 4 -72 29 -11 55 12 52 47 -3 35 -33 48
-56 25z"/>
<path d="M7661 3231 c-12 -12 -21 -24 -21 -28 1 -20 19 -34 40 -31 31 4 48 33
34 55 -16 25 -31 26 -53 4z"/>
<path d="M3994 3146 c-18 -14 -18 -17 -4 -43 21 -37 47 -42 55 -10 7 25 -9 67
-23 67 -5 0 -17 -6 -28 -14z"/>
<path d="M7614 3126 c-10 -26 0 -51 21 -51 16 0 20 7 20 30 0 33 -30 49 -41
21z"/>
<path d="M7720 3105 c0 -31 26 -43 47 -22 21 21 9 47 -22 47 -20 0 -25 -5 -25
-25z"/>
<path d="M3920 3021 c0 -34 27 -48 60 -31 38 20 17 60 -32 60 -24 0 -28 -4
-28 -29z"/>
<path d="M7662 3028 c-18 -18 -14 -46 7 -58 28 -15 39 -13 51 11 9 16 8 25 -6
40 -20 22 -35 24 -52 7z"/>
<path d="M3994 2946 c-11 -29 1 -51 29 -54 32 -4 44 16 27 47 -12 24 -48 28
-56 7z"/>
<path d="M7616 2924 c-8 -21 1 -34 24 -34 19 0 34 25 24 41 -9 15 -41 10 -48
-7z"/>
<path d="M7717 2933 c-4 -3 -7 -15 -7 -25 0 -13 8 -18 29 -18 35 0 48 15 31
35 -13 16 -42 20 -53 8z"/>
<path d="M3927 2854 c-16 -16 -7 -63 13 -69 32 -10 62 12 58 43 -2 22 -9 28
-33 30 -17 2 -34 0 -38 -4z"/>
<path d="M7598 2849 c-39 -23 -8 -71 32 -49 27 14 32 38 10 50 -22 12 -21 12
-42 -1z"/>
<path d="M7707 2843 c-4 -3 -7 -17 -7 -30 0 -19 5 -23 29 -23 32 0 48 24 30
46 -12 15 -41 19 -52 7z"/>
<path d="M7653 2748 c-19 -25 -22 -48 -7 -63 19 -19 29 -19 48 1 22 21 20 51
-3 64 -25 13 -27 13 -38 -2z"/>
<path d="M3998 2726 c-8 -38 5 -50 46 -42 46 9 55 25 26 48 -33 26 -67 24 -72
-6z"/>
<path d="M7544 2735 c-8 -21 3 -45 20 -45 20 0 29 16 21 40 -7 23 -33 27 -41
5z"/>
<path d="M3933 2643 c-7 -2 -13 -17 -13 -33 0 -36 27 -47 53 -22 16 16 17 23
8 41 -12 21 -24 24 -48 14z"/>
<path d="M4045 2640 c-10 -17 5 -70 20 -70 22 0 45 29 38 48 -11 30 -45 43
-58 22z"/>
<path d="M7572 2638 c-32 -32 2 -79 43 -60 30 14 33 47 6 62 -25 13 -34 13
-49 -2z"/>
<path d="M7691 2626 c-9 -11 -10 -20 -1 -35 21 -40 79 -15 65 29 -7 24 -46 27
-64 6z"/>
<path d="M7543 2537 c-16 -7 -23 -19 -23 -39 0 -35 23 -37 46 -4 21 33 8 57
-23 43z"/>
<path d="M3983 2533 c-20 -7 -15 -51 6 -63 36 -19 68 11 56 51 -6 18 -34 24
-62 12z"/>
<path d="M4100 2520 c-13 -24 -3 -50 20 -50 24 0 33 15 25 39 -8 27 -33 34
-45 11z"/>
<path d="M7636 2525 c-9 -9 -16 -25 -16 -36 0 -15 7 -19 35 -19 39 0 55 21 38
49 -14 22 -38 25 -57 6z"/>
<path d="M3907 2423 c-14 -13 -6 -53 12 -63 15 -7 24 -5 41 8 31 25 20 62 -19
62 -15 0 -31 -3 -34 -7z"/>
<path d="M4042 2418 c-16 -16 -15 -33 4 -52 20 -21 30 -20 54 4 16 16 18 25
10 40 -12 22 -49 27 -68 8z"/>
<path d="M7554 2423 c-37 -27 -15 -67 33 -61 24 3 28 8 28 33 0 25 -4 30 -25
33 -14 1 -30 -1 -36 -5z"/>
<path d="M7687 2424 c-4 -4 -7 -20 -7 -35 0 -36 33 -48 61 -23 29 27 21 58
-16 62 -17 2 -34 0 -38 -4z"/>
<path d="M3977 2312 c-21 -23 -21 -36 -1 -56 20 -21 30 -20 54 4 24 24 25 34
4 54 -20 21 -37 20 -57 -2z"/>
<path d="M7620 2311 c-22 -42 -7 -67 34 -57 29 7 39 31 26 57 -14 25 -46 25
-60 0z"/>
<path d="M4104 2306 c-11 -28 1 -51 27 -54 29 -3 44 18 34 49 -8 23 -53 26
-61 5z"/>
<path d="M7495 2304 c-21 -22 -15 -48 12 -52 14 -2 26 4 33 18 23 42 -11 67
-45 34z"/>
<path d="M4037 2213 c-4 -3 -7 -19 -7 -35 0 -25 3 -28 34 -28 36 0 51 18 41
51 -6 19 -54 27 -68 12z"/>
<path d="M4172 2211 c-8 -5 -12 -21 -10 -37 2 -23 9 -30 31 -32 35 -4 45 19
23 53 -18 27 -24 29 -44 16z"/>
<path d="M7440 2205 c-19 -23 -8 -50 20 -50 19 0 26 6 28 24 5 35 -26 53 -48
26z"/>
<path d="M7556 2204 c-19 -18 -19 -20 -6 -45 6 -10 19 -19 30 -19 19 0 50 25
50 40 0 13 -30 40 -45 40 -7 0 -21 -7 -29 -16z"/>
<path d="M4096 2092 c-9 -26 2 -50 25 -57 27 -9 51 13 47 44 -2 21 -9 27 -35
29 -24 2 -33 -1 -37 -16z"/>
<path d="M7386 2095 c-6 -18 2 -45 15 -45 12 0 31 39 24 50 -9 15 -32 12 -39
-5z"/>
<path d="M7492 2098 c-25 -25 -6 -68 30 -68 21 0 43 41 35 64 -7 19 -48 21
-65 4z"/>
<path d="M4229 2088 c-4 -39 13 -61 38 -51 27 11 7 63 -24 63 -7 0 -14 -6 -14
-12z"/>
<path d="M7436 1997 c-28 -20 -17 -52 18 -52 36 0 56 26 37 49 -16 19 -31 20
-55 3z"/>
<path d="M7560 1990 c-14 -27 4 -52 34 -48 31 4 30 62 -1 66 -14 2 -26 -4 -33
-18z"/>
<path d="M4030 1981 c-8 -16 -5 -23 19 -40 27 -19 31 -20 45 -5 18 17 19 24
10 48 -9 23 -61 21 -74 -3z"/>
<path d="M4170 1985 c-6 -8 -9 -23 -5 -35 5 -17 13 -20 38 -18 28 3 32 7 35
36 3 30 1 32 -26 32 -16 0 -35 -7 -42 -15z"/>
<path d="M7352 1898 c-32 -32 4 -87 47 -73 24 7 36 52 20 71 -14 17 -51 18
-67 2z"/>
<path d="M7503 1888 c-28 -36 -19 -68 19 -68 22 0 52 44 44 65 -7 18 -50 20
-63 3z"/>
<path d="M4102 1858 c2 -27 8 -34 29 -36 31 -4 53 20 44 48 -5 15 -15 20 -41
20 -34 0 -35 -1 -32 -32z"/>
<path d="M4236 1872 c-11 -34 4 -53 38 -50 27 3 31 7 31 33 0 26 -4 30 -32 33
-24 2 -33 -1 -37 -16z"/>
<path d="M7435 1786 c-21 -15 -17 -55 8 -70 25 -16 52 4 52 39 0 33 -33 51
-60 31z"/>
<path d="M4173 1783 c-14 -5 -17 -31 -7 -57 9 -24 61 -21 74 4 21 40 -20 73
-67 53z"/>
<path d="M4307 1783 c-14 -13 -7 -61 9 -67 20 -8 44 10 44 33 0 30 -35 52 -53
34z"/>
<path d="M7303 1764 c-7 -18 6 -45 25 -52 15 -5 33 33 26 52 -8 21 -43 21 -51
0z"/>
<path d="M4238 1656 c-21 -48 20 -77 56 -40 19 19 20 36 4 52 -20 20 -48 14
-60 -12z"/>
<path d="M7360 1656 c0 -40 11 -56 36 -56 31 0 53 42 34 65 -7 8 -25 15 -41
15 -24 0 -29 -4 -29 -24z"/>
<path d="M4305 1563 c-26 -26 -15 -58 21 -61 35 -3 50 17 34 48 -14 26 -37 32
-55 13z"/>
<path d="M7310 1566 c-6 -8 -10 -25 -8 -38 2 -18 9 -23 33 -23 24 0 31 5 33
23 4 25 -13 52 -33 52 -7 0 -18 -7 -25 -14z"/>
<path d="M4161 1556 c-9 -11 -10 -20 -1 -35 13 -25 42 -27 65 -5 15 15 15 18
-1 35 -20 23 -47 24 -63 5z"/>
<path d="M7430 1549 c-15 -27 3 -49 40 -49 32 0 45 22 30 51 -14 26 -56 25
-70 -2z"/>
<path d="M4232 1458 c-29 -29 -2 -72 40 -66 42 6 32 78 -11 78 -9 0 -22 -5
-29 -12z"/>
<path d="M4372 1458 c-25 -25 -4 -78 32 -78 10 0 36 32 36 45 0 17 -27 45 -44
45 -6 0 -17 -5 -24 -12z"/>
<path d="M7376 1454 c-9 -9 -16 -26 -14 -38 2 -17 10 -21 38 -21 32 0 35 3 38
33 2 17 -1 32 -7 32 -5 0 -16 3 -24 6 -8 3 -22 -2 -31 -12z"/>
<path d="M7240 1439 c-16 -28 -5 -49 24 -49 28 0 49 29 40 54 -9 23 -51 20
-64 -5z"/>
<path d="M4153 1344 c-8 -23 14 -64 35 -64 41 0 57 51 23 70 -28 15 -51 12
-58 -6z"/>
<path d="M4300 1346 c-20 -26 -8 -61 22 -64 35 -4 60 37 38 63 -16 19 -44 19
-60 1z"/>
<path d="M7312 1348 c-7 -7 -12 -25 -12 -41 0 -27 2 -28 38 -25 30 2 38 7 40
26 6 42 -37 69 -66 40z"/>
<path d="M7442 1338 c-27 -27 -2 -73 35 -66 24 4 45 48 31 65 -13 16 -50 17
-66 1z"/>
<path d="M4431 1322 c-12 -22 3 -42 30 -42 23 0 32 15 24 40 -8 25 -41 26 -54
2z"/>
<path d="M7181 1322 c-8 -15 -7 -23 4 -32 23 -19 50 -8 50 20 0 32 -39 41 -54
12z"/>
<path d="M4097 1243 c-12 -12 -7 -50 8 -63 34 -28 80 24 48 55 -15 16 -45 20
-56 8z"/>
<path d="M4227 1243 c-14 -13 -7 -52 11 -61 40 -22 82 24 50 56 -13 13 -50 16
-61 5z"/>
<path d="M4373 1243 c-7 -2 -13 -18 -13 -34 0 -26 3 -29 30 -29 34 0 49 23 33
49 -11 17 -30 23 -50 14z"/>
<path d="M7252 1238 c-22 -22 -14 -57 15 -64 35 -9 56 17 41 52 -12 26 -37 31
-56 12z"/>
<path d="M7370 1231 c-13 -25 -4 -48 22 -55 44 -11 76 32 46 62 -18 18 -56 14
-68 -7z"/>
<path d="M7128 1215 c-10 -21 -9 -28 2 -35 21 -13 52 8 48 33 -5 32 -35 34
-50 2z"/>
<path d="M4495 1210 c-8 -25 1 -40 25 -40 10 0 22 5 25 10 11 17 -6 50 -25 50
-10 0 -21 -9 -25 -20z"/>
<path d="M4294 1114 c-8 -31 6 -47 36 -42 53 7 47 68 -6 68 -17 0 -25 -7 -30
-26z"/>
<path d="M4421 1121 c-16 -29 -3 -51 29 -51 57 0 69 63 13 68 -23 2 -34 -2
-42 -17z"/>
<path d="M7073 1133 c-18 -7 -16 -52 2 -59 19 -8 45 13 45 36 0 14 -23 34 -33
29 -1 0 -8 -3 -14 -6z"/>
<path d="M7181 1131 c-9 -6 -11 -18 -7 -35 5 -20 13 -26 35 -26 36 0 59 25 44
48 -12 19 -51 26 -72 13z"/>
<path d="M7316 1127 c-29 -21 -13 -57 25 -57 23 0 32 6 40 27 7 20 6 28 -3 35
-19 12 -42 10 -62 -5z"/>
<path d="M4554 1115 c-14 -35 24 -68 51 -45 11 9 11 17 3 36 -12 27 -45 32
-54 9z"/>
</g>
</svg>
