<?xml version="1.0" standalone="no"?>
<!DOCTYPE svg PUBLIC "-//W3C//DTD SVG 20010904//EN"
 "http://www.w3.org/TR/2001/REC-SVG-20010904/DTD/svg10.dtd">
<svg version="1.0" xmlns="http://www.w3.org/2000/svg"
 width="1276.000000pt" height="1832.000000pt" viewBox="0 0 1276.000000 1832.000000"
 preserveAspectRatio="xMidYMid meet">
<metadata>
Created by potrace 1.16, written by Peter Selinger 2001-2019
</metadata>
<g transform="translate(0.000000,1832.000000) scale(0.100000,-0.100000)"
fill="#a7262a" stroke="none">
<path d="M2685 17916 c-5 -2 -44 -12 -85 -21 -81 -18 -231 -91 -301 -146 -51
-40 -142 -135 -197 -205 -77 -97 -189 -303 -253 -461 -35 -88 -120 -365 -148
-483 -47 -199 -124 -607 -180 -960 -42 -265 -42 -264 -100 -720 -14 -110 -29
-241 -41 -360 -6 -58 -15 -145 -20 -195 -9 -81 -23 -254 -50 -640 -5 -71 -14
-240 -21 -375 -6 -135 -14 -299 -17 -365 l-7 -119 -100 -27 c-120 -31 -266
-82 -309 -107 -35 -20 -46 -61 -21 -82 13 -11 34 -5 133 34 104 41 255 86 287
86 9 0 14 -81 19 -312 4 -172 8 -338 9 -368 l2 -55 -65 -12 c-131 -23 -313
-72 -331 -89 -24 -22 -24 -39 1 -57 18 -12 30 -12 84 -1 35 7 74 15 87 18 13
3 70 16 127 30 57 15 107 26 113 26 5 0 9 -13 9 -29 0 -100 63 -404 113 -551
15 -40 24 -76 22 -78 -2 -2 2 -11 10 -19 16 -16 20 -32 8 -34 -5 -1 -19 -3
-33 -6 -14 -2 -81 -6 -150 -8 -69 -2 -131 -4 -138 -4 -22 -2 -36 -46 -22 -71
12 -23 13 -23 169 -16 86 4 171 8 190 9 34 2 36 0 90 -98 31 -55 69 -117 85
-138 16 -20 24 -37 20 -37 -5 0 -4 -4 2 -8 14 -9 114 -133 114 -141 0 -3 -14
-19 -31 -36 -73 -71 -136 -192 -171 -329 -18 -66 -22 -111 -22 -241 0 -167 14
-257 62 -383 11 -29 16 -49 11 -46 -5 3 -9 1 -9 -5 0 -5 -25 -22 -55 -36 -143
-70 -393 -271 -506 -407 -27 -33 -49 -56 -49 -52 0 4 -12 -11 -26 -32 -15 -21
-30 -40 -35 -42 -5 -2 -9 -10 -9 -18 0 -9 -4 -12 -10 -9 -5 3 -10 1 -10 -6 0
-6 -14 -35 -32 -63 -83 -132 -172 -316 -213 -441 -68 -205 -80 -290 -80 -560
l1 -230 38 -140 c76 -283 158 -437 328 -612 38 -40 96 -91 129 -114 32 -23 59
-46 59 -50 0 -5 7 -9 15 -9 22 0 95 -50 95 -65 0 -6 -18 -20 -39 -30 -192 -86
-417 -330 -541 -585 -17 -36 -38 -73 -47 -82 -9 -10 -13 -18 -10 -18 6 0 -11
-48 -46 -130 -5 -14 -11 -29 -12 -35 -2 -5 -10 -32 -20 -60 -37 -110 -96 -366
-114 -499 -28 -202 -36 -323 -34 -561 1 -353 35 -663 119 -1085 109 -548 126
-725 100 -1030 -20 -230 -31 -307 -82 -585 -85 -467 -70 -734 57 -1011 16 -35
28 -67 28 -70 0 -4 4 -10 9 -13 6 -3 31 -35 58 -71 26 -36 54 -70 62 -76 9 -7
12 -16 7 -24 -5 -8 -4 -11 2 -7 6 4 19 -3 29 -14 25 -28 147 -118 209 -155 55
-33 213 -103 286 -128 120 -40 391 -97 554 -117 223 -27 686 -13 910 27 44 8
100 17 124 20 25 3 52 9 60 13 9 5 52 18 96 30 250 68 447 189 587 361 44 55
112 179 129 238 7 23 16 42 21 42 5 0 7 4 4 9 -4 5 2 7 11 5 538 -113 883
-159 1414 -185 508 -26 1168 30 1751 149 129 26 137 27 147 10 6 -10 11 -24
11 -31 0 -19 63 -145 98 -197 17 -24 28 -48 26 -52 -3 -5 -2 -7 3 -6 4 1 40
-29 78 -68 39 -39 98 -88 133 -109 34 -21 62 -41 62 -45 0 -4 6 -7 13 -7 6 -1
57 -22 112 -47 246 -112 598 -170 1025 -169 219 0 281 4 440 26 358 51 606
133 824 274 78 50 205 174 255 248 66 97 134 245 157 340 26 104 37 209 37
340 -1 144 -7 200 -53 485 -45 274 -60 388 -71 533 -12 156 -7 389 11 520 5
39 15 108 21 152 10 79 24 157 74 428 91 485 124 877 106 1242 -11 219 -38
442 -70 575 -11 47 -22 97 -25 110 -37 173 -157 481 -240 615 -42 67 -92 142
-124 184 -24 33 -29 47 -20 52 7 4 54 10 103 13 137 11 281 34 374 60 46 14
90 22 97 19 8 -3 14 0 14 6 0 6 7 11 16 11 25 0 302 109 369 145 33 18 76 41
95 51 19 11 37 21 40 24 3 3 41 29 86 58 44 29 89 60 100 70 10 9 39 33 64 53
64 52 137 124 199 197 30 34 60 62 68 62 8 0 11 5 8 10 -3 6 9 29 28 53 38 47
167 234 167 242 0 3 11 22 24 43 30 47 107 199 141 277 211 482 331 1020 385
1715 15 199 12 875 -5 1155 -25 416 -44 603 -100 1030 -20 149 -51 319 -80
442 -33 137 -45 326 -45 703 0 301 11 476 39 615 17 86 70 318 81 355 33 107
89 399 105 549 24 213 14 467 -23 611 -22 83 -74 217 -112 284 -124 226 -307
372 -580 465 -36 12 -74 26 -85 31 -11 5 -36 11 -55 13 -19 3 -84 12 -145 21
-250 36 -549 11 -735 -61 -188 -73 -279 -131 -386 -246 -234 -250 -337 -607
-321 -1102 9 -257 41 -475 127 -860 64 -283 64 -361 1 -1270 -12 -165 -26
-358 -31 -430 -6 -71 -15 -191 -21 -265 -5 -74 -14 -182 -20 -240 -5 -58 -14
-163 -19 -235 -26 -345 -70 -761 -91 -855 -56 -252 -149 -412 -292 -504 -117
-75 -304 -119 -308 -72 -1 6 -3 24 -5 39 -1 15 3 45 11 67 62 175 55 445 -16
630 -49 126 -140 276 -216 356 -11 10 -10 16 2 28 8 8 15 19 15 24 0 5 18 37
40 71 22 34 51 84 65 112 l26 49 130 -5 c148 -7 181 3 177 51 -4 38 -30 46
-144 45 -56 -1 -105 3 -108 8 -3 5 7 45 23 88 40 110 89 314 111 466 11 72 22
132 25 135 3 3 58 -7 122 -23 159 -38 199 -42 222 -21 46 41 2 70 -174 111
-175 42 -167 36 -161 114 8 96 16 323 17 494 1 81 3 147 4 147 18 0 187 -56
238 -79 80 -36 98 -38 120 -13 24 26 21 51 -8 64 -13 6 -22 15 -18 21 3 6 1 7
-4 4 -6 -4 -44 6 -84 22 -41 17 -110 40 -154 52 -44 13 -83 27 -86 32 -3 5 -9
142 -13 305 -38 1591 -211 3204 -412 3832 -60 190 -132 345 -220 480 -243 369
-584 486 -1002 344 -86 -29 -244 -105 -325 -157 -31 -20 -59 -37 -62 -37 -5 0
-131 -100 -219 -174 -68 -57 -310 -299 -376 -377 -30 -35 -60 -70 -67 -77 -7
-7 -29 -34 -50 -60 -21 -26 -40 -49 -43 -52 -9 -8 -204 -272 -240 -325 -19
-27 -38 -51 -42 -53 -5 -2 -8 -8 -8 -13 0 -5 -15 -30 -34 -56 -88 -124 -241
-381 -378 -633 -50 -91 -95 -168 -101 -172 -14 -9 -812 -10 -844 -2 -17 5 -38
36 -77 113 -29 58 -83 160 -118 226 -36 66 -76 140 -89 165 -14 25 -32 56 -40
70 -9 14 -63 102 -119 195 -387 635 -798 1104 -1164 1324 -93 57 -286 150
-326 157 -9 2 -45 10 -80 19 -61 15 -273 30 -295 21z m365 -200 c208 -75 390
-197 610 -410 172 -167 410 -452 465 -557 5 -10 13 -19 17 -19 5 0 8 -7 8 -15
0 -8 4 -15 8 -15 11 0 47 -63 43 -75 -1 -5 1 -7 5 -3 4 5 31 -27 61 -69 29
-42 51 -78 49 -81 -2 -2 4 -12 15 -23 10 -10 19 -26 19 -34 0 -8 4 -15 8 -15
5 0 19 -19 32 -42 13 -24 32 -54 42 -67 10 -13 16 -27 13 -31 -3 -4 2 -10 10
-14 8 -3 15 -12 15 -20 0 -8 4 -16 8 -18 16 -7 219 -374 315 -571 51 -104 54
-108 107 -135 l55 -27 453 -3 c430 -2 455 -2 497 17 29 13 53 33 72 63 15 23
32 46 38 50 5 4 6 8 2 8 -10 0 31 71 47 82 6 4 8 8 3 8 -6 0 62 136 83 165 4
6 24 40 44 77 45 83 230 375 256 406 11 12 18 22 15 22 -7 0 87 134 97 138 4
2 8 8 8 13 0 8 54 83 132 184 26 34 132 161 137 165 3 3 20 23 36 45 16 22 60
72 96 110 36 39 80 85 97 103 17 19 36 31 41 27 6 -3 9 0 6 7 -2 7 16 31 41
53 25 22 70 63 99 90 29 28 68 61 86 75 18 14 50 39 71 57 21 17 47 35 58 38
11 4 20 10 20 14 0 18 199 129 295 165 134 50 222 67 330 65 110 -3 221 -29
255 -61 11 -10 20 -16 20 -14 0 8 48 -23 94 -59 51 -41 158 -174 150 -187 -4
-6 -3 -8 3 -5 11 7 89 -120 140 -229 37 -81 111 -297 117 -342 2 -15 6 -34 8
-42 26 -78 26 -80 98 -455 6 -27 17 -95 25 -150 8 -55 21 -147 30 -205 24
-169 34 -244 55 -440 11 -102 23 -196 25 -210 3 -14 9 -83 15 -155 6 -71 13
-150 15 -175 49 -524 89 -1310 97 -1900 l3 -205 -30 2 c-191 15 -362 14 -488
-2 -186 -23 -346 -63 -364 -91 -12 -18 -11 -24 4 -42 l18 -21 115 25 c278 60
499 68 719 28 l34 -7 -7 -296 c-3 -163 -9 -321 -12 -352 l-6 -56 -37 4 c-20 2
-92 13 -161 23 -149 24 -226 35 -340 50 -47 6 -113 15 -146 20 -85 14 -178 12
-192 -2 -16 -16 -15 -53 1 -66 6 -5 62 -15 122 -22 61 -6 171 -20 245 -31 74
-10 200 -28 280 -40 80 -11 161 -24 180 -28 l35 -7 -2 -63 c-3 -80 -46 -315
-77 -411 -39 -124 -87 -240 -99 -241 -29 -3 -67 5 -176 36 -170 48 -349 117
-490 191 -126 66 -155 73 -175 42 -22 -36 10 -62 182 -145 92 -45 183 -88 202
-96 61 -26 294 -100 313 -99 9 0 17 -4 17 -9 0 -5 6 -9 13 -8 39 5 67 -2 67
-17 0 -18 -39 -87 -52 -92 -4 -2 -8 -8 -8 -14 0 -6 -12 -27 -27 -47 -16 -20
-43 -58 -62 -86 -63 -93 -255 -277 -346 -332 -54 -32 -210 -105 -290 -136 -77
-29 -291 -92 -485 -142 -236 -61 -769 -152 -798 -136 -10 5 -24 26 -31 48 -26
72 -134 258 -189 328 -62 78 -59 73 -123 143 l-47 50 49 99 c68 138 108 311
109 471 0 73 2 82 18 82 37 0 55 35 50 92 -14 144 -115 295 -224 333 -49 17
-91 -1 -100 -43 -3 -15 -7 -33 -9 -39 -3 -7 0 -12 5 -10 14 3 100 -56 100 -70
0 -6 6 -13 13 -16 14 -5 -57 -37 -82 -37 -9 0 -21 -4 -26 -9 -6 -5 -50 -19
-100 -31 -108 -27 -335 -38 -465 -21 -114 14 -243 40 -254 52 -6 5 -22 9 -37
9 -15 0 -31 5 -34 10 -3 6 -16 10 -28 10 -12 0 -55 12 -95 27 l-73 28 3 114
c3 102 5 115 23 125 80 42 96 59 130 127 20 39 57 101 83 137 90 130 88 234
-7 281 -75 37 -132 46 -296 46 -276 -1 -375 -46 -375 -170 0 -51 14 -84 72
-165 21 -30 36 -60 34 -67 -3 -7 -2 -13 2 -13 5 0 14 -17 21 -37 16 -45 103
-133 130 -133 11 0 23 -6 27 -12 10 -15 14 -222 5 -236 -9 -14 -246 -88 -360
-113 -140 -30 -377 -37 -512 -15 -140 23 -226 44 -273 68 l-40 20 57 53 c61
55 70 84 40 117 -23 26 -53 22 -106 -13 -76 -50 -135 -139 -163 -244 -23 -84
-19 -120 16 -145 29 -21 30 -24 30 -98 0 -117 32 -307 65 -385 17 -42 7 -70
-24 -65 -8 2 -16 -2 -16 -8 0 -6 -44 -50 -97 -98 -54 -48 -98 -90 -98 -94 0
-4 -15 -23 -33 -43 -17 -19 -48 -58 -66 -85 -19 -27 -37 -51 -40 -54 -4 -3
-18 -28 -32 -55 -19 -35 -32 -49 -45 -48 -43 5 -254 4 -304 -2 -30 -3 -90 -16
-134 -27 -90 -25 -107 -23 -326 38 -244 68 -537 184 -523 207 3 6 1 7 -6 3
-12 -8 -110 48 -124 71 -4 7 -15 13 -23 13 -15 0 -164 145 -228 222 -63 76
-136 192 -131 206 3 7 1 10 -5 7 -12 -8 -33 33 -26 51 3 9 1 12 -4 9 -6 -3
-10 -2 -10 4 0 6 12 13 28 16 149 31 390 120 567 210 69 36 125 62 125 58 0
-3 9 6 20 20 11 14 20 32 20 40 0 51 -33 60 -90 25 -62 -38 -264 -136 -325
-158 -33 -12 -73 -28 -90 -35 -60 -26 -217 -67 -263 -68 -44 -2 -47 0 -65 36
-32 69 -75 209 -102 337 -27 126 -58 321 -52 327 8 8 729 113 776 113 21 0 50
38 44 59 -8 30 -41 35 -133 22 -75 -10 -122 -16 -322 -41 -98 -12 -205 -28
-268 -40 -117 -22 -107 -25 -114 33 -11 89 -18 641 -7 656 27 40 380 40 566 0
28 -6 88 -19 134 -30 75 -18 85 -18 106 -5 29 19 23 52 -14 70 -38 19 -250 63
-368 77 -57 6 -175 10 -263 8 l-160 -4 0 130 c0 170 33 772 60 1085 5 58 14
164 20 235 12 150 36 368 50 470 6 39 19 144 30 235 11 91 24 194 30 230 5 36
19 126 30 200 32 211 79 500 89 550 5 25 15 74 21 110 6 36 15 83 20 105 5 22
18 90 30 150 27 133 82 349 108 425 11 30 33 94 50 143 52 149 162 359 255
487 77 106 220 227 313 266 87 36 138 44 274 40 126 -3 142 -5 240 -40z m8134
-1968 c9 -38 14 -85 32 -257 18 -175 14 -270 -22 -584 -12 -99 -12 -132 -3
-143 13 -16 47 -18 68 -5 43 27 75 549 51 816 -13 138 -14 174 -8 180 2 2 35
0 74 -5 119 -15 355 -99 398 -142 8 -8 17 -30 20 -49 3 -19 12 -65 21 -104 27
-122 29 -285 7 -407 -11 -58 -27 -121 -35 -140 -8 -18 -17 -42 -20 -53 -3 -11
-11 -34 -18 -52 -11 -28 -11 -34 6 -52 42 -48 76 -15 121 119 15 47 29 90 30
95 1 6 7 37 15 70 14 64 18 274 7 392 -8 90 0 89 82 -13 61 -76 126 -200 155
-295 44 -145 63 -371 46 -549 -23 -232 -38 -316 -131 -710 -94 -399 -119 -688
-100 -1170 10 -264 13 -284 55 -496 119 -595 195 -1497 182 -2174 -11 -574
-65 -1025 -167 -1405 -23 -82 -45 -168 -50 -190 -13 -58 -115 -335 -154 -418
-96 -204 -123 -259 -170 -334 -27 -45 -54 -79 -59 -76 -6 3 -7 1 -3 -5 14 -23
-144 -219 -291 -363 -78 -77 -241 -209 -257 -209 -3 0 -27 -15 -53 -34 -127
-90 -451 -222 -515 -209 -23 4 -35 0 -58 -22 l-30 -28 -24 26 c-37 40 -86 31
-86 -15 0 -20 -29 -38 -61 -38 -21 0 -21 1 -6 18 24 26 21 47 -9 60 -49 23
-88 -32 -50 -71 13 -12 5 -15 -61 -21 -49 -4 -81 -2 -89 5 -9 7 -19 7 -34 -1
-13 -7 -40 -9 -64 -6 -53 7 -55 7 -93 0 -38 -7 -78 19 -101 66 -8 16 -23 32
-33 35 -15 5 -19 16 -19 56 0 40 5 53 25 71 16 14 25 32 25 50 0 21 -6 31 -25
38 -22 9 -25 15 -25 64 0 46 3 56 25 70 27 18 35 66 11 66 -23 0 -36 25 -37
73 -2 40 2 50 24 68 28 22 37 69 14 69 -48 0 -64 105 -19 125 44 19 43 88 0
93 -22 3 -29 10 -34 36 -10 58 -2 79 34 90 58 16 52 91 -7 84 -31 -3 -34 2
-25 47 5 27 2 41 -11 55 -11 12 -19 41 -22 76 -3 49 -1 56 17 61 39 10 39 83
0 83 -24 0 -40 34 -40 86 0 26 4 34 18 34 27 0 61 28 58 47 -4 24 -45 44 -67
33 -26 -14 -32 14 -11 56 16 34 16 37 -2 50 -10 7 -23 15 -29 17 -6 2 -13 27
-17 55 -7 55 -1 67 35 74 23 4 32 42 15 64 -7 7 -27 14 -46 14 l-33 0 14 40
c13 37 13 41 -6 59 -11 10 -26 44 -33 75 l-14 57 30 6 c35 7 45 25 30 59 -12
25 -45 33 -58 13 -4 -7 -10 -7 -16 -1 -6 6 -4 23 6 46 8 20 12 36 8 36 -4 0
-1 4 6 9 10 6 6 11 -16 19 -25 9 -34 20 -46 63 -19 64 -20 59 2 59 10 0 29 11
42 25 20 21 21 27 9 41 -22 27 -52 34 -71 17 -16 -14 -18 -14 -24 1 -4 9 0 24
9 34 36 41 28 75 -18 84 -16 3 -20 10 -18 40 1 23 -3 38 -12 42 -17 6 -49 65
-40 74 4 4 16 -5 27 -21 31 -43 63 -34 93 26 17 36 40 33 40 -5 0 -35 17 -45
61 -34 28 7 42 49 24 71 -15 19 -7 26 78 70 31 16 59 32 62 35 3 3 21 18 40
34 47 39 105 117 145 196 64 128 135 379 149 535 4 39 13 126 21 195 20 171
51 505 75 805 33 421 42 553 70 1055 6 102 16 255 22 340 21 285 14 567 -18
710 -2 8 -12 53 -23 100 -54 230 -93 476 -112 695 -13 154 1 466 27 585 35
166 106 337 181 434 72 94 238 230 293 241 11 2 25 7 32 11 11 7 10 -11 -12
-121 -30 -154 -42 -285 -36 -395 9 -190 58 -393 96 -405 37 -12 92 39 69 62
-6 6 -22 53 -35 104 -56 211 -36 556 43 755 l24 62 62 11 c118 21 172 27 269
30 94 2 98 1 102 -21z m-6676 -4350 c23 -1 42 -3 42 -4 0 -7 -60 -144 -71
-162 -25 -39 -46 -25 -94 62 -31 56 -46 102 -37 111 4 4 32 4 62 1 30 -4 74
-7 98 -8z m1757 2 c9 -14 -70 -156 -84 -152 -7 1 -10 -2 -7 -7 3 -5 -1 -14 -8
-21 -12 -9 -18 -7 -30 12 -27 41 -57 141 -46 152 5 5 37 11 71 13 34 1 64 5
67 8 9 9 30 6 37 -5z m-910 -340 c353 -25 650 -114 882 -266 49 -31 90 -60 91
-65 2 -5 10 -9 17 -9 26 0 229 -214 293 -308 34 -51 62 -95 62 -97 0 -3 10
-22 23 -43 13 -20 34 -64 46 -97 13 -33 27 -69 32 -80 38 -87 63 -327 40 -382
-24 -54 -183 -166 -297 -208 -27 -10 -53 -21 -59 -25 -27 -18 -230 -80 -355
-109 -88 -21 -323 -60 -495 -83 -132 -17 -791 -17 -925 0 -143 19 -287 42
-303 47 -7 3 -18 31 -24 63 -36 184 -108 362 -211 516 -26 39 -46 75 -44 79 1
5 -2 6 -8 2 -5 -3 -10 -2 -10 2 0 13 -108 123 -165 168 -27 22 -51 43 -53 48
-2 4 -8 7 -13 7 -5 0 -33 16 -62 35 -28 19 -56 35 -62 35 -5 0 -24 9 -42 20
l-32 19 65 96 c36 52 69 95 75 95 5 0 9 7 9 16 0 8 5 12 10 9 6 -3 10 -2 10 4
0 5 23 31 52 58 28 26 64 60 80 76 16 15 34 24 40 21 7 -4 8 -2 4 4 -4 7 7 19
27 29 18 10 62 37 97 61 35 23 71 42 81 42 9 0 19 4 21 8 4 10 131 71 156 75
9 2 26 8 37 14 18 10 138 45 245 72 89 22 227 42 330 48 58 3 107 7 109 9 7 6
78 4 226 -6z m-1780 -862 c94 -27 239 -104 260 -138 3 -5 -16 -11 -42 -15
-199 -24 -403 -110 -549 -232 -28 -23 -55 -39 -59 -35 -5 4 -5 2 -2 -4 8 -14
-17 -37 -27 -26 -4 4 -6 3 -5 -3 2 -5 -3 -21 -11 -35 -14 -26 -14 -28 2 -47
18 -22 52 -14 88 20 137 130 343 232 515 256 80 11 218 4 224 -11 1 -5 13 -19
25 -31 28 -27 70 -87 61 -87 -4 0 1 -7 10 -16 40 -41 167 -346 164 -396 0 -7
-2 -8 -5 -3 -6 14 -202 1 -287 -19 -167 -39 -276 -86 -419 -179 -77 -50 -103
-82 -88 -107 5 -8 7 -17 4 -21 -10 -17 61 5 104 31 86 53 123 71 134 64 6 -4
8 -3 5 3 -9 14 141 77 248 105 74 19 165 25 282 19 37 -2 44 -6 50 -29 15 -52
8 -283 -10 -352 -21 -79 -71 -188 -95 -207 -10 -9 -11 -12 -2 -7 19 9 -18 -34
-92 -107 -89 -88 -253 -169 -343 -169 -66 0 -102 -23 -130 -84 -14 -31 -36
-81 -50 -111 -14 -31 -25 -58 -25 -60 0 -3 -9 -24 -19 -48 -11 -23 -34 -76
-51 -117 -61 -142 -227 -430 -315 -546 -27 -36 -62 -82 -77 -102 -15 -21 -32
-36 -38 -34 -6 1 -9 -1 -6 -6 10 -17 -154 -177 -264 -257 -249 -183 -502 -255
-853 -242 -145 5 -201 14 -387 65 -51 13 -176 75 -248 122 -78 51 -204 169
-195 183 3 5 1 7 -4 4 -10 -6 -36 24 -115 133 -66 92 -147 316 -168 468 -29
204 -22 413 20 597 24 102 87 280 130 365 80 158 246 387 348 480 101 92 166
145 174 142 4 -1 8 4 9 10 0 15 83 77 122 92 15 6 27 14 27 19 0 4 4 6 9 3 5
-3 11 0 14 8 3 7 30 23 61 36 l56 22 44 -28 c24 -16 51 -33 60 -39 15 -9 14
-13 -10 -40 -14 -16 -31 -29 -38 -27 -6 2 -8 0 -4 -4 4 -4 -23 -41 -60 -83
-37 -42 -88 -101 -114 -131 -25 -30 -58 -68 -72 -85 -14 -16 -37 -45 -51 -63
-15 -17 -32 -29 -37 -25 -6 3 -8 2 -5 -4 3 -5 2 -25 -2 -44 -9 -40 0 -58 37
-78 37 -19 69 0 141 87 35 42 92 109 126 147 34 39 92 104 128 145 35 41 70
74 76 73 6 -2 10 1 8 6 -2 11 -5 8 169 186 75 77 140 140 144 140 4 0 25 17
46 37 72 69 134 121 182 154 95 65 239 154 251 154 6 0 11 4 11 8 0 10 79 46
98 45 7 -1 11 2 8 5 -18 18 270 105 399 121 96 12 217 3 300 -21z m5578 -620
c65 -176 148 -475 193 -698 14 -69 29 -141 34 -160 23 -89 91 -589 105 -770 2
-25 8 -90 14 -145 27 -252 43 -936 22 -949 -5 -4 -22 -1 -38 5 -41 17 -181 50
-233 55 -25 3 -67 8 -95 12 -71 11 -336 -13 -427 -37 -147 -40 -272 -94 -382
-165 -27 -17 -50 -30 -52 -29 -4 2 -80 -64 -164 -145 -42 -39 -80 -69 -85 -65
-4 5 -5 2 0 -5 4 -9 -3 -25 -22 -45 -37 -41 -93 -114 -93 -122 0 -3 -17 -32
-38 -63 -100 -149 -203 -396 -279 -667 -7 -27 -29 -126 -48 -220 -43 -215 -61
-284 -80 -305 -19 -21 -20 -56 -2 -63 19 -7 10 -106 -10 -129 -15 -16 -14 -43
1 -78 5 -12 -1 -16 -20 -18 -36 -3 -54 -19 -54 -48 0 -28 28 -46 52 -33 18 9
34 -4 24 -20 -3 -4 -6 -31 -7 -60 -2 -35 -6 -51 -16 -51 -7 0 -22 -9 -33 -20
-16 -16 -18 -24 -8 -44 6 -14 14 -25 17 -24 36 4 41 -3 41 -56 0 -50 -2 -56
-27 -68 -40 -19 -42 -53 -4 -73 29 -14 31 -19 31 -69 0 -40 -5 -57 -20 -71
-27 -24 -25 -57 5 -85 33 -31 37 -118 5 -138 -26 -16 -25 -50 2 -79 14 -15 23
-38 24 -66 2 -35 -3 -46 -28 -69 -32 -31 -29 -51 13 -71 20 -11 24 -21 27 -64
3 -51 2 -53 -32 -67 -30 -12 -34 -18 -30 -41 7 -38 25 -54 50 -45 19 8 21 5
23 -49 2 -56 2 -57 -31 -66 -18 -6 -34 -17 -36 -25 -4 -26 24 -54 54 -55 25 0
29 -4 32 -33 4 -38 -10 -59 -41 -64 -26 -4 -34 -32 -17 -64 10 -19 17 -21 36
-14 24 9 24 9 24 -61 0 -66 -1 -70 -20 -64 -34 11 -57 -3 -56 -33 1 -22 7 -28
31 -32 30 -5 31 -7 27 -62 -1 -13 -18 -40 -37 -61 -34 -37 -35 -39 -20 -68 19
-35 13 -49 -17 -44 -29 6 -48 -12 -48 -45 0 -19 6 -29 20 -33 11 -3 20 -13 20
-22 0 -14 -7 -15 -44 -10 -33 5 -44 3 -49 -8 -10 -26 4 -57 29 -63 27 -7 28
-10 11 -42 -12 -20 -15 -21 -32 -7 -26 19 -54 19 -62 -1 -9 -24 14 -64 37 -64
23 0 24 -6 5 -40 -13 -24 -16 -24 -19 -1 -2 17 -17 26 -47 27 -23 1 -31 -4
-35 -22 -12 -47 21 -78 58 -55 18 11 18 10 3 -26 -9 -21 -27 -49 -40 -63 -15
-16 -25 -40 -27 -65 -3 -39 -4 -40 -35 -37 -27 3 -35 -1 -45 -24 -11 -23 -10
-28 10 -44 12 -10 22 -28 22 -39 0 -25 -6 -26 -26 -6 -9 8 -24 15 -34 15 -24
0 -53 -41 -44 -63 8 -22 42 -31 60 -16 8 6 16 10 19 7 9 -9 -41 -124 -62 -141
-24 -19 -30 -51 -13 -62 6 -3 10 -15 10 -27 0 -16 -5 -19 -21 -15 -27 7 -47
-1 -60 -24 -15 -30 6 -59 42 -59 l30 0 -6 -47 c-10 -69 -15 -83 -30 -83 -20 0
-35 -31 -24 -51 4 -9 20 -20 34 -23 27 -7 30 -13 16 -35 -7 -11 -15 -10 -45 4
l-37 18 -35 -34 c-28 -27 -37 -31 -44 -19 -5 8 -7 17 -4 22 2 4 -12 10 -32 14
-40 7 -64 -11 -64 -48 0 -10 -4 -18 -9 -18 -5 0 -17 -3 -26 -6 -14 -6 -16 -1
-15 22 1 16 2 35 1 42 -2 18 -46 14 -65 -6 -15 -18 -15 -20 3 -44 12 -15 15
-25 8 -25 -17 -1 -153 -22 -212 -33 -300 -56 -1007 -86 -1425 -61 -292 18
-536 44 -756 82 -62 11 -62 11 -68 50 -4 24 -12 39 -21 40 -8 1 -21 2 -27 3
-14 2 -44 -34 -40 -46 1 -5 -4 -8 -12 -8 -15 0 -34 19 -34 35 0 6 -15 14 -33
19 -28 9 -34 7 -47 -12 -14 -22 -52 -31 -52 -12 0 5 -11 17 -25 26 -22 14 -30
15 -50 4 -27 -15 -94 -6 -96 13 -3 44 5 96 20 122 20 34 17 62 -10 84 -12 11
-19 32 -21 66 -3 44 0 51 20 60 24 10 39 46 27 64 -3 6 -24 11 -47 11 -37 0
-40 2 -33 23 19 59 18 77 -3 77 -25 0 -35 28 -27 73 6 28 2 39 -19 60 -14 14
-26 37 -26 51 0 15 -13 38 -30 56 -17 17 -30 38 -30 48 0 10 -9 34 -19 54 -11
19 -17 39 -14 42 4 3 2 6 -4 6 -5 0 -22 22 -37 50 l-27 50 33 0 c39 0 58 15
58 45 0 48 -45 59 -84 20 -24 -24 -26 -24 -36 -6 -16 31 -12 41 19 52 36 13
45 41 19 68 -24 27 -42 26 -60 -1 l-15 -22 -13 24 c-11 21 -10 25 14 43 45 32
24 86 -29 73 -22 -6 -25 -3 -25 19 0 15 5 35 11 47 9 17 6 24 -20 47 -38 33
-56 94 -34 116 8 8 18 15 23 15 5 0 14 9 20 21 9 17 8 23 -7 35 -10 7 -28 14
-40 14 -19 0 -22 6 -25 60 -4 74 -2 80 27 80 39 0 40 38 1 74 -31 29 -32 34
-27 84 5 43 10 55 31 65 36 18 38 59 5 81 -23 15 -25 22 -22 72 4 45 9 60 30
78 14 11 28 31 32 43 5 18 1 24 -20 29 -25 6 -26 9 -23 67 l3 61 38 9 c33 8
38 13 35 35 -2 18 -10 28 -28 32 -22 5 -25 11 -25 55 0 28 -4 60 -8 72 -7 19
-5 21 23 19 36 -3 61 24 53 55 -4 13 -14 19 -33 19 -32 0 -41 15 -27 47 6 14
6 32 -1 51 -13 37 -8 42 34 42 24 0 33 5 37 22 10 35 -9 58 -48 58 -35 0 -49
20 -24 35 5 4 15 19 20 33 8 21 7 29 -7 39 -13 10 -19 29 -20 71 -2 62 3 82
17 61 5 -9 9 -10 9 -3 0 7 11 15 25 18 14 4 25 12 25 18 0 14 -30 48 -42 48
-12 0 -38 26 -32 32 8 9 23 69 15 64 -19 -12 -29 15 -33 83 l-3 75 30 0 c26 1
30 5 33 34 4 37 -19 53 -48 34 -28 -17 -36 16 -10 43 27 29 25 59 -5 82 -20
15 -27 31 -34 88 -11 80 -52 280 -82 405 -43 171 -118 378 -195 534 -24 49
-44 96 -44 103 0 8 -4 11 -10 8 -5 -3 -10 -1 -10 5 0 7 -14 31 -31 55 -17 24
-32 56 -33 72 -3 38 -15 55 -51 74 -27 14 -30 19 -27 59 3 52 -9 63 -60 54
-31 -5 -38 -3 -38 10 0 9 9 25 20 36 25 25 26 49 3 66 -25 19 -47 17 -68 -6
-17 -19 -18 -19 -62 17 -36 30 -43 41 -38 60 4 17 -1 30 -19 46 -25 23 -44 77
-26 77 5 0 10 -10 10 -23 0 -40 20 -56 57 -45 37 10 54 49 34 79 -16 26 -15
27 21 25 28 -1 35 4 50 37 22 45 46 50 40 7 -3 -25 0 -30 22 -36 45 -11 71 2
74 36 1 16 -1 30 -5 30 -5 0 -16 7 -27 15 -27 21 -11 36 21 20 30 -16 62 -5
64 23 1 9 2 24 3 32 1 21 71 90 91 90 8 0 14 -5 12 -11 -4 -18 28 -32 55 -26
36 9 56 64 30 83 -9 7 -23 14 -29 14 -18 0 -16 27 1 33 8 3 20 -1 26 -9 31
-36 89 -2 93 54 1 23 8 33 24 37 26 6 53 43 56 75 1 13 13 27 33 36 25 12 31
21 29 39 -1 14 -7 31 -14 38 -13 16 -5 28 14 21 7 -3 23 -1 34 6 26 13 27 51
4 87 -17 26 -17 27 2 19 53 -22 83 -13 89 26 1 7 6 19 10 27 6 10 5 12 -2 7
-7 -4 -12 -2 -12 3 0 6 -7 11 -15 11 -8 0 -15 7 -15 15 0 12 4 13 25 3 19 -8
31 -8 50 0 32 15 32 46 0 74 -27 24 -24 44 5 28 23 -12 47 -4 60 21 14 25 14
24 -21 64 -22 25 -29 39 -22 46 7 7 19 2 39 -18 15 -15 28 -30 27 -33 0 -3 4
-17 9 -33 12 -32 35 -47 77 -47 32 0 43 11 45 44 1 12 8 21 17 21 23 0 49 24
49 46 0 10 -11 26 -25 35 -14 9 -25 25 -25 35 0 11 -5 19 -10 19 -6 0 -5 8 2
20 12 19 13 18 28 -13 19 -40 44 -45 81 -18 l29 21 20 -20 c22 -22 50 -26 67
-9 8 8 28 9 58 5 45 -7 46 -8 40 -37 -8 -37 8 -59 44 -59 37 0 53 18 40 42 -6
11 -8 22 -5 25 9 9 34 -16 40 -42 9 -35 40 -40 76 -14 l30 23 24 -23 c22 -21
27 -22 60 -10 27 10 41 10 61 1 14 -7 36 -12 49 -12 29 0 39 -10 25 -26 -15
-18 -4 -44 18 -44 27 0 63 28 57 45 -3 8 -13 11 -22 8 -12 -4 -14 -3 -7 5 16
17 86 -4 78 -23 -7 -19 30 -20 46 -2 8 11 39 13 143 8 194 -8 645 -7 773 2
145 10 420 50 525 77 47 12 114 28 150 35 196 40 320 88 463 179 30 19 58 32
62 28 3 -4 5 -2 3 4 -2 6 23 35 54 65 87 83 144 207 174 382 20 112 14 209
-17 294 -13 35 -21 64 -18 67 2 2 74 16 159 30 180 31 317 57 450 86 52 11
118 25 145 30 28 6 88 21 135 34 47 13 108 29 135 36 155 39 521 156 650 208
69 28 225 99 255 117 14 9 50 29 81 46 31 17 71 46 90 65 18 19 36 34 40 34 3
0 13 -19 22 -42z m-2140 -6 c20 -13 37 -27 37 -32 0 -5 9 -11 19 -15 28 -9 48
-62 32 -87 -7 -12 -8 -17 -2 -13 20 12 11 -4 -15 -29 -22 -20 -41 -25 -108
-31 -120 -10 -161 -33 -197 -109 -16 -34 -29 -67 -29 -75 0 -25 -42 -81 -72
-97 -47 -24 -89 -19 -180 22 -174 79 -245 57 -358 -107 -43 -62 -88 -94 -134
-93 -59 1 -83 9 -145 51 -92 62 -103 66 -166 67 -74 1 -125 -26 -215 -114 -72
-70 -101 -87 -154 -88 -50 -2 -86 18 -155 85 -88 86 -161 115 -238 94 -39 -11
-126 -64 -190 -116 -31 -26 -74 -39 -124 -38 -39 0 -84 37 -129 103 -22 33
-48 63 -57 68 -13 8 -16 24 -14 83 1 40 4 75 6 77 2 2 23 1 46 -3 29 -5 51
-17 68 -36 27 -31 71 -39 71 -15 0 8 4 17 9 20 5 4 105 -1 223 -10 420 -32
949 7 1312 96 44 10 83 17 88 14 4 -3 8 0 8 5 0 6 7 11 15 11 8 0 76 20 151
45 209 68 408 169 473 239 13 14 29 23 35 19 6 -3 8 -3 4 2 -11 12 9 32 30 31
9 0 34 -11 55 -24z m-146 -758 c-3 -4 0 -16 8 -28 37 -51 8 -272 -50 -385 -26
-52 -104 -139 -161 -178 -116 -80 -325 -153 -639 -222 -122 -26 -176 -32 -540
-62 -152 -12 -578 -5 -730 11 -193 21 -272 32 -330 46 -60 15 -82 19 -140 30
-60 10 -125 28 -125 33 0 3 7 15 15 25 22 29 18 45 -11 56 -39 15 -68 -4 -60
-41 7 -39 -4 -36 -32 6 -25 39 -31 41 -72 20 -26 -13 -32 -13 -75 8 -43 20
-46 24 -42 53 8 49 -28 70 -72 42 -22 -13 -56 -3 -45 13 4 7 3 9 -4 5 -6 -3
-13 -2 -17 4 -3 6 4 10 18 10 14 0 37 7 53 15 26 13 30 13 49 -5 27 -25 37
-25 60 0 10 11 15 20 11 20 -4 0 -2 9 4 20 6 11 15 20 21 20 12 0 88 51 138
94 l34 28 18 -23 c15 -20 21 -22 46 -14 34 13 40 37 16 63 -10 10 -19 24 -21
30 -3 15 45 16 87 1 31 -11 32 -12 12 -26 -23 -16 -28 -61 -8 -69 8 -3 26 0
41 6 24 9 28 15 24 39 -4 27 -2 29 23 29 22 -1 29 -6 31 -27 4 -33 34 -39 59
-12 11 12 21 21 23 21 1 0 27 -4 57 -10 196 -36 772 -53 983 -30 465 52 698
102 1021 220 95 35 224 102 280 146 26 21 59 34 42 18z m-3152 -755 c-4 -5 -1
-9 4 -9 8 0 7 -6 0 -19 -15 -22 -4 -55 13 -45 7 4 9 3 5 -1 -4 -5 -20 -11 -34
-13 -15 -2 -34 -7 -44 -13 -26 -14 -5 -66 36 -91 33 -19 49 -41 38 -52 -11
-10 -21 -7 -52 20 -23 19 -37 24 -53 18 -19 -6 -21 -4 -12 7 21 26 22 76 2 88
-10 6 -16 16 -13 20 3 5 -1 12 -7 15 -7 3 1 5 17 5 65 -2 75 1 75 20 0 10 -7
24 -15 31 -14 11 -15 40 -6 80 1 3 13 -8 26 -23 14 -16 23 -33 20 -38z m-450
-718 c3 -5 0 -13 -6 -17 -7 -4 -9 -3 -5 4 3 5 0 13 -6 15 -9 4 -10 6 -1 6 6 1
14 -3 18 -8z m-75 -97 c0 -8 -19 -13 -24 -6 -3 5 1 9 9 9 8 0 15 -2 15 -3z
m6052 -480 c348 -55 601 -262 799 -654 82 -164 113 -246 164 -435 113 -423
135 -938 64 -1495 -20 -157 -63 -428 -99 -620 -38 -198 -59 -365 -71 -555 -11
-165 -10 -218 4 -405 10 -118 24 -255 32 -305 46 -276 54 -326 64 -390 42
-269 30 -469 -38 -666 -47 -137 -151 -279 -279 -381 -74 -58 -246 -153 -262
-143 -4 3 -1 26 7 52 21 66 29 312 13 409 -20 126 -83 288 -116 301 -23 9 -64
-14 -64 -36 0 -11 13 -52 29 -93 50 -124 66 -209 65 -348 0 -98 -5 -143 -23
-207 -13 -46 -27 -83 -33 -83 -5 0 -6 -5 -3 -10 21 -35 -99 -76 -349 -120
-137 -24 -395 -45 -407 -33 -5 5 0 37 12 73 49 160 73 474 49 643 -24 167 -36
188 -96 173 -22 -6 -30 -23 -24 -51 34 -168 40 -403 15 -557 -16 -103 -60
-267 -75 -282 -12 -12 -313 10 -465 35 -150 24 -213 40 -226 55 -19 23 -32
119 -35 259 -2 127 2 170 30 325 3 14 21 70 40 125 38 108 36 125 -14 125 -36
0 -52 -21 -83 -110 -67 -193 -92 -388 -72 -572 8 -76 8 -101 -2 -114 -7 -10
-13 -13 -13 -8 0 5 -8 10 -18 11 -28 2 -149 61 -223 109 -116 74 -245 226
-265 312 -4 15 -10 32 -14 37 -37 50 -53 221 -35 383 21 197 72 346 248 733
215 471 230 584 174 1304 -26 340 -31 1107 -9 1305 24 209 34 284 49 355 8 39
18 95 23 125 14 82 78 316 110 400 15 41 35 95 45 119 48 128 145 300 261 461
44 62 203 211 217 204 6 -4 9 -4 5 1 -4 4 7 19 24 34 18 14 33 24 34 21 2 -3
9 2 16 11 16 20 122 77 198 107 76 30 245 69 304 71 27 1 52 3 54 6 11 11 167
4 264 -11z m-6708 -59 c-4 -8 -14 -15 -23 -15 -14 1 -13 3 3 15 25 19 27 19
20 0z m-922 -15 c125 -30 364 -46 485 -32 95 11 100 11 165 -15 37 -14 75 -33
85 -42 10 -9 31 -22 46 -29 47 -21 131 -87 225 -179 94 -91 244 -299 284 -391
11 -26 28 -65 38 -87 84 -186 110 -257 155 -429 66 -257 102 -515 126 -896 14
-218 5 -695 -20 -1045 -33 -452 -27 -690 23 -877 33 -125 101 -297 193 -488
136 -281 213 -515 228 -685 15 -184 -35 -403 -118 -509 -70 -91 -208 -216
-229 -209 -5 2 -8 -1 -8 -5 0 -10 -181 -97 -222 -107 -32 -8 -31 -11 -17 75
36 215 -8 444 -132 692 -15 29 -69 67 -69 48 0 -6 -4 -8 -10 -5 -5 3 -15 -5
-21 -18 -9 -21 -4 -39 40 -128 74 -152 94 -247 94 -444 0 -202 -12 -253 -65
-271 -126 -44 -714 -97 -731 -66 -2 4 1 79 6 167 11 166 1 372 -27 572 -14
100 -26 124 -59 118 -46 -9 -52 -28 -39 -117 24 -172 35 -366 29 -536 -4 -95
-11 -180 -16 -190 -9 -17 -18 -17 -143 -6 -257 24 -557 93 -603 138 -34 35
-57 149 -57 291 0 140 18 227 68 332 39 82 41 99 17 111 -46 24 -77 -4 -122
-113 -49 -117 -64 -219 -58 -380 3 -77 8 -150 11 -162 5 -25 -12 -25 -66 3
-73 38 -211 151 -202 166 4 6 3 8 -3 5 -26 -16 -149 166 -192 285 -47 125 -56
193 -55 398 0 170 4 215 29 345 42 223 83 495 104 680 18 164 10 433 -19 610
-16 100 -49 287 -60 340 -84 406 -116 622 -135 910 -19 267 -18 400 0 600 27
290 62 472 131 686 33 103 144 355 162 369 4 3 17 27 30 53 14 30 26 45 34 41
6 -4 8 -3 5 3 -8 13 64 112 134 184 102 105 291 230 322 213 7 -4 8 -3 4 2
-10 10 75 42 115 43 15 1 64 -8 110 -19z"/>
<path d="M2715 17427 c-267 -76 -469 -443 -598 -1087 -100 -494 -117 -1046
-41 -1308 14 -49 24 -68 79 -158 28 -46 105 -94 177 -111 58 -14 98 -13 181 2
46 9 219 98 216 112 -1 4 6 12 16 18 10 5 33 24 50 40 17 17 46 41 64 55 18
14 38 30 45 36 49 46 184 126 198 118 6 -4 8 -2 5 3 -10 17 232 111 252 99 5
-4 11 -2 13 2 1 5 73 23 158 41 325 69 401 105 461 221 21 40 23 58 23 155 -1
95 -6 122 -32 201 -40 117 -134 360 -160 410 -11 21 -20 41 -20 44 1 12 -167
345 -219 435 -78 133 -207 320 -256 372 -25 26 -36 46 -32 54 5 7 4 10 -2 6
-5 -3 -34 19 -64 49 -71 72 -190 149 -276 179 -75 27 -169 31 -238 12z"/>
<path d="M7957 17386 c-275 -79 -561 -414 -858 -1006 -328 -653 -353 -897
-106 -1014 40 -19 110 -43 157 -54 47 -12 142 -35 212 -52 180 -44 373 -127
432 -186 9 -8 16 -12 16 -9 0 15 97 -65 259 -215 35 -32 120 -81 176 -100 109
-37 261 -20 323 37 13 12 28 21 32 20 4 -1 8 2 8 6 0 5 11 21 24 35 33 38 62
95 91 182 48 146 52 184 50 515 -1 272 -4 335 -28 515 -15 113 -30 237 -35
275 -10 86 -50 293 -63 325 -3 8 -13 42 -22 75 -33 121 -81 248 -126 338 -10
20 -15 37 -11 37 4 0 2 4 -3 8 -6 4 -23 28 -38 54 -41 70 -128 153 -199 189
-55 29 -74 33 -153 35 -55 2 -109 -2 -138 -10z"/>
<path d="M3100 13983 c-164 -25 -472 -144 -634 -244 -28 -18 -57 -32 -63 -32
-7 0 -13 -3 -13 -7 0 -3 -29 -26 -65 -50 -72 -47 -95 -73 -95 -107 0 -16 8
-25 26 -29 55 -14 251 24 443 86 253 81 312 95 417 95 97 0 103 -1 177 -39 43
-21 77 -43 77 -47 0 -5 5 -9 11 -9 18 0 441 -372 438 -386 0 -4 5 -10 12 -15
9 -5 4 -10 -17 -15 -118 -28 -200 -126 -211 -253 -7 -74 24 -158 81 -216 87
-91 257 -100 364 -18 20 15 42 26 47 25 6 -2 7 -1 4 3 -4 3 6 32 22 63 16 31
29 73 29 92 1 83 -1 82 127 18 210 -105 431 -154 516 -113 69 33 100 152 57
223 -29 47 -70 68 -173 86 -115 22 -249 65 -240 79 3 6 1 7 -5 3 -27 -17 -186
93 -350 241 -45 41 -80 79 -76 84 3 5 1 8 -4 7 -8 -2 -143 115 -210 182 -9 8
-28 25 -45 37 -16 12 -45 37 -65 55 -39 36 -174 130 -230 161 -73 39 -237 58
-352 40z"/>
<path d="M7360 13980 c-60 -13 -129 -39 -161 -61 -14 -10 -29 -16 -33 -14 -3
3 -4 2 -1 -1 2 -4 -17 -21 -43 -38 -26 -17 -58 -41 -72 -53 -14 -13 -28 -23
-31 -23 -7 0 -34 -23 -94 -79 -141 -131 -233 -209 -240 -203 -3 4 -5 2 -3 -4
3 -9 -94 -97 -208 -189 -79 -65 -203 -136 -329 -190 -30 -13 -108 -29 -197
-40 -100 -13 -152 -78 -145 -183 8 -108 53 -138 197 -129 121 7 256 51 443
143 27 13 52 22 57 19 4 -3 11 -26 15 -52 10 -70 70 -178 106 -193 16 -7 26
-16 23 -21 -3 -5 -2 -8 3 -7 4 1 30 -4 56 -11 31 -9 72 -12 116 -8 145 12 240
118 242 269 2 113 -71 223 -169 257 l-52 18 21 27 c12 15 23 25 26 22 2 -2 20
12 40 32 19 21 31 31 27 23 -5 -9 -3 -12 4 -7 7 4 12 14 12 23 0 9 3 14 6 11
3 -3 15 4 28 16 70 65 102 90 115 88 7 -2 10 1 7 6 -8 14 128 135 139 124 4
-4 5 -2 3 5 -3 11 74 73 96 77 6 1 23 10 38 20 94 62 216 59 427 -10 312 -103
547 -157 589 -135 34 18 44 44 26 69 -26 37 -225 163 -359 227 -197 94 -335
146 -460 171 -48 10 -224 12 -265 4z"/>
<path d="M9422 9518 c-7 -7 -12 -25 -12 -40 0 -21 6 -29 24 -34 58 -14 95 56
40 76 -33 13 -37 13 -52 -2z"/>
<path d="M9556 9481 c-4 -7 -5 -15 -2 -18 9 -9 19 4 14 18 -4 11 -6 11 -12 0z"/>
<path d="M9482 9418 c-19 -19 -14 -56 9 -69 32 -16 69 6 69 42 0 37 -51 54
-78 27z"/>
<path d="M9627 9412 c-10 -10 -17 -24 -17 -30 0 -18 39 -40 61 -35 21 6 35 43
25 68 -8 21 -49 19 -69 -3z"/>
<path d="M9549 9304 c-18 -22 9 -71 37 -66 26 5 44 21 44 41 0 39 -55 56 -81
25z"/>
<path d="M9616 9199 c-22 -32 -6 -63 33 -67 25 -3 33 2 42 21 24 54 -41 94
-75 46z"/>
<path d="M9481 9196 c-18 -21 -4 -55 25 -62 32 -8 56 13 52 45 -2 21 -9 27
-34 29 -18 2 -36 -3 -43 -12z"/>
<path d="M9540 9084 c-13 -33 -14 -31 15 -50 23 -15 27 -15 50 0 28 19 34 60
9 70 -36 14 -64 6 -74 -20z"/>
<path d="M9610 8996 c-31 -39 26 -98 64 -66 25 20 21 66 -6 74 -34 9 -44 7
-58 -8z"/>
<path d="M9686 8897 c-26 -19 -18 -71 12 -75 13 -2 30 2 38 8 20 18 17 57 -5
70 -25 13 -24 13 -45 -3z"/>
<path d="M9539 8884 c-18 -22 9 -70 37 -66 37 6 44 11 44 35 0 44 -53 65 -81
31z"/>
<path d="M9615 8780 c-15 -17 -16 -24 -7 -45 18 -38 59 -34 76 7 12 28 12 34
-3 45 -23 18 -45 16 -66 -7z"/>
<path d="M9686 8681 c-19 -21 -21 -71 -3 -72 6 0 20 -2 29 -4 9 -2 25 3 35 10
14 11 15 17 6 38 -18 38 -47 51 -67 28z"/>
<path d="M9758 8583 c-23 -6 -34 -49 -18 -68 14 -17 66 -20 75 -4 20 31 -20
80 -57 72z"/>
<path d="M9604 8566 c-3 -8 -4 -25 -2 -38 2 -18 10 -24 35 -26 27 -3 35 1 44
22 9 20 9 29 -1 41 -16 19 -69 20 -76 1z"/>
<path d="M9676 8464 c-8 -7 -13 -22 -11 -31 2 -10 4 -24 4 -30 1 -18 56 -16
71 1 6 8 10 25 8 37 -4 29 -52 44 -72 23z"/>
<path d="M9818 8469 c-20 -11 -24 -59 -7 -76 15 -15 56 3 64 28 7 22 -11 59
-28 59 -7 0 -20 -5 -29 -11z"/>
<path d="M9739 8349 c-18 -18 -19 -23 -6 -42 19 -29 65 -29 84 0 13 19 12 24
-6 42 -12 12 -28 21 -36 21 -8 0 -24 -9 -36 -21z"/>
<path d="M9661 8238 c-11 -31 -3 -48 27 -59 35 -14 66 16 57 54 -6 23 -13 27
-41 27 -27 0 -37 -5 -43 -22z"/>
<path d="M9802 8248 c-17 -17 -15 -55 4 -66 23 -13 62 -3 69 19 14 43 -41 79
-73 47z"/>
<path d="M9734 8139 c-14 -16 -15 -23 -6 -45 15 -31 57 -30 78 2 28 42 -37 81
-72 43z"/>
<path d="M9878 8149 c-24 -13 -23 -56 1 -69 38 -20 70 15 56 60 -7 22 -30 25
-57 9z"/>
<path d="M9680 8047 c-14 -7 -25 -19 -24 -27 0 -8 2 -22 2 -31 3 -26 41 -30
63 -8 22 22 23 32 9 60 -12 22 -16 22 -50 6z"/>
<path d="M9797 8032 c-24 -26 -21 -51 8 -64 34 -16 79 13 69 45 -12 40 -50 49
-77 19z"/>
<path d="M9868 7939 c-39 -22 -9 -88 36 -81 47 8 53 66 9 83 -29 11 -24 11
-45 -2z"/>
<path d="M9720 7912 c0 -33 16 -52 45 -52 27 0 45 18 45 46 0 24 -17 34 -61
34 -25 0 -29 -4 -29 -28z"/>
<path d="M9792 7828 c-36 -36 7 -91 54 -69 42 19 26 81 -21 81 -12 0 -26 -5
-33 -12z"/>
<path d="M9922 7828 c-18 -18 -15 -42 7 -62 37 -33 82 4 66 54 -7 23 -53 28
-73 8z"/>
<path d="M9719 7714 c-15 -28 -6 -52 23 -63 30 -11 54 2 60 33 7 33 -1 42 -39
48 -25 3 -34 0 -44 -18z"/>
<path d="M9857 7719 c-25 -35 -8 -64 39 -64 39 0 39 0 40 41 1 39 0 40 -32 42
-24 2 -37 -3 -47 -19z"/>
<path d="M9808 7622 c-16 -2 -28 -6 -29 -10 0 -4 -2 -16 -4 -27 -8 -40 48 -63
74 -31 33 39 12 74 -41 68z"/>
<path d="M9919 7609 c-18 -18 -19 -23 -6 -42 28 -42 87 -29 87 19 0 22 -25 44
-49 44 -6 0 -20 -9 -32 -21z"/>
<path d="M9987 7512 c-20 -22 -22 -43 -5 -60 16 -16 53 -15 66 1 16 19 22 64
9 65 -7 0 -21 3 -32 7 -14 4 -27 0 -38 -13z"/>
<path d="M9722 7508 c-17 -17 -15 -55 4 -66 41 -23 83 13 69 58 -7 23 -53 28
-73 8z"/>
<path d="M9844 7495 c-10 -38 16 -62 53 -49 22 7 28 16 28 39 0 27 -3 30 -37
33 -33 3 -38 0 -44 -23z"/>
<path d="M9924 7417 c-8 -5 -14 -23 -14 -42 0 -33 2 -35 35 -35 40 0 62 28 46
59 -6 10 -9 20 -6 22 7 8 -47 4 -61 -4z"/>
<path d="M10050 7402 c-19 -23 -19 -27 -5 -43 38 -41 94 -17 81 34 -9 37 -51
41 -76 9z"/>
<path d="M9792 7404 c-39 -27 -21 -70 29 -69 39 1 63 47 37 73 -16 16 -39 15
-66 -4z"/>
<path d="M9995 7313 c-18 -17 -19 -52 -2 -74 15 -20 51 -9 67 20 21 40 -34 86
-65 54z"/>
<path d="M9726 7301 c-12 -13 -16 -28 -12 -44 8 -32 33 -41 61 -23 19 12 22
21 16 48 -8 40 -38 49 -65 19z"/>
<path d="M9856 7304 c-33 -32 -10 -79 36 -72 12 2 28 14 35 28 10 20 9 27 -4
42 -20 22 -47 23 -67 2z"/>
<path d="M10056 7205 c-37 -37 -4 -95 45 -80 27 9 22 62 -7 82 -19 12 -24 12
-38 -2z"/>
<path d="M9781 7196 c-34 -41 21 -94 59 -56 15 15 17 25 11 42 -10 27 -52 36
-70 14z"/>
<path d="M9922 7198 c-22 -22 -14 -57 13 -64 37 -9 55 2 55 35 0 38 -41 56
-68 29z"/>
<path d="M9714 7086 c-3 -8 -4 -25 -2 -38 4 -33 62 -39 78 -8 19 35 4 60 -36
60 -21 0 -37 -6 -40 -14z"/>
<path d="M9840 7074 c-20 -51 35 -74 78 -34 12 12 22 23 22 25 0 14 -36 35
-61 35 -23 0 -32 -6 -39 -26z"/>
<path d="M9973 7084 c-3 -8 -1 -26 5 -40 14 -30 52 -32 78 -3 23 25 22 22 5
42 -18 22 -79 23 -88 1z"/>
<path d="M10117 7094 c-11 -12 -8 -59 5 -72 16 -16 53 -15 68 3 7 8 9 26 6 43
-6 23 -12 28 -39 30 -19 1 -36 -1 -40 -4z"/>
<path d="M9788 6989 c-22 -12 -23 -52 -3 -69 22 -19 64 -4 71 25 11 44 -27 68
-68 44z"/>
<path d="M9907 6993 c-13 -12 -7 -61 9 -73 11 -10 23 -11 42 -4 32 11 40 44
17 68 -17 16 -56 22 -68 9z"/>
<path d="M10048 6989 c-38 -22 -12 -79 36 -79 21 0 38 35 30 65 -7 27 -34 33
-66 14z"/>
<path d="M10177 6975 c-25 -18 -14 -53 20 -61 48 -12 80 28 48 60 -20 19 -44
20 -68 1z"/>
<path d="M9993 6892 c-24 -4 -34 -25 -29 -57 2 -14 12 -21 34 -23 26 -3 34 1
44 23 10 22 9 28 -8 44 -10 9 -29 15 -41 13z"/>
<path d="M9705 6870 c-9 -28 12 -60 38 -60 31 0 47 18 47 52 0 26 -3 28 -39
28 -31 0 -41 -5 -46 -20z"/>
<path d="M9842 6878 c-22 -22 -15 -57 15 -64 35 -9 58 7 58 42 0 25 -4 29 -30
32 -17 2 -36 -3 -43 -10z"/>
<path d="M10100 6871 c-14 -26 -3 -50 26 -57 44 -11 70 29 38 60 -21 22 -51
20 -64 -3z"/>
<path d="M10244 6869 c-24 -27 -9 -53 35 -57 35 -4 47 13 37 53 -8 31 -45 34
-72 4z"/>
<path d="M10379 6874 c-19 -19 -13 -61 10 -74 24 -12 65 10 69 38 7 46 -46 70
-79 36z"/>
<path d="M9772 6773 c-15 -30 0 -68 30 -71 26 -3 58 20 58 41 -1 39 -71 63
-88 30z"/>
<path d="M9913 6781 c-37 -23 -13 -85 31 -79 19 3 54 54 43 64 -10 10 -65 21
-74 15z"/>
<path d="M10034 6769 c-20 -22 -13 -43 19 -63 36 -23 75 36 47 70 -17 20 -44
17 -66 -7z"/>
<path d="M4954 10732 c-36 -29 -37 -51 -5 -83 47 -46 101 -30 106 33 4 56 -56
87 -101 50z"/>
<path d="M5717 10649 c-29 -17 -48 -64 -37 -94 11 -28 51 -51 74 -42 23 9 56
67 56 98 0 38 -54 61 -93 38z"/>
<path d="M4295 10555 c-30 -29 -31 -40 -5 -82 23 -39 59 -44 90 -13 39 39 12
120 -40 120 -12 0 -32 -11 -45 -25z"/>
<path d="M4997 10552 c-41 -45 3 -118 60 -103 34 9 48 31 39 64 -13 54 -66 75
-99 39z"/>
<path d="M5443 10113 c-28 -5 -63 -49 -63 -78 0 -57 69 -56 103 2 18 31 18 32
-2 52 -10 10 -17 22 -13 25 3 3 3 5 1 5 -2 -1 -14 -4 -26 -6z"/>
<path d="M6070 10030 c-26 -26 -25 -54 1 -91 37 -53 109 -31 109 32 0 35 -39
79 -70 79 -11 0 -29 -9 -40 -20z"/>
<path d="M4664 9912 c-47 -38 -54 -89 -18 -123 20 -19 25 -20 50 -7 55 26 69
92 28 132 -20 20 -34 20 -60 -2z"/>
<path d="M5408 9873 c-24 -28 -29 -53 -16 -76 14 -28 27 -37 54 -37 46 0 66
69 31 108 -25 26 -49 28 -69 5z"/>
<path d="M3848 7904 c-19 -10 -28 -23 -28 -39 0 -28 27 -40 70 -30 41 9 40 40
0 72 -12 9 -21 8 -42 -3z"/>
<path d="M3948 7892 c-9 -31 9 -62 36 -62 55 0 74 31 40 64 -22 22 -70 21 -76
-2z"/>
<path d="M3898 7795 c-14 -18 -15 -26 -5 -39 11 -15 86 -40 95 -31 2 1 -2 14
-9 27 -7 12 -15 29 -19 37 -12 27 -44 30 -62 6z"/>
<path d="M4020 7800 c-38 -38 -13 -79 37 -63 34 12 41 38 17 64 -22 24 -29 24
-54 -1z"/>
<path d="M4138 7809 c-19 -11 -24 -44 -8 -54 13 -8 0 -37 -15 -31 -19 7 -39
-10 -32 -28 11 -29 48 -18 88 27 44 48 50 82 17 91 -29 7 -30 7 -50 -5z"/>
<path d="M4250 7800 c-24 -45 18 -82 59 -53 25 17 28 58 5 67 -29 11 -53 6
-64 -14z"/>
<path d="M4374 7795 c-13 -20 -14 -28 -4 -40 24 -29 80 -7 80 33 0 38 -52 43
-76 7z"/>
<path d="M3786 7788 c-11 -15 -12 -26 -5 -40 7 -14 6 -20 -6 -24 -8 -3 -21 -4
-28 -1 -22 8 -39 -9 -39 -37 0 -33 5 -38 38 -38 31 0 46 18 40 50 -4 24 -1 26
47 36 31 7 36 35 11 60 -21 22 -40 20 -58 -6z"/>
<path d="M3573 7725 c-27 -19 -23 -53 9 -77 26 -20 21 -22 -18 -8 -22 9 -29 7
-45 -11 -34 -39 -20 -99 23 -99 25 0 68 44 68 70 0 11 16 34 34 51 39 34 38
52 -5 74 -35 19 -39 19 -66 0z"/>
<path d="M3656 7611 c-23 -25 -15 -71 13 -71 24 0 50 30 53 61 2 19 -2 25 -23
27 -15 2 -32 -5 -43 -17z"/>
<path d="M3454 7522 c-20 -14 -25 -45 -9 -69 9 -13 12 -23 8 -22 -30 5 -55 -5
-69 -26 -37 -57 30 -95 80 -46 17 18 19 24 9 41 -11 16 -9 20 7 25 68 21 69
105 2 105 -9 0 -22 -4 -28 -8z"/>
<path d="M3577 7513 c-12 -12 -7 -50 8 -63 29 -24 85 20 71 56 -5 14 -67 20
-79 7z"/>
<path d="M3517 7404 c-14 -14 -7 -35 11 -32 9 2 17 10 17 17 0 16 -18 25 -28
15z"/>
<path d="M3328 7324 c-36 -19 -47 -60 -22 -79 35 -26 72 -18 93 22 17 33 13
49 -14 61 -31 14 -24 15 -57 -4z"/>
<path d="M3444 7299 c-8 -14 11 -33 25 -25 16 10 13 36 -3 36 -8 0 -18 -5 -22
-11z"/>
<path d="M3240 7211 c-35 -66 33 -113 79 -55 15 19 18 31 11 44 -18 34 -73 41
-90 11z"/>
<path d="M3404 7210 c-32 -12 -36 -45 -8 -61 31 -16 74 2 74 30 0 31 -29 44
-66 31z"/>
<path d="M3165 7095 c-29 -28 -31 -38 -9 -60 32 -32 94 2 94 51 0 40 -49 46
-85 9z"/>
<path d="M3281 7081 c-9 -15 -7 -23 5 -36 14 -14 19 -14 38 -2 30 21 27 51 -6
55 -18 2 -30 -3 -37 -17z"/>
<path d="M2985 7020 c-3 -5 -3 -10 2 -10 4 0 -3 -7 -15 -16 -26 -18 -28 -46
-6 -68 36 -37 92 -6 86 47 -3 22 -10 29 -33 34 -16 3 -26 9 -23 14 3 5 3 9 0
9 -3 0 -8 -4 -11 -10z"/>
<path d="M3107 7004 c-45 -24 -32 -84 20 -84 26 0 58 42 50 64 -11 27 -40 35
-70 20z"/>
<path d="M3226 6988 c-21 -29 -20 -40 4 -61 11 -9 20 -13 20 -8 0 5 9 11 20
14 35 9 21 77 -16 77 -7 0 -20 -10 -28 -22z"/>
<path d="M2916 6893 c-24 -13 -27 -19 -22 -46 7 -36 20 -47 50 -39 33 8 46 22
46 52 0 37 -35 53 -74 33z"/>
<path d="M3185 6902 c-30 -6 -38 -18 -31 -46 7 -29 30 -33 59 -12 33 25 13 67
-28 58z"/>
<path d="M3034 6875 c-22 -34 -15 -59 19 -63 30 -4 67 21 67 44 0 19 -29 44
-50 44 -11 0 -27 -11 -36 -25z"/>
<path d="M2720 6780 c-28 -28 -25 -58 5 -72 19 -8 31 -8 50 0 45 21 26 92 -24
92 -6 0 -20 -9 -31 -20z"/>
<path d="M2839 6777 c-18 -15 -11 -55 13 -71 12 -7 24 -6 42 2 26 11 32 34 20
66 -7 19 -52 21 -75 3z"/>
<path d="M2978 6778 c-8 -7 -18 -23 -21 -35 -4 -17 1 -24 23 -32 49 -17 92 33
58 67 -15 15 -40 15 -60 0z"/>
<path d="M2657 6688 c-30 -22 -34 -43 -13 -70 15 -21 56 -24 74 -6 20 20 14
64 -11 81 -21 13 -25 13 -50 -5z"/>
<path d="M2775 6689 c3 -4 1 -10 -5 -14 -14 -9 -13 -48 2 -63 7 -7 24 -12 38
-12 31 0 50 17 50 45 0 33 -15 46 -53 49 -20 2 -34 0 -32 -5z"/>
<path d="M2914 6673 c-24 -24 -14 -67 17 -71 35 -4 65 29 50 56 -14 26 -48 34
-67 15z"/>
<path d="M2843 6573 c-14 -5 -17 -41 -5 -59 7 -11 32 -18 59 -15 19 2 25 38
11 60 -12 20 -38 25 -65 14z"/>
<path d="M2895 6441 c-12 -40 22 -72 50 -45 18 19 19 36 3 52 -18 18 -46 14
-53 -7z"/>
<path d="M7438 4958 c-3 -7 -3 -19 -1 -25 5 -15 33 -18 33 -4 0 5 3 16 6 25 4
11 0 16 -14 16 -11 0 -22 -6 -24 -12z"/>
<path d="M3408 4773 c-13 -3 -18 -14 -18 -39 0 -28 4 -35 27 -40 28 -7 56 17
51 45 -4 19 -39 39 -60 34z"/>
<path d="M3443 4652 c-3 -9 -8 -20 -10 -24 -2 -3 4 -13 13 -22 21 -21 57 -4
52 26 -4 28 -47 44 -55 20z"/>
<path d="M7380 4650 c-24 -24 -23 -48 2 -63 36 -23 67 45 34 72 -12 10 -19 8
-36 -9z"/>
<path d="M3419 4463 c-24 -6 -30 -49 -10 -66 28 -25 48 -26 70 -6 22 20 21 29
-7 62 -15 17 -23 19 -53 10z"/>
<path d="M7355 4440 c-40 -44 27 -97 69 -54 19 18 20 28 6 55 -14 25 -52 24
-75 -1z"/>
<path d="M3460 4346 c-15 -19 -9 -56 11 -69 21 -13 69 15 69 41 0 39 -55 57
-80 28z"/>
<path d="M7322 4348 c-18 -18 -15 -68 4 -75 21 -8 43 16 47 53 3 25 0 30 -18
32 -12 1 -27 -4 -33 -10z"/>
<path d="M7362 4238 c-22 -22 -14 -64 14 -77 44 -19 77 23 58 73 -7 19 -55 21
-72 4z"/>
<path d="M3512 4227 c-15 -18 8 -62 33 -62 16 0 21 8 23 38 3 33 1 37 -21 37
-14 0 -29 -6 -35 -13z"/>
<path d="M3455 4117 c-20 -16 -15 -61 8 -70 23 -9 62 17 65 42 6 38 -36 54
-73 28z"/>
<path d="M7314 4104 c-8 -32 5 -58 33 -62 27 -4 45 21 41 55 -2 23 -8 29 -35
31 -28 3 -33 0 -39 -24z"/>
<path d="M3516 4017 c-24 -17 -16 -56 15 -75 19 -12 24 -11 45 10 21 20 22 26
11 48 -15 29 -44 36 -71 17z"/>
<path d="M7382 4018 c-21 -21 -14 -57 12 -70 32 -14 52 -6 58 24 7 41 -2 58
-31 58 -15 0 -32 -5 -39 -12z"/>
<path d="M7272 4008 c-16 -16 -15 -65 2 -71 23 -9 56 22 56 51 0 22 -5 28 -23
30 -13 1 -29 -4 -35 -10z"/>
<path d="M3449 3906 c-38 -19 -19 -76 26 -76 29 0 48 24 40 50 -10 30 -37 41
-66 26z"/>
<path d="M3574 3895 c-22 -34 -15 -59 19 -63 21 -3 29 2 37 23 13 33 13 31 -6
49 -21 22 -31 20 -50 -9z"/>
<path d="M7327 3902 c-31 -34 -14 -72 30 -72 31 0 50 39 34 69 -14 26 -42 27
-64 3z"/>
<path d="M7247 3899 c-21 -12 -22 -48 -2 -55 22 -9 44 13 38 37 -7 25 -15 29
-36 18z"/>
<path d="M7386 3801 c-10 -11 -16 -30 -14 -43 2 -18 10 -24 37 -26 49 -5 70
38 35 72 -21 21 -37 20 -58 -3z"/>
<path d="M3491 3791 c-25 -25 -26 -35 -5 -55 18 -19 34 -20 69 -4 41 19 30 56
-22 72 -15 5 -28 1 -42 -13z"/>
<path d="M7273 3794 c-3 -8 -1 -26 5 -39 20 -43 70 -4 54 43 -5 17 -52 15 -59
-4z"/>
<path d="M7321 3696 c-34 -37 -25 -61 24 -61 37 0 40 2 43 30 3 19 -2 33 -14
42 -24 17 -27 17 -53 -11z"/>
<path d="M3402 3698 c-17 -17 -15 -65 4 -72 35 -13 74 7 74 39 0 35 -53 58
-78 33z"/>
<path d="M3531 3697 c-15 -15 -14 -49 3 -72 13 -18 15 -18 40 -2 26 17 33 41
18 63 -11 16 -49 23 -61 11z"/>
<path d="M3592 3594 c-27 -19 -29 -60 -3 -73 38 -21 76 42 43 72 -16 15 -20
15 -40 1z"/>
<path d="M3456 3587 c-12 -9 -17 -23 -14 -42 3 -27 7 -30 37 -30 46 0 68 31
45 63 -17 25 -42 28 -68 9z"/>
<path d="M7247 3593 c-25 -24 14 -90 47 -77 18 7 31 46 22 69 -5 15 -57 21
-69 8z"/>
<path d="M7380 3585 c-15 -19 -5 -65 15 -66 8 -1 23 -2 32 -3 20 -1 39 43 30
68 -8 20 -60 21 -77 1z"/>
<path d="M7304 3475 c-5 -20 -1 -32 14 -48 18 -18 25 -19 47 -9 22 10 26 18
23 45 -3 29 -6 32 -40 35 -33 3 -38 0 -44 -23z"/>
<path d="M3377 3483 c-4 -3 -7 -21 -7 -39 0 -28 5 -35 25 -40 44 -11 79 39 52
74 -10 13 -59 17 -70 5z"/>
<path d="M3512 3478 c-30 -30 -7 -82 37 -83 16 0 28 2 25 6 -2 4 0 10 6 14 14
9 13 52 -2 62 -22 13 -53 14 -66 1z"/>
<path d="M7378 3374 c-14 -31 -1 -57 31 -62 42 -6 73 45 44 73 -24 24 -62 19
-75 -11z"/>
<path d="M7251 3371 c-32 -32 -25 -63 16 -73 28 -7 50 18 49 57 -1 38 -35 46
-65 16z"/>
<path d="M3436 3364 c-20 -19 -20 -24 -1 -52 24 -33 85 -14 85 27 0 39 -54 55
-84 25z"/>
<path d="M3570 3361 c-24 -45 3 -82 45 -63 25 11 31 34 19 66 -9 22 -51 20
-64 -3z"/>
<path d="M7342 3293 c-16 -6 -55 -88 -58 -118 -1 -17 5 -21 28 -20 22 0 34 8
46 30 9 16 23 35 30 43 18 20 15 50 -7 62 -11 5 -21 10 -23 9 -2 0 -9 -3 -16
-6z"/>
<path d="M7221 3271 c-17 -11 -10 -45 11 -49 9 -2 22 6 27 17 9 16 8 22 -7 30
-10 5 -24 6 -31 2z"/>
<path d="M3374 3245 c-20 -31 -11 -61 22 -69 33 -9 54 9 54 45 0 22 -6 32 -26
39 -33 13 -31 14 -50 -15z"/>
<path d="M3503 3264 c-19 -8 -16 -59 5 -77 10 -10 27 -14 39 -11 27 7 47 58
30 73 -16 13 -59 21 -74 15z"/>
<path d="M3632 3248 c-15 -15 -15 -51 -1 -65 9 -9 5 -14 -17 -19 -43 -10 -50
-20 -46 -59 4 -32 7 -35 38 -35 50 0 66 46 26 76 -14 10 -13 12 6 18 32 10 47
43 33 72 -12 27 -21 30 -39 12z"/>
<path d="M7410 3193 c-22 -9 -30 -26 -18 -40 7 -9 5 -14 -8 -19 -39 -12 -49
-22 -49 -50 0 -22 6 -31 29 -39 24 -8 31 -6 47 14 10 13 19 34 19 46 0 15 8
26 19 30 11 3 25 13 32 21 23 28 -27 53 -71 37z"/>
<path d="M3455 3146 c-30 -30 -32 -61 -6 -75 17 -10 58 -8 69 3 9 9 -8 74 -23
86 -11 9 -19 7 -40 -14z"/>
<path d="M7230 3129 c-17 -31 -9 -63 18 -67 32 -5 54 16 50 47 -5 41 -50 55
-68 20z"/>
<path d="M3370 3025 c-14 -16 -6 -65 11 -65 6 0 8 -4 5 -9 -9 -14 37 0 57 17
9 8 17 23 17 33 0 35 -66 52 -90 24z"/>
<path d="M3510 3025 c-17 -20 -5 -61 19 -68 27 -7 61 19 61 47 0 36 -56 50
-80 21z"/>
<path d="M3642 3028 c-19 -19 -14 -56 9 -68 11 -7 23 -9 27 -5 12 12 13 57 1
71 -14 17 -21 18 -37 2z"/>
<path d="M7263 3023 c-21 -8 -15 -34 12 -59 22 -20 29 -22 50 -12 30 13 41 43
25 63 -12 14 -61 19 -87 8z"/>
<path d="M7407 3012 c-20 -22 -21 -41 -4 -63 15 -19 42 -17 68 7 24 22 24 50
0 64 -28 15 -46 12 -64 -8z"/>
<path d="M7202 2940 c-30 -49 3 -104 48 -80 26 14 25 39 -5 73 -29 32 -27 32
-43 7z"/>
<path d="M3589 2919 c-23 -23 -24 -33 -3 -53 17 -18 74 -22 74 -5 0 5 4 8 8 5
13 -8 12 41 -1 51 -26 21 -58 22 -78 2z"/>
<path d="M3464 2920 c-32 -13 -36 -25 -13 -48 27 -30 66 -29 81 3 19 43 -16
66 -68 45z"/>
<path d="M7335 2907 l-27 -23 20 -24 c20 -24 22 -24 49 -10 31 18 41 44 23 65
-17 21 -35 19 -65 -8z"/>
<path d="M3535 2815 c-32 -31 -32 -53 2 -66 34 -13 73 3 73 29 0 17 -34 62
-46 62 -3 0 -16 -11 -29 -25z"/>
<path d="M3402 2818 c-17 -17 -15 -55 4 -62 41 -16 79 9 72 46 -6 28 -54 38
-76 16z"/>
<path d="M3662 2818 c-7 -7 -12 -26 -12 -44 0 -28 3 -31 25 -26 16 3 27 13 31
28 11 45 -15 71 -44 42z"/>
<path d="M7268 2819 c-21 -12 -24 -52 -4 -68 16 -13 65 4 67 23 5 48 -24 68
-63 45z"/>
<path d="M7392 2818 c-7 -7 -12 -21 -12 -33 0 -41 54 -62 80 -31 13 17 10 57
-5 68 -15 12 -50 9 -63 -4z"/>
<path d="M3472 2714 c-25 -17 -29 -46 -8 -64 22 -18 59 -8 73 20 11 22 10 27
-8 43 -26 21 -29 21 -57 1z"/>
<path d="M3598 2704 c-9 -18 -9 -30 -1 -42 21 -35 66 -23 83 22 17 47 -61 66
-82 20z"/>
<path d="M7327 2709 c-15 -21 -12 -55 5 -65 16 -10 52 4 66 26 28 46 -40 84
-71 39z"/>
<path d="M7194 2694 c-10 -39 13 -57 54 -43 27 9 31 15 26 33 -14 44 -70 51
-80 10z"/>
<path d="M3530 2606 c-19 -24 -8 -58 23 -69 35 -11 57 5 57 43 0 39 -54 56
-80 26z"/>
<path d="M3671 2604 c-40 -29 -11 -87 37 -75 26 7 27 9 19 50 -7 35 -28 44
-56 25z"/>
<path d="M7180 2607 c-18 -9 -25 -21 -26 -44 -1 -27 2 -31 24 -28 30 3 42 21
40 58 -3 31 -4 31 -38 14z"/>
<path d="M7267 2597 c-26 -33 -18 -52 26 -55 31 -3 39 1 48 22 23 50 -38 78
-74 33z"/>
<path d="M3635 2512 c-33 -7 -46 -23 -43 -57 1 -23 6 -31 17 -29 66 12 71 15
71 37 -1 31 -21 53 -45 49z"/>
<path d="M7232 2511 c-40 -27 -29 -81 17 -81 39 0 57 24 45 58 -9 26 -40 38
-62 23z"/>
<path d="M3714 2495 c-8 -21 3 -45 20 -45 16 0 31 34 21 50 -9 15 -35 12 -41
-5z"/>
<path d="M3665 2390 c-37 -40 18 -105 60 -70 22 18 19 67 -4 80 -27 14 -35 13
-56 -10z"/>
<path d="M7160 2395 c-20 -24 3 -65 35 -65 18 0 26 7 31 25 3 14 4 32 0 40 -7
20 -50 19 -66 0z"/>
<path d="M7105 2297 c-8 -12 -15 -33 -15 -47 0 -14 -5 -31 -11 -37 -13 -13 -6
-43 9 -43 16 0 85 108 79 123 -9 25 -46 27 -62 4z"/>
<path d="M3740 2280 c-33 -33 -19 -70 25 -70 42 0 59 44 29 74 -20 21 -30 20
-54 -4z"/>
<path d="M3590 2275 c-19 -23 3 -65 34 -65 51 0 67 20 50 64 -8 21 -67 21 -84
1z"/>
<path d="M7163 2200 c-29 -26 -20 -57 19 -65 33 -8 48 5 48 41 0 22 -17 44
-35 44 -6 0 -21 -9 -32 -20z"/>
<path d="M3668 2179 c-21 -12 -24 -49 -6 -67 7 -7 24 -12 38 -12 57 0 71 61
19 79 -18 6 -32 11 -33 11 -1 0 -9 -5 -18 -11z"/>
<path d="M3780 2130 c0 -41 9 -47 44 -34 34 13 12 74 -26 74 -14 0 -18 -8 -18
-40z"/>
<path d="M7104 2142 c-6 -4 -16 -17 -22 -29 -16 -30 14 -69 46 -59 30 10 39
51 17 76 -20 22 -25 23 -41 12z"/>
<path d="M3735 2067 c-20 -11 -19 -40 3 -67 18 -22 20 -22 44 -6 24 15 25 15
38 -9 14 -26 45 -34 52 -13 3 7 2 23 0 36 -4 19 -10 23 -32 20 -21 -3 -29 1
-38 22 -12 26 -39 33 -67 17z"/>
<path d="M7020 2020 c-6 -11 -8 -24 -5 -29 8 -14 -5 -41 -20 -41 -18 0 -43
-62 -27 -68 7 -2 10 -7 7 -12 -8 -14 33 1 46 16 7 8 9 29 6 51 -4 25 -3 33 4
26 27 -27 76 18 64 57 -9 28 -60 27 -75 0z"/>
<path d="M3703 1985 c0 -8 4 -12 9 -9 5 3 6 10 3 15 -9 13 -12 11 -12 -6z"/>
<path d="M3780 1930 c-17 -17 -18 -24 -8 -45 15 -32 54 -34 64 -2 14 39 12 45
-12 56 -20 9 -28 7 -44 -9z"/>
<path d="M3884 1926 c-11 -28 1 -51 25 -51 29 0 37 28 14 50 -18 19 -32 19
-39 1z"/>
<path d="M7018 1830 c-25 -23 -23 -67 2 -75 33 -11 62 12 58 47 -4 38 -35 53
-60 28z"/>
<path d="M3832 1828 c-16 -16 -15 -40 1 -62 11 -15 17 -16 40 -5 32 14 47 56
26 70 -20 12 -53 11 -67 -3z"/>
<path d="M3893 1728 c-15 -24 -12 -45 7 -63 18 -16 21 -17 45 -1 14 9 25 25
25 36 0 32 -60 54 -77 28z"/>
<path d="M6936 1719 c-15 -22 -11 -52 8 -68 14 -12 54 6 70 31 23 38 -52 73
-78 37z"/>
<path d="M6880 1625 c-28 -34 -17 -68 25 -77 21 -4 55 25 55 47 0 28 -62 51
-80 30z"/>
<path d="M3833 1618 c-20 -26 -21 -46 -5 -62 24 -21 54 -14 72 16 12 22 12 29
1 42 -16 19 -55 21 -68 4z"/>
<path d="M3958 1606 c-14 -32 -5 -52 26 -58 37 -7 63 23 48 57 -16 34 -58 34
-74 1z"/>
<path d="M3897 1518 c-21 -11 -22 -51 -3 -68 34 -27 93 11 70 47 -14 22 -47
33 -67 21z"/>
<path d="M4022 1508 c-40 -40 17 -88 67 -56 18 11 18 14 5 40 -15 30 -50 38
-72 16z"/>
<path d="M6809 1496 c-15 -33 4 -58 39 -54 55 7 54 70 -1 76 -21 3 -30 -3 -38
-22z"/>
<path d="M6940 1500 c-16 -29 -4 -60 24 -60 34 0 58 23 54 51 -4 33 -61 40
-78 9z"/>
<path d="M3820 1398 c-7 -18 -4 -27 16 -45 27 -25 49 -21 66 10 9 17 7 24 -12
39 -30 24 -59 23 -70 -4z"/>
<path d="M3962 1408 c-26 -26 -10 -78 23 -78 24 0 55 23 55 41 0 41 -51 64
-78 37z"/>
<path d="M6755 1400 c-21 -24 -19 -58 5 -65 31 -10 59 4 66 31 12 46 -39 70
-71 34z"/>
<path d="M6882 1408 c-27 -27 -7 -78 29 -78 21 0 49 26 49 45 0 35 -53 58 -78
33z"/>
<path d="M4087 1403 c-11 -11 -8 -48 5 -61 36 -36 94 12 60 51 -15 17 -53 23
-65 10z"/>
<path d="M7071 9444 c0 -11 3 -14 6 -6 3 7 2 16 -1 19 -3 4 -6 -2 -5 -13z"/>
<path d="M4447 9123 c-6 -51 7 -77 33 -63 24 13 26 48 5 56 -8 4 -15 15 -15
25 0 34 -18 20 -23 -18z"/>
<path d="M4090 8375 c-10 -12 -10 -21 -2 -41 17 -36 40 -41 68 -13 22 23 23
26 8 47 -18 25 -56 29 -74 7z"/>
<path d="M4222 8368 c-7 -7 -12 -22 -12 -35 0 -20 5 -23 35 -23 40 0 65 31 44
56 -14 17 -51 18 -67 2z"/>
<path d="M4347 8363 c-14 -13 -6 -23 18 -23 16 0 25 6 25 15 0 15 -31 21 -43
8z"/>
<path d="M3985 8310 c-12 -38 2 -56 39 -52 44 5 55 30 26 54 -29 24 -57 23
-65 -2z"/>
<path d="M4155 8259 c-12 -18 5 -60 28 -68 30 -12 47 4 47 45 0 32 -2 34 -34
34 -19 0 -38 -5 -41 -11z"/>
<path d="M3928 8229 c-10 -5 -18 -18 -18 -27 0 -46 72 -60 92 -17 20 44 -27
72 -74 44z"/>
<path d="M4058 8228 c-28 -22 -26 -51 4 -62 35 -12 60 7 56 43 -3 30 -33 39
-60 19z"/>
<path d="M4231 8122 c-14 -26 2 -44 34 -40 33 4 42 33 15 48 -27 14 -38 12
-49 -8z"/>
</g>
</svg>
