<?xml version="1.0" standalone="no"?>
<!DOCTYPE svg PUBLIC "-//W3C//DTD SVG 20010904//EN"
 "http://www.w3.org/TR/2001/REC-SVG-20010904/DTD/svg10.dtd">
<svg version="1.0" xmlns="http://www.w3.org/2000/svg"
 width="1786.000000pt" height="2148.000000pt" viewBox="0 0 1786.000000 2148.000000"
 preserveAspectRatio="xMidYMid meet">
<metadata>
Created by potrace 1.16, written by Peter Selinger 2001-2019
</metadata>
<g transform="translate(0.000000,2148.000000) scale(0.100000,-0.100000)"
fill="#a7262a" stroke="none">
<path d="M11000 21060 c-460 -41 -883 -245 -1183 -571 l-74 -81 -94 35 c-274
103 -513 120 -780 56 -474 -112 -832 -498 -945 -1019 -26 -117 -26 -432 -1
-570 49 -267 194 -566 380 -782 131 -152 347 -326 562 -453 16 -10 14 -24 -19
-208 -76 -415 -136 -774 -136 -814 0 -28 -4 -43 -12 -42 -7 0 -51 55 -98 121
-358 511 -801 910 -1159 1045 -134 50 -319 68 -452 43 -326 -62 -545 -440
-698 -1205 -101 -506 -176 -1361 -201 -2300 -8 -291 -14 -407 -29 -496 -55
-330 -102 -915 -114 -1419 l-2 -95 -65 -2 c-107 -4 -268 -24 -391 -48 -179
-36 -215 -57 -191 -111 14 -30 45 -31 150 -5 134 33 340 61 450 61 l49 0 7
-167 c3 -93 13 -257 22 -366 9 -109 13 -201 11 -203 -3 -3 -43 -12 -88 -20
-136 -23 -455 -105 -489 -125 -32 -20 -37 -38 -20 -70 15 -27 41 -24 208 20
162 43 384 86 405 78 7 -3 18 -39 25 -91 24 -162 91 -427 142 -557 12 -28 19
-53 18 -54 -5 -5 -186 -62 -303 -95 -226 -65 -219 -63 -230 -94 -8 -24 -6 -31
14 -47 16 -13 31 -17 50 -13 84 20 391 108 445 128 l64 24 41 -85 c96 -200
221 -381 374 -540 l79 -83 -40 -82 c-65 -132 -92 -304 -73 -454 26 -196 87
-329 209 -453 39 -40 72 -77 72 -81 0 -4 -11 -32 -24 -61 -38 -86 -139 -389
-241 -719 -128 -415 -210 -659 -317 -939 -101 -264 -236 -651 -263 -753 -10
-36 -15 -78 -11 -91 7 -31 25 -37 206 -72 198 -39 444 -100 571 -141 441 -142
755 -342 848 -540 64 -135 16 -293 -129 -427 -245 -227 -791 -425 -1525 -552
-140 -25 -184 -31 -390 -55 -407 -48 -710 -64 -1200 -64 -437 0 -557 5 -960
40 -604 53 -1259 199 -1644 366 -453 197 -654 429 -572 662 40 116 128 213
276 309 86 55 263 145 365 185 413 163 1077 293 1770 347 691 53 1279 44 1974
-29 151 -16 186 -10 186 33 0 62 -32 70 -370 100 -878 79 -1602 61 -2444 -60
-845 -121 -1440 -335 -1724 -618 -131 -131 -179 -255 -169 -435 16 -270 135
-599 300 -831 345 -484 955 -793 1887 -954 417 -73 1008 -105 1485 -82 219 11
498 34 551 46 19 4 22 -1 28 -53 10 -90 61 -282 94 -355 45 -98 83 -149 221
-290 110 -112 135 -133 210 -171 47 -23 101 -47 118 -54 18 -6 33 -16 33 -23
0 -6 -44 -57 -97 -113 -109 -114 -191 -233 -238 -345 -114 -271 -116 -548 -7
-769 139 -280 436 -438 957 -508 172 -23 600 -23 796 0 431 50 723 144 1109
356 69 37 148 76 176 86 l51 17 99 -31 c592 -187 1432 -291 2049 -253 232 14
566 51 681 76 16 4 29 -9 64 -62 204 -311 575 -471 1227 -529 277 -25 694 -12
993 32 526 76 937 273 1144 548 152 202 205 360 261 776 14 107 30 218 35 245
5 28 14 79 21 115 28 162 131 554 150 572 8 7 26 19 41 25 92 41 391 286 544
446 619 648 1002 1533 1143 2647 65 507 60 982 -15 1625 -13 116 -29 235 -34
265 -5 30 -21 146 -35 258 -78 620 -45 860 179 1307 96 193 136 343 136 516 0
294 -139 554 -379 713 -127 84 -237 124 -400 147 -162 23 -372 -19 -516 -103
-200 -117 -335 -269 -455 -513 -107 -218 -161 -395 -201 -659 -42 -272 -36
-543 21 -1086 47 -439 61 -606 70 -823 28 -640 -76 -1199 -261 -1401 -43 -48
-49 -59 -49 -99 0 -55 19 -76 53 -57 24 13 123 134 155 190 39 66 107 296 146
495 33 163 47 316 53 560 7 323 -1 462 -67 1080 -41 383 -50 519 -50 740 0
403 64 708 212 1012 72 149 147 252 260 358 105 98 203 156 327 191 87 25 103
26 230 21 84 -3 163 -12 207 -24 93 -24 223 -106 328 -205 103 -97 162 -206
205 -378 26 -105 28 -123 20 -206 -13 -148 -45 -250 -126 -417 -102 -207 -146
-321 -181 -468 -73 -299 -68 -555 22 -1154 46 -304 83 -712 92 -1000 26 -894
-171 -1846 -532 -2567 -70 -140 -180 -329 -217 -374 -13 -16 -49 -72 -79 -124
-31 -52 -70 -108 -88 -125 -17 -16 -51 -57 -75 -90 -70 -99 -386 -396 -505
-476 -21 -14 -46 -33 -55 -42 -23 -24 -55 -22 -55 3 0 12 13 62 30 113 42 131
70 238 70 265 0 13 5 32 11 44 15 27 55 279 75 468 52 493 -17 1025 -191 1466
-55 138 -96 221 -193 392 -51 90 -75 146 -91 207 -40 162 -61 372 -71 710 -7
268 -20 467 -44 720 -5 49 -26 154 -60 297 -14 59 -26 122 -26 138 0 17 -7 47
-16 68 -9 20 -38 100 -64 177 -132 382 -150 426 -196 500 -18 28 -54 96 -81
151 -28 56 -78 140 -111 187 -34 46 -78 115 -98 153 -20 38 -46 85 -57 104
-31 50 -171 225 -236 292 l-54 58 26 57 c45 102 59 164 64 288 6 140 -11 221
-77 362 -21 46 -37 83 -35 83 2 0 41 -16 87 -36 46 -20 108 -47 138 -60 65
-28 93 -30 114 -8 48 48 4 79 -219 153 -104 35 -194 67 -199 72 -5 4 17 46 51
96 75 109 211 380 248 493 15 47 29 88 32 92 2 4 23 0 46 -8 70 -25 356 -104
375 -104 47 0 57 58 14 88 -25 18 -140 57 -330 112 -67 20 -73 23 -67 43 44
150 110 484 130 669 l6 57 32 -6 c32 -6 215 -55 334 -89 60 -17 63 -17 83 1
62 56 -4 93 -300 166 -74 19 -136 34 -138 35 -2 1 4 66 12 145 28 267 39 623
30 954 -5 171 -7 551 -6 845 8 1161 -58 1876 -239 2589 -27 107 -48 195 -46
196 1 1 39 11 85 23 310 81 608 291 777 547 156 238 219 443 219 725 0 137 -3
168 -28 270 -49 194 -116 333 -232 478 -77 97 -141 150 -271 228 -113 69 -237
117 -340 135 -37 6 -71 14 -75 18 -4 4 -24 65 -43 136 -142 522 -589 920
-1115 996 -150 21 -357 15 -502 -15 -70 -14 -138 -26 -151 -26 -19 0 -35 17
-75 78 -199 306 -575 586 -929 691 -201 59 -461 88 -653 71z m398 -164 c467
-85 840 -336 1106 -743 74 -114 75 -114 162 -89 488 144 971 33 1300 -298 188
-189 294 -389 359 -674 9 -38 24 -91 33 -118 15 -40 23 -50 45 -52 23 -3 27 0
27 23 0 14 7 28 15 31 22 9 65 -4 65 -19 0 -7 6 -22 14 -33 14 -19 15 -19 39
4 30 28 33 27 162 -33 49 -23 113 -61 140 -84 28 -23 60 -44 73 -47 25 -7 27
-16 10 -43 -17 -28 -3 -55 25 -46 44 14 61 10 74 -15 11 -23 10 -27 -12 -43
-28 -21 -33 -52 -10 -61 9 -3 21 4 31 19 9 14 20 25 24 25 7 0 60 -92 60 -104
0 -3 -10 -6 -22 -6 -27 0 -58 -27 -58 -52 0 -24 14 -23 58 7 l37 25 17 -33
c19 -35 58 -138 78 -204 8 -26 10 -61 6 -97 -6 -43 -4 -61 8 -78 10 -15 16
-44 16 -84 0 -53 -3 -64 -22 -76 -21 -14 -22 -18 -10 -50 17 -50 15 -70 -17
-167 -37 -109 -87 -215 -148 -312 -44 -70 -124 -169 -136 -169 -2 0 -7 14 -10
30 -5 22 -12 30 -27 30 -18 0 -21 -5 -18 -32 2 -25 9 -34 27 -38 l25 -6 -24
-22 c-16 -15 -36 -22 -62 -22 -34 0 -38 -3 -38 -24 0 -26 -45 -69 -106 -102
-32 -17 -34 -17 -53 0 -31 28 -56 17 -55 -26 1 -32 -3 -37 -43 -57 -24 -11
-61 -21 -83 -21 -28 0 -42 -5 -49 -19 -7 -12 -34 -24 -78 -35 -92 -22 -94 -21
-87 13 5 23 2 30 -15 36 -28 8 -45 42 -42 83 1 28 -2 32 -22 32 -35 0 -47 21
-45 76 l3 49 -42 -3 c-34 -2 -44 2 -53 18 -12 23 -6 40 16 40 26 0 13 54 -13
58 -20 3 -23 -1 -23 -27 0 -37 -18 -40 -46 -10 -24 27 -82 57 -164 84 -55 19
-65 26 -68 48 -6 45 -27 53 -63 23 -37 -31 -49 -32 -82 -6 -33 26 -45 25 -73
-5 -25 -27 -54 -33 -54 -12 0 7 -6 21 -13 31 -19 25 -53 6 -62 -34 -6 -25 -14
-32 -58 -45 -28 -8 -59 -15 -69 -15 -10 0 -35 -9 -55 -20 -21 -11 -52 -20 -68
-20 -22 0 -41 -10 -65 -35 -19 -19 -38 -35 -42 -35 -17 0 -6 24 38 81 41 51
51 59 80 59 30 0 34 3 34 27 0 19 17 44 63 90 66 66 90 78 85 42 -2 -13 5 -26
15 -33 15 -9 21 -7 32 7 17 24 9 47 -16 47 -10 0 -19 6 -19 13 0 22 22 37 55
37 35 0 55 15 55 42 0 10 25 34 61 59 54 37 64 40 84 29 27 -14 45 -6 45 20 0
12 29 39 81 75 68 49 80 61 77 83 -2 14 -11 30 -20 36 -43 27 -419 -199 -558
-336 -65 -63 -81 -73 -110 -73 -34 0 -35 -1 -32 -38 3 -35 0 -39 -32 -52 -25
-11 -40 -26 -51 -53 -9 -20 -29 -50 -44 -67 -16 -16 -32 -44 -36 -62 -6 -29
-100 -150 -154 -197 -20 -18 -22 -18 -41 -1 -28 25 -50 13 -50 -30 0 -19 -4
-35 -9 -35 -5 0 -39 -27 -75 -60 -37 -33 -84 -71 -104 -84 -47 -29 -73 -55
-233 -226 -312 -333 -618 -712 -831 -1030 -28 -41 -54 -79 -58 -83 -4 -4 -52
3 -108 17 -384 98 -713 151 -1212 198 -82 8 -282 12 -506 12 l-371 0 -79 165
c-43 90 -108 217 -143 280 -155 283 -152 278 -147 313 4 18 33 197 66 398 32
201 80 471 105 601 25 130 45 250 45 267 0 27 -8 34 -96 83 -234 132 -482 355
-623 562 -151 223 -233 452 -262 729 -25 245 43 539 175 761 132 221 376 413
611 482 296 86 550 66 846 -66 48 -22 94 -37 102 -34 8 4 43 42 78 87 164 208
472 417 747 507 105 34 255 68 358 81 95 12 332 4 432 -14z m-4082 -3231 c155
-46 322 -142 519 -300 165 -133 292 -262 486 -495 122 -147 295 -400 434 -636
73 -125 256 -482 304 -594 46 -106 21 -99 349 -93 625 12 1212 -51 1785 -193
168 -42 223 -52 238 -44 10 6 50 57 88 113 77 115 359 493 476 637 243 300
553 613 781 787 127 97 175 128 309 202 146 81 241 120 350 142 318 66 525
-47 685 -375 189 -386 308 -1077 350 -2031 10 -224 14 -842 13 -1980 -1 -351
-20 -785 -35 -801 -3 -3 -46 2 -94 10 -171 28 -367 39 -607 33 -235 -6 -426
-26 -475 -49 -31 -15 -39 -45 -19 -72 13 -18 17 -18 158 -1 226 29 623 27 844
-3 94 -13 173 -26 177 -30 21 -22 -108 -703 -139 -732 -4 -4 -57 5 -118 20
-274 70 -894 171 -946 155 -21 -7 -33 -37 -24 -64 7 -23 14 -24 200 -51 163
-23 344 -55 575 -104 259 -54 280 -60 280 -69 0 -22 -96 -249 -147 -350 -52
-102 -187 -317 -199 -317 -12 0 -313 107 -559 200 -223 83 -274 99 -292 91
-26 -12 -32 -61 -10 -79 12 -10 277 -112 587 -227 85 -31 166 -61 179 -66 24
-10 21 -14 -85 -120 -182 -184 -345 -306 -569 -428 -540 -294 -1255 -471
-2260 -560 -486 -43 -1314 -39 -1835 9 -925 86 -1636 287 -2048 577 -185 131
-372 325 -494 512 -74 114 -158 270 -158 294 0 10 28 24 83 43 115 38 403 151
439 172 23 13 28 23 26 46 -6 56 -24 55 -180 -7 -176 -70 -388 -147 -404 -147
-13 0 -59 123 -99 264 -33 117 -93 426 -83 426 2 0 68 9 145 20 78 10 212 25
298 31 175 14 203 24 192 72 -5 18 -16 27 -36 32 -33 7 -194 -6 -445 -36 -92
-11 -170 -19 -171 -17 -9 9 -45 538 -45 666 l0 52 56 0 c91 0 325 -38 460 -76
140 -38 166 -41 184 -19 25 30 4 62 -58 85 -133 50 -367 97 -534 107 l-108 6
0 106 c0 358 44 903 110 1371 24 172 30 252 35 495 16 813 77 1621 156 2090
73 436 142 699 243 925 82 183 157 279 272 346 115 68 243 77 410 29z m6877
-8490 c389 -477 644 -1004 781 -1615 68 -300 97 -597 116 -1190 14 -431 40
-562 149 -748 186 -320 300 -635 356 -992 39 -244 49 -430 35 -685 -12 -241
-20 -315 -50 -480 -12 -60 -23 -123 -26 -140 -3 -16 -9 -39 -14 -50 -5 -11
-14 -45 -20 -75 -19 -93 -61 -252 -86 -325 -8 -23 -14 -48 -14 -57 0 -8 -7
-21 -15 -28 -8 -7 -15 -23 -15 -37 0 -13 -6 -36 -14 -51 -8 -15 -19 -50 -25
-77 -5 -28 -24 -95 -41 -150 -17 -55 -35 -116 -40 -135 -5 -19 -13 -53 -19
-75 -11 -42 -71 -406 -91 -555 -11 -84 -63 -317 -80 -355 -75 -179 -130 -264
-241 -371 -128 -124 -301 -222 -509 -291 -100 -33 -300 -84 -384 -98 -37 -6
-38 -5 -32 17 47 169 55 478 18 656 -28 134 -48 178 -82 174 -48 -5 -48 -5 -4
-221 16 -77 22 -244 14 -335 -14 -134 -49 -303 -65 -310 -46 -17 -255 -30
-495 -31 l-275 0 -12 110 c-21 206 -13 430 24 666 9 58 14 113 10 122 -10 27
-65 22 -77 -6 -17 -40 -50 -237 -61 -366 -11 -122 -7 -406 7 -484 l7 -38 -59
6 c-253 27 -443 62 -580 109 l-69 23 -17 69 c-59 231 -44 464 45 688 30 77 30
79 12 93 -11 7 -26 12 -34 11 -44 -9 -108 -179 -136 -363 -18 -115 -16 -264 6
-383 6 -29 8 -56 6 -58 -6 -6 -102 52 -158 95 -110 86 -209 241 -243 382 -21
85 -21 271 0 379 31 164 88 290 220 481 136 197 141 229 124 720 -14 393 -10
621 15 789 68 454 231 824 469 1064 l91 93 156 21 c463 65 942 247 1231 468
98 75 244 221 310 309 79 106 159 249 203 362 40 105 45 157 16 173 -46 24
-85 0 -111 -70 -63 -164 -192 -369 -314 -498 -304 -319 -777 -529 -1396 -619
-174 -25 -714 -25 -900 1 -118 16 -421 72 -424 78 -1 2 -6 16 -12 33 -5 16
-21 36 -35 44 -24 13 -29 13 -51 -1 -14 -9 -51 -52 -84 -95 -77 -104 -238
-263 -349 -346 -90 -68 -247 -152 -339 -182 -107 -35 -316 -67 -316 -48 0 5
22 24 49 42 57 36 101 85 101 110 0 10 -9 26 -21 37 -24 21 -24 21 -161 -72
-113 -76 -194 -99 -348 -99 -88 0 -144 6 -189 18 -86 23 -224 79 -228 93 -2 6
20 16 48 22 109 26 277 113 343 179 33 33 34 70 2 85 -22 9 -36 4 -118 -44
-159 -94 -238 -117 -391 -118 -166 0 -293 54 -401 171 -62 66 -137 207 -139
260 l-2 34 134 26 c73 15 154 35 180 45 185 69 378 314 440 561 56 220 -8 373
-178 424 -37 11 -48 10 -94 -8 -53 -21 -412 -71 -424 -59 -9 9 45 130 90 199
77 120 277 286 452 375 173 87 410 172 599 212 246 53 445 75 796 90 615 25
857 51 1170 122 242 55 541 174 619 247 33 31 35 55 9 89 -16 19 -68 14 -113
-13 -205 -119 -602 -229 -966 -265 -108 -10 -474 -34 -789 -50 -360 -19 -605
-51 -836 -110 -393 -101 -732 -277 -931 -483 -133 -138 -191 -240 -233 -404
-10 -40 -12 -42 -58 -48 -152 -21 -231 -39 -275 -63 -55 -29 -102 -88 -119
-147 -6 -22 -14 -43 -17 -47 -8 -10 -121 -31 -333 -63 -215 -32 -234 -32 -270
2 -16 15 -67 54 -115 88 -80 56 -87 64 -104 115 -12 35 -19 85 -19 138 0 59
-4 82 -12 82 -7 0 -19 4 -27 9 -12 8 -10 14 7 35 l20 27 -23 87 c-16 60 -20
91 -13 99 6 7 8 32 4 55 -3 24 -9 74 -12 111 -4 44 -12 71 -20 74 -19 7 -18
23 1 23 19 0 20 48 1 69 -12 13 -12 33 -5 111 7 64 7 96 0 98 -7 2 -8 32 -4
81 7 96 1 123 -31 141 -60 31 -102 -55 -77 -156 10 -39 9 -49 -4 -64 -17 -19
-20 -56 -5 -65 14 -8 13 -152 -1 -161 -12 -7 -10 -17 14 -104 11 -42 12 -70 6
-113 -7 -45 -6 -64 6 -87 8 -16 15 -44 15 -62 0 -18 4 -39 9 -47 7 -10 3 -23
-10 -39 -24 -31 -24 -47 1 -72 11 -11 24 -45 31 -84 12 -71 20 -74 63 -27 21
23 36 27 36 9 0 -23 -43 -58 -72 -58 -32 0 -34 -6 -13 -34 16 -21 20 -56 8
-56 -5 0 -45 18 -89 39 -93 45 -317 124 -479 169 -90 26 -216 54 -482 108 -13
2 -23 10 -23 18 0 26 111 354 180 536 119 308 217 589 322 920 54 173 124 394
155 490 30 96 78 234 105 305 28 72 54 140 59 152 8 22 9 22 111 -24 143 -63
211 -88 378 -140 468 -143 1163 -270 1683 -308 l89 -7 -7 -26 c-16 -66 -17
-279 -1 -355 48 -236 200 -438 411 -549 120 -63 209 -83 365 -82 119 1 145 4
215 27 266 89 473 312 540 582 19 77 25 253 12 346 l-8 57 93 7 c413 29 955
115 1419 224 478 112 979 302 1324 501 155 90 347 232 429 319 17 17 33 31 38
31 4 0 50 -52 101 -115z m-4034 -460 c144 -34 319 -160 402 -288 46 -72 97
-192 105 -249 l6 -43 -110 -23 c-339 -70 -686 -71 -1063 -1 -116 22 -119 23
-119 49 0 90 86 262 182 365 89 95 223 173 343 198 48 11 195 5 254 -8z m-594
-830 c241 -12 265 -20 265 -93 0 -90 66 -144 174 -144 107 0 152 37 165 137
12 89 11 89 239 97 108 4 212 9 231 12 l33 5 -7 -37 c-19 -105 -101 -257 -184
-345 -71 -76 -205 -154 -314 -183 -128 -34 -317 -8 -450 63 -91 49 -212 166
-260 253 -28 50 -87 219 -87 247 0 3 17 2 38 -1 20 -3 91 -8 157 -11z m-2327
-806 c-2 -6 -8 -10 -13 -10 -5 0 -11 4 -13 10 -2 6 4 11 13 11 9 0 15 -5 13
-11z m52 -619 c0 -11 -7 -20 -15 -20 -8 0 -15 9 -15 20 0 11 7 20 15 20 8 0
15 -9 15 -20z m1215 -586 c56 -26 151 -129 187 -202 30 -60 33 -75 32 -152 -1
-78 -8 -110 -33 -150 -6 -8 -13 -28 -16 -44 -3 -16 -23 -47 -44 -68 -32 -31
-46 -38 -77 -38 -22 0 -54 9 -74 21 -32 20 -33 23 -15 30 11 4 31 8 44 8 67 2
141 117 141 219 0 96 -63 200 -164 274 -31 22 -50 28 -93 28 -64 0 -69 14 -18
59 41 35 79 40 130 15z m-49 -209 c47 -36 84 -117 84 -184 0 -31 -4 -61 -8
-67 -14 -22 -70 -33 -412 -85 -89 -13 -220 -44 -273 -64 -20 -8 -39 -15 -41
-15 -1 0 -3 30 -4 66 -1 86 -8 116 -44 197 -17 37 -29 69 -27 72 3 2 133 24
289 49 157 24 296 47 310 49 63 11 94 6 126 -18z m-140 -462 c16 -21 38 -46
49 -56 37 -33 121 -67 182 -73 l60 -7 12 -52 c22 -98 97 -228 185 -323 75 -80
228 -161 338 -177 50 -8 69 -18 148 -82 69 -57 195 -117 300 -145 71 -18 115
-22 265 -23 99 -1 217 -7 263 -13 169 -26 409 22 603 119 173 86 340 219 500
397 58 64 88 91 99 86 48 -19 347 -75 495 -93 136 -17 356 -31 484 -31 l114 0
-54 -55 c-30 -31 -77 -95 -105 -143 -28 -48 -65 -101 -81 -117 -17 -17 -33
-47 -37 -66 -4 -25 -14 -39 -32 -47 -21 -10 -24 -18 -22 -52 1 -32 -3 -43 -26
-61 -24 -19 -27 -27 -21 -55 5 -30 2 -35 -25 -49 -33 -17 -38 -39 -15 -65 8
-9 12 -25 8 -38 -6 -24 -23 -28 -40 -11 -16 16 -43 4 -43 -19 0 -27 22 -42 48
-35 22 5 22 5 6 -48 -9 -29 -20 -63 -25 -76 -5 -14 -9 -40 -9 -59 0 -31 -3
-34 -30 -34 -23 0 -31 -5 -36 -24 -8 -32 3 -49 27 -43 17 5 19 -1 19 -53 0
-44 -5 -64 -22 -85 -18 -23 -19 -30 -9 -47 14 -23 5 -268 -10 -268 -5 0 -9 5
-9 11 0 6 -10 9 -22 7 -17 -2 -24 -11 -26 -31 -3 -28 -2 -29 35 -25 l38 3 3
-68 c3 -68 3 -68 -28 -80 -40 -15 -38 -50 3 -55 27 -3 27 -4 27 -78 0 -70 -1
-75 -25 -84 -37 -14 -31 -36 18 -57 25 -12 27 -17 27 -68 0 -47 -3 -57 -25
-71 -30 -19 -32 -34 -6 -41 15 -4 20 -18 25 -73 8 -94 -17 -170 -96 -289 -35
-51 -71 -109 -81 -129 -11 -19 -30 -44 -43 -55 -15 -12 -24 -29 -24 -47 0 -21
-9 -36 -35 -56 -28 -21 -33 -29 -25 -44 6 -10 10 -30 10 -44 0 -23 -2 -25 -25
-16 -34 13 -55 3 -55 -26 0 -19 5 -24 25 -24 14 0 25 -6 25 -12 0 -26 -31
-112 -45 -128 -13 -15 -14 -24 -3 -63 12 -45 11 -48 -15 -75 -32 -34 -34 -45
-7 -63 13 -10 22 -33 28 -72 9 -56 8 -59 -15 -70 -32 -15 -29 -59 6 -67 32 -7
50 -35 33 -52 -10 -10 -22 -10 -57 0 -42 11 -48 10 -75 -10 -26 -18 -33 -20
-56 -9 -21 9 -30 9 -43 -2 -30 -26 -392 -57 -671 -57 -484 0 -1134 77 -1473
175 -45 13 -95 25 -112 27 -21 2 -29 8 -26 18 13 51 12 60 -4 66 -23 9 -54
-21 -37 -38 35 -35 -11 -38 -58 -3 -23 17 -47 25 -76 25 -77 0 -105 10 -116
42 -8 24 -15 29 -37 26 -21 -2 -27 -9 -31 -36 -4 -28 -14 -38 -60 -63 -45 -24
-61 -29 -96 -23 -39 5 -41 4 -54 -26 -10 -25 -28 -38 -79 -62 -36 -17 -77 -37
-91 -44 -179 -98 -465 -191 -709 -229 -39 -6 -42 -5 -38 11 29 97 36 420 12
556 -25 143 -36 188 -52 203 -18 18 -24 19 -48 1 -18 -13 -18 -16 1 -127 35
-208 22 -623 -20 -658 -29 -24 -582 -43 -656 -22 -21 6 -27 16 -38 71 -7 36
-15 133 -19 215 -6 166 5 293 39 442 17 76 19 95 8 108 -17 20 -43 19 -63 -2
-17 -19 -47 -131 -68 -253 -17 -94 -17 -390 -1 -489 7 -40 11 -76 8 -78 -17
-17 -383 63 -501 109 l-60 24 -23 89 c-18 70 -24 119 -24 220 -1 142 12 222
57 341 39 100 41 120 16 133 -14 8 -27 9 -40 2 -40 -22 -95 -178 -119 -337
-13 -94 -14 -130 -5 -220 6 -60 14 -117 18 -126 16 -40 -26 -15 -88 52 -121
131 -175 292 -164 485 8 124 35 231 85 339 55 116 104 185 216 303 53 56 102
116 110 134 l14 34 69 -3 c56 -2 85 3 166 31 119 42 161 70 232 157 77 95 103
156 111 265 l6 90 109 105 c120 116 142 154 159 266 21 145 6 270 -40 346 -13
22 -20 50 -20 84 0 94 8 112 69 157 169 123 213 160 290 237 174 175 325 415
396 624 23 72 65 235 65 257 0 43 123 92 310 124 190 33 192 32 226 -12z
m-736 -333 c0 -5 -4 -10 -10 -10 -5 0 -10 5 -10 10 0 6 5 10 10 10 6 0 10 -4
10 -10z m-6202 -12 c-7 -19 -38 -22 -38 -4 0 10 9 16 21 16 12 0 19 -5 17 -12z
m6005 -115 c-22 -35 -33 -43 -50 -36 -21 8 -16 19 20 42 43 28 51 26 30 -6z
m-5965 -7 c3 -12 -1 -17 -10 -14 -7 3 -15 13 -16 22 -3 12 1 17 10 14 7 -3 15
-13 16 -22z m132 9 c0 -15 -26 -32 -36 -23 -2 3 -2 13 2 22 8 20 34 21 34 1z
m5964 -16 c-20 -22 -54 -25 -54 -6 0 14 49 37 63 29 5 -2 1 -13 -9 -23z
m-5779 -79 c0 -8 -10 -16 -22 -18 -22 -3 -32 16 -16 32 12 11 38 2 38 -14z
m-130 -10 c0 -8 -8 -16 -17 -18 -13 -2 -18 3 -18 18 0 15 5 20 18 18 9 -2 17
-10 17 -18z m5575 11 c0 -10 -24 -21 -43 -21 -7 0 -3 7 7 15 22 17 36 19 36 6z
m-5700 -21 c0 -21 -24 -28 -35 -10 -8 14 3 30 21 30 8 0 14 -9 14 -20z m5830
5 c0 -16 -27 -32 -37 -22 -3 4 -3 13 0 22 8 20 37 20 37 0z m138 -12 c5 -17
-26 -29 -40 -15 -6 6 -7 15 -3 22 9 14 37 9 43 -7z m-331 1 c-3 -3 -12 -4 -19
-1 -8 3 -5 6 6 6 11 1 17 -2 13 -5z m-79 -90 c25 -11 25 -12 8 -19 -15 -6 -25
-1 -43 21 -12 16 -23 34 -23 39 1 6 7 1 15 -10 9 -10 28 -24 43 -31z m-5506
-16 c-16 -16 -37 4 -28 28 6 16 8 16 23 1 13 -13 15 -19 5 -29z m251 36 c8 -8
-11 -44 -22 -44 -15 0 -22 33 -9 42 16 9 23 10 31 2z m5125 -17 c2 -10 -3 -17
-12 -17 -18 0 -29 16 -21 31 9 14 29 6 33 -14z m-5242 2 c10 -17 -23 -46 -37
-32 -7 7 -9 19 -6 27 7 18 33 21 43 5z m228 5 c20 -7 21 -20 3 -27 -19 -7 -41
8 -33 22 8 13 9 13 30 5z m116 2 c0 -2 3 -11 6 -20 4 -11 1 -16 -10 -16 -9 0
-16 2 -16 4 0 2 -3 11 -6 20 -4 11 -1 16 10 16 9 0 16 -2 16 -4z m5240 -11 c0
-8 -9 -15 -19 -15 -11 0 -28 -3 -38 -7 -17 -6 -17 -5 1 15 22 25 56 29 56 7z
m130 5 c13 -9 13 -11 0 -20 -21 -14 -40 -12 -40 3 0 26 16 33 40 17z m-5242
-28 c2 -7 -3 -12 -12 -12 -9 0 -16 7 -16 16 0 17 22 14 28 -4z m4632 4 c0 -3
-4 -8 -10 -11 -5 -3 -10 -1 -10 4 0 6 5 11 10 11 6 0 10 -2 10 -4z m-5063
-100 c-4 -9 -11 -16 -17 -16 -11 0 -14 33 -3 44 11 10 26 -11 20 -28z m127 1
c-7 -19 -20 -22 -29 -7 -9 15 16 43 27 32 5 -5 6 -16 2 -25z m120 11 c6 -25
-7 -44 -23 -34 -12 8 -15 39 -4 49 12 12 21 7 27 -15z m124 -11 c2 -19 -1 -27
-12 -27 -11 0 -16 10 -16 31 0 38 24 35 28 -4z m132 2 c0 -22 -25 -26 -33 -5
-6 16 12 38 25 30 4 -3 8 -14 8 -25z m112 19 c-9 -9 -15 -9 -24 0 -9 9 -7 12
12 12 19 0 21 -3 12 -12z m77 3 c7 -5 10 -14 7 -20 -8 -13 -46 3 -46 19 0 12
20 13 39 1z m4191 -11 c-6 -11 -17 -20 -26 -20 -12 0 -12 4 -4 20 6 11 17 20
26 20 12 0 12 -4 4 -20z m120 1 c0 -24 -18 -37 -32 -23 -8 8 -7 16 2 27 17 21
30 19 30 -4z m143 4 c4 -8 2 -17 -4 -21 -15 -9 -39 3 -39 21 0 19 36 20 43 0z
m134 -1 c8 -21 -13 -42 -28 -27 -13 13 -5 43 11 43 6 0 13 -7 17 -16z m148 -6
l30 -4 -35 -16 c-31 -14 -36 -15 -43 -2 -10 18 1 54 11 37 4 -6 21 -13 37 -15z
m-5535 -3 c0 -8 -4 -15 -10 -15 -5 0 -10 7 -10 15 0 8 5 15 10 15 6 0 10 -7
10 -15z m4850 0 c-35 -20 -62 -19 -36 0 11 8 29 15 40 15 19 -1 19 -2 -4 -15z
m865 6 c6 -10 -25 -31 -45 -31 -8 0 -8 6 0 20 11 21 35 27 45 11z m-4780 -31
c-3 -5 -10 -10 -16 -10 -5 0 -9 5 -9 10 0 6 7 10 16 10 8 0 12 -4 9 -10z
m3562 -56 c8 -21 -13 -42 -28 -27 -13 13 -5 43 11 43 6 0 13 -7 17 -16z m131
-8 c2 -10 -1 -23 -7 -29 -16 -16 -34 6 -26 33 8 24 28 22 33 -4z m-4043 4 c3
-5 -1 -10 -10 -10 -9 0 -13 5 -10 10 3 6 8 10 10 10 2 0 7 -4 10 -10z m161 -1
c9 -16 -12 -33 -31 -25 -14 5 -15 9 -5 21 15 18 26 19 36 4z m128 2 c9 -14 -4
-41 -20 -41 -8 0 -14 8 -14 18 0 29 22 43 34 23z m126 -16 c0 -19 -20 -29 -32
-17 -8 8 -7 16 2 26 14 17 30 12 30 -9z m267 1 c-6 -17 -47 -20 -47 -3 0 9 6
17 13 20 18 6 38 -4 34 -17z m3092 15 c18 -11 5 -31 -20 -31 -18 0 -26 20 -12
33 8 9 15 9 32 -2z m404 -27 c-8 -20 -33 -17 -33 4 0 10 3 22 7 25 10 11 32
-13 26 -29z m144 2 c-9 -23 -37 -20 -37 3 0 21 20 33 34 20 5 -4 6 -15 3 -23z
m143 14 c0 -23 -26 -38 -41 -23 -14 14 0 43 22 43 12 0 19 -7 19 -20z m128 -8
c3 -17 -2 -22 -17 -22 -14 0 -21 6 -21 18 0 38 33 41 38 4z m-4768 -17 c-7 -8
-16 -15 -21 -15 -14 0 -11 38 4 43 20 7 31 -11 17 -28z m720 15 c0 -11 -7 -20
-15 -20 -15 0 -21 21 -8 33 12 13 23 7 23 -13z m-960 1 c0 -5 -7 -14 -15 -21
-18 -15 -42 1 -31 19 8 13 46 15 46 2z m114 -7 c4 -9 4 -19 2 -22 -10 -9 -36
8 -36 23 0 20 26 19 34 -1z m1096 6 c0 -5 -7 -10 -15 -10 -8 0 -15 5 -15 10 0
6 7 10 15 10 8 0 15 -4 15 -10z m2840 -5 c0 -8 -6 -15 -14 -15 -17 0 -28 14
-19 24 12 12 33 6 33 -9z m1227 -19 c-9 -23 -37 -20 -37 3 0 21 20 33 34 20 5
-4 6 -15 3 -23z m-4925 2 c-7 -7 -12 -8 -12 -2 0 14 12 26 19 19 2 -3 -1 -11
-7 -17z m5081 7 c-1 -5 -8 -14 -17 -20 -18 -11 -42 7 -31 25 8 13 51 9 48 -5z
m-3995 -63 c2 -13 -3 -25 -13 -28 -22 -9 -29 1 -21 31 8 31 30 28 34 -3z m140
-5 c3 -22 -1 -27 -17 -27 -15 0 -21 6 -21 23 0 46 33 49 38 4z m142 3 c0 -13
-7 -20 -20 -20 -13 0 -20 7 -20 20 0 13 7 20 20 20 13 0 20 -7 20 -20z m147 9
c16 -16 5 -39 -18 -39 -12 0 -19 7 -19 18 0 31 17 41 37 21z m-562 -8 c6 -10
-21 -41 -36 -41 -10 0 -12 33 -2 43 9 10 31 9 38 -2z m700 -17 c0 -10 -8 -20
-17 -22 -18 -3 -26 27 -11 42 12 11 28 0 28 -20z m1295 0 c0 -20 -29 -30 -43
-15 -9 10 -8 16 7 26 21 16 36 11 36 -11z m144 10 c3 -9 4 -20 0 -25 -8 -13
-32 -11 -37 4 -11 32 25 53 37 21z m134 -6 c-5 -34 -38 -37 -38 -4 0 20 5 26
21 26 15 0 20 -5 17 -22z m142 9 c0 -14 -20 -37 -32 -37 -10 0 -11 34 -1 43
11 12 33 8 33 -6z m404 -3 c7 -19 -1 -34 -19 -34 -21 0 -28 19 -15 35 16 19
26 19 34 -1z m-3606 -22 c-2 -8 -8 -17 -14 -19 -13 -4 -27 24 -19 37 9 14 36
-1 33 -18z m122 3 c0 -19 -20 -29 -32 -17 -8 8 -7 16 2 26 14 17 30 12 30 -9z
m524 16 c3 -4 -1 -17 -9 -27 -10 -15 -16 -16 -26 -7 -6 6 -9 19 -6 27 7 17 32
22 41 7z m974 -14 c2 -12 -3 -17 -17 -17 -12 0 -21 6 -21 13 0 31 32 34 38 4z
m882 -3 c0 -17 -36 -19 -46 -3 -8 14 14 29 33 22 7 -3 13 -11 13 -19z m138 3
c2 -11 -3 -17 -17 -17 -23 0 -35 15 -26 31 10 15 39 6 43 -14z m702 3 c0 -13
-7 -20 -20 -20 -13 0 -20 7 -20 20 0 13 7 20 20 20 13 0 20 -7 20 -20z m128 3
c-5 -26 -38 -29 -38 -4 0 15 6 21 21 21 14 0 19 -5 17 -17z m269 1 c8 -21 -13
-42 -28 -27 -13 13 -5 43 11 43 6 0 13 -7 17 -16z m138 6 c8 -13 -13 -40 -31
-40 -14 0 -19 31 -7 43 10 10 31 8 38 -3z m129 1 c10 -16 -5 -41 -25 -41 -22
0 -23 4 -9 31 11 20 25 25 34 10z m134 -13 c-2 -12 -9 -23 -15 -26 -19 -6 -29
28 -12 39 23 14 31 10 27 -13z m152 7 c0 -19 -24 -29 -46 -21 -13 5 -14 9 -4
21 16 20 50 19 50 0z m127 -1 c8 -21 -13 -42 -28 -27 -13 13 -5 43 11 43 6 0
13 -7 17 -16z m150 -1 c5 -14 -26 -45 -38 -38 -13 9 -11 43 4 48 16 7 30 3 34
-10z m-5027 -14 c0 -25 -33 -22 -38 4 -2 12 3 17 17 17 15 0 21 -6 21 -21z
m708 4 c-2 -10 -10 -18 -18 -18 -8 0 -16 8 -18 18 -2 12 3 17 18 17 15 0 20
-5 18 -17z m130 0 c-2 -10 -10 -18 -18 -18 -8 0 -16 8 -18 18 -2 12 3 17 18
17 15 0 20 -5 18 -17z m128 6 c9 -16 -12 -33 -31 -25 -14 5 -15 9 -5 21 15 18
26 19 36 4z m1252 -11 c-2 -13 -10 -23 -18 -23 -8 0 -16 10 -18 23 -3 17 2 22
18 22 16 0 21 -5 18 -22z m150 5 c5 -17 -26 -29 -40 -15 -6 6 -7 15 -3 22 9
14 37 9 43 -7z m142 3 c0 -7 -7 -19 -15 -26 -20 -16 -38 -1 -29 23 7 20 44 23
44 3z m160 -2 c7 -7 -22 -24 -42 -24 -20 0 -32 16 -22 31 6 10 52 5 64 -7z
m155 7 c3 -6 -3 -15 -14 -20 -27 -15 -31 -14 -31 9 0 21 33 29 45 11z m2322
-7 c8 -21 -13 -42 -28 -27 -13 13 -5 43 11 43 6 0 13 -7 17 -16z m-5027 -8 c0
-8 -5 -18 -11 -22 -14 -8 -33 11 -25 25 10 16 36 13 36 -3z m108 -8 c5 -25
-25 -23 -38 3 -10 18 -9 20 12 17 12 -2 24 -11 26 -20z m105 7 c1 -5 -6 -11
-15 -13 -11 -2 -18 3 -18 13 0 17 30 18 33 0z m4937 1 c0 -2 -7 -9 -15 -16
-12 -10 -15 -10 -15 4 0 9 7 16 15 16 8 0 15 -2 15 -4z m-3965 -97 c0 -15 -7
-25 -18 -27 -22 -4 -33 24 -17 43 18 21 35 13 35 -16z m139 16 c8 -21 -3 -45
-20 -45 -8 0 -14 10 -14 23 0 36 22 51 34 22z m144 -9 c2 -10 -1 -23 -7 -29
-15 -15 -40 9 -34 34 7 24 36 21 41 -5z m137 14 c7 -12 -12 -50 -25 -50 -11 0
-14 43 -3 53 9 10 21 9 28 -3z m153 -23 c3 -22 -1 -27 -17 -27 -21 0 -26 15
-15 45 9 23 29 13 32 -18z m1289 -12 c-6 -17 -37 -18 -43 -1 -3 9 0 23 7 32
12 14 14 14 26 -2 7 -10 12 -23 10 -29z m283 14 c0 -24 -29 -37 -40 -18 -12
18 7 50 25 43 8 -4 15 -15 15 -25z m-2811 -26 c-14 -16 -29 -8 -29 16 0 27 13
34 27 15 9 -13 10 -21 2 -31z m391 16 c0 -20 -24 -26 -35 -9 -8 13 14 42 26
34 5 -3 9 -14 9 -25z m140 11 c0 -24 -26 -38 -42 -22 -8 8 -8 15 2 27 18 21
40 19 40 -5z m848 -3 c4 -20 -25 -34 -39 -20 -14 14 1 45 20 41 9 -2 17 -11
19 -21z m137 -7 c0 -29 -32 -41 -41 -16 -9 24 4 48 23 44 12 -2 18 -12 18 -28z
m134 -11 c-14 -27 -39 -24 -39 5 0 27 18 39 37 24 9 -7 10 -16 2 -29z m151 17
c0 -24 -23 -41 -41 -30 -13 7 -11 28 3 42 20 20 38 14 38 -12z m140 0 c0 -14
-4 -27 -9 -30 -15 -10 -41 5 -41 23 0 23 9 31 32 31 12 0 18 -7 18 -24z m168
3 c2 -12 -6 -18 -33 -21 -38 -4 -48 1 -37 18 17 27 65 28 70 3z m136 5 c7 -19
-1 -34 -19 -34 -21 0 -28 19 -15 35 16 19 26 19 34 -1z m134 -12 c2 -14 -3
-25 -13 -29 -21 -7 -34 12 -27 39 6 26 36 19 40 -10z m292 3 c0 -18 -5 -25
-19 -25 -26 0 -36 17 -21 35 19 23 40 18 40 -10z m274 16 c9 -14 -4 -41 -20
-41 -8 0 -14 10 -14 25 0 25 23 35 34 16z m134 -19 c3 -17 -2 -22 -17 -22 -16
0 -21 6 -21 26 0 33 33 30 38 -4z m677 -3 c0 -28 -29 -38 -39 -13 -7 19 11 47
28 41 6 -2 11 -14 11 -28z m135 -5 c0 -19 -5 -25 -17 -22 -22 4 -30 38 -12 49
19 11 29 2 29 -27z m145 26 c7 -11 -12 -50 -25 -50 -12 0 -23 37 -15 50 8 13
32 13 40 0z m135 -14 c0 -27 -28 -43 -36 -21 -9 21 3 45 21 45 9 0 15 -9 15
-24z m137 -20 c-8 -20 -36 -21 -43 -1 -4 8 0 22 7 31 11 13 14 13 27 0 8 -8
12 -22 9 -30z m-4554 20 c9 -22 -18 -40 -33 -22 -6 9 -9 20 -5 26 9 15 32 12
38 -4z m127 2 c0 -7 -5 -20 -10 -28 -12 -19 -35 2 -27 24 7 19 37 21 37 4z
m255 2 c10 -16 -16 -43 -28 -31 -11 11 -2 41 12 41 5 0 13 -5 16 -10z m129 -7
c9 -23 -16 -37 -31 -16 -7 9 -10 20 -7 24 9 15 31 10 38 -8z m2956 2 c0 -9 -7
-18 -16 -22 -18 -7 -39 11 -30 26 11 17 46 13 46 -4z m130 -4 c0 -21 -26 -36
-36 -20 -9 15 3 39 21 39 8 0 15 -9 15 -19z m135 9 c4 -6 4 -18 1 -27 -5 -12
-9 -13 -21 -3 -8 7 -15 19 -15 26 0 16 26 19 35 4z m145 -10 c0 -24 -26 -38
-42 -22 -16 16 -2 42 22 42 13 0 20 -7 20 -20z m-4112 -8 c3 -9 -2 -13 -14
-10 -9 1 -19 9 -22 16 -3 9 2 13 14 10 9 -1 19 -9 22 -16z m107 -2 c0 -7 -6
-15 -12 -17 -8 -3 -13 4 -13 17 0 13 5 20 13 18 6 -3 12 -11 12 -18z m4824 7
c14 -17 4 -27 -25 -27 -21 0 -39 22 -27 34 11 11 40 6 52 -7z m-3852 -111 c-9
-23 -37 -20 -37 3 0 21 20 33 34 20 5 -4 6 -15 3 -23z m143 14 c0 -11 -7 -23
-16 -27 -20 -8 -36 17 -22 34 16 20 38 15 38 -7z m136 9 c3 -6 -1 -18 -10 -27
-14 -14 -18 -15 -25 -3 -5 8 -7 20 -4 28 6 16 29 17 39 2z m131 -5 c9 -23 -11
-38 -26 -20 -13 16 -7 36 10 36 5 0 12 -7 16 -16z m158 -9 c0 -30 -39 -27 -43
3 -3 20 0 23 20 20 15 -2 23 -10 23 -23z m142 9 c2 -5 -3 -19 -11 -29 -21 -28
-43 -7 -26 25 11 21 31 23 37 4z m143 -15 c0 -14 -42 -21 -54 -9 -16 17 22 44
41 29 7 -6 13 -15 13 -20z m268 3 c3 -17 -2 -22 -17 -22 -14 0 -21 6 -21 18 0
38 33 41 38 4z m145 14 c6 -16 -11 -36 -30 -36 -13 0 -18 32 -6 43 11 12 31 8
36 -7z m135 2 c18 -18 14 -28 -11 -28 -29 0 -37 7 -30 26 6 17 25 18 41 2z
m172 2 c13 -8 13 -11 -2 -26 -14 -14 -20 -15 -33 -4 -12 10 -13 16 -4 26 13
16 19 17 39 4z m137 -6 c7 -20 -23 -52 -37 -38 -13 13 -1 54 16 54 8 0 17 -7
21 -16z m139 1 c9 -23 -15 -48 -32 -34 -10 8 -11 16 -3 30 12 23 28 25 35 4z
m143 6 c17 -11 7 -41 -13 -41 -19 0 -28 14 -20 34 7 18 13 19 33 7z m158 -15
c-6 -17 -47 -20 -47 -3 0 9 6 17 13 20 18 6 38 -4 34 -17z m129 13 c3 -6 -1
-18 -10 -27 -14 -14 -18 -15 -25 -3 -5 8 -7 20 -4 28 6 16 29 17 39 2z m134
-13 c0 -27 -28 -43 -36 -21 -9 21 3 45 21 45 9 0 15 -9 15 -24z m1090 5 c0
-10 -7 -24 -15 -31 -21 -17 -39 1 -30 29 8 27 45 28 45 2z m-4413 -6 c3 -9 2
-19 -1 -23 -8 -8 -38 10 -44 26 -6 18 38 14 45 -3z m123 -4 c0 -11 -5 -23 -11
-27 -15 -9 -33 12 -26 30 9 23 37 20 37 -3z m130 -1 c0 -13 -7 -20 -20 -20
-19 0 -27 20 -13 33 13 14 33 6 33 -13z m126 9 c9 -15 -11 -33 -30 -26 -9 4
-13 13 -10 22 7 17 30 20 40 4z m132 -6 c-5 -26 -38 -29 -38 -4 0 15 6 21 21
21 14 0 19 -5 17 -17z m132 2 c0 -16 -27 -32 -37 -22 -3 4 -3 13 0 22 8 20 37
20 37 0z m130 -5 c0 -13 -7 -20 -20 -20 -22 0 -23 1 -14 24 9 23 34 20 34 -4z
m1120 11 c0 -20 -13 -41 -25 -41 -15 0 -24 19 -17 38 5 14 42 17 42 3z m1568
-8 c-2 -10 -13 -19 -26 -21 -24 -4 -25 -2 -16 22 9 23 46 21 42 -1z m132 -3
c0 -13 -7 -20 -20 -20 -13 0 -20 7 -20 20 0 13 7 20 20 20 13 0 20 -7 20 -20z
m136 9 c10 -17 -23 -46 -37 -32 -7 7 -9 19 -6 27 7 18 33 21 43 5z m142 -12
c4 -21 -27 -35 -38 -17 -12 19 0 42 19 38 9 -2 17 -11 19 -21z m129 7 c7 -18
-17 -38 -31 -24 -11 11 -1 40 14 40 6 0 13 -7 17 -16z m133 -9 c0 -15 -6 -25
-14 -25 -19 0 -28 14 -20 34 10 25 34 19 34 -9z m150 -11 c0 -16 -36 -19 -45
-4 -4 6 -1 17 5 26 14 16 40 2 40 -22z m267 20 c8 -21 -23 -52 -38 -37 -14 14
-2 53 17 53 8 0 17 -7 21 -16z m-4347 -105 c0 -11 -27 -12 -34 0 -3 4 -3 11 0
14 8 8 34 -3 34 -14z m368 -1 c4 -20 -29 -33 -39 -16 -9 15 9 40 25 35 6 -2
12 -11 14 -19z m132 3 c0 -11 -5 -23 -11 -27 -15 -9 -33 12 -26 30 9 23 37 20
37 -3z m273 5 c7 -17 -18 -40 -33 -31 -7 4 -7 12 0 26 13 23 26 25 33 5z m280
-22 c-3 -8 -12 -14 -19 -14 -20 0 -30 30 -13 40 17 11 40 -7 32 -26z m285 2
c-4 -25 -36 -34 -44 -12 -8 21 13 46 32 39 8 -3 14 -15 12 -27z m137 8 c0 -12
-8 -20 -22 -22 -25 -4 -31 16 -11 36 17 17 33 10 33 -14z m143 -3 c-5 -24 -38
-27 -38 -3 0 10 3 21 6 25 11 11 35 -5 32 -22z m128 -10 c-22 -21 -46 0 -26
24 10 12 16 13 27 3 12 -10 12 -13 -1 -27z m299 19 c0 -22 -39 -19 -43 3 -3
15 1 18 20 15 12 -2 23 -10 23 -18z m305 0 c0 -24 -26 -38 -42 -22 -16 16 -2
42 22 42 13 0 20 -7 20 -20z m275 -6 c0 -10 -8 -20 -17 -22 -18 -3 -26 27 -11
42 12 11 28 0 28 -20z m289 10 c7 -19 -1 -34 -19 -34 -18 0 -28 17 -21 35 7
20 32 19 40 -1z m276 -4 c0 -11 -7 -23 -16 -27 -20 -8 -36 17 -22 34 16 20 38
15 38 -7z m130 0 c0 -24 -26 -38 -42 -22 -8 8 -8 15 2 27 18 21 40 19 40 -5z
m269 11 c19 -12 6 -41 -19 -41 -13 0 -20 7 -20 18 0 31 14 39 39 23z m-3469
-5 c0 -18 -15 -36 -31 -36 -18 0 -26 20 -12 33 7 8 43 10 43 3z m120 -16 c0
-23 -25 -27 -33 -6 -7 16 1 26 20 26 7 0 13 -9 13 -20z m394 11 c3 -5 0 -13
-7 -19 -15 -13 -42 1 -33 17 9 13 33 15 40 2z m286 1 c0 -12 -23 -32 -37 -32
-17 0 -17 27 0 33 19 8 37 8 37 -1z m273 1 c9 -9 -12 -33 -29 -33 -8 0 -14 9
-14 20 0 19 28 28 43 13z m705 -5 c-3 -7 -15 -15 -28 -16 -21 -3 -22 -2 -11
12 16 19 44 21 39 4z m320 -10 c-4 -27 -23 -34 -32 -13 -8 21 1 35 20 35 10 0
14 -8 12 -22z m272 7 c0 -9 -7 -18 -16 -22 -18 -7 -39 11 -30 26 11 17 46 13
46 -4z m300 6 c0 -16 -27 -31 -44 -25 -30 11 -16 34 21 34 13 0 23 -4 23 -9z
m263 2 c9 -9 -12 -33 -29 -33 -8 0 -14 9 -14 20 0 19 28 28 43 13z m407 -7 c0
-17 -24 -38 -33 -29 -15 15 -6 43 13 43 11 0 20 -6 20 -14z m273 0 c7 -18 -1
-26 -25 -26 -11 0 -18 7 -18 20 0 23 35 28 43 6z m131 5 c9 -14 -4 -41 -19
-41 -15 0 -28 27 -19 41 3 5 11 9 19 9 8 0 16 -4 19 -9z m130 -23 c19 -37 19
-38 5 -38 -16 0 -38 31 -39 53 0 27 17 20 34 -15z m136 8 c0 -16 -18 -31 -27
-22 -8 8 5 36 17 36 5 0 10 -6 10 -14z m-3822 -94 c2 -7 -6 -12 -17 -12 -21 0
-27 11 -14 24 9 9 26 2 31 -12z m118 -28 c-8 -21 -36 -17 -36 6 0 24 33 46 38
24 2 -8 1 -22 -2 -30z m553 5 c-5 -10 -14 -19 -20 -19 -16 0 -22 29 -9 45 19
22 43 0 29 -26z m136 11 c0 -16 -6 -26 -17 -28 -14 -3 -18 3 -18 28 0 25 4 31
18 28 11 -2 17 -12 17 -28z m143 -6 c-5 -26 -38 -31 -38 -7 0 24 21 46 33 34
5 -5 7 -17 5 -27z m685 29 c9 -9 -33 -53 -50 -53 -20 0 -16 20 10 41 24 20 30
22 40 12z m152 -3 c3 -5 -1 -10 -10 -10 -9 0 -13 5 -10 10 3 6 8 10 10 10 2 0
7 -4 10 -10z m624 1 c17 -11 7 -41 -13 -41 -19 0 -29 17 -22 35 6 17 15 18 35
6z m131 -21 c0 -31 -16 -41 -26 -15 -8 19 2 45 16 45 5 0 10 -13 10 -30z m125
0 c0 -13 -6 -25 -12 -27 -16 -6 -27 21 -19 43 9 23 31 11 31 -16z m141 15 c6
-16 -12 -45 -27 -45 -10 0 -12 44 -2 53 11 11 23 8 29 -8z m1244 10 c0 -2 -17
-14 -37 -25 l-38 -21 70 5 c39 3 80 8 92 11 19 6 25 0 47 -44 104 -205 54
-449 -117 -566 l-59 -40 -138 -3 c-159 -4 -204 5 -338 69 -66 32 -86 38 -102
29 -48 -26 -1 -84 112 -139 84 -41 144 -51 311 -51 l140 0 -5 -73 c-10 -161
-126 -304 -283 -352 -165 -49 -341 -14 -512 103 -213 147 -357 407 -399 719
l-6 50 89 10 c49 6 145 25 213 41 69 17 181 42 250 57 184 40 370 97 605 186
115 44 105 40 105 34z m-3794 -16 c10 -17 -23 -46 -37 -32 -7 7 -9 19 -6 27 7
18 33 21 43 5z m134 -4 c13 -16 6 -35 -15 -35 -15 0 -28 27 -19 41 8 13 20 11
34 -6z m143 1 c8 -20 -20 -43 -35 -28 -14 14 -3 42 16 42 7 0 16 -6 19 -14z
m552 4 c10 -16 -16 -43 -28 -31 -11 11 -2 41 12 41 5 0 13 -5 16 -10z m145 -9
c0 -24 -18 -37 -32 -23 -8 8 -7 16 2 27 17 21 30 19 30 -4z m130 -6 c0 -16 -6
-25 -15 -25 -9 0 -15 9 -15 25 0 16 6 25 15 25 9 0 15 -9 15 -25z m140 11 c0
-7 -7 -19 -15 -26 -20 -16 -38 -1 -29 23 7 20 44 23 44 3z m618 -14 c4 -24 -7
-29 -26 -10 -18 18 -15 40 6 36 9 -2 18 -13 20 -26z m148 18 c8 0 14 -7 14
-15 0 -18 -9 -19 -45 -5 -15 6 -23 15 -20 21 4 6 14 8 22 5 8 -3 21 -6 29 -6z
m674 -9 c0 -11 -5 -23 -11 -27 -15 -9 -33 12 -26 30 9 23 37 20 37 -3z m138
-2 c3 -19 -27 -34 -40 -21 -13 13 2 43 21 40 9 -2 17 -10 19 -19z m130 -1 c-4
-29 -38 -38 -38 -10 0 22 8 32 27 32 9 0 13 -8 11 -22z m132 -3 c0 -18 -5 -25
-20 -25 -22 0 -26 20 -8 38 19 19 28 14 28 -13z m139 -11 c-14 -18 -39 -18
-39 -1 0 23 22 38 37 25 10 -8 10 -14 2 -24z m-1489 11 c13 -16 6 -35 -15 -35
-12 0 -25 21 -25 41 0 14 26 11 40 -6z m-260 -10 c0 -16 -27 -32 -37 -22 -3 4
-3 13 0 22 8 20 37 20 37 0z m130 -10 c0 -8 -9 -15 -20 -15 -11 0 -20 7 -20
15 0 8 9 15 20 15 11 0 20 -7 20 -15z m748 -83 c3 -17 -2 -22 -17 -22 -14 0
-21 6 -21 18 0 38 33 41 38 4z m-2140 1 c2 -8 -5 -13 -17 -13 -12 0 -21 6 -21
16 0 18 31 15 38 -3z m142 -8 c0 -19 -30 -27 -47 -13 -13 10 -13 14 2 24 19
14 45 8 45 -11z m130 5 c0 -13 -7 -20 -20 -20 -19 0 -27 20 -13 33 13 14 33 6
33 -13z m136 9 c9 -15 -11 -33 -30 -26 -9 4 -13 13 -10 22 7 17 30 20 40 4z
m144 -3 c0 -8 -5 -18 -10 -21 -17 -11 -40 3 -34 20 8 19 44 20 44 1z m138 -3
c5 -17 -26 -29 -40 -15 -6 6 -7 15 -3 22 9 14 37 9 43 -7z m142 -3 c0 -11 -7
-23 -15 -27 -21 -8 -28 1 -20 26 8 27 35 27 35 1z m128 -8 c2 -14 -2 -22 -11
-22 -17 0 -30 27 -21 41 9 16 29 4 32 -19z m119 -6 c-9 -23 -37 -20 -37 3 0
21 20 33 34 20 5 -4 6 -15 3 -23z m803 14 c0 -13 -7 -20 -20 -20 -13 0 -20 7
-20 20 0 13 7 20 20 20 13 0 20 -7 20 -20z m135 10 c8 -13 -14 -42 -26 -34 -5
3 -9 14 -9 25 0 20 24 26 35 9z m252 -6 c7 -18 -17 -38 -31 -24 -11 11 -1 40
14 40 6 0 13 -7 17 -16z m133 -3 c0 -11 -4 -22 -8 -25 -14 -9 -35 12 -29 28 9
23 37 20 37 -3z m140 -7 c0 -8 -10 -14 -25 -14 -26 0 -35 25 -12 33 18 6 37
-3 37 -19z m116 11 c-21 -16 -32 -13 -21 4 3 6 14 11 23 11 15 -1 15 -2 -2
-15z m-1201 -5 c7 -12 -12 -40 -26 -40 -5 0 -9 11 -9 25 0 25 23 35 35 15z
m138 4 c11 -11 -5 -34 -24 -34 -18 0 -26 20 -12 33 8 9 28 9 36 1z m145 -6
c-7 -20 -48 -23 -48 -4 0 11 9 16 26 16 16 0 24 -5 22 -12z m-548 -2 c0 -2 -3
-11 -6 -20 -9 -23 -34 -20 -34 4 0 13 7 20 20 20 11 0 20 -2 20 -4z m140 0 c0
-18 -15 -36 -31 -36 -12 0 -19 7 -19 20 0 15 7 20 25 20 14 0 25 -2 25 -4z
m620 -91 c0 -8 -9 -15 -20 -15 -22 0 -27 15 -7 23 21 9 27 7 27 -8z m-1320 -5
c13 -8 13 -10 -2 -10 -9 0 -20 5 -23 10 -8 13 5 13 25 0z m1178 -2 c-3 -7 -15
-15 -28 -16 -21 -3 -22 -2 -11 12 16 19 44 21 39 4z m-1023 -8 c4 -6 -5 -10
-19 -10 -14 0 -26 5 -26 10 0 6 9 10 19 10 11 0 23 -4 26 -10z m330 -9 c-8
-13 -45 -15 -45 -2 0 5 10 11 23 13 27 5 31 3 22 -11z m284 -5 c-2 -2 -14 -7
-26 -10 -17 -5 -23 -3 -23 8 0 17 30 27 44 14 5 -4 8 -9 5 -12z m135 9 c-6
-16 -54 -21 -54 -7 0 15 12 22 36 22 17 0 22 -4 18 -15z m136 6 c0 -9 -24 -21
-41 -21 -5 0 -9 7 -9 15 0 9 9 15 25 15 14 0 25 -4 25 -9z m-410 -10 c0 -15
-16 -22 -34 -15 -25 9 -19 24 9 24 14 0 25 -4 25 -9z"/>
<path d="M10680 18952 c-21 -17 -21 -19 -24 -457 -2 -336 -7 -470 -19 -565 -9
-69 -17 -131 -17 -139 0 -11 -14 -13 -72 -7 -266 25 -355 29 -622 30 l-299 1
-14 60 c-30 135 -97 319 -191 525 -57 126 -221 430 -250 463 -19 21 -55 22
-72 2 -19 -23 -7 -62 50 -161 63 -107 158 -295 211 -416 38 -86 159 -438 159
-462 0 -7 -11 -18 -24 -24 -33 -15 -42 -47 -22 -78 16 -23 20 -24 74 -17 85
12 444 9 637 -5 517 -36 941 -106 1455 -238 208 -54 595 -176 663 -210 27 -13
55 -24 63 -24 22 0 248 -92 256 -104 4 -6 6 -17 3 -24 -3 -7 3 -16 12 -19 11
-4 26 4 44 25 16 18 32 32 37 32 5 0 16 -16 25 -35 11 -23 24 -35 37 -35 23 0
60 33 60 53 0 18 -43 37 -81 37 l-30 0 7 50 c6 42 4 51 -12 57 -12 4 -22 0
-32 -15 -8 -12 -20 -22 -26 -22 -6 0 -48 17 -94 37 -76 34 -82 40 -77 61 6 23
-9 52 -26 52 -5 0 -19 -11 -31 -25 -26 -30 -39 -31 -63 -5 -10 11 -34 23 -54
26 -20 4 -76 21 -126 39 -49 17 -137 45 -195 60 -58 16 -109 31 -113 35 -12
11 153 374 256 562 52 95 133 234 181 308 47 74 86 144 86 155 0 49 -55 60
-92 20 -30 -32 -225 -353 -310 -510 -62 -114 -148 -298 -201 -430 -20 -51 -27
-60 -48 -59 -13 1 -103 20 -199 43 -228 54 -530 115 -700 141 -74 12 -135 22
-137 24 -1 1 5 72 14 157 13 118 17 254 17 587 1 418 0 434 -18 448 -25 18
-29 18 -56 -4z"/>
<path d="M14444 18836 c-10 -26 4 -48 28 -44 17 2 23 10 23 28 0 18 -6 26 -23
28 -13 2 -25 -3 -28 -12z"/>
<path d="M14584 18835 c-9 -23 3 -45 25 -45 25 0 34 14 26 40 -7 23 -43 27
-51 5z"/>
<path d="M14335 18830 c-3 -5 1 -10 9 -10 9 0 16 5 16 10 0 6 -4 10 -9 10 -6
0 -13 -4 -16 -10z"/>
<path d="M14727 18833 c-10 -10 -8 -43 2 -43 23 0 41 14 41 31 0 19 -29 27
-43 12z"/>
<path d="M14514 18726 c-11 -29 0 -51 26 -51 21 0 25 5 25 30 0 24 -5 31 -23
33 -13 2 -24 -3 -28 -12z"/>
<path d="M14661 18726 c-20 -24 -9 -51 19 -51 21 0 25 5 25 30 0 34 -24 45
-44 21z"/>
<path d="M14367 18718 c-6 -18 11 -48 28 -48 17 0 34 30 28 48 -3 6 -15 12
-28 12 -13 0 -25 -6 -28 -12z"/>
<path d="M14804 18716 c-10 -26 4 -48 28 -44 17 2 23 10 23 28 0 18 -6 26 -23
28 -13 2 -25 -3 -28 -12z"/>
<path d="M14300 18605 c-18 -21 -5 -47 22 -43 26 3 37 36 16 49 -18 12 -24 11
-38 -6z"/>
<path d="M14592 18608 c-16 -16 -15 -45 2 -51 21 -8 49 16 44 39 -4 23 -29 29
-46 12z"/>
<path d="M14737 18613 c-10 -10 -8 -51 2 -57 13 -9 39 3 45 21 11 27 -28 56
-47 36z"/>
<path d="M14877 18613 c-4 -3 -7 -17 -7 -30 0 -18 6 -23 24 -23 28 0 37 17 24
43 -9 17 -29 23 -41 10z"/>
<path d="M14442 18588 c2 -17 10 -23 28 -23 18 0 26 6 28 23 3 19 -1 22 -28
22 -27 0 -31 -3 -28 -22z"/>
<path d="M14946 18488 c-24 -34 -20 -58 9 -58 31 0 50 32 35 60 -14 26 -25 25
-44 -2z"/>
<path d="M14525 18486 c-25 -18 -15 -51 15 -51 20 0 26 6 28 26 4 31 -18 44
-43 25z"/>
<path d="M14800 18481 c-14 -28 -12 -51 5 -57 23 -9 45 15 45 47 0 22 -5 29
-20 29 -10 0 -24 -9 -30 -19z"/>
<path d="M14377 18483 c-4 -3 -7 -17 -7 -30 0 -26 30 -32 49 -9 22 27 -18 64
-42 39z"/>
<path d="M14657 18483 c-13 -12 -7 -51 8 -57 26 -10 45 5 45 35 0 24 -4 29
-23 29 -13 0 -27 -3 -30 -7z"/>
<path d="M14242 18468 c-22 -22 -14 -40 16 -36 19 2 27 9 27 23 0 23 -25 31
-43 13z"/>
<path d="M14867 18362 c-32 -35 -17 -70 24 -57 15 5 19 14 17 38 -4 37 -19 44
-41 19z"/>
<path d="M14994 18355 c-21 -31 -11 -57 18 -53 18 2 24 11 26 34 4 42 -22 53
-44 19z"/>
<path d="M14306 18354 c-20 -19 -20 -28 -2 -43 11 -9 20 -10 35 -1 24 12 25
15 11 41 -13 23 -24 24 -44 3z"/>
<path d="M14440 18350 c-14 -26 -5 -40 25 -40 25 0 34 15 27 43 -6 23 -39 22
-52 -3z"/>
<path d="M14587 18363 c-4 -3 -7 -17 -7 -30 0 -18 6 -23 24 -23 26 0 39 20 30
45 -6 15 -35 20 -47 8z"/>
<path d="M14722 18358 c-6 -6 -12 -22 -12 -35 0 -18 6 -23 24 -23 28 0 49 22
44 47 -4 22 -38 29 -56 11z"/>
<path d="M14177 18353 c-15 -15 -7 -43 13 -43 15 0 20 7 20 25 0 24 -18 34
-33 18z"/>
<path d="M15130 18335 c-15 -18 -5 -35 21 -35 14 0 19 7 19 25 0 28 -21 33
-40 10z"/>
<path d="M14793 18253 c-19 -7 -16 -53 3 -60 20 -7 45 22 38 42 -7 16 -24 24
-41 18z"/>
<path d="M14237 18243 c-4 -3 -7 -17 -7 -30 0 -26 30 -32 49 -9 22 27 -18 64
-42 39z"/>
<path d="M14377 18243 c-4 -3 -7 -17 -7 -30 0 -18 6 -23 24 -23 26 0 39 20 30
45 -6 15 -35 20 -47 8z"/>
<path d="M14507 18236 c-10 -26 4 -47 27 -44 15 2 21 10 21 28 0 29 -38 41
-48 16z"/>
<path d="M14644 18236 c-10 -26 4 -48 28 -44 17 2 23 10 23 28 0 18 -6 26 -23
28 -13 2 -25 -3 -28 -12z"/>
<path d="M14922 18238 c-17 -17 -15 -48 2 -48 30 0 46 13 46 36 0 26 -27 33
-48 12z"/>
<path d="M15057 18243 c-11 -10 -8 -51 3 -58 20 -12 50 6 50 30 0 27 -35 46
-53 28z"/>
<path d="M15203 18243 c-7 -3 -13 -16 -13 -29 0 -33 36 -33 42 0 5 25 -7 37
-29 29z"/>
<path d="M14104 18225 c-8 -20 4 -35 27 -35 14 0 19 7 19 25 0 18 -5 25 -20
25 -11 0 -23 -7 -26 -15z"/>
<path d="M14030 18109 c-11 -20 1 -49 21 -49 14 0 29 37 23 54 -9 22 -31 20
-44 -5z"/>
<path d="M14172 18118 c-7 -7 -12 -20 -12 -30 0 -24 46 -25 52 0 10 37 -14 56
-40 30z"/>
<path d="M14306 18117 c-28 -20 -14 -49 21 -45 22 2 28 8 28 28 0 29 -22 37
-49 17z"/>
<path d="M14436 18114 c-12 -30 -6 -44 18 -44 29 0 49 22 40 44 -8 21 -50 21
-58 0z"/>
<path d="M14572 18103 c2 -22 8 -28 28 -28 20 0 26 6 28 28 3 24 0 27 -28 27
-28 0 -31 -3 -28 -27z"/>
<path d="M14722 18121 c-16 -10 -12 -53 4 -58 17 -6 46 26 42 46 -4 18 -27 25
-46 12z"/>
<path d="M14857 18124 c-4 -4 -7 -18 -7 -31 0 -21 4 -24 28 -21 21 2 27 8 27
28 0 18 -6 26 -20 28 -12 2 -24 0 -28 -4z"/>
<path d="M14992 18118 c-7 -7 -12 -20 -12 -30 0 -13 8 -18 30 -18 27 0 30 3
30 30 0 22 -5 30 -18 30 -10 0 -23 -5 -30 -12z"/>
<path d="M15132 18121 c-21 -13 -11 -56 13 -56 15 0 21 8 23 33 3 33 -9 41
-36 23z"/>
<path d="M14386 18015 c-24 -24 -21 -65 4 -65 29 0 49 46 28 66 -14 14 -17 14
-32 -1z"/>
<path d="M14097 18013 c-4 -3 -7 -19 -7 -35 0 -21 5 -28 19 -28 10 0 24 6 30
14 22 27 -18 73 -42 49z"/>
<path d="M14241 18007 c-6 -6 -11 -22 -11 -35 0 -35 44 -27 48 9 3 29 -18 45
-37 26z"/>
<path d="M14511 17998 c-12 -32 -3 -48 24 -48 29 0 39 14 31 46 -8 31 -44 32
-55 2z"/>
<path d="M14652 18008 c-15 -15 -16 -45 -2 -53 15 -9 47 4 54 22 12 31 -28 55
-52 31z"/>
<path d="M14781 18001 c-15 -27 -3 -53 23 -49 16 2 21 10 21 33 0 36 -28 46
-44 16z"/>
<path d="M15055 17996 c-18 -27 -10 -56 15 -56 24 0 43 25 35 49 -9 30 -33 33
-50 7z"/>
<path d="M13945 17990 c-8 -27 1 -40 30 -40 25 0 38 21 29 45 -9 22 -51 19
-59 -5z"/>
<path d="M14917 18004 c-4 -4 -7 -18 -7 -31 0 -21 4 -24 28 -21 21 2 27 8 27
28 0 18 -6 26 -20 28 -12 2 -24 0 -28 -4z"/>
<path d="M15176 18002 c-12 -19 7 -52 29 -52 24 0 42 30 30 50 -7 12 -52 13
-59 2z"/>
<path d="M14445 17894 c-25 -25 -15 -49 20 -49 23 0 31 5 33 22 5 31 -31 49
-53 27z"/>
<path d="M14580 17895 c-20 -25 -8 -50 25 -50 35 0 45 24 20 49 -20 20 -29 20
-45 1z"/>
<path d="M13870 17869 c0 -27 3 -30 28 -27 21 2 28 9 30 31 3 24 0 27 -27 27
-28 0 -31 -3 -31 -31z"/>
<path d="M14020 17885 c-16 -19 3 -45 31 -45 14 0 19 7 19 30 0 23 -5 30 -19
30 -10 0 -24 -7 -31 -15z"/>
<path d="M14155 17880 c-8 -26 6 -43 31 -38 13 2 19 12 19 28 0 34 -40 41 -50
10z"/>
<path d="M14302 17888 c-16 -16 -15 -45 1 -51 21 -8 47 13 47 38 0 27 -27 34
-48 13z"/>
<path d="M14710 17870 c0 -25 4 -30 25 -30 21 0 25 5 25 30 0 25 -4 30 -25 30
-21 0 -25 -5 -25 -30z"/>
<path d="M14851 17886 c-15 -17 -11 -48 5 -53 17 -6 46 26 42 46 -4 21 -32 25
-47 7z"/>
<path d="M14980 17879 c-15 -26 -6 -49 19 -49 20 0 31 18 31 51 0 26 -36 25
-50 -2z"/>
<path d="M15117 17894 c-14 -14 -7 -65 9 -71 21 -8 46 24 42 52 -3 20 -37 33
-51 19z"/>
<path d="M13827 17786 c-23 -17 -22 -33 3 -41 23 -7 40 1 40 19 0 24 -23 36
-43 22z"/>
<path d="M13957 17784 c-13 -13 -7 -52 8 -58 27 -10 46 5 43 33 -3 26 -35 41
-51 25z"/>
<path d="M14094 17776 c-10 -26 0 -51 21 -51 16 0 20 7 20 30 0 33 -30 49 -41
21z"/>
<path d="M14230 17768 c0 -32 15 -52 34 -45 19 7 21 38 4 55 -19 19 -38 14
-38 -10z"/>
<path d="M14382 17778 c-14 -14 -16 -54 -3 -62 27 -17 57 26 39 58 -11 19 -20
20 -36 4z"/>
<path d="M14514 17776 c-11 -29 0 -51 26 -51 21 0 25 5 25 30 0 24 -5 31 -23
33 -13 2 -24 -3 -28 -12z"/>
<path d="M14650 17775 c-18 -21 -3 -55 25 -55 15 0 26 7 30 20 7 23 -10 50
-30 50 -7 0 -18 -7 -25 -15z"/>
<path d="M14783 17764 c-7 -18 6 -45 25 -52 14 -4 35 35 28 54 -7 19 -45 18
-53 -2z"/>
<path d="M14920 17757 c0 -13 5 -28 12 -35 16 -16 38 3 38 34 0 19 -5 24 -25
24 -19 0 -25 -5 -25 -23z"/>
<path d="M15052 17768 c-16 -16 -15 -28 4 -50 14 -14 14 -20 4 -33 -14 -16 -8
-31 8 -21 13 8 35 92 27 105 -8 14 -28 14 -43 -1z"/>
<path d="M15190 17765 c-18 -21 -4 -65 20 -65 16 0 20 7 20 34 0 37 -21 54
-40 31z"/>
<path d="M13751 17702 c-13 -24 9 -48 34 -38 20 7 19 19 -4 40 -19 17 -20 17
-30 -2z"/>
<path d="M13892 17674 c2 -11 11 -20 22 -22 13 -3 17 1 14 14 -2 11 -11 20
-22 22 -13 3 -17 -1 -14 -14z"/>
<path d="M14042 17678 c-8 -8 -8 -17 -1 -30 12 -22 29 -15 29 12 0 24 -13 33
-28 18z"/>
<path d="M14312 17668 c-18 -18 -15 -31 10 -47 19 -12 23 -11 35 5 11 15 10
20 -4 36 -19 21 -25 22 -41 6z"/>
<path d="M14164 17656 c-8 -21 3 -36 27 -36 15 0 20 6 17 22 -4 27 -35 37 -44
14z"/>
<path d="M14447 17663 c-13 -12 -7 -32 12 -38 23 -7 51 3 51 20 0 20 -48 34
-63 18z"/>
<path d="M14587 17664 c-12 -13 -8 -42 8 -48 25 -9 46 5 43 28 -3 21 -37 34
-51 20z"/>
<path d="M14730 17640 c0 -34 18 -39 43 -12 19 21 6 42 -25 42 -13 0 -18 -8
-18 -30z"/>
<path d="M14863 17655 c-13 -10 -15 -17 -7 -25 15 -15 54 -4 54 15 0 20 -26
25 -47 10z"/>
<path d="M14975 17610 c-23 -45 -20 -70 10 -70 23 0 25 3 25 50 0 57 -12 64
-35 20z"/>
<path d="M15111 17603 c-6 -21 -11 -41 -11 -45 0 -13 35 -9 55 6 16 12 17 17
6 45 -18 42 -38 39 -50 -6z"/>
<path d="M13552 17608 c-15 -15 -16 -44 -2 -53 6 -3 19 -3 31 0 15 5 19 14 17
33 -3 29 -26 40 -46 20z"/>
<path d="M13684 17606 c-11 -29 1 -51 26 -51 21 0 26 5 28 33 3 29 1 32 -23
32 -14 0 -28 -6 -31 -14z"/>
<path d="M13824 17606 c-11 -29 0 -51 26 -51 21 0 25 5 25 30 0 24 -5 31 -23
33 -13 2 -24 -3 -28 -12z"/>
<path d="M13957 17595 c-4 -9 2 -24 14 -36 16 -16 23 -18 35 -8 8 7 14 22 12
33 -4 26 -52 35 -61 11z"/>
<path d="M13174 17586 c-8 -22 3 -33 18 -18 9 9 9 15 0 24 -9 9 -13 7 -18 -6z"/>
<path d="M14097 17579 c-11 -41 14 -64 41 -37 17 17 15 45 -4 52 -25 10 -31 7
-37 -15z"/>
<path d="M14247 17593 c-13 -12 -7 -54 9 -60 25 -10 39 12 26 42 -12 25 -23
31 -35 18z"/>
<path d="M14386 17578 c-20 -28 -20 -44 -1 -52 38 -14 63 36 31 63 -11 10 -17
7 -30 -11z"/>
<path d="M14544 17592 c-20 -13 -37 -53 -26 -64 19 -19 47 -4 50 26 4 31 -7
49 -24 38z"/>
<path d="M14816 17565 c-19 -29 -20 -45 -3 -45 22 0 57 31 57 51 0 28 -34 24
-54 -6z"/>
<path d="M14664 17555 c-17 -25 -12 -45 11 -45 17 0 57 49 49 61 -10 17 -44 9
-60 -16z"/>
<path d="M13760 17495 c-19 -23 -8 -50 20 -50 16 0 26 6 28 18 4 18 -14 47
-28 47 -4 0 -13 -7 -20 -15z"/>
<path d="M15036 17488 c-19 -26 -5 -58 25 -58 26 0 35 26 19 56 -16 30 -25 30
-44 2z"/>
<path d="M13480 17485 c-17 -21 -5 -45 24 -45 23 0 42 32 30 52 -8 13 -41 9
-54 -7z"/>
<path d="M13610 17480 c-15 -27 -2 -43 31 -38 18 2 24 9 24 28 0 34 -39 40
-55 10z"/>
<path d="M13896 17484 c-12 -32 -6 -44 23 -44 32 0 43 16 29 43 -11 21 -44 22
-52 1z"/>
<path d="M14176 17475 c-19 -29 -14 -45 14 -45 26 0 45 36 29 56 -16 20 -24
18 -43 -11z"/>
<path d="M14896 17478 c-22 -31 -20 -58 4 -58 24 0 43 34 35 60 -8 26 -20 25
-39 -2z"/>
<path d="M12962 17478 c-16 -16 -15 -25 3 -32 23 -8 45 4 45 25 0 22 -29 26
-48 7z"/>
<path d="M14035 17470 c-8 -25 1 -40 25 -40 19 0 36 32 25 50 -11 17 -43 11
-50 -10z"/>
<path d="M14310 17469 c-10 -17 -9 -24 3 -37 23 -22 49 -8 45 25 -4 35 -33 42
-48 12z"/>
<path d="M14455 17474 c-21 -22 -15 -48 12 -52 30 -4 49 31 27 52 -19 20 -19
20 -39 0z"/>
<path d="M14752 17468 c-18 -18 -15 -48 6 -48 10 0 23 5 30 12 7 7 12 20 12
30 0 21 -30 24 -48 6z"/>
<path d="M12820 17454 c0 -10 7 -14 22 -12 32 5 35 28 4 28 -17 0 -26 -5 -26
-16z"/>
<path d="M14592 17445 c-10 -21 -9 -27 3 -31 20 -8 45 13 45 37 0 28 -35 24
-48 -6z"/>
<path d="M13292 17378 c-21 -21 -14 -48 12 -48 28 0 42 26 25 46 -14 17 -22
17 -37 2z"/>
<path d="M13832 17378 c-30 -30 -3 -72 36 -57 18 7 23 15 20 36 -3 31 -34 43
-56 21z"/>
<path d="M12615 17364 c-9 -9 -14 -21 -12 -27 6 -18 33 -31 51 -24 21 8 21 53
0 61 -21 8 -20 8 -39 -10z"/>
<path d="M12750 17365 c-17 -21 -5 -45 24 -45 29 0 40 24 20 45 -19 19 -28 19
-44 0z"/>
<path d="M12890 17360 c-14 -26 -5 -40 25 -40 24 0 42 30 30 50 -11 17 -44 11
-55 -10z"/>
<path d="M13964 17365 c-10 -25 4 -47 28 -43 17 2 24 11 26 31 3 23 0 27 -23
27 -14 0 -28 -7 -31 -15z"/>
<path d="M14102 17368 c-6 -6 -12 -20 -12 -31 0 -15 6 -18 33 -15 27 2 32 7
32 28 0 28 -32 39 -53 18z"/>
<path d="M14242 17368 c-21 -21 -14 -48 13 -48 25 0 46 26 38 48 -6 15 -35 16
-51 0z"/>
<path d="M14395 17360 c-21 -23 -13 -50 14 -50 22 0 39 39 26 59 -9 16 -20 13
-40 -9z"/>
<path d="M14821 17361 c-16 -29 -13 -48 8 -54 29 -7 43 7 39 39 -4 35 -32 44
-47 15z"/>
<path d="M14961 17366 c-16 -19 -10 -50 9 -54 9 -1 24 4 35 12 16 12 18 18 9
33 -15 24 -38 28 -53 9z"/>
<path d="M14530 17355 c-16 -19 -5 -47 17 -43 23 4 31 58 10 58 -8 0 -20 -7
-27 -15z"/>
<path d="M14690 17357 c-36 -18 -32 -41 8 -45 30 -3 32 -1 32 27 0 34 -4 36
-40 18z"/>
<path d="M14167 17263 c-14 -13 -7 -61 10 -67 25 -10 47 17 39 48 -6 25 -33
35 -49 19z"/>
<path d="M12814 17234 c-7 -29 6 -47 31 -42 44 8 45 68 1 68 -19 0 -27 -7 -32
-26z"/>
<path d="M14307 17253 c-4 -3 -7 -17 -7 -30 0 -21 4 -24 33 -21 27 2 33 8 35
31 3 24 0 27 -26 27 -16 0 -32 -3 -35 -7z"/>
<path d="M14455 17240 c-8 -25 10 -50 36 -50 20 0 36 40 24 59 -11 19 -53 12
-60 -9z"/>
<path d="M14601 17241 c-16 -30 -3 -53 28 -49 22 2 26 8 26 33 0 23 -5 31 -22
33 -14 2 -26 -4 -32 -17z"/>
<path d="M14747 17254 c-11 -11 -8 -52 4 -59 5 -4 21 -4 35 -1 20 5 25 12 22
34 -2 20 -9 28 -28 30 -14 2 -29 0 -33 -4z"/>
<path d="M14240 17121 c0 -34 10 -44 35 -35 25 10 16 58 -12 62 -20 3 -23 -1
-23 -27z"/>
<path d="M14392 17141 c-8 -5 -12 -21 -10 -37 2 -23 8 -29 28 -29 31 0 54 50
30 65 -19 12 -31 12 -48 1z"/>
<path d="M14530 17130 c-12 -23 2 -60 23 -60 34 0 52 62 21 74 -25 10 -33 7
-44 -14z"/>
<path d="M14692 17139 c-27 -10 -27 -46 0 -62 21 -14 48 7 48 38 0 27 -17 35
-48 24z"/>
<path d="M12376 17121 c-9 -14 5 -42 18 -38 18 6 20 47 2 47 -8 0 -17 -4 -20
-9z"/>
<path d="M12497 17123 c-12 -11 -7 -33 8 -39 20 -8 45 13 38 32 -5 14 -34 19
-46 7z"/>
<path d="M14470 17020 c-31 -31 -22 -54 23 -58 35 -3 37 -2 37 27 0 43 -32 59
-60 31z"/>
<path d="M12558 17005 c-15 -34 1 -52 31 -36 25 14 28 46 5 55 -23 9 -23 8
-36 -19z"/>
<path d="M14312 17021 c-21 -13 -10 -45 20 -55 15 -5 31 -7 35 -3 11 11 -11
61 -27 64 -8 2 -21 -1 -28 -6z"/>
<path d="M12417 17002 c-25 -27 -22 -52 6 -52 13 0 28 5 35 12 7 7 12 22 12
35 0 28 -30 31 -53 5z"/>
<path d="M12512 16908 c-15 -15 -16 -45 -2 -53 16 -10 41 16 38 38 -4 25 -20
31 -36 15z"/>
<path d="M12337 16883 c-4 -3 -7 -17 -7 -30 0 -18 6 -23 24 -23 30 0 40 13 31
40 -6 19 -35 27 -48 13z"/>
<path d="M12277 16764 c-4 -4 -7 -16 -7 -26 0 -14 6 -19 23 -16 14 2 22 10 22
23 0 20 -25 32 -38 19z"/>
<path d="M12210 16637 c0 -13 3 -26 6 -30 12 -12 34 6 34 29 0 17 -6 24 -20
24 -14 0 -20 -7 -20 -23z"/>
<path d="M7072 17241 c-62 -21 -93 -48 -136 -116 -106 -167 -186 -478 -231
-895 -57 -543 -63 -1048 -14 -1330 30 -172 74 -260 146 -292 43 -19 47 -19 96
-3 89 29 144 63 250 153 247 211 418 311 657 388 220 70 345 116 377 140 46
35 77 121 69 199 -11 122 -199 618 -299 790 -16 27 -60 110 -97 185 -135 268
-345 558 -491 680 -70 58 -123 88 -194 106 -63 17 -69 17 -133 -5z m828 -1013
c0 -7 -5 -20 -10 -28 -8 -12 -10 -9 -10 13 0 15 5 27 10 27 6 0 10 -6 10 -12z"/>
<path d="M13470 16784 c-105 -20 -265 -103 -365 -189 -136 -119 -292 -284
-387 -413 -24 -31 -61 -79 -83 -107 -104 -130 -323 -484 -406 -655 -103 -212
-115 -274 -67 -361 27 -48 81 -78 239 -132 383 -129 583 -246 866 -505 117
-107 132 -118 200 -149 45 -21 73 -27 123 -26 186 1 274 161 330 603 51 406
46 840 -15 1274 -36 258 -123 503 -207 583 -57 55 -160 89 -228 77z m-1266
-1638 c-3 -9 -10 -16 -15 -16 -5 0 -4 9 3 20 14 22 21 20 12 -4z"/>
<path d="M7582 13499 c-159 -24 -442 -149 -650 -286 -93 -61 -117 -90 -108
-128 5 -21 12 -25 46 -25 22 0 176 34 342 76 341 86 377 89 483 40 60 -27 171
-110 204 -152 23 -29 204 -225 309 -335 39 -41 72 -78 72 -81 0 -3 -35 -7 -77
-10 -98 -6 -158 -32 -218 -94 -77 -79 -90 -112 -90 -234 0 -94 3 -110 27 -156
75 -143 255 -205 409 -141 59 24 133 105 159 172 26 71 30 169 7 233 -8 23
-11 42 -6 42 5 0 39 -20 76 -44 148 -95 392 -196 475 -196 93 0 159 137 112
235 -23 50 -42 62 -140 90 -111 32 -175 61 -256 116 -114 77 -226 181 -385
359 -209 233 -369 391 -444 440 -117 75 -219 99 -347 79z"/>
<path d="M11876 13444 c-149 -29 -263 -107 -566 -384 -290 -266 -393 -354
-494 -422 -159 -106 -283 -159 -418 -178 -40 -6 -83 -17 -96 -26 -90 -59 -79
-223 18 -276 27 -15 47 -18 85 -14 114 13 284 71 469 162 80 39 107 49 103 36
-3 -9 -13 -35 -21 -57 -24 -62 -20 -179 7 -246 37 -88 71 -125 153 -165 63
-32 83 -37 141 -36 180 1 308 121 321 301 14 203 -133 365 -330 364 -35 -1
-55 3 -52 9 3 5 40 37 83 70 42 33 155 133 251 221 407 373 480 395 849 262
99 -35 262 -90 362 -122 169 -53 183 -56 208 -42 67 37 20 97 -184 235 -238
161 -465 269 -639 305 -105 22 -154 22 -250 3z"/>
<path d="M9330 11789 c-97 -13 -174 -48 -194 -88 -9 -17 -16 -55 -16 -89 0
-54 4 -66 51 -137 27 -43 59 -102 71 -133 26 -68 76 -125 132 -148 l43 -18 13
-228 13 -228 -24 -19 c-46 -38 -175 -100 -249 -120 -216 -60 -428 -22 -625
113 -37 25 -74 46 -82 46 -8 0 -28 -14 -45 -30 -24 -25 -29 -36 -23 -58 9 -38
21 -50 95 -97 310 -200 717 -192 995 20 l46 36 62 -25 c70 -27 174 -58 262
-78 82 -18 398 -17 490 1 175 35 358 112 490 206 44 32 85 59 92 62 7 3 14
-12 18 -44 9 -72 25 -97 64 -101 53 -5 71 19 71 94 0 76 -29 161 -72 209 -57
66 -190 108 -283 91 -41 -8 -76 -54 -68 -87 8 -28 54 -49 108 -49 63 0 58 -17
-20 -69 -297 -195 -720 -239 -1085 -114 -41 14 -78 30 -81 35 -4 6 -9 65 -13
132 -4 66 -9 160 -12 207 l-6 86 56 26 c70 32 101 65 137 145 16 34 50 86 77
115 61 64 82 104 82 154 0 88 -60 139 -198 168 -95 20 -277 26 -372 14z"/>
<path d="M7100 6575 c-17 -20 -5 -45 20 -45 11 0 23 7 26 15 6 15 -11 45 -26
45 -4 0 -13 -7 -20 -15z"/>
<path d="M7130 6356 c0 -8 4 -17 9 -20 11 -7 33 18 24 27 -12 12 -33 7 -33 -7z"/>
<path d="M7124 6114 c3 -9 6 -18 6 -20 0 -2 7 -4 15 -4 8 0 15 9 15 20 0 14
-7 20 -21 20 -15 0 -19 -4 -15 -16z"/>
<path d="M12264 4689 c-9 -15 12 -33 30 -26 9 4 16 13 16 22 0 17 -35 21 -46
4z"/>
<path d="M12196 4584 c-9 -22 -7 -34 3 -34 15 0 42 31 36 41 -10 14 -32 10
-39 -7z"/>
<path d="M12126 4498 c-21 -30 -20 -48 2 -48 25 0 56 35 49 55 -9 22 -33 19
-51 -7z"/>
<path d="M12054 4390 c-23 -9 -38 -36 -28 -51 11 -18 45 -9 56 16 14 31 1 46
-28 35z"/>
<path d="M7745 4286 c-11 -8 -16 -19 -12 -30 8 -20 27 -21 52 -2 16 12 17 16
6 30 -16 19 -22 20 -46 2z"/>
<path d="M11982 4288 c-18 -18 -15 -48 6 -48 19 0 46 36 37 50 -8 14 -29 12
-43 -2z"/>
<path d="M11922 4188 c-17 -17 -15 -47 4 -55 23 -9 51 23 38 44 -14 22 -27 26
-42 11z"/>
<path d="M7798 4159 c-17 -13 -28 -30 -28 -45 0 -32 27 -31 42 1 6 13 20 27
30 31 21 6 19 28 -3 31 -8 2 -26 -7 -41 -18z"/>
<path d="M11861 4062 c-7 -13 -6 -23 1 -30 24 -24 48 -7 48 34 0 20 -38 17
-49 -4z"/>
<path d="M7834 4055 c-10 -25 4 -45 30 -45 26 0 52 32 41 50 -10 16 -65 12
-71 -5z"/>
<path d="M7735 4041 c-3 -5 -1 -12 5 -16 5 -3 10 1 10 9 0 18 -6 21 -15 7z"/>
<path d="M11806 3971 c-4 -5 -3 -17 0 -26 10 -24 48 -15 52 13 3 18 -1 22 -22
22 -14 0 -27 -4 -30 -9z"/>
<path d="M7780 3955 c-16 -20 -5 -45 20 -45 16 0 20 7 20 30 0 33 -19 40 -40
15z"/>
<path d="M7890 3959 c0 -23 22 -49 41 -49 25 0 35 25 19 45 -14 17 -60 20 -60
4z"/>
<path d="M7937 3883 c-4 -3 -7 -17 -7 -30 0 -16 6 -23 20 -23 25 0 36 25 20
45 -14 16 -23 19 -33 8z"/>
<path d="M11888 3883 c-22 -6 -24 -51 -3 -59 21 -8 47 15 43 39 -3 22 -13 27
-40 20z"/>
<path d="M11757 3873 c-4 -3 -7 -15 -7 -25 0 -29 44 -20 48 10 3 16 -2 22 -16
22 -10 0 -22 -3 -25 -7z"/>
<path d="M7837 3863 c-11 -10 -8 -41 4 -49 16 -9 43 21 36 40 -7 16 -28 21
-40 9z"/>
<path d="M11815 3776 c-24 -17 -13 -49 16 -44 31 4 49 35 29 48 -20 13 -23 12
-45 -4z"/>
<path d="M7850 3767 c0 -7 6 -21 13 -30 11 -15 15 -16 31 -4 26 19 14 47 -19
47 -14 0 -25 -6 -25 -13z"/>
<path d="M7970 3761 c0 -22 37 -38 52 -23 17 17 1 42 -27 42 -18 0 -25 -5 -25
-19z"/>
<path d="M11735 3683 c11 -44 42 -56 66 -27 11 14 10 19 -10 35 -13 11 -32 19
-43 19 -17 0 -19 -4 -13 -27z"/>
<path d="M7921 3691 c-7 -5 -11 -19 -9 -32 2 -18 10 -25 31 -27 23 -3 27 0 27
22 0 28 -29 49 -49 37z"/>
<path d="M7815 3670 c-11 -17 5 -32 21 -19 7 6 11 15 8 20 -7 12 -21 11 -29
-1z"/>
<path d="M8036 3665 c-8 -21 1 -35 20 -35 10 0 14 8 12 22 -4 27 -23 34 -32
13z"/>
<path d="M11690 3596 c0 -30 26 -54 42 -38 17 17 1 62 -22 62 -14 0 -20 -7
-20 -24z"/>
<path d="M11816 3584 c-19 -19 -17 -33 6 -48 22 -13 50 10 46 38 -4 27 -31 32
-52 10z"/>
<path d="M7973 3574 c-8 -22 10 -49 32 -49 10 0 22 7 28 16 15 24 1 49 -28 49
-15 0 -28 -7 -32 -16z"/>
<path d="M7860 3555 c0 -18 5 -25 20 -25 15 0 20 7 20 25 0 18 -5 25 -20 25
-15 0 -20 -7 -20 -25z"/>
<path d="M11660 3500 c-12 -23 -6 -40 16 -40 8 0 14 9 14 20 0 11 0 23 1 27 2
17 -21 12 -31 -7z"/>
<path d="M8060 3488 c-26 -29 -21 -42 18 -46 26 -3 32 0 32 17 0 26 -10 51
-21 51 -4 0 -17 -10 -29 -22z"/>
<path d="M11749 3484 c-11 -14 -10 -18 6 -30 25 -19 49 -14 53 10 7 33 -36 48
-59 20z"/>
<path d="M7914 3475 c-8 -21 4 -35 31 -35 26 0 39 22 22 39 -16 16 -47 14 -53
-4z"/>
<path d="M11692 3385 c-9 -19 -8 -27 4 -39 31 -32 82 15 54 49 -19 23 -45 18
-58 -10z"/>
<path d="M11820 3391 c-20 -38 16 -74 45 -45 19 19 19 29 -1 48 -20 21 -31 20
-44 -3z"/>
<path d="M7980 3381 c-7 -15 -6 -23 6 -35 19 -20 23 -20 45 0 14 13 16 21 8
35 -13 25 -45 24 -59 0z"/>
<path d="M8117 3393 c-14 -13 -7 -42 12 -52 14 -8 22 -7 31 4 21 26 -20 72
-43 48z"/>
<path d="M7890 3370 c0 -19 11 -26 23 -14 8 8 -3 34 -14 34 -5 0 -9 -9 -9 -20z"/>
<path d="M11642 3298 c-17 -17 -15 -45 5 -52 24 -10 51 20 37 41 -14 22 -27
26 -42 11z"/>
<path d="M11765 3296 c-21 -15 -15 -43 11 -53 24 -9 59 34 43 53 -14 18 -30
18 -54 0z"/>
<path d="M7925 3290 c-11 -18 32 -57 46 -43 6 6 9 19 7 29 -4 22 -42 31 -53
14z"/>
<path d="M8048 3288 c-8 -23 7 -63 25 -66 20 -4 43 39 34 62 -8 19 -53 21 -59
4z"/>
<path d="M8182 3274 c1 -9 9 -19 16 -22 9 -3 13 2 10 14 -1 9 -9 19 -16 22 -9
3 -13 -2 -10 -14z"/>
<path d="M7993 3193 c-20 -7 -15 -41 7 -53 16 -8 24 -6 41 11 21 21 21 23 4
36 -19 13 -31 15 -52 6z"/>
<path d="M8121 3186 c-28 -34 19 -62 59 -36 12 7 12 13 4 27 -14 24 -47 28
-63 9z"/>
<path d="M11699 3184 c-15 -19 -2 -47 26 -52 21 -5 35 14 35 46 0 17 -6 22
-24 22 -13 0 -29 -7 -37 -16z"/>
<path d="M11606 3183 c-12 -12 -6 -33 9 -33 8 0 15 6 15 14 0 17 -14 28 -24
19z"/>
<path d="M8060 3095 c-19 -23 -8 -50 20 -50 16 0 26 6 28 18 4 18 -14 47 -28
47 -4 0 -13 -7 -20 -15z"/>
<path d="M7950 3081 c0 -15 6 -21 21 -21 14 0 19 5 17 17 -5 26 -38 29 -38 4z"/>
<path d="M8182 3073 c2 -21 9 -29 27 -31 32 -5 46 11 32 37 -7 13 -22 21 -37
21 -22 0 -25 -4 -22 -27z"/>
<path d="M11654 3083 c-15 -25 -6 -43 21 -43 13 0 25 6 28 13 6 16 -11 47 -26
47 -7 0 -17 -8 -23 -17z"/>
<path d="M11774 3086 c-3 -8 -4 -23 -2 -33 5 -25 61 -25 66 0 7 37 -51 67 -64
33z"/>
<path d="M7990 2976 c0 -27 34 -46 52 -28 18 18 4 47 -25 50 -23 3 -27 0 -27
-22z"/>
<path d="M8115 2979 c-8 -25 6 -42 31 -37 12 2 20 13 22 31 3 23 0 27 -22 27
-16 0 -27 -7 -31 -21z"/>
<path d="M11711 2982 c-7 -14 -7 -24 3 -37 18 -25 56 -11 56 21 0 13 -4 24 -9
24 -5 0 -16 3 -24 6 -9 3 -20 -2 -26 -14z"/>
<path d="M8244 2975 c-8 -19 3 -35 25 -35 25 0 32 10 20 31 -12 23 -37 25 -45
4z"/>
<path d="M11617 2973 c-12 -11 -8 -23 8 -23 8 0 15 7 15 15 0 16 -12 20 -23 8z"/>
<path d="M8068 2889 c-22 -12 -24 -57 -3 -65 23 -9 46 16 43 44 -3 29 -16 36
-40 21z"/>
<path d="M8174 2876 c-11 -28 4 -48 33 -44 22 2 28 8 28 28 0 20 -6 26 -28 28
-18 2 -29 -2 -33 -12z"/>
<path d="M11661 2876 c-19 -23 -4 -56 25 -56 22 0 25 4 22 32 -3 36 -27 48
-47 24z"/>
<path d="M11783 2874 c-9 -24 10 -49 38 -49 20 0 24 5 24 30 0 25 -4 30 -28
33 -18 2 -29 -2 -34 -14z"/>
<path d="M8307 2856 c-8 -21 22 -51 37 -36 7 7 7 15 0 27 -14 23 -30 27 -37 9z"/>
<path d="M8132 2774 c-27 -19 -28 -40 -2 -54 27 -15 40 -5 40 30 0 36 -11 43
-38 24z"/>
<path d="M11737 2783 c-4 -3 -7 -17 -7 -29 0 -17 7 -25 26 -30 28 -7 44 7 44
37 0 23 -46 39 -63 22z"/>
<path d="M8246 2765 c-14 -37 20 -62 53 -39 17 12 19 19 11 35 -13 23 -55 26
-64 4z"/>
<path d="M11635 2760 c-8 -14 3 -30 21 -30 8 0 14 9 14 20 0 21 -24 28 -35 10z"/>
<path d="M11809 2674 c-16 -20 0 -49 27 -49 14 0 20 8 22 33 3 26 0 32 -16 32
-11 0 -25 -7 -33 -16z"/>
<path d="M8072 2658 c2 -13 10 -23 18 -23 8 0 16 10 18 23 3 17 -2 22 -18 22
-16 0 -21 -5 -18 -22z"/>
<path d="M8184 2666 c-10 -26 4 -48 28 -44 17 2 23 10 23 28 0 18 -6 26 -23
28 -13 2 -25 -3 -28 -12z"/>
<path d="M8322 2671 c-8 -4 -12 -19 -10 -32 2 -17 10 -25 29 -27 31 -4 44 19
29 49 -11 20 -27 24 -48 10z"/>
<path d="M11687 2674 c-16 -17 -6 -44 19 -50 33 -8 53 10 38 34 -12 18 -45 28
-57 16z"/>
<path d="M11597 2654 c-8 -8 1 -24 14 -24 5 0 9 7 9 15 0 15 -12 20 -23 9z"/>
<path d="M8132 2568 c-18 -18 -15 -36 8 -48 27 -15 40 -5 40 31 0 31 -25 40
-48 17z"/>
<path d="M8251 2556 c-18 -21 -10 -70 12 -74 28 -5 47 17 47 54 0 29 -3 34
-24 34 -13 0 -29 -6 -35 -14z"/>
<path d="M11637 2555 c-19 -18 -13 -41 15 -56 29 -16 45 3 32 38 -11 33 -27
39 -47 18z"/>
<path d="M11755 2560 c-11 -19 6 -50 31 -56 37 -9 49 8 29 40 -17 26 -49 35
-60 16z"/>
<path d="M8387 2553 c-4 -3 -7 -21 -7 -40 0 -26 4 -33 19 -33 27 0 43 24 35
54 -6 25 -32 35 -47 19z"/>
<path d="M8066 2481 c-15 -24 29 -62 54 -46 16 10 12 42 -6 49 -22 9 -42 7
-48 -3z"/>
<path d="M11713 2448 c-6 -7 -13 -32 -17 -55 -7 -46 4 -54 45 -33 25 14 27 85
3 94 -21 8 -20 8 -31 -6z"/>
<path d="M11830 2424 c0 -43 -13 -70 -52 -107 -36 -33 -34 -61 6 -65 38 -5 48
8 31 41 -13 26 -12 28 31 69 46 43 57 81 28 92 -34 13 -44 7 -44 -30z"/>
<path d="M8310 2430 c-15 -28 4 -60 34 -60 31 0 41 27 21 56 -19 29 -41 31
-55 4z"/>
<path d="M8180 2413 c-25 -32 -22 -47 12 -51 34 -4 61 23 48 48 -16 30 -38 31
-60 3z"/>
<path d="M8440 2396 c0 -26 19 -39 39 -26 19 11 4 50 -20 50 -13 0 -19 -7 -19
-24z"/>
<path d="M8252 2318 c-19 -19 -14 -46 9 -53 30 -10 58 19 43 43 -14 22 -36 26
-52 10z"/>
<path d="M8380 2311 c-13 -25 -3 -51 21 -51 20 0 36 40 24 59 -10 17 -33 13
-45 -8z"/>
<path d="M8495 2300 c-8 -13 14 -42 26 -34 5 3 9 14 9 25 0 20 -24 26 -35 9z"/>
<path d="M11635 2296 c-23 -16 -14 -46 14 -46 19 0 41 26 41 49 0 15 -33 14
-55 -3z"/>
<path d="M8307 2213 c-13 -12 -7 -51 8 -56 21 -9 60 26 52 46 -6 17 -47 23
-60 10z"/>
<path d="M8210 2195 c0 -8 7 -15 15 -15 8 0 15 7 15 15 0 8 -7 15 -15 15 -8 0
-15 -7 -15 -15z"/>
<path d="M8437 2203 c-4 -3 -7 -17 -7 -30 0 -21 4 -24 28 -21 21 2 28 9 30 31
3 23 0 27 -21 27 -13 0 -27 -3 -30 -7z"/>
<path d="M11691 2196 c-20 -24 -9 -51 19 -51 21 0 25 5 25 30 0 34 -24 45 -44
21z"/>
<path d="M8554 2187 c-8 -22 11 -46 26 -31 7 7 5 17 -4 30 -14 18 -15 18 -22
1z"/>
<path d="M11590 2185 c0 -8 5 -15 10 -15 6 0 10 7 10 15 0 8 -4 15 -10 15 -5
0 -10 -7 -10 -15z"/>
<path d="M8256 2123 c-3 -4 -6 -15 -6 -25 0 -24 33 -21 38 3 3 17 -21 33 -32
22z"/>
<path d="M8494 2106 c-11 -29 1 -51 29 -54 32 -4 44 16 27 47 -12 24 -48 28
-56 7z"/>
<path d="M8357 2095 c-24 -24 -10 -47 27 -43 26 2 31 7 31 28 0 30 -34 39 -58
15z"/>
<path d="M11614 2086 c-10 -26 4 -48 28 -44 17 2 23 10 23 28 0 18 -6 26 -23
28 -13 2 -25 -3 -28 -12z"/>
<path d="M8305 2000 c-9 -15 4 -30 26 -30 23 0 26 25 3 34 -21 8 -22 8 -29 -4z"/>
<path d="M8417 1992 c-17 -18 -24 -62 -10 -62 4 0 22 5 40 12 37 14 44 41 14
58 -25 13 -25 13 -44 -8z"/>
<path d="M8552 1998 c-15 -15 -16 -44 -1 -53 5 -4 21 -4 35 -1 20 5 25 12 22
34 -3 30 -35 41 -56 20z"/>
<path d="M11571 1996 c-15 -17 -11 -48 6 -53 6 -2 17 6 23 18 10 17 9 24 -2
36 -13 12 -16 12 -27 -1z"/>
<path d="M8666 1952 c-3 -6 -1 -14 5 -17 15 -10 25 3 12 16 -7 7 -13 7 -17 1z"/>
<path d="M8482 1891 c-22 -14 -10 -46 18 -49 37 -3 58 13 44 35 -13 20 -43 27
-62 14z"/>
<path d="M8614 1885 c-9 -23 3 -45 25 -45 22 0 46 34 36 50 -10 16 -55 12 -61
-5z"/>
<path d="M8352 1858 c2 -15 11 -24 26 -26 18 -3 22 1 22 22 0 21 -5 26 -26 26
-21 0 -25 -4 -22 -22z"/>
<path d="M8562 1798 c-14 -14 -16 -54 -2 -63 5 -3 21 -3 35 1 31 8 35 48 6 64
-24 13 -24 13 -39 -2z"/>
<path d="M8690 1788 c0 -35 15 -51 39 -43 25 8 29 50 5 59 -30 11 -44 6 -44
-16z"/>
<path d="M8424 1786 c-10 -26 1 -51 24 -54 27 -4 38 19 22 47 -12 24 -38 28
-46 7z"/>
<path d="M8765 1700 c-7 -11 11 -50 23 -50 19 0 31 24 21 42 -10 19 -34 24
-44 8z"/>
<path d="M11484 1696 c-9 -23 0 -51 16 -51 10 0 15 10 15 29 0 32 -21 47 -31
22z"/>
<path d="M8502 1691 c-8 -4 -12 -19 -10 -32 4 -29 45 -34 61 -7 19 30 -19 60
-51 39z"/>
<path d="M8632 1688 c-17 -17 -15 -36 7 -48 26 -13 65 17 56 43 -8 20 -45 23
-63 5z"/>
<path d="M8718 1598 c-29 -22 -27 -68 2 -68 28 0 56 45 40 65 -15 18 -21 19
-42 3z"/>
<path d="M8830 1590 c0 -23 26 -38 41 -23 14 14 0 43 -22 43 -12 0 -19 -7 -19
-20z"/>
<path d="M8566 1585 c-24 -24 -4 -57 32 -53 23 2 27 8 27 33 0 23 -5 31 -21
33 -12 2 -29 -4 -38 -13z"/>
<path d="M8450 1554 c0 -28 3 -35 18 -32 11 2 18 14 20 36 3 27 0 32 -17 32
-17 0 -21 -6 -21 -36z"/>
<path d="M11454 1535 c-7 -18 3 -35 22 -35 8 0 14 10 14 25 0 27 -27 35 -36
10z"/>
<path d="M8894 1505 c-4 -9 -2 -21 4 -27 16 -16 47 -5 47 17 0 26 -42 34 -51
10z"/>
<path d="M8771 1501 c-20 -13 -6 -61 19 -61 20 0 40 27 40 54 0 18 -36 22 -59
7z"/>
<path d="M8648 1493 c-34 -8 -33 -73 1 -73 23 0 41 20 41 46 0 23 -15 33 -42
27z"/>
<path d="M8506 1475 c-12 -13 -13 -21 -4 -40 14 -32 35 -32 50 -1 20 46 -12
75 -46 41z"/>
<path d="M11412 1455 c-10 -20 -5 -55 9 -55 13 0 23 50 11 62 -7 7 -13 4 -20
-7z"/>
<path d="M8852 1414 c-26 -18 -29 -39 -6 -48 20 -7 54 10 54 28 0 26 -25 37
-48 20z"/>
<path d="M8955 1420 c-12 -20 6 -51 28 -48 31 4 31 52 0 56 -11 2 -24 -2 -28
-8z"/>
<path d="M8436 1364 c-12 -12 -13 -20 -6 -35 15 -26 36 -24 56 7 15 22 15 27
3 35 -21 13 -36 11 -53 -7z"/>
<path d="M8560 1361 c0 -20 25 -51 40 -51 14 0 32 40 26 56 -3 8 -19 14 -36
14 -23 0 -30 -4 -30 -19z"/>
<path d="M11450 1345 c-16 -19 -6 -45 18 -45 29 0 48 26 32 45 -16 19 -34 19
-50 0z"/>
<path d="M8383 1263 c-7 -2 -13 -16 -13 -29 0 -19 5 -24 26 -24 22 0 25 4 22
27 -3 27 -14 35 -35 26z"/>
<path d="M11395 1246 c-25 -18 -15 -51 15 -51 20 0 26 6 28 26 4 31 -18 44
-43 25z"/>
<path d="M11281 1191 c-15 -10 -8 -41 9 -41 15 0 25 29 14 40 -5 5 -15 5 -23
1z"/>
<path d="M1124 11331 c-245 -89 -439 -275 -574 -550 -76 -153 -123 -325 -136
-496 -5 -66 -4 -83 9 -93 28 -23 55 1 62 56 33 232 111 447 228 624 110 168
237 281 411 368 97 48 111 58 111 80 0 21 -5 25 -30 27 -16 2 -53 -6 -81 -16z"/>
<path d="M1672 11075 c-143 -31 -306 -107 -427 -197 -245 -185 -409 -478 -462
-830 -18 -114 -13 -138 27 -138 28 0 35 18 58 138 91 470 380 806 813 945 89
29 104 37 107 57 6 41 -17 46 -116 25z"/>
<path d="M2410 10669 c-230 -19 -435 -67 -603 -142 -128 -58 -281 -187 -340
-287 -80 -138 -175 -416 -192 -562 -12 -105 21 -275 79 -409 152 -350 501
-708 986 -1010 841 -525 2069 -884 2837 -830 304 22 509 80 683 196 83 55 181
159 232 245 51 86 153 368 168 463 35 216 -75 507 -300 792 -79 100 -305 325
-432 429 -665 545 -1572 949 -2423 1081 -273 42 -475 52 -695 34z m360 -119
c693 -40 1511 -317 2202 -746 272 -168 507 -352 709 -553 193 -193 320 -368
401 -556 109 -251 79 -467 -83 -595 -293 -231 -795 -283 -1504 -154 -537 98
-989 248 -1490 495 -427 210 -751 427 -1004 673 -372 363 -554 789 -442 1040
11 26 46 74 78 108 157 166 420 262 783 287 166 12 159 12 350 1z m-1294 -860
c52 -142 183 -358 298 -491 341 -396 795 -702 1466 -987 402 -171 665 -253
1086 -341 512 -107 898 -127 1244 -65 157 28 343 93 406 141 19 14 37 24 39
21 2 -2 -25 -45 -60 -95 -96 -135 -214 -213 -416 -273 -155 -46 -272 -60 -491
-60 -842 1 -1961 364 -2762 895 -383 254 -650 533 -804 840 -85 170 -110 325
-77 485 9 47 20 89 23 94 3 6 11 -19 18 -55 8 -35 21 -84 30 -109z"/>
<path d="M2447 10444 c-4 -4 -7 -16 -7 -26 0 -14 6 -19 23 -16 14 2 22 10 22
23 0 20 -25 32 -38 19z"/>
<path d="M2770 10405 c0 -20 5 -25 24 -25 30 0 42 16 26 35 -21 25 -50 19 -50
-10z"/>
<path d="M2310 10397 c0 -21 12 -28 27 -16 19 16 16 29 -7 29 -11 0 -20 -6
-20 -13z"/>
<path d="M2215 10391 c-8 -15 3 -31 21 -31 9 0 14 7 12 17 -4 20 -24 28 -33
14z"/>
<path d="M3090 10386 c0 -21 35 -56 56 -56 26 0 12 32 -24 53 -28 16 -32 17
-32 3z"/>
<path d="M1970 10320 c0 -11 7 -20 15 -20 8 0 15 9 15 20 0 11 -7 20 -15 20
-8 0 -15 -9 -15 -20z"/>
<path d="M3430 10285 c0 -18 24 -30 39 -21 16 10 1 36 -20 36 -10 0 -19 -7
-19 -15z"/>
<path d="M2292 10278 c-16 -16 -15 -28 3 -28 8 0 15 9 15 20 0 23 -2 24 -18 8z"/>
<path d="M2530 10275 c0 -9 5 -15 11 -13 6 2 11 8 11 13 0 5 -5 11 -11 13 -6
2 -11 -4 -11 -13z"/>
<path d="M2603 10268 c2 -7 10 -13 17 -13 7 0 15 6 18 13 2 7 -5 12 -18 12
-13 0 -20 -5 -17 -12z"/>
<path d="M3680 10230 c0 -12 28 -25 36 -17 3 3 -4 10 -15 17 -15 7 -21 7 -21
0z"/>
<path d="M3752 10188 c3 -7 19 -14 37 -16 24 -3 32 0 29 10 -3 7 -19 14 -37
16 -24 3 -32 0 -29 -10z"/>
<path d="M2860 10180 c0 -5 5 -10 10 -10 6 0 10 5 10 10 0 6 -4 10 -10 10 -5
0 -10 -4 -10 -10z"/>
<path d="M1827 10173 c-12 -11 -7 -33 7 -33 12 0 26 20 26 36 0 7 -26 5 -33
-3z"/>
<path d="M2035 10171 c-7 -12 12 -24 25 -16 11 7 4 25 -10 25 -5 0 -11 -4 -15
-9z"/>
<path d="M2097 10174 c-10 -11 3 -24 24 -24 10 0 19 7 19 15 0 15 -31 21 -43
9z"/>
<path d="M3480 10135 c0 -14 37 -31 47 -22 8 9 -5 24 -27 30 -13 3 -20 0 -20
-8z"/>
<path d="M3992 10133 c5 -25 28 -28 28 -4 0 12 -6 21 -16 21 -9 0 -14 -7 -12
-17z"/>
<path d="M2290 10076 c0 -9 7 -16 16 -16 9 0 14 5 12 12 -6 18 -28 21 -28 4z"/>
<path d="M2372 10077 c-9 -11 -10 -17 -2 -22 15 -9 23 -1 18 21 -3 15 -4 16
-16 1z"/>
<path d="M4042 10078 c-18 -18 -15 -38 6 -38 27 0 46 16 39 34 -8 19 -28 21
-45 4z"/>
<path d="M2897 10073 c-12 -11 -8 -23 8 -23 8 0 15 7 15 15 0 16 -12 20 -23 8z"/>
<path d="M3180 10061 c0 -25 19 -38 31 -20 12 19 6 33 -14 37 -11 2 -17 -3
-17 -17z"/>
<path d="M1772 10038 c-14 -14 -16 -38 -3 -38 12 0 41 29 41 41 0 13 -24 11
-38 -3z"/>
<path d="M2516 10025 c-6 -17 17 -31 34 -20 5 3 10 13 10 21 0 19 -36 18 -44
-1z"/>
<path d="M2753 10023 c-23 -9 -14 -33 12 -33 18 0 25 5 25 20 0 19 -12 24 -37
13z"/>
<path d="M3862 10018 c-18 -18 -15 -40 6 -36 9 2 18 13 20 26 4 24 -7 29 -26
10z"/>
<path d="M3050 10005 c0 -8 7 -15 15 -15 8 0 15 7 15 15 0 8 -7 15 -15 15 -8
0 -15 -7 -15 -15z"/>
<path d="M3622 9989 c1 -12 9 -24 16 -27 9 -3 13 3 10 19 -1 12 -9 24 -16 27
-9 3 -13 -3 -10 -19z"/>
<path d="M4310 9965 c0 -9 9 -15 25 -15 16 0 25 6 25 15 0 9 -9 15 -25 15 -16
0 -25 -6 -25 -15z"/>
<path d="M1948 9949 c-24 -13 -23 -39 1 -39 20 0 37 28 24 41 -4 4 -16 3 -25
-2z"/>
<path d="M2210 9950 c-12 -7 -12 -12 -2 -22 9 -9 15 -9 24 0 16 16 -2 34 -22
22z"/>
<path d="M4424 9925 c-8 -20 4 -35 27 -35 23 0 26 35 3 44 -22 8 -24 8 -30 -9z"/>
<path d="M1743 9905 c-3 -9 -3 -18 0 -21 10 -10 47 7 47 22 0 19 -39 18 -47
-1z"/>
<path d="M2030 9848 c0 -7 5 -20 10 -28 8 -12 10 -11 10 7 0 12 -4 25 -10 28
-5 3 -10 0 -10 -7z"/>
<path d="M2272 9848 c-16 -16 -15 -28 3 -28 8 0 15 9 15 20 0 23 -2 24 -18 8z"/>
<path d="M4688 9779 c-31 -18 -22 -41 15 -37 24 2 33 8 35 26 4 24 -19 30 -50
11z"/>
<path d="M4167 9773 c-4 -3 -7 -17 -7 -30 0 -26 30 -32 49 -9 22 27 -18 64
-42 39z"/>
<path d="M3307 9754 c-15 -15 -7 -45 11 -42 9 2 17 12 17 22 0 20 -16 31 -28
20z"/>
<path d="M2070 9734 c0 -9 5 -14 12 -12 18 6 21 28 4 28 -9 0 -16 -7 -16 -16z"/>
<path d="M2190 9735 c-6 -8 -9 -19 -6 -24 9 -14 36 -2 36 14 0 21 -16 26 -30
10z"/>
<path d="M3000 9742 c0 -5 7 -16 16 -23 14 -12 16 -11 13 5 -4 20 -29 35 -29
18z"/>
<path d="M4493 9734 c-3 -8 -1 -20 4 -25 14 -14 43 0 43 22 0 24 -38 26 -47 3z"/>
<path d="M1827 9733 c-14 -13 -6 -23 18 -23 16 0 25 6 25 15 0 15 -31 21 -43
8z"/>
<path d="M4810 9725 c0 -8 7 -15 15 -15 8 0 15 7 15 15 0 8 -7 15 -15 15 -8 0
-15 -7 -15 -15z"/>
<path d="M2730 9690 c0 -5 9 -10 20 -10 11 0 20 5 20 10 0 6 -9 10 -20 10 -11
0 -20 -4 -20 -10z"/>
<path d="M2507 9683 c-12 -11 -7 -43 6 -43 19 0 36 20 30 36 -5 15 -25 19 -36
7z"/>
<path d="M3822 9678 c-17 -17 -15 -55 4 -62 22 -8 54 11 54 32 0 20 -18 42
-35 42 -6 0 -16 -5 -23 -12z"/>
<path d="M3070 9670 c0 -5 5 -10 10 -10 6 0 10 5 10 10 0 6 -4 10 -10 10 -5 0
-10 -4 -10 -10z"/>
<path d="M2115 9640 c-8 -25 -7 -27 20 -32 16 -2 20 3 20 22 0 32 -31 39 -40
10z"/>
<path d="M4945 9651 c-8 -15 3 -31 21 -31 9 0 14 7 12 17 -4 20 -24 28 -33 14z"/>
<path d="M3126 9566 c7 -19 58 -22 52 -3 -3 6 -17 13 -31 15 -21 3 -26 0 -21
-12z"/>
<path d="M3700 9555 c0 -18 5 -25 20 -25 22 0 26 20 8 38 -19 19 -28 14 -28
-13z"/>
<path d="M5140 9530 c6 -11 17 -20 25 -20 9 0 15 -10 15 -24 0 -34 18 -43 29
-14 7 19 4 26 -19 40 -15 9 -31 21 -34 27 -13 20 -27 12 -16 -9z"/>
<path d="M3116 9522 c-4 -13 -5 -26 -2 -29 10 -11 18 4 14 29 l-4 23 -8 -23z"/>
<path d="M4922 9518 c-16 -16 -15 -48 2 -48 7 0 16 11 18 25 6 29 -4 39 -20
23z"/>
<path d="M3440 9505 c0 -8 7 -15 15 -15 8 0 15 7 15 15 0 8 -7 15 -15 15 -8 0
-15 -7 -15 -15z"/>
<path d="M4560 9494 c-11 -12 -10 -18 3 -31 13 -13 19 -14 31 -3 9 7 16 21 16
31 0 23 -32 25 -50 3z"/>
<path d="M4790 9450 c0 -11 7 -20 15 -20 17 0 18 2 9 24 -9 23 -24 20 -24 -4z"/>
<path d="M5285 9420 c-7 -12 2 -30 16 -30 5 0 9 9 9 20 0 21 -15 27 -25 10z"/>
<path d="M2301 9406 c-7 -9 -8 -17 -2 -20 14 -9 41 4 41 20 0 18 -24 18 -39 0z"/>
<path d="M2090 9395 c0 -8 7 -15 15 -15 8 0 15 7 15 15 0 8 -7 15 -15 15 -8 0
-15 -7 -15 -15z"/>
<path d="M5117 9403 c-12 -11 -7 -33 7 -33 12 0 26 20 26 36 0 7 -26 5 -33 -3z"/>
<path d="M2540 9379 c0 -24 23 -21 28 4 2 10 -3 17 -12 17 -10 0 -16 -9 -16
-21z"/>
<path d="M2936 9350 c6 -6 28 -13 49 -17 30 -5 37 -3 33 8 -3 8 -22 15 -49 17
-32 2 -41 0 -33 -8z"/>
<path d="M2523 9314 c-8 -21 23 -52 38 -37 14 14 2 53 -17 53 -8 0 -17 -7 -21
-16z"/>
<path d="M2360 9305 c-10 -13 -9 -15 9 -15 11 0 21 4 21 9 0 18 -18 21 -30 6z"/>
<path d="M4305 9300 c-7 -12 2 -30 16 -30 12 0 12 27 0 35 -5 3 -12 1 -16 -5z"/>
<path d="M2234 9285 c-7 -18 3 -35 21 -35 15 0 28 27 19 41 -8 14 -34 11 -40
-6z"/>
<path d="M5435 9280 c-10 -16 4 -30 31 -30 28 0 31 8 7 26 -22 16 -30 17 -38
4z"/>
<path d="M3570 9251 c0 -11 5 -23 10 -26 6 -4 10 5 10 19 0 14 -4 26 -10 26
-5 0 -10 -9 -10 -19z"/>
<path d="M2941 9234 c0 -11 3 -14 6 -6 3 7 2 16 -1 19 -3 4 -6 -2 -5 -13z"/>
<path d="M4560 9230 c0 -15 7 -20 25 -20 18 0 25 5 25 20 0 15 -7 20 -25 20
-18 0 -25 -5 -25 -20z"/>
<path d="M2747 9223 c-14 -13 -6 -33 12 -33 19 0 35 23 24 34 -8 8 -28 8 -36
-1z"/>
<path d="M2310 9195 c0 -8 7 -15 15 -15 8 0 15 7 15 15 0 8 -7 15 -15 15 -8 0
-15 -7 -15 -15z"/>
<path d="M2610 9194 c0 -8 5 -12 10 -9 6 3 10 10 10 16 0 5 -4 9 -10 9 -5 0
-10 -7 -10 -16z"/>
<path d="M3437 9193 c-9 -9 -9 -43 1 -43 18 1 34 19 29 34 -7 17 -19 21 -30 9z"/>
<path d="M4912 9188 c-21 -21 -14 -48 12 -48 30 0 40 13 31 40 -7 23 -25 26
-43 8z"/>
<path d="M5137 9193 c-17 -16 -5 -33 23 -33 23 0 30 4 30 20 0 14 -7 20 -23
20 -13 0 -27 -3 -30 -7z"/>
<path d="M5403 9173 c-18 -7 -16 -23 2 -23 8 0 15 7 15 15 0 8 -1 15 -2 14 -2
0 -9 -3 -15 -6z"/>
<path d="M2240 9166 c0 -2 7 -9 15 -16 9 -7 15 -8 15 -2 0 5 -7 12 -15 16 -8
3 -15 4 -15 2z"/>
<path d="M3680 9145 c-10 -12 -9 -16 5 -21 19 -8 40 9 31 25 -10 15 -21 14
-36 -4z"/>
<path d="M4119 9144 c-16 -20 -1 -48 29 -52 27 -4 49 33 31 54 -15 19 -43 18
-60 -2z"/>
<path d="M5597 9143 c-14 -13 -6 -33 13 -33 13 0 20 7 20 20 0 19 -20 27 -33
13z"/>
<path d="M2610 9095 c-10 -12 -9 -16 3 -21 20 -7 37 3 37 22 0 18 -24 18 -40
-1z"/>
<path d="M2510 9071 c0 -11 26 -22 34 -14 3 3 3 10 0 14 -7 12 -34 11 -34 0z"/>
<path d="M5421 9026 c-8 -9 -11 -19 -7 -23 9 -9 29 13 24 27 -2 8 -8 7 -17 -4z"/>
<path d="M5697 8984 c-17 -18 -6 -35 21 -32 16 2 27 9 27 18 0 16 -36 26 -48
14z"/>
<path d="M2960 8966 c0 -8 5 -18 10 -21 13 -8 42 14 34 26 -9 15 -44 10 -44
-5z"/>
<path d="M3321 8964 c0 -11 3 -14 6 -6 3 7 2 16 -1 19 -3 4 -6 -2 -5 -13z"/>
<path d="M2657 8963 c-16 -15 -5 -33 19 -33 20 0 25 4 20 16 -3 9 -6 18 -6 20
0 7 -26 5 -33 -3z"/>
<path d="M2840 8950 c0 -13 7 -20 20 -20 13 0 20 7 20 20 0 13 -7 20 -20 20
-13 0 -20 -7 -20 -20z"/>
<path d="M5361 8948 c-10 -25 1 -44 18 -34 14 9 14 56 1 56 -6 0 -15 -10 -19
-22z"/>
<path d="M5548 8963 c7 -3 16 -2 19 1 4 3 -2 6 -13 5 -11 0 -14 -3 -6 -6z"/>
<path d="M3210 8920 c0 -5 5 -10 11 -10 5 0 7 5 4 10 -3 6 -8 10 -11 10 -2 0
-4 -4 -4 -10z"/>
<path d="M3387 8923 c-14 -13 -7 -33 11 -33 26 0 34 11 21 27 -13 14 -22 16
-32 6z"/>
<path d="M4620 8885 c-19 -22 -8 -50 21 -53 19 -2 28 2 31 16 11 41 -26 68
-52 37z"/>
<path d="M5790 8885 c0 -8 9 -15 20 -15 13 0 18 5 14 15 -4 8 -12 15 -20 15
-8 0 -14 -7 -14 -15z"/>
<path d="M5004 8875 c-10 -25 4 -47 28 -43 17 2 24 11 26 31 3 23 0 27 -23 27
-14 0 -28 -7 -31 -15z"/>
<path d="M5380 8856 c0 -9 5 -16 10 -16 6 0 10 4 10 9 0 6 -4 13 -10 16 -5 3
-10 -1 -10 -9z"/>
<path d="M3437 8853 c-14 -13 -6 -33 13 -33 13 0 20 7 20 20 0 19 -20 27 -33
13z"/>
<path d="M4150 8760 c0 -5 5 -10 10 -10 6 0 10 5 10 10 0 6 -4 10 -10 10 -5 0
-10 -4 -10 -10z"/>
<path d="M5427 8755 c-9 -23 3 -45 25 -45 15 0 19 6 16 27 -3 31 -32 43 -41
18z"/>
<path d="M5838 8735 c-12 -26 -4 -46 11 -29 5 5 12 19 16 32 9 31 -12 29 -27
-3z"/>
<path d="M4362 8713 c2 -10 10 -18 18 -18 8 0 16 8 18 18 2 12 -3 17 -18 17
-15 0 -20 -5 -18 -17z"/>
<path d="M5687 8723 c-12 -11 -7 -33 7 -33 12 0 26 20 26 36 0 7 -26 5 -33 -3z"/>
<path d="M3002 8708 c3 -7 13 -15 22 -16 12 -3 17 1 14 10 -3 7 -13 15 -22 16
-12 3 -17 -1 -14 -10z"/>
<path d="M3811 8691 c-13 -24 8 -55 34 -50 28 6 42 34 26 53 -18 22 -48 20
-60 -3z"/>
<path d="M2922 8673 c-6 -3 -10 -9 -6 -14 7 -12 44 -12 44 0 0 11 -21 19 -38
14z"/>
<path d="M3517 8663 c-7 -11 10 -40 18 -31 4 4 3 14 -3 24 -5 9 -12 12 -15 7z"/>
<path d="M3295 8640 c-11 -17 5 -32 21 -19 8 6 14 15 14 20 0 12 -27 11 -35
-1z"/>
<path d="M5655 8641 c-3 -5 -1 -12 5 -16 5 -3 10 1 10 9 0 18 -6 21 -15 7z"/>
<path d="M5920 8630 c0 -15 7 -20 25 -20 18 0 25 5 25 20 0 15 -7 20 -25 20
-18 0 -25 -5 -25 -20z"/>
<path d="M3180 8626 c0 -16 27 -29 41 -20 19 11 9 34 -16 34 -15 0 -25 -6 -25
-14z"/>
<path d="M5762 8629 c2 -6 8 -10 13 -10 5 0 11 4 13 10 2 6 -4 11 -13 11 -9 0
-15 -5 -13 -11z"/>
<path d="M3604 8586 c-7 -19 3 -36 22 -36 10 0 14 8 12 22 -4 26 -26 36 -34
14z"/>
<path d="M4937 8553 c-15 -15 -7 -43 13 -43 15 0 20 7 20 25 0 24 -18 34 -33
18z"/>
<path d="M5577 8536 c-3 -8 -3 -17 0 -20 7 -7 33 13 33 25 0 15 -27 10 -33 -5z"/>
<path d="M5697 8543 c-12 -11 -7 -33 7 -33 12 0 26 20 26 36 0 7 -26 5 -33 -3z"/>
<path d="M5822 8538 c-18 -18 -15 -40 6 -36 9 2 18 13 20 26 4 24 -7 29 -26
10z"/>
<path d="M5970 8525 c0 -18 5 -25 20 -25 23 0 25 8 6 33 -18 24 -26 21 -26 -8z"/>
<path d="M5310 8506 c0 -32 18 -43 37 -23 20 20 10 47 -17 47 -15 0 -20 -7
-20 -24z"/>
<path d="M4420 8485 c0 -18 5 -25 19 -25 23 0 34 23 18 39 -19 19 -37 12 -37
-14z"/>
<path d="M4710 8490 c0 -13 28 -25 38 -16 3 4 0 11 -8 16 -20 13 -30 12 -30 0z"/>
<path d="M3570 8455 c0 -8 5 -15 10 -15 6 0 10 7 10 15 0 8 -4 15 -10 15 -5 0
-10 -7 -10 -15z"/>
<path d="M4050 8454 c0 -9 5 -14 12 -12 18 6 21 28 4 28 -9 0 -16 -7 -16 -16z"/>
<path d="M3720 8450 c0 -5 5 -10 10 -10 6 0 10 5 10 10 0 6 -4 10 -10 10 -5 0
-10 -4 -10 -10z"/>
<path d="M5938 8452 c-20 -4 -24 -27 -7 -38 6 -3 15 -2 21 4 15 15 5 38 -14
34z"/>
<path d="M4794 8425 c-4 -9 -2 -21 4 -27 15 -15 44 -1 40 19 -4 23 -36 29 -44
8z"/>
<path d="M5765 8429 c-10 -15 3 -25 16 -12 7 7 7 13 1 17 -6 3 -14 1 -17 -5z"/>
<path d="M3512 8363 c4 -21 35 -30 51 -14 13 13 10 16 -26 25 -24 6 -28 4 -25
-11z"/>
<path d="M4583 8354 c-8 -21 13 -42 28 -27 13 13 5 43 -11 43 -6 0 -13 -7 -17
-16z"/>
<path d="M5064 8359 c-8 -14 11 -33 25 -25 16 10 13 36 -3 36 -8 0 -18 -5 -22
-11z"/>
<path d="M5396 8361 c-4 -7 -5 -15 -2 -18 9 -9 19 4 14 18 -4 11 -6 11 -12 0z"/>
<path d="M5530 8350 c-9 -16 -8 -21 5 -26 23 -9 47 4 43 23 -5 26 -35 28 -48
3z"/>
<path d="M4070 8345 c0 -8 7 -15 15 -15 8 0 15 7 15 15 0 8 -7 15 -15 15 -8 0
-15 -7 -15 -15z"/>
<path d="M4250 8345 c-16 -20 -1 -39 26 -33 27 5 32 48 6 48 -11 0 -25 -7 -32
-15z"/>
<path d="M3952 8333 c5 -26 38 -29 38 -4 0 15 -6 21 -21 21 -14 0 -19 -5 -17
-17z"/>
<path d="M5212 8327 c-6 -15 -19 -30 -27 -33 -25 -10 -18 -34 10 -34 27 0 40
29 33 71 -4 24 -5 24 -16 -4z"/>
<path d="M5674 8325 c-4 -14 -3 -29 0 -33 11 -11 41 14 44 37 5 32 -36 29 -44
-4z"/>
<path d="M5840 8320 c-9 -16 -8 -22 5 -27 20 -7 50 20 41 36 -11 17 -34 13
-46 -9z"/>
<path d="M3858 8316 c-24 -18 -23 -22 13 -35 41 -14 46 -14 31 1 -7 7 -12 20
-12 30 0 21 -9 22 -32 4z"/>
<path d="M4830 8255 c0 -8 5 -15 10 -15 6 0 10 7 10 15 0 8 -4 15 -10 15 -5 0
-10 -7 -10 -15z"/>
<path d="M4550 8225 c0 -14 5 -25 10 -25 6 0 10 11 10 25 0 14 -4 25 -10 25
-5 0 -10 -11 -10 -25z"/>
<path d="M4695 8240 c-9 -15 4 -30 26 -30 12 0 19 7 19 20 0 21 -33 29 -45 10z"/>
<path d="M5437 8233 c-8 -7 -10 -43 -3 -43 3 0 17 5 31 10 23 9 25 13 15 25
-13 16 -32 19 -43 8z"/>
<path d="M4147 8213 c-25 -6 -11 -23 19 -23 15 0 24 5 22 12 -5 14 -17 17 -41
11z"/>
<path d="M4380 8200 c0 -5 9 -10 20 -10 11 0 20 5 20 10 0 6 -9 10 -20 10 -11
0 -20 -4 -20 -10z"/>
<path d="M5060 8171 c0 -15 6 -21 21 -21 14 0 19 5 17 17 -5 26 -38 29 -38 4z"/>
<path d="M5625 8180 c-7 -12 2 -30 16 -30 5 0 9 9 9 20 0 21 -15 27 -25 10z"/>
<path d="M5415 8157 c-4 -10 -5 -21 -1 -24 10 -10 18 4 13 24 -4 17 -4 17 -12
0z"/>
<path d="M4940 8141 c-13 -26 -13 -31 4 -31 7 0 16 11 18 25 6 30 -7 33 -22 6z"/>
<path d="M4730 8140 c0 -5 9 -10 21 -10 11 0 17 5 14 10 -3 6 -13 10 -21 10
-8 0 -14 -4 -14 -10z"/>
<path d="M5120 8040 c0 -13 40 -13 60 0 11 7 5 10 -22 10 -21 0 -38 -4 -38
-10z"/>
<path d="M2542 8494 c9 -9 21 -13 27 -9 16 10 3 25 -22 25 -20 0 -20 -1 -5
-16z"/>
<path d="M2742 8378 c6 -18 28 -21 28 -4 0 9 -7 16 -16 16 -9 0 -14 -5 -12
-12z"/>
<path d="M3586 7995 c-3 -9 0 -15 9 -15 8 0 15 7 15 15 0 8 -4 15 -9 15 -5 0
-11 -7 -15 -15z"/>
<path d="M3875 7890 c-7 -12 2 -30 16 -30 5 0 9 9 9 20 0 21 -15 27 -25 10z"/>
<path d="M4887 7705 c-7 -16 8 -29 23 -20 15 9 12 35 -4 35 -8 0 -16 -7 -19
-15z"/>
<path d="M5746 7159 c-171 -76 -355 -111 -581 -112 -148 0 -248 12 -383 45
-88 21 -112 16 -112 -22 0 -27 18 -37 105 -59 186 -47 461 -65 629 -41 219 32
476 132 476 186 0 14 -27 45 -38 43 -4 -1 -47 -19 -96 -40z"/>
<path d="M4544 6846 c-16 -41 -1 -50 146 -99 379 -124 676 -139 964 -47 106
34 149 62 144 94 -4 30 -51 26 -160 -13 -117 -42 -283 -65 -418 -58 -144 8
-352 48 -495 97 -127 43 -172 49 -181 26z"/>
<path d="M4035 6164 c-27 -2 -124 -8 -215 -14 -379 -25 -906 -94 -1225 -160
-409 -86 -799 -224 -994 -354 -38 -26 -96 -75 -130 -111 -234 -251 -7 -512
629 -725 616 -205 1409 -310 2355 -310 1482 0 2852 336 3045 747 30 65 25 161
-13 226 -131 223 -736 466 -1462 586 -521 86 -835 111 -1465 115 -261 2 -497
2 -525 0z"/>
</g>
</svg>
