<?xml version="1.0" standalone="no"?>
<!DOCTYPE svg PUBLIC "-//W3C//DTD SVG 20010904//EN"
 "http://www.w3.org/TR/2001/REC-SVG-20010904/DTD/svg10.dtd">
<svg version="1.0" xmlns="http://www.w3.org/2000/svg"
 width="1464.000000pt" height="1919.000000pt" viewBox="0 0 1464.000000 1919.000000"
 preserveAspectRatio="xMidYMid meet">
<metadata>
Created by potrace 1.16, written by Peter Selinger 2001-2019
</metadata>
<g transform="translate(0.000000,1919.000000) scale(0.100000,-0.100000)"
fill="#a7262a" stroke="none">
<path d="M3290 18781 c-122 -20 -296 -88 -351 -137 -8 -8 -18 -14 -21 -14 -3
0 -23 -15 -45 -32 -225 -191 -388 -453 -539 -868 -88 -240 -217 -732 -270
-1024 -8 -44 -24 -130 -35 -191 -51 -281 -104 -670 -139 -1015 -6 -58 -15
-145 -20 -195 -39 -365 -74 -812 -100 -1285 -6 -102 -12 -219 -15 -260 -2 -41
-8 -173 -11 -293 -5 -144 -11 -220 -18 -222 -6 -2 -63 -8 -126 -15 -114 -11
-188 -23 -265 -40 -22 -4 -67 -14 -100 -20 -141 -27 -187 -68 -134 -121 16
-16 28 -20 53 -14 17 3 54 10 81 15 28 4 86 15 130 25 78 16 298 45 343 45
l23 0 -7 -197 c-6 -178 5 -454 23 -595 l6 -48 -33 0 c-31 0 -215 -34 -450 -82
-130 -27 -160 -52 -129 -110 10 -19 17 -20 89 -14 43 3 91 11 106 16 16 5 94
21 174 35 80 13 167 29 193 34 56 10 77 -3 77 -49 0 -56 56 -303 104 -464 8
-27 13 -53 10 -57 -2 -4 -1 -9 4 -11 4 -1 20 -37 35 -78 16 -41 32 -83 38 -92
5 -10 9 -25 9 -33 0 -10 5 -13 13 -9 8 5 9 4 2 -3 -9 -9 -131 -50 -330 -109
-79 -23 -167 -62 -177 -77 -15 -24 -8 -57 16 -72 23 -15 30 -14 112 11 48 14
92 27 98 28 6 1 36 12 67 23 61 23 240 73 262 73 15 0 54 -78 49 -95 -2 -5 0
-7 4 -3 10 10 77 -99 69 -112 -4 -6 -1 -9 6 -8 6 2 13 -2 16 -8 2 -7 -18 -25
-45 -42 -60 -37 -171 -146 -208 -203 -166 -263 -204 -577 -105 -859 10 -27 21
-53 24 -57 18 -17 1 -35 -70 -70 -87 -42 -292 -164 -338 -200 -16 -13 -34 -27
-40 -31 -5 -4 -39 -30 -75 -57 -36 -28 -69 -49 -73 -47 -5 1 -6 -2 -3 -7 3 -5
-9 -21 -26 -36 -64 -53 -144 -131 -177 -172 -19 -23 -38 -40 -44 -36 -6 3 -7
2 -4 -3 3 -6 -11 -29 -31 -52 -20 -23 -50 -60 -66 -82 -17 -22 -33 -40 -38
-40 -4 0 -8 -6 -8 -12 -1 -7 -14 -29 -30 -48 -17 -19 -30 -37 -30 -41 0 -15
-67 -108 -73 -102 -6 6 -11 -11 -8 -29 0 -5 -4 -8 -11 -8 -6 0 -8 -3 -5 -6 7
-7 -42 -97 -55 -102 -4 -2 -8 -9 -8 -15 0 -13 -80 -198 -90 -207 -3 -3 -6 -9
-6 -15 -1 -5 -19 -62 -39 -125 -133 -413 -140 -826 -20 -1185 13 -38 25 -77
27 -85 2 -8 6 -17 9 -20 4 -3 23 -36 42 -75 43 -82 80 -148 88 -155 3 -3 24
-30 46 -60 22 -30 55 -68 71 -84 17 -16 29 -34 25 -39 -3 -6 -1 -7 4 -4 13 8
36 -17 25 -28 -4 -5 -2 -5 4 -2 7 4 27 -7 45 -23 85 -75 249 -171 362 -211 20
-7 37 -17 37 -22 0 -4 4 -5 10 -2 19 12 10 -5 -23 -38 -54 -57 -117 -135 -117
-146 0 -6 -4 -11 -10 -11 -5 0 -10 -5 -10 -11 0 -5 -17 -36 -38 -67 -21 -31
-53 -91 -72 -132 -18 -41 -38 -78 -43 -81 -5 -3 -7 -8 -5 -10 6 -7 -25 -89
-34 -89 -5 0 -7 -4 -4 -8 3 -5 -2 -28 -10 -53 -155 -448 -173 -1054 -48 -1664
14 -71 28 -139 30 -150 2 -11 21 -94 43 -185 150 -630 159 -879 50 -1385 -60
-278 -68 -324 -80 -454 -21 -218 15 -473 90 -653 35 -81 112 -209 157 -258 18
-19 41 -44 51 -55 71 -79 209 -178 321 -230 34 -16 62 -33 62 -37 0 -5 4 -6
10 -3 5 3 19 1 31 -5 27 -15 240 -88 276 -95 355 -69 560 -88 883 -82 366 7
588 40 885 133 76 24 303 126 335 151 8 6 52 40 97 76 45 36 85 62 89 59 4 -4
4 -2 1 4 -4 6 5 24 19 39 14 15 37 45 51 66 14 22 30 39 35 39 5 0 6 4 3 10
-3 5 -2 10 3 10 5 0 12 9 15 20 6 23 8 23 195 -22 68 -16 146 -33 175 -38 29
-5 104 -18 167 -29 115 -21 463 -72 615 -91 129 -16 394 -38 615 -51 233 -13
1000 -6 1170 11 58 5 155 15 215 20 198 18 219 20 325 36 58 9 137 20 175 25
92 11 542 96 605 114 10 3 24 -11 39 -38 43 -74 154 -186 256 -256 28 -19 53
-39 56 -44 3 -5 8 -8 10 -6 2 1 33 -12 69 -29 101 -48 239 -102 284 -112 218
-49 439 -91 530 -102 69 -8 229 -13 426 -13 310 0 325 1 600 40 84 12 242 51
350 86 117 38 309 116 320 129 11 14 136 93 147 93 7 0 11 3 10 7 -3 10 99
100 107 95 3 -3 4 -2 1 1 -5 7 21 46 52 79 11 11 30 39 43 62 13 24 27 43 32
43 4 0 7 3 6 7 -1 5 13 40 31 78 83 180 115 345 115 610 0 194 -2 221 -41 415
-63 322 -65 338 -68 575 -2 127 1 275 6 330 7 83 48 341 79 500 31 156 42 217
84 470 76 451 81 504 81 905 0 365 -8 455 -67 745 -20 101 -32 142 -95 335
-44 134 -182 417 -215 441 -15 11 -58 73 -58 85 0 7 36 14 108 18 161 10 409
61 565 115 118 41 356 148 369 166 4 6 8 6 8 2 0 -4 10 1 22 13 12 11 28 20
35 20 7 0 13 5 13 11 0 5 4 8 9 4 6 -3 13 1 18 9 4 7 28 27 53 42 85 54 162
119 279 234 146 145 211 215 211 229 0 6 4 11 8 11 4 0 16 13 25 30 10 16 23
35 30 42 7 7 28 37 47 65 19 29 40 51 47 48 7 -2 10 2 7 10 -6 15 12 56 30 67
6 4 11 11 11 15 0 4 21 44 46 88 57 102 87 165 186 392 15 36 102 279 108 303
10 44 44 167 49 180 8 19 29 114 67 300 49 239 66 360 111 800 16 165 16 1001
0 1200 -7 80 -17 201 -22 270 -31 382 -75 724 -141 1080 -16 91 -34 185 -39
210 -5 25 -12 70 -16 100 -3 30 -8 58 -10 61 -2 4 -6 125 -10 270 -7 307 9
579 45 769 6 30 20 105 31 165 12 61 25 133 30 160 5 28 15 88 24 135 20 115
34 242 42 380 3 63 7 128 9 143 7 76 -17 321 -47 462 -36 177 -141 388 -255
514 -12 14 -19 29 -16 35 3 6 2 8 -2 4 -5 -5 -36 18 -70 50 -61 57 -102 92
-109 92 -1 0 -41 22 -87 50 -46 27 -89 50 -95 50 -5 0 -15 5 -22 12 -6 6 -17
13 -24 14 -7 1 -44 13 -83 27 -38 14 -95 30 -125 36 -30 6 -66 14 -80 18 -14
3 -117 8 -230 10 -226 5 -300 -4 -480 -58 -99 -30 -290 -118 -320 -149 -3 -3
-32 -25 -64 -50 -191 -144 -347 -406 -426 -715 -53 -210 -64 -307 -64 -570 0
-286 20 -434 108 -820 53 -233 67 -472 46 -780 -5 -77 -14 -214 -20 -305 -28
-417 -90 -1013 -140 -1335 -19 -126 -51 -312 -60 -350 -5 -22 -17 -76 -25
-120 -45 -228 -101 -417 -164 -549 -38 -80 -138 -211 -177 -231 -10 -5 -35
-22 -54 -37 -27 -20 -130 -68 -147 -68 -11 0 1 41 17 58 12 12 19 22 16 22 -3
0 8 29 24 64 44 96 61 186 61 319 1 131 -9 187 -52 297 -16 41 -29 79 -29 83
0 4 -5 13 -10 20 -6 7 -36 53 -68 102 -37 56 -90 120 -143 170 l-85 80 23 35
c50 79 38 74 128 50 44 -11 143 -42 221 -67 154 -51 189 -52 200 -7 14 55 -3
68 -173 122 -87 28 -177 56 -201 63 -61 18 -65 27 -37 83 70 139 169 447 203
635 20 107 22 108 107 92 28 -6 88 -17 135 -25 47 -9 116 -22 155 -31 103 -22
139 -20 154 9 16 28 7 62 -19 76 -10 6 -52 17 -92 26 -40 9 -91 20 -113 26
-39 9 -69 15 -188 37 -103 18 -100 16 -93 75 13 118 25 344 27 539 2 127 7
215 14 223 9 13 25 13 125 0 63 -9 158 -25 210 -37 100 -22 213 -32 204 -18
-3 5 0 18 7 30 24 46 -42 75 -286 123 -114 23 -241 42 -257 38 -13 -3 -17 36
-23 213 -10 284 -35 840 -45 1015 -6 91 -15 244 -20 340 -5 96 -12 200 -15
230 -2 30 -9 109 -15 175 -47 577 -79 862 -141 1265 -38 245 -103 586 -140
733 -23 92 -31 124 -39 152 -4 17 -13 53 -20 80 -6 28 -15 59 -20 70 -16 39
-29 81 -50 155 -11 41 -25 84 -29 95 -5 11 -19 47 -31 80 -33 91 -32 89 -113
255 -96 197 -172 309 -286 426 -50 51 -91 90 -91 87 0 -2 -17 8 -37 24 -95 73
-186 114 -328 145 -76 17 -111 19 -230 14 -77 -4 -165 -13 -195 -20 -133 -34
-312 -104 -405 -159 -27 -17 -56 -30 -62 -30 -7 0 -11 -3 -8 -5 6 -6 -101 -72
-116 -72 -5 0 -9 -5 -9 -11 0 -5 -4 -7 -10 -4 -5 3 -10 2 -10 -2 0 -5 -28 -29
-62 -53 -34 -25 -66 -49 -72 -55 -6 -5 -32 -27 -57 -47 -26 -21 -63 -53 -83
-73 -20 -19 -41 -35 -46 -35 -6 0 -10 -5 -10 -11 0 -5 -5 -7 -10 -4 -6 4 -9 2
-8 -3 2 -6 -51 -66 -117 -134 -67 -68 -137 -143 -157 -168 -19 -25 -49 -59
-64 -75 -16 -17 -40 -47 -54 -67 -13 -20 -28 -34 -32 -32 -5 3 -7 1 -6 -4 2
-5 -5 -20 -14 -33 -94 -129 -145 -195 -155 -202 -7 -4 -13 -15 -13 -23 0 -9
-5 -12 -12 -8 -7 4 -8 3 -4 -4 6 -11 -38 -82 -56 -90 -5 -2 -8 -8 -8 -14 0 -6
-11 -26 -25 -44 -14 -19 -25 -36 -24 -40 0 -4 -3 -10 -8 -13 -24 -17 -249
-394 -368 -616 -27 -49 -58 -106 -70 -125 -12 -19 -29 -51 -38 -70 -37 -81
-28 -78 -268 -82 -117 -1 -338 -1 -489 0 -151 1 -298 2 -327 2 -48 0 -52 2
-72 36 -12 19 -18 40 -15 46 4 6 3 8 -3 5 -5 -3 -22 17 -37 46 -15 29 -38 70
-51 92 -13 21 -22 42 -19 46 2 4 0 9 -4 11 -5 1 -31 41 -59 88 -112 189 -358
586 -373 600 -3 3 -18 25 -35 50 -95 144 -372 501 -427 551 -10 9 -18 19 -18
23 0 10 -285 292 -356 351 -123 105 -389 295 -413 295 -5 0 -21 10 -37 23 -16
12 -30 21 -31 19 -2 -1 -18 4 -36 12 -109 50 -234 94 -317 112 -76 16 -325 26
-390 15z m245 -142 c208 -26 404 -105 632 -255 61 -41 118 -80 125 -87 7 -6
30 -25 50 -40 21 -15 37 -33 35 -39 -1 -7 5 -12 13 -13 20 0 70 -44 215 -190
146 -146 255 -268 255 -285 0 -7 3 -10 6 -7 4 3 28 -22 55 -56 27 -34 55 -69
62 -77 28 -30 217 -299 217 -309 0 -5 4 -11 8 -13 11 -4 91 -122 94 -139 2 -8
9 -18 15 -24 7 -5 28 -35 46 -65 18 -30 71 -116 116 -190 92 -150 126 -211
123 -222 -1 -5 1 -8 6 -8 4 0 19 -21 32 -47 14 -27 30 -51 35 -55 7 -5 7 -8 0
-8 -6 0 -6 -3 0 -8 13 -9 68 -102 60 -102 -3 0 17 -33 45 -74 89 -129 64 -125
716 -121 673 3 611 -13 713 185 32 61 65 120 74 131 9 10 17 24 17 29 0 6 18
40 40 76 22 36 40 70 40 75 0 5 5 9 12 9 6 0 9 3 5 6 -3 3 14 40 39 81 24 41
44 79 44 84 0 5 7 12 15 15 8 4 12 10 9 15 -3 5 0 9 5 9 6 0 11 7 11 15 0 17
97 168 111 173 5 2 9 8 9 14 0 16 207 323 236 350 13 13 24 27 24 31 0 4 4 13
10 20 5 7 49 62 97 123 163 205 367 421 523 552 41 34 84 70 94 80 14 13 17
13 12 2 -4 -8 2 -3 14 13 12 15 28 27 35 27 7 0 15 3 17 8 5 12 99 76 158 108
30 16 57 32 60 35 24 30 266 125 379 149 255 54 452 18 644 -120 31 -23 55
-46 51 -51 -3 -5 -1 -8 5 -7 14 4 121 -112 121 -129 0 -7 4 -13 10 -13 5 0 17
-15 26 -32 10 -18 23 -37 30 -43 21 -17 114 -187 120 -222 3 -18 10 -33 14
-33 18 0 120 -274 180 -480 12 -41 26 -86 31 -100 23 -69 72 -277 107 -460 69
-350 69 -353 122 -705 5 -33 14 -103 19 -155 6 -52 19 -176 30 -275 39 -351
79 -858 101 -1260 5 -110 15 -281 20 -380 22 -410 29 -569 32 -733 l3 -174
-250 -2 c-284 -3 -420 -19 -728 -87 -49 -10 -97 -19 -106 -19 -10 0 -30 -9
-44 -20 -20 -16 -24 -27 -21 -47 10 -52 19 -53 223 -13 255 50 399 64 676 64
l250 1 -3 -300 c-1 -165 -8 -349 -15 -410 -14 -127 -11 -124 -117 -107 -103
18 -209 31 -290 37 -265 20 -364 26 -519 32 -161 5 -175 4 -188 -13 -20 -27
-16 -62 10 -78 14 -9 68 -16 152 -20 72 -4 168 -9 215 -11 146 -8 459 -40 553
-56 32 -6 76 -11 98 -11 26 0 43 -6 46 -15 18 -46 -85 -427 -160 -594 -8 -19
-27 -62 -42 -96 -40 -91 -47 -95 -120 -71 -33 11 -76 24 -95 28 -69 16 -186
48 -230 63 -25 8 -92 29 -150 47 -58 17 -157 49 -220 70 -97 32 -118 36 -135
25 -21 -13 -31 -61 -16 -83 4 -8 130 -53 280 -101 149 -49 269 -90 267 -92 -3
-2 5 -4 17 -5 27 -1 235 -59 270 -75 l27 -12 -21 -18 c-11 -10 -20 -21 -21
-26 0 -14 -68 -104 -83 -109 -8 -4 -13 -10 -10 -14 8 -13 -205 -212 -280 -262
-74 -49 -247 -138 -355 -183 -97 -41 -438 -164 -495 -180 -27 -7 -88 -25 -135
-38 -78 -24 -328 -89 -410 -107 -122 -28 -281 -59 -315 -62 l-40 -3 -7 74 c-3
40 -10 76 -15 80 -4 3 -14 18 -21 32 -29 55 -98 117 -173 153 l-76 37 -11 63
c-16 88 -53 157 -118 222 -86 86 -233 144 -367 144 -41 0 -57 4 -55 13 8 44
-37 145 -102 228 -16 19 -26 40 -22 46 4 5 32 18 62 28 121 39 144 61 128 122
-10 40 -40 57 -82 49 -17 -4 -39 -8 -48 -9 -9 -1 -15 -4 -12 -6 9 -9 -139 -42
-218 -48 -139 -11 -344 27 -501 93 -34 15 -65 31 -69 38 -4 6 -8 7 -8 3 0 -5
-27 6 -60 24 -33 17 -57 36 -53 42 3 6 1 7 -6 3 -13 -8 -61 23 -108 70 l-33
33 0 123 c0 122 7 157 29 144 6 -4 11 -2 11 4 0 6 8 10 18 8 23 -5 99 67 114
109 7 18 16 33 22 33 5 0 6 3 3 6 -10 10 35 84 46 77 6 -3 7 -1 4 4 -4 6 7 25
23 42 17 17 28 31 25 31 -2 0 7 16 20 36 33 48 35 142 5 191 -55 91 -386 134
-612 80 -108 -27 -140 -44 -168 -90 -23 -36 -26 -110 -8 -154 6 -15 11 -31 10
-35 -1 -5 2 -8 7 -8 13 0 97 -127 123 -187 32 -73 64 -109 117 -132 l48 -20 5
-133 c3 -72 4 -137 2 -143 -2 -5 -17 -17 -32 -26 -140 -85 -190 -111 -272
-144 -97 -39 -117 -42 -229 -30 -67 8 -158 -7 -197 -32 -39 -25 -179 9 -307
74 -33 16 -55 22 -70 16 -12 -4 -26 -6 -30 -5 -5 1 -6 -2 -3 -7 11 -18 -38
-41 -86 -41 -87 0 -182 -32 -267 -89 -118 -81 -224 -234 -237 -346 -3 -27 -7
-53 -10 -56 -2 -4 -33 -7 -68 -7 -153 1 -279 -82 -328 -214 -22 -62 -56 -97
-133 -136 -53 -26 -121 -101 -147 -160 -12 -26 -20 -47 -19 -47 1 0 -5 -22
-13 -50 -17 -56 -14 -148 5 -215 21 -74 20 -78 -15 -75 -17 1 -34 3 -38 4 -6
1 -19 64 -23 114 -2 23 -15 36 -42 40 -13 2 -26 6 -29 10 -4 4 -20 7 -35 7
-63 0 -623 177 -640 203 -3 5 -10 8 -15 8 -28 -3 -255 101 -322 147 -15 11
-53 36 -85 58 -111 73 -357 352 -388 439 -7 19 -16 35 -21 35 -4 0 -5 7 -2 15
4 8 12 15 19 15 7 0 87 24 177 54 89 30 237 78 328 106 190 60 284 100 293
124 9 23 -9 64 -30 68 -17 4 -103 -20 -168 -48 -16 -7 -50 -18 -75 -24 -24 -7
-103 -31 -175 -55 -201 -67 -417 -125 -433 -116 -19 11 -63 117 -116 281 -66
201 -105 372 -106 461 l0 36 68 11 c37 6 117 16 177 22 61 6 126 13 145 16
122 14 417 34 478 33 85 -2 112 14 112 67 0 59 17 59 -450 24 -249 -19 -354
-28 -449 -40 -51 -6 -97 -8 -102 -3 -16 16 -30 311 -27 558 l3 250 130 3 c159
4 415 -19 595 -53 74 -14 142 -29 150 -32 8 -3 19 -5 23 -4 5 1 27 -4 49 -10
57 -15 90 3 86 45 -2 21 -12 34 -35 48 -18 9 -33 16 -33 13 0 -2 -15 1 -32 6
-61 19 -299 64 -465 89 -40 5 -160 13 -268 17 l-195 6 0 67 c0 64 4 137 30
615 16 280 48 745 60 860 13 126 18 180 30 335 5 69 14 167 20 218 5 50 14
131 19 180 26 239 53 460 72 582 11 74 24 162 29 195 78 526 233 1140 380
1510 46 115 170 356 180 350 6 -4 7 1 3 11 -5 13 -3 15 7 9 8 -5 11 -4 7 2
-13 22 165 239 186 226 6 -3 7 -2 4 4 -9 15 129 116 213 155 85 41 136 56 224
67 88 12 92 12 191 0z m9331 -2758 c3 -14 8 -33 11 -41 12 -38 33 -276 33
-383 0 -137 -16 -366 -35 -517 -12 -94 -12 -107 2 -122 23 -26 60 -22 79 7 16
25 25 78 48 310 22 215 15 516 -15 688 -13 72 -3 87 55 87 62 -1 253 -43 270
-61 6 -5 17 -9 25 -9 26 0 101 -32 95 -41 -3 -5 1 -6 9 -4 26 11 79 -38 93
-85 33 -111 56 -268 56 -390 0 -149 -18 -254 -69 -401 -42 -119 -39 -139 21
-139 27 0 34 5 50 43 94 214 128 476 92 700 -8 49 -12 96 -9 104 4 10 2 14 -4
10 -5 -3 -10 0 -10 8 0 13 3 12 18 -1 10 -9 16 -21 12 -27 -3 -5 -2 -7 4 -4 5
3 22 -5 38 -19 15 -13 24 -24 19 -24 -5 0 -1 -5 8 -10 47 -28 156 -222 197
-351 55 -172 66 -252 65 -484 0 -260 -14 -378 -103 -850 -40 -215 -59 -371
-73 -609 -16 -289 5 -654 51 -856 86 -381 173 -1128 202 -1736 37 -764 -55
-1592 -242 -2179 -17 -55 -34 -110 -36 -122 -3 -13 -8 -23 -12 -23 -4 0 -7 -8
-8 -17 -2 -21 -53 -153 -94 -241 -16 -34 -29 -65 -29 -68 0 -23 -224 -403
-250 -424 -3 -3 -16 -22 -29 -42 -12 -21 -26 -38 -30 -38 -4 0 -12 -9 -17 -20
-9 -20 -115 -140 -194 -220 -84 -86 -179 -162 -191 -154 -7 4 -9 3 -6 -3 18
-28 -374 -266 -406 -246 -6 3 -7 2 -4 -3 3 -6 -45 -27 -107 -48 -92 -31 -117
-36 -134 -27 -38 20 -70 13 -87 -18 -8 -17 -21 -33 -27 -37 -9 -5 -8 -2 1 9
12 15 12 17 -4 10 -14 -5 -17 -3 -12 10 8 20 -20 37 -61 37 -39 0 -56 -21 -47
-59 7 -31 6 -31 -55 -45 -14 -3 -32 -1 -40 5 -13 9 -13 10 0 8 30 -3 38 2 50
31 10 24 10 33 0 46 -17 20 -79 15 -93 -8 -10 -15 -8 -23 21 -79 5 -11 -131
-21 -157 -11 -15 5 -39 4 -63 -2 -28 -8 -41 -7 -46 1 -4 6 -26 10 -52 8 -58
-5 -64 0 -39 35 25 33 20 57 -13 69 -25 9 -68 -3 -80 -22 -5 -7 -7 -4 -5 8 1
12 13 35 25 52 29 40 28 47 -8 73 -27 20 -30 26 -30 80 0 51 3 60 25 74 35 23
33 61 -2 78 -25 12 -28 19 -31 73 -3 59 -2 61 28 72 28 10 31 16 28 45 -2 27
-8 34 -34 41 -29 8 -32 14 -37 60 -7 55 -3 67 20 67 22 0 53 29 53 50 0 26
-26 43 -60 38 -35 -5 -42 7 -23 42 17 33 16 49 -2 56 -9 4 -20 14 -25 24 -8
15 -5 17 29 13 44 -5 71 15 71 53 0 41 -83 62 -95 24 -3 -11 -11 -20 -16 -20
-15 0 -10 47 7 61 35 29 35 52 0 84 -26 23 -35 41 -40 78 -5 40 -3 49 12 54
33 12 50 33 44 56 -7 28 -20 37 -54 37 -26 0 -28 3 -28 45 0 25 -7 56 -15 69
-15 23 -15 23 17 21 39 -2 68 19 68 51 0 48 -81 57 -96 11 -8 -21 -8 -20 -13
8 -5 22 0 35 16 52 32 31 29 50 -12 74 -19 12 -37 31 -40 43 -8 38 -11 96 -5
97 3 0 16 2 28 3 41 5 56 51 26 80 -19 20 -29 20 -59 0 -24 -15 -25 -15 -25 3
0 11 7 28 15 39 22 29 18 47 -16 67 -18 10 -29 20 -25 24 3 3 2 11 -3 17 -4 6
-13 25 -19 43 -10 29 -9 33 11 39 51 15 75 67 43 93 -16 13 -76 11 -73 -2 1
-5 -4 -12 -10 -14 -20 -7 -15 21 7 50 11 14 20 32 20 40 0 18 -29 44 -54 48
-11 3 -20 14 -23 29 -2 14 -14 50 -27 80 -40 92 -41 112 -6 132 50 28 32 81
-28 80 -31 0 -46 17 -31 35 6 6 9 24 7 40 -2 21 -10 29 -35 37 -35 10 -40 25
-23 71 6 15 6 24 1 20 -11 -6 -67 63 -58 71 3 4 20 -4 38 -17 36 -26 54 -20
79 27 9 16 21 29 26 29 5 0 15 4 22 8 14 9 16 -2 3 -22 -10 -15 6 -61 21 -61
5 0 7 -4 4 -9 -4 -5 5 -6 21 -2 37 10 50 33 37 68 -7 20 -18 30 -39 34 l-30 5
39 20 c22 10 53 31 70 46 16 15 32 26 34 23 6 -5 63 55 92 98 13 20 26 34 28
32 6 -6 105 202 130 270 37 106 80 257 102 360 12 55 28 130 36 167 13 63 51
268 73 403 10 60 20 127 41 280 35 260 42 314 46 355 2 25 9 88 14 140 53 531
87 1125 75 1335 -6 116 -19 201 -52 350 -88 404 -102 499 -110 741 -6 221 1
315 38 511 24 130 87 325 102 316 5 -3 7 -2 4 4 -8 13 23 94 34 87 5 -3 6 2 3
10 -3 8 3 23 13 33 10 10 25 33 31 49 7 17 26 45 43 63 16 18 29 36 29 40 0
11 133 138 172 164 18 12 45 28 60 34 26 12 26 11 23 -20 -2 -18 -6 -43 -9
-57 -62 -277 -58 -549 10 -785 31 -106 37 -115 75 -115 48 0 57 35 32 123 -51
175 -71 367 -53 504 6 48 12 95 12 103 1 16 40 198 56 260 5 20 14 45 20 57
12 21 79 49 137 57 17 2 37 7 46 11 33 13 115 23 187 23 70 -1 73 -2 78 -27z
m-7626 -4426 c103 -26 125 -35 169 -70 50 -40 59 -42 92 -17 45 34 119 73 128
67 5 -3 12 -1 15 4 10 16 118 22 190 12 90 -13 168 -53 239 -123 59 -59 71
-66 82 -48 9 15 73 40 131 51 47 9 159 1 248 -16 27 -6 98 -41 141 -71 29 -21
41 -18 82 21 20 19 43 35 50 35 7 0 13 4 13 9 0 17 134 63 201 68 66 6 137 -5
215 -33 36 -13 40 -18 36 -39 -4 -25 11 -35 23 -15 12 20 36 9 81 -37 55 -58
93 -135 103 -208 4 -30 10 -56 12 -58 40 -32 54 -35 143 -30 86 5 95 4 166
-26 138 -57 220 -169 220 -302 0 -64 7 -73 65 -83 40 -7 113 -44 149 -75 30
-26 62 -82 73 -131 12 -49 3 -134 -15 -152 -20 -20 -13 -55 12 -71 33 -22 60
-106 52 -161 -9 -55 -33 -94 -95 -147 l-51 -44 0 -407 c0 -245 4 -409 9 -413
11 -6 250 27 391 55 52 10 156 30 230 45 177 34 404 87 565 132 72 19 139 37
150 38 11 2 52 14 90 28 39 14 138 49 220 78 83 28 213 76 289 106 121 47 178
73 366 169 45 22 191 115 208 131 7 7 18 10 26 7 26 -10 222 -539 261 -707 3
-12 30 -118 60 -236 98 -383 192 -893 224 -1216 50 -499 63 -686 49 -700 -3
-3 -41 10 -84 28 -148 64 -305 91 -514 90 -214 -1 -404 -44 -581 -133 -42 -22
-79 -36 -83 -33 -3 4 -6 1 -6 -5 0 -6 -9 -14 -20 -17 -68 -22 -308 -216 -414
-335 -32 -36 -62 -66 -67 -68 -5 -2 -9 -8 -9 -14 0 -5 -15 -28 -33 -51 -19
-23 -51 -70 -73 -105 -21 -34 -51 -82 -66 -105 -15 -23 -44 -77 -64 -119 -21
-43 -42 -78 -46 -78 -4 0 -8 -7 -8 -16 0 -13 -22 -68 -91 -234 -6 -14 -11 -27
-11 -30 -1 -3 -9 -30 -20 -60 -10 -30 -41 -143 -69 -250 -27 -107 -56 -209
-64 -226 -8 -17 -12 -46 -10 -65 6 -39 -13 -169 -24 -169 -4 0 -13 -12 -19
-26 -10 -20 -9 -28 3 -40 26 -26 19 -44 -14 -38 -23 5 -30 2 -36 -15 -9 -28 3
-44 29 -39 22 4 22 2 19 -61 -4 -72 -10 -97 -20 -88 -3 4 -15 -5 -25 -19 -22
-28 -18 -74 7 -74 16 0 17 -2 17 -40 1 -54 -3 -70 -27 -98 -32 -38 -32 -56 3
-81 27 -19 28 -23 24 -78 -2 -32 -11 -70 -18 -85 -13 -25 -12 -31 3 -54 25
-40 19 -114 -13 -137 -31 -24 -31 -50 1 -71 20 -13 25 -25 25 -60 0 -56 -8
-76 -29 -76 -23 0 -41 -20 -41 -46 0 -26 16 -41 50 -46 23 -3 25 -7 25 -62 0
-55 -2 -59 -25 -63 -67 -9 -66 -93 1 -93 26 0 27 -2 26 -47 0 -27 1 -55 4 -63
3 -11 -3 -14 -24 -12 -16 2 -37 -5 -52 -16 l-25 -20 21 -26 c22 -28 48 -33 67
-14 19 19 26 1 13 -31 -7 -16 -11 -40 -9 -52 2 -19 -2 -24 -19 -24 -26 0 -63
-29 -63 -50 0 -19 37 -38 62 -32 19 5 20 3 14 -46 -6 -43 -25 -98 -26 -74 0
13 -39 -12 -50 -32 -7 -14 -5 -25 10 -44 21 -27 27 -53 10 -42 -6 4 -8 10 -5
15 5 9 -45 -3 -65 -15 -14 -9 -13 -48 2 -63 7 -7 22 -12 34 -12 21 0 22 -2 12
-32 -7 -18 -24 -55 -40 -81 -15 -26 -28 -51 -28 -55 0 -4 -11 -24 -25 -44 -14
-20 -25 -46 -25 -57 0 -19 -11 -33 -55 -70 -12 -9 -16 -24 -13 -47 3 -27 0
-34 -13 -34 -9 0 -27 -9 -40 -19 -24 -20 -24 -21 -7 -51 10 -17 13 -28 8 -25
-6 3 -10 2 -10 -3 0 -6 -8 -8 -19 -5 -17 4 -61 -30 -61 -48 0 -4 13 -17 30
-29 27 -19 28 -23 18 -48 -7 -15 -25 -44 -40 -64 -25 -32 -28 -42 -22 -78 7
-40 6 -42 -15 -35 -24 7 -61 -18 -61 -42 0 -7 -7 -16 -15 -19 -22 -9 -37 -41
-30 -65 5 -15 14 -19 38 -17 25 2 32 9 42 37 8 26 13 31 18 18 3 -9 -5 -36
-19 -62 -19 -36 -23 -55 -18 -86 6 -36 5 -39 -18 -39 -30 0 -48 -17 -48 -46 0
-25 15 -38 43 -39 16 0 19 -9 21 -55 1 -30 5 -61 10 -68 5 -8 -2 -12 -24 -12
-23 0 -33 -6 -42 -26 -18 -39 0 -59 51 -58 40 0 41 0 26 -23 -8 -12 -15 -33
-15 -46 0 -24 33 -71 43 -61 3 3 8 1 11 -4 6 -11 -54 -9 -72 2 -7 4 -22 -3
-36 -18 -28 -31 -40 -32 -67 -5 -28 28 -61 21 -79 -19 -9 -18 -19 -30 -23 -26
-4 4 -7 2 -7 -4 0 -6 -6 -9 -14 -6 -8 3 -12 13 -9 23 6 24 -20 43 -54 39 -25
-3 -28 -7 -28 -42 0 -31 -4 -40 -20 -42 -11 -2 -56 -8 -100 -13 -44 -6 -127
-17 -185 -26 -168 -24 -248 -34 -370 -45 -63 -5 -176 -15 -250 -22 -185 -17
-1098 -17 -1285 0 -77 7 -192 17 -255 23 -145 13 -285 30 -495 60 -99 14 -181
33 -175 40 8 11 -32 49 -52 49 -11 0 -23 -11 -28 -26 -12 -30 -32 -27 -40 7
-4 14 -17 28 -34 34 -25 8 -31 6 -52 -19 l-24 -28 -29 31 c-27 28 -31 30 -61
20 -24 -9 -46 -8 -92 1 -34 8 -67 13 -74 13 -8 0 -14 6 -14 14 0 7 6 13 14 13
19 0 30 48 15 66 -16 19 -68 14 -80 -8 -5 -9 -9 -29 -9 -44 0 -22 -2 -25 -15
-14 -19 16 -19 60 0 86 8 10 15 15 15 10 0 -16 40 26 40 42 0 9 -10 26 -22 39
-17 18 -19 26 -10 35 7 7 12 8 12 2 0 -17 52 -8 67 12 8 10 13 30 11 44 -3 21
-9 26 -43 30 -23 3 -40 10 -39 18 1 6 2 39 3 72 1 55 3 60 26 66 14 3 30 15
36 25 8 15 5 24 -16 45 -14 14 -30 22 -36 18 -15 -9 -30 17 -22 41 3 10 17 28
30 38 17 14 23 27 21 46 -3 23 -7 26 -40 23 l-36 -3 10 40 c9 34 7 43 -12 69
-13 18 -19 35 -15 43 5 7 4 10 -2 6 -7 -4 -10 3 -9 18 0 14 6 25 11 25 6 0 3
4 -5 10 -13 8 -13 10 1 15 10 4 13 17 11 48 -5 52 -11 58 -59 66 l-38 7 3 52
c2 34 -1 52 -8 52 -6 0 -9 4 -6 9 3 5 -1 8 -10 7 -17 -1 -22 5 -46 64 -21 49
-20 55 6 52 31 -4 74 52 59 77 -15 24 -82 27 -98 4 -7 -10 -11 -21 -9 -25 3
-5 3 -8 0 -8 -7 0 -27 38 -31 61 -3 13 2 19 15 19 37 0 50 12 50 46 0 45 -38
57 -81 25 l-29 -22 -9 23 c-10 28 -4 48 15 48 17 0 36 44 28 65 -7 16 -40 30
-65 26 -24 -3 -30 22 -13 55 14 26 13 29 -20 63 -26 28 -35 45 -36 76 -3 61
-2 65 20 65 12 0 22 9 26 24 10 43 1 61 -34 64 l-32 3 0 70 c0 65 1 69 23 69
30 0 47 18 47 51 0 28 -15 39 -56 39 -23 0 -24 2 -18 38 8 38 8 56 2 81 -2 9
9 17 31 22 35 7 51 23 51 51 0 23 -36 41 -67 33 -23 -5 -25 -4 -18 17 17 54
17 79 1 97 -19 21 -10 34 15 21 9 -6 26 -7 36 -3 23 8 58 43 43 43 -6 0 -9 4
-5 9 9 15 -33 39 -59 34 -13 -3 -28 -15 -34 -26 -10 -22 -11 -22 -11 3 -1 14
8 39 19 55 25 38 25 61 0 75 -16 9 -20 21 -20 62 0 42 5 55 26 75 32 30 29 63
-9 81 -26 13 -28 17 -25 70 3 51 5 57 28 62 31 7 49 52 30 74 -7 9 -25 16 -41
16 -28 0 -29 1 -23 39 4 27 1 46 -10 64 -11 15 -13 28 -7 31 5 4 12 2 15 -3 6
-9 61 1 73 12 15 15 9 47 -11 61 -29 18 -69 1 -74 -32 -5 -33 -22 -16 -22 22
0 25 8 39 34 61 l35 29 -31 23 c-17 12 -36 24 -42 26 -8 3 -7 9 2 18 22 24 14
57 -18 74 -25 13 -30 21 -30 53 0 21 -4 42 -10 48 -5 5 -16 37 -24 72 -13 59
-13 63 4 72 10 6 26 10 34 10 31 0 41 63 12 82 -23 16 -65 8 -71 -12 -3 -11
-11 -20 -16 -20 -12 0 -3 51 10 59 14 9 29 53 24 69 -3 6 -17 12 -33 12 -54 0
-60 7 -44 47 19 44 14 59 -23 66 -25 5 -28 10 -30 48 -2 26 -9 47 -18 51 -19
11 -128 234 -120 247 3 6 12 8 20 5 16 -6 55 29 55 51 0 8 -11 22 -24 30 -28
19 -58 9 -76 -26 -11 -19 -13 -17 -43 28 -18 26 -31 49 -29 50 1 2 -5 11 -14
21 -32 36 -91 118 -97 135 -4 10 -20 25 -37 35 -28 15 -31 21 -28 58 4 50 -6
61 -47 56 -21 -3 -36 2 -46 14 -8 10 -9 15 -3 11 12 -7 44 53 44 83 0 30 -33
25 -67 -10 l-29 -30 -22 30 c-13 17 -31 30 -40 30 -34 0 -42 20 -22 53 14 23
16 34 8 44 -15 18 -78 16 -100 -4 -17 -15 -19 -15 -36 0 -10 10 -21 17 -24 17
-3 0 -22 7 -42 15 -36 15 -36 16 -20 40 15 24 15 27 0 44 -21 23 -74 22 -88
-2 -12 -23 -23 -21 -49 6 -12 12 -19 16 -15 10 8 -15 0 -18 -9 -3 -3 5 11 18
32 29 21 10 71 44 111 75 39 31 72 52 72 48 0 -4 5 1 11 11 5 9 14 17 20 17 5
0 23 16 40 35 17 19 38 35 46 35 8 0 11 5 8 10 -3 6 -2 10 3 10 5 0 20 16 33
35 13 19 26 35 30 35 3 0 13 -23 23 -50 10 -28 42 -83 71 -123 29 -40 50 -76
47 -82 -3 -5 -2 -7 3 -3 4 4 35 -14 69 -41 34 -27 71 -51 84 -55 12 -4 22 -12
22 -17 0 -5 3 -8 8 -7 4 1 36 -8 72 -19 151 -51 189 -57 362 -57 l167 -1 3
-455 c3 -441 4 -456 25 -501 22 -48 146 -183 157 -172 3 4 6 1 6 -5 0 -7 5
-12 11 -12 5 0 34 -11 62 -24 101 -47 163 -73 224 -92 35 -10 63 -23 63 -27 0
-5 4 -6 9 -2 5 3 27 -1 48 -10 42 -16 394 -88 513 -104 41 -6 116 -13 165 -16
50 -3 153 -13 230 -20 343 -35 847 -37 1185 -5 131 12 544 75 595 90 17 5 73
20 125 34 52 14 146 43 208 65 61 22 112 36 112 33 0 -4 4 -2 8 3 10 14 144
81 155 77 5 -1 6 2 3 7 -4 5 3 12 13 16 33 10 116 97 139 146 12 25 26 67 31
94 5 27 10 958 10 2188 1 1177 4 2144 7 2148 7 13 7 119 -1 173 -6 39 -11 47
-34 52 -14 4 -33 13 -41 20 -28 24 -100 45 -120 34 -9 -5 -20 -6 -24 -3 -3 3
-6 2 -6 -3 0 -6 -19 -21 -42 -35 -38 -21 -54 -24 -140 -22 -87 2 -98 0 -98
-15 0 -26 11 -36 58 -57 39 -17 49 -18 100 -6 151 34 187 39 194 27 12 -18 -1
-4445 -13 -4490 -6 -22 -23 -52 -39 -68 -16 -15 -26 -28 -22 -28 19 0 -127
-82 -208 -117 -179 -77 -327 -116 -660 -173 -56 -10 -153 -22 -315 -39 -229
-25 -589 -34 -871 -22 -153 6 -319 16 -369 22 -234 26 -348 42 -490 70 -55 10
-107 20 -115 20 -15 2 -164 39 -255 64 -94 26 -156 51 -148 59 4 5 3 6 -4 2
-7 -4 -20 -3 -30 2 -182 87 -232 127 -252 199 -14 47 -27 4367 -14 4458 8 59
9 60 38 58 43 -4 95 16 122 45 37 40 30 60 -21 64 -14 1 -26 7 -26 13 0 6 -9
16 -20 22 -15 10 -22 10 -35 -3 -8 -9 -12 -20 -9 -26 4 -7 2 -8 -4 -4 -7 4
-12 0 -12 -10 0 -16 -1 -16 -19 0 -10 9 -36 22 -56 27 -22 6 -60 32 -90 59
-67 64 -97 144 -90 239 2 36 10 68 17 72 7 4 9 11 6 15 -11 10 27 76 62 108
65 60 95 69 202 63 83 -4 99 -3 112 12 22 25 20 41 -11 73 -29 31 -60 36 -69
13 -5 -12 -10 -13 -20 -4 -8 6 -14 17 -14 24 0 19 30 75 41 75 5 0 8 5 6 11
-1 6 10 19 24 28 14 9 40 26 59 38 41 27 108 37 202 28 40 -3 79 -2 86 3 8 5
15 36 17 78 4 82 29 168 56 195 10 10 16 19 12 19 -4 0 8 16 27 35 18 19 38
31 43 28 6 -3 7 -1 3 5 -13 21 86 77 184 103 80 21 158 23 230 4z m-1205
-1470 l0 -70 -38 3 c-33 3 -38 1 -35 -15 3 -14 12 -17 36 -15 38 3 44 -13 40
-108 -3 -74 -7 -76 -93 -52 -93 27 -272 -1 -357 -54 -22 -14 -48 -27 -57 -29
-16 -2 -133 54 -139 68 -2 4 -12 7 -22 7 -22 0 -87 27 -94 39 -4 5 5 27 19 48
33 48 156 164 167 157 4 -3 8 -1 8 4 0 10 66 40 130 61 65 21 154 29 295 27
l140 -1 0 -70z m-2067 -317 c9 -9 9 -15 -1 -27 -11 -14 -10 -14 6 -2 15 12 22
10 51 -10 l34 -23 -20 -25 c-14 -19 -18 -34 -13 -59 5 -25 3 -33 -6 -30 -18 6
-53 -31 -78 -84 -13 -27 -26 -48 -30 -48 -13 0 -283 -257 -298 -285 -5 -7 -32
-39 -61 -72 -101 -111 -192 -228 -285 -366 -32 -48 -65 -93 -73 -102 -9 -8
-13 -15 -9 -15 6 0 -26 -52 -38 -61 -5 -3 -11 -25 -14 -47 -6 -46 6 -68 44
-83 37 -14 69 6 109 68 56 89 189 275 220 308 15 17 26 31 25 33 -2 2 9 18 24
35 14 18 41 50 58 71 63 79 110 125 120 119 6 -3 7 -1 3 6 -8 13 61 88 76 83
5 -1 7 1 4 6 -7 11 82 94 94 87 5 -3 8 0 5 7 -2 7 11 24 30 38 19 14 54 43 78
65 56 52 218 160 335 224 120 64 228 106 355 136 300 70 554 26 770 -134 53
-39 217 -209 217 -225 0 -4 -12 -6 -27 -2 -16 3 -75 8 -133 12 -161 9 -360
-27 -508 -92 -30 -13 -59 -21 -66 -17 -6 3 -8 3 -4 -1 3 -4 -8 -20 -25 -36
-31 -27 -31 -28 -14 -54 21 -31 32 -30 137 14 128 53 288 90 395 90 101 0 163
-10 265 -42 75 -24 94 -37 110 -81 7 -18 23 -55 36 -83 22 -46 58 -144 70
-184 26 -97 44 -190 50 -257 8 -94 10 -92 -71 -67 -101 31 -202 44 -335 44
-143 0 -226 -12 -375 -55 -100 -29 -130 -52 -115 -90 5 -12 7 -25 4 -27 -9 -9
83 10 166 34 47 14 141 31 209 38 112 11 149 11 261 -5 19 -3 51 -7 71 -10 20
-3 62 -17 94 -31 31 -15 67 -26 80 -26 19 0 23 -7 28 -49 18 -153 -62 -579
-109 -579 -7 0 -29 9 -48 21 -96 56 -272 82 -426 63 -145 -18 -195 -29 -223
-47 -53 -35 -33 -95 27 -82 148 31 316 41 419 25 101 -15 177 -41 194 -67 12
-17 10 -25 -14 -60 -73 -106 -223 -250 -246 -237 -7 4 -9 3 -4 -1 8 -10 -57
-49 -128 -76 -27 -11 -88 -23 -135 -28 -47 -5 -93 -13 -103 -17 -10 -4 -47
-50 -82 -103 -36 -53 -80 -114 -100 -136 -86 -97 -157 -165 -166 -159 -5 3 -8
1 -7 -4 2 -5 -17 -27 -42 -49 -53 -46 -204 -147 -215 -144 -4 2 -11 -1 -14 -6
-9 -14 -166 -87 -246 -116 -215 -76 -452 -104 -690 -81 -170 17 -248 35 -370
85 -16 7 -34 13 -40 14 -25 6 -177 93 -216 125 -129 102 -258 257 -327 395
-106 212 -163 520 -142 763 27 318 115 609 261 866 60 105 157 257 173 271 7
6 23 26 36 45 30 43 47 64 80 100 14 15 33 37 43 49 10 12 23 19 29 15 7 -4 8
-3 4 5 -10 16 159 185 175 175 7 -4 9 -3 6 3 -6 9 32 50 51 55 4 1 13 7 20 14
25 25 99 84 106 84 4 0 17 9 29 21 31 29 188 122 194 115 3 -3 15 0 27 6 18 9
19 9 10 -3 -16 -22 -11 -44 11 -44 16 0 20 6 19 32 -2 29 3 35 42 53 24 12 46
26 50 31 7 13 38 11 52 -3z m1992 -107 c14 -9 37 -22 52 -29 l27 -11 0 -251
c0 -137 -1 -250 -4 -250 -2 0 -10 -3 -19 -6 -10 -4 -16 -1 -16 9 0 13 -19 52
-92 187 -38 71 -122 182 -198 263 l-60 65 42 17 c91 37 218 39 268 6z m-1815
-11 c-3 -5 0 -10 7 -10 7 0 -7 -12 -31 -25 -24 -14 -46 -23 -49 -20 -3 3 -3 6
-1 8 2 2 19 15 37 30 35 28 47 34 37 17z m1890 -2528 c-9 -37 -86 -65 -160
-59 -85 7 -124 16 -167 38 -77 39 -121 157 -65 175 12 5 25 7 30 6 4 -1 7 2 7
8 0 6 7 10 17 10 9 0 13 3 10 6 -4 4 15 23 40 42 26 20 60 51 76 69 16 18 34
30 40 26 6 -4 7 -1 2 6 -4 7 2 22 15 36 28 30 36 43 102 174 l53 105 3 -310
c1 -170 0 -319 -3 -332z m-549 41 c4 -21 8 -44 7 -50 0 -7 3 -11 7 -8 5 3 11
-3 14 -13 10 -30 95 -109 143 -132 88 -41 258 -55 339 -26 l41 14 2 -163 c2
-187 13 -170 -109 -180 -139 -12 -355 35 -468 101 -88 52 -170 159 -203 266
-28 89 -28 98 -4 136 41 65 52 72 103 73 26 1 61 5 77 9 17 4 33 8 36 9 4 0
10 -16 15 -36z m7474 -223 c180 -38 324 -90 395 -144 16 -13 45 -31 64 -40 51
-27 235 -219 292 -305 131 -200 251 -500 289 -721 5 -30 15 -93 24 -140 30
-176 39 -302 40 -545 0 -279 -10 -414 -59 -755 -15 -108 -19 -128 -35 -215 -5
-27 -17 -90 -25 -140 -9 -49 -27 -148 -40 -220 -14 -71 -32 -168 -40 -215 -55
-295 -77 -635 -56 -835 13 -115 23 -183 64 -400 57 -300 66 -414 47 -591 -35
-342 -161 -576 -402 -747 -76 -54 -234 -131 -254 -123 -10 4 -11 12 -4 31 19
49 38 151 50 260 9 91 9 128 -4 215 -18 129 -44 224 -84 312 -16 37 -27 70
-24 73 4 4 3 6 -3 4 -5 -1 -18 2 -29 6 -10 5 -25 4 -34 -2 -36 -22 -36 -38 1
-131 58 -145 71 -216 72 -387 0 -160 -20 -265 -70 -382 -22 -48 -26 -52 -77
-66 -68 -19 -96 -25 -144 -32 -21 -3 -45 -8 -52 -10 -58 -20 -419 -59 -492
-53 -54 4 -53 -9 -11 188 40 188 55 352 47 513 -6 130 -30 298 -47 329 -11 21
-48 23 -73 5 -18 -13 -18 -18 0 -138 22 -149 25 -404 5 -529 -16 -102 -68
-315 -84 -349 -12 -24 -12 -24 -127 -17 -63 4 -155 11 -205 17 -49 5 -112 11
-140 14 -104 11 -260 46 -272 62 -6 8 -19 50 -28 92 -9 42 -21 92 -26 112 -13
50 -11 300 2 373 19 107 50 219 80 295 26 66 28 76 15 90 -36 40 -91 3 -116
-76 -7 -24 -16 -43 -19 -43 -4 0 -8 -11 -9 -26 -1 -14 -6 -34 -12 -44 -5 -10
-10 -28 -10 -39 0 -12 -5 -21 -11 -21 -5 0 -8 -3 -5 -8 2 -4 -5 -54 -16 -112
-16 -88 -19 -131 -14 -260 3 -85 12 -185 19 -222 10 -44 11 -70 4 -77 -11 -11
-162 39 -217 72 -19 12 -37 22 -40 22 -3 1 -32 16 -65 35 -90 52 -213 181
-268 281 -130 240 -136 504 -20 863 35 110 59 163 198 451 188 388 225 582
206 1081 -21 563 -13 971 29 1339 62 554 276 1144 525 1450 17 21 45 56 64 79
19 22 38 40 43 38 5 -1 7 1 4 6 -10 16 242 242 269 242 3 0 21 11 38 24 100
76 327 159 522 192 89 15 267 12 355 -6z m-8403 -497 c20 -42 50 -53 90 -32
20 11 30 10 68 -9 34 -16 43 -26 40 -42 -6 -29 29 -45 56 -26 19 13 25 12 56
-6 19 -12 42 -32 50 -45 9 -14 40 -36 70 -49 97 -45 269 -235 411 -455 23 -36
42 -70 42 -76 0 -6 4 -13 8 -15 8 -3 21 -30 105 -208 74 -157 120 -293 171
-500 97 -398 124 -661 127 -1204 3 -520 17 -692 75 -886 14 -47 28 -96 31
-110 5 -23 54 -136 170 -395 145 -322 178 -454 177 -715 0 -150 -3 -186 -22
-253 -44 -154 -121 -290 -214 -380 -71 -68 -156 -129 -170 -121 -7 4 -8 3 -4
-4 4 -7 -18 -23 -59 -42 -84 -39 -226 -92 -232 -86 -3 3 2 26 11 53 39 122 45
379 12 533 -22 106 -50 205 -58 208 -5 2 -8 8 -8 13 0 6 -14 39 -31 75 -35 72
-59 92 -94 76 -38 -18 -39 -45 -4 -114 89 -176 132 -422 109 -618 -15 -123
-54 -245 -83 -264 -12 -8 -92 -26 -177 -40 -301 -48 -590 -61 -581 -26 7 28 9
85 11 245 1 146 -4 232 -31 505 -5 52 -12 127 -15 165 -8 88 -17 105 -53 105
-57 0 -57 -5 -30 -318 37 -443 30 -722 -19 -722 -52 0 -296 26 -384 40 -148
25 -178 31 -252 50 -84 22 -117 36 -114 48 1 7 -6 27 -27 77 -44 102 -59 349
-30 500 9 44 33 131 55 194 41 118 41 133 0 144 -30 8 -56 -21 -88 -96 -16
-37 -32 -64 -37 -60 -4 5 -6 3 -2 -2 3 -6 -6 -53 -20 -105 -23 -85 -26 -113
-25 -270 0 -140 4 -189 19 -246 10 -39 17 -76 16 -81 -4 -12 -62 6 -131 41
-59 30 -165 108 -216 158 -34 34 -37 40 -25 56 12 15 12 16 -2 4 -14 -10 -20
-8 -43 20 -14 18 -27 38 -28 43 -1 6 -9 18 -19 28 -21 22 -82 147 -102 207
-40 121 -52 212 -51 400 1 196 6 239 66 500 72 318 81 385 81 650 1 131 -4
256 -11 300 -18 111 -52 290 -62 330 -11 44 -19 78 -74 315 -44 190 -65 294
-85 435 -6 41 -16 113 -23 160 -20 133 -17 657 5 790 30 183 36 214 52 270 9
30 21 78 29 105 7 28 18 60 25 73 6 12 10 22 7 22 -3 0 13 43 34 95 42 102
125 256 159 292 12 12 21 26 21 31 0 4 38 48 84 96 94 100 86 97 226 78 105
-15 366 -16 446 -2 168 30 304 65 400 105 85 34 100 32 121 -12z"/>
<path d="M3321 18215 c-70 -20 -142 -59 -189 -104 -46 -45 -112 -121 -105
-121 3 0 -1 -8 -9 -17 -19 -22 -118 -216 -118 -232 0 -6 -4 -11 -8 -11 -5 0
-14 -22 -21 -50 -7 -27 -17 -50 -23 -50 -5 0 -7 -4 -4 -9 3 -5 -6 -39 -19 -76
-85 -226 -165 -594 -211 -970 -25 -200 -26 -648 -2 -760 48 -224 116 -343 230
-401 86 -43 246 -30 345 29 18 10 33 16 33 13 0 -6 14 5 78 59 20 17 32 23 27
15 -4 -8 3 -4 17 10 13 14 23 28 21 33 -2 4 0 7 5 7 5 0 27 16 48 35 21 19 51
45 68 58 16 12 36 29 45 37 49 46 83 73 76 60 -4 -8 1 -5 13 6 54 56 263 150
424 192 62 17 178 44 258 61 80 17 175 40 213 52 37 11 73 17 80 13 6 -4 9 -4
5 1 -4 4 9 17 30 28 65 35 98 66 127 119 26 47 29 62 28 143 -1 95 -18 178
-59 285 -57 147 -86 216 -100 242 -8 15 -15 30 -14 33 0 3 -32 69 -72 148 -40
78 -72 148 -71 154 0 7 -3 10 -8 7 -5 -3 -9 -1 -9 5 0 6 -25 52 -56 103 -31
51 -65 109 -76 128 -11 19 -23 37 -27 40 -3 3 -21 28 -40 55 -122 179 -295
372 -436 487 -39 31 -125 83 -153 92 -12 4 -22 12 -22 18 0 6 -3 9 -6 6 -3 -3
-29 3 -57 13 -72 27 -188 33 -256 14z"/>
<path d="M9435 18221 c-172 -24 -385 -181 -599 -441 -43 -52 -87 -105 -97
-118 -10 -12 -19 -25 -19 -28 0 -3 -18 -32 -41 -65 -75 -111 -184 -303 -262
-462 -42 -86 -77 -159 -77 -162 0 -2 -11 -28 -24 -57 -43 -96 -115 -312 -131
-392 -9 -44 -15 -108 -14 -143 2 -53 8 -72 36 -116 71 -109 102 -122 503 -218
364 -88 542 -179 787 -402 87 -79 115 -104 148 -130 115 -92 308 -126 420 -73
169 79 255 327 255 734 0 425 -73 883 -214 1347 -43 144 -93 268 -159 395 -59
114 -109 179 -185 243 -89 74 -202 105 -327 88z"/>
<path d="M3856 14354 c-221 -40 -630 -231 -828 -387 -46 -37 -66 -80 -47 -103
11 -14 26 -15 87 -10 102 8 256 41 392 83 238 73 304 92 312 87 4 -3 8 -1 8 4
0 16 127 29 188 20 75 -12 210 -75 252 -118 3 -3 34 -30 70 -60 68 -58 116
-101 209 -186 31 -29 71 -64 89 -79 17 -15 29 -32 25 -37 -4 -7 -1 -8 6 -3 8
4 27 -6 49 -27 21 -19 57 -50 82 -69 56 -41 60 -48 51 -71 -6 -16 -19 -19
-106 -21 -122 -3 -183 -28 -263 -108 -81 -83 -108 -192 -78 -324 17 -72 71
-167 108 -186 10 -5 16 -14 13 -20 -4 -5 -3 -9 2 -8 4 1 35 -11 68 -26 52 -25
72 -29 150 -29 79 0 97 4 150 29 62 30 135 83 135 99 0 5 8 18 17 28 9 11 18
24 19 31 2 7 10 30 18 52 18 47 21 155 6 205 -19 61 -20 94 -4 118 15 23 15
23 42 4 33 -24 158 -87 192 -97 14 -4 31 -12 38 -18 8 -6 21 -12 30 -13 10 -1
46 -12 82 -24 36 -12 103 -24 150 -26 74 -5 89 -3 118 16 40 24 71 89 72 145
0 88 -76 174 -155 175 -48 0 -190 37 -264 69 -75 32 -204 114 -196 124 3 4 2
5 -1 2 -19 -13 -340 268 -328 287 3 5 1 7 -5 6 -5 -2 -49 34 -98 78 -48 45
-102 95 -119 110 -167 153 -314 246 -439 279 -72 18 -193 18 -299 -1z"/>
<path d="M8660 14359 c-97 -19 -267 -105 -302 -154 -4 -5 -8 -7 -8 -3 0 3 -13
-6 -28 -20 -15 -15 -54 -49 -86 -77 -33 -27 -64 -55 -71 -62 -7 -7 -16 -9 -20
-5 -4 4 -5 2 -3 -4 2 -5 -33 -44 -77 -85 -44 -41 -111 -104 -150 -140 -105
-99 -246 -209 -259 -202 -6 3 -8 3 -4 -2 5 -5 -6 -18 -24 -29 -17 -12 -43 -29
-57 -38 -101 -68 -240 -119 -373 -138 -81 -12 -125 -36 -153 -85 -29 -48 -33
-108 -11 -160 8 -19 12 -35 9 -35 -8 0 38 -35 66 -50 55 -29 222 -4 363 55 35
14 68 27 73 28 6 2 59 28 119 60 60 31 115 57 122 57 24 0 26 -66 3 -132 -27
-80 -23 -190 9 -258 72 -151 247 -237 396 -195 48 14 145 58 141 65 -2 4 6 12
18 19 20 11 38 34 74 100 18 32 43 132 43 172 0 33 -29 150 -39 159 -4 3 -17
22 -31 43 -14 21 -47 53 -75 72 -75 52 -127 67 -220 63 -44 -1 -79 1 -77 5 2
5 -3 19 -12 32 -15 23 -14 25 37 62 28 21 60 46 70 56 10 10 23 15 29 11 6 -4
8 -3 5 3 -4 5 7 23 23 38 17 16 30 25 30 21 0 -5 18 11 40 35 22 24 40 41 40
38 0 -4 17 10 39 30 225 212 267 246 356 291 147 73 211 74 430 4 61 -20 118
-37 128 -39 10 -2 44 -13 75 -24 100 -35 194 -59 297 -77 150 -26 185 -20 185
35 0 20 -15 37 -68 76 -37 28 -69 53 -72 56 -9 11 -191 118 -211 124 -11 4
-16 11 -13 18 4 7 4 9 0 6 -4 -4 -60 17 -124 46 -269 122 -486 166 -652 134z"/>
<path d="M11032 9694 c-29 -20 -28 -50 4 -71 23 -15 29 -15 52 -2 30 17 37 47
15 71 -20 22 -42 23 -71 2z"/>
<path d="M11177 9678 c-21 -11 -21 -22 -1 -43 15 -15 18 -15 35 0 30 28 2 64
-34 43z"/>
<path d="M11250 9592 c-40 -27 -31 -76 15 -84 18 -4 30 1 40 16 20 28 19 45
-7 67 -25 23 -18 22 -48 1z"/>
<path d="M11121 9590 c-58 -14 -36 -94 23 -83 34 7 50 27 42 57 -6 26 -29 35
-65 26z"/>
<path d="M11177 9469 c-15 -21 -12 -59 7 -71 6 -4 23 -8 38 -8 51 0 64 81 16
94 -37 9 -46 7 -61 -15z"/>
<path d="M11121 9369 c-18 -7 -22 -15 -19 -41 3 -30 6 -33 40 -36 29 -2 39 1
48 17 21 41 -20 77 -69 60z"/>
<path d="M11257 9362 c-22 -24 -21 -45 1 -65 24 -22 35 -21 55 1 21 23 22 46
1 66 -20 21 -37 20 -57 -2z"/>
<path d="M11187 9255 c-26 -25 -22 -64 8 -75 27 -10 74 5 76 24 0 6 2 20 3 32
1 11 -2 21 -8 22 -6 1 -23 4 -37 7 -17 5 -31 1 -42 -10z"/>
<path d="M11252 9148 c-13 -13 -16 -57 -4 -73 17 -24 66 -15 83 16 23 43 -44
92 -79 57z"/>
<path d="M11351 9060 c-35 -8 -48 -53 -26 -86 13 -21 22 -24 43 -19 45 11 56
50 25 89 -13 16 -25 20 -42 16z"/>
<path d="M11272 8933 c-22 -9 -34 -41 -22 -63 19 -35 100 -20 100 20 0 36 -40
59 -78 43z"/>
<path d="M11336 8824 c-24 -23 -20 -59 9 -74 20 -11 28 -10 50 4 29 19 29 20
14 49 -21 40 -47 47 -73 21z"/>
<path d="M11412 8718 c-17 -17 -15 -63 4 -78 11 -10 23 -11 42 -4 22 8 27 16
25 43 -1 38 -1 38 -33 46 -15 3 -30 1 -38 -7z"/>
<path d="M11480 8601 c-17 -32 -11 -60 15 -77 24 -16 27 -16 45 1 25 23 26 57
2 78 -25 22 -49 21 -62 -2z"/>
<path d="M11328 8586 c-9 -22 -8 -29 7 -46 37 -40 89 -17 83 37 -3 24 -8 28
-40 31 -32 3 -40 -1 -50 -22z"/>
<path d="M11404 8475 c-8 -31 0 -51 23 -63 26 -14 61 3 69 33 8 34 -11 55 -52
55 -28 0 -35 -5 -40 -25z"/>
<path d="M11493 8382 c-24 -15 -20 -68 8 -82 32 -18 73 13 64 48 -9 38 -42 54
-72 34z"/>
<path d="M11432 8273 c-7 -3 -18 -17 -23 -30 -18 -49 48 -85 85 -47 19 19 21
48 4 62 -18 14 -51 21 -66 15z"/>
<path d="M11562 8267 c-6 -7 -13 -25 -16 -39 -3 -21 0 -29 15 -33 11 -4 17
-10 14 -15 -7 -11 28 -7 41 5 19 18 22 53 7 74 -16 24 -45 27 -61 8z"/>
<path d="M11492 8148 c-16 -16 -15 -53 2 -67 20 -17 77 -10 89 11 8 12 7 24
-1 42 -9 20 -19 26 -45 26 -18 0 -38 -5 -45 -12z"/>
<path d="M11442 8045 c-44 -32 -28 -85 27 -85 33 0 51 16 51 46 0 37 -46 61
-78 39z"/>
<path d="M11603 8043 c-53 -10 -56 -73 -3 -91 27 -10 31 -8 49 17 20 27 20 27
-2 52 -14 16 -30 24 -44 22z"/>
<path d="M11657 7932 c-32 -35 -20 -79 25 -95 20 -7 58 28 58 52 -1 44 -57 72
-83 43z"/>
<path d="M11514 7932 c-17 -11 -23 -50 -10 -66 13 -17 55 -24 74 -13 19 13 15
65 -7 77 -23 12 -42 13 -57 2z"/>
<path d="M11587 7812 c-28 -30 -21 -61 15 -76 30 -13 34 -12 55 12 18 21 20
30 11 46 -21 40 -55 47 -81 18z"/>
<path d="M11516 7704 c-22 -21 -20 -47 4 -69 31 -28 74 -10 78 31 2 24 -2 33
-23 42 -34 16 -40 15 -59 -4z"/>
<path d="M11652 7684 c-4 -51 56 -90 72 -48 19 48 -2 86 -46 82 -20 -2 -25 -8
-26 -34z"/>
<path d="M11596 7597 c-12 -9 -17 -23 -14 -42 2 -24 9 -30 36 -36 26 -5 35 -3
47 14 19 28 19 33 -5 57 -23 23 -39 25 -64 7z"/>
<path d="M11728 7584 c-15 -32 -1 -58 34 -62 29 -4 59 21 55 46 -5 31 -18 42
-48 42 -22 0 -32 -7 -41 -26z"/>
<path d="M11818 7498 c-17 -13 -21 -27 -19 -65 1 -19 7 -23 35 -23 45 0 71 32
53 64 -7 11 -12 22 -12 22 0 10 -45 11 -57 2z"/>
<path d="M11522 7488 c-7 -7 -12 -18 -12 -26 0 -7 -5 -10 -11 -6 -7 4 -4 -6 6
-23 15 -26 21 -29 53 -24 29 5 39 13 47 35 8 23 6 30 -10 42 -23 17 -57 18
-73 2z"/>
<path d="M11660 7485 c-17 -21 -4 -64 23 -74 29 -11 55 3 63 34 8 32 -11 55
-46 55 -15 0 -33 -7 -40 -15z"/>
<path d="M11635 7392 c-11 -2 -27 -6 -35 -9 -8 -3 -18 -6 -21 -5 -12 2 9 -71
23 -79 35 -23 78 1 78 42 0 36 -17 56 -45 51z"/>
<path d="M11740 7380 c-21 -21 -26 -55 -10 -65 6 -4 8 -10 6 -14 -3 -4 11 -8
29 -9 27 -2 38 3 50 22 22 33 12 62 -26 75 -25 9 -33 7 -49 -9z"/>
<path d="M11822 7274 c-25 -18 -30 -65 -8 -83 8 -7 27 -11 43 -9 22 2 29 9 31
31 3 27 -20 77 -36 77 -4 0 -18 -7 -30 -16z"/>
<path d="M11515 7271 c-3 -6 -4 -24 -3 -42 5 -67 98 -63 98 5 0 22 -6 36 -16
40 -24 9 -72 7 -79 -3z"/>
<path d="M11665 7268 c-14 -42 -8 -76 15 -83 51 -16 97 39 64 76 -19 21 -72
26 -79 7z"/>
<path d="M11620 7161 c-31 -5 -35 -10 -38 -38 -3 -25 2 -35 22 -49 24 -15 28
-15 51 0 17 11 25 26 25 45 0 37 -17 48 -60 42z"/>
<path d="M11898 7163 c-10 -2 -21 -16 -25 -30 -5 -20 -1 -31 17 -45 38 -30 64
-20 68 26 4 49 -11 62 -60 49z"/>
<path d="M11733 7148 c-9 -16 -5 -49 9 -65 18 -23 66 -15 84 12 16 24 16 27
-1 45 -20 23 -79 27 -92 8z"/>
<path d="M11966 7044 c-33 -34 -33 -67 0 -93 20 -16 31 -18 45 -10 18 9 21 15
22 42 0 13 -31 87 -37 87 -2 0 -15 -12 -30 -26z"/>
<path d="M11838 7052 c-30 -4 -39 -23 -35 -78 2 -25 6 -30 30 -32 37 -3 79 39
75 75 -3 29 -27 41 -70 35z"/>
<path d="M11527 7029 c-22 -31 -8 -73 27 -77 36 -4 56 13 56 49 0 47 -57 66
-83 28z"/>
<path d="M11662 7038 c-17 -17 -15 -49 4 -76 27 -39 69 -22 92 39 8 21 7 28
-9 37 -24 15 -72 15 -87 0z"/>
<path d="M12090 6976 c-15 -19 -5 -36 21 -36 22 0 25 22 5 39 -10 9 -16 8 -26
-3z"/>
<path d="M11592 6918 c-30 -30 -2 -88 41 -88 45 0 66 39 42 76 -17 26 -62 33
-83 12z"/>
<path d="M11733 6908 c-13 -15 -14 -23 -5 -43 31 -69 120 -26 97 46 -8 25 -68
23 -92 -3z"/>
<path d="M11915 6922 c-51 -10 -63 -64 -19 -84 33 -15 56 -1 65 39 7 34 -12
52 -46 45z"/>
<path d="M12014 6896 c-15 -61 59 -93 80 -34 12 35 -6 58 -45 58 -22 0 -30 -6
-35 -24z"/>
<path d="M12160 6905 c-31 -37 17 -87 68 -71 28 9 38 57 16 73 -24 17 -69 16
-84 -2z"/>
<path d="M11822 6809 c-25 -9 -31 -56 -10 -77 30 -30 88 3 88 49 0 22 -48 39
-78 28z"/>
<path d="M11664 6804 c-20 -8 0 -68 26 -81 20 -10 28 -9 42 4 24 22 32 51 18
68 -12 14 -61 19 -86 9z"/>
<path d="M5104 11399 c-8 -14 11 -33 25 -25 6 4 11 14 11 22 0 16 -26 19 -36
3z"/>
<path d="M5260 11389 c0 -14 5 -19 17 -17 26 5 29 38 4 38 -15 0 -21 -6 -21
-21z"/>
<path d="M5715 11396 c-24 -17 -14 -46 14 -39 25 6 34 28 17 42 -9 8 -18 7
-31 -3z"/>
<path d="M5853 11403 c-7 -2 -13 -13 -13 -24 0 -13 7 -19 24 -19 27 0 40 22
23 39 -12 12 -15 12 -34 4z"/>
<path d="M4957 11393 c-12 -11 -8 -23 8 -23 8 0 15 7 15 15 0 16 -12 20 -23 8z"/>
<path d="M5377 11315 c-14 -7 -28 -11 -31 -8 -2 3 -2 -5 1 -16 7 -28 19 -34
49 -27 17 5 24 13 24 31 0 32 -11 37 -43 20z"/>
<path d="M5777 11308 c-27 -14 -22 -48 7 -48 24 0 38 12 48 40 6 18 -29 23
-55 8z"/>
<path d="M5923 11313 c-7 -3 -13 -14 -13 -25 0 -14 6 -19 22 -16 13 2 24 10
26 19 3 18 -15 29 -35 22z"/>
<path d="M5531 11301 c-17 -11 -7 -45 12 -39 13 5 23 48 10 48 -4 0 -14 -4
-22 -9z"/>
<path d="M5647 11298 c-21 -11 -22 -48 -1 -48 26 0 54 20 48 34 -8 20 -27 26
-47 14z"/>
<path d="M6017 11246 c-11 -9 -20 -29 -20 -48 -2 -28 3 -35 29 -47 24 -10 32
-20 32 -39 0 -15 5 -28 12 -30 7 -3 21 -13 31 -23 45 -45 102 -26 62 20 -10
12 -20 34 -23 49 -4 22 -11 27 -34 27 -29 1 -46 18 -28 29 5 3 7 20 3 38 -8
37 -34 47 -64 24z"/>
<path d="M6785 11211 c-3 -5 -1 -12 5 -16 5 -3 10 1 10 9 0 18 -6 21 -15 7z"/>
<path d="M7350 11200 c0 -11 7 -20 15 -20 8 0 15 6 15 14 0 8 -7 16 -15 20
-10 4 -15 -1 -15 -14z"/>
<path d="M5697 11203 c-24 -23 12 -55 38 -33 12 10 13 16 4 26 -12 15 -31 18
-42 7z"/>
<path d="M5845 11190 c-11 -18 13 -36 31 -25 9 6 16 15 17 20 3 14 -40 18 -48
5z"/>
<path d="M5980 11166 c14 -18 13 -18 -7 -12 -33 11 -61 -9 -65 -46 -2 -22 -9
-32 -22 -34 -28 -4 -42 -22 -29 -35 8 -8 20 -6 44 7 19 10 47 18 64 18 38 1
62 41 40 67 -8 8 -13 18 -10 21 3 3 -3 11 -12 19 -17 13 -17 13 -3 -5z"/>
<path d="M6195 11136 c-22 -16 -14 -46 14 -46 30 0 55 29 40 46 -14 18 -30 18
-54 0z"/>
<path d="M6247 11062 c-21 -25 -10 -42 29 -42 21 0 34 5 34 13 -1 34 -42 53
-63 29z"/>
<path d="M7410 11040 c0 -5 9 -10 21 -10 11 0 17 5 14 10 -3 6 -13 10 -21 10
-8 0 -14 -4 -14 -10z"/>
<path d="M7396 10996 c-38 -11 -67 -38 -54 -51 6 -6 29 -12 52 -14 5 -1 1 -10
-9 -21 -19 -21 -14 -50 8 -50 25 0 40 26 28 48 -9 17 -7 21 12 26 32 8 37 8
37 -8 0 -7 6 -19 14 -25 11 -9 18 -8 30 5 20 19 8 39 -29 48 -14 4 -24 10 -24
14 6 35 -13 43 -65 28z"/>
<path d="M4744 10965 c-12 -31 3 -45 34 -34 23 8 29 15 25 30 -6 23 -51 26
-59 4z"/>
<path d="M4657 10954 c-9 -9 4 -35 14 -28 5 3 9 12 9 20 0 14 -12 19 -23 8z"/>
<path d="M6727 10934 c-8 -8 1 -24 13 -24 4 0 10 7 14 15 5 15 -14 21 -27 9z"/>
<path d="M5220 10883 c-23 -9 -50 -44 -50 -64 0 -34 101 -48 130 -19 27 27 25
34 -11 64 -31 26 -42 29 -69 19z"/>
<path d="M4720 10775 c0 -8 5 -15 10 -15 6 0 10 7 10 15 0 8 -4 15 -10 15 -5
0 -10 -7 -10 -15z"/>
<path d="M6806 10738 c2 -4 0 -9 -5 -13 -7 -3 -7 -15 -1 -29 5 -13 7 -26 5
-28 -2 -2 7 -5 21 -6 44 -3 73 50 42 76 -14 11 -69 11 -62 0z"/>
<path d="M4418 10724 c-12 -11 4 -34 24 -34 13 0 18 6 16 17 -3 18 -29 29 -40
17z"/>
<path d="M5384 10697 c-46 -26 -63 -77 -25 -77 28 0 81 39 81 59 0 23 -30 32
-56 18z"/>
<path d="M6564 10689 c-3 -6 -2 -15 4 -21 15 -15 46 -5 50 15 3 12 -3 17 -22
17 -14 0 -28 -5 -32 -11z"/>
<path d="M4732 10683 c-18 -7 -34 -51 -27 -74 6 -19 45 -27 45 -10 0 24 33 42
64 35 l31 -6 -32 31 c-31 30 -52 36 -81 24z"/>
<path d="M4260 10646 c0 -21 20 -30 33 -17 9 9 8 14 -3 21 -21 14 -30 12 -30
-4z"/>
<path d="M4370 10636 c0 -8 5 -18 10 -21 13 -8 42 14 34 26 -9 15 -44 10 -44
-5z"/>
<path d="M5575 10606 c-21 -15 -14 -46 10 -46 10 0 15 10 15 30 0 34 0 34 -25
16z"/>
<path d="M7105 10608 c-35 -20 -49 -58 -21 -58 7 0 30 -11 51 -25 35 -25 38
-25 56 -9 31 28 33 53 8 80 -24 26 -61 31 -94 12z"/>
<path d="M5452 10583 c4 -22 43 -25 43 -3 0 8 -11 16 -23 18 -19 3 -23 0 -20
-15z"/>
<path d="M7712 10558 c-19 -19 -14 -56 8 -68 11 -6 24 -9 28 -6 4 3 14 1 21
-4 11 -6 10 -13 -7 -35 -17 -21 -19 -31 -11 -46 16 -32 45 -23 62 18 26 66
-13 153 -68 153 -12 0 -26 -5 -33 -12z"/>
<path d="M5503 10494 c-9 -24 10 -48 39 -52 36 -4 52 18 32 46 -18 26 -62 29
-71 6z"/>
<path d="M4000 10490 c0 -5 7 -10 16 -10 8 0 12 5 9 10 -3 6 -10 10 -16 10 -5
0 -9 -4 -9 -10z"/>
<path d="M5647 10483 c-15 -14 -6 -41 15 -46 27 -7 38 -1 38 23 0 23 -37 40
-53 23z"/>
<path d="M5384 10459 c-10 -17 12 -32 36 -24 17 5 19 10 9 21 -14 17 -35 18
-45 3z"/>
<path d="M3978 10413 c6 -3 10 -8 7 -13 -3 -4 3 -18 13 -30 17 -20 19 -21 32
-5 19 23 1 49 -36 51 -16 1 -23 0 -16 -3z"/>
<path d="M6000 10405 c-18 -21 -5 -45 24 -45 26 0 47 25 39 48 -6 17 -48 15
-63 -3z"/>
<path d="M5587 10401 c-14 -5 -15 -10 -4 -31 10 -18 19 -24 37 -22 31 5 44 17
37 35 -6 16 -45 26 -70 18z"/>
<path d="M5720 10374 c0 -33 13 -44 51 -44 16 0 19 6 17 34 -1 19 -5 33 -9 30
-4 -2 -10 0 -14 5 -3 5 -14 9 -25 8 -15 -1 -20 -9 -20 -33z"/>
<path d="M5453 10384 c-3 -8 -1 -20 5 -26 16 -16 47 -5 50 20 3 18 -1 22 -23
22 -14 0 -28 -7 -32 -16z"/>
<path d="M4052 10298 c-20 -20 -14 -40 11 -36 14 2 23 11 25 26 4 24 -16 30
-36 10z"/>
<path d="M4147 10217 c-15 -11 -16 -15 -4 -31 17 -24 37 -13 37 20 0 27 -8 30
-33 11z"/>
<path d="M4332 10218 c-18 -18 -15 -28 8 -28 13 0 20 7 20 20 0 23 -10 26 -28
8z"/>
<path d="M4402 10138 c3 -7 16 -19 30 -26 14 -6 29 -23 32 -37 8 -31 62 -89
101 -108 17 -8 54 -17 83 -21 57 -7 136 -51 125 -69 -3 -6 -1 -7 6 -3 6 4 14
0 17 -8 3 -9 10 -13 15 -10 5 3 9 2 9 -3 0 -4 17 -19 38 -33 20 -14 43 -30 50
-37 18 -17 90 -26 168 -19 96 7 104 9 104 20 0 5 3 7 6 3 4 -3 26 10 50 29 25
21 48 33 55 28 8 -4 9 -3 5 4 -4 7 -3 12 2 12 6 0 13 -7 16 -16 4 -10 15 -14
33 -12 38 4 53 60 25 97 -23 31 -63 47 -88 36 -11 -5 -23 -7 -29 -6 -5 2 -7
-1 -2 -5 8 -9 -59 -73 -88 -84 -11 -4 -46 -10 -77 -14 -45 -6 -64 -4 -95 12
-21 11 -44 17 -51 15 -16 -6 -44 16 -36 28 3 5 2 8 -3 7 -13 -5 -83 43 -83 56
0 7 -9 21 -19 30 -16 15 -30 16 -76 11 -52 -7 -59 -5 -83 18 -15 14 -40 31
-56 37 -23 8 -26 13 -16 25 21 25 4 45 -34 43 -19 -2 -32 -6 -30 -9 2 -4 -6
-9 -18 -12 -15 -4 -26 0 -35 13 -15 22 -57 28 -51 8z"/>
<path d="M6720 10064 c0 -9 5 -14 12 -12 18 6 21 28 4 28 -9 0 -16 -7 -16 -16z"/>
<path d="M6530 10014 c-79 -52 -142 -77 -219 -88 -22 -3 -96 20 -143 45 -50
26 -92 -8 -90 -74 1 -62 11 -130 20 -139 13 -13 62 31 62 55 0 45 10 49 93 31
96 -19 167 -7 243 41 29 19 55 31 58 28 3 -4 6 -1 6 5 0 6 8 16 19 21 14 8 36
2 97 -29 44 -21 101 -44 128 -50 52 -12 171 -12 196 0 76 35 130 64 130 71 0
5 9 9 20 9 12 0 28 13 39 32 l20 31 -24 19 c-32 25 -40 23 -102 -18 l-55 -36
-19 21 c-11 12 -24 21 -29 21 -11 0 -34 -40 -23 -40 4 -1 -2 -6 -15 -13 -12
-7 -38 -11 -57 -9 -30 4 -34 7 -29 26 3 13 -1 27 -9 34 -17 14 -47 6 -47 -13
0 -28 -22 -25 -79 10 -85 53 -123 54 -191 9z"/>
<path d="M8180 9990 c0 -16 5 -21 23 -18 12 2 22 10 22 18 0 8 -10 16 -22 18
-18 3 -23 -2 -23 -18z"/>
<path d="M8179 9913 c-2 -22 2 -47 6 -52 11 -10 55 11 55 27 0 38 -59 61 -61
25z"/>
<path d="M6110 9680 c-23 -5 -26 -12 -32 -84 -12 -126 -41 -192 -118 -268 -41
-39 -117 -85 -91 -55 19 23 7 47 -24 47 -18 0 -25 -5 -25 -20 0 -11 7 -23 15
-26 25 -10 17 -22 -21 -34 -43 -14 -179 -9 -196 8 -6 6 -11 26 -12 44 -1 23
-6 34 -19 36 -21 4 -49 -16 -41 -29 13 -22 -12 -5 -52 34 -60 59 -96 149 -95
235 0 86 -10 104 -57 100 l-37 -3 -3 -69 c-2 -38 2 -92 8 -119 13 -60 10 -62
-69 -72 -60 -7 -124 -24 -181 -48 -20 -8 -104 -20 -200 -27 -173 -13 -171 -13
-341 31 -26 7 -54 9 -63 6 -15 -6 -16 -150 -14 -1749 l3 -1743 31 -65 c17 -36
42 -74 57 -84 14 -11 24 -23 21 -28 -3 -4 4 -8 15 -8 11 0 22 -4 25 -9 10 -15
234 -79 411 -117 280 -60 894 -102 1315 -89 538 15 975 79 1245 183 39 14 74
25 78 24 5 -1 6 2 2 8 -3 5 -1 10 5 10 21 0 72 67 96 126 60 146 56 37 61
1847 4 1385 3 1657 -9 1659 -7 1 -168 2 -358 3 -377 1 -336 -4 -565 66 l-70
21 -95 -37 c-97 -38 -212 -64 -286 -65 -70 0 -264 43 -292 65 -1 1 5 22 14 46
8 24 18 87 21 140 5 88 4 98 -13 106 -10 6 -30 7 -44 3z m1402 -1742 c-9 -9
-15 -9 -23 -1 -7 7 -9 20 -5 29 6 16 8 16 23 1 13 -13 15 -19 5 -29z m-2684
-522 c6 -28 -26 -50 -44 -31 -15 15 -18 37 -7 49 13 13 48 1 51 -18z m1777
-150 c7 -21 5 -30 -11 -47 -23 -22 -43 -18 -62 12 -11 17 -11 25 2 43 20 32
58 27 71 -8z m-744 -496 c25 -14 25 -47 -1 -55 -46 -14 -79 22 -48 53 15 15
24 15 49 2z m1077 -620 c5 -30 -25 -55 -45 -39 -16 14 -17 41 -1 57 19 19 43
10 46 -18z"/>
<path d="M4780 7416 c0 -2 7 -6 15 -10 8 -3 15 -1 15 4 0 6 -7 10 -15 10 -8 0
-15 -2 -15 -4z"/>
<path d="M5835 6740 c-3 -5 -1 -10 4 -10 6 0 11 5 11 10 0 6 -2 10 -4 10 -3 0
-8 -4 -11 -10z"/>
<path d="M6900 6146 c0 -8 5 -18 10 -21 6 -3 10 1 10 9 0 8 -4 18 -10 21 -5 3
-10 -1 -10 -9z"/>
<path d="M5613 9623 c-16 -6 -17 -29 -3 -38 18 -11 50 6 50 26 0 19 -19 24
-47 12z"/>
<path d="M5437 9531 c-19 -21 -5 -61 22 -61 30 0 53 28 41 49 -13 26 -46 32
-63 12z"/>
<path d="M5565 9524 c-32 -32 5 -73 40 -44 21 17 19 37 -4 50 -15 7 -24 6 -36
-6z"/>
<path d="M5475 9430 c-13 -22 6 -50 34 -50 32 0 56 22 47 45 -6 17 -71 21 -81
5z"/>
<path d="M5627 9425 c-22 -22 -21 -37 2 -52 15 -10 22 -9 35 6 15 17 15 20 -2
41 -17 21 -19 21 -35 5z"/>
<path d="M5901 9412 c-8 -15 -7 -23 4 -32 22 -18 57 -3 53 23 -4 29 -43 35
-57 9z"/>
<path d="M5775 9410 c-7 -12 2 -30 16 -30 5 0 9 9 9 20 0 21 -15 27 -25 10z"/>
<path d="M5702 9311 c-19 -12 -11 -45 12 -49 26 -5 50 26 35 45 -13 15 -28 16
-47 4z"/>
<path d="M3080 6680 c-18 -15 -20 -22 -10 -39 12 -23 42 -28 58 -8 12 15 27
65 17 55 -4 -4 -15 -3 -25 2 -13 7 -24 4 -40 -10z"/>
<path d="M3013 6591 c-16 -10 -31 -45 -26 -59 8 -22 40 -33 68 -22 22 8 26 15
23 42 -2 25 -9 33 -29 39 -15 3 -31 4 -36 0z"/>
<path d="M2875 6556 c-22 -22 -24 -30 -15 -41 15 -18 56 -20 67 -2 13 21 12
35 -7 52 -18 16 -20 16 -45 -9z"/>
<path d="M3133 6569 c-21 -21 13 -68 50 -69 12 0 17 8 17 28 0 45 -39 69 -67
41z"/>
<path d="M2925 6476 c-39 -28 22 -106 63 -80 20 13 28 62 13 77 -15 15 -58 17
-76 3z"/>
<path d="M3078 6483 c-22 -5 -29 -28 -18 -59 6 -14 8 -29 6 -33 -12 -18 66 3
79 22 13 18 21 57 12 57 -1 0 -16 4 -32 8 -17 5 -37 7 -47 5z"/>
<path d="M3210 6464 c-18 -20 -2 -67 24 -72 23 -5 66 17 66 33 0 16 -43 55
-62 55 -9 0 -21 -7 -28 -16z"/>
<path d="M3138 6345 c-8 -19 -9 -31 -1 -43 11 -19 56 -27 81 -16 16 7 99 6
140 -1 9 -1 16 -7 15 -13 -4 -16 54 16 61 34 8 21 1 31 -36 50 -20 10 -39 13
-57 8 -14 -4 -29 -7 -33 -6 -5 1 -8 -3 -8 -9 0 -5 -4 -7 -10 -4 -13 8 -44 15
-97 22 -39 5 -43 3 -55 -22z"/>
<path d="M3480 6310 c0 -24 6 -33 26 -41 34 -12 61 -4 70 23 8 28 -18 48 -63
48 -30 0 -33 -3 -33 -30z"/>
<path d="M3623 6294 c-8 -21 19 -42 49 -38 13 1 26 3 31 3 15 2 6 31 -12 41
-29 15 -61 12 -68 -6z"/>
<path d="M3784 6279 c-9 -16 25 -41 51 -37 12 2 20 11 20 23 0 15 -8 21 -32
23 -17 2 -34 -2 -39 -9z"/>
<path d="M3927 6273 c-14 -13 -6 -33 13 -33 13 0 20 7 20 20 0 19 -20 27 -33
13z"/>
<path d="M3307 6239 c-8 -10 -16 -17 -19 -14 -3 3 -2 -12 1 -32 5 -32 11 -39
33 -41 47 -6 89 59 56 85 -27 21 -58 22 -71 2z"/>
<path d="M3441 6231 c-28 -28 -15 -75 21 -79 47 -6 78 66 39 88 -28 14 -38 13
-60 -9z"/>
<path d="M3578 6243 c-25 -6 -28 -80 -5 -95 33 -21 74 3 79 46 2 25 -2 31 -27
41 -16 6 -38 10 -47 8z"/>
<path d="M3704 6216 c-3 -8 -4 -27 -2 -43 3 -25 7 -28 46 -31 32 -2 42 0 43
12 1 9 2 22 3 29 1 6 -2 20 -6 30 -11 21 -76 24 -84 3z"/>
<path d="M3859 6214 c-7 -9 -12 -34 -12 -55 2 -37 0 -39 -27 -39 -32 0 -49
-21 -46 -60 3 -62 106 -43 106 20 0 17 -4 30 -10 30 -5 0 -10 5 -10 10 0 6 10
10 23 10 40 0 65 12 70 32 8 28 0 44 -29 57 -34 15 -49 14 -65 -5z"/>
<path d="M3367 6109 c-17 -24 -10 -57 16 -73 25 -16 59 20 55 58 -2 25 -8 32
-30 34 -18 2 -31 -4 -41 -19z"/>
<path d="M3506 6114 c-9 -8 -16 -28 -16 -44 0 -28 15 -40 51 -40 26 0 51 57
38 82 -12 22 -52 23 -73 2z"/>
<path d="M3639 6109 c-37 -37 -18 -79 36 -79 36 0 55 15 55 46 0 42 -60 64
-91 33z"/>
<path d="M3925 6103 c-21 -20 -15 -57 9 -61 21 -4 36 13 36 44 0 28 -25 38
-45 17z"/>
<path d="M3435 5990 c-17 -18 -17 -21 -1 -45 18 -27 59 -34 73 -12 14 22 14
60 1 68 -22 15 -54 10 -73 -11z"/>
<path d="M3570 5990 c-6 -11 -8 -31 -4 -45 5 -20 12 -25 40 -25 43 0 63 30 43
66 -16 31 -64 33 -79 4z"/>
<path d="M3717 5992 c-36 -40 -5 -92 46 -76 28 8 37 22 37 55 0 19 -6 28 -22
33 -35 9 -44 7 -61 -12z"/>
<path d="M3872 5999 c-19 -7 -23 -15 -20 -41 3 -29 7 -33 36 -36 40 -4 62 12
62 43 0 28 -43 47 -78 34z"/>
<path d="M3503 5877 c-18 -21 -18 -25 -5 -45 26 -39 110 -16 95 26 -15 44 -59
54 -90 19z"/>
<path d="M3648 5889 c-11 -6 -18 -22 -18 -39 0 -23 5 -31 24 -36 39 -9 60 -1
71 30 8 23 6 30 -10 42 -22 16 -43 17 -67 3z"/>
<path d="M3781 5876 c-7 -8 -11 -25 -9 -38 2 -18 10 -24 36 -26 42 -4 64 14
60 47 -3 22 -9 26 -39 29 -23 2 -40 -2 -48 -12z"/>
<path d="M3914 5866 c-10 -26 4 -48 28 -44 17 2 23 10 23 28 0 18 -6 26 -23
28 -13 2 -25 -3 -28 -12z"/>
<path d="M3732 5782 c-30 -5 -45 -34 -32 -67 9 -23 15 -26 46 -23 43 3 60 24
51 60 -7 27 -27 36 -65 30z"/>
<path d="M3853 5768 c-6 -7 -12 -23 -15 -35 -8 -30 48 -61 79 -44 22 11 39 62
28 81 -9 14 -81 13 -92 -2z"/>
<path d="M3636 5654 c-19 -19 -20 -25 -3 -55 21 -40 87 -20 87 27 0 25 -3 28
-42 38 -18 4 -32 1 -42 -10z"/>
<path d="M3782 5658 c-31 -31 -7 -81 38 -81 17 0 36 6 41 14 13 20 11 55 -3
66 -20 14 -62 15 -76 1z"/>
<path d="M3911 5632 c-12 -22 3 -42 32 -42 14 0 18 6 15 27 -4 33 -32 42 -47
15z"/>
<path d="M3693 5544 c-7 -19 12 -63 32 -70 51 -20 96 35 55 68 -28 22 -78 24
-87 2z"/>
<path d="M3850 5541 c-25 -47 2 -80 56 -69 26 5 40 54 21 73 -22 21 -64 19
-77 -4z"/>
<path d="M3775 5438 c-22 -32 -19 -57 10 -70 19 -8 31 -8 51 0 37 18 30 61
-13 79 -29 12 -33 11 -48 -9z"/>
<path d="M3916 5434 c-29 -28 -12 -64 30 -64 29 0 35 18 17 53 -16 31 -25 33
-47 11z"/>
<path d="M3841 5318 c-9 -25 2 -56 24 -64 18 -7 52 12 66 38 10 18 8 24 -7 35
-29 21 -73 17 -83 -9z"/>
<path d="M3904 5223 c-10 -10 -13 -24 -9 -37 4 -12 7 -27 7 -33 1 -7 12 -13
25 -13 16 0 22 -4 18 -12 -4 -7 3 -2 14 12 30 36 24 81 -12 91 -19 5 -32 3
-43 -8z"/>
<path d="M3977 5112 c-27 -6 -20 -77 8 -77 27 0 44 48 24 67 -8 7 -22 12 -32
10z"/>
<path d="M3898 4999 c-23 -13 -23 -51 0 -72 15 -13 22 -14 42 -4 31 16 39 56
14 74 -21 15 -33 16 -56 2z"/>
<path d="M3942 4888 c-17 -17 -15 -42 6 -61 21 -19 48 -22 57 -7 4 6 10 8 15
5 12 -7 2 46 -12 62 -13 16 -50 17 -66 1z"/>
<path d="M4013 4773 c-18 -6 -16 -58 2 -73 20 -16 60 8 62 38 2 21 -39 43 -64
35z"/>
<path d="M4025 4660 c-3 -6 1 -13 10 -16 19 -8 30 0 20 15 -8 14 -22 14 -30 1z"/>
<path d="M4036 4449 c-28 -41 12 -86 62 -68 26 10 28 35 6 67 -19 28 -48 28
-68 1z"/>
<path d="M8867 4452 c-32 -36 -11 -72 42 -72 18 0 21 6 21 39 0 26 -5 41 -16
45 -24 9 -29 8 -47 -12z"/>
<path d="M4087 4326 c-7 -19 17 -51 31 -42 17 10 15 43 -4 50 -21 8 -21 8 -27
-8z"/>
<path d="M4024 4212 c1 -44 24 -60 63 -46 20 7 29 17 31 38 4 35 -11 47 -59
44 -34 -2 -36 -3 -35 -36z"/>
<path d="M8864 4228 c-28 -22 -30 -40 -9 -62 21 -21 19 -26 -15 -38 -35 -12
-54 -40 -45 -67 8 -26 27 -32 56 -17 19 9 25 20 27 59 2 26 7 45 12 42 13 -8
38 34 42 69 2 25 -1 30 -20 31 -13 1 -34 -7 -48 -17z"/>
<path d="M4108 4129 c-19 -11 -23 -45 -9 -67 5 -8 21 -12 37 -10 39 4 58 53
29 74 -22 16 -34 17 -57 3z"/>
<path d="M4037 4022 c-19 -21 -23 -67 -6 -77 21 -13 59 5 65 32 13 49 -28 80
-59 45z"/>
<path d="M4150 4011 c-11 -21 0 -58 23 -72 32 -21 72 35 50 70 -16 25 -60 26
-73 2z"/>
<path d="M8766 4011 c-24 -27 -18 -75 10 -79 28 -4 46 42 31 76 -12 27 -19 28
-41 3z"/>
<path d="M8852 3996 c-9 -20 -8 -29 7 -47 32 -40 95 5 71 51 -16 30 -64 27
-78 -4z"/>
<path d="M4091 3907 c-21 -39 -11 -71 22 -75 29 -4 67 21 67 43 0 20 -24 44
-50 50 -21 5 -29 1 -39 -18z"/>
<path d="M8794 3913 c3 -4 -1 -14 -9 -23 -14 -15 -14 -19 4 -41 16 -21 22 -22
45 -11 28 12 37 54 14 68 -14 9 -62 15 -54 7z"/>
<path d="M4136 3782 c-16 -30 -11 -45 17 -55 26 -10 57 10 57 36 0 51 -51 63
-74 19z"/>
<path d="M8832 3798 c-21 -21 -14 -64 11 -75 47 -22 99 36 64 72 -19 18 -58
20 -75 3z"/>
<path d="M4082 3694 c-33 -23 -30 -69 6 -82 24 -8 31 -6 45 11 20 25 22 58 5
75 -16 16 -29 15 -56 -4z"/>
<path d="M8775 3680 c-16 -31 -7 -70 15 -70 12 0 50 37 50 48 0 9 -38 52 -45
52 -3 0 -11 -14 -20 -30z"/>
<path d="M4190 3685 c-20 -24 3 -67 33 -63 18 2 22 9 22 38 0 28 -4 36 -21 38
-11 2 -27 -4 -34 -13z"/>
<path d="M8821 3576 c-19 -20 -21 -28 -12 -45 7 -11 23 -24 38 -27 33 -9 67
27 57 60 -8 26 -5 23 -34 31 -19 4 -31 0 -49 -19z"/>
<path d="M4139 3566 c-14 -31 -7 -52 21 -59 31 -8 62 25 51 55 -12 34 -57 37
-72 4z"/>
<path d="M4103 3482 c-38 -4 -57 -24 -48 -52 8 -26 41 -43 70 -36 16 4 24 15
28 38 6 40 -8 55 -50 50z"/>
<path d="M8779 3483 c-23 -6 -38 -44 -28 -70 9 -25 38 -30 70 -13 24 13 27 75
3 84 -16 6 -19 6 -45 -1z"/>
<path d="M4190 3451 c0 -5 -3 -16 -6 -24 -7 -20 22 -47 51 -47 26 0 40 28 31
58 -6 19 -76 31 -76 13z"/>
<path d="M4139 3352 c-10 -14 -19 -33 -19 -43 0 -22 33 -41 63 -37 19 3 22 9
20 43 -1 22 -3 45 -4 50 -4 19 -41 11 -60 -13z"/>
<path d="M8712 3364 c-27 -18 -29 -55 -4 -77 15 -14 21 -15 35 -4 26 19 25 97
-1 97 -4 0 -18 -7 -30 -16z"/>
<path d="M8828 3369 c-21 -12 -24 -64 -5 -76 15 -9 58 -4 75 9 15 13 7 48 -16
66 -19 14 -31 15 -54 1z"/>
<path d="M4248 3334 c-14 -30 -1 -57 29 -62 27 -4 52 50 33 73 -19 23 -49 18
-62 -11z"/>
<path d="M4063 3249 c-7 -7 -13 -27 -13 -45 0 -26 5 -34 29 -42 50 -18 91 31
63 75 -12 19 -65 26 -79 12z"/>
<path d="M8747 3253 c-12 -12 -7 -60 8 -73 32 -27 91 33 64 66 -12 14 -60 19
-72 7z"/>
<path d="M4202 3238 c-15 -15 -16 -60 0 -76 16 -16 53 -15 67 2 7 8 11 30 9
48 -3 29 -7 33 -33 36 -17 2 -36 -3 -43 -10z"/>
<path d="M8821 3153 c-20 -17 -21 -19 -6 -40 19 -28 36 -29 65 -5 17 13 21 24
16 40 -9 27 -45 29 -75 5z"/>
<path d="M4140 3120 c-23 -23 -24 -33 -10 -61 22 -39 90 -16 90 31 0 46 -46
64 -80 30z"/>
<path d="M4252 3090 c-12 -34 -1 -45 35 -38 28 5 25 62 -3 66 -16 2 -24 -4
-32 -28z"/>
<path d="M8746 3098 c-19 -26 -20 -51 -6 -79 13 -23 52 -25 70 -4 14 17 24 79
11 71 -4 -3 -16 3 -26 14 -23 25 -30 25 -49 -2z"/>
<path d="M4070 3016 c-36 -36 15 -110 59 -86 25 13 37 55 22 74 -15 18 -67 26
-81 12z"/>
<path d="M4204 3010 c-16 -16 -4 -69 18 -81 27 -14 57 -2 69 28 16 42 3 63
-40 63 -20 0 -42 -5 -47 -10z"/>
<path d="M8680 2983 c-15 -11 -20 -23 -18 -46 3 -29 6 -32 38 -32 26 0 37 6
46 24 23 45 -24 83 -66 54z"/>
<path d="M8806 2971 c-14 -15 -15 -24 -7 -39 6 -11 7 -23 3 -27 -4 -5 -2 -5 5
-1 6 3 14 2 17 -2 11 -18 57 0 67 26 19 50 -48 84 -85 43z"/>
<path d="M4297 2912 c-28 -6 -41 -50 -22 -78 27 -42 75 -25 75 26 0 31 -27 58
-53 52z"/>
<path d="M4137 2893 c-21 -21 12 -88 43 -88 18 0 50 33 50 51 0 32 -13 44 -49
44 -21 0 -41 -3 -44 -7z"/>
<path d="M8746 2871 c-21 -23 -20 -44 2 -64 23 -21 46 -22 66 -2 27 27 3 74
-41 81 -6 1 -19 -6 -27 -15z"/>
<path d="M4220 2775 c-16 -19 -4 -72 20 -85 13 -7 24 -4 44 11 32 25 33 53 4
73 -28 20 -52 20 -68 1z"/>
<path d="M8704 2772 c-6 -4 -14 -16 -18 -28 -17 -56 37 -75 68 -24 14 25 15
34 6 45 -13 16 -38 19 -56 7z"/>
<path d="M8654 2681 c4 -6 2 -11 -3 -11 -6 0 -11 -8 -11 -17 0 -10 -7 -31 -15
-47 -16 -31 -20 -60 -7 -54 14 5 82 85 82 96 0 5 -12 17 -26 27 -15 9 -23 12
-20 6z"/>
<path d="M8755 2660 c-22 -23 -25 -32 -16 -48 6 -11 8 -22 4 -25 -6 -6 38 0
69 9 20 6 32 52 18 69 -21 25 -48 23 -75 -5z"/>
<path d="M4290 2651 c-15 -29 -12 -49 10 -71 49 -49 97 3 62 68 -16 28 -57 29
-72 3z"/>
<path d="M8694 2555 c-19 -19 -22 -30 -18 -54 6 -28 4 -31 -19 -31 -51 0 -59
-64 -9 -77 47 -11 70 27 48 79 -7 15 -3 16 27 11 32 -5 35 -3 46 27 12 37 4
54 -30 63 -14 4 -29 -2 -45 -18z"/>
<path d="M4373 2513 c-18 -6 -16 -42 2 -50 19 -7 24 -2 30 25 4 21 -11 32 -32
25z"/>
<path d="M4295 2423 c-13 -30 -13 -38 -1 -55 15 -20 34 -24 64 -14 17 6 22 15
22 41 0 34 -13 45 -55 45 -12 0 -26 -8 -30 -17z"/>
<path d="M8605 2372 c-53 -11 -76 -76 -31 -88 43 -10 61 -1 64 33 4 41 -7 60
-33 55z"/>
<path d="M4385 2323 c-28 -28 -15 -83 20 -83 24 0 55 29 55 51 -1 38 -49 59
-75 32z"/>
<path d="M8542 2272 c-49 -8 -71 -94 -25 -100 30 -4 64 35 61 71 -3 33 -5 34
-36 29z"/>
<path d="M4456 2208 c-18 -26 -21 -54 -6 -63 6 -4 7 -11 4 -17 -4 -6 -2 -8 4
-4 6 3 15 -1 19 -9 5 -8 19 -17 32 -20 27 -5 39 20 23 46 -7 10 -12 32 -12 48
0 26 -14 41 -40 41 -5 0 -16 -10 -24 -22z"/>
<path d="M8460 2125 c0 -27 1 -28 24 -19 24 9 20 44 -4 44 -15 0 -20 -7 -20
-25z"/>
<path d="M4440 2089 c0 -5 -4 -8 -8 -5 -5 3 -9 -16 -11 -42 -2 -47 -1 -48 30
-50 17 -1 37 2 44 8 15 12 8 59 -13 83 -17 19 -42 23 -42 6z"/>
<path d="M8486 2061 c-25 -27 -26 -54 -4 -69 40 -29 87 18 65 66 -13 27 -38
28 -61 3z"/>
<path d="M4534 2035 c-8 -20 2 -32 29 -37 20 -4 23 -1 19 18 -5 26 -41 39 -48
19z"/>
<path d="M4492 1942 c-20 -58 26 -83 67 -36 31 36 24 58 -20 62 -33 3 -38 0
-47 -26z"/>
<path d="M8412 1958 c-26 -26 -8 -88 25 -88 7 0 21 16 30 35 13 28 14 37 3 50
-15 18 -41 20 -58 3z"/>
<path d="M4587 1881 c-3 -12 3 -27 15 -38 17 -15 21 -15 29 -3 15 24 6 55 -17
58 -14 2 -23 -3 -27 -17z"/>
<path d="M8344 1835 c-13 -19 -15 -32 -8 -43 22 -35 70 -9 69 38 0 37 -38 39
-61 5z"/>
<path d="M4515 1806 c-8 -13 -13 -31 -9 -40 15 -38 104 -27 104 13 0 49 -68
69 -95 27z"/>
<path d="M4580 1710 c-25 -25 -25 -45 0 -63 31 -21 63 -14 79 18 13 26 12 30
-9 47 -29 23 -45 23 -70 -2z"/>
<path d="M8344 1686 c-3 -8 -4 -25 -2 -38 2 -19 10 -24 40 -26 29 -3 38 1 43
17 10 32 -11 61 -46 61 -16 0 -32 -6 -35 -14z"/>
<path d="M4512 1598 c-7 -7 -12 -24 -12 -39 0 -64 78 -64 91 1 5 23 3 37 -4
42 -18 12 -62 9 -75 -4z"/>
<path d="M4641 1588 c-11 -30 3 -56 31 -60 23 -3 58 25 58 47 0 38 -75 49 -89
13z"/>
<path d="M8288 1585 c-16 -35 1 -81 27 -77 11 2 22 8 23 13 2 5 8 7 13 3 5 -3
8 -2 7 3 -1 4 2 19 6 32 16 48 -55 71 -76 26z"/>
<path d="M4740 1513 c-33 -13 -40 -52 -14 -77 25 -25 50 -19 64 14 11 26 10
33 -5 50 -19 21 -21 22 -45 13z"/>
<path d="M4587 1488 c-18 -10 -17 -40 2 -76 17 -32 40 -34 67 -7 21 21 23 28
13 47 -20 38 -53 53 -82 36z"/>
<path d="M8237 1484 c-33 -18 -48 -44 -41 -72 7 -24 27 -34 49 -25 17 6 70
103 58 104 -5 0 -15 2 -24 4 -8 1 -27 -4 -42 -11z"/>
<path d="M8335 1445 c0 -34 4 -41 28 -49 35 -13 58 0 68 36 9 36 0 45 -51 49
l-46 4 1 -40z"/>
<path d="M4512 1353 c-5 -10 -6 -29 -3 -43 5 -19 14 -26 37 -28 37 -4 57 17
52 55 -3 24 -8 28 -40 31 -27 2 -39 -1 -46 -15z"/>
<path d="M4668 1359 c-27 -15 -23 -57 6 -65 37 -9 59 -1 73 26 8 17 9 28 1 37
-12 15 -56 17 -80 2z"/>
<path d="M8145 1347 c-17 -25 -20 -63 -4 -72 23 -15 58 5 67 38 10 36 5 46
-26 52 -14 2 -27 -4 -37 -18z"/>
<path d="M8278 1359 c-11 -6 -18 -22 -18 -40 0 -23 6 -32 26 -40 51 -19 99 42
62 79 -15 15 -47 15 -70 1z"/>
<path d="M4802 1293 c5 -26 38 -29 38 -4 0 15 -6 21 -21 21 -14 0 -19 -5 -17
-17z"/>
<path d="M4597 1255 c-20 -14 -22 -60 -5 -79 14 -15 53 -10 68 10 6 7 10 25 8
40 -4 33 -44 49 -71 29z"/>
<path d="M4735 1248 c-2 -7 -5 -20 -8 -28 -8 -26 12 -50 41 -50 33 0 52 16 52
45 0 12 -5 26 -12 33 -16 16 -68 15 -73 0z"/>
<path d="M8206 1247 c-28 -21 -18 -69 18 -82 24 -8 31 -6 47 14 23 28 24 45 3
65 -19 19 -44 20 -68 3z"/>
<path d="M8346 1244 c-23 -23 -20 -51 9 -70 23 -15 27 -15 50 0 27 18 33 54
13 74 -17 17 -54 15 -72 -4z"/>
<path d="M8077 1229 c-17 -23 -6 -63 19 -73 18 -7 56 43 52 68 -4 30 -51 34
-71 5z"/>
<path d="M4850 1203 c0 -37 10 -49 43 -55 27 -5 32 3 27 42 -2 19 -29 40 -52
40 -13 0 -18 -8 -18 -27z"/>
<path d="M8015 1120 c-8 -25 1 -40 24 -40 24 0 45 25 37 45 -8 23 -53 19 -61
-5z"/>
<path d="M1913 9597 c-26 -11 -30 -44 -10 -71 27 -37 79 12 61 57 -8 21 -25
26 -51 14z"/>
</g>
</svg>
