<?xml version="1.0" standalone="no"?>
<!DOCTYPE svg PUBLIC "-//W3C//DTD SVG 20010904//EN"
 "http://www.w3.org/TR/2001/REC-SVG-20010904/DTD/svg10.dtd">
<svg version="1.0" xmlns="http://www.w3.org/2000/svg"
 width="391.000000pt" height="461.000000pt" viewBox="0 0 391.000000 461.000000"
 preserveAspectRatio="xMidYMid meet">
<metadata>
Created by potrace 1.16, written by Peter Selinger 2001-2019
</metadata>
<g transform="translate(0.000000,461.000000) scale(0.100000,-0.100000)"
fill="#ffffff" stroke="none">
<path d="M2307 4300 c-55 -14 -128 -54 -160 -88 l-29 -30 -55 15 c-211 55
-374 -172 -275 -382 26 -54 127 -165 151 -165 9 0 -21 -185 -31 -195 -3 -3
-18 13 -33 35 -40 58 -142 149 -190 171 -175 80 -249 -70 -275 -559 -6 -106
-15 -225 -20 -265 -5 -39 -10 -106 -10 -148 l0 -77 -37 -6 c-78 -14 -93 -18
-93 -26 0 -5 29 -7 65 -3 l65 6 0 -71 0 -70 -50 -12 c-67 -16 -78 -35 -15 -26
26 4 53 10 59 12 8 3 17 -13 24 -43 6 -26 14 -58 18 -70 5 -19 0 -23 -38 -34
-47 -13 -65 -25 -55 -35 3 -3 27 1 53 10 60 20 61 20 69 -4 4 -11 22 -41 41
-66 33 -43 35 -48 26 -90 -11 -53 -1 -106 27 -144 l19 -27 -77 -232 c-43 -127
-81 -234 -84 -237 -2 -3 -54 0 -113 7 -132 14 -383 6 -509 -16 -161 -28 -258
-68 -314 -129 -50 -54 -19 -181 67 -269 111 -115 317 -172 590 -165 l140 3 12
-40 c16 -55 34 -81 80 -114 l40 -29 -30 -36 c-55 -70 -64 -158 -22 -215 48
-66 177 -98 328 -80 87 10 132 23 210 61 l49 25 70 -18 c110 -29 296 -44 395
-32 l85 10 29 -29 c68 -67 177 -94 341 -85 177 11 274 56 318 149 14 29 29 76
32 103 3 28 13 80 22 118 14 61 20 71 63 105 233 186 338 522 285 917 -23 169
-20 228 15 310 43 100 47 134 20 190 -28 59 -87 95 -154 95 -80 0 -136 -43
-180 -140 -35 -77 -41 -165 -22 -360 17 -185 9 -295 -26 -364 -28 -54 -34 -37
-42 111 -10 188 -56 325 -153 458 -35 47 -37 54 -37 128 -1 65 1 76 14 71 25
-9 28 -9 29 1 0 6 -14 15 -32 21 -17 6 -32 15 -31 20 0 5 13 35 28 67 30 62
25 60 94 41 40 -11 23 15 -18 27 -22 7 -40 17 -39 23 2 36 28 131 35 130 5 -1
24 -5 42 -9 46 -9 41 12 -6 24 l-37 10 -3 327 c-2 270 -6 345 -22 438 -11 61
-22 120 -25 131 -5 17 4 25 55 48 64 30 112 82 137 150 40 110 -20 246 -128
284 -27 10 -49 24 -49 31 0 26 -50 110 -82 137 -57 48 -105 65 -192 65 l-78 0
-40 45 c-75 85 -223 132 -331 105z m159 -34 c64 -17 137 -66 172 -115 l27 -37
76 4 c46 3 91 0 114 -8 57 -19 119 -86 142 -155 15 -47 24 -59 44 -62 31 -4
89 -32 89 -42 0 -4 11 -21 25 -37 14 -16 24 -37 21 -46 -2 -10 1 -18 6 -18 14
0 4 -103 -10 -108 -6 -2 -8 -10 -5 -18 3 -9 -1 -14 -13 -14 -16 0 -17 -2 -4
-10 14 -9 7 -14 -13 -11 -5 1 -6 -2 -3 -7 7 -12 -39 -53 -86 -77 -36 -19 -38
-19 -57 0 -12 10 -21 24 -21 32 0 7 -11 18 -25 23 -14 5 -25 13 -25 18 0 15
-79 13 -111 -3 -17 -9 -33 -14 -36 -12 -6 7 29 47 41 47 5 0 16 7 25 15 9 8
30 26 46 40 48 39 7 29 -55 -13 -30 -21 -68 -59 -85 -85 -16 -25 -35 -46 -41
-46 -6 -1 -17 -8 -24 -16 -7 -8 -16 -13 -20 -10 -4 2 -13 -7 -20 -20 -7 -14
-19 -25 -27 -25 -7 0 -13 -6 -13 -13 0 -7 -13 -25 -28 -40 -15 -15 -53 -61
-83 -102 -42 -59 -58 -74 -74 -70 -84 19 -220 36 -305 39 l-102 2 -34 64 c-40
75 -40 86 -14 222 l20 103 -28 20 c-112 81 -153 147 -160 251 -4 65 -2 80 23
129 47 97 139 138 247 110 l61 -15 42 39 c88 81 189 107 301 77z m-788 -636
c87 -39 212 -188 283 -337 l30 -63 102 0 c89 0 185 -11 318 -35 35 -7 36 -6
101 82 111 149 236 254 330 277 44 10 94 -16 117 -63 49 -95 63 -197 70 -501
3 -157 5 -319 3 -360 l-3 -76 -109 1 c-74 0 -113 -4 -121 -12 -10 -11 9 -13
99 -13 127 0 129 -1 118 -73 -11 -71 -11 -71 -121 -52 -53 9 -99 14 -102 11
-13 -13 14 -24 90 -35 46 -7 89 -16 96 -20 10 -6 5 -23 -18 -69 l-31 -62 -82
30 c-47 17 -86 26 -91 21 -5 -5 22 -20 65 -37 40 -15 75 -29 77 -31 12 -9 -69
-76 -128 -107 -135 -71 -337 -108 -591 -108 -389 -1 -601 70 -699 234 l-23 38
29 10 c65 24 83 33 83 41 0 13 -16 11 -57 -6 -19 -8 -41 -15 -49 -15 -15 0
-51 106 -40 117 4 4 30 10 58 13 30 3 53 11 56 18 3 11 -7 12 -53 7 -69 -9
-75 -3 -75 74 l0 54 43 -6 c23 -3 53 -9 66 -13 18 -5 23 -4 19 7 -3 8 -32 20
-66 27 l-62 14 1 61 c0 34 4 96 9 137 5 41 14 165 20 275 16 319 49 482 110
538 36 32 69 34 128 7z m1850 -1390 c20 -13 41 -38 53 -66 24 -52 19 -86 -26
-194 -25 -59 -27 -72 -22 -160 3 -52 11 -138 17 -190 15 -120 7 -282 -20 -403
-32 -140 -116 -303 -197 -384 -35 -35 -68 -63 -72 -63 -4 0 -2 24 6 52 39 144
23 322 -38 447 -26 51 -30 67 -20 80 57 78 76 199 58 379 -27 284 -11 391 73
474 45 45 50 48 101 48 37 0 65 -7 87 -20z m-506 -305 c82 -118 114 -227 128
-434 9 -137 12 -149 49 -230 79 -172 80 -301 6 -545 -13 -45 -29 -114 -35
-155 -14 -101 -39 -154 -88 -186 -33 -22 -118 -55 -142 -55 -3 0 -6 31 -6 70
0 38 -5 75 -11 81 -8 8 -11 -10 -10 -63 0 -41 -3 -80 -7 -86 -4 -8 -36 -12
-83 -12 l-76 0 5 91 c4 67 3 88 -6 79 -6 -6 -13 -47 -15 -90 -1 -44 -7 -80
-12 -80 -27 0 -115 24 -121 34 -11 16 -10 100 2 130 5 15 6 26 0 26 -16 0 -24
-23 -30 -90 l-5 -65 -31 32 c-54 56 -52 141 4 226 25 38 26 46 27 186 1 127 5
154 25 205 29 76 82 136 120 136 76 0 215 64 274 126 35 37 68 101 64 122 -3
12 -15 -1 -39 -38 -65 -100 -137 -147 -269 -176 -106 -22 -292 -13 -310 16 -3
5 -26 -11 -51 -36 -47 -49 -105 -84 -138 -84 -14 0 -19 5 -15 15 8 19 -5 19
-30 0 -22 -16 -103 -20 -125 -6 -10 7 -5 13 23 26 20 10 36 21 36 26 0 12 -5
12 -61 -8 -45 -16 -50 -16 -83 -1 -19 10 -42 31 -51 47 l-15 30 37 11 c48 13
65 26 92 70 24 39 28 102 8 119 -8 6 -33 8 -65 4 -59 -7 -64 1 -28 44 59 70
179 107 376 118 177 9 320 46 320 83 0 10 -5 12 -17 7 -83 -36 -142 -48 -303
-61 -190 -14 -227 -22 -310 -64 -61 -31 -103 -71 -119 -112 -6 -17 -20 -28
-39 -33 -16 -3 -39 -17 -51 -30 -11 -14 -29 -25 -40 -25 -10 0 -31 -2 -47 -5
-36 -7 -74 23 -80 62 -2 16 -7 69 -10 118 -6 86 -18 125 -28 94 -8 -24 -11
-119 -4 -119 4 0 6 -12 6 -28 -1 -15 2 -37 6 -50 9 -27 4 -27 -65 -3 -30 10
-71 21 -91 25 -24 4 -38 12 -38 22 0 8 15 54 33 102 19 48 53 147 76 220 23
72 43 132 44 132 1 0 35 -11 74 -25 84 -28 266 -65 322 -65 l38 0 1 -46 c4
-201 292 -204 305 -3 3 41 5 44 32 47 222 20 466 96 569 177 17 14 36 23 41
22 6 -2 31 -34 57 -72z m-802 -40 c34 -18 70 -61 70 -85 0 -21 -37 -30 -120
-30 -82 0 -120 9 -120 29 0 40 72 101 118 101 13 0 36 -7 52 -15z m-87 -175
c3 -14 14 -20 32 -20 18 0 29 6 32 20 4 16 14 20 49 20 48 0 53 -8 28 -46 -46
-70 -160 -71 -208 -2 -26 36 -20 48 23 48 30 0 40 -4 44 -20z m-698 -315 c349
-84 370 -219 48 -301 -343 -87 -879 -37 -999 93 -82 89 58 177 351 223 99 15
518 5 600 -15z m464 -71 c12 -15 21 -35 21 -46 0 -28 -18 -58 -36 -58 -14 0
-14 2 0 16 9 8 16 25 16 36 0 25 -27 58 -47 58 -8 0 -11 5 -8 10 11 17 33 11
54 -16z m-31 -26 c26 -26 14 -46 -30 -53 -24 -3 -55 -8 -69 -11 -22 -4 -28 -1
-33 22 -4 14 -6 28 -4 30 3 3 90 20 114 23 5 0 15 -4 22 -11z m-7 -95 c21 -10
40 -27 43 -39 7 -26 70 -84 92 -84 8 0 28 -10 45 -22 24 -18 47 -24 111 -27
102 -4 144 9 214 65 l55 45 106 -12 106 -12 -27 -24 c-15 -12 -25 -23 -22 -23
3 0 -4 -21 -16 -47 -23 -53 -30 -84 -28 -127 0 -16 -5 -33 -12 -38 -7 -4 -8
-8 -2 -8 14 0 9 -83 -5 -88 -7 -2 -5 -9 4 -19 18 -18 20 -63 3 -63 -10 0 -9
-3 1 -9 10 -7 5 -22 -26 -74 -35 -58 -39 -71 -36 -120 l3 -54 -37 -7 c-115
-19 -368 2 -472 39 -39 13 -42 13 -118 -25 -43 -22 -95 -42 -115 -46 l-38 -6
6 31 c4 16 3 52 -2 78 l-9 48 -5 -80 -5 -80 -67 -3 -67 -3 -7 36 c-3 19 -3 56
1 81 4 32 3 44 -4 39 -6 -3 -11 -39 -11 -82 0 -61 -3 -74 -14 -70 -8 3 -31 9
-51 13 -19 3 -40 15 -45 25 -13 23 -13 80 0 113 6 16 6 26 0 26 -13 0 -33 -78
-27 -107 6 -32 -10 -29 -28 7 -17 33 -20 96 -6 133 16 40 70 95 101 102 38 8
80 49 80 78 0 13 11 34 24 47 32 29 41 73 25 111 -12 29 -10 32 45 84 54 51
106 138 106 177 0 16 38 36 74 37 11 1 36 -7 57 -16z m-303 -311 c5 -52 -20
-82 -69 -82 -22 0 -49 5 -61 11 -27 14 -36 2 -12 -16 10 -8 36 -15 57 -15 29
0 37 -4 37 -19 0 -61 -88 -85 -150 -41 -34 24 -69 89 -70 127 0 18 8 22 52 28
28 4 74 16 102 26 28 10 65 17 81 16 26 -2 30 -6 33 -35z"/>
<path d="M2298 3894 c-5 -4 -8 -57 -8 -117 l0 -110 -61 7 c-34 3 -79 6 -99 6
-35 0 -38 2 -49 43 -15 49 -72 157 -83 157 -12 0 -11 -1 28 -84 20 -42 37 -90
39 -106 l2 -31 99 -5 c133 -6 258 -28 382 -67 69 -21 102 -36 103 -47 0 -8 3
-10 5 -4 3 6 16 9 29 6 19 -3 24 -1 20 10 -3 7 -15 15 -28 15 -12 1 -23 7 -25
13 -2 5 -11 10 -19 10 -36 0 -93 24 -93 39 0 9 21 54 45 100 25 46 44 89 42
94 -4 13 -71 -93 -94 -150 -20 -49 -28 -51 -113 -28 -30 8 -68 15 -84 15 l-29
0 5 93 c5 95 -1 155 -14 141z"/>
<path d="M1576 3551 c-54 -59 -84 -376 -46 -477 13 -33 40 -30 94 11 55 41
110 70 154 80 18 4 40 17 48 30 14 21 13 29 -15 102 -40 102 -91 188 -141 236
-44 41 -69 46 -94 18z"/>
<path d="M2805 3463 c-41 -21 -70 -49 -120 -113 -54 -71 -105 -161 -105 -187
0 -27 13 -37 83 -63 32 -12 85 -44 119 -71 102 -81 130 -64 148 91 16 146 0
282 -41 334 -23 30 -41 32 -84 9z"/>
<path d="M1655 2828 c-42 -15 -105 -56 -105 -68 0 -13 15 -12 80 5 30 8 61 15
68 15 14 0 122 -98 122 -111 0 -4 -10 -9 -22 -11 -27 -4 -52 -50 -43 -78 4
-11 17 -28 31 -36 36 -24 81 -3 90 42 l6 33 36 -20 c44 -23 78 -25 86 -4 9 26
-5 46 -38 52 -21 4 -55 30 -106 82 -112 115 -133 125 -205 99z"/>
<path d="M2504 2820 c-12 -5 -50 -35 -85 -67 -81 -74 -116 -99 -159 -110 -42
-11 -59 -35 -40 -58 15 -18 54 -13 103 11 27 14 27 14 27 -21 0 -69 87 -86
118 -23 11 23 10 32 -2 56 -8 16 -25 32 -37 35 -19 5 -15 12 41 61 72 64 92
68 186 36 32 -12 68 -19 79 -18 19 3 18 4 -5 26 -37 34 -139 82 -174 81 -17 0
-41 -4 -52 -9z"/>
<path d="M2013 2500 c-13 -5 -23 -16 -23 -24 0 -20 39 -86 51 -86 5 0 9 -22 9
-50 0 -40 -4 -51 -21 -60 -31 -17 -104 -14 -134 6 -38 25 -56 4 -20 -24 41
-32 104 -38 159 -14 38 17 52 19 83 10 54 -15 146 -4 190 22 23 14 39 18 41
11 6 -19 32 -12 32 9 0 26 -34 60 -59 60 -24 0 -38 -19 -22 -30 19 -11 -8 -27
-64 -40 -51 -11 -121 -5 -142 12 -24 20 -14 68 23 114 22 26 34 50 30 59 -11
30 -85 44 -133 25z"/>
<path d="M822 1394 c-351 -51 -438 -166 -189 -251 121 -40 244 -56 447 -56
206 -1 338 16 458 57 84 28 115 46 138 81 15 23 15 27 0 50 -33 50 -180 103
-345 124 -113 15 -394 12 -509 -5z"/>
<path d="M415 2401 c-63 -38 -122 -139 -113 -192 5 -27 9 -20 27 47 14 54 62
118 100 135 17 8 31 17 31 21 0 12 -13 9 -45 -11z"/>
<path d="M515 2356 c-45 -20 -94 -64 -115 -105 -24 -48 -36 -111 -21 -111 6 0
11 10 11 23 1 38 35 101 78 140 23 20 48 37 55 37 7 0 22 7 33 15 25 19 1 20
-41 1z"/>
<path d="M622 2274 c-29 -7 -66 -23 -82 -35 -35 -26 -70 -104 -70 -155 0 -184
356 -404 682 -421 122 -7 180 5 222 44 32 29 66 103 66 141 0 52 -45 125 -118
194 -120 112 -278 192 -457 229 -106 22 -170 23 -243 3z m274 -35 c267 -70
513 -252 517 -384 2 -72 -64 -108 -198 -107 -196 2 -452 100 -593 227 -54 49
-102 131 -102 176 0 37 36 76 85 93 61 22 197 20 291 -5z m-376 -169 c80 -157
345 -304 616 -340 89 -12 169 -7 229 16 18 7 18 5 -3 -18 -104 -115 -562 -6
-765 181 -60 56 -107 134 -107 179 0 32 7 28 30 -18z"/>
<path d="M1295 1593 c-32 -8 -72 -11 -110 -8 -48 5 -56 3 -41 -6 40 -25 216
-7 216 22 0 11 0 11 -65 -8z"/>
<path d="M1110 1540 c0 -12 56 -29 115 -36 35 -4 62 -1 89 10 43 18 45 33 2
16 -38 -14 -104 -13 -159 4 -26 8 -47 10 -47 6z"/>
</g>
</svg>
