<?xml version="1.0" standalone="no"?>
<!DOCTYPE svg PUBLIC "-//W3C//DTD SVG 20010904//EN"
 "http://www.w3.org/TR/2001/REC-SVG-20010904/DTD/svg10.dtd">
<svg version="1.0" xmlns="http://www.w3.org/2000/svg"
 width="2056.000000pt" height="2376.000000pt" viewBox="0 0 2056.000000 2376.000000"
 preserveAspectRatio="xMidYMid meet">
<metadata>
Created by potrace 1.16, written by Peter Selinger 2001-2019
</metadata>
<g transform="translate(0.000000,2376.000000) scale(0.100000,-0.100000)"
fill="#ffffff" stroke="none">
<path d="M10352 19833 c-12 -2 -33 -19 -47 -37 -25 -32 -25 -36 -25 -215 0
-207 6 -231 65 -252 21 -8 35 -20 35 -30 0 -9 8 -20 17 -23 13 -5 14 -9 3 -19
-10 -9 -13 -9 -17 1 -6 16 -63 16 -63 -1 0 -25 25 -37 77 -37 41 0 54 4 63 19
15 30 12 40 -15 53 -32 15 -32 21 4 35 43 16 61 50 63 124 l3 64 -37 3 c-38 3
-38 3 -38 -35 0 -55 -10 -82 -32 -88 -42 -14 -48 7 -48 180 0 130 3 165 15
175 28 23 49 8 59 -43 9 -47 10 -47 49 -47 l39 0 -7 53 c-8 59 -15 75 -42 99
-20 18 -83 29 -121 21z"/>
<path d="M9992 19823 l-33 -4 7 -242 c3 -133 7 -247 9 -253 2 -6 19 -8 40 -6
l37 4 -6 172 -6 171 40 -135 c22 -74 45 -152 51 -172 9 -37 11 -38 54 -38 l43
0 -4 193 c-3 105 -7 220 -10 255 l-6 62 -33 0 -34 0 -3 -127 -3 -128 -35 125
c-38 135 -36 132 -108 123z"/>
<path d="M10587 19583 c-26 -136 -47 -251 -47 -255 0 -5 17 -8 39 -8 l38 0 7
50 7 50 43 0 43 0 7 -49 c6 -47 8 -49 42 -53 22 -3 38 0 41 8 2 6 -11 121 -29
255 l-33 244 -55 3 -56 3 -47 -248z m118 -45 l6 -48 -31 0 c-36 0 -37 5 -13
134 l17 91 8 -65 c3 -36 9 -86 13 -112z"/>
<path d="M9748 19813 l-58 -4 0 -42 c0 -55 22 -461 25 -465 1 -1 50 0 109 4
l106 7 0 40 0 40 -70 -7 -70 -6 0 74 0 74 50 7 c49 7 50 8 50 41 l0 34 -54 0
-54 0 -4 61 c-1 33 -1 63 1 65 2 2 33 4 68 4 l63 0 0 40 0 40 -52 -2 c-29 -1
-79 -3 -110 -5z"/>
<path d="M9468 19792 c-21 -2 -38 -9 -38 -15 0 -27 31 -435 36 -464 l5 -33 62
6 c150 12 147 11 147 50 l0 34 -68 0 -69 0 -13 198 c-7 108 -16 204 -19 212
-4 10 -17 14 -43 12z"/>
<path d="M11326 19768 c-3 -12 -15 -111 -26 -218 -12 -107 -24 -212 -27 -232
l-6 -38 40 0 40 0 12 128 c22 216 27 221 33 39 3 -93 8 -170 9 -171 2 -2 18
-7 35 -10 l31 -7 44 165 c24 90 45 163 46 162 1 -1 -6 -74 -16 -161 -10 -88
-16 -163 -14 -167 2 -5 19 -8 38 -8 41 0 35 -22 69 280 14 118 22 218 18 222
-9 8 -100 14 -107 6 -3 -3 -26 -79 -50 -169 l-43 -164 -1 165 c-1 91 -5 170
-9 176 -4 6 -30 15 -59 19 -49 6 -52 5 -57 -17z"/>
<path d="M9176 19762 c-2 -4 6 -116 19 -247 14 -132 25 -244 25 -249 0 -8 84
-3 173 10 34 5 37 8 37 38 0 18 -2 35 -5 37 -2 3 -30 2 -62 -1 -32 -4 -61 -3
-64 2 -3 5 -14 101 -24 213 l-19 205 -37 0 c-21 0 -40 -4 -43 -8z"/>
<path d="M8940 19732 c-39 -19 -60 -53 -60 -98 0 -73 40 -326 56 -353 45 -75
176 -65 210 16 15 34 15 49 0 173 -9 74 -21 156 -27 182 -20 88 -96 122 -179
80z m94 -79 c11 -36 37 -272 34 -304 -2 -27 -8 -35 -27 -37 -13 -2 -27 0 -32
5 -11 11 -50 319 -43 338 9 21 61 19 68 -2z"/>
<path d="M11716 19497 c-42 -129 -76 -240 -76 -246 0 -10 10 -13 57 -15 11 -1
20 12 27 39 11 38 14 40 51 40 l40 0 3 -45 c4 -53 6 -56 56 -64 l38 -7 -7 258
c-4 142 -8 259 -9 260 -1 1 -25 5 -53 9 l-51 6 -76 -235z m114 3 c0 -102 -1
-110 -19 -110 -49 0 -50 5 -18 116 16 57 32 104 34 104 1 0 3 -49 3 -110z"/>
<path d="M8620 19691 c-32 -5 -35 -9 -32 -36 7 -56 71 -467 74 -470 2 -1 20 0
41 3 42 5 42 7 27 98 -6 32 -12 71 -15 87 -3 17 0 27 8 27 41 0 90 24 108 53
32 51 14 174 -33 225 -18 18 -31 22 -82 21 -34 -1 -77 -4 -96 -8z m127 -91 c7
-14 12 -45 11 -69 -3 -39 -6 -46 -30 -52 -26 -7 -27 -6 -38 63 -10 58 -10 72
1 79 22 14 42 6 56 -21z"/>
<path d="M12030 19683 c0 -5 -20 -114 -44 -243 -25 -129 -43 -237 -40 -241 2
-4 47 -14 100 -24 104 -19 114 -16 114 31 0 25 -9 30 -74 39 -25 4 -46 10 -46
14 0 3 16 97 37 209 32 174 35 205 23 213 -18 11 -70 12 -70 2z"/>
<path d="M8245 19621 c-43 -19 -65 -53 -65 -100 0 -38 57 -317 70 -340 31 -59
101 -76 169 -42 67 35 70 58 32 250 -36 183 -48 214 -91 236 -38 20 -66 19
-115 -4z m84 -78 c14 -28 63 -280 59 -311 -2 -21 -9 -28 -29 -30 -33 -4 -33
-3 -70 176 -21 106 -26 149 -19 163 13 24 46 25 59 2z"/>
<path d="M12240 19401 c-32 -145 -50 -245 -44 -250 12 -12 193 -50 198 -42 2
3 7 20 10 37 l7 31 -64 14 -64 14 45 207 c25 114 43 210 40 213 -3 3 -21 8
-40 11 l-34 6 -54 -241z"/>
<path d="M10968 19566 c-2 -21 -2 -39 1 -40 3 -2 40 -5 81 -7 l75 -4 3 38 c3
35 1 37 -25 37 -15 0 -51 3 -79 6 l-52 6 -4 -36z"/>
<path d="M7982 19565 c-51 -12 -95 -25 -98 -28 -3 -3 -3 -20 1 -37 7 -31 8
-32 49 -26 l41 6 48 -207 c26 -114 49 -208 50 -210 6 -6 77 18 77 26 0 5 -20
96 -45 202 -25 106 -43 199 -41 205 2 6 18 14 35 17 31 7 39 25 25 61 -8 20
-28 19 -142 -9z"/>
<path d="M12562 19545 c-35 -29 -49 -68 -97 -263 -31 -127 -28 -161 16 -194
39 -30 97 -39 135 -23 45 19 65 63 109 246 34 140 36 159 24 184 -20 40 -60
66 -111 72 -37 4 -49 1 -76 -22z m106 -87 c4 -33 -65 -298 -83 -317 -22 -22
-55 -4 -55 30 0 26 66 293 77 312 3 5 17 7 31 5 21 -2 28 -9 30 -30z"/>
<path d="M12845 19497 c-3 -7 -33 -106 -68 -222 -35 -115 -67 -220 -71 -232
-6 -19 -2 -23 31 -32 20 -6 40 -7 44 -3 4 4 18 47 33 96 14 49 28 91 31 94 10
11 55 -18 55 -35 0 -10 -9 -50 -20 -88 -27 -95 -26 -100 17 -113 20 -6 37 -10
38 -9 0 1 9 34 20 72 24 90 30 148 16 173 -8 16 -6 21 13 30 44 20 81 145 57
190 -21 39 -187 106 -196 79z m96 -97 c23 -13 25 -47 5 -95 -12 -27 -21 -35
-40 -35 -36 0 -39 12 -19 79 19 64 22 67 54 51z"/>
<path d="M7660 19483 c-30 -9 -56 -17 -57 -17 -3 -2 125 -478 130 -483 9 -9
77 9 77 21 0 6 -11 51 -25 101 -14 49 -25 93 -25 97 0 13 57 9 68 -4 6 -7 18
-42 27 -78 24 -95 30 -103 68 -95 18 4 35 10 39 14 8 8 -46 175 -67 207 -8 13
-22 24 -29 24 -12 0 -12 5 1 30 21 43 1 131 -40 178 -25 27 -83 29 -167 5z
m128 -117 c14 -48 13 -51 -8 -68 -13 -10 -28 -17 -33 -15 -12 4 -47 124 -38
132 3 3 19 5 35 3 27 -3 32 -8 44 -52z"/>
<path d="M7438 19417 c-63 -19 -98 -35 -98 -44 0 -14 139 -465 145 -471 2 -2
49 11 105 28 l101 32 -7 31 c-9 46 -9 46 -70 26 -32 -11 -61 -19 -65 -19 -10
0 -52 127 -45 139 3 5 20 12 38 15 53 10 60 18 47 54 -13 37 -11 36 -71 18
l-45 -13 -17 58 c-9 32 -16 60 -16 62 0 2 27 12 60 22 41 12 60 23 60 34 0 25
-12 61 -19 60 -3 -1 -50 -15 -103 -32z"/>
<path d="M13174 19390 c-38 -15 -70 -72 -117 -210 -58 -172 -60 -183 -43 -224
26 -62 131 -91 178 -50 19 17 68 113 68 133 0 4 -16 13 -36 19 -35 11 -36 10
-50 -26 -22 -57 -30 -67 -49 -67 -36 0 -41 29 -16 107 70 219 89 256 125 242
22 -8 26 -29 14 -68 -13 -41 -7 -51 33 -61 24 -6 28 -3 39 30 15 46 15 96 1
124 -21 38 -105 67 -147 51z"/>
<path d="M7225 19348 c-16 -6 -31 -12 -33 -13 -1 -1 27 -86 63 -189 37 -102
65 -196 63 -209 -2 -17 -10 -22 -32 -22 -29 0 -30 2 -97 190 -38 105 -69 194
-71 198 -3 7 -78 -18 -78 -26 0 -8 132 -372 142 -391 35 -70 126 -76 196 -13
37 34 29 83 -45 295 -37 105 -70 192 -73 191 -3 0 -18 -5 -35 -11z"/>
<path d="M13350 19078 c-69 -116 -126 -215 -128 -219 -3 -6 51 -29 68 -29 4 0
13 13 20 30 19 46 32 52 74 35 25 -11 36 -21 32 -30 -2 -7 -8 -29 -11 -48 -7
-33 -5 -35 30 -47 20 -7 38 -10 40 -8 5 5 105 467 105 484 0 12 -69 44 -93 44
-6 0 -68 -96 -137 -212z m113 -20 l-25 -107 -26 12 c-15 6 -29 12 -30 13 -2 1
20 45 49 98 30 52 54 94 55 93 1 -1 -9 -50 -23 -109z"/>
<path d="M6845 19205 c-38 -14 -71 -25 -72 -25 -10 0 8 -53 88 -252 l91 -227
36 15 c20 8 37 16 38 17 1 1 -13 40 -32 86 -37 92 -41 111 -21 111 7 0 29 14
50 31 31 25 37 37 37 68 0 87 -58 187 -115 196 -18 3 -57 -4 -100 -20z m112
-105 c29 -59 28 -77 -4 -94 l-28 -14 -27 66 c-24 62 -25 68 -10 80 27 20 46
10 69 -38z"/>
<path d="M9672 18639 c-49 -25 -101 -81 -144 -156 -16 -29 -32 -53 -34 -53 -2
0 -37 22 -77 50 -80 54 -170 90 -225 90 -20 0 -54 -11 -79 -25 -50 -30 -82
-85 -113 -197 -21 -75 -75 -427 -86 -562 -4 -42 -12 -83 -18 -91 -6 -8 -37
-28 -69 -44 -213 -111 -403 -300 -545 -541 -59 -100 -127 -308 -157 -480 -8
-45 -25 -100 -37 -123 -22 -39 -42 -57 -182 -167 -98 -76 -112 -139 -57 -247
17 -35 36 -86 42 -115 27 -124 119 -239 220 -275 27 -10 49 -23 49 -28 0 -25
60 -102 91 -118 32 -15 36 -15 66 3 l32 19 47 -52 c83 -92 134 -224 134 -347
0 -52 -4 -67 -25 -92 -32 -38 -32 -87 -1 -153 41 -89 125 -138 238 -139 43 -1
78 -1 78 -1 0 -1 -9 -27 -21 -59 -13 -37 -19 -78 -18 -110 3 -62 -2 -62 -104
-8 -62 32 -74 44 -129 126 -72 106 -126 167 -185 208 -26 17 -43 37 -43 49 0
10 -6 28 -12 39 -10 16 -9 25 5 49 29 49 22 98 -19 139 -32 32 -36 41 -38 97
-1 46 -10 79 -38 136 -72 151 -217 262 -425 326 -81 25 -101 27 -263 27 -160
0 -184 -2 -274 -27 -296 -82 -507 -255 -589 -484 -36 -100 -44 -185 -23 -256
16 -54 16 -57 -4 -89 -28 -46 -26 -99 6 -137 l25 -30 -30 -44 c-52 -76 -66
-123 -66 -222 0 -85 3 -95 42 -175 31 -64 59 -102 110 -152 76 -76 83 -81 205
-158 47 -30 139 -94 202 -143 358 -272 764 -455 1165 -527 57 -11 106 -21 109
-24 3 -3 -11 -41 -30 -83 -77 -170 -103 -297 -103 -498 1 -113 7 -179 24 -269
34 -180 116 -399 196 -527 l24 -36 -66 -17 c-206 -51 -353 -199 -386 -389 -12
-74 -1 -147 35 -213 11 -21 24 -50 28 -64 3 -14 12 -26 18 -26 7 -1 17 -2 23
-3 8 -1 8 -5 -1 -16 -18 -22 -2 -40 20 -20 15 14 18 14 30 0 7 -8 18 -15 25
-15 8 0 11 -8 8 -20 -4 -15 0 -20 15 -20 12 0 24 5 27 10 5 8 12 7 22 -2 8 -6
25 -13 36 -13 62 -3 65 -5 60 -25 -4 -15 0 -20 16 -20 12 0 21 6 21 15 0 8 4
15 9 15 5 0 11 -7 15 -15 3 -8 12 -15 21 -15 8 0 15 7 15 15 0 8 7 15 15 15 8
0 15 -7 15 -15 0 -20 26 -19 34 1 5 14 10 12 31 -10 14 -15 25 -34 25 -42 0
-9 10 -14 29 -14 19 0 39 -11 60 -32 22 -23 34 -29 42 -21 18 18 69 -7 69 -34
0 -29 30 -31 37 -3 6 23 23 27 23 5 0 -21 30 -31 40 -15 5 8 15 10 26 5 11 -4
66 -10 124 -12 153 -5 188 -11 186 -31 0 -9 7 -18 17 -20 12 -2 17 3 17 17 0
14 6 21 19 21 11 0 18 -6 17 -16 -2 -25 24 -29 31 -5 7 28 43 28 43 1 0 -11 7
-20 15 -20 8 0 15 9 15 20 0 13 7 20 19 20 12 0 18 -7 17 -17 0 -10 7 -19 17
-21 12 -2 17 3 17 17 0 14 6 21 19 21 11 0 18 -6 17 -16 -2 -25 24 -29 31 -5
3 12 13 21 23 21 13 0 17 -5 13 -21 -5 -17 -2 -20 13 -17 11 2 18 11 18 21 -1
10 5 17 17 17 13 0 19 -7 19 -21 0 -14 5 -19 18 -17 9 2 16 11 16 21 -1 10 5
17 16 17 11 0 17 -7 16 -17 -1 -12 6 -18 19 -18 14 0 19 6 17 18 -2 11 4 17
16 17 13 0 19 -6 18 -17 -1 -12 6 -18 19 -18 14 0 19 6 17 18 -2 11 4 17 16
17 13 0 19 -6 18 -17 -1 -12 6 -18 19 -18 14 0 19 6 17 18 -2 11 4 17 16 17
13 0 19 -6 18 -17 0 -10 7 -19 17 -21 12 -2 17 3 17 17 0 14 6 21 20 21 13 0
18 -5 14 -15 -7 -17 19 -31 36 -20 8 5 8 11 -1 21 -9 11 -8 14 9 14 11 0 22
-8 25 -20 3 -11 10 -20 17 -20 7 0 14 9 17 20 7 25 41 27 39 3 0 -10 7 -19 17
-21 12 -2 17 3 17 17 0 14 6 21 19 21 12 0 18 -7 17 -17 0 -10 7 -19 17 -21
12 -2 17 3 17 17 0 14 6 21 20 21 14 0 20 -7 20 -21 0 -14 5 -19 18 -17 10 2
16 11 14 21 -2 11 4 17 18 17 14 0 20 -7 20 -21 0 -14 5 -19 18 -17 9 2 16 11
16 21 -1 11 6 17 21 17 16 0 22 -6 21 -17 0 -10 6 -18 14 -18 8 0 14 8 14 17
-2 19 32 26 141 28 165 2 231 6 242 13 7 4 21 2 32 -5 18 -11 23 -10 36 7 14
19 16 19 26 3 14 -24 36 -23 44 2 3 11 11 20 16 20 5 0 9 -9 9 -20 0 -14 7
-20 21 -20 17 0 20 5 17 25 -5 26 7 31 71 27 14 -1 31 4 39 10 10 9 15 9 22
-2 10 -16 40 -6 40 15 0 8 6 15 14 15 8 0 13 -8 12 -17 0 -10 7 -19 17 -21 19
-4 24 23 5 34 -15 10 66 34 92 27 12 -3 22 1 26 11 8 22 21 20 27 -4 3 -13 10
-18 21 -14 22 8 20 34 -1 34 -17 1 -17 1 0 11 9 5 21 8 26 4 5 -3 12 -1 16 5
3 5 20 7 37 3 27 -5 30 -4 24 15 -5 16 -1 22 16 28 13 4 33 7 46 5 14 -2 22 3
22 13 0 19 62 54 68 37 6 -19 32 -12 32 10 0 11 10 29 23 40 24 20 47 25 47 9
0 -16 27 -12 34 5 3 8 10 15 16 15 5 0 10 -7 10 -15 0 -8 7 -15 15 -15 8 0 15
6 15 14 0 9 29 19 88 31 502 103 962 547 1197 1156 89 231 168 583 190 849 3
41 15 154 26 250 58 520 84 610 268 929 120 208 161 351 141 493 -37 259 -233
438 -480 438 -222 0 -418 -147 -554 -417 -116 -232 -167 -444 -235 -978 -19
-146 -55 -322 -79 -385 -12 -29 -9 -35 -52 115 -107 374 -295 758 -558 1140
-88 128 -110 156 -216 285 -61 74 -218 249 -260 291 -3 3 6 34 20 69 36 88 36
197 1 274 -29 62 -84 126 -135 158 -21 12 -38 23 -40 24 -2 1 6 46 18 101 84
388 2 801 -226 1128 -64 92 -210 239 -302 302 l-74 51 -38 111 c-113 323 -296
635 -485 826 -130 131 -201 169 -319 173 -66 2 -89 -2 -124 -19z m243 -74 c88
-42 241 -199 337 -345 148 -224 264 -476 334 -726 20 -71 38 -135 40 -142 2
-8 12 -12 21 -10 14 2 19 15 21 56 l3 52 58 -44 c221 -170 390 -457 456 -774
35 -170 28 -429 -16 -593 -24 -90 -48 -119 -205 -244 -405 -326 -971 -622
-1509 -790 -143 -44 -208 -60 -357 -89 -66 -13 -67 -13 -65 7 3 31 -27 32 -66
3 -103 -79 -259 -93 -349 -33 -40 27 -79 93 -76 127 3 21 10 26 48 32 69 12
97 27 139 74 46 53 61 100 61 196 0 199 -117 404 -256 452 -62 21 -75 20 -167
-9 -146 -47 -249 -25 -336 71 -47 51 -81 124 -81 172 0 15 27 51 98 131 65 75
51 131 -37 146 -22 4 -43 10 -46 15 -3 5 16 24 42 43 119 88 163 157 182 287
16 106 48 220 91 325 158 391 509 680 932 770 43 9 86 24 97 33 13 11 51 108
106 272 126 372 201 516 290 557 48 22 141 12 210 -22z m-575 -110 c30 -19 70
-48 89 -63 l34 -29 -37 -101 c-20 -56 -63 -181 -96 -277 -32 -97 -61 -179 -63
-182 -16 -15 -25 16 -30 104 -7 112 -31 279 -54 368 -18 74 -48 125 -74 125
-24 0 -24 17 1 57 11 19 31 35 47 39 15 3 33 7 38 8 24 6 93 -18 145 -49z
m-1665 -2709 c112 -20 192 -47 270 -91 127 -71 239 -214 252 -323 5 -45 3 -50
-28 -76 -104 -88 -527 -203 -894 -242 -251 -28 -506 -22 -551 11 -30 22 -32
161 -4 244 39 117 124 227 237 308 202 144 484 210 718 169z m655 -66 c0 -6
-7 -27 -15 -46 -18 -44 -40 -42 -73 6 l-24 35 44 6 c24 3 49 7 56 7 6 1 12 -3
12 -8z m3027 -317 c85 -65 337 -373 480 -588 331 -495 520 -957 599 -1460 21
-140 30 -500 15 -650 -69 -682 -425 -1257 -922 -1489 -177 -82 -412 -143 -679
-176 -236 -29 -1389 -36 -1730 -11 l-85 6 -20 40 c-15 31 -20 60 -20 125 0 76
4 93 33 151 17 37 32 70 32 73 0 4 -10 6 -22 4 -17 -2 -32 -20 -55 -65 -41
-82 -51 -167 -29 -252 9 -35 16 -64 16 -66 0 -4 -108 20 -158 35 -31 10 -47
21 -54 39 -34 89 -27 197 19 286 23 47 25 57 13 65 -20 12 -35 -2 -67 -69 -25
-50 -28 -67 -28 -158 0 -57 -3 -103 -7 -103 -17 0 -58 71 -74 128 -16 59 -16
67 -1 138 19 89 69 176 131 231 81 72 217 123 324 123 49 0 58 -4 121 -55 113
-91 251 -153 251 -112 0 8 -33 34 -73 59 -82 52 -97 65 -184 150 -99 96 -158
197 -202 346 -100 338 6 708 276 963 127 119 271 200 466 261 100 31 106 32
307 32 197 1 208 0 295 -27 166 -51 318 -120 402 -180 39 -27 73 -31 73 -8 0
32 -218 178 -292 195 -15 3 -36 16 -47 27 -10 11 -27 20 -37 19 -11 -1 -31 -2
-47 -1 -24 1 -27 4 -21 26 5 21 3 25 -15 25 -15 0 -21 -6 -21 -22 0 -21 0 -21
-23 3 -26 27 -25 34 6 34 16 0 21 5 20 21 -2 14 4 24 17 27 11 3 20 13 20 22
0 9 14 34 32 55 25 32 34 37 45 28 10 -8 17 -8 25 0 14 14 0 35 -19 28 -9 -4
-13 -1 -10 6 2 7 14 13 27 13 27 0 39 22 17 31 -13 4 -12 12 6 54 19 46 18 80
-2 80 -5 0 -26 -28 -47 -62 -62 -103 -155 -218 -219 -269 l-60 -49 -123 0
c-197 0 -364 -41 -554 -136 -82 -41 -93 -44 -167 -44 -220 0 -551 77 -831 192
-424 175 -792 486 -914 773 -37 89 -48 222 -22 273 l17 32 32 -16 c17 -10 57
-43 88 -76 54 -56 89 -73 89 -44 0 21 -101 127 -149 156 -35 22 -40 30 -41 60
0 72 64 160 117 160 32 0 107 -54 163 -119 55 -61 80 -75 80 -44 0 34 -95 136
-167 179 -24 14 -43 30 -43 34 0 18 54 72 91 90 47 25 115 28 154 8 39 -20 99
-79 132 -129 14 -21 32 -39 39 -39 42 0 -18 106 -95 168 -23 18 -41 37 -41 42
0 31 128 29 208 -4 115 -46 194 -116 275 -243 57 -88 103 -128 205 -175 309
-143 718 -158 1115 -41 71 21 87 30 87 46 0 18 -5 19 -62 13 -35 -4 -114 -18
-175 -32 -62 -13 -130 -24 -150 -23 -32 1 -25 4 46 24 224 64 651 218 891 322
332 144 683 356 820 497 25 25 46 46 48 46 2 0 19 -12 39 -27z m2100 -54 c96
-36 171 -94 220 -174 54 -87 73 -152 73 -252 0 -126 -32 -219 -133 -389 -184
-310 -226 -456 -278 -953 -70 -669 -129 -926 -294 -1266 -67 -140 -176 -313
-257 -410 -89 -106 -258 -264 -287 -267 -14 -2 -25 -8 -24 -15 1 -6 -13 -23
-32 -38 -27 -20 -35 -22 -35 -11 0 16 -12 21 -23 9 -4 -3 -2 -12 4 -20 9 -10
8 -13 -1 -13 -8 0 -22 -8 -32 -17 -17 -15 -19 -15 -32 2 -7 10 -18 15 -24 11
-16 -10 -15 -33 1 -39 7 -4 6 -6 -5 -6 -9 -1 -24 -9 -34 -18 -13 -13 -19 -14
-22 -5 -2 6 -13 12 -24 12 -15 0 -19 -5 -15 -19 6 -25 -38 -48 -59 -30 -15 13
-34 4 -34 -17 0 -8 -4 -14 -10 -14 -5 0 -10 9 -10 21 0 14 -5 19 -17 17 -10
-2 -17 -11 -15 -20 4 -22 -31 -40 -63 -32 -19 5 -25 2 -25 -10 0 -9 -2 -16 -5
-16 -9 0 -45 40 -37 41 4 1 16 2 27 3 11 0 20 8 20 16 0 9 6 22 13 30 7 8 24
29 37 45 14 17 25 24 25 18 0 -16 26 -17 36 -2 3 6 1 16 -5 22 -18 18 -13 25
16 19 23 -4 25 -2 21 16 -4 13 0 23 8 26 8 3 14 14 14 25 0 10 7 21 15 25 8 3
15 14 15 24 0 10 5 23 11 29 13 13 33 47 48 81 6 12 15 22 21 22 5 0 10 11 10
25 0 16 6 25 15 25 8 0 15 9 15 20 0 10 9 24 19 30 12 6 17 17 14 28 -3 14 2
21 19 25 18 5 20 9 10 19 -16 16 -15 31 1 25 8 -3 20 -1 28 4 12 8 11 12 -3
23 -22 16 -22 17 -1 66 20 45 28 49 36 20 3 -11 12 -20 21 -20 20 0 21 14 2
32 -7 8 -17 24 -20 36 -8 25 11 91 32 109 8 7 11 20 8 31 -5 15 -2 20 11 18 9
0 19 7 21 17 2 11 -3 17 -13 17 -14 0 -16 6 -10 27 3 15 11 31 17 34 6 4 8 16
5 28 -4 16 -1 21 14 21 23 0 25 26 3 38 -16 9 -16 12 0 42 9 19 14 42 10 52
-4 13 0 18 15 18 12 0 21 7 21 15 0 8 -9 15 -20 15 -17 0 -19 4 -14 28 4 15
14 33 23 40 15 11 14 13 -1 25 -18 14 -15 49 5 75 7 9 7 16 -1 24 -17 17 -15
26 5 24 10 0 19 7 21 18 3 15 0 18 -16 14 -17 -5 -20 -1 -19 28 1 22 6 34 15
34 8 0 12 7 10 18 -2 9 -10 16 -16 14 -18 -3 -15 57 4 76 14 13 14 17 2 26
-18 14 -32 66 -18 66 5 0 10 7 10 15 0 8 -4 15 -9 15 -5 0 -9 10 -9 23 0 12
-3 36 -5 52 -41 254 -40 231 -17 293 41 108 97 374 115 547 14 126 56 394 77
480 50 217 141 427 240 559 140 186 352 269 525 205z m-4807 -109 l35 -30 -28
-25 c-15 -14 -37 -25 -48 -25 -16 0 -19 7 -19 39 0 41 8 71 19 71 3 0 22 -14
41 -30z m-396 -16 c39 -38 -2 -94 -68 -94 -28 0 -76 -19 -76 -30 0 -4 -22 -10
-48 -14 -26 -3 -66 -15 -87 -26 -22 -11 -53 -20 -70 -20 -59 0 -157 -43 -201
-88 -37 -37 -47 -42 -87 -42 -24 0 -64 7 -87 15 -68 24 -103 20 -150 -20 -66
-55 -90 -57 -188 -14 l-53 23 -72 -37 c-40 -20 -79 -37 -87 -37 -9 0 -40 16
-70 35 -62 40 -63 40 -120 20 -54 -19 -75 -19 -94 1 -22 21 -20 57 3 78 17 15
26 16 80 5 78 -15 427 -6 561 15 244 38 305 49 445 86 162 42 313 96 379 135
48 29 69 31 90 9z m-1518 -523 c25 -23 30 -34 26 -59 -6 -43 24 -133 59 -175
40 -48 119 -85 199 -93 36 -4 73 -14 83 -22 11 -10 17 -11 17 -4 0 7 9 12 20
12 12 0 17 -5 14 -14 -3 -7 2 -16 11 -20 12 -4 19 0 22 14 3 11 11 20 19 20 7
0 11 -6 8 -14 -3 -7 2 -16 11 -20 12 -4 19 0 22 14 6 24 23 27 23 4 0 -12 7
-15 25 -12 14 3 28 1 31 -4 8 -12 24 0 24 19 0 10 -6 14 -20 10 -11 -3 -20 -2
-20 3 0 11 143 19 154 8 6 -4 1 -8 -13 -8 -16 0 -21 -5 -19 -17 3 -12 12 -17
26 -16 20 3 21 1 10 -18 -11 -17 -10 -22 5 -30 9 -6 17 -17 17 -26 0 -9 6 -24
13 -32 8 -9 26 -38 41 -64 23 -40 25 -48 10 -45 -9 2 -19 -3 -22 -11 -3 -10 2
-12 20 -8 22 6 32 -3 87 -72 149 -190 379 -374 627 -501 64 -33 111 -60 105
-60 -26 0 -239 52 -335 81 -306 94 -587 240 -877 455 -74 55 -170 122 -214
149 -130 80 -244 195 -280 282 -41 97 -38 221 6 278 25 31 27 31 65 -4z m778
-43 c-3 -24 -15 -62 -26 -86 -11 -23 -22 -60 -25 -82 -6 -46 -7 -47 -173 -59
-151 -11 -280 0 -349 30 -66 28 -111 90 -111 153 l0 41 228 1 c178 2 251 6
337 22 61 11 113 20 118 21 4 0 4 -18 1 -41z m1098 -1285 c57 -21 78 -33 78
-45 0 -21 35 -25 44 -5 5 10 7 10 12 0 3 -7 23 -13 44 -13 53 0 69 -8 63 -31
-4 -14 0 -19 16 -19 12 0 21 6 21 15 0 8 5 15 10 15 6 0 10 -7 10 -15 0 -12 9
-15 33 -14 17 2 53 2 80 1 45 -2 47 -3 41 -26 -4 -16 -1 -25 10 -29 17 -7 41
17 31 33 -3 5 1 10 10 10 11 0 15 -5 12 -14 -7 -18 14 -38 29 -28 6 4 14 14
17 22 4 12 6 11 6 -2 1 -23 37 -23 50 -1 11 20 18 17 23 -12 2 -14 -3 -20 -16
-20 -10 0 -22 -9 -27 -20 -4 -11 -18 -31 -29 -45 -12 -14 -19 -20 -16 -14 3 7
0 17 -8 23 -10 8 -16 8 -25 -3 -10 -11 -9 -16 5 -24 9 -5 14 -14 10 -21 -6 -9
-11 -9 -22 0 -21 17 -42 -4 -25 -25 10 -12 8 -15 -11 -18 -17 -2 -22 -9 -21
-26 2 -14 -3 -22 -12 -22 -9 0 -15 -9 -15 -24 0 -16 -7 -26 -21 -29 -16 -4
-20 -11 -16 -26 4 -16 0 -21 -15 -21 -17 0 -19 -5 -14 -25 5 -20 3 -25 -13
-25 -23 0 -35 -26 -15 -34 24 -9 15 -25 -13 -23 -19 1 -28 -3 -28 -13 0 -8 8
-14 18 -13 15 1 18 -4 12 -25 -3 -15 -13 -32 -21 -39 -10 -7 -13 -19 -9 -32 5
-17 2 -21 -14 -21 -12 0 -21 -7 -21 -15 0 -8 7 -15 15 -15 20 0 10 -49 -13
-68 -14 -10 -14 -16 -4 -32 15 -25 15 -45 0 -70 -10 -15 -10 -22 0 -32 14 -14
16 -58 2 -58 -5 0 -10 -9 -10 -20 0 -11 4 -20 9 -20 5 0 11 -13 13 -29 3 -23
0 -31 -15 -35 -24 -6 -13 -26 15 -26 16 0 18 -3 9 -14 -8 -10 -7 -21 5 -44 8
-18 12 -37 9 -43 -4 -5 0 -18 7 -27 13 -15 48 -94 48 -108 0 -3 -5 -2 -10 1
-14 9 -25 -24 -12 -37 8 -8 15 -8 26 1 8 7 17 8 20 3 3 -6 -1 -15 -9 -22 -18
-15 -10 -30 16 -30 20 0 26 -15 9 -25 -16 -10 1 -36 20 -30 25 8 35 -11 13
-24 -13 -7 -23 -5 -35 6 -15 13 -18 13 -30 -6 -7 -12 -19 -21 -26 -21 -7 0
-10 5 -7 10 9 15 -4 30 -21 23 -9 -3 -12 -12 -9 -24 5 -15 1 -19 -19 -19 -35
0 -163 -88 -221 -151 -26 -30 -64 -88 -84 -129 -35 -73 -36 -78 -36 -192 l0
-118 -55 6 c-151 15 -172 29 -192 128 -15 72 0 151 42 220 22 35 28 52 20 60
-18 18 -42 -6 -78 -75 -35 -70 -43 -135 -29 -223 l9 -48 -31 18 c-37 22 -74
74 -91 128 -27 85 5 241 59 290 12 11 21 25 21 32 0 36 141 121 247 148 79 21
99 20 123 -4 20 -20 50 -17 50 5 0 7 -25 51 -56 97 -131 193 -218 443 -245
707 -23 224 28 475 132 646 18 30 40 55 48 55 8 0 50 -12 93 -27z m3298 -1998
c0 -8 -7 -15 -16 -15 -14 0 -14 3 -4 15 7 8 14 15 16 15 2 0 4 -7 4 -15z"/>
<path d="M9687 18410 c-58 -46 -114 -187 -198 -499 -69 -258 -82 -318 -76
-363 7 -55 38 -83 116 -108 100 -33 186 -82 296 -170 182 -146 248 -157 306
-50 20 36 16 269 -5 390 -52 288 -150 581 -246 730 -51 80 -139 112 -193 70z"/>
<path d="M8849 16846 c-54 -19 -102 -51 -229 -151 -146 -116 -187 -143 -230
-151 -48 -9 -70 -31 -70 -70 0 -49 24 -67 79 -61 25 2 54 8 65 12 16 7 17 5
11 -23 -16 -73 42 -151 117 -159 81 -9 155 69 143 152 -8 51 -48 104 -86 112
-16 3 -28 9 -27 13 5 12 208 170 241 186 54 28 115 28 200 -1 181 -61 257 -71
257 -34 0 13 -132 96 -207 131 -117 55 -197 68 -264 44z"/>
<path d="M9660 16339 c-163 -19 -357 -69 -367 -95 -3 -8 -2 -18 1 -22 4 -3 63
8 131 26 196 51 355 61 563 36 48 -6 52 -5 52 14 0 24 -13 28 -135 42 -101 11
-138 11 -245 -1z"/>
<path d="M9310 15971 c0 -16 12 -19 123 -25 145 -9 358 -46 469 -83 66 -22 81
-24 88 -12 15 22 -8 38 -94 63 -166 50 -336 76 -493 76 -84 0 -93 -2 -93 -19z"/>
<path d="M9274 15719 c-9 -16 3 -23 86 -54 132 -49 242 -98 363 -163 113 -61
137 -67 137 -37 0 28 -248 154 -437 224 -120 44 -138 47 -149 30z"/>
<path d="M7605 15679 c-4 -6 -2 -15 5 -19 17 -10 42 -1 37 14 -5 16 -34 19
-42 5z"/>
<path d="M7304 15659 c-11 -18 13 -34 31 -19 8 7 15 16 15 21 0 13 -38 11 -46
-2z"/>
<path d="M7811 15640 c-14 -8 -8 -40 7 -40 5 0 15 6 21 14 15 17 -8 39 -28 26z"/>
<path d="M7505 15560 c-4 -7 -3 -16 3 -22 14 -14 45 -2 40 15 -6 16 -34 21
-43 7z"/>
<path d="M7150 15495 c-9 -10 -10 -19 -3 -26 14 -14 45 0 41 19 -4 22 -23 25
-38 7z"/>
<path d="M7767 15484 c-14 -15 -6 -34 14 -34 14 0 19 5 17 17 -3 18 -20 27
-31 17z"/>
<path d="M7357 15393 c-14 -13 -6 -33 13 -33 13 0 20 7 20 20 0 19 -20 27 -33
13z"/>
<path d="M6933 15344 c-8 -22 18 -37 36 -20 7 8 10 19 7 25 -10 16 -36 13 -43
-5z"/>
<path d="M10546 13823 c-11 -11 -6 -23 9 -23 8 0 15 4 15 9 0 13 -16 22 -24
14z"/>
<path d="M10517 13773 c-12 -11 -8 -23 8 -23 8 0 15 7 15 15 0 16 -12 20 -23
8z"/>
<path d="M10487 13724 c-8 -8 1 -24 14 -24 5 0 9 7 9 15 0 15 -12 20 -23 9z"/>
<path d="M10404 13579 c-10 -17 13 -36 27 -22 12 12 4 33 -11 33 -5 0 -12 -5
-16 -11z"/>
<path d="M10465 13581 c-3 -5 -1 -12 5 -16 5 -3 10 1 10 9 0 18 -6 21 -15 7z"/>
<path d="M10382 13523 c5 -25 28 -28 28 -4 0 12 -6 21 -16 21 -9 0 -14 -7 -12
-17z"/>
<path d="M10436 13531 c-7 -11 18 -33 27 -24 4 3 7 12 7 20 0 15 -26 18 -34 4z"/>
<path d="M10352 13473 c2 -10 10 -18 18 -18 8 0 16 8 18 18 2 12 -3 17 -18 17
-15 0 -20 -5 -18 -17z"/>
<path d="M10417 13484 c-9 -9 4 -34 18 -34 14 0 27 25 18 34 -4 3 -12 6 -18 6
-6 0 -14 -3 -18 -6z"/>
<path d="M10382 13423 c2 -10 10 -18 18 -18 8 0 16 8 18 18 2 12 -3 17 -18 17
-15 0 -20 -5 -18 -17z"/>
<path d="M10452 13424 c4 -21 22 -23 26 -1 2 10 -3 17 -13 17 -10 0 -15 -6
-13 -16z"/>
<path d="M10485 13381 c-7 -12 12 -24 25 -16 11 7 4 25 -10 25 -5 0 -11 -4
-15 -9z"/>
<path d="M12560 12890 c0 -5 5 -10 10 -10 6 0 10 5 10 10 0 6 -4 10 -10 10 -5
0 -10 -4 -10 -10z"/>
<path d="M12570 12790 c0 -5 7 -10 15 -10 8 0 15 5 15 10 0 6 -7 10 -15 10 -8
0 -15 -4 -15 -10z"/>
<path d="M12542 12743 c2 -10 10 -18 18 -18 22 0 18 29 -3 33 -14 3 -18 -1
-15 -15z"/>
<path d="M12574 12699 c-10 -17 13 -36 27 -22 12 12 4 33 -11 33 -5 0 -12 -5
-16 -11z"/>
<path d="M12540 12646 c0 -8 4 -17 8 -20 13 -8 35 11 28 23 -10 16 -36 14 -36
-3z"/>
<path d="M12570 12595 c0 -8 9 -15 20 -15 11 0 20 7 20 15 0 8 -9 15 -20 15
-11 0 -20 -7 -20 -15z"/>
<path d="M12540 12546 c0 -15 24 -28 34 -19 13 14 5 33 -14 33 -11 0 -20 -6
-20 -14z"/>
<path d="M12610 12540 c0 -5 5 -10 10 -10 6 0 10 5 10 10 0 6 -4 10 -10 10 -5
0 -10 -4 -10 -10z"/>
<path d="M12517 12514 c-14 -15 -6 -34 14 -34 14 0 19 5 17 17 -3 18 -20 27
-31 17z"/>
<path d="M12581 12506 c-12 -14 -5 -26 16 -26 15 0 18 26 4 34 -5 3 -14 0 -20
-8z"/>
<path d="M12545 12461 c-8 -15 3 -31 21 -31 9 0 14 7 12 17 -4 20 -24 28 -33
14z"/>
<path d="M12610 12446 c0 -9 5 -16 10 -16 6 0 10 4 10 9 0 6 -4 13 -10 16 -5
3 -10 -1 -10 -9z"/>
<path d="M12517 12413 c-14 -13 -6 -33 13 -33 13 0 20 7 20 20 0 19 -20 27
-33 13z"/>
<path d="M12580 12395 c0 -8 7 -15 15 -15 8 0 15 7 15 15 0 8 -7 15 -15 15 -8
0 -15 -7 -15 -15z"/>
<path d="M12487 12356 c-7 -16 1 -26 20 -26 7 0 13 9 13 20 0 23 -25 27 -33 6z"/>
<path d="M12550 12350 c0 -11 7 -20 15 -20 8 0 15 9 15 20 0 11 -7 20 -15 20
-8 0 -15 -9 -15 -20z"/>
<path d="M12612 12349 c2 -6 8 -10 13 -10 5 0 11 4 13 10 2 6 -4 11 -13 11 -9
0 -15 -5 -13 -11z"/>
<path d="M12517 12314 c-9 -10 4 -34 19 -34 8 0 14 9 14 20 0 19 -19 27 -33
14z"/>
<path d="M12583 12305 c-3 -9 -3 -18 0 -21 9 -9 27 6 27 22 0 19 -19 18 -27
-1z"/>
<path d="M12487 12264 c-14 -14 -7 -25 13 -22 12 2 21 8 21 13 0 12 -24 18
-34 9z"/>
<path d="M12545 12260 c-8 -12 20 -24 35 -15 6 3 8 11 5 16 -8 12 -32 12 -40
-1z"/>
<path d="M12610 12250 c0 -5 4 -10 9 -10 6 0 13 5 16 10 3 6 -1 10 -9 10 -9 0
-16 -4 -16 -10z"/>
<path d="M12526 12223 c-12 -12 -6 -33 9 -33 8 0 15 6 15 14 0 17 -14 28 -24
19z"/>
<path d="M12457 12214 c-9 -10 2 -24 19 -24 8 0 14 7 14 15 0 15 -21 21 -33 9z"/>
<path d="M12580 12205 c0 -8 7 -15 15 -15 8 0 15 7 15 15 0 8 -7 15 -15 15 -8
0 -15 -7 -15 -15z"/>
<path d="M12427 12166 c-7 -16 1 -26 20 -26 7 0 13 9 13 20 0 23 -25 27 -33 6z"/>
<path d="M12485 12171 c-8 -15 3 -31 21 -31 9 0 14 7 12 17 -4 20 -24 28 -33
14z"/>
<path d="M12557 12173 c-13 -12 -7 -33 8 -33 8 0 15 9 15 20 0 20 -11 26 -23
13z"/>
<path d="M12450 12115 c0 -8 7 -15 15 -15 8 0 15 -9 15 -20 0 -11 6 -20 14
-20 22 0 30 19 12 26 -9 3 -16 15 -16 25 0 12 -7 19 -20 19 -11 0 -20 -7 -20
-15z"/>
<path d="M12514 12119 c-7 -12 15 -31 28 -23 4 3 8 12 8 20 0 17 -26 19 -36 3z"/>
<path d="M12587 12123 c-12 -11 -8 -23 8 -23 8 0 15 7 15 15 0 16 -12 20 -23
8z"/>
<path d="M12545 12081 c-7 -12 12 -24 25 -16 11 7 4 25 -10 25 -5 0 -11 -4
-15 -9z"/>
<path d="M12380 12030 c0 -15 5 -20 18 -18 9 2 17 10 17 18 0 8 -8 16 -17 18
-13 2 -18 -3 -18 -18z"/>
<path d="M12444 12039 c-10 -17 13 -36 27 -22 12 12 4 33 -11 33 -5 0 -12 -5
-16 -11z"/>
<path d="M12510 12030 c0 -11 7 -20 15 -20 8 0 15 9 15 20 0 11 -7 20 -15 20
-8 0 -15 -9 -15 -20z"/>
<path d="M12580 12030 c0 -5 5 -10 11 -10 5 0 7 5 4 10 -3 6 -8 10 -11 10 -2
0 -4 -4 -4 -10z"/>
<path d="M12412 11983 c2 -10 10 -18 18 -18 8 0 16 8 18 18 2 12 -3 17 -18 17
-15 0 -20 -5 -18 -17z"/>
<path d="M12474 11989 c-3 -6 -2 -15 4 -21 13 -13 32 -2 32 18 0 16 -26 19
-36 3z"/>
<path d="M12545 11990 c-8 -13 4 -32 16 -25 12 8 12 35 0 35 -6 0 -13 -4 -16
-10z"/>
<path d="M12384 11945 c-9 -23 10 -40 25 -22 9 11 8 17 -4 27 -12 10 -16 9
-21 -5z"/>
<path d="M12443 11944 c-8 -21 13 -42 28 -27 13 13 5 43 -11 43 -6 0 -13 -7
-17 -16z"/>
<path d="M12505 11939 c-10 -15 1 -23 20 -15 9 3 13 10 10 16 -8 13 -22 13
-30 -1z"/>
<path d="M12350 11885 c0 -8 7 -15 15 -15 8 0 15 7 15 15 0 8 -7 15 -15 15 -8
0 -15 -7 -15 -15z"/>
<path d="M12410 11885 c0 -10 7 -15 18 -13 21 4 19 22 -2 26 -10 2 -16 -3 -16
-13z"/>
<path d="M12470 11886 c0 -10 9 -16 21 -16 24 0 21 23 -4 28 -10 2 -17 -3 -17
-12z"/>
<path d="M12535 11891 c-6 -11 9 -23 19 -14 9 9 7 23 -3 23 -6 0 -12 -4 -16
-9z"/>
<path d="M12320 11845 c-10 -12 -9 -16 3 -21 21 -8 37 3 30 21 -7 19 -17 19
-33 0z"/>
<path d="M12382 11848 c-8 -8 -9 -15 0 -25 14 -17 39 2 31 23 -6 17 -15 18
-31 2z"/>
<path d="M12443 11844 c-7 -19 2 -28 22 -21 19 8 19 23 0 31 -9 3 -18 -1 -22
-10z"/>
<path d="M12510 11835 c0 -8 5 -15 10 -15 6 0 10 7 10 15 0 8 -4 15 -10 15 -5
0 -10 -7 -10 -15z"/>
<path d="M12286 11795 c-3 -9 1 -18 10 -22 19 -7 39 11 30 26 -10 16 -33 13
-40 -4z"/>
<path d="M12357 11804 c-14 -14 -7 -35 11 -32 9 2 17 10 17 17 0 16 -18 25
-28 15z"/>
<path d="M12417 11804 c-14 -14 -7 -35 11 -32 9 2 17 10 17 17 0 16 -18 25
-28 15z"/>
<path d="M12481 11796 c-8 -10 -9 -16 -1 -21 5 -3 13 1 16 10 9 22 -1 29 -15
11z"/>
<path d="M12257 11745 c-7 -16 8 -29 23 -20 15 9 12 35 -4 35 -8 0 -16 -7 -19
-15z"/>
<path d="M12320 11746 c0 -18 16 -29 30 -21 13 8 1 35 -16 35 -8 0 -14 -6 -14
-14z"/>
<path d="M12380 11740 c0 -15 5 -20 18 -18 9 2 17 10 17 18 0 8 -8 16 -17 18
-13 2 -18 -3 -18 -18z"/>
<path d="M12444 11749 c-3 -6 -1 -16 5 -22 9 -9 14 -8 21 3 9 15 4 30 -10 30
-5 0 -12 -5 -16 -11z"/>
<path d="M12224 11699 c-3 -6 -2 -15 4 -21 13 -13 32 -2 32 18 0 16 -26 19
-36 3z"/>
<path d="M12292 11693 c2 -10 10 -18 18 -18 22 0 18 29 -3 33 -14 3 -18 -1
-15 -15z"/>
<path d="M12352 11693 c2 -10 10 -18 18 -18 22 0 18 29 -3 33 -14 3 -18 -1
-15 -15z"/>
<path d="M12415 11700 c-11 -17 5 -32 21 -19 7 6 11 15 8 20 -7 12 -21 11 -29
-1z"/>
<path d="M12197 11653 c-14 -13 -6 -33 13 -33 13 0 20 7 20 20 0 19 -20 27
-33 13z"/>
<path d="M12255 11650 c-8 -14 3 -30 21 -30 8 0 14 9 14 20 0 21 -24 28 -35
10z"/>
<path d="M12316 11645 c-3 -9 1 -18 10 -22 19 -7 39 11 30 26 -10 16 -33 13
-40 -4z"/>
<path d="M12383 11645 c-3 -9 -3 -18 0 -21 9 -9 27 6 27 22 0 19 -19 18 -27
-1z"/>
<path d="M12167 11603 c-14 -13 -6 -33 12 -33 24 0 35 26 15 34 -19 7 -19 7
-27 -1z"/>
<path d="M12225 11600 c-8 -14 3 -30 21 -30 8 0 14 9 14 20 0 21 -24 28 -35
10z"/>
<path d="M12287 11603 c-3 -5 -2 -15 3 -22 10 -17 43 -6 38 12 -6 15 -34 22
-41 10z"/>
<path d="M12357 11603 c-4 -3 -7 -12 -7 -20 0 -17 26 -17 33 1 8 21 -11 35
-26 19z"/>
<path d="M12415 11591 c-7 -12 12 -24 25 -16 11 7 4 25 -10 25 -5 0 -11 -4
-15 -9z"/>
<path d="M12141 11546 c-8 -10 -8 -16 3 -25 10 -9 16 -8 26 3 12 15 6 36 -9
36 -5 0 -14 -6 -20 -14z"/>
<path d="M12194 11549 c-9 -16 12 -33 31 -25 14 5 15 9 5 21 -15 18 -26 19
-36 4z"/>
<path d="M12260 11541 c0 -15 6 -21 21 -21 14 0 19 5 17 17 -5 26 -38 29 -38
4z"/>
<path d="M12324 11549 c-10 -17 13 -36 27 -22 12 12 4 33 -11 33 -5 0 -12 -5
-16 -11z"/>
<path d="M12117 11504 c-14 -14 -7 -35 11 -32 9 2 17 10 17 17 0 16 -18 25
-28 15z"/>
<path d="M12177 11504 c-14 -15 -6 -34 14 -34 14 0 19 5 17 17 -3 18 -20 27
-31 17z"/>
<path d="M12237 11504 c-14 -15 -6 -34 14 -34 14 0 19 5 17 17 -3 18 -20 27
-31 17z"/>
<path d="M12027 11453 c-14 -13 -7 -33 11 -33 24 0 32 8 25 26 -5 15 -25 19
-36 7z"/>
<path d="M12083 11444 c-7 -18 17 -38 31 -24 11 11 1 40 -14 40 -6 0 -13 -7
-17 -16z"/>
<path d="M12147 11454 c-14 -15 -6 -34 14 -34 14 0 19 5 17 17 -3 18 -20 27
-31 17z"/>
<path d="M12000 11390 c0 -15 5 -20 18 -18 9 2 17 10 17 18 0 8 -8 16 -17 18
-13 2 -18 -3 -18 -18z"/>
<path d="M7372 14303 c2 -10 10 -18 18 -18 8 0 16 8 18 18 2 12 -3 17 -18 17
-15 0 -20 -5 -18 -17z"/>
<path d="M7296 14273 c-12 -12 -6 -33 9 -33 8 0 15 6 15 14 0 17 -14 28 -24
19z"/>
<path d="M7347 14274 c-14 -15 -6 -34 14 -34 14 0 19 5 17 17 -3 18 -20 27
-31 17z"/>
<path d="M7407 14274 c-14 -15 -6 -34 14 -34 14 0 19 5 17 17 -3 18 -20 27
-31 17z"/>
<path d="M7190 14256 c0 -9 7 -16 16 -16 9 0 14 5 12 12 -6 18 -28 21 -28 4z"/>
<path d="M7240 14255 c0 -10 7 -15 18 -13 21 4 19 22 -2 26 -10 2 -16 -3 -16
-13z"/>
<path d="M7323 14223 c-21 -7 -15 -33 7 -33 11 0 20 6 20 14 0 18 -11 25 -27
19z"/>
<path d="M7377 14224 c-14 -15 -6 -34 14 -34 14 0 19 5 17 17 -3 18 -20 27
-31 17z"/>
<path d="M7437 14224 c-14 -15 -6 -34 14 -34 14 0 19 5 17 17 -3 18 -20 27
-31 17z"/>
<path d="M7265 14210 c-3 -5 1 -10 9 -10 9 0 16 5 16 10 0 6 -4 10 -9 10 -6 0
-13 -4 -16 -10z"/>
<path d="M7342 14158 c5 -15 28 -18 29 -3 0 6 -7 12 -17 13 -10 3 -15 -1 -12
-10z"/>
<path d="M7402 14158 c7 -19 38 -22 38 -4 0 10 -9 16 -21 16 -12 0 -19 -5 -17
-12z"/>
<path d="M7462 14158 c7 -19 38 -22 38 -4 0 10 -9 16 -21 16 -12 0 -19 -5 -17
-12z"/>
<path d="M7442 14109 c2 -6 8 -10 13 -10 5 0 11 4 13 10 2 6 -4 11 -13 11 -9
0 -15 -5 -13 -11z"/>
<path d="M7497 14114 c-9 -10 2 -24 19 -24 8 0 14 7 14 15 0 15 -21 21 -33 9z"/>
<path d="M8674 13246 c-8 -22 3 -33 18 -18 9 9 9 15 0 24 -9 9 -13 7 -18 -6z"/>
<path d="M8731 13250 c-16 -9 -6 -30 15 -30 15 0 20 25 6 34 -4 2 -14 1 -21
-4z"/>
<path d="M8797 13253 c-4 -3 -7 -12 -7 -20 0 -15 26 -18 34 -4 7 11 -18 33
-27 24z"/>
<path d="M8701 13196 c-12 -14 -5 -26 16 -26 15 0 18 26 4 34 -5 3 -14 0 -20
-8z"/>
<path d="M8760 13195 c-10 -12 -9 -16 5 -21 23 -9 40 10 22 25 -11 9 -17 8
-27 -4z"/>
<path d="M8827 13204 c-14 -15 -6 -34 14 -34 14 0 19 5 17 17 -3 18 -20 27
-31 17z"/>
<path d="M8883 13194 c-8 -20 8 -36 26 -25 15 10 8 41 -9 41 -6 0 -13 -7 -17
-16z"/>
<path d="M8947 13204 c-14 -15 -6 -34 14 -34 14 0 19 5 17 17 -3 18 -20 27
-31 17z"/>
<path d="M9007 13204 c-14 -15 -6 -34 14 -34 14 0 19 5 17 17 -3 18 -20 27
-31 17z"/>
<path d="M8731 13146 c-12 -14 -5 -26 16 -26 15 0 18 26 4 34 -5 3 -14 0 -20
-8z"/>
<path d="M8790 13150 c-11 -7 -11 -11 -1 -24 11 -12 17 -14 27 -5 8 6 14 15
14 19 0 13 -26 19 -40 10z"/>
<path d="M8850 13141 c0 -11 4 -22 9 -25 12 -8 34 21 26 34 -11 17 -35 11 -35
-9z"/>
<path d="M8903 13144 c-8 -22 18 -37 36 -20 7 8 10 19 7 25 -10 16 -36 13 -43
-5z"/>
<path d="M8973 13144 c-8 -21 13 -42 28 -27 13 13 5 43 -11 43 -6 0 -13 -7
-17 -16z"/>
<path d="M9033 13144 c-7 -18 17 -38 31 -24 11 11 1 40 -14 40 -6 0 -13 -7
-17 -16z"/>
<path d="M9096 13151 c-7 -11 3 -41 14 -41 13 0 32 29 25 40 -8 12 -32 13 -39
1z"/>
<path d="M8670 13134 c0 -17 22 -14 28 4 2 7 -3 12 -12 12 -9 0 -16 -7 -16
-16z"/>
<path d="M9155 13140 c-8 -12 20 -24 35 -15 5 3 10 10 10 16 0 12 -37 12 -45
-1z"/>
<path d="M8701 13096 c-9 -10 -9 -16 -1 -21 17 -10 37 12 24 25 -8 8 -15 6
-23 -4z"/>
<path d="M8761 13101 c-16 -10 -6 -31 15 -31 8 0 14 9 14 20 0 22 -7 25 -29
11z"/>
<path d="M8815 13100 c-4 -7 -3 -16 3 -22 14 -14 45 -2 40 15 -6 16 -34 21
-43 7z"/>
<path d="M8880 13095 c-10 -12 -9 -16 5 -21 19 -8 40 9 31 25 -10 15 -21 14
-36 -4z"/>
<path d="M8942 13097 c-14 -16 -6 -27 20 -27 13 0 18 6 16 17 -4 22 -22 27
-36 10z"/>
<path d="M9007 13104 c-14 -15 -6 -34 14 -34 14 0 19 5 17 17 -3 18 -20 27
-31 17z"/>
<path d="M9067 13104 c-14 -15 -6 -34 14 -34 14 0 19 5 17 17 -3 18 -20 27
-31 17z"/>
<path d="M8676 13053 c-11 -11 -6 -23 9 -23 8 0 15 4 15 9 0 13 -16 22 -24 14z"/>
<path d="M8730 13040 c0 -11 7 -20 15 -20 8 0 15 9 15 20 0 11 -7 20 -15 20
-8 0 -15 -9 -15 -20z"/>
<path d="M8787 13053 c-3 -5 -2 -15 3 -22 10 -17 43 -6 38 12 -6 15 -34 22
-41 10z"/>
<path d="M8857 13054 c-14 -14 -7 -35 11 -32 9 2 17 10 17 17 0 16 -18 25 -28
15z"/>
<path d="M8917 13054 c-14 -14 -7 -35 11 -32 9 2 17 10 17 17 0 16 -18 25 -28
15z"/>
<path d="M8975 13050 c-4 -7 -3 -16 3 -22 14 -14 45 -2 40 15 -6 16 -34 21
-43 7z"/>
<path d="M9035 13050 c-8 -14 3 -30 21 -30 8 0 14 9 14 20 0 21 -24 28 -35 10z"/>
<path d="M8755 13000 c-8 -14 3 -30 21 -30 8 0 14 9 14 20 0 21 -24 28 -35 10z"/>
<path d="M8816 12995 c-3 -9 1 -18 10 -22 19 -7 39 11 30 26 -10 16 -33 13
-40 -4z"/>
<path d="M8880 12990 c0 -15 5 -20 18 -18 9 2 17 10 17 18 0 8 -8 16 -17 18
-13 2 -18 -3 -18 -18z"/>
<path d="M8947 13003 c-14 -13 -6 -33 13 -33 13 0 20 7 20 20 0 19 -20 27 -33
13z"/>
<path d="M9005 13000 c-8 -14 3 -30 21 -30 8 0 14 9 14 20 0 21 -24 28 -35 10z"/>
<path d="M8693 12988 c2 -7 10 -13 17 -13 7 0 15 6 18 13 2 7 -5 12 -18 12
-13 0 -20 -5 -17 -12z"/>
<path d="M8731 12946 c-12 -14 -5 -26 16 -26 15 0 18 26 4 34 -5 3 -14 0 -20
-8z"/>
<path d="M8785 12950 c-4 -7 -3 -16 3 -22 14 -14 45 -2 40 15 -6 16 -34 21
-43 7z"/>
<path d="M8857 12954 c-14 -14 -7 -35 11 -32 9 2 17 10 17 17 0 16 -18 25 -28
15z"/>
<path d="M8910 12940 c0 -15 5 -20 18 -18 9 2 17 10 17 18 0 8 -8 16 -17 18
-13 2 -18 -3 -18 -18z"/>
<path d="M8975 12950 c-4 -7 -3 -16 3 -22 14 -14 45 -2 40 15 -6 16 -34 21
-43 7z"/>
<path d="M8701 12896 c-12 -14 -5 -26 16 -26 15 0 18 26 4 34 -5 3 -14 0 -20
-8z"/>
<path d="M8757 12896 c-7 -16 1 -26 20 -26 7 0 13 9 13 20 0 23 -25 27 -33 6z"/>
<path d="M8820 12890 c0 -15 5 -20 18 -18 9 2 17 10 17 18 0 8 -8 16 -17 18
-13 2 -18 -3 -18 -18z"/>
<path d="M8880 12890 c0 -15 5 -20 18 -18 9 2 17 10 17 18 0 8 -8 16 -17 18
-13 2 -18 -3 -18 -18z"/>
<path d="M8947 12904 c-14 -14 -7 -35 11 -32 9 2 17 10 17 17 0 16 -18 25 -28
15z"/>
<path d="M8732 12846 c1 -10 8 -17 13 -17 15 1 12 24 -3 29 -9 3 -13 -2 -10
-12z"/>
<path d="M8790 12840 c0 -23 25 -27 33 -6 7 16 -1 26 -20 26 -7 0 -13 -9 -13
-20z"/>
<path d="M8852 12843 c2 -10 10 -18 18 -18 22 0 18 29 -3 33 -14 3 -18 -1 -15
-15z"/>
<path d="M8912 12843 c2 -10 10 -18 18 -18 22 0 18 29 -3 33 -14 3 -18 -1 -15
-15z"/>
<path d="M8706 12803 c-11 -11 -6 -23 9 -23 8 0 15 4 15 9 0 13 -16 22 -24 14z"/>
<path d="M8757 12803 c-13 -12 -7 -23 13 -23 11 0 20 7 20 15 0 15 -21 21 -33
8z"/>
<path d="M8817 12795 c-7 -16 8 -29 23 -20 15 9 12 35 -4 35 -8 0 -16 -7 -19
-15z"/>
<path d="M8880 12796 c0 -8 4 -17 8 -20 13 -8 35 11 28 23 -10 16 -36 14 -36
-3z"/>
<path d="M8724 12749 c-10 -17 13 -36 27 -22 12 12 4 33 -11 33 -5 0 -12 -5
-16 -11z"/>
<path d="M8784 12749 c-8 -14 11 -33 25 -25 6 4 11 14 11 22 0 16 -26 19 -36
3z"/>
<path d="M8847 12745 c-4 -8 -2 -17 4 -21 12 -7 41 15 33 27 -8 14 -31 11 -37
-6z"/>
<path d="M8752 12693 c2 -10 10 -18 18 -18 8 0 16 8 18 18 2 12 -3 17 -18 17
-15 0 -20 -5 -18 -17z"/>
<path d="M8816 12702 c-8 -13 11 -35 23 -28 16 10 14 36 -3 36 -8 0 -17 -4
-20 -8z"/>
<path d="M8877 12704 c-9 -9 4 -34 18 -34 14 0 27 25 18 34 -4 3 -12 6 -18 6
-6 0 -14 -3 -18 -6z"/>
<path d="M8710 12689 c0 -5 5 -7 10 -4 6 3 10 8 10 11 0 2 -4 4 -10 4 -5 0
-10 -5 -10 -11z"/>
<path d="M8725 12650 c-4 -6 -3 -16 3 -22 6 -6 12 -6 17 2 4 6 3 16 -3 22 -6
6 -12 6 -17 -2z"/>
<path d="M8777 12654 c-9 -10 2 -24 19 -24 8 0 14 7 14 15 0 15 -21 21 -33 9z"/>
<path d="M8840 12646 c0 -10 9 -16 21 -16 24 0 21 23 -4 28 -10 2 -17 -3 -17
-12z"/>
<path d="M8742 12598 c7 -19 38 -22 38 -4 0 10 -9 16 -21 16 -12 0 -19 -5 -17
-12z"/>
<path d="M8802 12598 c7 -19 38 -22 38 -4 0 10 -9 16 -21 16 -12 0 -19 -5 -17
-12z"/>
<path d="M8772 12543 c2 -10 10 -18 18 -18 8 0 16 8 18 18 2 12 -3 17 -18 17
-15 0 -20 -5 -18 -17z"/>
<path d="M8832 12543 c2 -10 10 -18 18 -18 8 0 16 8 18 18 2 12 -3 17 -18 17
-15 0 -20 -5 -18 -17z"/>
<path d="M8745 12510 c-10 -17 12 -37 25 -24 8 8 6 15 -4 23 -10 9 -16 9 -21
1z"/>
<path d="M8800 12496 c0 -8 4 -17 9 -20 11 -7 33 18 24 27 -12 12 -33 7 -33
-7z"/>
<path d="M8775 12460 c-7 -12 2 -30 16 -30 5 0 9 9 9 20 0 21 -15 27 -25 10z"/>
<path d="M8837 12464 c-14 -15 -6 -34 14 -34 14 0 19 5 17 17 -3 18 -20 27
-31 17z"/>
<path d="M8755 12409 c-10 -15 3 -25 16 -12 7 7 7 13 1 17 -6 3 -14 1 -17 -5z"/>
<path d="M8807 12414 c-14 -15 -6 -34 14 -34 14 0 19 5 17 17 -3 18 -20 27
-31 17z"/>
<path d="M8775 12360 c-7 -12 2 -30 16 -30 5 0 9 9 9 20 0 21 -15 27 -25 10z"/>
<path d="M8834 12359 c-10 -17 13 -36 27 -22 12 12 4 33 -11 33 -5 0 -12 -5
-16 -11z"/>
<path d="M8805 12310 c-11 -17 5 -32 21 -19 7 6 11 15 8 20 -7 12 -21 11 -29
-1z"/>
<path d="M8777 12264 c-8 -8 1 -24 14 -24 5 0 9 7 9 15 0 15 -12 20 -23 9z"/>
<path d="M8835 12260 c-7 -12 2 -30 16 -30 5 0 9 9 9 20 0 21 -15 27 -25 10z"/>
<path d="M8800 12205 c0 -8 7 -15 15 -15 8 0 15 7 15 15 0 8 -7 15 -15 15 -8
0 -15 -7 -15 -15z"/>
<path d="M8833 12173 c-16 -6 -5 -33 13 -33 8 0 14 6 14 14 0 18 -11 25 -27
19z"/>
<path d="M8800 12105 c0 -14 5 -25 10 -25 6 0 10 4 10 9 0 5 3 16 6 25 4 11 1
16 -10 16 -10 0 -16 -9 -16 -25z"/>
<path d="M8851 12103 c-17 -37 2 -53 24 -20 16 24 14 47 -4 47 -4 0 -13 -12
-20 -27z"/>
<path d="M8820 12035 c0 -9 5 -15 11 -13 6 2 11 8 11 13 0 5 -5 11 -11 13 -6
2 -11 -4 -11 -13z"/>
<path d="M8874 12039 c-10 -17 13 -36 27 -22 12 12 4 33 -11 33 -5 0 -12 -5
-16 -11z"/>
<path d="M8845 11989 c-10 -15 1 -23 20 -15 9 3 13 10 10 16 -8 13 -22 13 -30
-1z"/>
<path d="M8904 11989 c-8 -14 11 -33 25 -25 16 10 13 36 -3 36 -8 0 -18 -5
-22 -11z"/>
<path d="M8882 11948 c-18 -18 -14 -28 8 -28 11 0 20 6 20 14 0 21 -15 27 -28
14z"/>
<path d="M8826 11941 c-4 -5 -2 -12 3 -15 5 -4 12 -2 15 3 4 5 2 12 -3 15 -5
4 -12 2 -15 -3z"/>
<path d="M8850 11884 c0 -17 22 -14 28 4 2 7 -3 12 -12 12 -9 0 -16 -7 -16
-16z"/>
<path d="M8900 11885 c0 -8 9 -15 20 -15 11 0 20 7 20 15 0 8 -9 15 -20 15
-11 0 -20 -7 -20 -15z"/>
<path d="M8876 11841 c-7 -11 18 -33 27 -24 4 3 7 12 7 20 0 15 -26 18 -34 4z"/>
<path d="M8932 11833 c2 -10 10 -18 18 -18 8 0 16 8 18 18 2 12 -3 17 -18 17
-15 0 -20 -5 -18 -17z"/>
<path d="M8860 11790 c0 -5 5 -10 10 -10 6 0 10 5 10 10 0 6 -4 10 -10 10 -5
0 -10 -4 -10 -10z"/>
<path d="M11940 11240 c0 -5 7 -10 15 -10 8 0 15 5 15 10 0 6 -7 10 -15 10 -8
0 -15 -4 -15 -10z"/>
<path d="M12010 11234 c0 -8 5 -12 10 -9 6 3 10 10 10 16 0 5 -4 9 -10 9 -5 0
-10 -7 -10 -16z"/>
<path d="M12070 11240 c0 -5 5 -10 10 -10 6 0 10 5 10 10 0 6 -4 10 -10 10 -5
0 -10 -4 -10 -10z"/>
<path d="M8040 11196 c0 -9 7 -16 16 -16 17 0 14 22 -4 28 -7 2 -12 -3 -12
-12z"/>
<path d="M8100 11196 c0 -9 7 -16 16 -16 17 0 14 22 -4 28 -7 2 -12 -3 -12
-12z"/>
<path d="M11774 11199 c-10 -17 13 -36 27 -22 12 12 4 33 -11 33 -5 0 -12 -5
-16 -11z"/>
<path d="M11842 11196 c1 -10 8 -17 13 -17 15 1 12 24 -3 29 -9 3 -13 -2 -10
-12z"/>
<path d="M11904 11199 c-3 -6 -2 -15 2 -19 12 -12 38 5 30 19 -9 14 -23 14
-32 0z"/>
<path d="M11970 11196 c0 -8 4 -17 9 -20 11 -7 33 18 24 27 -12 12 -33 7 -33
-7z"/>
<path d="M12034 11199 c-10 -17 13 -36 27 -22 12 12 4 33 -11 33 -5 0 -12 -5
-16 -11z"/>
<path d="M12104 11199 c-10 -17 13 -36 27 -22 12 12 4 33 -11 33 -5 0 -12 -5
-16 -11z"/>
<path d="M12170 11190 c0 -11 4 -20 9 -20 13 0 32 26 24 33 -13 14 -33 6 -33
-13z"/>
<path d="M12234 11199 c-8 -14 11 -33 25 -25 6 4 11 11 11 16 0 13 -29 20 -36
9z"/>
<path d="M7972 11189 c2 -6 8 -10 13 -10 5 0 11 4 13 10 2 6 -4 11 -13 11 -9
0 -15 -5 -13 -11z"/>
<path d="M12300 11190 c0 -5 7 -10 15 -10 8 0 15 5 15 10 0 6 -7 10 -15 10 -8
0 -15 -4 -15 -10z"/>
<path d="M7886 11153 c-11 -11 -6 -23 9 -23 8 0 15 4 15 9 0 13 -16 22 -24 14z"/>
<path d="M7946 11153 c-11 -11 -6 -23 9 -23 8 0 15 4 15 9 0 13 -16 22 -24 14z"/>
<path d="M8007 11154 c-13 -13 -7 -24 14 -24 11 0 19 5 17 12 -5 14 -22 21
-31 12z"/>
<path d="M8073 11153 c-20 -7 -15 -23 7 -23 11 0 20 4 20 9 0 13 -12 19 -27
14z"/>
<path d="M8135 11150 c-11 -17 5 -32 21 -19 7 6 11 15 8 20 -7 12 -21 11 -29
-1z"/>
<path d="M8194 11149 c-10 -17 13 -36 27 -22 12 12 4 33 -11 33 -5 0 -12 -5
-16 -11z"/>
<path d="M11676 11151 c-7 -11 18 -33 27 -24 4 3 7 12 7 20 0 15 -26 18 -34 4z"/>
<path d="M11736 11151 c-9 -15 23 -36 36 -23 5 5 7 15 4 21 -9 13 -33 14 -40
2z"/>
<path d="M11804 11149 c-8 -14 18 -31 30 -19 9 9 0 30 -14 30 -5 0 -12 -5 -16
-11z"/>
<path d="M11875 11150 c-11 -17 5 -32 21 -19 7 6 11 15 8 20 -7 12 -21 11 -29
-1z"/>
<path d="M11934 11149 c-3 -6 -2 -15 4 -21 13 -13 32 -2 32 18 0 16 -26 19
-36 3z"/>
<path d="M12004 11149 c-3 -6 -2 -15 4 -21 13 -13 32 -2 32 18 0 16 -26 19
-36 3z"/>
<path d="M12072 11143 c2 -10 10 -18 18 -18 8 0 16 8 18 18 2 12 -3 17 -18 17
-15 0 -20 -5 -18 -17z"/>
<path d="M12135 11150 c-11 -18 5 -31 26 -20 11 6 17 15 14 21 -8 12 -32 12
-40 -1z"/>
<path d="M12207 11154 c-13 -13 -7 -24 14 -24 11 0 19 5 17 12 -5 14 -22 21
-31 12z"/>
<path d="M12272 11146 c1 -10 8 -17 13 -17 15 1 12 24 -3 29 -9 3 -13 -2 -10
-12z"/>
<path d="M12334 11149 c-10 -17 13 -36 27 -22 12 12 4 33 -11 33 -5 0 -12 -5
-16 -11z"/>
<path d="M12400 11146 c0 -9 7 -16 16 -16 17 0 14 22 -4 28 -7 2 -12 -3 -12
-12z"/>
<path d="M12467 11153 c-12 -11 -8 -23 8 -23 8 0 15 7 15 15 0 16 -12 20 -23
8z"/>
<path d="M7910 11096 c0 -9 7 -16 16 -16 17 0 14 22 -4 28 -7 2 -12 -3 -12
-12z"/>
<path d="M7970 11095 c0 -8 7 -15 15 -15 8 0 15 7 15 15 0 8 -7 15 -15 15 -8
0 -15 -7 -15 -15z"/>
<path d="M8035 11099 c-10 -15 1 -23 20 -15 9 3 13 10 10 16 -8 13 -22 13 -30
-1z"/>
<path d="M8100 11095 c0 -8 7 -15 15 -15 8 0 15 7 15 15 0 8 -7 15 -15 15 -8
0 -15 -7 -15 -15z"/>
<path d="M8160 11095 c0 -8 7 -15 15 -15 8 0 15 7 15 15 0 8 -7 15 -15 15 -8
0 -15 -7 -15 -15z"/>
<path d="M8227 11103 c-13 -12 -7 -23 13 -23 11 0 20 7 20 15 0 15 -21 21 -33
8z"/>
<path d="M8290 11095 c0 -10 7 -15 18 -13 21 4 19 22 -2 26 -10 2 -16 -3 -16
-13z"/>
<path d="M8357 11103 c-13 -12 -7 -23 13 -23 11 0 20 7 20 15 0 15 -21 21 -33
8z"/>
<path d="M11587 11103 c-13 -12 -7 -23 13 -23 11 0 20 7 20 15 0 15 -21 21
-33 8z"/>
<path d="M11647 11104 c-13 -13 -7 -24 14 -24 11 0 19 5 17 12 -5 14 -22 21
-31 12z"/>
<path d="M11707 11104 c-10 -11 3 -24 23 -24 13 0 17 5 14 15 -6 15 -26 20
-37 9z"/>
<path d="M11772 11093 c2 -10 10 -18 18 -18 8 0 16 8 18 18 2 12 -3 17 -18 17
-15 0 -20 -5 -18 -17z"/>
<path d="M11837 11104 c-14 -14 -7 -25 13 -22 12 2 21 8 21 13 0 12 -24 18
-34 9z"/>
<path d="M11902 11093 c2 -10 10 -18 18 -18 8 0 16 8 18 18 2 12 -3 17 -18 17
-15 0 -20 -5 -18 -17z"/>
<path d="M11964 11099 c-9 -16 18 -30 33 -17 7 6 10 14 7 19 -7 13 -31 11 -40
-2z"/>
<path d="M12037 11103 c-13 -12 -7 -23 13 -23 11 0 20 7 20 15 0 15 -21 21
-33 8z"/>
<path d="M12100 11095 c0 -8 9 -15 20 -15 11 0 20 7 20 15 0 8 -9 15 -20 15
-11 0 -20 -7 -20 -15z"/>
<path d="M12170 11095 c0 -10 7 -15 18 -13 21 4 19 22 -2 26 -10 2 -16 -3 -16
-13z"/>
<path d="M12237 11103 c-13 -12 -7 -23 13 -23 11 0 20 7 20 15 0 15 -21 21
-33 8z"/>
<path d="M12305 11099 c-10 -15 1 -23 20 -15 9 3 13 10 10 16 -8 13 -22 13
-30 -1z"/>
<path d="M12367 11103 c-13 -12 -7 -23 13 -23 11 0 20 7 20 15 0 15 -21 21
-33 8z"/>
<path d="M12425 11100 c-3 -6 1 -13 10 -16 19 -8 30 0 20 15 -8 14 -22 14 -30
1z"/>
<path d="M12490 11090 c0 -5 7 -10 15 -10 8 0 15 5 15 10 0 6 -7 10 -15 10 -8
0 -15 -4 -15 -10z"/>
<path d="M8005 11051 c-7 -12 12 -24 25 -16 11 7 4 25 -10 25 -5 0 -11 -4 -15
-9z"/>
<path d="M8070 11045 c0 -9 5 -15 11 -13 6 2 11 8 11 13 0 5 -5 11 -11 13 -6
2 -11 -4 -11 -13z"/>
<path d="M8130 11045 c0 -8 7 -15 15 -15 8 0 15 7 15 15 0 8 -7 15 -15 15 -8
0 -15 -7 -15 -15z"/>
<path d="M8190 11045 c0 -8 9 -15 20 -15 11 0 20 7 20 15 0 8 -9 15 -20 15
-11 0 -20 -7 -20 -15z"/>
<path d="M8260 11045 c0 -8 7 -15 15 -15 8 0 15 7 15 15 0 8 -7 15 -15 15 -8
0 -15 -7 -15 -15z"/>
<path d="M8320 11047 c0 -19 10 -27 26 -20 21 8 17 33 -6 33 -11 0 -20 -6 -20
-13z"/>
<path d="M8380 11047 c0 -19 10 -27 26 -20 21 8 17 33 -6 33 -11 0 -20 -6 -20
-13z"/>
<path d="M8452 11044 c4 -21 22 -23 26 -1 2 10 -3 17 -13 17 -10 0 -15 -6 -13
-16z"/>
<path d="M8512 11044 c4 -21 22 -23 26 -1 2 10 -3 17 -13 17 -10 0 -15 -6 -13
-16z"/>
<path d="M8570 11046 c0 -8 4 -17 9 -20 11 -7 33 18 24 27 -12 12 -33 7 -33
-7z"/>
<path d="M11494 11049 c-7 -12 15 -31 28 -23 4 3 8 12 8 20 0 17 -26 19 -36 3z"/>
<path d="M11560 11039 c0 -24 23 -21 28 4 2 10 -3 17 -12 17 -10 0 -16 -9 -16
-21z"/>
<path d="M11620 11039 c0 -24 23 -21 28 4 2 10 -3 17 -12 17 -10 0 -16 -9 -16
-21z"/>
<path d="M11680 11045 c0 -8 7 -15 15 -15 8 0 15 7 15 15 0 8 -7 15 -15 15 -8
0 -15 -7 -15 -15z"/>
<path d="M11740 11046 c0 -8 4 -17 8 -20 13 -8 35 11 28 23 -10 16 -36 14 -36
-3z"/>
<path d="M11812 11044 c4 -21 22 -23 26 -1 2 10 -3 17 -13 17 -10 0 -15 -6
-13 -16z"/>
<path d="M11870 11045 c0 -8 7 -15 15 -15 8 0 15 7 15 15 0 8 -7 15 -15 15 -8
0 -15 -7 -15 -15z"/>
<path d="M11942 11044 c4 -21 22 -23 26 -1 2 10 -3 17 -13 17 -10 0 -15 -6
-13 -16z"/>
<path d="M12000 11046 c0 -10 9 -16 21 -16 24 0 21 23 -4 28 -10 2 -17 -3 -17
-12z"/>
<path d="M12070 11045 c0 -8 9 -15 20 -15 11 0 20 7 20 15 0 8 -9 15 -20 15
-11 0 -20 -7 -20 -15z"/>
<path d="M12140 11045 c0 -8 7 -15 15 -15 8 0 15 7 15 15 0 8 -7 15 -15 15 -8
0 -15 -7 -15 -15z"/>
<path d="M12205 11050 c-3 -5 -4 -14 0 -20 8 -13 35 -1 35 16 0 16 -26 19 -35
4z"/>
<path d="M12270 11045 c0 -8 7 -15 15 -15 8 0 15 7 15 15 0 8 -7 15 -15 15 -8
0 -15 -7 -15 -15z"/>
<path d="M12337 11053 c-12 -11 -8 -23 8 -23 8 0 15 7 15 15 0 16 -12 20 -23
8z"/>
<path d="M12400 11044 c0 -8 5 -12 10 -9 6 3 10 10 10 16 0 5 -4 9 -10 9 -5 0
-10 -7 -10 -16z"/>
<path d="M8170 11000 c0 -5 5 -10 10 -10 6 0 10 5 10 10 0 6 -4 10 -10 10 -5
0 -10 -4 -10 -10z"/>
<path d="M8230 10995 c0 -9 5 -15 11 -13 6 2 11 8 11 13 0 5 -5 11 -11 13 -6
2 -11 -4 -11 -13z"/>
<path d="M8295 11000 c-7 -12 2 -30 16 -30 5 0 9 9 9 20 0 21 -15 27 -25 10z"/>
<path d="M8354 10999 c-10 -17 13 -36 27 -22 12 12 4 33 -11 33 -5 0 -12 -5
-16 -11z"/>
<path d="M8420 10989 c0 -24 23 -21 28 4 2 10 -3 17 -12 17 -10 0 -16 -9 -16
-21z"/>
<path d="M8480 10989 c0 -24 23 -21 28 4 2 10 -3 17 -12 17 -10 0 -16 -9 -16
-21z"/>
<path d="M8542 10993 c5 -25 28 -28 28 -4 0 12 -6 21 -16 21 -9 0 -14 -7 -12
-17z"/>
<path d="M8604 10999 c-10 -17 13 -36 27 -22 12 12 4 33 -11 33 -5 0 -12 -5
-16 -11z"/>
<path d="M8664 10999 c-10 -17 13 -36 27 -22 12 12 4 33 -11 33 -5 0 -12 -5
-16 -11z"/>
<path d="M11334 10999 c-10 -17 13 -36 27 -22 12 12 4 33 -11 33 -5 0 -12 -5
-16 -11z"/>
<path d="M11397 10996 c-7 -16 1 -26 20 -26 7 0 13 9 13 20 0 23 -25 27 -33 6z"/>
<path d="M11462 10993 c5 -25 28 -28 28 -4 0 12 -6 21 -16 21 -9 0 -14 -7 -12
-17z"/>
<path d="M11524 10999 c-10 -17 13 -36 27 -22 12 12 4 33 -11 33 -5 0 -12 -5
-16 -11z"/>
<path d="M11586 11002 c-8 -13 11 -35 23 -28 16 10 14 36 -3 36 -8 0 -17 -4
-20 -8z"/>
<path d="M11650 10990 c0 -11 4 -20 9 -20 13 0 32 26 24 33 -13 14 -33 6 -33
-13z"/>
<path d="M11710 10995 c0 -10 7 -15 18 -13 21 4 19 22 -2 26 -10 2 -16 -3 -16
-13z"/>
<path d="M11774 10999 c-7 -12 15 -31 28 -23 4 3 8 12 8 20 0 17 -26 19 -36 3z"/>
<path d="M11840 10996 c0 -8 4 -17 9 -20 11 -7 33 18 24 27 -12 12 -33 7 -33
-7z"/>
<path d="M11904 10999 c-3 -6 -2 -15 4 -21 13 -13 32 -2 32 18 0 16 -26 19
-36 3z"/>
<path d="M11970 10996 c0 -8 4 -17 9 -20 11 -7 33 18 24 27 -12 12 -33 7 -33
-7z"/>
<path d="M12034 10999 c-3 -6 -2 -15 4 -21 13 -13 32 -2 32 18 0 16 -26 19
-36 3z"/>
<path d="M12110 10995 c0 -10 7 -15 18 -13 21 4 19 22 -2 26 -10 2 -16 -3 -16
-13z"/>
<path d="M12185 10999 c-4 -6 -5 -13 -2 -16 7 -7 27 6 27 18 0 12 -17 12 -25
-2z"/>
<path d="M8516 10952 c-3 -6 -1 -14 5 -17 15 -10 25 3 12 16 -7 7 -13 7 -17 1z"/>
<path d="M8575 10950 c-8 -13 4 -32 16 -25 12 8 12 35 0 35 -6 0 -13 -4 -16
-10z"/>
<path d="M8634 10949 c-10 -17 13 -36 27 -22 12 12 4 33 -11 33 -5 0 -12 -5
-16 -11z"/>
<path d="M8696 10952 c-2 -4 -1 -14 4 -22 7 -11 12 -12 21 -3 6 6 8 16 5 22
-8 13 -23 14 -30 3z"/>
<path d="M8767 10954 c-14 -14 -7 -35 11 -32 9 2 17 10 17 17 0 16 -18 25 -28
15z"/>
<path d="M11107 10954 c-14 -14 -7 -35 11 -32 9 2 17 10 17 17 0 16 -18 25
-28 15z"/>
<path d="M11170 10940 c0 -19 20 -27 33 -13 8 7 -11 33 -24 33 -5 0 -9 -9 -9
-20z"/>
<path d="M11235 10951 c-8 -15 3 -31 21 -31 9 0 14 7 12 17 -4 20 -24 28 -33
14z"/>
<path d="M11307 10954 c-14 -14 -7 -35 11 -32 9 2 17 10 17 17 0 16 -18 25
-28 15z"/>
<path d="M11365 10951 c-8 -15 3 -31 21 -31 9 0 14 7 12 17 -4 20 -24 28 -33
14z"/>
<path d="M11437 10954 c-14 -14 -7 -35 11 -32 9 2 17 10 17 17 0 16 -18 25
-28 15z"/>
<path d="M11501 10946 c-9 -10 -9 -16 -1 -21 17 -10 37 12 24 25 -8 8 -15 6
-23 -4z"/>
<path d="M11560 10940 c0 -13 5 -20 13 -17 6 2 12 10 12 17 0 7 -6 15 -12 18
-8 2 -13 -5 -13 -18z"/>
<path d="M11620 10940 c0 -11 7 -20 15 -20 8 0 15 9 15 20 0 11 -7 20 -15 20
-8 0 -15 -9 -15 -20z"/>
<path d="M11687 10953 c-12 -11 -8 -23 8 -23 8 0 15 7 15 15 0 16 -12 20 -23
8z"/>
<path d="M11750 10945 c0 -8 5 -15 10 -15 6 0 10 7 10 15 0 8 -4 15 -10 15 -5
0 -10 -7 -10 -15z"/>
<path d="M11810 10946 c0 -9 7 -16 16 -16 17 0 14 22 -4 28 -7 2 -12 -3 -12
-12z"/>
<path d="M11880 10946 c0 -9 5 -16 10 -16 6 0 10 4 10 9 0 6 -4 13 -10 16 -5
3 -10 -1 -10 -9z"/>
<path d="M11950 10950 c0 -5 5 -10 11 -10 5 0 7 5 4 10 -3 6 -8 10 -11 10 -2
0 -4 -4 -4 -10z"/>
<path d="M9005 10900 c-4 -6 -3 -16 3 -22 6 -6 12 -6 17 2 4 6 3 16 -3 22 -6
6 -12 6 -17 -2z"/>
<path d="M9203 10903 c-16 -6 -5 -33 13 -33 8 0 14 6 14 14 0 18 -11 25 -27
19z"/>
<path d="M10525 10901 c-8 -15 3 -31 21 -31 9 0 14 7 12 17 -4 20 -24 28 -33
14z"/>
<path d="M10597 10904 c-14 -14 -7 -35 11 -32 9 2 17 10 17 17 0 16 -18 25
-28 15z"/>
<path d="M10660 10895 c-10 -12 -9 -16 5 -21 19 -8 40 9 31 25 -10 15 -21 14
-36 -4z"/>
<path d="M10803 10903 c-21 -7 -15 -33 7 -33 11 0 20 6 20 14 0 18 -11 25 -27
19z"/>
<path d="M10860 10895 c-10 -12 -9 -16 3 -21 17 -6 37 2 37 16 0 15 -29 19
-40 5z"/>
<path d="M11001 10896 c-12 -14 -5 -26 16 -26 15 0 18 26 4 34 -5 3 -14 0 -20
-8z"/>
<path d="M8800 10890 c0 -5 5 -10 10 -10 6 0 10 5 10 10 0 6 -4 10 -10 10 -5
0 -10 -4 -10 -10z"/>
<path d="M8870 10890 c0 -5 5 -10 10 -10 6 0 10 5 10 10 0 6 -4 10 -10 10 -5
0 -10 -4 -10 -10z"/>
<path d="M8932 10889 c2 -6 8 -10 13 -10 5 0 11 4 13 10 2 6 -4 11 -13 11 -9
0 -15 -5 -13 -11z"/>
<path d="M9063 10888 c2 -7 10 -13 17 -13 7 0 15 6 18 13 2 7 -5 12 -18 12
-13 0 -20 -5 -17 -12z"/>
<path d="M9132 10888 c6 -18 28 -21 28 -4 0 9 -7 16 -16 16 -9 0 -14 -5 -12
-12z"/>
<path d="M10722 10888 c7 -19 38 -22 38 -4 0 10 -9 16 -21 16 -12 0 -19 -5
-17 -12z"/>
<path d="M10925 10890 c-8 -12 20 -24 35 -15 6 3 8 11 5 16 -8 12 -32 12 -40
-1z"/>
<path d="M11067 10894 c-9 -10 2 -24 19 -24 8 0 14 7 14 15 0 15 -21 21 -33 9z"/>
<path d="M11135 10891 c-3 -5 -1 -12 5 -16 12 -7 30 2 30 16 0 12 -27 12 -35
0z"/>
<path d="M11202 10889 c2 -6 8 -10 13 -10 5 0 11 4 13 10 2 6 -4 11 -13 11 -9
0 -15 -5 -13 -11z"/>
<path d="M11270 10890 c0 -5 4 -10 9 -10 6 0 13 5 16 10 3 6 -1 10 -9 10 -9 0
-16 -4 -16 -10z"/>
<path d="M9380 10840 c0 -5 5 -10 10 -10 6 0 10 5 10 10 0 6 -4 10 -10 10 -5
0 -10 -4 -10 -10z"/>
<path d="M9450 10840 c0 -5 5 -10 10 -10 6 0 10 5 10 10 0 6 -4 10 -10 10 -5
0 -10 -4 -10 -10z"/>
<path d="M9520 10840 c0 -5 5 -10 10 -10 6 0 10 5 10 10 0 6 -4 10 -10 10 -5
0 -10 -4 -10 -10z"/>
<path d="M9580 10840 c0 -5 7 -10 15 -10 8 0 15 5 15 10 0 6 -7 10 -15 10 -8
0 -15 -4 -15 -10z"/>
<path d="M9650 10840 c0 -5 7 -10 15 -10 8 0 15 5 15 10 0 6 -7 10 -15 10 -8
0 -15 -4 -15 -10z"/>
<path d="M9720 10840 c0 -5 7 -10 16 -10 8 0 12 5 9 10 -3 6 -10 10 -16 10 -5
0 -9 -4 -9 -10z"/>
<path d="M9780 10840 c0 -5 9 -10 21 -10 11 0 17 5 14 10 -3 6 -13 10 -21 10
-8 0 -14 -4 -14 -10z"/>
<path d="M9850 10840 c0 -5 7 -10 15 -10 8 0 15 5 15 10 0 6 -7 10 -15 10 -8
0 -15 -4 -15 -10z"/>
<path d="M9920 10840 c0 -5 7 -10 15 -10 8 0 15 5 15 10 0 6 -7 10 -15 10 -8
0 -15 -4 -15 -10z"/>
<path d="M9990 10840 c0 -5 7 -10 15 -10 8 0 15 5 15 10 0 6 -7 10 -15 10 -8
0 -15 -4 -15 -10z"/>
<path d="M10060 10840 c0 -5 7 -10 15 -10 8 0 15 5 15 10 0 6 -7 10 -15 10 -8
0 -15 -4 -15 -10z"/>
<path d="M10130 10840 c0 -5 7 -10 15 -10 8 0 15 5 15 10 0 6 -7 10 -15 10 -8
0 -15 -4 -15 -10z"/>
<path d="M10200 10840 c0 -5 7 -10 15 -10 8 0 15 5 15 10 0 6 -7 10 -15 10 -8
0 -15 -4 -15 -10z"/>
<path d="M10275 10840 c3 -5 10 -10 16 -10 5 0 9 5 9 10 0 6 -7 10 -16 10 -8
0 -12 -4 -9 -10z"/>
<path d="M10350 10840 c0 -5 5 -10 10 -10 6 0 10 5 10 10 0 6 -4 10 -10 10 -5
0 -10 -4 -10 -10z"/>
<path d="M12968 10205 c-182 -46 -295 -172 -333 -369 -22 -114 -22 -1278 0
-1392 50 -264 229 -395 520 -381 203 10 333 84 409 236 61 119 61 124 61 841
0 589 -2 662 -17 723 -43 167 -138 276 -287 329 -75 27 -271 34 -353 13z m252
-313 c14 -11 34 -34 45 -53 19 -33 20 -52 20 -699 0 -647 -1 -666 -20 -699
-34 -57 -68 -76 -138 -76 -79 0 -120 24 -150 85 l-22 45 0 640 c0 668 1 678
43 733 40 52 166 65 222 24z"/>
<path d="M7196 10182 c-3 -5 -4 -71 -3 -148 l2 -139 173 -3 172 -2 0 -900 0
-900 170 0 c131 0 170 3 169 13 -1 6 -1 411 0 900 l1 887 170 0 170 0 0 150 0
150 -509 0 c-281 0 -512 -4 -515 -8z"/>
<path d="M8370 9140 l0 -1050 170 0 170 0 0 1050 0 1050 -170 0 -170 0 0
-1050z"/>
<path d="M8950 9140 l0 -1050 168 2 167 3 0 448 0 447 70 0 c129 -1 184 -25
220 -96 18 -36 20 -66 26 -384 4 -221 11 -358 18 -382 l12 -38 170 0 170 0 -7
23 c-20 63 -24 113 -24 352 -1 279 -10 410 -34 490 -24 80 -71 142 -134 177
l-54 31 34 18 c46 24 115 100 138 154 30 70 40 148 40 316 0 224 -25 319 -107
410 -49 55 -105 85 -198 109 -70 18 -111 20 -377 20 l-298 0 0 -1050z m576
724 c54 -40 68 -85 72 -235 8 -272 -28 -328 -218 -337 l-95 -4 0 302 0 302
107 -4 c88 -3 112 -7 134 -24z"/>
<path d="M10401 10113 c-41 -260 -322 -1982 -326 -2001 l-6 -23 158 3 158 3
16 115 c9 63 22 154 29 203 l12 87 186 -2 186 -3 30 -202 30 -203 168 0 168 0
-5 23 c-4 19 -67 403 -280 1719 -30 185 -55 341 -55 347 0 8 -73 11 -229 11
l-228 0 -12 -77z m299 -804 c38 -272 70 -500 70 -506 0 -10 -35 -13 -144 -13
-132 0 -144 1 -140 18 2 9 34 238 71 509 37 271 68 491 70 489 2 -2 35 -225
73 -497z"/>
<path d="M11360 9140 l0 -1050 150 0 150 0 2 761 3 761 196 -758 196 -759 171
-3 172 -2 0 1050 0 1050 -150 0 -150 0 -2 -615 -3 -615 -156 612 -156 613
-212 3 -211 2 0 -1050z"/>
<path d="M8946 7584 c-27 -26 -19 -73 18 -119 40 -49 49 -78 24 -83 -13 -2
-18 3 -18 17 0 14 -6 21 -20 21 -29 0 -28 -54 2 -74 30 -21 54 -20 78 4 32 32
26 75 -20 133 -22 28 -39 55 -37 61 6 19 28 18 34 -3 8 -30 43 -28 43 3 0 33
-25 56 -60 56 -16 0 -36 -7 -44 -16z"/>
<path d="M9070 7470 l0 -130 25 0 25 0 0 130 0 130 -25 0 -25 0 0 -130z"/>
<path d="M9140 7470 c0 -122 1 -130 20 -130 17 0 19 8 22 83 l3 82 20 -80 c18
-70 24 -80 43 -80 12 0 22 3 22 8 0 4 0 61 0 127 0 113 -1 120 -20 120 -18 0
-20 -7 -21 -57 l-1 -58 -15 58 c-14 53 -17 57 -44 57 l-29 0 0 -130z"/>
<path d="M9316 7584 c-12 -12 -16 -38 -16 -113 0 -112 10 -134 60 -134 40 0
60 24 60 70 0 26 -4 33 -20 33 -16 0 -20 -7 -20 -31 0 -24 -4 -30 -17 -27 -16
3 -18 15 -18 88 0 69 3 85 15 85 8 0 16 -10 18 -22 2 -15 10 -23 23 -23 14 0
19 7 19 29 0 37 -23 61 -60 61 -16 0 -36 -7 -44 -16z"/>
<path d="M9440 7470 l0 -130 60 0 c53 0 60 2 60 20 0 16 -7 20 -35 20 -33 0
-35 2 -35 35 0 31 3 35 25 35 18 0 25 5 25 20 0 15 -7 20 -25 20 -22 0 -25 4
-25 35 0 33 2 35 35 35 28 0 35 4 35 20 0 18 -7 20 -60 20 l-60 0 0 -130z"/>
<path d="M9652 7588 c-5 -7 -13 -28 -17 -45 -6 -31 -5 -33 19 -33 21 0 26 5
26 25 0 16 6 25 15 25 27 0 17 -54 -18 -101 -19 -24 -37 -61 -41 -81 l-7 -38
66 0 c58 0 65 2 65 20 0 17 -7 20 -40 20 -22 0 -40 4 -40 8 0 5 18 33 40 62
45 60 52 106 22 133 -22 20 -75 22 -90 5z"/>
<path d="M9796 7578 c-20 -28 -23 -196 -3 -221 21 -27 60 -31 90 -7 26 21 27
25 27 114 0 109 -13 136 -65 136 -24 0 -39 -7 -49 -22z m62 -110 c-2 -54 -7
-93 -13 -93 -6 0 -11 39 -13 93 -2 78 0 92 13 92 13 0 15 -14 13 -92z"/>
<path d="M9947 7582 c-24 -26 -22 -72 2 -72 12 0 21 9 25 25 4 14 13 25 21 25
27 0 16 -43 -25 -104 -24 -35 -40 -70 -40 -87 0 -29 1 -29 60 -29 53 0 60 2
60 20 0 16 -7 20 -35 20 -19 0 -35 5 -35 11 0 6 17 34 37 62 39 53 48 102 24
131 -18 22 -74 20 -94 -2z"/>
<path d="M10096 7584 c-24 -23 -21 -64 4 -64 11 0 20 6 20 14 0 21 21 31 31
15 13 -20 11 -27 -11 -46 -23 -20 -27 -53 -5 -53 16 0 31 -43 20 -59 -11 -18
-35 -12 -35 9 0 14 -7 20 -21 20 -32 0 -23 -60 14 -80 24 -13 30 -13 55 0 23
13 27 23 30 64 2 26 -1 53 -7 60 -6 7 -6 17 -1 26 15 23 12 77 -6 94 -8 9 -28
16 -44 16 -16 0 -36 -7 -44 -16z"/>
<path d="M10457 7582 c-27 -29 -20 -64 23 -121 22 -29 40 -59 40 -67 0 -22
-31 -17 -37 6 -3 11 -14 20 -24 20 -26 0 -25 -44 1 -70 42 -42 100 -12 100 51
0 31 -7 47 -35 78 -36 40 -46 81 -20 81 8 0 15 -9 15 -20 0 -13 7 -20 20 -20
22 0 27 28 10 61 -14 25 -71 26 -93 1z"/>
<path d="M10570 7580 c0 -13 7 -20 20 -20 19 0 20 -7 20 -110 l0 -110 25 0 25
0 0 110 c0 103 1 110 20 110 13 0 20 7 20 20 0 18 -7 20 -65 20 -58 0 -65 -2
-65 -20z"/>
<path d="M10720 7470 c0 -123 1 -130 20 -130 18 0 20 7 20 55 0 30 4 55 8 55
19 0 32 -27 32 -67 0 -40 2 -43 26 -43 21 0 24 3 19 21 -4 11 -7 63 -7 115 0
111 -8 124 -74 124 l-44 0 0 -130z m75 71 c7 -24 -4 -51 -21 -51 -9 0 -14 12
-14 35 0 38 24 50 35 16z"/>
<path d="M10870 7470 l0 -130 55 0 c48 0 55 2 55 20 0 16 -7 20 -35 20 -33 0
-35 2 -35 35 0 32 2 35 30 35 23 0 30 4 30 20 0 16 -7 20 -30 20 -28 0 -30 3
-30 35 0 33 2 35 35 35 28 0 35 4 35 20 0 18 -7 20 -55 20 l-55 0 0 -130z"/>
<path d="M11000 7470 l0 -130 60 0 c53 0 60 2 60 20 0 16 -7 20 -35 20 -33 0
-35 2 -35 35 0 31 3 35 25 35 20 0 25 5 25 24 0 19 -4 22 -25 18 -23 -4 -25
-1 -25 31 0 33 2 35 38 38 84 8 82 11 82 -112 0 -102 1 -109 20 -109 19 0 20
7 20 110 l0 110 26 0 c19 0 25 4 22 18 -3 15 -18 17 -131 19 l-127 3 0 -130z"/>
<path d="M11330 7470 l0 -130 25 0 c24 0 25 3 25 55 0 52 1 55 25 55 18 0 25
5 25 20 0 15 -7 20 -25 20 -22 0 -25 4 -25 35 0 32 2 35 30 35 23 0 30 4 30
20 0 18 -7 20 -55 20 l-55 0 0 -130z"/>
<path d="M11474 7586 c-17 -13 -19 -27 -19 -116 0 -96 1 -103 24 -121 17 -14
33 -18 50 -14 43 10 51 31 51 135 0 81 -3 100 -18 113 -23 21 -62 22 -88 3z
m61 -49 c3 -12 5 -52 3 -87 -2 -52 -6 -65 -20 -68 -16 -3 -18 6 -18 87 0 74 3
91 15 91 8 0 17 -10 20 -23z"/>
<path d="M11616 7578 c-12 -16 -16 -47 -16 -111 0 -81 2 -90 26 -113 19 -20
31 -24 52 -19 44 10 52 30 52 135 0 81 -3 100 -18 113 -27 25 -78 22 -96 -5z
m62 -110 c-2 -54 -7 -93 -13 -93 -6 0 -11 39 -13 93 -2 78 0 92 13 92 13 0 15
-14 13 -92z"/>
<path d="M11750 7470 l0 -130 49 0 c73 0 81 12 81 126 0 114 -13 134 -85 134
l-45 0 0 -130z m80 19 c6 -81 2 -109 -16 -109 -11 0 -14 19 -14 91 0 68 3 90
13 87 7 -3 14 -30 17 -69z"/>
<path d="M10280 7470 c0 -17 7 -20 45 -20 38 0 45 3 45 20 0 17 -7 20 -45 20
-38 0 -45 -3 -45 -20z"/>
</g>
</svg>
